<svg xmlns="http://www.w3.org/2000/svg" width="320" height="780" viewBox="0 0 320 780">
  <defs>
    <linearGradient id="accentGrad" x1="0" y1="0" x2="1" y2="0">
      <stop offset="0%" stop-color="#6366f1"/>
      <stop offset="100%" stop-color="#818cf8"/>
    </linearGradient>
  </defs>

  <!-- Background -->
  <rect width="320" height="780" fill="#1e1e1e"/>

  <!-- Header bar -->
  <rect x="0" y="0" width="320" height="42" fill="#252526"/>
  <rect x="0" y="0" width="4" height="42" fill="url(#accentGrad)"/>
  <text x="14" y="16" font-family="Segoe UI, sans-serif" font-size="8" fill="#6366f1" letter-spacing="3" font-weight="600">COGNITIVE ARCHITECTURE</text>
  <text x="14" y="30" font-family="Segoe UI, sans-serif" font-size="13" fill="#cccccc" font-weight="600">Alex Cognitive</text>
  <text x="290" y="26" font-family="Segoe UI, sans-serif" font-size="14" fill="#666666" text-anchor="middle">↻</text>

  <!-- Tab Bar -->
  <rect x="0" y="42" width="320" height="34" fill="#2d2d2d"/>
  <rect x="0" y="75" width="320" height="1" fill="#3c3c3c"/>

  <!-- Inactive: Home -->
  <text x="33" y="63" font-family="Segoe UI, sans-serif" font-size="11" fill="#888888" text-anchor="middle">Home</text>
  <!-- Active tab: Tools -->
  <rect x="62" y="46" width="58" height="26" rx="4" fill="#1e1e1e"/>
  <text x="92" y="63" font-family="Segoe UI, sans-serif" font-size="11" fill="#e0e0e0" text-anchor="middle" font-weight="600">Tools</text>
  <rect x="62" y="73" width="58" height="2" rx="1" fill="#6366f1"/>
  <!-- Other tabs -->
  <text x="148" y="63" font-family="Segoe UI, sans-serif" font-size="11" fill="#888888" text-anchor="middle">Skills</text>
  <text x="206" y="63" font-family="Segoe UI, sans-serif" font-size="11" fill="#888888" text-anchor="middle">Status</text>
  <text x="262" y="63" font-family="Segoe UI, sans-serif" font-size="11" fill="#888888" text-anchor="middle">More</text>

  <!-- Search Bar -->
  <g transform="translate(12, 86)">
    <rect x="0" y="0" width="296" height="30" rx="4" fill="#3c3c3c"/>
    <text x="12" y="20" font-family="Segoe UI, sans-serif" font-size="12" fill="#888888">🔍 Search tools...</text>
  </g>

  <!-- Recently Used Section -->
  <g transform="translate(12, 128)">
    <text x="0" y="0" font-family="Segoe UI, sans-serif" font-size="10" fill="#888888" letter-spacing="0.8" font-weight="600">RECENTLY USED</text>

    <!-- Recent item 1 -->
    <rect x="0" y="10" width="296" height="34" rx="4" fill="#252526"/>
    <rect x="0" y="10" width="2" height="34" rx="1" fill="#6366f1"/>
    <text x="14" y="24" font-family="Segoe UI, sans-serif" font-size="13">🐛</text>
    <text x="36" y="26" font-family="Segoe UI, sans-serif" font-size="12" fill="#cccccc">Debug This</text>
    <text x="246" y="26" font-family="Segoe UI, sans-serif" font-size="10" fill="#666666">just now</text>
    <text x="36" y="38" font-family="Segoe UI, sans-serif" font-size="9" fill="#888888">Find the issue together</text>

    <!-- Recent item 2 -->
    <rect x="0" y="50" width="296" height="34" rx="4" fill="#252526"/>
    <rect x="0" y="50" width="2" height="34" rx="1" fill="#6366f1" opacity="0.6"/>
    <text x="14" y="64" font-family="Segoe UI, sans-serif" font-size="13">👀</text>
    <text x="36" y="66" font-family="Segoe UI, sans-serif" font-size="12" fill="#cccccc">Code Review</text>
    <text x="240" y="66" font-family="Segoe UI, sans-serif" font-size="10" fill="#666666">2h ago</text>
    <text x="36" y="78" font-family="Segoe UI, sans-serif" font-size="9" fill="#888888">Review for correctness and growth</text>

    <!-- Recent item 3 -->
    <rect x="0" y="90" width="296" height="34" rx="4" fill="#252526"/>
    <rect x="0" y="90" width="2" height="34" rx="1" fill="#6366f1" opacity="0.3"/>
    <text x="14" y="104" font-family="Segoe UI, sans-serif" font-size="13">📊</text>
    <text x="36" y="106" font-family="Segoe UI, sans-serif" font-size="12" fill="#cccccc">Generate Diagram</text>
    <text x="234" y="106" font-family="Segoe UI, sans-serif" font-size="10" fill="#666666">yesterday</text>
    <text x="36" y="118" font-family="Segoe UI, sans-serif" font-size="9" fill="#888888">Visualize architecture and flow</text>
  </g>

  <!-- BUILD Category -->
  <g transform="translate(12, 268)">
    <text x="0" y="0" font-family="Segoe UI, sans-serif" font-size="10" fill="#888888" letter-spacing="0.8" font-weight="600">BUILD</text>

    <rect x="0" y="10" width="296" height="30" rx="4" fill="#252526"/>
    <text x="12" y="30" font-family="Segoe UI, sans-serif" font-size="13">👀</text>
    <text x="34" y="30" font-family="Segoe UI, sans-serif" font-size="11" fill="#cccccc">Code Review</text>

    <rect x="0" y="44" width="296" height="30" rx="4" fill="#252526"/>
    <text x="12" y="64" font-family="Segoe UI, sans-serif" font-size="13">🐛</text>
    <text x="34" y="64" font-family="Segoe UI, sans-serif" font-size="11" fill="#cccccc">Debug This</text>

    <rect x="0" y="78" width="296" height="30" rx="4" fill="#252526"/>
    <text x="12" y="98" font-family="Segoe UI, sans-serif" font-size="13">🧪</text>
    <text x="34" y="98" font-family="Segoe UI, sans-serif" font-size="11" fill="#cccccc">Generate Tests</text>

    <rect x="0" y="112" width="296" height="30" rx="4" fill="#252526"/>
    <text x="12" y="132" font-family="Segoe UI, sans-serif" font-size="13">🔍</text>
    <text x="34" y="132" font-family="Segoe UI, sans-serif" font-size="11" fill="#cccccc">Project Audit</text>

    <rect x="0" y="146" width="296" height="30" rx="4" fill="#252526"/>
    <text x="12" y="166" font-family="Segoe UI, sans-serif" font-size="13">🚀</text>
    <text x="34" y="166" font-family="Segoe UI, sans-serif" font-size="11" fill="#cccccc">Release Preflight</text>

    <rect x="0" y="180" width="296" height="30" rx="4" fill="#252526"/>
    <text x="12" y="200" font-family="Segoe UI, sans-serif" font-size="13">📋</text>
    <text x="34" y="200" font-family="Segoe UI, sans-serif" font-size="11" fill="#cccccc">Import Issues</text>

    <rect x="0" y="214" width="296" height="30" rx="4" fill="#252526"/>
    <text x="12" y="234" font-family="Segoe UI, sans-serif" font-size="13">👁️</text>
    <text x="34" y="234" font-family="Segoe UI, sans-serif" font-size="11" fill="#cccccc">Review PR</text>
  </g>

  <!-- CREATE Category -->
  <g transform="translate(12, 520)">
    <text x="0" y="0" font-family="Segoe UI, sans-serif" font-size="10" fill="#888888" letter-spacing="0.8" font-weight="600">CREATE</text>

    <rect x="0" y="10" width="296" height="30" rx="4" fill="#252526"/>
    <text x="12" y="30" font-family="Segoe UI, sans-serif" font-size="13">🖼️</text>
    <text x="34" y="30" font-family="Segoe UI, sans-serif" font-size="11" fill="#cccccc">Generate Image</text>

    <rect x="0" y="44" width="296" height="30" rx="4" fill="#252526"/>
    <text x="12" y="64" font-family="Segoe UI, sans-serif" font-size="13">✏️</text>
    <text x="34" y="64" font-family="Segoe UI, sans-serif" font-size="11" fill="#cccccc">Edit Image (AI)</text>

    <rect x="0" y="78" width="296" height="30" rx="4" fill="#252526"/>
    <text x="12" y="98" font-family="Segoe UI, sans-serif" font-size="13">📄</text>
    <text x="34" y="98" font-family="Segoe UI, sans-serif" font-size="11" fill="#cccccc">Marp PPTX (Local)</text>

    <rect x="0" y="112" width="296" height="30" rx="4" fill="#252526"/>
    <text x="12" y="132" font-family="Segoe UI, sans-serif" font-size="13">🎨</text>
    <text x="34" y="132" font-family="Segoe UI, sans-serif" font-size="11" fill="#cccccc">Gamma Presentation</text>

    <rect x="0" y="146" width="296" height="30" rx="4" fill="#252526"/>
    <text x="12" y="166" font-family="Segoe UI, sans-serif" font-size="13">📊</text>
    <text x="34" y="166" font-family="Segoe UI, sans-serif" font-size="11" fill="#cccccc">Generate Diagram</text>
  </g>

  <!-- KNOW Category -->
  <g transform="translate(12, 698)">
    <text x="0" y="0" font-family="Segoe UI, sans-serif" font-size="10" fill="#888888" letter-spacing="0.8" font-weight="600">KNOW</text>

    <rect x="0" y="10" width="296" height="30" rx="4" fill="#252526"/>
    <text x="12" y="30" font-family="Segoe UI, sans-serif" font-size="13">💬</text>
    <text x="34" y="30" font-family="Segoe UI, sans-serif" font-size="11" fill="#cccccc">Ask About Selection</text>

    <rect x="0" y="44" width="296" height="30" rx="4" fill="#252526"/>
    <text x="12" y="64" font-family="Segoe UI, sans-serif" font-size="13">💡</text>
    <text x="34" y="64" font-family="Segoe UI, sans-serif" font-size="11" fill="#cccccc">Save Insight</text>
  </g>

  <!-- Version footer -->
  <text x="160" y="766" font-family="Segoe UI, sans-serif" font-size="9" fill="#555555" text-anchor="middle">v6.5.0 · Scroll for more tools ↓</text>
</svg>
