<svg xmlns="http://www.w3.org/2000/svg" width="320" height="780" viewBox="0 0 320 780">
  <defs>
    <linearGradient id="accentGrad" x1="0" y1="0" x2="1" y2="0">
      <stop offset="0%" stop-color="#6366f1"/>
      <stop offset="100%" stop-color="#818cf8"/>
    </linearGradient>
  </defs>

  <!-- Background -->
  <rect width="320" height="780" fill="#1e1e1e"/>

  <!-- Header bar -->
  <rect x="0" y="0" width="320" height="42" fill="#252526"/>
  <rect x="0" y="0" width="4" height="42" fill="url(#accentGrad)"/>
  <text x="14" y="16" font-family="Segoe UI, sans-serif" font-size="8" fill="#6366f1" letter-spacing="3" font-weight="600">COGNITIVE ARCHITECTURE</text>
  <text x="14" y="30" font-family="Segoe UI, sans-serif" font-size="13" fill="#cccccc" font-weight="600">Alex Cognitive</text>
  <text x="290" y="26" font-family="Segoe UI, sans-serif" font-size="14" fill="#666666" text-anchor="middle">↻</text>

  <!-- Tab Bar -->
  <rect x="0" y="42" width="320" height="34" fill="#2d2d2d"/>
  <rect x="0" y="75" width="320" height="1" fill="#3c3c3c"/>
  <text x="33" y="63" font-family="Segoe UI, sans-serif" font-size="11" fill="#888888" text-anchor="middle">Home</text>
  <text x="92" y="63" font-family="Segoe UI, sans-serif" font-size="11" fill="#888888" text-anchor="middle">Tools</text>
  <text x="148" y="63" font-family="Segoe UI, sans-serif" font-size="11" fill="#888888" text-anchor="middle">Skills</text>
  <text x="206" y="63" font-family="Segoe UI, sans-serif" font-size="11" fill="#888888" text-anchor="middle">Status</text>
  <!-- Active: More -->
  <rect x="236" y="46" width="50" height="26" rx="4" fill="#1e1e1e"/>
  <text x="262" y="63" font-family="Segoe UI, sans-serif" font-size="11" fill="#e0e0e0" text-anchor="middle" font-weight="600">More</text>
  <rect x="236" y="73" width="50" height="2" rx="1" fill="#6366f1"/>

  <!-- COGNITIVE Section -->
  <g transform="translate(12, 88)">
    <text x="0" y="0" font-family="Segoe UI, sans-serif" font-size="10" fill="#888888" letter-spacing="0.8" font-weight="600">COGNITIVE</text>

    <!-- Dream -->
    <rect x="0" y="12" width="296" height="36" rx="4" fill="#252526"/>
    <text x="14" y="34" font-family="Segoe UI, sans-serif" font-size="16">🌙</text>
    <text x="40" y="34" font-family="Segoe UI, sans-serif" font-size="12" fill="#cccccc">Dream (Neural Maintenance)</text>
    <text x="280" y="34" font-family="Segoe UI, sans-serif" font-size="11" fill="#555555" text-anchor="end">→</text>

    <!-- Self-Actualize -->
    <rect x="0" y="54" width="296" height="36" rx="4" fill="#252526"/>
    <text x="14" y="76" font-family="Segoe UI, sans-serif" font-size="16">✨</text>
    <text x="40" y="76" font-family="Segoe UI, sans-serif" font-size="12" fill="#cccccc">Self-Actualize</text>
    <text x="280" y="76" font-family="Segoe UI, sans-serif" font-size="11" fill="#555555" text-anchor="end">→</text>

    <!-- Meditate -->
    <rect x="0" y="96" width="296" height="36" rx="4" fill="#252526"/>
    <text x="14" y="118" font-family="Segoe UI, sans-serif" font-size="16">🧘</text>
    <text x="40" y="118" font-family="Segoe UI, sans-serif" font-size="12" fill="#cccccc">Meditate</text>
    <text x="280" y="118" font-family="Segoe UI, sans-serif" font-size="11" fill="#555555" text-anchor="end">→</text>

    <!-- How I Think -->
    <rect x="0" y="138" width="296" height="36" rx="4" fill="#252526"/>
    <text x="14" y="160" font-family="Segoe UI, sans-serif" font-size="16">💭</text>
    <text x="40" y="160" font-family="Segoe UI, sans-serif" font-size="12" fill="#cccccc">How I Think</text>
    <text x="280" y="160" font-family="Segoe UI, sans-serif" font-size="11" fill="#555555" text-anchor="end">→</text>

    <!-- Cognitive Levels -->
    <rect x="0" y="180" width="296" height="36" rx="4" fill="#252526"/>
    <text x="14" y="202" font-family="Segoe UI, sans-serif" font-size="16">🧠</text>
    <text x="40" y="202" font-family="Segoe UI, sans-serif" font-size="12" fill="#cccccc">Cognitive Levels</text>
    <text x="280" y="202" font-family="Segoe UI, sans-serif" font-size="11" fill="#555555" text-anchor="end">→</text>

    <!-- Focus Session -->
    <rect x="0" y="222" width="296" height="36" rx="4" fill="#252526"/>
    <text x="14" y="244" font-family="Segoe UI, sans-serif" font-size="16">🎯</text>
    <text x="40" y="244" font-family="Segoe UI, sans-serif" font-size="12" fill="#cccccc">Focus Session</text>
    <text x="280" y="244" font-family="Segoe UI, sans-serif" font-size="11" fill="#555555" text-anchor="end">→</text>

    <!-- Goals -->
    <rect x="0" y="264" width="296" height="36" rx="4" fill="#252526"/>
    <text x="14" y="286" font-family="Segoe UI, sans-serif" font-size="16">🏆</text>
    <text x="40" y="286" font-family="Segoe UI, sans-serif" font-size="12" fill="#cccccc">Goals &amp; Learning</text>
    <text x="280" y="286" font-family="Segoe UI, sans-serif" font-size="11" fill="#555555" text-anchor="end">→</text>
  </g>

  <!-- SYSTEM Section -->
  <g transform="translate(12, 402)">
    <text x="0" y="0" font-family="Segoe UI, sans-serif" font-size="10" fill="#888888" letter-spacing="0.8" font-weight="600">SYSTEM</text>

    <!-- Initialize / Update -->
    <rect x="0" y="12" width="296" height="36" rx="4" fill="#252526"/>
    <text x="14" y="34" font-family="Segoe UI, sans-serif" font-size="16">🚀</text>
    <text x="40" y="34" font-family="Segoe UI, sans-serif" font-size="12" fill="#cccccc">Initialize / Update Architecture</text>
    <text x="280" y="34" font-family="Segoe UI, sans-serif" font-size="11" fill="#555555" text-anchor="end">→</text>

    <!-- Export M365 -->
    <rect x="0" y="54" width="296" height="36" rx="4" fill="#252526"/>
    <text x="14" y="76" font-family="Segoe UI, sans-serif" font-size="16">📦</text>
    <text x="40" y="76" font-family="Segoe UI, sans-serif" font-size="12" fill="#cccccc">Export M365 Agent Package</text>
    <text x="280" y="76" font-family="Segoe UI, sans-serif" font-size="11" fill="#555555" text-anchor="end">→</text>

    <!-- Environment Setup -->
    <rect x="0" y="96" width="296" height="36" rx="4" fill="#252526"/>
    <text x="14" y="118" font-family="Segoe UI, sans-serif" font-size="16">⚙️</text>
    <text x="40" y="118" font-family="Segoe UI, sans-serif" font-size="12" fill="#cccccc">Environment Setup</text>
    <text x="280" y="118" font-family="Segoe UI, sans-serif" font-size="11" fill="#555555" text-anchor="end">→</text>

    <!-- API Keys -->
    <rect x="0" y="138" width="296" height="36" rx="4" fill="#252526"/>
    <text x="14" y="160" font-family="Segoe UI, sans-serif" font-size="16">🔐</text>
    <text x="40" y="160" font-family="Segoe UI, sans-serif" font-size="12" fill="#cccccc">API Keys &amp; Secrets</text>
    <text x="280" y="160" font-family="Segoe UI, sans-serif" font-size="11" fill="#555555" text-anchor="end">→</text>

    <!-- Detect .env -->
    <rect x="0" y="180" width="296" height="36" rx="4" fill="#252526"/>
    <text x="14" y="202" font-family="Segoe UI, sans-serif" font-size="16">🔍</text>
    <text x="40" y="202" font-family="Segoe UI, sans-serif" font-size="12" fill="#cccccc">Detect .env Configuration</text>
    <text x="280" y="202" font-family="Segoe UI, sans-serif" font-size="11" fill="#555555" text-anchor="end">→</text>

    <!-- Documentation -->
    <rect x="0" y="222" width="296" height="36" rx="4" fill="#252526"/>
    <text x="14" y="244" font-family="Segoe UI, sans-serif" font-size="16">📖</text>
    <text x="40" y="244" font-family="Segoe UI, sans-serif" font-size="12" fill="#cccccc">Documentation &amp; Guides</text>
    <text x="280" y="244" font-family="Segoe UI, sans-serif" font-size="11" fill="#555555" text-anchor="end">→</text>
  </g>

  <!-- LINKS Section -->
  <g transform="translate(12, 668)">
    <text x="0" y="0" font-family="Segoe UI, sans-serif" font-size="10" fill="#888888" letter-spacing="0.8" font-weight="600">LINKS</text>

    <rect x="0" y="12" width="142" height="32" rx="4" fill="#252526"/>
    <text x="12" y="32" font-family="Segoe UI, sans-serif" font-size="10" fill="#6366f1">GitHub Repo</text>

    <rect x="154" y="12" width="142" height="32" rx="4" fill="#252526"/>
    <text x="166" y="32" font-family="Segoe UI, sans-serif" font-size="10" fill="#6366f1">Marketplace</text>

    <rect x="0" y="50" width="142" height="32" rx="4" fill="#252526"/>
    <text x="12" y="70" font-family="Segoe UI, sans-serif" font-size="10" fill="#6366f1">Changelog</text>

    <rect x="154" y="50" width="142" height="32" rx="4" fill="#252526"/>
    <text x="166" y="70" font-family="Segoe UI, sans-serif" font-size="10" fill="#6366f1">Report Issue</text>
  </g>

  <!-- Version footer -->
  <g transform="translate(12, 762)">
    <text x="148" y="0" font-family="Segoe UI, sans-serif" font-size="9" fill="#444444" text-anchor="middle">Alex Cognitive Architecture v6.2.0</text>
  </g>
</svg>
