<svg xmlns="http://www.w3.org/2000/svg" width="320" height="780" viewBox="0 0 320 780">
  <defs>
    <linearGradient id="accentGrad" x1="0" y1="0" x2="1" y2="0">
      <stop offset="0%" stop-color="#6366f1"/>
      <stop offset="100%" stop-color="#818cf8"/>
    </linearGradient>
    <linearGradient id="cardGlow" x1="0" y1="0" x2="0" y2="1">
      <stop offset="0%" stop-color="rgba(99,102,241,0.08)"/>
      <stop offset="100%" stop-color="transparent"/>
    </linearGradient>
  </defs>

  <!-- Background -->
  <rect width="320" height="780" fill="#1e1e1e"/>

  <!-- Header bar -->
  <rect x="0" y="0" width="320" height="42" fill="#252526"/>
  <rect x="0" y="0" width="4" height="42" fill="url(#accentGrad)"/>
  <text x="14" y="16" font-family="Segoe UI, sans-serif" font-size="8" fill="#6366f1" letter-spacing="3" font-weight="600">COGNITIVE ARCHITECTURE</text>
  <text x="14" y="30" font-family="Segoe UI, sans-serif" font-size="13" fill="#cccccc" font-weight="600">Alex Cognitive</text>
  <text x="290" y="26" font-family="Segoe UI, sans-serif" font-size="14" fill="#666666" text-anchor="middle">↻</text>

  <!-- Tab Bar -->
  <rect x="0" y="42" width="320" height="34" fill="#2d2d2d"/>
  <rect x="0" y="75" width="320" height="1" fill="#3c3c3c"/>
  <text x="33" y="63" font-family="Segoe UI, sans-serif" font-size="11" fill="#888888" text-anchor="middle">Home</text>
  <text x="92" y="63" font-family="Segoe UI, sans-serif" font-size="11" fill="#888888" text-anchor="middle">Tools</text>
  <!-- Active: Skills -->
  <rect x="120" y="46" width="58" height="26" rx="4" fill="#1e1e1e"/>
  <text x="148" y="63" font-family="Segoe UI, sans-serif" font-size="11" fill="#e0e0e0" text-anchor="middle" font-weight="600">Skills</text>
  <rect x="120" y="73" width="58" height="2" rx="1" fill="#6366f1"/>
  <text x="206" y="63" font-family="Segoe UI, sans-serif" font-size="11" fill="#888888" text-anchor="middle">Status</text>
  <text x="262" y="63" font-family="Segoe UI, sans-serif" font-size="11" fill="#888888" text-anchor="middle">More</text>

  <!-- Search Bar -->
  <g transform="translate(12, 86)">
    <rect x="0" y="0" width="296" height="30" rx="4" fill="#3c3c3c"/>
    <text x="12" y="20" font-family="Segoe UI, sans-serif" font-size="12" fill="#888888">🔍 Search 130 skills...</text>
  </g>

  <!-- Skill count bar -->
  <g transform="translate(12, 124)">
    <rect x="0" y="0" width="296" height="22" rx="3" fill="rgba(99,102,241,0.08)"/>
    <text x="10" y="15" font-family="Segoe UI, sans-serif" font-size="10" fill="#a0a0a0">130 skills · 37 complete trifectas · 7 agents</text>
  </g>

  <!-- Recommended For You -->
  <g transform="translate(12, 158)">
    <text x="0" y="0" font-family="Segoe UI, sans-serif" font-size="10" fill="#888888" letter-spacing="0.8" font-weight="600">RECOMMENDED FOR YOU</text>

    <!-- Skill Card 1 - Highlighted -->
    <rect x="0" y="12" width="296" height="70" rx="6" fill="#252526"/>
    <rect x="0" y="12" width="296" height="70" rx="6" fill="url(#cardGlow)"/>
    <rect x="0" y="12" width="3" height="70" rx="1.5" fill="#6366f1"/>

    <text x="16" y="34" font-family="Segoe UI, sans-serif" font-size="16">👀</text>
    <text x="40" y="34" font-family="Segoe UI, sans-serif" font-size="13" fill="#e0e0e0" font-weight="600">Code Review</text>
    <!-- Active badge -->
    <rect x="136" y="22" width="48" height="16" rx="8" fill="rgba(34,197,94,0.15)" stroke="#22c55e" stroke-width="0.5" stroke-opacity="0.4"/>
    <text x="146" y="34" font-family="Segoe UI, sans-serif" font-size="9" fill="#4ade80">★ Active</text>
    <!-- Trifecta badge -->
    <rect x="190" y="22" width="54" height="16" rx="8" fill="rgba(99,102,241,0.15)"/>
    <text x="198" y="34" font-family="Segoe UI, sans-serif" font-size="9" fill="#818cf8">Trifecta</text>

    <text x="16" y="52" font-family="Segoe UI, sans-serif" font-size="10" fill="#a0a0a0">Systematic review for correctness, security, and growth</text>

    <!-- Launch button -->
    <rect x="226" y="56" width="60" height="22" rx="4" fill="#0e639c"/>
    <text x="256" y="71" font-family="Segoe UI, sans-serif" font-size="10" fill="#ffffff" text-anchor="middle" font-weight="500">Launch →</text>
    <text x="16" y="72" font-family="Segoe UI, sans-serif" font-size="9" fill="#666666">Matches: Developer persona + .ts file open</text>

    <!-- Skill Card 2 -->
    <rect x="0" y="90" width="296" height="70" rx="6" fill="#252526"/>
    <rect x="0" y="90" width="3" height="70" rx="1.5" fill="#818cf8" opacity="0.5"/>

    <text x="16" y="112" font-family="Segoe UI, sans-serif" font-size="16">🧪</text>
    <text x="40" y="112" font-family="Segoe UI, sans-serif" font-size="13" fill="#e0e0e0" font-weight="600">Testing Strategies</text>
    <rect x="166" y="100" width="54" height="16" rx="8" fill="rgba(99,102,241,0.15)"/>
    <text x="174" y="112" font-family="Segoe UI, sans-serif" font-size="9" fill="#818cf8">Trifecta</text>

    <text x="16" y="130" font-family="Segoe UI, sans-serif" font-size="10" fill="#a0a0a0">Right test at the right level — confidence without over-testing</text>

    <rect x="226" y="134" width="60" height="22" rx="4" fill="#0e639c"/>
    <text x="256" y="149" font-family="Segoe UI, sans-serif" font-size="10" fill="#ffffff" text-anchor="middle" font-weight="500">Launch →</text>
    <text x="16" y="150" font-family="Segoe UI, sans-serif" font-size="9" fill="#666666">Matches: Testing file detected in workspace</text>

    <!-- Skill Card 3 -->
    <rect x="0" y="168" width="296" height="70" rx="6" fill="#252526"/>
    <rect x="0" y="168" width="3" height="70" rx="1.5" fill="#818cf8" opacity="0.3"/>

    <text x="16" y="190" font-family="Segoe UI, sans-serif" font-size="16">🔒</text>
    <text x="40" y="190" font-family="Segoe UI, sans-serif" font-size="13" fill="#e0e0e0" font-weight="600">Security Review</text>
    <rect x="150" y="178" width="54" height="16" rx="8" fill="rgba(99,102,241,0.15)"/>
    <text x="158" y="190" font-family="Segoe UI, sans-serif" font-size="9" fill="#818cf8">Trifecta</text>

    <text x="16" y="208" font-family="Segoe UI, sans-serif" font-size="10" fill="#a0a0a0">OWASP Top 10, STRIDE, dependency audit</text>

    <rect x="226" y="212" width="60" height="22" rx="4" fill="#0e639c"/>
    <text x="256" y="227" font-family="Segoe UI, sans-serif" font-size="10" fill="#ffffff" text-anchor="middle" font-weight="500">Launch →</text>
    <text x="16" y="228" font-family="Segoe UI, sans-serif" font-size="9" fill="#666666">Matches: .env file detected in workspace</text>
  </g>

  <!-- All Skills by Category -->
  <g transform="translate(12, 412)">
    <text x="0" y="0" font-family="Segoe UI, sans-serif" font-size="10" fill="#888888" letter-spacing="0.8" font-weight="600">ALL SKILLS</text>

    <!-- Category: Cognitive Core (expanded) -->
    <rect x="0" y="12" width="296" height="28" rx="4" fill="#2d2d2d"/>
    <text x="12" y="30" font-family="Segoe UI, sans-serif" font-size="11" fill="#e0e0e0">▾ 🧠 Cognitive Core</text>
    <rect x="248" y="18" width="36" height="16" rx="8" fill="#333333"/>
    <text x="266" y="30" font-family="Segoe UI, sans-serif" font-size="9" fill="#a0a0a0" text-anchor="middle">8</text>

    <!-- Expanded items -->
    <rect x="12" y="44" width="284" height="26" rx="3" fill="#252526"/>
    <text x="24" y="61" font-family="Segoe UI, sans-serif" font-size="10" fill="#cccccc">💭 Dream State Automation</text>
    <circle cx="272" cy="57" r="4" fill="#22c55e" opacity="0.6"/>

    <rect x="12" y="74" width="284" height="26" rx="3" fill="#252526"/>
    <text x="24" y="91" font-family="Segoe UI, sans-serif" font-size="10" fill="#cccccc">✨ Self-Actualization</text>
    <circle cx="272" cy="87" r="4" fill="#22c55e" opacity="0.6"/>

    <rect x="12" y="104" width="284" height="26" rx="3" fill="#252526"/>
    <text x="24" y="121" font-family="Segoe UI, sans-serif" font-size="10" fill="#cccccc">🧘 Meditation</text>
    <circle cx="272" cy="117" r="4" fill="#22c55e" opacity="0.6"/>

    <rect x="12" y="134" width="284" height="26" rx="3" fill="#252526"/>
    <text x="24" y="151" font-family="Segoe UI, sans-serif" font-size="10" fill="#cccccc">🏥 Brain QA</text>
    <circle cx="272" cy="147" r="4" fill="#22c55e" opacity="0.6"/>

    <rect x="12" y="164" width="284" height="26" rx="3" fill="#252526"/>
    <text x="24" y="181" font-family="Segoe UI, sans-serif" font-size="10" fill="#cccccc">🌐 Global Knowledge</text>
    <circle cx="272" cy="177" r="4" fill="#22c55e" opacity="0.6"/>

    <!-- Category: Development (collapsed) -->
    <rect x="0" y="198" width="296" height="28" rx="4" fill="#2d2d2d"/>
    <text x="12" y="216" font-family="Segoe UI, sans-serif" font-size="11" fill="#cccccc">▸ 💻 Development</text>
    <rect x="248" y="204" width="36" height="16" rx="8" fill="#333333"/>
    <text x="266" y="216" font-family="Segoe UI, sans-serif" font-size="9" fill="#a0a0a0" text-anchor="middle">12</text>

    <!-- Category: Content Creation (collapsed) -->
    <rect x="0" y="230" width="296" height="28" rx="4" fill="#2d2d2d"/>
    <text x="12" y="248" font-family="Segoe UI, sans-serif" font-size="11" fill="#cccccc">▸ 🎨 Content Creation</text>
    <rect x="248" y="236" width="36" height="16" rx="8" fill="#333333"/>
    <text x="266" y="248" font-family="Segoe UI, sans-serif" font-size="9" fill="#a0a0a0" text-anchor="middle">6</text>

    <!-- Category: Knowledge (collapsed) -->
    <rect x="0" y="262" width="296" height="28" rx="4" fill="#2d2d2d"/>
    <text x="12" y="280" font-family="Segoe UI, sans-serif" font-size="11" fill="#cccccc">▸ 📚 Knowledge</text>
    <rect x="248" y="268" width="36" height="16" rx="8" fill="#333333"/>
    <text x="266" y="280" font-family="Segoe UI, sans-serif" font-size="9" fill="#a0a0a0" text-anchor="middle">5</text>

    <!-- Category: Platform (collapsed) -->
    <rect x="0" y="294" width="296" height="28" rx="4" fill="#2d2d2d"/>
    <text x="12" y="312" font-family="Segoe UI, sans-serif" font-size="11" fill="#cccccc">▸ 🌐 Platform</text>
    <rect x="248" y="300" width="36" height="16" rx="8" fill="#333333"/>
    <text x="266" y="312" font-family="Segoe UI, sans-serif" font-size="9" fill="#a0a0a0" text-anchor="middle">4</text>

    <!-- Category: Operations (collapsed) -->
    <rect x="0" y="326" width="296" height="28" rx="4" fill="#2d2d2d"/>
    <text x="12" y="344" font-family="Segoe UI, sans-serif" font-size="11" fill="#cccccc">▸ ⚙️ Operations</text>
    <rect x="248" y="332" width="36" height="16" rx="8" fill="#333333"/>
    <text x="266" y="344" font-family="Segoe UI, sans-serif" font-size="9" fill="#a0a0a0" text-anchor="middle">7</text>
  </g>

  <!-- Legend -->
  <g transform="translate(12, 774)">
    <circle cx="6" cy="-10" r="4" fill="#22c55e" opacity="0.6"/>
    <text x="14" y="-7" font-family="Segoe UI, sans-serif" font-size="9" fill="#666666">= Complete trifecta (Skill + Instruction + Prompt)</text>
  </g>
</svg>
