<svg xmlns="http://www.w3.org/2000/svg" width="560" height="960" viewBox="0 0 560 960">
  <defs>
    <linearGradient id="accentGrad" x1="0" y1="0" x2="1" y2="0">
      <stop offset="0%" stop-color="#6366f1"/>
      <stop offset="100%" stop-color="#818cf8"/>
    </linearGradient>
    <linearGradient id="greenGrad" x1="0" y1="0" x2="1" y2="0">
      <stop offset="0%" stop-color="#22c55e"/>
      <stop offset="100%" stop-color="#4ade80"/>
    </linearGradient>
    <linearGradient id="healthBar" x1="0" y1="0" x2="1" y2="0">
      <stop offset="0%" stop-color="#22c55e"/>
      <stop offset="85%" stop-color="#22c55e"/>
      <stop offset="85%" stop-color="#2d2d2d"/>
      <stop offset="100%" stop-color="#2d2d2d"/>
    </linearGradient>
    <linearGradient id="freshnessBar" x1="0" y1="0" x2="1" y2="0">
      <stop offset="0%" stop-color="#22c55e"/>
      <stop offset="45%" stop-color="#4ade80"/>
      <stop offset="70%" stop-color="#f59e0b"/>
      <stop offset="100%" stop-color="#ef4444"/>
    </linearGradient>
  </defs>

  <!-- Background -->
  <rect width="320" height="960" fill="#1e1e1e"/>

  <!-- Header -->
  <rect x="0" y="0" width="320" height="42" fill="#252526"/>
  <rect x="0" y="0" width="4" height="42" fill="url(#accentGrad)"/>
  <text x="14" y="16" font-family="Segoe UI, sans-serif" font-size="8" fill="#6366f1" letter-spacing="3" font-weight="600">MIND</text>
  <text x="14" y="30" font-family="Segoe UI, sans-serif" font-size="13" fill="#cccccc" font-weight="600">Cognitive Architecture · Age 21</text>

  <!-- Tab Bar -->
  <rect x="0" y="42" width="320" height="34" fill="#2d2d2d"/>
  <rect x="0" y="75" width="320" height="1" fill="#3c3c3c"/>
  <text x="38" y="63" font-family="Segoe UI, sans-serif" font-size="10" fill="#888888" text-anchor="middle">Mission Ctrl</text>
  <text x="106" y="63" font-family="Segoe UI, sans-serif" font-size="10" fill="#888888" text-anchor="middle">Agents</text>
  <text x="165" y="63" font-family="Segoe UI, sans-serif" font-size="10" fill="#888888" text-anchor="middle">Skill Store</text>
  <!-- Active: Mind -->
  <rect x="206" y="46" width="50" height="26" rx="4" fill="#1e1e1e"/>
  <text x="231" y="63" font-family="Segoe UI, sans-serif" font-size="10" fill="#e0e0e0" text-anchor="middle" font-weight="600">Mind</text>
  <rect x="206" y="73" width="50" height="2" rx="1" fill="#6366f1"/>
  <text x="296" y="63" font-family="Segoe UI, sans-serif" font-size="10" fill="#888888" text-anchor="middle">Docs</text>

  <!-- ─── BRAIN HEALTH ─── -->
  <g transform="translate(12, 88)">
    <text x="0" y="0" font-family="Segoe UI, sans-serif" font-size="10" fill="#888888" letter-spacing="0.8" font-weight="600">BRAIN HEALTH</text>
    <rect x="220" y="-10" width="72" height="18" rx="9" fill="rgba(34,197,94,0.15)"/>
    <text x="256" y="2" font-family="Segoe UI, sans-serif" font-size="9" fill="#22c55e" text-anchor="middle" font-weight="600">EXCELLENT</text>

    <rect x="0" y="14" width="296" height="72" rx="8" fill="#252526"/>

    <!-- Synapse stats row -->
    <text x="14" y="34" font-family="Segoe UI, sans-serif" font-size="9" fill="#a0a0a0">Synapses</text>
    <text x="14" y="48" font-family="Cascadia Code, Consolas, monospace" font-size="18" fill="#22c55e" font-weight="700">847</text>
    <text x="56" y="48" font-family="Segoe UI, sans-serif" font-size="9" fill="#666666">total</text>

    <text x="110" y="34" font-family="Segoe UI, sans-serif" font-size="9" fill="#a0a0a0">Broken</text>
    <text x="110" y="48" font-family="Cascadia Code, Consolas, monospace" font-size="18" fill="#22c55e" font-weight="700">0</text>

    <text x="165" y="34" font-family="Segoe UI, sans-serif" font-size="9" fill="#a0a0a0">Files Scanned</text>
    <text x="165" y="48" font-family="Cascadia Code, Consolas, monospace" font-size="18" fill="#e0e0e0" font-weight="700">126</text>

    <!-- Health bar -->
    <text x="14" y="66" font-family="Segoe UI, sans-serif" font-size="8" fill="#666666">Health</text>
    <rect x="52" y="58" width="220" height="6" rx="3" fill="#2d2d2d"/>
    <rect x="52" y="58" width="220" height="6" rx="3" fill="url(#healthBar)"/>
    <text x="278" y="66" font-family="Segoe UI, sans-serif" font-size="8" fill="#22c55e">100%</text>
  </g>

  <!-- ─── MEMORY ARCHITECTURE ─── -->
  <g transform="translate(12, 186)">
    <text x="0" y="0" font-family="Segoe UI, sans-serif" font-size="10" fill="#888888" letter-spacing="0.8" font-weight="600">MEMORY ARCHITECTURE</text>
    <text x="240" y="0" font-family="Segoe UI, sans-serif" font-size="9" fill="#818cf8">balanced</text>

    <!-- 5 memory modalities: 3 top + 2 bottom -->
    <!-- Semantic (Skills) -->
    <rect x="0" y="14" width="92" height="52" rx="6" fill="#252526"/>
    <rect x="0" y="14" width="3" height="52" rx="1.5" fill="#6366f1"/>
    <text x="12" y="30" font-family="Segoe UI, sans-serif" font-size="9" fill="#a0a0a0">Semantic</text>
    <text x="12" y="46" font-family="Cascadia Code, Consolas, monospace" font-size="16" fill="#6366f1" font-weight="700">37</text>
    <text x="38" y="46" font-family="Segoe UI, sans-serif" font-size="8" fill="#666666">skills</text>
    <text x="12" y="58" font-family="Segoe UI, sans-serif" font-size="7" fill="#555555">trifectas</text>

    <!-- Procedural (Instructions) -->
    <rect x="102" y="14" width="92" height="52" rx="6" fill="#252526"/>
    <rect x="102" y="14" width="3" height="52" rx="1.5" fill="#22c55e"/>
    <text x="114" y="30" font-family="Segoe UI, sans-serif" font-size="9" fill="#a0a0a0">Procedural</text>
    <text x="114" y="46" font-family="Cascadia Code, Consolas, monospace" font-size="16" fill="#22c55e" font-weight="700">22</text>
    <text x="140" y="46" font-family="Segoe UI, sans-serif" font-size="8" fill="#666666">instr</text>
    <text x="114" y="58" font-family="Segoe UI, sans-serif" font-size="7" fill="#555555">auto-loaded</text>

    <!-- Episodic (Prompts) -->
    <rect x="204" y="14" width="92" height="52" rx="6" fill="#252526"/>
    <rect x="204" y="14" width="3" height="52" rx="1.5" fill="#f59e0b"/>
    <text x="216" y="30" font-family="Segoe UI, sans-serif" font-size="9" fill="#a0a0a0">Episodic</text>
    <text x="216" y="46" font-family="Cascadia Code, Consolas, monospace" font-size="16" fill="#f59e0b" font-weight="700">11</text>
    <text x="240" y="46" font-family="Segoe UI, sans-serif" font-size="8" fill="#666666">prompts</text>
    <text x="216" y="58" font-family="Segoe UI, sans-serif" font-size="7" fill="#555555">/commands</text>

    <!-- Visual Memory -->
    <rect x="0" y="72" width="143" height="52" rx="6" fill="#252526"/>
    <rect x="0" y="72" width="3" height="52" rx="1.5" fill="#4fc1ff"/>
    <text x="12" y="88" font-family="Segoe UI, sans-serif" font-size="9" fill="#a0a0a0">Visual</text>
    <text x="12" y="104" font-family="Cascadia Code, Consolas, monospace" font-size="16" fill="#4fc1ff" font-weight="700">3</text>
    <text x="28" y="104" font-family="Segoe UI, sans-serif" font-size="8" fill="#666666">subjects</text>
    <text x="12" y="116" font-family="Segoe UI, sans-serif" font-size="7" fill="#555555">base64 portraits · face-consistent</text>

    <!-- Muscles -->
    <rect x="153" y="72" width="143" height="52" rx="6" fill="#252526"/>
    <rect x="153" y="72" width="3" height="52" rx="1.5" fill="#ef4444"/>
    <text x="165" y="88" font-family="Segoe UI, sans-serif" font-size="9" fill="#a0a0a0">Muscles</text>
    <text x="165" y="104" font-family="Cascadia Code, Consolas, monospace" font-size="16" fill="#ef4444" font-weight="700">8</text>
    <text x="181" y="104" font-family="Segoe UI, sans-serif" font-size="8" fill="#666666">scripts</text>
    <text x="165" y="116" font-family="Segoe UI, sans-serif" font-size="7" fill="#555555">hooks · execution · motor cortex</text>
  </g>

  <!-- ─── COGNITIVE AGE ─── -->
  <g transform="translate(12, 330)">
    <text x="0" y="0" font-family="Segoe UI, sans-serif" font-size="10" fill="#888888" letter-spacing="0.8" font-weight="600">COGNITIVE AGE</text>

    <rect x="0" y="14" width="296" height="68" rx="8" fill="#252526"/>

    <!-- Age display -->
    <text x="26" y="52" font-family="Cascadia Code, Consolas, monospace" font-size="28" fill="#e0e0e0" font-weight="700" text-anchor="middle">21</text>
    <text x="50" y="38" font-family="Segoe UI, sans-serif" font-size="11" fill="#818cf8" font-weight="600">Professional</text>
    <text x="50" y="52" font-family="Segoe UI, sans-serif" font-size="9" fill="#a0a0a0">37 skills · EXCELLENT health → tier 7/9</text>

    <!-- Age progression bar -->
    <text x="50" y="68" font-family="Segoe UI, sans-serif" font-size="7" fill="#555555">0</text>
    <rect x="60" y="62" width="192" height="4" rx="2" fill="#2d2d2d"/>
    <!-- Filled portion: 37/50 skills in current tier (age 21, maxSkills 50) -->
    <rect x="60" y="62" width="142" height="4" rx="2" fill="#6366f1"/>
    <!-- Tier markers -->
    <circle cx="60" cy="64" r="2" fill="#555555"/>   <!-- 0: Newborn -->
    <circle cx="84" cy="64" r="2" fill="#555555"/>   <!-- 2: Toddler -->
    <circle cx="108" cy="64" r="2" fill="#555555"/>  <!-- 7: Child -->
    <circle cx="133" cy="64" r="2" fill="#555555"/>  <!-- 10: Pre-teen -->
    <circle cx="157" cy="64" r="2" fill="#555555"/>  <!-- 13: Teenager -->
    <circle cx="181" cy="64" r="2" fill="#6366f1"/>  <!-- 18: Young Adult -->
    <circle cx="202" cy="64" r="3" fill="#818cf8"/>  <!-- 21: Professional ← current -->
    <circle cx="226" cy="64" r="2" fill="#333333"/>  <!-- 30: Mature -->
    <circle cx="252" cy="64" r="2" fill="#333333"/>  <!-- 42+: Expert/Wise -->
    <text x="256" y="68" font-family="Segoe UI, sans-serif" font-size="7" fill="#555555">60</text>

    <text x="50" y="78" font-family="Segoe UI, sans-serif" font-size="7" fill="#666666">Next: Age 30 "Mature" at 51 skills + EXCELLENT health</text>
  </g>

  <!-- ─── KNOWLEDGE FRESHNESS ─── -->
  <g transform="translate(12, 418)">
    <text x="0" y="0" font-family="Segoe UI, sans-serif" font-size="10" fill="#888888" letter-spacing="0.8" font-weight="600">KNOWLEDGE FRESHNESS</text>
    <text x="228" y="0" font-family="Segoe UI, sans-serif" font-size="9" fill="#888888">forgetting curve</text>

    <rect x="0" y="14" width="296" height="58" rx="8" fill="#252526"/>

    <!-- Freshness segments -->
    <rect x="14" y="26" width="86" height="14" rx="3" fill="rgba(34,197,94,0.2)"/>
    <text x="18" y="36" font-family="Segoe UI, sans-serif" font-size="8" fill="#22c55e">🌱 Thriving</text>
    <text x="82" y="36" font-family="Cascadia Code, Consolas, monospace" font-size="9" fill="#22c55e" font-weight="600">24</text>

    <rect x="108" y="26" width="62" height="14" rx="3" fill="rgba(74,222,128,0.15)"/>
    <text x="112" y="36" font-family="Segoe UI, sans-serif" font-size="8" fill="#4ade80">🌿 Active</text>
    <text x="156" y="36" font-family="Cascadia Code, Consolas, monospace" font-size="9" fill="#4ade80" font-weight="600">18</text>

    <rect x="178" y="26" width="58" height="14" rx="3" fill="rgba(245,158,11,0.15)"/>
    <text x="182" y="36" font-family="Segoe UI, sans-serif" font-size="8" fill="#f59e0b">🍂 Fading</text>
    <text x="224" y="36" font-family="Cascadia Code, Consolas, monospace" font-size="9" fill="#f59e0b" font-weight="600">5</text>

    <rect x="244" y="26" width="44" height="14" rx="3" fill="rgba(239,68,68,0.12)"/>
    <text x="248" y="36" font-family="Segoe UI, sans-serif" font-size="8" fill="#ef4444">💤</text>
    <text x="266" y="36" font-family="Cascadia Code, Consolas, monospace" font-size="9" fill="#ef4444" font-weight="600">2</text>

    <!-- Freshness bar -->
    <rect x="14" y="48" width="268" height="4" rx="2" fill="url(#freshnessBar)"/>
    <text x="14" y="62" font-family="Segoe UI, sans-serif" font-size="7" fill="#666666">49 total entries · 4 permanent · 2 dormant candidates for /dream</text>
  </g>

  <!-- ─── MEDITATION & GROWTH ─── -->
  <g transform="translate(12, 498)">
    <text x="0" y="0" font-family="Segoe UI, sans-serif" font-size="10" fill="#888888" letter-spacing="0.8" font-weight="600">MEDITATION &amp; GROWTH</text>

    <rect x="0" y="14" width="296" height="90" rx="8" fill="#252526"/>

    <!-- Last meditation -->
    <text x="14" y="32" font-family="Segoe UI, sans-serif" font-size="9" fill="#a0a0a0">Last Meditation</text>
    <text x="14" y="46" font-family="Segoe UI, sans-serif" font-size="11" fill="#e0e0e0" font-weight="600">3 days ago</text>
    <rect x="100" y="36" width="54" height="14" rx="7" fill="rgba(245,158,11,0.15)"/>
    <text x="108" y="47" font-family="Segoe UI, sans-serif" font-size="8" fill="#f59e0b">⚠ overdue</text>

    <!-- Session streak + emotion -->
    <text x="186" y="32" font-family="Segoe UI, sans-serif" font-size="9" fill="#a0a0a0">Session Streak</text>
    <text x="186" y="46" font-family="Cascadia Code, Consolas, monospace" font-size="14" fill="#818cf8" font-weight="700">12</text>
    <text x="206" y="46" font-family="Segoe UI, sans-serif" font-size="9" fill="#666666">sessions</text>

    <!-- Emotional pattern -->
    <text x="14" y="68" font-family="Segoe UI, sans-serif" font-size="9" fill="#a0a0a0">Emotional Pattern</text>
    <text x="14" y="80" font-family="Segoe UI, sans-serif" font-size="9" fill="#22c55e">● satisfied</text>
    <text x="78" y="80" font-family="Segoe UI, sans-serif" font-size="9" fill="#22c55e">● productive</text>
    <text x="154" y="80" font-family="Segoe UI, sans-serif" font-size="9" fill="#4fc1ff">● curious</text>

    <!-- Dream status -->
    <text x="14" y="96" font-family="Segoe UI, sans-serif" font-size="8" fill="#666666">Last Dream: 5 days ago · Repaired 2 synapses · Next: run /dream</text>
  </g>

  <!-- ─── HONEST UNCERTAINTY ─── -->
  <g transform="translate(12, 604)">
    <text x="0" y="0" font-family="Segoe UI, sans-serif" font-size="10" fill="#888888" letter-spacing="0.8" font-weight="600">HONEST UNCERTAINTY</text>
    <text x="216" y="0" font-family="Segoe UI, sans-serif" font-size="9" fill="#888888">epistemic calibration</text>

    <rect x="0" y="14" width="296" height="68" rx="8" fill="#252526"/>

    <!-- Confidence distribution bar -->
    <text x="14" y="30" font-family="Segoe UI, sans-serif" font-size="9" fill="#a0a0a0">Confidence Distribution (142 responses)</text>

    <!-- Stacked bar -->
    <rect x="14" y="38" width="170" height="10" rx="2" fill="#22c55e"/>  <!-- 68% high -->
    <rect x="184" y="38" width="55" height="10" rx="0" fill="#4fc1ff"/>  <!-- 22% medium -->
    <rect x="239" y="38" width="20" height="10" rx="0" fill="#f59e0b"/>  <!-- 8% low -->
    <rect x="259" y="38" width="5" height="10" rx="2" fill="#ef4444"/>   <!-- 2% uncertain -->

    <text x="14" y="60" font-family="Segoe UI, sans-serif" font-size="8" fill="#22c55e">🟢 68% high</text>
    <text x="82" y="60" font-family="Segoe UI, sans-serif" font-size="8" fill="#4fc1ff">🔵 22% med</text>
    <text x="148" y="60" font-family="Segoe UI, sans-serif" font-size="8" fill="#f59e0b">🟡 8% low</text>
    <text x="204" y="60" font-family="Segoe UI, sans-serif" font-size="8" fill="#ef4444">🔴 2% uncertain</text>

    <!-- Thin coverage topics -->
    <text x="14" y="74" font-family="Segoe UI, sans-serif" font-size="7" fill="#666666">Thin coverage: Kubernetes networking, Rust async patterns</text>
  </g>

  <!-- ─── QUICK ACTIONS ─── -->
  <g transform="translate(12, 694)">
    <text x="0" y="0" font-family="Segoe UI, sans-serif" font-size="10" fill="#888888" letter-spacing="0.8" font-weight="600">COGNITIVE ACTIONS</text>

    <rect x="0" y="14" width="92" height="40" rx="6" fill="#252526" stroke="#818cf8" stroke-width="0.5"/>
    <text x="46" y="30" font-family="Segoe UI, sans-serif" font-size="10" fill="#818cf8" text-anchor="middle">🧘</text>
    <text x="46" y="44" font-family="Segoe UI, sans-serif" font-size="9" fill="#e0e0e0" text-anchor="middle">/meditate</text>

    <rect x="102" y="14" width="92" height="40" rx="6" fill="#252526" stroke="#6366f1" stroke-width="0.5"/>
    <text x="148" y="30" font-family="Segoe UI, sans-serif" font-size="10" fill="#6366f1" text-anchor="middle">🌙</text>
    <text x="148" y="44" font-family="Segoe UI, sans-serif" font-size="9" fill="#e0e0e0" text-anchor="middle">/dream</text>

    <rect x="204" y="14" width="92" height="40" rx="6" fill="#252526" stroke="#22c55e" stroke-width="0.5"/>
    <text x="250" y="30" font-family="Segoe UI, sans-serif" font-size="10" fill="#22c55e" text-anchor="middle">🔍</text>
    <text x="250" y="44" font-family="Segoe UI, sans-serif" font-size="9" fill="#e0e0e0" text-anchor="middle">/self-actualize</text>
  </g>

  <!-- ─── GLOBAL KNOWLEDGE ─── -->
  <g transform="translate(12, 760)">
    <text x="0" y="0" font-family="Segoe UI, sans-serif" font-size="10" fill="#888888" letter-spacing="0.8" font-weight="600">GLOBAL KNOWLEDGE</text>
    <text x="236" y="0" font-family="Segoe UI, sans-serif" font-size="10" fill="#4fc1ff">Search →</text>

    <rect x="0" y="14" width="296" height="50" rx="8" fill="#252526"/>
    <text x="14" y="32" font-family="Segoe UI, sans-serif" font-size="9" fill="#a0a0a0">Cross-Project Patterns</text>
    <text x="14" y="48" font-family="Cascadia Code, Consolas, monospace" font-size="14" fill="#e0e0e0" font-weight="700">31</text>
    <text x="36" y="48" font-family="Segoe UI, sans-serif" font-size="9" fill="#666666">insights</text>
    <text x="100" y="48" font-family="Segoe UI, sans-serif" font-size="9" fill="#a0a0a0">·</text>
    <text x="112" y="48" font-family="Cascadia Code, Consolas, monospace" font-size="14" fill="#e0e0e0" font-weight="700">4</text>
    <text x="126" y="48" font-family="Segoe UI, sans-serif" font-size="9" fill="#666666">projects</text>
    <text x="180" y="48" font-family="Segoe UI, sans-serif" font-size="9" fill="#a0a0a0">·</text>
    <text x="192" y="48" font-family="Cascadia Code, Consolas, monospace" font-size="14" fill="#e0e0e0" font-weight="700">3</text>
    <text x="206" y="48" font-family="Segoe UI, sans-serif" font-size="9" fill="#666666">promoted this cycle</text>

    <text x="14" y="58" font-family="Segoe UI, sans-serif" font-size="7" fill="#555555">~/.alex/global-knowledge/ · auto-promoted during meditation</text>
  </g>

  <!-- ─── IDENTITY ─── -->
  <g transform="translate(12, 834)">
    <rect x="0" y="0" width="296" height="46" rx="8" fill="#252526" stroke="#6366f1" stroke-width="0.5" stroke-opacity="0.3"/>
    <text x="14" y="16" font-family="Segoe UI, sans-serif" font-size="9" fill="#6366f1" font-weight="600">Alex Finch</text>
    <text x="90" y="16" font-family="Segoe UI, sans-serif" font-size="8" fill="#555555">·  v6.2.0  ·  Persona: Developer  ·  Phase: Ship</text>
    <text x="14" y="30" font-family="Segoe UI, sans-serif" font-size="8" fill="#a0a0a0">"Create the most advanced and trusted AI partner for any job"</text>
    <text x="14" y="40" font-family="Segoe UI, sans-serif" font-size="7" fill="#555555">Mode: Build · Focus: north-star, research-first-development, vscode-extension-patterns</text>
  </g>

  <!-- Footer -->
  <text x="160" y="900" font-family="Segoe UI, sans-serif" font-size="9" fill="#555555" text-anchor="middle">Settings · About · v7.0.0 Command Center</text>

  <!-- ═══ ANNOTATION COLUMN ═══ -->
  <rect x="320" y="0" width="240" height="960" fill="#181820"/>
  <line x1="320" y1="0" x2="320" y2="960" stroke="#2a2a2a" stroke-width="1"/>
  <text x="440" y="30" font-family="Segoe UI, sans-serif" font-size="8" fill="#555555" letter-spacing="2" font-weight="600" text-anchor="middle">ANNOTATIONS</text>
  <g font-family="Segoe UI, sans-serif">
    <!-- Brain Health -->
    <line x1="336" y1="120" x2="314" y2="120" stroke="#4a4a6a" stroke-width="0.7" stroke-dasharray="2 2"/>
    <polygon points="314,117.5 308,120 314,122.5" fill="#4a4a6a"/>
    <text x="340" y="117" font-size="9" fill="#a78bfa" font-weight="600">Brain Health</text>
    <text x="340" y="128" font-size="8" fill="#888888">Live synapse scan from</text>
    <text x="340" y="138" font-size="8" fill="#888888">self-actualization.ts — 847 connections</text>

    <!-- Memory Architecture -->
    <line x1="336" y1="234" x2="314" y2="234" stroke="#4a4a6a" stroke-width="0.7" stroke-dasharray="2 2"/>
    <polygon points="314,231.5 308,234 314,236.5" fill="#4a4a6a"/>
    <text x="340" y="231" font-size="9" fill="#a78bfa" font-weight="600">Memory Architecture</text>
    <text x="340" y="242" font-size="8" fill="#888888">5 modalities: semantic, procedural,</text>
    <text x="340" y="252" font-size="8" fill="#888888">episodic, visual, muscles (motor)</text>

    <!-- Cognitive Age -->
    <line x1="336" y1="372" x2="314" y2="372" stroke="#4a4a6a" stroke-width="0.7" stroke-dasharray="2 2"/>
    <polygon points="314,369.5 308,372 314,374.5" fill="#4a4a6a"/>
    <text x="340" y="369" font-size="9" fill="#a78bfa" font-weight="600">Cognitive Age</text>
    <text x="340" y="380" font-size="8" fill="#888888">Maturity from skill count + health.</text>
    <text x="340" y="390" font-size="8" fill="#888888">Ages 0→60 mirror Alex's identity.</text>
    <text x="340" y="400" font-size="8" fill="#888888">Avatar adapts to match age tier.</text>

    <!-- Knowledge Freshness -->
    <line x1="336" y1="462" x2="314" y2="462" stroke="#4a4a6a" stroke-width="0.7" stroke-dasharray="2 2"/>
    <polygon points="314,459.5 308,462 314,464.5" fill="#4a4a6a"/>
    <text x="340" y="459" font-size="9" fill="#a78bfa" font-weight="600">Knowledge Freshness</text>
    <text x="340" y="470" font-size="8" fill="#888888">Forgetting curve tracks decay.</text>
    <text x="340" y="480" font-size="8" fill="#888888">Dormant entries archived by /dream.</text>

    <!-- Meditation & Growth -->
    <line x1="336" y1="548" x2="314" y2="548" stroke="#4a4a6a" stroke-width="0.7" stroke-dasharray="2 2"/>
    <polygon points="314,545.5 308,548 314,550.5" fill="#4a4a6a"/>
    <text x="340" y="545" font-size="9" fill="#a78bfa" font-weight="600">Meditation &amp; Growth</text>
    <text x="340" y="556" font-size="8" fill="#888888">Session tracking, emotional patterns,</text>
    <text x="340" y="566" font-size="8" fill="#888888">overdue nudges. Real data from</text>
    <text x="340" y="576" font-size="8" fill="#888888">emotionalMemory.ts + session hooks.</text>

    <!-- Honest Uncertainty -->
    <line x1="336" y1="644" x2="314" y2="644" stroke="#4a4a6a" stroke-width="0.7" stroke-dasharray="2 2"/>
    <polygon points="314,641.5 308,644 314,646.5" fill="#4a4a6a"/>
    <text x="340" y="641" font-size="9" fill="#a78bfa" font-weight="600">Honest Uncertainty</text>
    <text x="340" y="652" font-size="8" fill="#888888">Epistemic calibration from</text>
    <text x="340" y="662" font-size="8" fill="#888888">honestUncertainty.ts. Shows where</text>
    <text x="340" y="672" font-size="8" fill="#888888">Alex knows its limits — trust signal.</text>

    <!-- Global Knowledge -->
    <line x1="336" y1="796" x2="314" y2="796" stroke="#4a4a6a" stroke-width="0.7" stroke-dasharray="2 2"/>
    <polygon points="314,793.5 308,796 314,798.5" fill="#4a4a6a"/>
    <text x="340" y="793" font-size="9" fill="#a78bfa" font-weight="600">Global Knowledge</text>
    <text x="340" y="804" font-size="8" fill="#888888">Cross-project learning. Patterns</text>
    <text x="340" y="814" font-size="8" fill="#888888">auto-promoted during meditation.</text>

    <!-- Identity -->
    <line x1="336" y1="858" x2="314" y2="858" stroke="#4a4a6a" stroke-width="0.7" stroke-dasharray="2 2"/>
    <polygon points="314,855.5 308,858 314,860.5" fill="#4a4a6a"/>
    <text x="340" y="855" font-size="9" fill="#a78bfa" font-weight="600">Identity</text>
    <text x="340" y="866" font-size="8" fill="#888888">North Star, persona, phase, focus.</text>
    <text x="340" y="876" font-size="8" fill="#888888">The "who I am" grounding anchor.</text>
  </g>
</svg>
