<svg xmlns="http://www.w3.org/2000/svg" width="680" height="820" viewBox="0 0 680 820">
  <defs>
    <linearGradient id="accentGrad" x1="0" y1="0" x2="1" y2="0">
      <stop offset="0%" stop-color="#6366f1"/>
      <stop offset="100%" stop-color="#818cf8"/>
    </linearGradient>
    <linearGradient id="greenGrad" x1="0" y1="0" x2="1" y2="0">
      <stop offset="0%" stop-color="#22c55e"/>
      <stop offset="100%" stop-color="#4ade80"/>
    </linearGradient>
    <linearGradient id="orangeGrad" x1="0" y1="0" x2="1" y2="0">
      <stop offset="0%" stop-color="#f59e0b"/>
      <stop offset="100%" stop-color="#fbbf24"/>
    </linearGradient>
  </defs>

  <!-- ============================================ -->
  <!-- LABELS -->
  <!-- ============================================ -->
  <text x="160" y="16" font-family="Segoe UI, sans-serif" font-size="12" fill="#6366f1" text-anchor="middle" font-weight="700" letter-spacing="2">ORIGINAL — HOME</text>
  <text x="520" y="16" font-family="Segoe UI, sans-serif" font-size="12" fill="#22c55e" text-anchor="middle" font-weight="700" letter-spacing="2">REIMAGINED — MISSION CONTROL</text>

  <!-- ============================================ -->
  <!-- LEFT PANEL: ORIGINAL HOME TAB -->
  <!-- ============================================ -->
  <g transform="translate(0, 24)">
    <rect width="320" height="780" fill="#1e1e1e" rx="8" stroke="#3c3c3c" stroke-width="1"/>

    <!-- Header -->
    <rect x="0" y="0" width="320" height="42" fill="#252526" rx="8"/>
    <rect x="0" y="34" width="320" height="8" fill="#252526"/>
    <rect x="0" y="0" width="4" height="42" fill="url(#accentGrad)"/>
    <text x="14" y="16" font-family="Segoe UI, sans-serif" font-size="8" fill="#6366f1" letter-spacing="3" font-weight="600">COGNITIVE ARCHITECTURE</text>
    <text x="14" y="30" font-family="Segoe UI, sans-serif" font-size="13" fill="#cccccc" font-weight="600">Alex Cognitive</text>
    <text x="290" y="26" font-family="Segoe UI, sans-serif" font-size="14" fill="#666666" text-anchor="middle">↻</text>

    <!-- Tab Bar -->
    <rect x="0" y="42" width="320" height="34" fill="#2d2d2d"/>
    <rect x="0" y="75" width="320" height="1" fill="#3c3c3c"/>
    <rect x="4" y="46" width="58" height="26" rx="4" fill="#1e1e1e"/>
    <text x="33" y="63" font-family="Segoe UI, sans-serif" font-size="11" fill="#e0e0e0" text-anchor="middle" font-weight="600">Home</text>
    <text x="92" y="63" font-family="Segoe UI, sans-serif" font-size="11" fill="#888888" text-anchor="middle">Tools</text>
    <text x="148" y="63" font-family="Segoe UI, sans-serif" font-size="11" fill="#888888" text-anchor="middle">Skills</text>
    <text x="206" y="63" font-family="Segoe UI, sans-serif" font-size="11" fill="#888888" text-anchor="middle">Status</text>
    <text x="262" y="63" font-family="Segoe UI, sans-serif" font-size="11" fill="#888888" text-anchor="middle">More</text>
    <rect x="4" y="73" width="58" height="2" rx="1" fill="#6366f1"/>

    <!-- Avatar + Status -->
    <g transform="translate(12, 86)">
      <circle cx="28" cy="28" r="28" fill="#2d2d2d" stroke="#6366f1" stroke-width="2" stroke-opacity="0.4"/>
      <circle cx="28" cy="20" r="10" fill="#8b7355"/>
      <ellipse cx="28" cy="38" rx="16" ry="12" fill="#4a90d9"/>
      <circle cx="48" cy="48" r="6" fill="#1e1e1e"/>
      <circle cx="48" cy="48" r="4" fill="#22c55e"/>
      <text x="66" y="20" font-family="Segoe UI, sans-serif" font-size="13" fill="#e0e0e0" font-weight="600">Alex Finch</text>
      <rect x="66" y="28" width="78" height="18" rx="9" fill="rgba(99,102,241,0.15)"/>
      <text x="78" y="41" font-family="Segoe UI, sans-serif" font-size="10" fill="#cccccc">💻 Developer</text>
      <rect x="160" y="6" width="120" height="22" rx="4" fill="#252526"/>
      <circle cx="174" cy="17" r="4" fill="#22c55e"/>
      <text x="182" y="21" font-family="Segoe UI, sans-serif" font-size="10" fill="#a0a0a0">Healthy</text>
      <text x="232" y="21" font-family="Segoe UI, sans-serif" font-size="10" fill="#f0883e">🔥 12d</text>
    </g>

    <!-- Partnership Bar -->
    <g transform="translate(12, 154)">
      <rect x="0" y="0" width="296" height="28" rx="4" fill="rgba(99,102,241,0.06)" stroke="#6366f1" stroke-width="0.5" stroke-opacity="0.15"/>
      <text x="12" y="18" font-family="Segoe UI, sans-serif" font-size="11" fill="#a0a0a0">🤝 Trusted Partner for <tspan fill="#818cf8" font-weight="600">CODE</tspan></text>
    </g>

    <!-- Nudge -->
    <g transform="translate(12, 192)">
      <rect x="0" y="0" width="296" height="28" rx="4" fill="#252526"/>
      <rect x="0" y="0" width="2" height="28" rx="1" fill="#f59e0b"/>
      <text x="12" y="18" font-family="Segoe UI, sans-serif" font-size="10" fill="#b0b0b0">⚠️ 4 broken synapses need repair</text>
      <text x="248" y="18" font-family="Segoe UI, sans-serif" font-size="10" fill="#4fc1ff">Run Dream</text>
    </g>

    <!-- Active Context -->
    <g transform="translate(12, 230)">
      <text x="0" y="0" font-family="Segoe UI, sans-serif" font-size="10" fill="#888888" letter-spacing="0.8" font-weight="600">ACTIVE CONTEXT</text>
      <rect x="0" y="8" width="296" height="66" rx="5" fill="#252526"/>
      <rect x="0" y="8" width="2" height="66" rx="1" fill="#6366f1"/>
      <rect x="10" y="18" width="80" height="18" rx="9" fill="rgba(99,102,241,0.12)"/>
      <text x="20" y="31" font-family="Segoe UI, sans-serif" font-size="10" fill="#cccccc">Code Review</text>
      <rect x="96" y="18" width="100" height="18" rx="9" fill="rgba(99,102,241,0.12)"/>
      <text x="106" y="31" font-family="Segoe UI, sans-serif" font-size="10" fill="#cccccc">Testing Strats</text>
      <rect x="10" y="48" width="276" height="18" rx="4" fill="rgba(99,102,241,0.08)"/>
      <text x="18" y="61" font-family="Segoe UI, sans-serif" font-size="10" fill="#b0b0b0">🎯 Ship v6.5.0 with Command Center</text>
    </g>

    <!-- Quick Actions -->
    <g transform="translate(12, 314)">
      <text x="0" y="0" font-family="Segoe UI, sans-serif" font-size="10" fill="#888888" letter-spacing="0.8" font-weight="600">QUICK ACTIONS</text>
      <rect x="0" y="10" width="143" height="40" rx="5" fill="#0e639c" opacity="0.9"/>
      <text x="12" y="28" font-family="Segoe UI, sans-serif" font-size="13">💬</text>
      <text x="32" y="30" font-family="Segoe UI, sans-serif" font-size="11" fill="#ffffff" font-weight="500">Chat with Alex</text>
      <text x="12" y="42" font-family="Segoe UI, sans-serif" font-size="9" fill="rgba(255,255,255,0.6)">Start a conversation</text>
      <rect x="153" y="10" width="143" height="40" rx="5" fill="#252526"/>
      <text x="165" y="28" font-family="Segoe UI, sans-serif" font-size="13">👀</text>
      <text x="185" y="30" font-family="Segoe UI, sans-serif" font-size="11" fill="#cccccc" font-weight="500">Code Review</text>
      <text x="165" y="42" font-family="Segoe UI, sans-serif" font-size="9" fill="#888888">Correctness</text>
      <rect x="0" y="56" width="143" height="40" rx="5" fill="#252526"/>
      <text x="12" y="74" font-family="Segoe UI, sans-serif" font-size="13">🐛</text>
      <text x="32" y="76" font-family="Segoe UI, sans-serif" font-size="11" fill="#cccccc" font-weight="500">Debug This</text>
      <text x="12" y="88" font-family="Segoe UI, sans-serif" font-size="9" fill="#888888">Find the issue</text>
      <rect x="153" y="56" width="143" height="40" rx="5" fill="#252526"/>
      <text x="165" y="74" font-family="Segoe UI, sans-serif" font-size="13">🧪</text>
      <text x="185" y="76" font-family="Segoe UI, sans-serif" font-size="11" fill="#cccccc" font-weight="500">Gen Tests</text>
      <text x="165" y="88" font-family="Segoe UI, sans-serif" font-size="9" fill="#888888">Build confidence</text>
    </g>

    <!-- Session Timer -->
    <g transform="translate(12, 426)">
      <rect x="0" y="0" width="296" height="44" rx="5" fill="#252526"/>
      <text x="12" y="16" font-family="Segoe UI, sans-serif" font-size="13">🎯</text>
      <text x="32" y="18" font-family="Segoe UI, sans-serif" font-size="11" fill="#e0e0e0" font-weight="500">Command Center Architecture</text>
      <text x="12" y="36" font-family="Cascadia Code, Consolas, monospace" font-size="16" fill="#6366f1" font-weight="600">23:45</text>
      <text x="65" y="36" font-family="Segoe UI, sans-serif" font-size="10" fill="#a0a0a0">▶️ Active · 🍅×3</text>
    </g>

    <!-- Goals -->
    <g transform="translate(12, 480)">
      <text x="0" y="0" font-family="Segoe UI, sans-serif" font-size="10" fill="#888888" letter-spacing="0.8" font-weight="600">GOALS</text>
      <rect x="0" y="10" width="296" height="34" rx="4" fill="#252526"/>
      <text x="10" y="26" font-family="Segoe UI, sans-serif" font-size="10" fill="#cccccc">Master VS Code Webview API</text>
      <text x="250" y="26" font-family="Segoe UI, sans-serif" font-size="10" fill="#888888">7/10</text>
      <rect x="10" y="32" width="276" height="3" rx="1.5" fill="#333333"/>
      <rect x="10" y="32" width="193" height="3" rx="1.5" fill="#6366f1"/>
    </g>

    <!-- Recommended Skills -->
    <g transform="translate(12, 532)">
      <text x="0" y="0" font-family="Segoe UI, sans-serif" font-size="10" fill="#888888" letter-spacing="0.8" font-weight="600">RECOMMENDED SKILLS</text>
      <rect x="0" y="10" width="296" height="30" rx="4" fill="#252526"/>
      <text x="10" y="28" font-family="Segoe UI, sans-serif" font-size="10" fill="#cccccc">🔒 Security Review</text>
      <text x="248" y="28" font-family="Segoe UI, sans-serif" font-size="10" fill="#4fc1ff">Launch →</text>
    </g>

    <!-- Annotation: limitations -->
    <g transform="translate(12, 590)">
      <rect x="0" y="0" width="296" height="80" rx="6" fill="rgba(245,158,11,0.08)" stroke="#f59e0b" stroke-width="0.5" stroke-opacity="0.3"/>
      <text x="10" y="18" font-family="Segoe UI, sans-serif" font-size="10" fill="#f59e0b" font-weight="600">LIMITATIONS</text>
      <text x="10" y="34" font-family="Segoe UI, sans-serif" font-size="9" fill="#b0b0b0">• Static: no live agent status or progress</text>
      <text x="10" y="46" font-family="Segoe UI, sans-serif" font-size="9" fill="#b0b0b0">• No Queue/Steer interaction model</text>
      <text x="10" y="58" font-family="Segoe UI, sans-serif" font-size="9" fill="#b0b0b0">• No personality mode switching</text>
      <text x="10" y="70" font-family="Segoe UI, sans-serif" font-size="9" fill="#b0b0b0">• Passive: user must initiate everything</text>
    </g>

    <text x="160" y="766" font-family="Segoe UI, sans-serif" font-size="9" fill="#555555" text-anchor="middle">v6.5.0 · Current Design</text>
  </g>

  <!-- ============================================ -->
  <!-- RIGHT PANEL: REIMAGINED MISSION CONTROL -->
  <!-- ============================================ -->
  <g transform="translate(360, 24)">
    <rect width="320" height="780" fill="#1e1e1e" rx="8" stroke="#22c55e" stroke-width="1" stroke-opacity="0.4"/>

    <!-- Header - Compact with personality mode -->
    <rect x="0" y="0" width="320" height="42" fill="#252526" rx="8"/>
    <rect x="0" y="34" width="320" height="8" fill="#252526"/>
    <rect x="0" y="0" width="4" height="42" fill="url(#greenGrad)"/>
    <text x="14" y="16" font-family="Segoe UI, sans-serif" font-size="8" fill="#22c55e" letter-spacing="3" font-weight="600">MISSION CONTROL</text>
    <text x="14" y="30" font-family="Segoe UI, sans-serif" font-size="13" fill="#cccccc" font-weight="600">Alex · Building</text>
    <!-- Personality toggle -->
    <rect x="210" y="8" width="100" height="26" rx="13" fill="#2d2d2d" stroke="#3c3c3c" stroke-width="0.5"/>
    <rect x="212" y="10" width="48" height="22" rx="11" fill="#6366f1"/>
    <text x="224" y="25" font-family="Segoe UI, sans-serif" font-size="9" fill="#ffffff" font-weight="500">Precise</text>
    <text x="276" y="25" font-family="Segoe UI, sans-serif" font-size="9" fill="#888888" text-anchor="middle">Chatty</text>

    <!-- Reimagined Tab Bar: icon-based -->
    <rect x="0" y="42" width="320" height="34" fill="#2d2d2d"/>
    <rect x="0" y="75" width="320" height="1" fill="#3c3c3c"/>
    <!-- Active: Mission Control -->
    <rect x="4" y="46" width="32" height="26" rx="4" fill="#1e1e1e"/>
    <text x="20" y="63" font-family="Segoe UI, sans-serif" font-size="14" text-anchor="middle">🎛️</text>
    <rect x="4" y="73" width="32" height="2" rx="1" fill="#22c55e"/>
    <!-- Agents -->
    <text x="68" y="63" font-family="Segoe UI, sans-serif" font-size="14" text-anchor="middle">🤖</text>
    <!-- Skill Store -->
    <text x="124" y="63" font-family="Segoe UI, sans-serif" font-size="14" text-anchor="middle">🏪</text>
    <!-- Automations -->
    <text x="192" y="63" font-family="Segoe UI, sans-serif" font-size="14" text-anchor="middle">⚡</text>
    <!-- Activity -->
    <text x="260" y="63" font-family="Segoe UI, sans-serif" font-size="14" text-anchor="middle">📊</text>
    <!-- Notification badge on Automations -->
    <circle cx="200" cy="50" r="7" fill="#ef4444"/>
    <text x="200" y="53" font-family="Segoe UI, sans-serif" font-size="8" fill="#ffffff" text-anchor="middle" font-weight="600">2</text>

    <!-- Live Activity Feed (Codex-inspired) -->
    <g transform="translate(12, 86)">
      <text x="0" y="0" font-family="Segoe UI, sans-serif" font-size="10" fill="#888888" letter-spacing="0.8" font-weight="600">LIVE ACTIVITY</text>
      <text x="248" y="0" font-family="Segoe UI, sans-serif" font-size="10" fill="#4fc1ff">View All →</text>

      <!-- Active agent card -->
      <rect x="0" y="10" width="296" height="68" rx="6" fill="#252526" stroke="#22c55e" stroke-width="0.5" stroke-opacity="0.4"/>
      <circle cx="20" cy="32" r="10" fill="rgba(34,197,94,0.15)"/>
      <text x="20" y="36" font-family="Segoe UI, sans-serif" font-size="12" text-anchor="middle">🔨</text>
      <!-- Pulsing indicator -->
      <circle cx="28" cy="24" r="4" fill="#22c55e" opacity="0.8"/>
      <text x="38" y="28" font-family="Segoe UI, sans-serif" font-size="11" fill="#e0e0e0" font-weight="600">Builder</text>
      <text x="92" y="28" font-family="Segoe UI, sans-serif" font-size="10" fill="#a0a0a0">is implementing...</text>
      <text x="38" y="44" font-family="Segoe UI, sans-serif" font-size="10" fill="#cccccc">Refactoring welcomeView.ts → tabbed UI</text>
      <!-- Progress bar -->
      <rect x="38" y="52" width="200" height="4" rx="2" fill="#333333"/>
      <rect x="38" y="52" width="140" height="4" rx="2" fill="url(#greenGrad)"/>
      <text x="244" y="56" font-family="Segoe UI, sans-serif" font-size="9" fill="#a0a0a0">70%</text>
      <!-- Queue/Steer controls (CODEX INSPIRED) -->
      <rect x="38" y="62" width="56" height="16" rx="8" fill="rgba(99,102,241,0.15)" stroke="#6366f1" stroke-width="0.5" stroke-opacity="0.4"/>
      <text x="48" y="73" font-family="Segoe UI, sans-serif" font-size="9" fill="#818cf8">⏸ Queue</text>
      <rect x="100" y="62" width="50" height="16" rx="8" fill="rgba(245,158,11,0.15)" stroke="#f59e0b" stroke-width="0.5" stroke-opacity="0.4"/>
      <text x="110" y="73" font-family="Segoe UI, sans-serif" font-size="9" fill="#fbbf24">↗ Steer</text>
    </g>

    <!-- Quick Command Bar (Codex-inspired input) -->
    <g transform="translate(12, 172)">
      <rect x="0" y="0" width="296" height="36" rx="6" fill="#3c3c3c" stroke="#6366f1" stroke-width="0.5" stroke-opacity="0.3"/>
      <text x="12" y="22" font-family="Segoe UI, sans-serif" font-size="11" fill="#888888">Ask Alex anything... or queue a message</text>
      <rect x="244" y="6" width="44" height="24" rx="4" fill="#6366f1"/>
      <text x="266" y="22" font-family="Segoe UI, sans-serif" font-size="10" fill="#ffffff" text-anchor="middle" font-weight="500">Send</text>
    </g>

    <!-- Cognitive State + Personality -->
    <g transform="translate(12, 218)">
      <text x="0" y="0" font-family="Segoe UI, sans-serif" font-size="10" fill="#888888" letter-spacing="0.8" font-weight="600">COGNITIVE STATE</text>
      <rect x="0" y="10" width="296" height="48" rx="6" fill="#252526"/>
      <!-- Mini avatar -->
      <circle cx="22" cy="34" r="16" fill="#2d2d2d" stroke="#22c55e" stroke-width="1.5"/>
      <circle cx="22" cy="28" r="6" fill="#8b7355"/>
      <ellipse cx="22" cy="40" rx="10" ry="8" fill="#4a90d9"/>
      <!-- State info -->
      <text x="46" y="28" font-family="Segoe UI, sans-serif" font-size="12" fill="#e0e0e0" font-weight="600">Building</text>
      <text x="110" y="28" font-family="Segoe UI, sans-serif" font-size="10" fill="#22c55e">● Active</text>
      <text x="46" y="44" font-family="Segoe UI, sans-serif" font-size="9" fill="#a0a0a0">Phase: Ship · Mode: Build · Focus: north-star</text>
      <!-- Reasoning effort (CODEX-INSPIRED) -->
      <rect x="220" y="18" width="64" height="32" rx="4" fill="#2d2d2d"/>
      <text x="228" y="32" font-family="Segoe UI, sans-serif" font-size="8" fill="#888888">EFFORT</text>
      <rect x="228" y="36" width="12" height="8" rx="2" fill="#22c55e"/>
      <rect x="242" y="36" width="12" height="8" rx="2" fill="#22c55e"/>
      <rect x="256" y="36" width="12" height="8" rx="2" fill="#333333"/>
    </g>

    <!-- Active Tasks (multi-agent parallel - CODEX INSPIRED) -->
    <g transform="translate(12, 280)">
      <text x="0" y="0" font-family="Segoe UI, sans-serif" font-size="10" fill="#888888" letter-spacing="0.8" font-weight="600">PARALLEL AGENTS</text>
      <text x="265" y="0" font-family="Segoe UI, sans-serif" font-size="9" fill="#22c55e">2 active</text>

      <!-- Agent 1: Builder -->
      <rect x="0" y="10" width="143" height="60" rx="6" fill="#252526" stroke="#22c55e" stroke-width="0.5" stroke-opacity="0.3"/>
      <text x="10" y="28" font-family="Segoe UI, sans-serif" font-size="12">🔨</text>
      <text x="28" y="28" font-family="Segoe UI, sans-serif" font-size="10" fill="#e0e0e0" font-weight="600">Builder</text>
      <text x="105" y="28" font-family="Segoe UI, sans-serif" font-size="8" fill="#22c55e">RUNNING</text>
      <text x="10" y="42" font-family="Segoe UI, sans-serif" font-size="9" fill="#a0a0a0">Tab UI refactor</text>
      <rect x="10" y="50" width="123" height="3" rx="1.5" fill="#333333"/>
      <rect x="10" y="50" width="86" height="3" rx="1.5" fill="#22c55e"/>
      <text x="10" y="64" font-family="Segoe UI, sans-serif" font-size="8" fill="#666666">branch: feat/tabs</text>

      <!-- Agent 2: Validator -->
      <rect x="153" y="10" width="143" height="60" rx="6" fill="#252526" stroke="#818cf8" stroke-width="0.5" stroke-opacity="0.3"/>
      <text x="163" y="28" font-family="Segoe UI, sans-serif" font-size="12">🛡️</text>
      <text x="181" y="28" font-family="Segoe UI, sans-serif" font-size="10" fill="#e0e0e0" font-weight="600">Validator</text>
      <text x="253" y="28" font-family="Segoe UI, sans-serif" font-size="8" fill="#818cf8">REVIEWING</text>
      <text x="163" y="42" font-family="Segoe UI, sans-serif" font-size="9" fill="#a0a0a0">Security audit</text>
      <rect x="163" y="50" width="123" height="3" rx="1.5" fill="#333333"/>
      <rect x="163" y="50" width="40" height="3" rx="1.5" fill="#818cf8"/>
      <text x="163" y="64" font-family="Segoe UI, sans-serif" font-size="8" fill="#666666">branch: main</text>
    </g>

    <!-- Smart Nudges (proactive, context-aware) -->
    <g transform="translate(12, 356)">
      <text x="0" y="0" font-family="Segoe UI, sans-serif" font-size="10" fill="#888888" letter-spacing="0.8" font-weight="600">SMART NUDGES</text>

      <rect x="0" y="10" width="296" height="28" rx="4" fill="rgba(245,158,11,0.08)" stroke="#f59e0b" stroke-width="0.5" stroke-opacity="0.3"/>
      <text x="10" y="28" font-family="Segoe UI, sans-serif" font-size="10" fill="#b0b0b0">⚠️ 4 broken synapses</text>
      <rect x="200" y="14" width="50" height="20" rx="3" fill="rgba(245,158,11,0.15)"/>
      <text x="210" y="28" font-family="Segoe UI, sans-serif" font-size="9" fill="#fbbf24">Dream</text>
      <rect x="254" y="14" width="34" height="20" rx="3" fill="transparent"/>
      <text x="260" y="28" font-family="Segoe UI, sans-serif" font-size="9" fill="#666666">Later</text>

      <rect x="0" y="42" width="296" height="28" rx="4" fill="rgba(34,197,94,0.08)" stroke="#22c55e" stroke-width="0.5" stroke-opacity="0.3"/>
      <text x="10" y="60" font-family="Segoe UI, sans-serif" font-size="10" fill="#b0b0b0">✅ 8 uncommitted changes detected</text>
      <rect x="200" y="46" width="50" height="20" rx="3" fill="rgba(34,197,94,0.15)"/>
      <text x="210" y="60" font-family="Segoe UI, sans-serif" font-size="9" fill="#4ade80">Review</text>
      <rect x="254" y="46" width="34" height="20" rx="3" fill="transparent"/>
      <text x="260" y="60" font-family="Segoe UI, sans-serif" font-size="9" fill="#666666">Later</text>
    </g>

    <!-- Diff Preview (CODEX INSPIRED) -->
    <g transform="translate(12, 430)">
      <text x="0" y="0" font-family="Segoe UI, sans-serif" font-size="10" fill="#888888" letter-spacing="0.8" font-weight="600">RECENT DIFFS</text>
      <text x="248" y="0" font-family="Segoe UI, sans-serif" font-size="10" fill="#4fc1ff">Open Review →</text>

      <rect x="0" y="10" width="296" height="76" rx="6" fill="#252526"/>
      <text x="10" y="28" font-family="Segoe UI, sans-serif" font-size="10" fill="#e0e0e0">welcomeView.ts</text>
      <text x="200" y="28" font-family="Segoe UI, sans-serif" font-size="9" fill="#22c55e">+47</text>
      <text x="224" y="28" font-family="Segoe UI, sans-serif" font-size="9" fill="#ef4444">-12</text>
      <text x="248" y="28" font-family="Segoe UI, sans-serif" font-size="9" fill="#a0a0a0">2m ago</text>
      <!-- Mini diff preview -->
      <rect x="10" y="36" width="276" height="12" rx="2" fill="rgba(34,197,94,0.08)"/>
      <text x="14" y="45" font-family="Cascadia Code, Consolas, monospace" font-size="8" fill="#4ade80">+ const tabContent = getTabHtml(activeTab);</text>
      <rect x="10" y="50" width="276" height="12" rx="2" fill="rgba(239,68,68,0.08)"/>
      <text x="14" y="59" font-family="Cascadia Code, Consolas, monospace" font-size="8" fill="#ef4444">- const allContent = getAllHtml();</text>
      <rect x="10" y="64" width="276" height="12" rx="2" fill="rgba(34,197,94,0.08)"/>
      <text x="14" y="73" font-family="Cascadia Code, Consolas, monospace" font-size="8" fill="#4ade80">+ panel.webview.html = tabContent;</text>
    </g>

    <!-- Session + Focus Timer (compact) -->
    <g transform="translate(12, 522)">
      <rect x="0" y="0" width="143" height="52" rx="6" fill="#252526"/>
      <text x="10" y="16" font-family="Segoe UI, sans-serif" font-size="9" fill="#888888" font-weight="600">SESSION</text>
      <text x="10" y="36" font-family="Cascadia Code, Consolas, monospace" font-size="18" fill="#6366f1" font-weight="600">23:45</text>
      <text x="75" y="36" font-family="Segoe UI, sans-serif" font-size="9" fill="#a0a0a0">🍅×3</text>
      <text x="10" y="48" font-family="Segoe UI, sans-serif" font-size="8" fill="#666666">Cmd Center Arch</text>

      <rect x="153" y="0" width="143" height="52" rx="6" fill="#252526"/>
      <text x="163" y="16" font-family="Segoe UI, sans-serif" font-size="9" fill="#888888" font-weight="600">CONTEXT BUDGET</text>
      <!-- Context usage arc (CODEX INSPIRED) -->
      <text x="163" y="36" font-family="Cascadia Code, Consolas, monospace" font-size="18" fill="#f59e0b" font-weight="600">68%</text>
      <text x="208" y="36" font-family="Segoe UI, sans-serif" font-size="9" fill="#a0a0a0">used</text>
      <rect x="163" y="42" width="123" height="4" rx="2" fill="#333333"/>
      <rect x="163" y="42" width="84" height="4" rx="2" fill="url(#orangeGrad)"/>
    </g>

    <!-- Queued Messages (CODEX INSPIRED) -->
    <g transform="translate(12, 584)">
      <text x="0" y="0" font-family="Segoe UI, sans-serif" font-size="10" fill="#888888" letter-spacing="0.8" font-weight="600">QUEUED MESSAGES</text>
      <text x="265" y="0" font-family="Segoe UI, sans-serif" font-size="9" fill="#888888">1 pending</text>

      <rect x="0" y="10" width="296" height="36" rx="4" fill="#252526"/>
      <rect x="0" y="10" width="2" height="36" rx="1" fill="#818cf8"/>
      <text x="12" y="26" font-family="Segoe UI, sans-serif" font-size="10" fill="#cccccc">"After that, also update the tests"</text>
      <text x="12" y="40" font-family="Segoe UI, sans-serif" font-size="8" fill="#666666">Queued 2 min ago · Will run after Builder completes</text>
    </g>

    <!-- Annotation: new features -->
    <g transform="translate(12, 640)">
      <rect x="0" y="0" width="296" height="104" rx="6" fill="rgba(34,197,94,0.08)" stroke="#22c55e" stroke-width="0.5" stroke-opacity="0.3"/>
      <text x="10" y="18" font-family="Segoe UI, sans-serif" font-size="10" fill="#22c55e" font-weight="600">NEW FROM CODEX</text>
      <text x="10" y="34" font-family="Segoe UI, sans-serif" font-size="9" fill="#b0b0b0">✦ Queue/Steer: redirect agents mid-task</text>
      <text x="10" y="46" font-family="Segoe UI, sans-serif" font-size="9" fill="#b0b0b0">✦ Personality modes: Precise vs Chatty toggle</text>
      <text x="10" y="58" font-family="Segoe UI, sans-serif" font-size="9" fill="#b0b0b0">✦ Parallel agent cards with live progress</text>
      <text x="10" y="70" font-family="Segoe UI, sans-serif" font-size="9" fill="#b0b0b0">✦ Inline diff preview with +/- counts</text>
      <text x="10" y="82" font-family="Segoe UI, sans-serif" font-size="9" fill="#b0b0b0">✦ Reasoning effort control (Low/Med/High)</text>
      <text x="10" y="94" font-family="Segoe UI, sans-serif" font-size="9" fill="#b0b0b0">✦ Context budget visualization</text>
    </g>

    <text x="160" y="766" font-family="Segoe UI, sans-serif" font-size="9" fill="#22c55e" text-anchor="middle">v7.0.0 · Reimagined Design</text>
  </g>
</svg>
