<svg xmlns="http://www.w3.org/2000/svg" width="680" height="820" viewBox="0 0 680 820">
  <defs>
    <linearGradient id="accentGrad" x1="0" y1="0" x2="1" y2="0">
      <stop offset="0%" stop-color="#6366f1"/>
      <stop offset="100%" stop-color="#818cf8"/>
    </linearGradient>
    <linearGradient id="storeGrad" x1="0" y1="0" x2="1" y2="0">
      <stop offset="0%" stop-color="#22c55e"/>
      <stop offset="100%" stop-color="#4ade80"/>
    </linearGradient>
  </defs>

  <!-- LABELS -->
  <text x="160" y="16" font-family="Segoe UI, sans-serif" font-size="12" fill="#6366f1" text-anchor="middle" font-weight="700" letter-spacing="2">ORIGINAL — SKILLS</text>
  <text x="520" y="16" font-family="Segoe UI, sans-serif" font-size="12" fill="#22c55e" text-anchor="middle" font-weight="700" letter-spacing="2">REIMAGINED — SKILL STORE</text>

  <!-- ============================================ -->
  <!-- LEFT PANEL: ORIGINAL SKILLS TAB -->
  <!-- ============================================ -->
  <g transform="translate(0, 24)">
    <rect width="320" height="780" fill="#1e1e1e" rx="8" stroke="#3c3c3c" stroke-width="1"/>

    <!-- Header -->
    <rect x="0" y="0" width="320" height="42" fill="#252526" rx="8"/>
    <rect x="0" y="34" width="320" height="8" fill="#252526"/>
    <rect x="0" y="0" width="4" height="42" fill="url(#accentGrad)"/>
    <text x="14" y="16" font-family="Segoe UI, sans-serif" font-size="8" fill="#6366f1" letter-spacing="3" font-weight="600">COGNITIVE ARCHITECTURE</text>
    <text x="14" y="30" font-family="Segoe UI, sans-serif" font-size="13" fill="#cccccc" font-weight="600">Alex Cognitive</text>

    <!-- Tab Bar -->
    <rect x="0" y="42" width="320" height="34" fill="#2d2d2d"/>
    <rect x="0" y="75" width="320" height="1" fill="#3c3c3c"/>
    <text x="33" y="63" font-family="Segoe UI, sans-serif" font-size="11" fill="#888888" text-anchor="middle">Home</text>
    <text x="92" y="63" font-family="Segoe UI, sans-serif" font-size="11" fill="#888888" text-anchor="middle">Tools</text>
    <rect x="120" y="46" width="58" height="26" rx="4" fill="#1e1e1e"/>
    <text x="148" y="63" font-family="Segoe UI, sans-serif" font-size="11" fill="#e0e0e0" text-anchor="middle" font-weight="600">Skills</text>
    <rect x="120" y="73" width="58" height="2" rx="1" fill="#6366f1"/>
    <text x="206" y="63" font-family="Segoe UI, sans-serif" font-size="11" fill="#888888" text-anchor="middle">Status</text>
    <text x="262" y="63" font-family="Segoe UI, sans-serif" font-size="11" fill="#888888" text-anchor="middle">More</text>

    <!-- Search -->
    <g transform="translate(12, 86)">
      <rect x="0" y="0" width="296" height="28" rx="4" fill="#3c3c3c"/>
      <text x="12" y="18" font-family="Segoe UI, sans-serif" font-size="11" fill="#888888">🔍 Search 130 skills...</text>
    </g>

    <!-- Count bar -->
    <g transform="translate(12, 122)">
      <rect x="0" y="0" width="296" height="20" rx="3" fill="rgba(99,102,241,0.08)"/>
      <text x="10" y="14" font-family="Segoe UI, sans-serif" font-size="9" fill="#a0a0a0">130 skills · 37 trifectas · 7 agents</text>
    </g>

    <!-- Recommended -->
    <g transform="translate(12, 152)">
      <text x="0" y="0" font-family="Segoe UI, sans-serif" font-size="10" fill="#888888" letter-spacing="0.8" font-weight="600">RECOMMENDED FOR YOU</text>
      <rect x="0" y="12" width="296" height="60" rx="6" fill="#252526"/>
      <rect x="0" y="12" width="3" height="60" rx="1.5" fill="#6366f1"/>
      <text x="16" y="32" font-family="Segoe UI, sans-serif" font-size="14">👀</text>
      <text x="38" y="32" font-family="Segoe UI, sans-serif" font-size="12" fill="#e0e0e0" font-weight="600">Code Review</text>
      <text x="16" y="48" font-family="Segoe UI, sans-serif" font-size="9" fill="#a0a0a0">Systematic review for correctness</text>
      <rect x="230" y="50" width="54" height="18" rx="4" fill="#0e639c"/>
      <text x="244" y="63" font-family="Segoe UI, sans-serif" font-size="9" fill="#ffffff" font-weight="500">Launch →</text>
      <text x="16" y="64" font-family="Segoe UI, sans-serif" font-size="8" fill="#666666">Matches: Developer + .ts</text>
    </g>

    <!-- Category accordion -->
    <g transform="translate(12, 230)">
      <text x="0" y="0" font-family="Segoe UI, sans-serif" font-size="10" fill="#888888" letter-spacing="0.8" font-weight="600">ALL SKILLS</text>
      <rect x="0" y="12" width="296" height="26" rx="4" fill="#2d2d2d"/>
      <text x="12" y="29" font-family="Segoe UI, sans-serif" font-size="10" fill="#e0e0e0">▾ 🧠 Cognitive Core</text>
      <text x="262" y="29" font-family="Segoe UI, sans-serif" font-size="9" fill="#a0a0a0">8</text>
      <rect x="12" y="42" width="284" height="24" rx="3" fill="#252526"/>
      <text x="24" y="58" font-family="Segoe UI, sans-serif" font-size="9" fill="#cccccc">💭 Dream State</text>
      <circle cx="272" cy="54" r="3" fill="#22c55e"/>
      <rect x="12" y="68" width="284" height="24" rx="3" fill="#252526"/>
      <text x="24" y="84" font-family="Segoe UI, sans-serif" font-size="9" fill="#cccccc">✨ Self-Actualization</text>
      <circle cx="272" cy="80" r="3" fill="#22c55e"/>
      <rect x="12" y="94" width="284" height="24" rx="3" fill="#252526"/>
      <text x="24" y="110" font-family="Segoe UI, sans-serif" font-size="9" fill="#cccccc">🧘 Meditation</text>
      <circle cx="272" cy="106" r="3" fill="#22c55e"/>
      <rect x="12" y="120" width="284" height="24" rx="3" fill="#252526"/>
      <text x="24" y="136" font-family="Segoe UI, sans-serif" font-size="9" fill="#cccccc">🏥 Brain QA</text>
      <circle cx="272" cy="132" r="3" fill="#22c55e"/>

      <rect x="0" y="152" width="296" height="26" rx="4" fill="#2d2d2d"/>
      <text x="12" y="169" font-family="Segoe UI, sans-serif" font-size="10" fill="#cccccc">▸ 💻 Development</text>
      <text x="262" y="169" font-family="Segoe UI, sans-serif" font-size="9" fill="#a0a0a0">12</text>
      <rect x="0" y="182" width="296" height="26" rx="4" fill="#2d2d2d"/>
      <text x="12" y="199" font-family="Segoe UI, sans-serif" font-size="10" fill="#cccccc">▸ 🎨 Content</text>
      <text x="262" y="199" font-family="Segoe UI, sans-serif" font-size="9" fill="#a0a0a0">6</text>
      <rect x="0" y="212" width="296" height="26" rx="4" fill="#2d2d2d"/>
      <text x="12" y="229" font-family="Segoe UI, sans-serif" font-size="10" fill="#cccccc">▸ 📚 Knowledge</text>
      <text x="262" y="229" font-family="Segoe UI, sans-serif" font-size="9" fill="#a0a0a0">5</text>
      <rect x="0" y="242" width="296" height="26" rx="4" fill="#2d2d2d"/>
      <text x="12" y="259" font-family="Segoe UI, sans-serif" font-size="10" fill="#cccccc">▸ ⚙️ Operations</text>
      <text x="262" y="259" font-family="Segoe UI, sans-serif" font-size="9" fill="#a0a0a0">7</text>
    </g>

    <!-- Limitations -->
    <g transform="translate(12, 520)">
      <rect x="0" y="0" width="296" height="92" rx="6" fill="rgba(245,158,11,0.08)" stroke="#f59e0b" stroke-width="0.5" stroke-opacity="0.3"/>
      <text x="10" y="18" font-family="Segoe UI, sans-serif" font-size="10" fill="#f59e0b" font-weight="600">LIMITATIONS</text>
      <text x="10" y="34" font-family="Segoe UI, sans-serif" font-size="9" fill="#b0b0b0">• No toggle on/off per skill</text>
      <text x="10" y="46" font-family="Segoe UI, sans-serif" font-size="9" fill="#b0b0b0">• No install from external catalog</text>
      <text x="10" y="58" font-family="Segoe UI, sans-serif" font-size="9" fill="#b0b0b0">• No skill icons / brand colors</text>
      <text x="10" y="70" font-family="Segoe UI, sans-serif" font-size="9" fill="#b0b0b0">• No visual diff: trifecta vs partial skills</text>
      <text x="10" y="82" font-family="Segoe UI, sans-serif" font-size="9" fill="#b0b0b0">• No community/experimental tier</text>
    </g>

    <text x="160" y="766" font-family="Segoe UI, sans-serif" font-size="9" fill="#555555" text-anchor="middle">v6.5.0 · Current Design</text>
  </g>

  <!-- ============================================ -->
  <!-- RIGHT PANEL: REIMAGINED SKILL STORE -->
  <!-- ============================================ -->
  <g transform="translate(360, 24)">
    <rect width="320" height="780" fill="#1e1e1e" rx="8" stroke="#22c55e" stroke-width="1" stroke-opacity="0.4"/>

    <!-- Header -->
    <rect x="0" y="0" width="320" height="42" fill="#252526" rx="8"/>
    <rect x="0" y="34" width="320" height="8" fill="#252526"/>
    <rect x="0" y="0" width="4" height="42" fill="url(#storeGrad)"/>
    <text x="14" y="16" font-family="Segoe UI, sans-serif" font-size="8" fill="#22c55e" letter-spacing="3" font-weight="600">SKILL STORE</text>
    <text x="14" y="30" font-family="Segoe UI, sans-serif" font-size="13" fill="#cccccc" font-weight="600">37 Active · 130 Available</text>

    <!-- Icon Tab Bar -->
    <rect x="0" y="42" width="320" height="34" fill="#2d2d2d"/>
    <rect x="0" y="75" width="320" height="1" fill="#3c3c3c"/>
    <text x="20" y="63" font-family="Segoe UI, sans-serif" font-size="14" text-anchor="middle">🎛️</text>
    <text x="68" y="63" font-family="Segoe UI, sans-serif" font-size="14" text-anchor="middle">🤖</text>
    <rect x="100" y="46" width="32" height="26" rx="4" fill="#1e1e1e"/>
    <text x="116" y="63" font-family="Segoe UI, sans-serif" font-size="14" text-anchor="middle">🏪</text>
    <rect x="100" y="73" width="32" height="2" rx="1" fill="#22c55e"/>
    <text x="192" y="63" font-family="Segoe UI, sans-serif" font-size="14" text-anchor="middle">⚡</text>
    <text x="260" y="63" font-family="Segoe UI, sans-serif" font-size="14" text-anchor="middle">📊</text>

    <!-- Search + Filter Bar -->
    <g transform="translate(12, 86)">
      <rect x="0" y="0" width="220" height="28" rx="4" fill="#3c3c3c"/>
      <text x="12" y="18" font-family="Segoe UI, sans-serif" font-size="11" fill="#888888">🔍 Search skills...</text>
      <!-- Filter chips -->
      <rect x="226" y="0" width="70" height="28" rx="4" fill="#2d2d2d" stroke="#3c3c3c" stroke-width="0.5"/>
      <text x="240" y="18" font-family="Segoe UI, sans-serif" font-size="9" fill="#888888">⚙ Filters</text>
    </g>

    <!-- Tier tabs (CODEX 3-TIER INSPIRED) -->
    <g transform="translate(12, 122)">
      <rect x="0" y="0" width="70" height="22" rx="11" fill="#6366f1"/>
      <text x="12" y="15" font-family="Segoe UI, sans-serif" font-size="9" fill="#ffffff" font-weight="500">⭐ Installed</text>
      <rect x="76" y="0" width="70" height="22" rx="11" fill="transparent" stroke="#3c3c3c" stroke-width="0.5"/>
      <text x="88" y="15" font-family="Segoe UI, sans-serif" font-size="9" fill="#888888">📦 Curated</text>
      <rect x="152" y="0" width="86" height="22" rx="11" fill="transparent" stroke="#3c3c3c" stroke-width="0.5"/>
      <text x="162" y="15" font-family="Segoe UI, sans-serif" font-size="9" fill="#888888">🧪 Experimental</text>
    </g>

    <!-- Featured Skill (Codex recommended grid style) -->
    <g transform="translate(12, 154)">
      <text x="0" y="0" font-family="Segoe UI, sans-serif" font-size="10" fill="#888888" letter-spacing="0.8" font-weight="600">FEATURED</text>

      <!-- Skill card with branded icon + toggle (CODEX TOGGLE PATTERN) -->
      <rect x="0" y="12" width="296" height="68" rx="6" fill="#252526"/>
      <rect x="0" y="12" width="296" height="68" rx="6" fill="rgba(34,197,94,0.03)"/>
      <!-- Icon with brand color circle -->
      <circle cx="28" cy="46" r="18" fill="rgba(46,125,50,0.2)"/>
      <text x="28" y="52" font-family="Segoe UI, sans-serif" font-size="18" text-anchor="middle">👀</text>
      <!-- Skill info -->
      <text x="54" y="32" font-family="Segoe UI, sans-serif" font-size="12" fill="#e0e0e0" font-weight="600">Code Review</text>
      <rect x="136" y="20" width="48" height="16" rx="8" fill="rgba(99,102,241,0.15)"/>
      <text x="146" y="32" font-family="Segoe UI, sans-serif" font-size="9" fill="#818cf8">Trifecta</text>
      <text x="54" y="48" font-family="Segoe UI, sans-serif" font-size="9" fill="#a0a0a0">Systematic review for correctness, security, growth</text>
      <text x="54" y="62" font-family="Segoe UI, sans-serif" font-size="8" fill="#666666">category: quality · confidence: 95% · used: 42×</text>
      <!-- Toggle switch (CODEX INSPIRED) -->
      <rect x="252" y="30" width="34" height="18" rx="9" fill="#22c55e"/>
      <circle cx="277" cy="39" r="7" fill="#ffffff"/>
    </g>

    <!-- Skill Grid (CODEX STORE GRID) -->
    <g transform="translate(12, 242)">
      <text x="0" y="0" font-family="Segoe UI, sans-serif" font-size="10" fill="#888888" letter-spacing="0.8" font-weight="600">INSTALLED SKILLS</text>

      <!-- Grid row 1 -->
      <rect x="0" y="12" width="143" height="62" rx="6" fill="#252526"/>
      <circle cx="20" cy="34" r="10" fill="rgba(245,158,11,0.15)"/>
      <text x="20" y="38" font-family="Segoe UI, sans-serif" font-size="11" text-anchor="middle">🧪</text>
      <text x="36" y="32" font-family="Segoe UI, sans-serif" font-size="10" fill="#e0e0e0" font-weight="500">Testing</text>
      <text x="8" y="48" font-family="Segoe UI, sans-serif" font-size="8" fill="#a0a0a0">Right test, right level</text>
      <!-- Mini toggle -->
      <rect x="104" y="22" width="28" height="14" rx="7" fill="#22c55e"/>
      <circle cx="125" cy="29" r="5" fill="#ffffff"/>
      <text x="8" y="64" font-family="Segoe UI, sans-serif" font-size="8" fill="#666666">used: 28×</text>

      <rect x="153" y="12" width="143" height="62" rx="6" fill="#252526"/>
      <circle cx="173" cy="34" r="10" fill="rgba(239,68,68,0.15)"/>
      <text x="173" y="38" font-family="Segoe UI, sans-serif" font-size="11" text-anchor="middle">🔒</text>
      <text x="189" y="32" font-family="Segoe UI, sans-serif" font-size="10" fill="#e0e0e0" font-weight="500">Security</text>
      <rect x="257" y="22" width="28" height="14" rx="7" fill="#22c55e"/>
      <circle cx="278" cy="29" r="5" fill="#ffffff"/>
      <text x="161" y="48" font-family="Segoe UI, sans-serif" font-size="8" fill="#a0a0a0">OWASP, STRIDE audit</text>
      <text x="161" y="64" font-family="Segoe UI, sans-serif" font-size="8" fill="#666666">used: 15×</text>

      <!-- Grid row 2 -->
      <rect x="0" y="80" width="143" height="62" rx="6" fill="#252526"/>
      <circle cx="20" cy="102" r="10" fill="rgba(99,102,241,0.15)"/>
      <text x="20" y="106" font-family="Segoe UI, sans-serif" font-size="11" text-anchor="middle">🧘</text>
      <text x="36" y="100" font-family="Segoe UI, sans-serif" font-size="10" fill="#e0e0e0" font-weight="500">Meditation</text>
      <rect x="104" y="90" width="28" height="14" rx="7" fill="#22c55e"/>
      <circle cx="125" cy="97" r="5" fill="#ffffff"/>
      <text x="8" y="116" font-family="Segoe UI, sans-serif" font-size="8" fill="#a0a0a0">Knowledge consolidation</text>
      <text x="8" y="132" font-family="Segoe UI, sans-serif" font-size="8" fill="#666666">used: 8×</text>

      <rect x="153" y="80" width="143" height="62" rx="6" fill="#252526"/>
      <circle cx="173" cy="102" r="10" fill="rgba(34,197,94,0.15)"/>
      <text x="173" y="106" font-family="Segoe UI, sans-serif" font-size="11" text-anchor="middle">📊</text>
      <text x="189" y="100" font-family="Segoe UI, sans-serif" font-size="10" fill="#e0e0e0" font-weight="500">Mermaid</text>
      <rect x="257" y="90" width="28" height="14" rx="7" fill="#22c55e"/>
      <circle cx="278" cy="97" r="5" fill="#ffffff"/>
      <text x="161" y="116" font-family="Segoe UI, sans-serif" font-size="8" fill="#a0a0a0">Visual documentation</text>
      <text x="161" y="132" font-family="Segoe UI, sans-serif" font-size="8" fill="#666666">used: 19×</text>

      <!-- Grid row 3 (one disabled) -->
      <rect x="0" y="148" width="143" height="62" rx="6" fill="#252526"/>
      <circle cx="20" cy="170" r="10" fill="rgba(59,130,246,0.15)"/>
      <text x="20" y="174" font-family="Segoe UI, sans-serif" font-size="11" text-anchor="middle">🌐</text>
      <text x="36" y="168" font-family="Segoe UI, sans-serif" font-size="10" fill="#e0e0e0" font-weight="500">Graph API</text>
      <rect x="104" y="158" width="28" height="14" rx="7" fill="#22c55e"/>
      <circle cx="125" cy="165" r="5" fill="#ffffff"/>
      <text x="8" y="184" font-family="Segoe UI, sans-serif" font-size="8" fill="#a0a0a0">M365 integration</text>
      <text x="8" y="200" font-family="Segoe UI, sans-serif" font-size="8" fill="#666666">used: 5×</text>

      <!-- Disabled skill (toggle off) -->
      <rect x="153" y="148" width="143" height="62" rx="6" fill="#252526" opacity="0.5"/>
      <circle cx="173" cy="170" r="10" fill="rgba(136,136,136,0.1)"/>
      <text x="173" y="174" font-family="Segoe UI, sans-serif" font-size="11" text-anchor="middle" opacity="0.5">🎨</text>
      <text x="189" y="168" font-family="Segoe UI, sans-serif" font-size="10" fill="#888888" font-weight="500">Gamma</text>
      <!-- Toggle OFF -->
      <rect x="257" y="158" width="28" height="14" rx="7" fill="#3c3c3c"/>
      <circle cx="264" cy="165" r="5" fill="#888888"/>
      <text x="161" y="184" font-family="Segoe UI, sans-serif" font-size="8" fill="#666666">AI presentations</text>
      <text x="161" y="200" font-family="Segoe UI, sans-serif" font-size="8" fill="#555555">disabled by user</text>
    </g>

    <!-- Install from Catalog (CODEX SKILL INSTALLER INSPIRED) -->
    <g transform="translate(12, 470)">
      <text x="0" y="0" font-family="Segoe UI, sans-serif" font-size="10" fill="#888888" letter-spacing="0.8" font-weight="600">AVAILABLE TO INSTALL</text>
      <text x="248" y="0" font-family="Segoe UI, sans-serif" font-size="10" fill="#4fc1ff">Browse →</text>

      <rect x="0" y="12" width="296" height="54" rx="6" fill="#252526" stroke="#3c3c3c" stroke-width="0.5" stroke-dasharray="2,2"/>
      <circle cx="28" cy="38" r="14" fill="rgba(136,136,136,0.1)"/>
      <text x="28" y="44" font-family="Segoe UI, sans-serif" font-size="14" text-anchor="middle">☁️</text>
      <text x="50" y="32" font-family="Segoe UI, sans-serif" font-size="11" fill="#e0e0e0">Azure Deployment Ops</text>
      <text x="50" y="46" font-family="Segoe UI, sans-serif" font-size="9" fill="#a0a0a0">Production Azure patterns</text>
      <text x="50" y="60" font-family="Segoe UI, sans-serif" font-size="8" fill="#666666">from: fabioc-aloha/alex-skills · ⭐ curated</text>
      <rect x="236" y="26" width="52" height="22" rx="4" fill="#0e639c"/>
      <text x="250" y="41" font-family="Segoe UI, sans-serif" font-size="9" fill="#ffffff" font-weight="500">Install</text>

      <rect x="0" y="72" width="296" height="54" rx="6" fill="#252526" stroke="#3c3c3c" stroke-width="0.5" stroke-dasharray="2,2"/>
      <circle cx="28" cy="98" r="14" fill="rgba(136,136,136,0.1)"/>
      <text x="28" y="104" font-family="Segoe UI, sans-serif" font-size="14" text-anchor="middle">🐍</text>
      <text x="50" y="92" font-family="Segoe UI, sans-serif" font-size="11" fill="#e0e0e0">Python ML Environment</text>
      <text x="50" y="106" font-family="Segoe UI, sans-serif" font-size="9" fill="#a0a0a0">Conda, GPU setup, scaffolding</text>
      <text x="50" y="120" font-family="Segoe UI, sans-serif" font-size="8" fill="#666666">from: community · 🧪 experimental</text>
      <rect x="236" y="86" width="52" height="22" rx="4" fill="#0e639c"/>
      <text x="250" y="101" font-family="Segoe UI, sans-serif" font-size="9" fill="#ffffff" font-weight="500">Install</text>
    </g>

    <!-- Skill Stats Bar -->
    <g transform="translate(12, 610)">
      <rect x="0" y="0" width="296" height="40" rx="6" fill="#252526"/>
      <text x="10" y="14" font-family="Segoe UI, sans-serif" font-size="9" fill="#888888" font-weight="600">SKILL HEALTH</text>
      <text x="10" y="32" font-family="Segoe UI, sans-serif" font-size="10" fill="#a0a0a0">37 trifectas</text>
      <text x="100" y="32" font-family="Segoe UI, sans-serif" font-size="10" fill="#a0a0a0">93 partial</text>
      <text x="182" y="32" font-family="Segoe UI, sans-serif" font-size="10" fill="#22c55e">98% coverage</text>
    </g>

    <!-- Annotations -->
    <g transform="translate(12, 665)">
      <rect x="0" y="0" width="296" height="80" rx="6" fill="rgba(34,197,94,0.08)" stroke="#22c55e" stroke-width="0.5" stroke-opacity="0.3"/>
      <text x="10" y="18" font-family="Segoe UI, sans-serif" font-size="10" fill="#22c55e" font-weight="600">NEW FROM CODEX</text>
      <text x="10" y="34" font-family="Segoe UI, sans-serif" font-size="9" fill="#b0b0b0">✦ Toggle switches to enable/disable skills</text>
      <text x="10" y="46" font-family="Segoe UI, sans-serif" font-size="9" fill="#b0b0b0">✦ 3-tier: Installed / Curated / Experimental</text>
      <text x="10" y="58" font-family="Segoe UI, sans-serif" font-size="9" fill="#b0b0b0">✦ Install from GitHub catalog (any repo)</text>
      <text x="10" y="70" font-family="Segoe UI, sans-serif" font-size="9" fill="#b0b0b0">✦ Branded icons with color + usage stats</text>
    </g>

    <text x="160" y="766" font-family="Segoe UI, sans-serif" font-size="9" fill="#22c55e" text-anchor="middle">v7.0.0 · Reimagined Design</text>
  </g>
</svg>
