<svg xmlns="http://www.w3.org/2000/svg" width="680" height="820" viewBox="0 0 680 820">
  <defs>
    <linearGradient id="accentGrad" x1="0" y1="0" x2="1" y2="0">
      <stop offset="0%" stop-color="#6366f1"/>
      <stop offset="100%" stop-color="#818cf8"/>
    </linearGradient>
    <linearGradient id="actGrad" x1="0" y1="0" x2="1" y2="0">
      <stop offset="0%" stop-color="#22c55e"/>
      <stop offset="100%" stop-color="#4ade80"/>
    </linearGradient>
  </defs>

  <!-- LABELS -->
  <text x="160" y="16" font-family="Segoe UI, sans-serif" font-size="12" fill="#6366f1" text-anchor="middle" font-weight="700" letter-spacing="2">ORIGINAL — MORE</text>
  <text x="520" y="16" font-family="Segoe UI, sans-serif" font-size="12" fill="#22c55e" text-anchor="middle" font-weight="700" letter-spacing="2">REIMAGINED — ACTIVITY</text>

  <!-- ============================================ -->
  <!-- LEFT PANEL: ORIGINAL MORE TAB -->
  <!-- ============================================ -->
  <g transform="translate(0, 24)">
    <rect width="320" height="780" fill="#1e1e1e" rx="8" stroke="#3c3c3c" stroke-width="1"/>

    <!-- Header -->
    <rect x="0" y="0" width="320" height="42" fill="#252526" rx="8"/>
    <rect x="0" y="34" width="320" height="8" fill="#252526"/>
    <rect x="0" y="0" width="4" height="42" fill="url(#accentGrad)"/>
    <text x="14" y="16" font-family="Segoe UI, sans-serif" font-size="8" fill="#6366f1" letter-spacing="3" font-weight="600">COGNITIVE ARCHITECTURE</text>
    <text x="14" y="30" font-family="Segoe UI, sans-serif" font-size="13" fill="#cccccc" font-weight="600">Alex Cognitive</text>

    <!-- Tab Bar -->
    <rect x="0" y="42" width="320" height="34" fill="#2d2d2d"/>
    <rect x="0" y="75" width="320" height="1" fill="#3c3c3c"/>
    <text x="33" y="63" font-family="Segoe UI, sans-serif" font-size="11" fill="#888888" text-anchor="middle">Home</text>
    <text x="92" y="63" font-family="Segoe UI, sans-serif" font-size="11" fill="#888888" text-anchor="middle">Tools</text>
    <text x="148" y="63" font-family="Segoe UI, sans-serif" font-size="11" fill="#888888" text-anchor="middle">Skills</text>
    <text x="206" y="63" font-family="Segoe UI, sans-serif" font-size="11" fill="#888888" text-anchor="middle">Status</text>
    <rect x="243" y="46" width="50" height="26" rx="4" fill="#1e1e1e"/>
    <text x="268" y="63" font-family="Segoe UI, sans-serif" font-size="11" fill="#e0e0e0" text-anchor="middle" font-weight="600">More</text>
    <rect x="243" y="73" width="50" height="2" rx="1" fill="#6366f1"/>

    <!-- Quick Links -->
    <g transform="translate(12, 86)">
      <text x="0" y="0" font-family="Segoe UI, sans-serif" font-size="10" fill="#888888" letter-spacing="0.8" font-weight="600">QUICK LINKS</text>
      <rect x="0" y="12" width="296" height="30" rx="4" fill="#252526"/>
      <text x="16" y="32" font-family="Segoe UI, sans-serif" font-size="10" fill="#4fc1ff">📖 Documentation</text>
      <text x="268" y="32" font-family="Segoe UI, sans-serif" font-size="10" fill="#666666">→</text>
      <rect x="0" y="46" width="296" height="30" rx="4" fill="#252526"/>
      <text x="16" y="66" font-family="Segoe UI, sans-serif" font-size="10" fill="#4fc1ff">📋 Roadmap</text>
      <text x="268" y="66" font-family="Segoe UI, sans-serif" font-size="10" fill="#666666">→</text>
      <rect x="0" y="80" width="296" height="30" rx="4" fill="#252526"/>
      <text x="16" y="100" font-family="Segoe UI, sans-serif" font-size="10" fill="#4fc1ff">🐛 Report Issue</text>
      <text x="268" y="100" font-family="Segoe UI, sans-serif" font-size="10" fill="#666666">→</text>
      <rect x="0" y="114" width="296" height="30" rx="4" fill="#252526"/>
      <text x="16" y="134" font-family="Segoe UI, sans-serif" font-size="10" fill="#4fc1ff">⭐ Rate on Marketplace</text>
      <text x="268" y="134" font-family="Segoe UI, sans-serif" font-size="10" fill="#666666">→</text>
    </g>

    <!-- Settings -->
    <g transform="translate(12, 240)">
      <text x="0" y="0" font-family="Segoe UI, sans-serif" font-size="10" fill="#888888" letter-spacing="0.8" font-weight="600">SETTINGS</text>
      <rect x="0" y="12" width="296" height="30" rx="4" fill="#252526"/>
      <text x="16" y="32" font-family="Segoe UI, sans-serif" font-size="10" fill="#e0e0e0">⚙ Configure Environment</text>
      <rect x="0" y="46" width="296" height="30" rx="4" fill="#252526"/>
      <text x="16" y="66" font-family="Segoe UI, sans-serif" font-size="10" fill="#e0e0e0">🔑 Manage Secrets</text>
      <rect x="0" y="80" width="296" height="30" rx="4" fill="#252526"/>
      <text x="16" y="100" font-family="Segoe UI, sans-serif" font-size="10" fill="#e0e0e0">📄 View Changelog</text>
    </g>

    <!-- About -->
    <g transform="translate(12, 364)">
      <text x="0" y="0" font-family="Segoe UI, sans-serif" font-size="10" fill="#888888" letter-spacing="0.8" font-weight="600">ABOUT</text>
      <rect x="0" y="12" width="296" height="70" rx="6" fill="#252526"/>
      <text x="16" y="34" font-family="Segoe UI, sans-serif" font-size="10" fill="#a0a0a0">Version:</text>
      <text x="80" y="34" font-family="Segoe UI, sans-serif" font-size="10" fill="#e0e0e0">v6.2.0</text>
      <text x="16" y="50" font-family="Segoe UI, sans-serif" font-size="10" fill="#a0a0a0">Author:</text>
      <text x="80" y="50" font-family="Segoe UI, sans-serif" font-size="10" fill="#e0e0e0">Fabio CorreaX</text>
      <text x="16" y="66" font-family="Segoe UI, sans-serif" font-size="10" fill="#a0a0a0">License:</text>
      <text x="80" y="66" font-family="Segoe UI, sans-serif" font-size="10" fill="#e0e0e0">MIT</text>
    </g>

    <!-- Help -->
    <g transform="translate(12, 458)">
      <text x="0" y="0" font-family="Segoe UI, sans-serif" font-size="10" fill="#888888" letter-spacing="0.8" font-weight="600">HELP</text>
      <rect x="0" y="12" width="296" height="30" rx="4" fill="#252526"/>
      <text x="16" y="32" font-family="Segoe UI, sans-serif" font-size="10" fill="#4fc1ff">💡 Getting Started Guide</text>
      <rect x="0" y="46" width="296" height="30" rx="4" fill="#252526"/>
      <text x="16" y="66" font-family="Segoe UI, sans-serif" font-size="10" fill="#4fc1ff">❓ FAQ</text>
    </g>

    <!-- Limitations -->
    <g transform="translate(12, 540)">
      <rect x="0" y="0" width="296" height="92" rx="6" fill="rgba(245,158,11,0.08)" stroke="#f59e0b" stroke-width="0.5" stroke-opacity="0.3"/>
      <text x="10" y="18" font-family="Segoe UI, sans-serif" font-size="10" fill="#f59e0b" font-weight="600">LIMITATIONS</text>
      <text x="10" y="34" font-family="Segoe UI, sans-serif" font-size="9" fill="#b0b0b0">• No cross-session activity timeline</text>
      <text x="10" y="46" font-family="Segoe UI, sans-serif" font-size="9" fill="#b0b0b0">• No keyboard shortcut reference</text>
      <text x="10" y="58" font-family="Segoe UI, sans-serif" font-size="9" fill="#b0b0b0">• No diff review inbox</text>
      <text x="10" y="70" font-family="Segoe UI, sans-serif" font-size="9" fill="#b0b0b0">• Static links only — no contextual help</text>
      <text x="10" y="82" font-family="Segoe UI, sans-serif" font-size="9" fill="#b0b0b0">• No search across previous threads</text>
    </g>

    <text x="160" y="766" font-family="Segoe UI, sans-serif" font-size="9" fill="#555555" text-anchor="middle">v6.5.0 · Current Design</text>
  </g>

  <!-- ============================================ -->
  <!-- RIGHT PANEL: REIMAGINED ACTIVITY TAB -->
  <!-- ============================================ -->
  <g transform="translate(360, 24)">
    <rect width="320" height="780" fill="#1e1e1e" rx="8" stroke="#22c55e" stroke-width="1" stroke-opacity="0.4"/>

    <!-- Header -->
    <rect x="0" y="0" width="320" height="42" fill="#252526" rx="8"/>
    <rect x="0" y="34" width="320" height="8" fill="#252526"/>
    <rect x="0" y="0" width="4" height="42" fill="url(#actGrad)"/>
    <text x="14" y="16" font-family="Segoe UI, sans-serif" font-size="8" fill="#22c55e" letter-spacing="3" font-weight="600">ACTIVITY</text>
    <text x="14" y="30" font-family="Segoe UI, sans-serif" font-size="13" fill="#cccccc" font-weight="600">Timeline · Diffs · Shortcuts</text>

    <!-- Icon Tab Bar -->
    <rect x="0" y="42" width="320" height="34" fill="#2d2d2d"/>
    <rect x="0" y="75" width="320" height="1" fill="#3c3c3c"/>
    <text x="20" y="63" font-family="Segoe UI, sans-serif" font-size="14" text-anchor="middle">🎛️</text>
    <text x="68" y="63" font-family="Segoe UI, sans-serif" font-size="14" text-anchor="middle">🤖</text>
    <text x="140" y="63" font-family="Segoe UI, sans-serif" font-size="14" text-anchor="middle">🏪</text>
    <text x="212" y="63" font-family="Segoe UI, sans-serif" font-size="14" text-anchor="middle">⚡</text>
    <rect x="244" y="46" width="32" height="26" rx="4" fill="#1e1e1e"/>
    <text x="260" y="63" font-family="Segoe UI, sans-serif" font-size="14" text-anchor="middle">📊</text>
    <rect x="244" y="73" width="32" height="2" rx="1" fill="#22c55e"/>

    <!-- Search threads (CODEX CROSS-SESSION SEARCH) -->
    <g transform="translate(12, 86)">
      <rect x="0" y="0" width="296" height="28" rx="4" fill="#3c3c3c"/>
      <text x="12" y="18" font-family="Segoe UI, sans-serif" font-size="11" fill="#888888">🔍 Search across all sessions...</text>
    </g>

    <!-- Diff Review Inbox (CODEX "CONFIRM CHANGES" INSPIRED) -->
    <g transform="translate(12, 122)">
      <text x="0" y="0" font-family="Segoe UI, sans-serif" font-size="10" fill="#888888" letter-spacing="0.8" font-weight="600">DIFF REVIEW INBOX</text>
      <rect x="200" y="-10" width="18" height="14" rx="7" fill="#ef4444"/>
      <text x="209" y="1" font-family="Segoe UI, sans-serif" font-size="9" fill="#ffffff" text-anchor="middle" font-weight="600">3</text>

      <rect x="0" y="12" width="296" height="52" rx="6" fill="#252526"/>
      <rect x="0" y="12" width="3" height="52" rx="1.5" fill="#22c55e"/>
      <text x="16" y="30" font-family="Segoe UI, sans-serif" font-size="10" fill="#e0e0e0" font-weight="500">setupEnvironment.ts</text>
      <text x="16" y="44" font-family="Segoe UI, sans-serif" font-size="9" fill="#a0a0a0">Builder added 3 new settings · 2m ago</text>
      <text x="16" y="56" font-family="Segoe UI, sans-serif" font-size="8" fill="#22c55e">+12</text>
      <text x="36" y="56" font-family="Segoe UI, sans-serif" font-size="8" fill="#ef4444">-4</text>
      <rect x="196" y="30" width="46" height="20" rx="4" fill="#22c55e"/>
      <text x="206" y="44" font-family="Segoe UI, sans-serif" font-size="9" fill="#ffffff" font-weight="500">Accept</text>
      <rect x="248" y="30" width="40" height="20" rx="4" fill="transparent" stroke="#ef4444" stroke-width="0.5"/>
      <text x="256" y="44" font-family="Segoe UI, sans-serif" font-size="9" fill="#ef4444">Reject</text>

      <rect x="0" y="70" width="296" height="52" rx="6" fill="#252526"/>
      <rect x="0" y="70" width="3" height="52" rx="1.5" fill="#f59e0b"/>
      <text x="16" y="88" font-family="Segoe UI, sans-serif" font-size="10" fill="#e0e0e0" font-weight="500">ROADMAP-UNIFIED.md</text>
      <text x="16" y="102" font-family="Segoe UI, sans-serif" font-size="9" fill="#a0a0a0">Documentarian updated milestones · 15m ago</text>
      <text x="16" y="114" font-family="Segoe UI, sans-serif" font-size="8" fill="#22c55e">+28</text>
      <text x="36" y="114" font-family="Segoe UI, sans-serif" font-size="8" fill="#ef4444">-11</text>
      <rect x="196" y="88" width="46" height="20" rx="4" fill="transparent" stroke="#22c55e" stroke-width="0.5"/>
      <text x="208" y="102" font-family="Segoe UI, sans-serif" font-size="9" fill="#22c55e">Accept</text>
      <rect x="248" y="88" width="40" height="20" rx="4" fill="transparent" stroke="#ef4444" stroke-width="0.5"/>
      <text x="256" y="102" font-family="Segoe UI, sans-serif" font-size="9" fill="#ef4444">Reject</text>
    </g>

    <!-- Session Timeline (CODEX CROSS-SESSION INSPIRED) -->
    <g transform="translate(12, 262)">
      <text x="0" y="0" font-family="Segoe UI, sans-serif" font-size="10" fill="#888888" letter-spacing="0.8" font-weight="600">SESSION TIMELINE</text>

      <!-- Today -->
      <rect x="0" y="16" width="296" height="20" rx="3" fill="#2d2d2d"/>
      <text x="10" y="30" font-family="Segoe UI, sans-serif" font-size="9" fill="#e0e0e0" font-weight="600">Today</text>

      <rect x="8" y="38" width="2" height="140" fill="#3c3c3c"/>

      <!-- Thread entry 1 -->
      <circle cx="9" cy="50" r="5" fill="#6366f1"/>
      <text x="22" y="50" font-family="Segoe UI, sans-serif" font-size="10" fill="#e0e0e0">Command Center Design</text>
      <text x="22" y="62" font-family="Segoe UI, sans-serif" font-size="8" fill="#666666">10:15 — Builder, Researcher · 42 turns · active</text>
      <rect x="22" y="66" width="60" height="2" rx="1" fill="#22c55e"/>

      <!-- Thread entry 2 -->
      <circle cx="9" cy="88" r="5" fill="#22c55e"/>
      <text x="22" y="88" font-family="Segoe UI, sans-serif" font-size="10" fill="#e0e0e0">Codex Competitive Analysis</text>
      <text x="22" y="100" font-family="Segoe UI, sans-serif" font-size="8" fill="#666666">08:30 — Researcher · 18 turns · completed</text>
      <rect x="22" y="104" width="60" height="2" rx="1" fill="#22c55e"/>

      <!-- Thread entry 3 -->
      <circle cx="9" cy="126" r="5" fill="#22c55e"/>
      <text x="22" y="126" font-family="Segoe UI, sans-serif" font-size="10" fill="#e0e0e0">Release v6.2.0</text>
      <text x="22" y="138" font-family="Segoe UI, sans-serif" font-size="8" fill="#666666">06:00 — Builder, Validator · 28 turns · completed</text>
      <rect x="22" y="142" width="60" height="2" rx="1" fill="#22c55e"/>

      <!-- Yesterday header -->
      <rect x="0" y="156" width="296" height="20" rx="3" fill="#2d2d2d"/>
      <text x="10" y="170" font-family="Segoe UI, sans-serif" font-size="9" fill="#e0e0e0" font-weight="600">Yesterday</text>

      <!-- Thread entry 4 -->
      <circle cx="9" cy="188" r="5" fill="#22c55e"/>
      <text x="22" y="188" font-family="Segoe UI, sans-serif" font-size="10" fill="#a0a0a0">Dream State Maintenance</text>
      <text x="22" y="200" font-family="Segoe UI, sans-serif" font-size="8" fill="#666666">23:00 — 4 synapses refreshed</text>
    </g>

    <!-- Keyboard Shortcuts Panel -->
    <g transform="translate(12, 484)">
      <text x="0" y="0" font-family="Segoe UI, sans-serif" font-size="10" fill="#888888" letter-spacing="0.8" font-weight="600">KEYBOARD SHORTCUTS</text>
      <rect x="0" y="12" width="296" height="100" rx="6" fill="#252526"/>
      <text x="16" y="32" font-family="Segoe UI, sans-serif" font-size="9" fill="#e0e0e0">Ctrl+Shift+A</text>
      <text x="120" y="32" font-family="Segoe UI, sans-serif" font-size="9" fill="#a0a0a0">Open Command Center</text>
      <text x="16" y="48" font-family="Segoe UI, sans-serif" font-size="9" fill="#e0e0e0">Ctrl+Shift+D</text>
      <text x="120" y="48" font-family="Segoe UI, sans-serif" font-size="9" fill="#a0a0a0">Dream State</text>
      <text x="16" y="64" font-family="Segoe UI, sans-serif" font-size="9" fill="#e0e0e0">Ctrl+Shift+M</text>
      <text x="120" y="64" font-family="Segoe UI, sans-serif" font-size="9" fill="#a0a0a0">Meditate</text>
      <text x="16" y="80" font-family="Segoe UI, sans-serif" font-size="9" fill="#e0e0e0">Ctrl+Shift+S</text>
      <text x="120" y="80" font-family="Segoe UI, sans-serif" font-size="9" fill="#a0a0a0">Skill Search</text>
      <text x="16" y="96" font-family="Segoe UI, sans-serif" font-size="9" fill="#e0e0e0">Ctrl+Shift+Q</text>
      <text x="120" y="96" font-family="Segoe UI, sans-serif" font-size="9" fill="#a0a0a0">Queue Message</text>
    </g>

    <!-- Settings & About (compact) -->
    <g transform="translate(12, 604)">
      <rect x="0" y="0" width="143" height="36" rx="6" fill="#252526"/>
      <text x="72" y="22" font-family="Segoe UI, sans-serif" font-size="10" fill="#e0e0e0" text-anchor="middle">⚙ Settings</text>
      <rect x="153" y="0" width="143" height="36" rx="6" fill="#252526"/>
      <text x="224" y="22" font-family="Segoe UI, sans-serif" font-size="10" fill="#e0e0e0" text-anchor="middle">ℹ About v6.2.0</text>
    </g>

    <!-- Annotations -->
    <g transform="translate(12, 660)">
      <rect x="0" y="0" width="296" height="80" rx="6" fill="rgba(34,197,94,0.08)" stroke="#22c55e" stroke-width="0.5" stroke-opacity="0.3"/>
      <text x="10" y="18" font-family="Segoe UI, sans-serif" font-size="10" fill="#22c55e" font-weight="600">NEW FROM CODEX</text>
      <text x="10" y="34" font-family="Segoe UI, sans-serif" font-size="9" fill="#b0b0b0">✦ Diff review inbox with Accept/Reject</text>
      <text x="10" y="46" font-family="Segoe UI, sans-serif" font-size="9" fill="#b0b0b0">✦ Cross-session thread timeline</text>
      <text x="10" y="58" font-family="Segoe UI, sans-serif" font-size="9" fill="#b0b0b0">✦ Search across all previous sessions</text>
      <text x="10" y="70" font-family="Segoe UI, sans-serif" font-size="9" fill="#b0b0b0">✦ Keyboard shortcuts panel (P0 gap)</text>
    </g>

    <text x="160" y="766" font-family="Segoe UI, sans-serif" font-size="9" fill="#22c55e" text-anchor="middle">v7.0.0 · Reimagined Design</text>
  </g>
</svg>
