<svg xmlns="http://www.w3.org/2000/svg" viewBox="0 0 1200 300" width="1200" height="300">
  <defs>
    <!-- Deep space gradient (on-brand) -->
    <linearGradient id="bg" x1="0%" y1="0%" x2="100%" y2="100%">
      <stop offset="0%" stop-color="#080810"/>
      <stop offset="100%" stop-color="#0d1520"/>
    </linearGradient>
    
    <!-- Azure blue (brand primary) -->
    <linearGradient id="azure" x1="0%" y1="0%" x2="0%" y2="100%">
      <stop offset="0%" stop-color="#0078d4"/>
      <stop offset="100%" stop-color="#005a9e"/>
    </linearGradient>
    
    <!-- Flame/thrust orange (brand accent) - solar panels -->
    <linearGradient id="solar" x1="0%" y1="0%" x2="100%" y2="0%">
      <stop offset="0%" stop-color="#ff6b35"/>
      <stop offset="50%" stop-color="#ffc857"/>
      <stop offset="100%" stop-color="#ff6b35"/>
    </linearGradient>
    
    <!-- Station hull metallic -->
    <linearGradient id="hull" x1="0%" y1="0%" x2="0%" y2="100%">
      <stop offset="0%" stop-color="#4a5568"/>
      <stop offset="50%" stop-color="#718096"/>
      <stop offset="100%" stop-color="#4a5568"/>
    </linearGradient>
    
    <!-- Glow effect -->
    <radialGradient id="glow" cx="50%" cy="50%" r="50%">
      <stop offset="0%" stop-color="#0078d4" stop-opacity="0.2"/>
      <stop offset="100%" stop-color="#0078d4" stop-opacity="0"/>
    </radialGradient>
    
    <!-- Docking ring glow -->
    <radialGradient id="dockGlow" cx="50%" cy="50%" r="50%">
      <stop offset="0%" stop-color="#00ff88" stop-opacity="0.8"/>
      <stop offset="100%" stop-color="#00ff88" stop-opacity="0"/>
    </radialGradient>
  </defs>
  
  <!-- Background -->
  <rect width="1200" height="300" fill="url(#bg)"/>
  
  <!-- Stars (scattered) -->
  <g fill="white">
    <circle cx="50" cy="40" r="1" opacity="0.4"/>
    <circle cx="150" cy="250" r="1" opacity="0.3"/>
    <circle cx="250" cy="80" r="0.8" opacity="0.4"/>
    <circle cx="350" cy="60" r="1.5" opacity="0.5"/>
    <circle cx="450" cy="200" r="0.8" opacity="0.3"/>
    <circle cx="750" cy="50" r="1" opacity="0.4"/>
    <circle cx="850" cy="180" r="0.8" opacity="0.3"/>
    <circle cx="950" cy="30" r="1" opacity="0.4"/>
    <circle cx="1050" cy="100" r="1" opacity="0.3"/>
    <circle cx="1150" cy="60" r="1.5" opacity="0.5"/>
    <circle cx="1100" cy="220" r="0.8" opacity="0.3"/>
  </g>
  
  <!-- Earth in background (subtle) -->
  <circle cx="1150" cy="350" r="180" fill="#1a3a52" opacity="0.3"/>
  <circle cx="1150" cy="350" r="180" fill="none" stroke="#0078d4" stroke-width="1" opacity="0.2"/>
  
  <!-- Main glow behind station -->
  <ellipse cx="320" cy="150" rx="200" ry="120" fill="url(#glow)"/>
  
  <!-- SPACE STATION (ISS-inspired modular design) -->
  <g transform="translate(100, 80)">
    
    <!-- SOLAR PANEL ARRAYS (Left) -->
    <g transform="translate(40, 70)">
      <!-- Panel support arm -->
      <rect x="-80" y="-3" width="80" height="6" fill="url(#hull)"/>
      <!-- Upper panel -->
      <rect x="-145" y="-35" width="65" height="30" fill="url(#solar)" opacity="0.9"/>
      <rect x="-145" y="-35" width="65" height="30" fill="none" stroke="#ff6b35" stroke-width="1"/>
      <line x1="-145" y1="-20" x2="-80" y2="-20" stroke="#ff8c42" stroke-width="0.5"/>
      <line x1="-112" y1="-35" x2="-112" y2="-5" stroke="#ff8c42" stroke-width="0.5"/>
      <!-- Lower panel -->
      <rect x="-145" y="5" width="65" height="30" fill="url(#solar)" opacity="0.9"/>
      <rect x="-145" y="5" width="65" height="30" fill="none" stroke="#ff6b35" stroke-width="1"/>
      <line x1="-145" y1="20" x2="-80" y2="20" stroke="#ff8c42" stroke-width="0.5"/>
      <line x1="-112" y1="5" x2="-112" y2="35" stroke="#ff8c42" stroke-width="0.5"/>
    </g>
    
    <!-- SOLAR PANEL ARRAYS (Right) -->
    <g transform="translate(260, 70)">
      <!-- Panel support arm -->
      <rect x="0" y="-3" width="60" height="6" fill="url(#hull)"/>
      <!-- Upper panel -->
      <rect x="60" y="-35" width="65" height="30" fill="url(#solar)" opacity="0.9"/>
      <rect x="60" y="-35" width="65" height="30" fill="none" stroke="#ff6b35" stroke-width="1"/>
      <line x1="60" y1="-20" x2="125" y2="-20" stroke="#ff8c42" stroke-width="0.5"/>
      <line x1="92" y1="-35" x2="92" y2="-5" stroke="#ff8c42" stroke-width="0.5"/>
      <!-- Lower panel -->
      <rect x="60" y="5" width="65" height="30" fill="url(#solar)" opacity="0.9"/>
      <rect x="60" y="5" width="65" height="30" fill="none" stroke="#ff6b35" stroke-width="1"/>
      <line x1="60" y1="20" x2="125" y2="20" stroke="#ff8c42" stroke-width="0.5"/>
      <line x1="92" y1="5" x2="92" y2="35" stroke="#ff8c42" stroke-width="0.5"/>
    </g>
    
    <!-- MAIN TRUSS (horizontal backbone) -->
    <rect x="40" y="65" width="220" height="10" fill="url(#hull)"/>
    <line x1="50" y1="68" x2="250" y2="68" stroke="#a0aec0" stroke-width="0.5"/>
    <line x1="50" y1="72" x2="250" y2="72" stroke="#a0aec0" stroke-width="0.5"/>
    
    <!-- CENTRAL MODULE (Cupola/Command) -->
    <g transform="translate(130, 30)">
      <rect x="0" y="0" width="50" height="75" rx="8" fill="url(#azure)"/>
      <rect x="10" y="15" width="30" height="20" rx="4" fill="#0a1628" stroke="#00d4ff" stroke-width="1"/>
      <ellipse cx="25" cy="25" rx="12" ry="8" fill="#0078d4" opacity="0.3"/>
      <circle cx="12" cy="55" r="5" fill="#0a1628" stroke="#005a9e" stroke-width="1"/>
      <circle cx="38" cy="55" r="5" fill="#0a1628" stroke="#005a9e" stroke-width="1"/>
      <text x="25" y="95" text-anchor="middle" font-family="Segoe UI, sans-serif" font-size="10" font-weight="bold" fill="#0078d4">GK</text>
    </g>
    
    <!-- HABITAT MODULE (Left) -->
    <g transform="translate(60, 40)">
      <rect x="0" y="0" width="70" height="30" rx="6" fill="url(#azure)"/>
      <line x1="15" y1="3" x2="15" y2="27" stroke="#005a9e" stroke-width="0.5"/>
      <line x1="35" y1="3" x2="35" y2="27" stroke="#005a9e" stroke-width="0.5"/>
      <line x1="55" y1="3" x2="55" y2="27" stroke="#005a9e" stroke-width="0.5"/>
      <circle cx="25" cy="15" r="6" fill="#0a1628" stroke="#00d4ff" stroke-width="1"/>
      <circle cx="45" cy="15" r="6" fill="#0a1628" stroke="#00d4ff" stroke-width="1"/>
    </g>
    
    <!-- STORAGE MODULE (Far left) -->
    <g transform="translate(40, 45)">
      <rect x="0" y="0" width="25" height="20" rx="4" fill="url(#hull)"/>
      <rect x="5" y="5" width="15" height="10" rx="2" fill="#0a1628"/>
    </g>
    
    <!-- DOCKED ROCKET (A Negative Space) -->
    <ellipse cx="245" cy="55" rx="20" ry="20" fill="url(#dockGlow)"/>
    <rect x="180" y="50" width="25" height="10" fill="url(#hull)"/>
    <circle cx="205" cy="55" r="8" fill="#2d3748" stroke="#00ff88" stroke-width="2"/>
    
    <g transform="translate(205, 55) rotate(-90)">
      <g transform="scale(0.7)">
        <path d="M30,5 C30,5 15,20 15,45 L15,65 L22,68 L22,62 L38,62 L38,68 L45,65 L45,45 C45,20 30,5 30,5 Z" fill="url(#azure)"/>
        <polygon points="15,55 5,70 15,67" fill="url(#azure)"/>
        <polygon points="45,55 55,70 45,67" fill="url(#azure)"/>
        <path d="M30,15 L21,50 L24,50 L26,42 L34,42 L36,50 L39,50 Z M28,38 L30,22 L32,38 Z" fill="#080810"/>
        <circle cx="8" cy="60" r="3" fill="#ffc857" opacity="0.4"/>
        <circle cx="52" cy="60" r="3" fill="#ffc857" opacity="0.4"/>
      </g>
    </g>
    
  </g>
  
  <!-- Main title -->
  <text x="530" y="100" font-family="Segoe UI, Arial, sans-serif" font-size="42" font-weight="700" fill="white" letter-spacing="-0.5">
    Global Knowledge
  </text>
  
  <!-- Epic subtitle -->
  <text x="530" y="140" font-family="Segoe UI, Arial, sans-serif" font-size="18" fill="#888888">
    <tspan>Your </tspan><tspan fill="#0078d4" font-weight="bold">MISSION CONTROL</tspan><tspan> for Cross-Project Wisdom</tspan>
  </text>
  
  <!-- Feature pills -->
  <g transform="translate(530, 165)">
    <g>
      <rect x="0" y="0" width="100" height="28" rx="14" fill="#0078d4" fill-opacity="0.15" stroke="#0078d4" stroke-width="1" stroke-opacity="0.4"/>
      <text x="50" y="19" text-anchor="middle" font-family="Segoe UI, sans-serif" font-size="12" fill="#0078d4">📁 Patterns</text>
    </g>
    <g transform="translate(110, 0)">
      <rect x="0" y="0" width="90" height="28" rx="14" fill="#ff6b35" fill-opacity="0.15" stroke="#ff6b35" stroke-width="1" stroke-opacity="0.4"/>
      <text x="45" y="19" text-anchor="middle" font-family="Segoe UI, sans-serif" font-size="12" fill="#ff6b35">💡 Insights</text>
    </g>
    <g transform="translate(210, 0)">
      <rect x="0" y="0" width="90" height="28" rx="14" fill="#00ff88" fill-opacity="0.15" stroke="#00ff88" stroke-width="1" stroke-opacity="0.4"/>
      <text x="45" y="19" text-anchor="middle" font-family="Segoe UI, sans-serif" font-size="12" fill="#00ff88">🔗 Synced</text>
    </g>
    <g transform="translate(310, 0)">
      <rect x="0" y="0" width="105" height="28" rx="14" fill="#ff6b35" fill-opacity="0.15" stroke="#ff6b35" stroke-width="1" stroke-opacity="0.4"/>
      <text x="52" y="19" text-anchor="middle" font-family="Segoe UI, sans-serif" font-size="12" fill="#ff6b35">👥 Shareable</text>
    </g>
  </g>
  
  <!-- Docking status indicator -->
  <g transform="translate(530, 210)">
    <rect width="200" height="24" rx="12" fill="#00ff88" fill-opacity="0.1" stroke="#00ff88" stroke-width="1" stroke-opacity="0.3"/>
    <circle cx="18" cy="12" r="5" fill="#00ff88">
      <animate attributeName="opacity" values="1;0.3;1" dur="2s" repeatCount="indefinite"/>
    </circle>
    <text x="32" y="16" font-family="Segoe UI, sans-serif" font-size="11" fill="#00ff88">DOCKED &amp; SYNCED</text>
  </g>
  
  <!-- v5.0 badge -->
  <g transform="translate(530, 245)">
    <rect width="100" height="22" rx="11" fill="url(#solar)" fill-opacity="0.2"/>
    <text x="50" y="15" text-anchor="middle" font-family="Segoe UI, sans-serif" font-size="10" font-weight="600" fill="#ffc857">🚀 Premium v5.0</text>
  </g>
  
  <!-- CorreaX mark bottom right -->
  <g transform="translate(1080, 250)" opacity="0.6">
    <path d="M12 1.5C6.201 1.5 1.5 6.201 1.5 12s4.701 10.5 10.5 10.5c2.9 0 5.542-1.176 7.446-3.075l-2.651-2.652A6.75 6.75 0 0112 18.75c-3.728 0-6.75-3.022-6.75-6.75s3.022-6.75 6.75-6.75c1.718 0 3.285.643 4.478 1.701l2.598-2.729A10.46 10.46 0 0012 1.5z" fill="#0078d4"/>
    <path d="M15 7.5l-3 4.5 3 4.5h3l-3-4.5 3-4.5h-3z" fill="#0078d4"/>
    <path d="M18 7.5l3 4.5-3 4.5h3l3-4.5-3-4.5h-3z" fill="#0078d4" opacity="0.5"/>
  </g>
  <text x="1116" y="278" font-family="Segoe UI, sans-serif" font-size="11" fill="#888888" text-anchor="middle">CorreaX</text>
</svg>
