<svg xmlns="http://www.w3.org/2000/svg" height="1024" preserveAspectRatio="none" style="display: block;" version="1.1" viewBox="0 0 2048 2048" width="1024">
<path d="M 0 0 L 2048 0 L 2048 2048 L 0 2048 L 0 0 z" fill="rgb(255,255,255)" transform="translate(0,0)"></path>
<path d="M 1283.01 764.717 C 1290.28 763.703 1308.82 764.018 1316.65 764.008 L 1378.79 763.967 L 1484.81 763.86 C 1503.37 763.846 1525.62 763.291 1543.88 764.162 C 1542.82 887.28 1451.69 998.064 1330.19 1019.18 C 1320.74 1020.82 1309.46 1023.07 1299.93 1023.16 L 1299.84 1025.14 C 1358.22 1026.31 1427.82 1061.08 1468.18 1102.82 C 1515.01 1151.29 1542.54 1215.18 1545.59 1282.5 C 1556.41 1283.26 1568.1 1282.6 1579.02 1282.7 C 1648.53 1283.3 1718.43 1281.65 1787.9 1282.77 C 1787.94 1315.96 1788.38 1356.76 1783.27 1389.42 C 1767.31 1491.62 1722.19 1580.1 1649.56 1653.11 C 1584.01 1718.54 1500.49 1762.99 1409.61 1780.81 C 1372.43 1787.74 1346.52 1788.86 1309.24 1788.91 L 1283 1788.92 L 1283.06 1547.06 L 1544.06 1546.91 L 1544 1382.26 C 1543.87 1349.84 1543.16 1314.95 1543.98 1282.63 L 1283.01 1282.78 C 1283.02 1367.67 1284.5 1457.93 1282.77 1542.31 C 1212.73 1539.9 1143.06 1510.95 1095.23 1459.36 C 1058.84 1420.09 1028.52 1358.28 1025.8 1304.24 C 1023.27 1304.93 1023.63 1307.3 1022.87 1309.9 C 1023.05 1316.27 1020.51 1329.4 1019.04 1335.72 C 990.789 1457.08 891.988 1537.38 767.183 1542.23 L 767.212 1283.04 L 767.193 1023.82 C 791.002 1025.1 827.489 1024.03 852.209 1024.04 L 1024.44 1023.83 C 1025.07 937.413 1025.07 850.995 1024.43 764.581 C 1110.08 763.677 1197.19 764.968 1283.01 764.717 z" fill="rgb(34,88,142)" transform="translate(0,0)"></path>
<path d="M 1024.43 764.581 C 1110.08 763.677 1197.19 764.968 1283.01 764.717 L 1283.1 939.455 C 1283.08 966.615 1283.73 997.097 1282.84 1024.05 L 1091.73 1023.92 C 1081.31 1023.93 1031.53 1022.8 1025.02 1024.76 L 1024.95 1282.96 L 850.963 1282.75 C 827.007 1282.77 790.392 1281.65 767.212 1283.04 L 767.193 1023.82 C 791.002 1025.1 827.489 1024.03 852.209 1024.04 L 1024.44 1023.83 C 1025.07 937.413 1025.07 850.995 1024.43 764.581 z" fill="rgb(255,255,255)" transform="translate(0,0)"></path>
<path d="M 1143.57 815.289 C 1187.67 810.061 1227.71 841.436 1233.18 885.508 C 1238.66 929.58 1207.5 969.795 1163.46 975.512 C 1119.07 981.273 1078.47 949.822 1072.96 905.403 C 1067.44 860.985 1099.12 820.559 1143.57 815.289 z" fill="rgb(34,88,142)" transform="translate(0,0)"></path>
<path d="M 891.285 1073.41 C 935.412 1070.49 973.592 1103.81 976.672 1147.93 C 979.753 1192.04 946.575 1230.34 902.47 1233.59 C 858.137 1236.84 819.596 1203.46 816.499 1159.11 C 813.402 1114.77 846.929 1076.35 891.285 1073.41 z" fill="rgb(34,88,142)" transform="translate(0,0)"></path>
<path d="M 1280.27 1053.25 C 1282.97 1053.74 1282.36 1058.39 1282.89 1061.21 L 1283.02 1282.37 C 1236.85 1282.75 1185.93 1281.43 1140.51 1282.83 C 1120.99 1280.87 1094.53 1282.77 1074.36 1282.02 C 1067.13 1281.75 1056.87 1282.62 1050.06 1281.36 L 1050.54 1280.2 C 1091.67 1279.23 1147.73 1255.97 1180.28 1230.66 C 1239.64 1184.5 1270.42 1126.69 1280.27 1053.25 z" fill="rgb(255,255,255)" transform="translate(0,0)"></path>
<path d="M 1025.02 1024.76 C 1031.53 1022.8 1081.31 1023.93 1091.73 1023.92 L 1282.84 1024.05 L 1283.08 1039.71 L 1281.03 1042.03 L 1281.31 1025 C 1211.2 1023.95 1140.59 1025.22 1070.44 1024.99 C 1055.58 1024.94 1039.78 1025.92 1025.02 1024.76 z" fill="rgb(118,152,189)" transform="translate(0,0)"></path>
<path d="M 1140.51 1282.83 C 1123.8 1284.44 1095.34 1282.47 1077.2 1282.9 C 1067.41 1283.13 1035.41 1283.33 1027.5 1281.99 C 1033.19 1280.95 1044.79 1279.98 1050.54 1280.2 L 1050.06 1281.36 C 1056.87 1282.62 1067.13 1281.75 1074.36 1282.02 C 1094.53 1282.77 1120.99 1280.87 1140.51 1282.83 z" fill="rgb(118,152,189)" transform="translate(0,0)"></path>
<path d="M 1022.87 1309.9 C 1022.85 1308.45 1022.86 1306.99 1022.89 1305.53 C 1022.95 1303.58 1024.47 1285.79 1024.91 1285.37 C 1025.98 1286.19 1026.03 1302.11 1025.8 1304.24 C 1023.27 1304.93 1023.63 1307.3 1022.87 1309.9 z" fill="rgb(118,152,189)" transform="translate(0,0)"></path>
<path d="M 1283.08 1039.71 C 1282.88 1046.9 1283.12 1053.98 1282.89 1061.21 C 1282.36 1058.39 1282.97 1053.74 1280.27 1053.25 C 1280.39 1049.31 1280.97 1046.38 1281.03 1042.03 L 1283.08 1039.71 z" fill="rgb(216,226,234)" transform="translate(0,0)"></path>
<path d="M 1299.84 1025.14 C 1297.43 1025.23 1287.54 1025.22 1285.75 1024.21 C 1285.75 1024.08 1285.75 1023.94 1285.75 1023.81 C 1288.18 1023.03 1297.34 1022.9 1299.93 1023.16 L 1299.84 1025.14 z" fill="rgb(118,152,189)" transform="translate(0,0)"></path>
<path d="M 264.042 760.999 C 263.971 730.298 263.644 704.214 266.933 673.599 C 277.738 569.851 324.055 473.021 398.045 399.496 C 473.885 323.003 573.868 275.123 681.009 263.992 C 709.603 260.896 737.586 261.462 766.292 261.24 C 767.676 342.196 765.555 424.339 766.838 505.82 C 793.482 506.094 824.293 513.044 849.388 521.616 C 944.524 554.112 1018.8 645.122 1024.04 747.067 L 1025.98 746.886 C 1027.48 688.521 1061.76 620.6 1103.92 580.794 C 1152.62 535.182 1216.23 508.801 1282.92 506.552 C 1283.03 591.21 1281.54 680.48 1283.01 764.717 C 1197.19 764.968 1110.08 763.677 1024.43 764.581 C 1025.07 850.995 1025.07 937.413 1024.44 1023.83 L 852.209 1024.04 C 827.489 1024.03 791.002 1025.1 767.193 1023.82 C 762.139 1022.99 758.56 1023.06 753.483 1022.98 C 662.183 1019.36 572.307 958.854 533.51 877.022 C 518.233 844.798 504.493 799.992 506.023 763.875 C 504.083 762.135 503.211 762.457 500.268 761.799 C 492.999 760.512 438.861 761.205 428.848 761.211 L 264.042 760.999 z" fill="rgb(34,88,142)" transform="translate(0,0)"></path>
<path d="M 264.042 760.999 C 263.971 730.298 263.644 704.214 266.933 673.599 C 277.738 569.851 324.055 473.021 398.045 399.496 C 473.885 323.003 573.868 275.123 681.009 263.992 C 709.603 260.896 737.586 261.462 766.292 261.24 C 767.676 342.196 765.555 424.339 766.838 505.82 C 680.377 507.094 593.009 504.923 506.572 505.768 C 506.386 528.136 506.352 550.505 506.471 572.873 C 506.522 580.864 506.165 596.027 506.837 603.583 C 508.514 622.258 507.506 660.652 507.354 681.155 C 507.185 703.938 508.621 742.539 506.917 764.173 L 506.023 763.875 C 504.083 762.135 503.211 762.457 500.268 761.799 C 492.999 760.512 438.861 761.205 428.848 761.211 L 264.042 760.999 z" fill="rgb(34,88,142)" transform="translate(0,0)"></path>
<path d="M 500.268 761.799 L 504.495 761.252 C 504.955 760.792 505.414 760.333 505.873 759.873 C 508.048 718.491 504.54 641.268 506.837 603.583 C 508.514 622.258 507.506 660.652 507.354 681.155 C 507.185 703.938 508.621 742.539 506.917 764.173 L 506.023 763.875 C 504.083 762.135 503.211 762.457 500.268 761.799 z" fill="rgb(216,226,234)" transform="translate(0,0)"></path>
<path d="M 506.572 505.768 C 593.009 504.923 680.377 507.094 766.838 505.82 L 767.372 668.332 C 767.455 699.254 768.223 733.469 767.111 764.092 L 853.032 764.232 C 865.387 764.25 884.608 764.871 896.488 764.176 C 919.026 766.141 974.519 763.719 999.634 765.369 C 1000.03 765.783 1000.43 766.197 1000.83 766.61 C 1000.86 766.679 1000.89 766.748 1000.92 766.816 C 911.078 772.301 822.339 840.064 788.348 922.329 C 779.737 943.171 769.732 974.164 768.822 996.296 C 767.996 996.766 768.268 996.67 767.884 996.76 C 765.998 995.283 767.438 925.908 766.193 916.481 L 766.109 763.941 L 506.917 764.173 C 508.621 742.539 507.185 703.938 507.354 681.155 C 507.506 660.652 508.514 622.258 506.837 603.583 C 506.165 596.027 506.522 580.864 506.471 572.873 C 506.352 550.505 506.386 528.136 506.572 505.768 z" fill="rgb(255,255,255)" transform="translate(0,0)"></path>
<path d="M 633.163 557.459 C 677.009 554.96 714.664 588.292 717.505 632.117 C 720.346 675.942 687.309 713.856 643.507 717.038 C 599.22 720.255 560.793 686.772 557.921 642.461 C 555.049 598.149 588.831 559.985 633.163 557.459 z" fill="rgb(34,88,142)" transform="translate(0,0)"></path>
<path d="M 896.488 764.176 C 914.75 762.963 941.578 763.864 960.285 763.83 C 977.725 763.798 1006.09 762.959 1021.97 765.179 C 1018.21 765.476 1003.16 767.231 1000.92 766.816 C 1000.89 766.748 1000.86 766.679 1000.83 766.61 C 1000.43 766.197 1000.03 765.783 999.634 765.369 C 974.519 763.719 919.026 766.141 896.488 764.176 z" fill="rgb(118,152,189)" transform="translate(0,0)"></path>
<path d="M 766.193 916.481 C 767.438 925.908 765.998 995.283 767.884 996.76 C 768.268 996.67 767.996 996.766 768.822 996.296 C 769.094 998.466 768.716 1014.02 767.416 1015.41 L 767.214 1015.38 C 765.549 1013.29 765.522 925.864 766.193 916.481 z" fill="rgb(118,152,189)" transform="translate(0,0)"></path>
<path d="M 1026.05 751.245 C 1026.05 753.242 1026.31 759.989 1025.19 761.437 C 1023.74 761.694 1023.96 756.694 1023.93 755.789 C 1024.63 754.271 1025.34 752.756 1026.05 751.245 z" fill="rgb(80,123,174)" transform="translate(0,0)"></path>
<path d="M 1024.04 747.067 L 1025.98 746.886 C 1025.97 748.406 1026 749.725 1026.05 751.245 C 1025.34 752.756 1024.63 754.271 1023.93 755.789 C 1023.99 752.882 1024.03 749.974 1024.04 747.067 z" fill="rgb(149,176,205)" transform="translate(0,0)"></path>
<path d="M 753.483 1022.98 C 758.56 1023.06 762.139 1022.99 767.193 1023.82 L 767.212 1283.04 C 757.339 1283.25 741.899 1283.68 732.347 1282.86 L 506.902 1282.91 L 506.599 1546.88 L 766.178 1546.94 L 766.615 1788.68 L 735.973 1788.8 C 488.028 1788.84 288.412 1609.84 265.787 1361.13 C 263.384 1334.71 263.948 1309.34 263.985 1282.86 L 506.268 1282.75 C 506.226 1281.15 506.18 1279.59 506.228 1278 C 509.771 1161.63 592.987 1059.15 706.207 1031.86 C 720.911 1028.32 735.529 1024.73 750.832 1025.02 L 753.483 1022.98 z" fill="rgb(34,88,142)" transform="translate(0,0)"></path>
<path d="M 753.483 1022.98 C 758.56 1023.06 762.139 1022.99 767.193 1023.82 L 767.212 1283.04 C 757.339 1283.25 741.899 1283.68 732.347 1282.86 C 734.856 1282.05 762.192 1282.46 766.49 1282.49 L 766.297 1024.59 C 761.236 1024.99 755.927 1024.95 750.832 1025.02 L 753.483 1022.98 z" fill="rgb(149,176,205)" transform="translate(0,0)"></path>
<path d="M 1283.04 261.228 C 1360.77 260.713 1419.46 263.951 1493.21 294.152 C 1609.66 342.362 1700.19 427.44 1750.76 544.498 C 1783.31 619.847 1788.4 684.409 1788.1 764.899 L 1626.06 764.756 C 1606.93 764.739 1561.3 765.713 1543.88 764.162 C 1543.4 678.094 1544.74 592.106 1543.38 505.941 L 1282.94 505.907 L 1283.04 261.228 z" fill="rgb(34,88,142)" transform="translate(0,0)"></path>
<path d="M 296.993 1061.21 L 457.616 1061.19 C 458.827 1113.37 457.799 1169.65 457.852 1222.14 C 406.485 1223.45 348.769 1222.2 296.886 1222.15 C 296.019 1169.46 296.865 1114.1 296.993 1061.21 z" fill="rgb(34,88,142)" transform="translate(0,0)"></path>
<path d="M 1593.67 1061.11 L 1753.95 1061.04 C 1754.02 1113.18 1755.26 1170.63 1753.79 1222.3 L 1593.52 1222.36 C 1593.69 1189.51 1593.7 1156.65 1593.54 1123.79 C 1593.43 1104.69 1592.59 1079.7 1593.67 1061.11 z" fill="rgb(34,88,142)" transform="translate(0,0)"></path>
<path d="M 1062.13 295.666 C 1112.68 294.193 1170.61 295.783 1222.11 295.609 C 1222.07 348.715 1222.75 403.844 1221.65 456.786 L 1062.8 457.008 C 1062.03 403.623 1062.64 349.302 1062.13 295.666 z" fill="rgb(34,88,142)" transform="translate(0,0)"></path>
<path d="M 1141.17 1591.06 C 1186.23 1588.93 1224.53 1623.65 1226.83 1668.71 C 1229.12 1713.77 1194.55 1752.2 1149.5 1754.66 C 1104.21 1757.14 1065.53 1722.34 1063.23 1677.04 C 1060.92 1631.75 1095.86 1593.2 1141.17 1591.06 z" fill="rgb(34,88,142)" transform="translate(0,0)"></path>
<path d="M 893.901 296.394 C 938.691 290.222 979.948 321.676 985.859 366.501 C 991.77 411.325 960.077 452.4 915.219 458.05 C 870.728 463.654 830.063 432.276 824.201 387.819 C 818.338 343.361 849.479 302.515 893.901 296.394 z" fill="rgb(34,88,142)" transform="translate(0,0)"></path>
<path d="M 900.951 1591.41 C 945.957 1589.09 984.302 1623.74 986.557 1668.75 C 988.811 1713.76 954.12 1752.06 909.107 1754.25 C 864.176 1756.45 825.961 1721.83 823.71 1676.9 C 821.46 1631.97 856.026 1593.71 900.951 1591.41 z" fill="rgb(34,88,142)" transform="translate(0,0)"></path>
<path d="M 372.161 817.531 C 416.682 814.265 455.455 847.634 458.856 892.145 C 462.258 936.657 429.006 975.53 384.505 979.066 C 339.813 982.617 300.737 949.192 297.321 904.489 C 293.905 859.787 327.449 820.812 372.161 817.531 z" fill="rgb(34,88,142)" transform="translate(0,0)"></path>
<path d="M 1663.08 818.253 C 1707.3 812.43 1747.89 843.515 1753.79 887.73 C 1759.7 931.945 1728.68 972.59 1684.48 978.572 C 1640.16 984.57 1599.39 953.461 1593.47 909.134 C 1587.56 864.807 1618.74 824.092 1663.08 818.253 z" fill="rgb(34,88,142)" transform="translate(0,0)"></path>
<path d="M 629.424 1333.64 C 673.291 1329.09 712.571 1360.88 717.266 1404.73 C 721.962 1448.59 690.303 1487.97 646.468 1492.82 C 602.423 1497.68 562.804 1465.84 558.086 1421.78 C 553.368 1377.72 585.346 1338.21 629.424 1333.64 z" fill="rgb(34,88,142)" transform="translate(0,0)"></path>
<path d="M 1404.95 1333.38 C 1448.93 1329.43 1487.8 1361.85 1491.8 1405.82 C 1495.81 1449.8 1463.44 1488.71 1419.47 1492.77 C 1375.42 1496.85 1336.42 1464.4 1332.41 1420.35 C 1328.39 1376.29 1360.89 1337.33 1404.95 1333.38 z" fill="rgb(34,88,142)" transform="translate(0,0)"></path>
<path d="M 1403.55 557.531 C 1447.69 552.732 1487.28 584.828 1491.72 629.006 C 1496.15 673.184 1463.73 712.51 1419.52 716.582 C 1375.82 720.607 1337.04 688.643 1332.66 644.976 C 1328.28 601.309 1359.92 562.275 1403.55 557.531 z" fill="rgb(34,88,142)" transform="translate(0,0)"></path>
<metadata><recraft-signature>{"signed_by": "recraft", "signature_b64": "F+ZbAoFRplw99RPhqOAv8YEeq6bkaoynMyIqQIS7H5H3/ysln1BEjgK/p2Ulrh+OnPHejU6tkQ3runNHdzPfDw==", "signing_algo": "Ed25519", "generation_timestamp": 1772776700, "identifier": "228f7372-2fc5-49b2-b434-1142647901f2"}</recraft-signature></metadata></svg>