<svg xmlns="http://www.w3.org/2000/svg" height="1024" preserveAspectRatio="none" style="display: block;" version="1.1" viewBox="0 0 2048 2048" width="1024">
<path d="M 0 0 L 2048 0 L 2048 2048 L 0 2048 L 0 0 z" fill="rgb(255,255,255)" transform="translate(0,0)"></path>
<path d="M 370.209 767.393 C 371.965 767.208 373.73 767.122 375.496 767.136 C 408.235 767.212 442.649 792.492 448.51 824.582 C 453.457 851.672 451.417 889.072 451.478 917.036 L 452.179 1066.88 C 446.472 1073.47 438.597 1081.84 433.882 1089 C 403.241 1135.55 412.404 1198.57 450.881 1237.33 C 490.668 1277.41 529.952 1316.34 569.523 1355.85 L 611.196 1397.56 C 618.879 1405.23 626.754 1413.4 634.71 1420.3 C 648.257 1432.01 670.255 1422.85 671.757 1405.02 C 673.387 1385.66 647.832 1367.28 634.478 1354.06 C 605.344 1324.93 576.039 1295.98 546.566 1267.19 C 536.267 1257.21 525.246 1247.18 515.548 1236.68 C 495.211 1214.66 473.913 1201.91 465.63 1171.69 C 447.67 1106.16 523.291 1050.52 580.04 1086.97 C 594.401 1096.19 610.722 1114.26 623.188 1126.63 L 682.557 1185.99 L 867.675 1370.33 C 884.585 1387.35 908.398 1410.12 923.093 1428.37 C 963.816 1478.63 988.644 1539.88 994.41 1604.31 C 996.326 1626.7 995.595 1654.46 995.559 1677.37 L 995.749 1767.15 L 875.654 1767.33 C 854.954 1767.29 830.293 1767.81 809.907 1766.3 C 748.074 1762.23 689.063 1738.92 641.144 1699.63 C 622.163 1684.02 601.681 1662.8 584.168 1645.13 C 566.131 1626.89 547.894 1608.86 529.458 1591.02 L 430.784 1493.31 C 417.573 1480.24 403.895 1466.31 390.372 1453.72 C 348.302 1414.56 322.578 1368.6 309.18 1313 C 297.194 1263.27 298.946 1213.83 299.104 1162.88 L 299.218 1024.62 L 299.171 898.555 C 299.191 876.889 297.633 849.753 300.733 828.635 C 306.014 792.658 336.209 770.659 370.209 767.393 z" fill="rgb(36,81,243)" transform="translate(0,0)"></path>
<path d="M 1664.85 768.321 C 1703.36 764.722 1741.15 785.739 1748.61 826.461 C 1752.35 846.813 1750.21 878.815 1750.52 900.455 C 1751.76 985.707 1750.57 1071.24 1750.96 1156.52 C 1750.98 1195.01 1752.19 1240 1747.68 1277.53 C 1741.06 1332.49 1716.82 1390.97 1680.2 1432.71 C 1670.64 1443.62 1660.62 1452.57 1650.23 1462.63 L 1608.58 1503.3 L 1439.51 1670.07 C 1353.26 1756.19 1277.46 1767.71 1161.39 1767.8 L 1053.28 1767.79 C 1053.21 1765.88 1053.15 1763.97 1053.11 1762.06 C 1052.32 1714.77 1052.24 1664 1053.51 1617.07 C 1055.23 1553.05 1080.66 1486.59 1119.88 1436.42 C 1136.91 1414.62 1158.31 1395.15 1177.76 1374.99 L 1388.83 1166.62 C 1398.62 1156.96 1408.1 1146.43 1418.08 1137.1 C 1451.79 1105.55 1475.53 1063.11 1528.29 1076.04 C 1548.65 1080.98 1566.19 1093.84 1577.03 1111.77 C 1600.61 1150.84 1585.46 1186.28 1555.11 1215.15 C 1537.3 1232.1 1519.24 1250.02 1501.65 1267.24 L 1403.7 1362.69 C 1389.54 1376.61 1363.52 1392.27 1378.95 1415.98 C 1382.24 1421.1 1387.53 1424.6 1393.53 1425.61 C 1397.11 1426.21 1405.17 1426.25 1408.13 1424.1 C 1420.89 1414.82 1432.05 1402.63 1443.16 1391.46 L 1490.95 1343.44 C 1527.39 1307.2 1564.96 1272.27 1601.37 1236.03 C 1649.76 1187.88 1646.93 1113.38 1598.88 1066.37 C 1597.42 1018.85 1599.01 969.267 1598.37 921.404 C 1599.9 892.015 1595.25 858.661 1599.7 829.837 C 1604.99 795.503 1632.81 773.926 1664.85 768.321 z" fill="rgb(36,81,243)" transform="translate(0,0)"></path>
<path d="M 498.818 449.018 L 662.699 553.944 C 681.958 566.382 702.164 578.338 720.92 591.421 C 691.208 600.349 658.562 608.878 629.563 618.797 C 640.708 650.344 650.248 682.23 661.738 714.061 C 707.293 698.212 755.045 684.994 801.32 670.807 C 805.494 681.764 808.854 693.421 812.693 704.556 C 831.102 757.957 846.575 812.985 866.023 865.99 C 830.648 900.981 793.738 934.291 758.707 969.458 C 777.497 977.817 796.058 986.695 814.82 995.159 C 842.604 1007.69 871.165 1019.6 898.676 1032.63 C 873.72 1049.35 852.971 1082.1 845.813 1111.09 C 844.975 1114.48 843.523 1123.71 841.297 1125.56 C 748.784 1085.92 656.998 1041.92 564.876 1001.67 L 693.7 876.504 C 706.866 863.777 722.065 847.051 734.794 835.574 C 731.331 824.072 726.899 810.615 724.478 799.018 C 706.581 803.336 683.963 811.15 666.077 816.756 C 637.748 825.767 609.255 834.254 580.613 842.213 C 559.179 783.312 540.381 717.146 519.935 657.003 C 491.792 665.335 464.304 672.976 436.234 681.754 C 438.619 669.007 443.284 654.749 446.606 641.901 L 473.817 540.303 L 488.581 484.84 C 491.181 474.848 495.127 458.144 498.818 449.018 z" fill="rgb(36,81,243)" transform="translate(0,0)"></path>
<path d="M 1552.64 447.932 C 1554.86 452.629 1568.23 507.925 1570.39 516.325 C 1584.13 571.072 1598.65 625.621 1613.94 679.955 C 1587.54 673.182 1558.19 664.073 1531.9 656.186 C 1522.37 688.944 1507.92 725.719 1496.78 758.264 C 1487.92 784.136 1478.57 815.428 1468.33 840.29 C 1423.56 827.442 1371.36 809.194 1326.57 799.017 C 1322.26 811.874 1318.29 823.973 1314.54 836.994 C 1328.95 851.488 1342.84 864.061 1357.34 878.089 C 1399.85 919.039 1442.1 960.26 1484.09 1001.75 C 1473.15 1007.95 1454.36 1015.92 1442.52 1021.25 L 1365.47 1055.49 C 1314.7 1078.16 1264.41 1101.56 1212.88 1122.46 C 1210.18 1123.56 1210.15 1123.9 1207.75 1122.78 C 1199.88 1084.32 1182.33 1057.71 1153.06 1031.71 C 1196 1011.08 1247.43 989.294 1291.68 969.837 C 1264.91 945.073 1238.4 920.028 1212.15 894.707 C 1201.93 884.866 1191.42 875.638 1181.66 865.324 L 1248.75 670.253 C 1294.74 683.142 1345.56 699.202 1391.25 713.845 C 1401.64 685.633 1414.4 646.759 1422.94 617.77 C 1393.92 607.849 1360.98 599.738 1330.97 589.93 C 1359.05 570.684 1388.63 553.539 1417.05 534.808 C 1461.8 505.314 1508.25 477.853 1552.64 447.932 z" fill="rgb(36,81,243)" transform="translate(0,0)"></path>
<path d="M 1024.67 244.538 C 1028.96 247.319 1069.56 303.646 1076.6 312.937 L 1140.29 396.717 C 1157.41 419.002 1176.36 442.893 1192.27 465.915 C 1157.17 465.96 1122.07 465.739 1086.98 465.253 C 1086.2 510.04 1086.95 557.016 1086.95 601.991 L 1086.75 856.001 C 1086.71 899.67 1087.85 946.845 1086.46 990.193 C 1065.12 981.994 1049.04 978.962 1026.19 978.756 C 1001.51 979.165 986.212 983.472 963.604 991.78 L 963.198 727.537 C 963.782 640.289 963.726 553.038 963.029 465.79 C 930.479 464.694 891.227 466.012 857.697 465.78 C 863.45 456.747 872.747 445.264 879.516 436.369 L 915.174 389.367 L 1024.67 244.538 z" fill="rgb(36,81,243)" transform="translate(0,0)"></path>
<path d="M 1014.78 1033.15 C 1094.97 1027.91 1164.21 1088.71 1169.38 1168.91 C 1174.56 1249.1 1113.71 1318.29 1033.51 1323.4 C 953.393 1328.51 884.294 1267.74 879.126 1187.63 C 873.958 1107.52 934.677 1038.38 1014.78 1033.15 z" fill="rgb(36,81,243)" transform="translate(0,0)"></path>
<metadata><recraft-signature>{"signed_by": "recraft", "signature_b64": "33RqZDD3UT3WitjbX6qMLMQPsGRCblMEYzmYEZ1MS+D26cNDeyeVKrCXgJsmGwqPQBpFQWVxrkpf71xirzNZBg==", "signing_algo": "Ed25519", "generation_timestamp": 1772777199, "identifier": "6af5b720-a4a6-4bae-8939-4c859e14a542"}</recraft-signature></metadata></svg>