<svg xmlns="http://www.w3.org/2000/svg" height="1024" preserveAspectRatio="none" style="display: block;" version="1.1" viewBox="0 0 2048 2048" width="1024">
<path d="M 0 0 L 2048 0 L 2048 2048 L 0 2048 L 0 0 z" fill="rgb(255,255,255)" transform="translate(0,0)"></path>
<path d="M 1004.24 569.408 C 1008.01 568.984 1014.78 568.891 1018.56 568.835 C 1122.65 567.31 1223.11 606.977 1298.08 679.196 C 1371.53 750.546 1410.26 835.279 1417.62 937.132 C 1419.75 966.525 1418.2 997.95 1418.66 1027.8 L 1504.58 1137.91 C 1516.3 1153.21 1528.75 1169.09 1539.35 1184.93 C 1548.51 1198.61 1538.81 1215.02 1522.47 1215.57 C 1510.86 1215.96 1500.02 1215.63 1488.51 1215.58 L 1424.27 1215.79 C 1422.89 1245.56 1426.11 1272.43 1420.62 1301.83 C 1410.07 1358.38 1365.28 1402.39 1309.94 1415.55 C 1283.87 1421.75 1261.89 1422.39 1235.56 1432.25 C 1206.04 1443.31 1181.17 1460.24 1159 1482.65 C 1124.33 1517.7 1098.45 1569.16 1093.85 1618.49 C 1091.7 1641.66 1092.25 1667.97 1092.27 1691.5 L 1092.25 1774.06 C 1048.52 1775.65 1000.38 1774.39 956.485 1773.99 C 957.061 1734.03 956.511 1693.87 956.558 1653.89 C 956.573 1640.81 956.365 1626.97 955.249 1613.93 C 950.921 1564.82 933.313 1517.81 904.312 1477.94 C 853.761 1408.78 768.589 1357.74 681.839 1354.89 C 665.606 1354.36 650.499 1353.07 634.466 1350.57 C 633.647 1325.56 634.222 1295.78 634.123 1270.5 L 633.848 1114.44 L 633.939 1002.28 C 633.952 980.001 633.183 956.721 634.999 934.548 C 651.373 734.644 803.973 582.579 1004.24 569.408 z" fill="rgb(104,41,227)" transform="translate(0,0)"></path>
<path d="M 1006.09 717.781 C 1140.5 707.405 1257.91 807.834 1268.5 942.22 C 1279.08 1076.61 1178.83 1194.18 1044.46 1204.97 C 909.801 1215.78 791.916 1115.27 781.309 980.59 C 770.702 845.91 871.398 728.18 1006.09 717.781 z" fill="rgb(255,255,255)" transform="translate(0,0)"></path>
<path d="M 1015.82 828.115 C 1089.92 823.059 1154.05 879.117 1158.94 953.226 C 1163.84 1027.34 1107.64 1091.34 1033.53 1096.08 C 959.631 1100.8 895.861 1044.81 890.98 970.93 C 886.098 897.046 941.948 833.155 1015.82 828.115 z" fill="rgb(104,41,227)" transform="translate(0,0)"></path>
<path d="M 1005.23 313.428 C 1024.12 312.387 1047.87 313.439 1066.77 314.502 C 1105.12 316.526 1143.19 322.173 1180.48 331.366 C 1364.03 378.101 1527.7 515.067 1610.04 684.986 C 1622.93 711.867 1634.17 739.509 1643.69 767.756 C 1672.98 857.503 1690.67 956.299 1773.02 1016.12 L 1773.07 1045.64 L 1773.02 1205.6 C 1773.02 1244.29 1774.33 1291.15 1770.67 1329.13 C 1759.92 1442.22 1710.34 1548.1 1630.34 1628.77 C 1547.34 1711.78 1447.02 1762.08 1329.31 1772.71 C 1293.92 1775.9 1238.34 1773.94 1200.96 1773.9 L 1200.89 1683.23 C 1200.86 1660.4 1199.29 1632.42 1204.51 1610.88 C 1214.27 1570.55 1243.12 1539.45 1283.69 1529.4 C 1301.57 1524.98 1319.47 1523.27 1338.16 1518.45 C 1363.74 1511.84 1388.21 1501.48 1410.76 1487.71 C 1475.24 1448.53 1509.26 1395.1 1526.65 1323.09 C 1587.87 1323.17 1645.55 1268.82 1652.47 1208.68 C 1654.86 1189.02 1652.08 1169.07 1644.4 1150.81 C 1639.6 1139.55 1632.97 1129.6 1625.42 1120.02 C 1592.55 1078.35 1560.4 1036.11 1527.28 994.628 C 1526.81 983.059 1527.67 970.406 1527.56 958.684 C 1527.37 937.959 1526.38 916.28 1523.47 895.762 C 1520.28 862.269 1508.97 822.56 1497.88 790.884 C 1428.16 591.766 1234.5 459.335 1024.57 459.244 C 890.39 459.614 761.959 513.765 668.021 609.578 C 588.825 690.189 539.301 795.272 527.541 907.664 C 522.834 956.935 525.114 1024.48 525.237 1075.65 L 525.058 1318.32 C 443.518 1286.63 363.603 1228.25 307.569 1161.45 C 297.819 1149.83 288.327 1138.95 279.739 1126.41 L 279.886 909.123 C 332.834 879.584 376.043 840.547 399.083 783.768 C 412.95 749.597 423.996 718.412 440.786 684.865 C 468.904 627.657 505.26 574.881 548.694 528.224 C 645.169 423.319 769.858 348.83 910.845 322.885 C 942.797 317.005 972.898 314.779 1005.23 313.428 z" fill="rgb(104,41,227)" transform="translate(0,0)"></path>
<path d="M 634.031 1459.85 C 651.435 1461.77 669.137 1462.81 686.474 1464.56 C 746.433 1470.63 794.759 1501.33 824.684 1553.63 C 850.053 1597.97 848.024 1635.37 847.987 1684.06 L 847.875 1774.15 C 803.448 1773.76 756.313 1776.09 712.485 1771.78 C 688.646 1769.44 657.592 1761.4 634.455 1755.43 L 634.031 1459.85 z" fill="rgb(104,41,227)" transform="translate(0,0)"></path>
<path d="M 279.335 1290.59 C 282.084 1292.22 296.915 1305.83 300.27 1308.79 C 310.607 1317.97 321.352 1326.68 332.473 1334.89 C 394.232 1380.71 452.303 1409.71 525.022 1433.54 L 525.005 1707.58 C 372.767 1626.59 284.656 1459.66 279.335 1290.59 z" fill="rgb(104,41,227)" transform="translate(0,0)"></path>
<path d="M 1769.32 806.428 C 1760.31 787.263 1754.5 761.762 1748.07 741.158 C 1689.98 554.942 1558.16 394.043 1388.27 298.662 C 1379.5 293.737 1369.31 288.663 1361 283.213 L 1360.12 282.627 C 1467.55 300.955 1566.02 353.97 1640.47 433.563 C 1710.33 508.439 1755.19 603.175 1768.85 704.664 C 1772.48 733.006 1773.03 765.765 1772.15 794.54 C 1772.88 801.939 1772.51 807.32 1772.26 814.661 L 1771.29 812.45 C 1770.22 810.019 1769.52 809.09 1769.32 806.428 z" fill="rgb(104,41,227)" transform="translate(0,0)"></path>
<path d="M 1772.15 794.54 C 1772.88 801.939 1772.51 807.32 1772.26 814.661 L 1771.29 812.45 C 1770.22 810.019 1769.52 809.09 1769.32 806.428 C 1772.86 803.382 1771.34 800.998 1772.15 794.54 z" fill="rgb(132,53,239)" transform="translate(0,0)"></path>
<path d="M 684.635 283.194 L 687.54 283.353 C 686.691 284.507 633.853 314.911 627.246 319.134 C 590.667 342.699 556.063 369.197 523.775 398.365 C 443.536 471.73 379.086 560.673 334.355 659.767 C 316.003 699.908 304.833 738.261 282.252 775.869 L 280.359 777.43 L 279.408 776.239 C 278.405 768.269 280.065 742.197 280.756 732.703 C 285.98 653.379 310.785 576.587 352.952 509.196 C 410.564 418.571 495.378 348.502 595.246 309.024 C 626.02 297.062 652.561 290.29 684.635 283.194 z" fill="rgb(104,41,227)" transform="translate(0,0)"></path>
<metadata><recraft-signature>{"signed_by": "recraft", "signature_b64": "I1LqUObSbaD8trRDZkPbfHm+ejktcqoI5HQ3EeD+GTLdVEDXtrnd8VwcHARE1LyIt/Vs2aDNR1A5dy+yQvv7DQ==", "signing_algo": "Ed25519", "generation_timestamp": 1772776576, "identifier": "bcb626e3-c0e7-47b6-acfe-d9b8ebd97255"}</recraft-signature></metadata></svg>