<svg xmlns="http://www.w3.org/2000/svg" height="1024" preserveAspectRatio="none" style="display: block;" version="1.1" viewBox="0 0 2048 2048" width="1024">
<path d="M 0 0 L 2048 0 L 2048 2048 L 0 2048 L 0 0 z" fill="rgb(255,255,255)" transform="translate(0,0)"></path>
<path d="M 1769.25 1550.35 C 1726.83 1657.29 1662.63 1754.27 1537.63 1768.83 C 1516.58 1771.28 1492.43 1770.15 1471.03 1770.35 C 1428.45 1770.73 1385.87 1770.88 1343.29 1770.79 L 975.059 1770.84 L 649.24 1770.61 L 560.467 1770.35 C 536.872 1770.28 511.772 1770.8 488.504 1767.59 C 446.409 1761.79 406.764 1744.36 374.017 1717.29 C 324.133 1676.58 292.194 1620.12 285.616 1555.65 C 283.174 1531.71 284.082 1501.3 284.075 1476.78 L 284.084 1354.64 L 284.075 964.019 L 284.092 662.726 L 284.062 576.746 C 284.057 553.878 283.234 527.805 286.673 505.381 C 293.277 462.314 311.383 423.805 338.697 390.303 C 381.17 338.208 441.412 305.849 508.382 299.652 C 528.895 297.754 552.55 298.434 573.478 298.49 L 665.902 298.676 C 704.485 298.718 757.229 297.107 794.61 299.477 C 902.109 305.521 1004.73 346.332 1087.03 415.761 C 1192.26 501.628 1258.71 626.075 1271.52 761.292 C 1282.62 895.933 1239.69 1029.46 1152.2 1132.4 C 1066.29 1235.38 935.782 1305.19 801.972 1317.25 C 801.605 1318.14 801.67 1317.83 801.632 1318.29 C 802.054 1318.89 809.139 1319.62 810.43 1319.9 C 827.367 1320.37 856.981 1324.96 874.028 1328.09 C 1017.19 1354.33 1129.2 1431.33 1211.28 1550.27 C 1235.38 1551.06 1261.53 1550.65 1285.74 1550.67 L 1444.66 1550.11 L 1769.25 1550.35 z" fill="rgb(112,17,212)" transform="translate(0,0)"></path>
<path d="M 787.422 1319.3 C 791.346 1318.52 798.119 1316.93 801.972 1317.25 C 801.605 1318.14 801.67 1317.83 801.632 1318.29 C 802.054 1318.89 809.139 1319.62 810.43 1319.9 C 802.131 1320.31 795.684 1319.82 787.422 1319.3 z" fill="rgb(175,107,230)" transform="translate(0,0)"></path>
<path d="M 776.306 324.467 C 775.953 322.736 775.711 318.823 776.797 317.365 C 777.135 317.416 777.533 317.388 777.544 317.656 C 778.122 331.555 778.654 368.558 777.15 380.331 L 777.448 954.085 L 777.331 1135.52 L 777.3 1196 C 777.297 1204.51 777.713 1218.72 777.161 1226.79 C 779.113 1246.13 777.585 1280.16 778.033 1300.57 L 775.829 1298.19 C 776.111 1293.12 775.145 1290.59 775.31 1286.1 C 760.481 1166.94 718.482 1066.08 637.672 975.68 C 556.445 884.81 435.528 817.958 311.577 812.943 L 311.069 810.404 C 433.859 793.768 531.559 749.456 621.091 662.436 C 695.014 589.442 745.74 496.248 766.91 394.54 C 769.761 380.511 774.687 350.905 774.885 336.882 C 775.196 332.474 775.878 328.811 776.306 324.467 z" fill="rgb(255,255,255)" transform="translate(0,0)"></path>
<path d="M 777.161 1226.79 C 779.113 1246.13 777.585 1280.16 778.033 1300.57 L 775.829 1298.19 C 776.111 1293.12 775.145 1290.59 775.31 1286.1 C 778.71 1280.39 775.871 1238.77 777.161 1226.79 z" fill="rgb(238,202,253)" transform="translate(0,0)"></path>
<path d="M 776.306 324.467 C 775.953 322.736 775.711 318.823 776.797 317.365 C 777.135 317.416 777.533 317.388 777.544 317.656 C 778.122 331.555 778.654 368.558 777.15 380.331 C 776.76 370.815 776.492 344.574 777.15 334.989 L 774.885 336.882 C 775.196 332.474 775.878 328.811 776.306 324.467 z" fill="rgb(144,58,227)" transform="translate(0,0)"></path>
<path d="M 776.306 324.467 C 776.881 328.581 777.027 330.835 777.15 334.989 L 774.885 336.882 C 775.196 332.474 775.878 328.811 776.306 324.467 z" fill="rgb(217,162,243)" transform="translate(0,0)"></path>
<path d="M 341.545 1317.86 C 388.054 1318.55 434.569 1318.81 481.082 1318.65 L 776.338 1318.89 L 777.459 1320.22 C 778.419 1345.71 777.683 1376.15 777.622 1402.06 L 777.206 1550.19 L 686.774 1550.93 C 675.283 1531.32 664.799 1514.11 650.779 1496.13 C 590.576 1418.87 507.164 1362.97 412.816 1336.65 C 380.135 1327.49 352.884 1323.13 319.5 1318.99 C 327.061 1317.49 333.733 1318.18 341.545 1317.86 z" fill="rgb(255,255,255)" transform="translate(0,0)"></path>
<path d="M 319.5 1318.99 C 317.981 1319.37 298.678 1319.65 297.64 1319.1 L 297.613 1318.85 C 301.301 1316.52 335.642 1316.74 341.545 1317.86 C 333.733 1318.18 327.061 1317.49 319.5 1318.99 z" fill="rgb(144,58,227)" transform="translate(0,0)"></path>
<path d="M 296.479 812.388 C 300.296 811.794 303.658 811.294 307.484 810.835 L 311.069 810.404 L 311.577 812.943 C 305.929 813.138 302.006 812.8 296.479 812.388 z" fill="rgb(217,162,243)" transform="translate(0,0)"></path>
<path d="M 776.874 1306.94 L 778.104 1307.01 C 778.295 1312.58 777.838 1314.9 777.459 1320.22 L 776.338 1318.89 C 778.002 1316.73 776.782 1310.31 776.874 1306.94 z" fill="rgb(144,58,227)" transform="translate(0,0)"></path>
<path d="M 775.829 1298.19 L 778.033 1300.57 C 777.974 1302.86 778.012 1304.72 778.104 1307.01 L 776.874 1306.94 C 776.488 1303.88 776.105 1301.31 775.829 1298.19 z" fill="rgb(175,107,230)" transform="translate(0,0)"></path>
<path d="M 1501.69 819.341 C 1639.65 815.791 1754.29 924.912 1757.54 1062.88 C 1760.8 1200.85 1651.43 1315.25 1513.46 1318.21 C 1375.9 1321.16 1261.92 1212.2 1258.67 1074.65 C 1255.43 937.097 1364.15 822.88 1501.69 819.341 z" fill="rgb(112,17,212)" transform="translate(0,0)"></path>
<path d="M 1256.33 297.129 L 1509.01 297.043 C 1574.41 296.623 1637.19 322.703 1683.04 369.337 C 1764.66 451.999 1754.81 530.712 1754.94 635.583 L 1754.63 810.899 C 1753.77 810.913 1752.9 810.911 1752.04 810.893 C 1617.9 809.126 1490.08 753.608 1397.22 656.783 C 1300.36 557.526 1254.81 435.006 1256.33 297.129 z" fill="rgb(112,17,212)" transform="translate(0,0)"></path>
<metadata><recraft-signature>{"signed_by": "recraft", "signature_b64": "Unegyho9xF0E0nozqPBTyc1DomAl9YJIhF8CBHDJ68xr9kBThrwGfvV+uSOACQ4bgOzcWTL5mJMERF+XqQfqAg==", "signing_algo": "Ed25519", "generation_timestamp": 1772776494, "identifier": "88bd7ce1-20ad-4750-ac34-68338ee84499"}</recraft-signature></metadata></svg>