<svg xmlns="http://www.w3.org/2000/svg" height="1024" preserveAspectRatio="none" style="display: block;" version="1.1" viewBox="0 0 2048 2048" width="1024">
<path d="M 0 0 L 2048 0 L 2048 2048 L 0 2048 L 0 0 z" fill="rgb(255,255,255)" transform="translate(0,0)"></path>
<path d="M 1269.6 315.918 C 1401.09 315.777 1518.96 355.662 1617.02 445.318 C 1715.26 533.933 1774.95 657.445 1783.34 789.474 C 1785.23 821.429 1784.49 860.309 1784.57 892.714 L 1784.7 1071.32 L 1784.46 1219.9 C 1784.36 1251.31 1784.98 1286.18 1782.74 1317.23 C 1777.53 1383.38 1758.88 1447.76 1727.93 1506.46 C 1708.74 1544.2 1684.85 1579.37 1656.84 1611.12 C 1564.92 1714.61 1435.39 1776.98 1297.17 1784.33 C 1264.4 1786.14 1224.86 1785.14 1191.65 1785.1 L 1014.37 1785.04 L 864.624 1785.14 C 822.84 1785.19 781.792 1786.02 740.126 1782.53 C 612.338 1771.84 491.858 1712.76 405.521 1617.74 C 326.538 1530.47 279.88 1418.75 273.335 1301.23 C 271.788 1270.49 272.342 1233.65 272.292 1202.56 L 272.422 1021.03 L 272.519 890.12 C 272.528 856.424 271.285 814.6 274.18 781.575 C 284.489 663.982 330.669 563.804 409.295 476.631 C 497.404 380.773 619.571 323.262 749.591 316.432 C 757.986 315.766 771.128 316.067 779.877 315.994 C 728.782 369.451 703.29 418.018 690.783 491.185 C 643.046 507.111 611.194 524.083 572.244 555.558 C 496.174 617.029 451.505 706.189 442.463 803.09 C 439.6 833.778 441.114 869.105 441.103 900.141 L 441.005 1060.53 L 440.926 1205.81 C 440.927 1236.78 439.881 1274.11 443.67 1304.22 C 448.914 1346.12 461.238 1386.83 480.116 1424.6 C 521.089 1504.78 597.611 1570.58 683.362 1598.33 C 709.746 1606.89 737.013 1612.44 764.644 1614.87 C 795.942 1617.4 841.487 1616.14 873.836 1616.26 L 1073.26 1616.51 L 1212.63 1616.29 C 1243.56 1616.24 1279.54 1617.24 1309.78 1613.42 C 1349.89 1608.33 1388.81 1596.31 1424.81 1577.9 C 1509.29 1534.13 1572.72 1458.33 1600.91 1367.45 C 1609.17 1341.98 1614.33 1315.61 1616.28 1288.9 C 1618.56 1259.86 1617.74 1218.08 1617.64 1188.52 L 1617.1 1031.94 L 1617.25 891.004 C 1617.31 855.499 1618.55 820.745 1613.9 785.516 C 1608.41 743.469 1595.58 702.713 1576.01 665.099 C 1542.73 601.206 1484.41 545.708 1420.27 513.079 C 1401.49 503.53 1380.67 497.049 1360.57 490.709 C 1346.01 416.31 1321.55 370.252 1269.6 315.918 z" fill="rgb(99,18,202)" transform="translate(0,0)"></path>
<path d="M 691.387 584.651 C 693.332 589.365 696.619 613.089 698.615 620.905 C 709.821 664.795 728.63 704.928 757.735 739.855 C 729.02 786.077 713.326 849.28 713.486 903.419 C 713.725 984.801 745.595 1058.29 797.978 1119.68 C 806.135 1129.24 817.736 1140.25 826.818 1149.28 C 827.156 1221.29 825.751 1292.68 826.658 1365.03 L 1109.08 1365.2 C 1109.06 1335.1 1109.22 1305 1109.58 1274.9 C 1128.61 1274.53 1149.61 1274.51 1168.82 1274.58 C 1207.39 1274.72 1234.72 1275.81 1264.6 1247.3 C 1298.89 1214.57 1292.12 1165.96 1292 1121.04 L 1379.25 1121 C 1351.03 1060.94 1320.74 995.094 1294.62 934.312 C 1307.66 869.459 1299.38 811.244 1278.23 749.585 C 1319.51 709.657 1348.52 645.891 1358.75 589.803 C 1417.9 656.73 1452.21 761.776 1458.9 849.601 C 1459.38 883.563 1458.48 900.754 1454.33 934.863 C 1459.16 944.345 1464.61 958.578 1468.79 968.61 C 1477.49 989.466 1486.07 1010.37 1494.54 1031.32 C 1518.67 1091.53 1543.48 1151.47 1568.95 1211.13 C 1524.98 1211.82 1480.16 1210.64 1436.65 1211.76 C 1435.7 1230.82 1436.77 1250.89 1435.55 1269.6 C 1432.84 1309.57 1415.89 1347.24 1387.78 1375.78 C 1360.68 1403.37 1323.47 1422.83 1284.84 1426.48 C 1272.38 1427.65 1254.54 1427.43 1241.62 1427.55 C 1240.61 1457.68 1241.22 1490.94 1241.29 1521.17 L 667.656 1521.08 L 667.759 1331.5 C 667.818 1289.89 668.41 1247.07 667.583 1205.55 C 584.092 1104.47 541.773 997.847 552.342 865.002 C 560.732 759.557 610.241 653.596 691.387 584.651 z" fill="rgb(99,18,202)" transform="translate(0,0)"></path>
<path d="M 1023.2 296.972 C 1155.22 295.315 1263.68 400.805 1265.69 532.817 C 1267.7 664.829 1162.5 773.57 1030.49 775.932 C 897.988 778.303 788.745 672.619 786.728 540.107 C 784.711 407.596 890.687 298.636 1023.2 296.972 z" fill="rgb(99,18,202)" transform="translate(0,0)"></path>
<metadata><recraft-signature>{"signed_by": "recraft", "signature_b64": "449CEgQSFPM0WiYyRormwQnKmdiNKLw6y6vFYwIccX93vZ65m/SFPHNSuZTWAXLR00/B/to0WU6U2q62LqBgCQ==", "signing_algo": "Ed25519", "generation_timestamp": 1772776514, "identifier": "ea082c04-b187-461c-9645-2eb5c292624b"}</recraft-signature></metadata></svg>