<svg xmlns="http://www.w3.org/2000/svg" height="1024" preserveAspectRatio="none" style="display: block;" version="1.1" viewBox="0 0 2048 2048" width="1024">
<path d="M 0 0 L 976.491 0 L 1054.71 0 L 2048 0 L 2048 961.451 L 2048 1085.07 L 2048 2048 L 1082.54 2048 L 1016.36 2048 L 970.367 2048 L 0 2048 L 0 1088.85 L 0 967.192 L 0 0 z" fill="rgb(0,0,0)" transform="translate(0,0)"></path>
<path d="M 671.579 396.119 C 675.404 414.896 679.2 433.346 685.86 451.379 C 739.272 596.011 864.427 678.64 1016.67 678.806 C 1015.99 793.656 1015.95 908.508 1016.53 1023.36 C 1070.69 1025.27 1130.77 1024.06 1185.4 1024.06 L 1498.55 1023.94 L 1607.96 1024.05 C 1668.6 1024.02 1706.13 1021.87 1765.85 1037.42 C 1843.62 1057.84 1913.97 1099.96 1968.71 1158.84 C 1998.59 1190.97 2011.29 1210.54 2033.84 1247 C 2041.27 1193.25 2045.73 1139.12 2047.19 1084.88 L 2048 1085.07 L 2048 2048 L 1082.54 2048 L 1016.36 2048 L 970.367 2048 C 962.359 2046.67 944.065 2046.18 935.169 2045.67 C 914.421 2044.51 893.693 2043.02 872.993 2041.2 C 803.729 2035.73 734.916 2025.56 667.029 2010.77 L 667.161 1382.21 C 668.371 1364.23 665.617 1284.71 669.255 1275.23 C 677.668 1297.05 689.792 1317.24 705.093 1334.91 C 738.221 1372.98 785.154 1396.28 835.506 1399.65 C 886.624 1402.99 934.564 1384.42 972.722 1350.78 C 1011.47 1316.59 1034.93 1268.33 1037.88 1216.75 C 1040.65 1165.71 1022.97 1115.68 988.743 1077.72 C 957.075 1041.86 913.374 1018.85 865.894 1013.02 C 855.227 1011.81 838.048 1013.53 829.593 1011.84 C 708.611 987.579 588.089 911.526 510.329 821.276 C 618.185 705.143 662.057 581.061 669.136 424.517 C 670.856 415.197 668.559 401.376 671.579 396.119 z" fill="rgb(254,131,36)" transform="translate(0,0)"></path>
<path d="M 1341 1379.5 L 1694.78 1379.85 C 1695.18 1485.05 1669.36 1580.41 1622.68 1674.26 C 1547.12 1825.45 1419.89 1944.58 1264.06 2010.04 C 1232.77 2023.42 1205.24 2030.67 1173.9 2041.22 C 1148.17 2044.21 1122.27 2045.38 1096.41 2046.78 C 1091.77 2047.03 1087.12 2047.16 1082.54 2048 L 1016.36 2048 C 1016.19 2034.84 1016.23 2021.47 1016.33 2008.29 C 1017.04 1909.61 1015.39 1810.71 1016.58 1712.05 C 1095.17 1711.7 1177.51 1671.66 1234.22 1618.23 C 1300.7 1556.41 1339.23 1470.26 1341 1379.5 z" fill="rgb(0,0,0)" transform="translate(0,0)"></path>
<path d="M 2047.19 1084.88 L 2048 1085.07 L 2048 2048 L 1082.54 2048 C 1087.12 2047.16 1091.77 2047.03 1096.41 2046.78 C 1122.27 2045.38 1148.17 2044.21 1173.9 2041.22 C 1179.61 2044.18 1253.48 2032.65 1263.86 2031.25 C 1447.85 2006.21 1632.55 1947.95 1771.01 1819.05 C 1849 1746.44 1902.24 1669.5 1945.32 1572.91 C 1991.51 1469.51 2021.37 1359.56 2033.84 1247 C 2041.27 1193.25 2045.73 1139.12 2047.19 1084.88 z" fill="rgb(238,237,237)" transform="translate(0,0)"></path>
<path d="M 1054.71 0 L 2048 0 L 2048 961.451 L 2048 1085.07 L 2047.19 1084.88 C 2044.33 1082.15 2033.23 1082.72 2028.11 1082.4 C 2003.2 1080.85 1978.73 1078.27 1954.44 1072.3 C 1893.83 1057.29 1838.44 1026.06 1794.23 981.951 C 1738.66 927.219 1703.99 854.775 1696.22 777.168 C 1693.7 749.782 1694.86 706.636 1694.83 678.067 C 1647.82 680.055 1592.81 678.851 1545.3 678.88 L 1274.53 678.776 C 1268.87 677.596 1240.35 677.941 1232.46 677.918 L 1118.5 677.965 C 1108.12 678.023 1059.86 680.084 1053.6 676.319 C 1091.64 671.091 1117.66 664.323 1153.03 648.216 C 1232.85 611.035 1294.8 543.896 1325.46 461.349 C 1358.67 373.434 1355.28 275.882 1316.05 190.484 C 1285.25 122.916 1228.27 64.7043 1161.51 31.9621 C 1139.35 21.0983 1126.78 18.4706 1104.9 10.275 C 1095.41 8.47495 1082.43 5.43238 1073.14 2.85421 C 1068.57 2.91592 1059.18 0.958707 1054.71 0 z" fill="rgb(254,131,36)" transform="translate(0,0)"></path>
<path d="M 1054.71 0 L 2048 0 L 2048 961.451 C 2046.68 954.095 2046.24 939.143 2045.8 931.327 C 2044.96 914.453 2043.78 897.597 2042.26 880.77 C 2036.36 818.536 2026.16 737.781 2012.61 677.29 C 2011.03 671.766 2009.74 665.614 2008.38 659.98 C 1979.49 540.1 1934.76 423.477 1857.75 325.727 C 1852.44 316.868 1820.87 280.359 1812.75 271.723 C 1749.57 204.523 1661.46 139.174 1577.16 101.326 C 1441.77 40.5357 1268.46 10.6012 1121.05 3.94292 C 1115.3 4.52835 1111.41 4.23434 1105.5 4.26582 C 1101.97 4.46394 1097.03 3.33485 1093.73 4.92891 C 1093.69 4.94687 1093.62 5.22279 1093.66 5.27843 C 1095.32 7.17932 1098.41 6.51251 1100.73 7.62445 C 1103.49 8.94342 1104.06 7.16907 1104.9 10.275 C 1095.41 8.47495 1082.43 5.43238 1073.14 2.85421 C 1068.57 2.91592 1059.18 0.958707 1054.71 0 z" fill="rgb(238,237,237)" transform="translate(0,0)"></path>
<path d="M 1073.14 2.85421 C 1078.99 1.08223 1115.3 2.8667 1121.05 3.94292 C 1115.3 4.52835 1111.41 4.23434 1105.5 4.26582 C 1101.97 4.46394 1097.03 3.33485 1093.73 4.92891 C 1093.69 4.94687 1093.62 5.22279 1093.66 5.27843 C 1095.32 7.17932 1098.41 6.51251 1100.73 7.62445 C 1103.49 8.94342 1104.06 7.16907 1104.9 10.275 C 1095.41 8.47495 1082.43 5.43238 1073.14 2.85421 z" fill="rgb(249,140,72)" transform="translate(0,0)"></path>
<path d="M 1695.51 326.146 C 1749.18 325.09 1803.97 325.807 1857.75 325.727 C 1934.76 423.477 1979.49 540.1 2008.38 659.98 C 2009.74 665.614 2011.03 671.766 2012.61 677.29 L 1695.18 677.356 L 1695.51 326.146 z" fill="rgb(0,0,0)" transform="translate(0,0)"></path>
<path d="M 0 0 L 976.491 0 C 964.544 2.51184 951.614 4.06654 939.473 5.77579 C 932.275 4.40708 907.053 6.12017 898.739 6.60029 C 821.252 11.1735 744.239 21.7849 668.402 38.3378 C 637.683 45.8098 605.066 53.1324 574.898 62.0125 C 507.886 81.4837 443.933 110.25 384.906 147.473 C 368.449 157.679 330.92 183.126 317.006 195.695 C 189.254 297.311 112.141 423.35 62.8127 578.468 C 52.7763 610.029 44.8644 643.683 36.5671 675.817 C 22.2428 743.105 14.4842 797.099 8.21119 865.67 C 6.22502 887.636 4.48393 909.623 2.98825 931.627 C 2.43128 939.56 1.44344 959.948 0 967.192 L 0 0 z" fill="rgb(238,237,237)" transform="translate(0,0)"></path>
<path d="M 0 1088.85 L 0.138536 1089.83 C 1.62895 1101.03 2.1465 1117.67 2.99158 1129.48 C 4.81697 1155.97 7.07154 1182.43 9.7544 1208.84 C 22.7148 1328 53.2022 1467.62 103.01 1577.08 C 109.041 1591.42 118.462 1608.69 125.898 1622.68 C 172.251 1711.38 236.98 1789.17 315.771 1850.89 C 328.252 1862.59 350.588 1877.98 365.206 1887.78 C 434.057 1933.93 509.951 1966.18 588.983 1990.37 C 616.643 1998.83 640.297 2003.62 667.029 2010.77 C 734.916 2025.56 803.729 2035.73 872.993 2041.2 C 893.693 2043.02 914.421 2044.51 935.169 2045.67 C 944.065 2046.18 962.359 2046.67 970.367 2048 L 0 2048 L 0 1088.85 z" fill="rgb(238,237,237)" transform="translate(0,0)"></path>
<path d="M 36.5671 675.817 C 44.8644 643.683 52.7763 610.029 62.8127 578.468 C 112.141 423.35 189.254 297.311 317.006 195.695 L 316.85 197.297 C 315.232 214.675 315.961 240.926 315.966 259.04 L 316.002 356.455 C 316.009 382.496 316.817 411.681 313.988 437.244 C 306.626 505.887 273.297 569.118 220.827 613.984 C 171.313 655.728 104.626 681.96 39.3471 676.084 C 38.4199 676.001 37.4932 675.912 36.5671 675.817 z" fill="rgb(254,131,36)" transform="translate(0,0)"></path>
<path d="M 103.01 1577.08 C 137.933 1531.82 172.566 1481.32 206.756 1434.74 C 242.636 1386.52 279.108 1338.76 316.162 1291.44 L 315.771 1850.89 C 236.98 1789.17 172.251 1711.38 125.898 1622.68 C 118.462 1608.69 109.041 1591.42 103.01 1577.08 z" fill="rgb(254,131,36)" transform="translate(0,0)"></path>
<path d="M 668.402 38.3378 C 744.239 21.7849 821.252 11.1735 898.739 6.60029 C 907.053 6.12017 932.275 4.40708 939.473 5.77579 C 919.81 10.4372 905.6 13.5539 886.349 20.4616 C 815.896 45.7429 756.126 94.2172 716.844 157.933 C 690.862 199.773 682.251 228.983 671.885 275.888 L 668.906 274.692 L 668.766 127.602 C 668.751 98.6654 669.357 67.0486 668.402 38.3378 z" fill="rgb(254,131,36)" transform="translate(0,0)"></path>
<path d="M 1035.99 677.924 C 1041.82 677.255 1047.75 676.421 1053.6 676.319 C 1059.86 680.084 1108.12 678.023 1118.5 677.965 L 1232.46 677.918 C 1240.35 677.941 1268.87 677.596 1274.53 678.776 C 1265 679.079 1255.62 678.978 1246.1 678.982 C 1178.25 679.008 1110.2 678.231 1042.37 679.214 C 1040.23 678.765 1038.14 678.317 1035.99 677.924 z" fill="rgb(146,79,40)" transform="translate(0,0)"></path>
<path d="M 667.161 1382.21 C 666.199 1360.78 667.347 1336.26 666.964 1314.52 C 666.798 1305.15 666.436 1279.76 667.541 1271.75 L 668.231 1271.76 L 669.255 1275.23 C 665.617 1284.71 668.371 1364.23 667.161 1382.21 z" fill="rgb(189,98,42)" transform="translate(0,0)"></path>
<path d="M 668.737 386.761 C 669.565 387.718 670.407 388.664 671.262 389.597 C 671.084 392.343 671.345 393.41 671.579 396.119 C 668.559 401.376 670.856 415.197 669.136 424.517 C 668.743 412.844 669.68 397.926 668.737 386.761 z" fill="rgb(189,98,42)" transform="translate(0,0)"></path>
<path d="M 668.667 278.958 L 668.896 280.476 C 669.223 282.721 668.507 283.942 670.753 284.84 C 670.876 289.491 669.266 297.201 668.483 301.907 C 668.105 294.425 667.724 286.419 668.667 278.958 z" fill="rgb(146,79,40)" transform="translate(0,0)"></path>
<path d="M 1042.37 679.214 C 1039.86 679.681 1025.76 680.88 1024.93 679.167 L 1025.06 678.849 L 1025.15 678.984 L 1025.36 679.018 C 1027.14 677.42 1033.5 677.78 1035.99 677.924 C 1038.14 678.317 1040.23 678.765 1042.37 679.214 z" fill="rgb(46,26,19)" transform="translate(0,0)"></path>
<path d="M 668.906 274.692 L 671.885 275.888 C 671.579 278.925 671.064 281.738 670.753 284.84 C 668.507 283.942 669.223 282.721 668.896 280.476 L 668.667 278.958 C 668.766 277.501 668.86 276.154 668.906 274.692 z" fill="rgb(249,140,72)" transform="translate(0,0)"></path>
<path d="M 668.737 386.761 C 668.813 385.232 668.747 382.999 669.311 381.623 L 669.495 381.489 C 670.436 382.551 671.037 388.003 671.262 389.597 C 670.407 388.664 669.565 387.718 668.737 386.761 z" fill="rgb(46,26,19)" transform="translate(0,0)"></path>
<metadata><recraft-signature>{"signed_by": "recraft", "signature_b64": "A/xWpewI5clLkgdx5Y4DwDabDxIGwsNX5jsXUcQl9mhE6o8vvovHx0rVzv6eb6KSYCjDp2kkfvQQXWN5f8EaCQ==", "signing_algo": "Ed25519", "generation_timestamp": 1772776618, "identifier": "ef1a7acb-d780-4598-ae26-9a4faeaa3e3e"}</recraft-signature></metadata></svg>