<svg xmlns="http://www.w3.org/2000/svg" height="1024" preserveAspectRatio="none" style="display: block;" version="1.1" viewBox="0 0 2048 2048" width="1024">
<path d="M 0 0 L 2048 0 L 2048 2048 L 0 2048 L 0 0 z" fill="rgb(255,255,255)" transform="translate(0,0)"></path>
<path d="M 326.28 857.634 C 307.978 810.087 298.779 759.522 299.162 708.575 C 298.426 597.812 342.699 491.497 421.835 413.995 C 470.042 366.002 535.171 328.774 600.988 310.937 C 662.473 294.274 719.823 297.334 783.002 297.328 L 934.564 297.277 L 1442.69 297.577 C 1462.96 297.551 1481.95 297.592 1502.15 300.375 C 1566.39 309.501 1625.91 339.253 1671.77 385.148 C 1718.72 433.076 1748.27 495.343 1755.71 562.021 C 1758.59 587.852 1758 614.682 1758.02 640.72 C 1723.1 639.753 1682.77 639.733 1647.85 640.283 C 1642.37 640.395 1628.69 640.127 1624.24 642.022 C 1653 680.809 1682.09 719.362 1711.48 757.675 C 1725.07 775.492 1746.18 801.632 1757.68 819.678 C 1759.47 855.944 1758.16 906.07 1758.19 943.011 L 1758.08 1181.64 L 1758.05 1369.14 C 1758.05 1401.92 1759.34 1444.6 1756.93 1476.39 C 1755.24 1500.64 1750.52 1524.58 1742.88 1547.65 C 1717.39 1626 1661.88 1691.06 1588.52 1728.57 C 1553.91 1745.8 1516.47 1756.64 1478.01 1760.58 C 1457.63 1762.55 1436.97 1762.15 1416.5 1762.16 L 1338.92 1762.19 L 1087.92 1762.34 L 780.584 1762.32 L 688.652 1762.11 C 664.729 1762.07 640.695 1762.42 616.834 1760.76 C 588.374 1758.72 560.288 1753.07 533.246 1743.97 C 349.532 1681.87 258.094 1499.63 320.672 1316.08 C 298.611 1263.11 295.857 1197.75 308.541 1141.99 C 312.438 1124.86 317.995 1110.62 323.258 1094.07 C 293.325 1006.97 292.358 944.547 326.28 857.634 z" fill="rgb(0,0,0)" transform="translate(0,0)"></path>
<path d="M 1448.44 407.551 C 1451.07 407.492 1453.71 407.459 1456.34 407.452 C 1508.89 407.358 1554.95 422.854 1592.56 460.747 C 1622.85 491.52 1641.9 531.589 1646.65 574.505 C 1648.58 593.723 1647.86 620.452 1647.85 640.283 C 1642.37 640.395 1628.69 640.127 1624.24 642.022 C 1607.11 623.024 1591.64 597.831 1575.68 577.415 C 1532.09 521.652 1492.23 463.137 1448.44 407.551 z" fill="rgb(252,120,32)" transform="translate(0,0)"></path>
<path d="M 802.548 406.5 L 1312.46 406.983 C 1332.81 432.462 1352.8 460.863 1372.55 487.066 L 1486.46 638.019 L 1555.93 730.081 C 1569.96 748.826 1584.8 767.913 1597.29 787.654 C 1554.95 788.859 1509.47 788.178 1466.8 788.533 C 1414.63 722.071 1364.66 654.266 1312.66 587.738 C 1295.86 566.255 1278.27 540.607 1260.96 520.24 C 1232.33 518.969 1191.06 520.636 1161.53 520.768 L 972.25 520.987 L 798.914 520.703 C 705.693 520.319 636.499 508.55 567.526 586.099 C 480.252 693.651 523.355 850.706 660.334 888.515 C 693.052 897.546 744.958 894.586 780.276 894.564 L 933.448 894.314 C 957.76 929.796 985.791 968.967 1011.2 1003.71 L 1008.14 1003.75 L 818.984 1004.1 L 747.247 1004.19 C 713.695 1004.22 682.61 1004.72 649.717 997.357 C 511.936 966.513 411.356 851.308 410.402 707.876 C 407.371 562.177 522.379 427.285 667.465 409.682 C 709.484 404.584 759.666 406.665 802.548 406.5 z" fill="rgb(252,120,32)" transform="translate(0,0)"></path>
<path d="M 411.902 1215.54 C 418.523 1219.65 439.737 1239.47 450.325 1247.08 C 495.876 1280.32 547.49 1304.32 602.258 1317.73 C 667.757 1334.39 735.366 1330.29 802.804 1330.28 L 992.625 1330.25 L 1647.91 1330.39 L 1648.01 1438.22 L 961.981 1438.27 L 758.301 1438.34 C 723.002 1438.36 666.019 1440.11 633.289 1435.17 C 584.135 1428.02 537.811 1407.77 499.176 1376.56 C 448.352 1334.65 418.207 1281.07 411.902 1215.54 z" fill="rgb(252,120,32)" transform="translate(0,0)"></path>
<path d="M 411.747 1441.61 C 415.494 1444.22 420.013 1448.35 423.566 1451.37 C 482.526 1501.53 559.568 1538.85 637.514 1544.33 C 668.951 1546.54 706.505 1545.03 738.551 1545.03 L 912.383 1545.03 L 1623.29 1544.52 C 1612.56 1567.47 1594.55 1588.96 1575.68 1605.7 C 1519.63 1650.23 1480.39 1653.39 1412.74 1653.33 L 1332.75 1653.17 L 1072.33 1653.03 L 780.389 1653.18 L 687.318 1653.25 C 664.202 1653.23 638.342 1653.88 615.663 1650.64 C 574.67 1644.77 530.907 1626.75 498.132 1601.28 C 462.185 1573.35 432.65 1528.42 419.815 1484.8 C 415.559 1470.34 413.663 1456.42 411.747 1441.61 z" fill="rgb(252,120,32)" transform="translate(0,0)"></path>
<path d="M 411.638 986.48 C 421.552 994.652 431.619 1005.42 442.347 1014.23 C 485.273 1049.84 534.715 1076.77 587.92 1093.5 C 665.392 1117.86 719.231 1113.25 799.515 1113.29 L 962.629 1113.29 L 1369.79 1113.38 C 1369.21 1148.94 1369.88 1186.22 1369.98 1221.91 L 888.96 1221.76 L 756.82 1221.73 C 720.338 1221.71 681.702 1223.16 646.044 1216.65 C 593.195 1207 545.368 1187.86 503.772 1153.15 C 449.62 1107.96 418.766 1056.3 411.638 986.48 z" fill="rgb(252,120,32)" transform="translate(0,0)"></path>
<path d="M 1453.43 894.507 C 1518.28 893.974 1583.13 893.909 1647.98 894.314 L 1647.95 1003.69 C 1625.13 1004.35 1600.46 1004.04 1577.5 1004.11 L 1465.37 1003.91 C 1456.41 990.32 1442.79 974.723 1432.89 961.142 C 1416.74 938.965 1399.99 916.969 1383.84 894.822 C 1406.51 894.262 1430.66 894.572 1453.43 894.507 z" fill="rgb(252,120,32)" transform="translate(0,0)"></path>
<path d="M 1066.41 894.309 L 1249.65 894.74 C 1261.85 912.85 1276.01 930.374 1288.88 948.016 C 1302.29 966.408 1315.58 984.833 1329.07 1003.19 C 1315.02 1004.74 1280.82 1003.96 1265.33 1003.99 L 1143.75 1003.91 C 1139.16 998.726 1134.17 992.052 1130.33 986.251 C 1109.8 955.157 1087.27 925.094 1066.41 894.309 z" fill="rgb(252,120,32)" transform="translate(0,0)"></path>
<path d="M 1482.97 1113.24 L 1647.97 1113.58 L 1647.99 1221.88 L 1482.95 1221.8 L 1482.97 1113.24 z" fill="rgb(252,120,32)" transform="translate(0,0)"></path>
<metadata><recraft-signature>{"signed_by": "recraft", "signature_b64": "vMzGuNia8Z5cqCEha4fvJVlCpYd69GlNDhuDAkHDGV0CnvKb22LpMTaCybKcvnU1sF+7olz/976msVndj9O4CA==", "signing_algo": "Ed25519", "generation_timestamp": 1772776660, "identifier": "734a8a40-e824-42ea-a028-07049683fc43"}</recraft-signature></metadata></svg>