<svg xmlns="http://www.w3.org/2000/svg" height="1024" preserveAspectRatio="none" style="display: block;" version="1.1" viewBox="0 0 2048 2048" width="1024">
<path d="M 0 0 L 2048 0 L 2048 2048 L 0 2048 L 0 0 z" fill="rgb(255,255,255)" transform="translate(0,0)"></path>
<path d="M 1321.05 883.289 C 1329.73 882.258 1341.26 882.935 1350.12 883.4 L 1350.13 884.556 C 1350.93 955.379 1349.2 1026.53 1350.07 1097.37 C 1350.3 1116.06 1351.74 1134.15 1337.19 1148.05 C 1326.27 1158.48 1313.3 1161.77 1298.75 1161.46 C 1287.11 1160.79 1277.73 1158.98 1267.01 1154.5 C 1265.14 1109.29 1266.35 1062.1 1265.82 1016.66 C 1266.44 989.512 1264.37 961.718 1266.58 934.674 C 1269.04 904.713 1294.23 887.942 1321.05 883.289 z" fill="rgb(7,143,102)" transform="translate(0,0)"></path>
<path d="M 1363.07 285.908 C 1387.77 286.14 1418.92 292.212 1442.67 298.565 C 1444.14 358.395 1441.81 418.797 1442.71 478.697 C 1443.03 500.151 1446.88 525.056 1432.53 542.09 C 1412.89 557.06 1386.64 556.061 1364.12 548.381 C 1362.59 508.366 1363.19 467.602 1363.24 427.491 C 1362.93 380.298 1362.88 333.102 1363.07 285.908 z" fill="rgb(7,143,102)" transform="translate(0,0)"></path>
<path d="M 1422.25 1187.25 L 1424.88 1187.37 C 1427.48 1191.89 1425.75 1328.77 1425.75 1345.86 L 1426.03 1401.03 C 1426.15 1420.14 1429.33 1444.29 1411.95 1457.02 C 1394.18 1470.04 1374.04 1466.51 1353.96 1463.41 C 1349.12 1462.19 1348.58 1462.89 1345.59 1459.91 C 1344.79 1454.71 1345.29 1435.44 1345.32 1429.41 L 1345.65 1368.77 L 1345.68 1301.72 C 1345.66 1287.18 1344.88 1271.84 1346.9 1257.5 C 1352.58 1217.03 1384.53 1194.34 1422.25 1187.25 z" fill="rgb(7,143,102)" transform="translate(0,0)"></path>
<path d="M 1267.25 637.8 C 1296.56 636.996 1329.31 637.834 1359.14 637.635 L 1359.07 757.094 C 1359.08 770.888 1359.03 784.964 1359.07 798.734 C 1359.12 817.967 1358.23 826.568 1344.65 840.829 C 1342.35 842.84 1339.95 844.743 1337.47 846.531 C 1319.29 859.609 1288.37 855.221 1267.46 851.631 C 1266.87 780.356 1266.8 709.077 1267.25 637.8 z" fill="rgb(7,143,102)" transform="translate(0,0)"></path>
<path d="M 1385.73 1497.11 L 1386.5 1498.08 C 1386.3 1511.21 1382.5 1531.59 1380.33 1545.14 L 1370.14 1610.62 L 1355.43 1703.98 C 1353.39 1716.53 1349.86 1741.86 1346.46 1752.92 C 1345.92 1753.49 1345.37 1754.05 1344.81 1754.6 C 1333.18 1766.01 1294.47 1762.19 1277.05 1762.11 C 1276.69 1761.79 1276.08 1760.56 1275.8 1760.07 C 1275.52 1748.02 1276.8 1736.27 1276.86 1724.37 C 1277.4 1630.37 1286.62 1539.03 1385.73 1497.11 z" fill="rgb(7,143,102)" transform="translate(0,0)"></path>
<path d="M 351.503 1178.75 L 353.791 1179 C 356.266 1186.6 354.971 1242.87 354.933 1253.94 L 354.997 1352.45 C 355.028 1381.25 357.642 1415.91 351.89 1443.29 C 347.256 1465.34 315.691 1466.08 298.881 1465.79 L 294.947 1454.43 C 266.421 1371.57 259.295 1223.02 351.503 1178.75 z" fill="rgb(7,143,102)" transform="translate(0,0)"></path>
<path d="M 965.144 882.231 L 966.217 882.51 C 967.264 888.428 959.554 931.896 958.241 941.137 C 951.864 987.315 945.179 1033.45 938.189 1079.54 C 934.533 1104.26 930.885 1133.2 926.096 1157.5 C 910.762 1159.66 879.557 1158.32 862.75 1157.98 L 861.001 1157.7 C 858.892 1154.24 862.298 1131.79 862.932 1126.2 L 873.461 1037.28 C 875.981 1016.47 878.999 976.973 883.359 957.733 C 885.865 946.417 890.318 935.622 896.52 925.831 C 912.534 901.024 936.949 888.274 965.144 882.231 z" fill="rgb(7,143,102)" transform="translate(0,0)"></path>
<path d="M 817.181 1216.88 C 843.524 1220.81 882.434 1219.37 908.996 1216.84 C 908.197 1281.74 908.109 1346.65 908.73 1411.56 C 875.116 1416.8 850.37 1416.6 816.997 1412.02 L 817.181 1216.88 z" fill="rgb(7,143,102)" transform="translate(0,0)"></path>
<path d="M 919.214 622.431 C 931.485 621.389 950.588 621.963 962.373 623.171 C 965.512 681.249 969.648 744.768 971.146 802.399 C 953.298 806.796 942.573 808.287 924.585 809.909 C 907.922 810.437 894.42 809.707 877.898 808.588 C 875.69 748.402 873.13 688.229 870.217 628.073 C 888.495 624.821 900.683 623.357 919.214 622.431 z" fill="rgb(7,143,102)" transform="translate(0,0)"></path>
<path d="M 504.696 1506.96 C 523.235 1507.36 539.072 1510.54 554.485 1521.5 C 576.208 1536.95 577.142 1560.4 581.27 1584.81 C 584.689 1604.64 587.883 1624.5 590.851 1644.4 C 596.163 1679.7 602.15 1714.41 607.043 1749.83 C 576.865 1742.33 540.016 1726.87 512.669 1711.88 C 510.603 1644.01 506.114 1573.97 504.696 1506.96 z" fill="rgb(7,143,102)" transform="translate(0,0)"></path>
<path d="M 694.672 285.435 C 714.837 284.648 737.648 285.09 758.01 285.027 C 757.681 349.045 757.912 413.064 758.702 477.078 L 736.917 476.974 L 672.025 476.892 C 671.708 413.637 670.581 350.388 668.645 287.162 L 694.672 285.435 z" fill="rgb(7,143,102)" transform="translate(0,0)"></path>
<path d="M 1747.02 586.231 C 1748.35 586.078 1751.12 585.745 1751.85 586.971 C 1755.26 592.788 1756.67 601.19 1758.64 607.791 C 1774.25 660.078 1773.45 710.266 1773.68 764.126 C 1773.91 795.586 1773.9 827.048 1773.63 858.508 C 1759.48 860.519 1751.14 860.83 1737.33 857.395 C 1722.86 851.503 1713.05 843.816 1710.94 827.284 C 1708.9 811.222 1709.18 795.049 1709.01 778.884 L 1708.07 718.365 L 1706.93 649.159 C 1706.75 637.464 1705.95 619.496 1707.11 608.211 C 1716.95 594.146 1731.21 589.618 1747.02 586.231 z" fill="rgb(7,143,102)" transform="translate(0,0)"></path>
<path d="M 517.765 951.147 L 598.444 951.109 C 598.102 1007 597.166 1062.8 597.949 1118.76 C 598.138 1132.29 594.857 1138.21 585.411 1147.38 C 564.533 1161.79 540.293 1159.44 517.339 1151.67 C 515.444 1088.43 517.045 1014.94 517.765 951.147 z" fill="rgb(7,143,102)" transform="translate(0,0)"></path>
<path d="M 658.739 1182.42 C 683.487 1183.37 698.49 1186.27 721.517 1195.04 C 717.891 1213.08 715.265 1236.01 712.748 1254.49 L 699.655 1351.06 C 697.653 1365.9 695.447 1387.01 692.434 1401.31 C 688.983 1402.7 684.586 1402.1 680.751 1401.94 C 660.637 1401.2 638.531 1398 618.718 1394.63 C 628.432 1324.82 635.429 1252.94 645.845 1183.28 L 658.739 1182.42 z" fill="rgb(7,143,102)" transform="translate(0,0)"></path>
<path d="M 1361.48 923.788 C 1388.61 925.66 1415.84 925.679 1442.97 923.844 C 1442.96 944.958 1444.47 1115.75 1441.41 1120.48 C 1423.09 1123.2 1378.37 1127.63 1363.31 1117.9 C 1361.03 1111.47 1361.79 1058.16 1361.78 1048.56 L 1361.48 923.788 z" fill="rgb(7,143,102)" transform="translate(0,0)"></path>
<path d="M 633.422 590.792 C 659.817 593.225 692.512 597.445 717.511 604.565 C 715.029 615.9 713.095 628.685 711.228 640.194 C 703.142 690.016 693.661 739.812 686.483 789.751 L 685.447 790.908 C 678.394 791.703 615.445 780.45 604.544 778.46 C 609.488 755.322 613.025 727.388 616.502 703.83 L 633.422 590.792 z" fill="rgb(7,143,102)" transform="translate(0,0)"></path>
<path d="M 292.797 1078.91 C 342.92 1078.59 393.084 1080.06 443.408 1079.33 C 473.079 1078.91 499.983 1075.67 504.087 1114.99 C 505.38 1127.38 500.918 1136.88 492.968 1146.04 C 489.059 1149.84 481.842 1155.14 476.481 1155.71 C 458.236 1157.66 436.001 1156.92 417.607 1156.94 L 293.185 1156.98 L 292.797 1078.91 z" fill="rgb(7,143,102)" transform="translate(0,0)"></path>
<path d="M 1561.55 614.417 C 1578.57 612.451 1598.88 614.795 1615.35 619.132 L 1615.19 801.45 C 1605.16 803.537 1594.98 804.803 1584.75 805.235 C 1569.43 806.374 1547 804.869 1532.15 801.424 C 1530.76 741.45 1532.02 678.319 1531.7 617.998 C 1541.58 616.253 1551.54 615.057 1561.55 614.417 z" fill="rgb(7,143,102)" transform="translate(0,0)"></path>
<path d="M 389.86 1217.38 C 407.598 1214.81 426.338 1218.51 443.424 1222.92 C 444.657 1285.36 443.86 1351.68 443.174 1414.2 C 434.612 1416.53 427.023 1417.63 418.24 1418.47 C 406.162 1421.05 377.397 1417.91 365.17 1415.96 L 365.081 1221.52 C 373.646 1219.87 381.228 1218.56 389.86 1217.38 z" fill="rgb(7,143,102)" transform="translate(0,0)"></path>
<path d="M 1695.9 1223.56 C 1721.9 1223.98 1747.91 1224.13 1773.93 1224 C 1774.1 1269.81 1774.94 1317.43 1771.95 1363.03 C 1770.87 1379.51 1767.06 1399.6 1764.14 1415.77 C 1749.24 1419.47 1703.77 1416.59 1687.72 1414.73 C 1690 1352.33 1692.3 1285.79 1695.9 1223.56 z" fill="rgb(7,143,102)" transform="translate(0,0)"></path>
<path d="M 1641.58 605.399 C 1654.81 603.447 1680.42 606.472 1693.95 608.329 C 1696.59 678.372 1698.34 748.446 1699.2 818.533 C 1693.37 819.737 1689.9 820.356 1683.9 820.956 C 1665.65 824.036 1643.07 822.177 1624.9 819.331 C 1623.97 749.039 1625.35 677.845 1625 607.399 L 1641.58 605.399 z" fill="rgb(7,143,102)" transform="translate(0,0)"></path>
<path d="M 1204.61 1523.38 C 1217.47 1521.13 1240.36 1523.12 1253.21 1525.75 C 1257.05 1587.23 1260.32 1648.74 1263.03 1710.28 C 1252.46 1713.99 1243.26 1715.45 1232.24 1716.89 C 1212.39 1718.41 1201.55 1718.41 1182.05 1714.52 C 1180.43 1652.62 1175.9 1591.39 1174.36 1529.63 C 1184.84 1526.09 1193.69 1524.67 1204.61 1523.38 z" fill="rgb(7,143,102)" transform="translate(0,0)"></path>
<path d="M 1286.6 1217.41 C 1299.65 1215.87 1321.63 1217.89 1334.27 1221.81 C 1333.82 1241 1334.55 1262.11 1334.56 1281.51 L 1334.46 1414.51 C 1325.08 1416.87 1318.4 1417.7 1308.88 1418.92 C 1288.92 1419.4 1276.9 1419.35 1257.01 1415.47 L 1257.14 1221.68 C 1268.07 1219.66 1275.48 1218.35 1286.6 1217.41 z" fill="rgb(7,143,102)" transform="translate(0,0)"></path>
<path d="M 478.575 1217.33 C 494.702 1214.74 513.911 1217.77 529.578 1221.74 C 528.507 1243.61 529.237 1271.1 529.291 1293.38 C 529.52 1334.76 529.423 1376.14 529 1417.52 C 521.336 1419.61 515.121 1421.05 507.245 1421.88 C 486.675 1423.64 473.157 1421.82 452.965 1418.39 L 453.558 1222.57 C 461.575 1220.09 470.296 1218.57 478.575 1217.33 z" fill="rgb(7,143,102)" transform="translate(0,0)"></path>
<path d="M 580.126 307.148 C 583.373 307.254 582.139 306.625 584.4 308.208 C 585.629 324.094 584.502 357.707 584.429 374.761 C 584.1 420.758 584.007 466.756 584.148 512.753 C 560.755 518.643 539.627 517.419 516.095 514.769 C 512.655 514.237 510.24 514.265 507.556 512.129 C 506.314 503.718 506.999 467.34 506.999 457.624 C 506.881 417.975 506.967 378.325 507.256 338.676 C 524.23 329.298 561.631 310.713 580.126 307.148 z" fill="rgb(7,143,102)" transform="translate(0,0)"></path>
<path d="M 745.307 1192.37 C 763.97 1190.88 794.602 1193.79 812.15 1200.25 C 811.283 1214.16 808.98 1231.33 807.445 1245.35 C 804.239 1274.9 800.79 1304.43 797.099 1333.92 C 794.258 1356.68 790.929 1394.07 786.658 1415.06 C 768.655 1415.25 736.914 1411.1 718.939 1407.48 C 723.695 1375.37 726.944 1341.39 730.693 1309.09 L 745.307 1192.37 z" fill="rgb(7,143,102)" transform="translate(0,0)"></path>
<path d="M 308.999 881.022 C 343.936 881.732 378.883 881.833 413.823 881.323 C 429.197 881.202 444.576 881.059 459.946 881.014 C 471.483 880.98 482.398 881.397 491.359 889.83 C 509.06 906.49 509.13 932.766 492.338 950.165 C 487.797 953.658 480.344 958.909 474.613 959.451 C 459.473 960.882 441.151 960.303 425.885 960.379 L 309.331 960.481 C 307.215 931.56 305.933 910.142 308.999 881.022 z" fill="rgb(7,143,102)" transform="translate(0,0)"></path>
<path d="M 1473.04 1387.63 C 1539.26 1388.05 1608.96 1386.31 1674.88 1389.12 C 1685.09 1411.26 1683.89 1430.13 1666.26 1448.14 C 1647.62 1463.83 1631.88 1462.54 1608.84 1462.5 C 1598.77 1462.48 1588.54 1462.44 1578.45 1462.39 L 1473.27 1462.09 L 1473.04 1387.63 z" fill="rgb(7,143,102)" transform="translate(0,0)"></path>
<path d="M 1201.67 1211.42 C 1214.47 1209.64 1232.72 1212.14 1245.67 1213.86 C 1246.2 1282.19 1245.07 1352.06 1245.05 1420.59 C 1235.85 1422.04 1229.5 1422.94 1220.25 1423.47 C 1206.57 1424.51 1189.62 1422.95 1176.15 1420.67 C 1175.75 1351.89 1175.98 1283.11 1176.86 1214.33 C 1183.87 1212.87 1194.3 1212.14 1201.67 1211.42 z" fill="rgb(7,143,102)" transform="translate(0,0)"></path>
<path d="M 624.706 295.314 C 636.867 293.496 647.806 295.94 659.507 298.687 C 662.199 368.527 662.697 443.504 663.888 513.668 C 654.66 515.535 646.883 516.064 637.54 516.868 C 623.256 517.274 608.971 516.096 594.946 513.357 L 594.992 303.168 C 605.934 298.901 612.996 297.171 624.706 295.314 z" fill="rgb(7,143,102)" transform="translate(0,0)"></path>
<path d="M 1195.77 915.408 C 1209.56 913.489 1240.35 914.518 1253.71 917.613 L 1253.13 1111.21 C 1248.42 1111.81 1243.01 1112.22 1238.24 1112.69 C 1219.97 1114.03 1197.91 1112.96 1179.72 1111.8 C 1180.05 1048.23 1181.6 980.501 1180.24 917.36 C 1185.18 916.463 1190.75 915.975 1195.77 915.408 z" fill="rgb(7,143,102)" transform="translate(0,0)"></path>
<path d="M 1712.91 909.557 C 1733.25 908.405 1753.63 908.577 1773.94 910.073 L 1774.4 1114.9 L 1763.25 1114.91 L 1700.75 1114.79 C 1700.88 1095.55 1706.58 913.756 1708.43 910.685 C 1709.2 909.409 1711.55 909.71 1712.91 909.557 z" fill="rgb(7,143,102)" transform="translate(0,0)"></path>
<path d="M 293.314 617.364 C 317.279 616.368 326.963 616.794 350.071 620.541 C 350.614 683.597 350.799 746.656 350.628 809.714 C 346.008 810.906 338.361 811.947 333.396 812.756 C 311.002 814.677 298.172 814.766 275.987 811.123 C 275.945 754.965 272.798 696.958 282.646 641.609 C 284.081 633.54 284.799 619.282 293.314 617.364 z" fill="rgb(7,143,102)" transform="translate(0,0)"></path>
<path d="M 376.656 610.389 C 391.236 609.089 405.923 609.671 420.355 612.121 C 420.105 691.28 421.965 774.158 420.376 852.723 C 416.566 853.563 412.336 854.22 408.463 854.909 C 391.948 855.657 378.376 855.612 362.027 852.784 L 362.222 612.498 C 367.061 611.438 371.745 610.979 376.656 610.389 z" fill="rgb(7,143,102)" transform="translate(0,0)"></path>
<path d="M 816.858 601.383 C 827.386 599.994 846.337 600.977 856.958 602.106 C 856.962 631.217 862.587 840.764 858.343 847.322 C 856.267 850.529 848.084 850.464 844.636 850.775 C 829.777 851.181 820.416 851.018 805.717 849.087 C 804.996 823.251 805.294 796.833 804.582 770.635 C 802.521 715.011 801.262 659.36 800.805 603.7 C 805.809 602.808 811.756 602.103 816.858 601.383 z" fill="rgb(7,143,102)" transform="translate(0,0)"></path>
<path d="M 1473.4 910.402 C 1486.35 908.553 1507.01 910.247 1519.76 913.638 C 1520.09 934.952 1519.17 957.524 1519.16 979 L 1519.76 1125.18 C 1514.15 1126.34 1508.91 1126.89 1503.24 1127.57 C 1487.49 1129.33 1471.78 1128.08 1456.13 1126.1 C 1454.57 1056.84 1456 982.325 1456 912.663 C 1461.73 911.59 1467.6 911.04 1473.4 910.402 z" fill="rgb(7,143,102)" transform="translate(0,0)"></path>
<path d="M 796.405 909.136 C 817.172 908.777 852.876 909.589 873.22 912.966 C 866.903 972.042 862.128 1033.21 856.326 1092.76 L 855.387 1103 C 834.045 1105.44 813.342 1104.04 792.028 1102.63 C 791.637 1039.67 794.732 972.275 796.405 909.136 z" fill="rgb(7,143,102)" transform="translate(0,0)"></path>
<path d="M 1155.8 304.188 C 1195.18 306.013 1235.59 303.348 1274.71 304.477 C 1301.42 305.248 1343.58 295.371 1348.58 331.372 C 1350.58 345.714 1349.16 355.914 1340.92 367.941 C 1331.56 377.198 1325.65 376.992 1313.25 377.061 C 1299.94 377.134 1286.58 377.115 1273.26 377.098 L 1155.28 376.9 C 1155.68 352.665 1155.85 328.427 1155.8 304.188 z" fill="rgb(7,143,102)" transform="translate(0,0)"></path>
<path d="M 1154.62 1551.42 C 1157.83 1551.01 1158.62 1550.62 1161.69 1551.63 C 1163.6 1555.73 1170.94 1705.52 1171.17 1718.13 C 1148.17 1723.76 1128.28 1725.79 1104.61 1724.23 C 1100.27 1724.1 1095.8 1723.61 1091.46 1723.21 C 1089.97 1668.09 1085.94 1610.61 1083.66 1555.05 C 1105.33 1555.04 1132.92 1553.01 1154.62 1551.42 z" fill="rgb(7,143,102)" transform="translate(0,0)"></path>
<path d="M 729.372 607.009 C 748.743 606.524 778.044 609.712 795.387 618.809 C 793.721 640.836 787.995 669.93 784.164 692.181 L 764.034 808.781 C 750.768 811.196 714.418 802.656 700.067 798.742 C 709.539 745.931 715.824 691.789 724.261 638.731 C 725.934 628.211 726.927 617.371 729.372 607.009 z" fill="rgb(7,143,102)" transform="translate(0,0)"></path>
<path d="M 1487.45 1505.45 C 1500.36 1505.56 1509.56 1505.39 1522.05 1508.32 L 1522.81 1718.71 C 1510.34 1725.41 1496.37 1731.1 1483.25 1736.4 L 1456.91 1746.69 C 1457.12 1735.27 1458.14 1723.54 1458.71 1712.09 C 1462.17 1643.72 1469.22 1574.93 1471.47 1506.53 C 1476.29 1506 1482.5 1505.76 1487.45 1505.45 z" fill="rgb(7,143,102)" transform="translate(0,0)"></path>
<path d="M 1394.68 1513.4 C 1415.76 1515.72 1436.77 1518.67 1457.67 1522.25 C 1449.04 1587.91 1434.94 1654.99 1428.39 1721.12 C 1415.74 1720.7 1377.43 1714.14 1364.65 1711.48 C 1371.3 1660.08 1382.07 1608.25 1388.56 1556.73 C 1390.31 1542.78 1391.87 1527.03 1394.68 1513.4 z" fill="rgb(7,143,102)" transform="translate(0,0)"></path>
<path d="M 1112.61 1193.34 C 1128.67 1194.08 1152.34 1199.24 1167.11 1205.8 C 1161.91 1227.72 1137.88 1394.93 1135.02 1397.1 C 1113.91 1396.97 1096.67 1393.1 1076.74 1387.07 C 1083.45 1344.81 1088.19 1300.71 1094.77 1258.24 C 1097.69 1239.38 1099.33 1213.44 1103.29 1195.79 C 1105.61 1193.93 1109.51 1193.79 1112.61 1193.34 z" fill="rgb(7,143,102)" transform="translate(0,0)"></path>
<path d="M 1157.79 487.134 L 1271.42 487.066 C 1290.57 487.063 1309.63 486.851 1328.83 487.292 C 1350.44 487.788 1352.58 507.366 1350.74 524.606 C 1349.86 532.761 1347.04 538.224 1342.7 544.998 C 1340.78 546.918 1336.33 550.519 1333.75 550.718 C 1316.78 552.026 1297.59 551.079 1280.53 551.037 L 1157.08 551.029 C 1153.7 529.633 1155.58 508.44 1157.79 487.134 z" fill="rgb(7,143,102)" transform="translate(0,0)"></path>
<path d="M 1532.75 1546.99 L 1620.06 1547.11 L 1619.91 1654.69 C 1609.15 1663.85 1598 1672.55 1586.5 1680.77 C 1569.7 1693.1 1551.91 1704.03 1533.33 1713.47 C 1532.5 1658.25 1533.08 1602.32 1532.75 1546.99 z" fill="rgb(7,143,102)" transform="translate(0,0)"></path>
<path d="M 450.967 1510.42 C 466.024 1509.31 479.79 1510.06 494.35 1514.09 C 495.939 1533.88 496.435 1555.86 497.374 1575.86 C 499.807 1619.2 501.388 1662.58 502.117 1705.98 C 496.774 1703.18 491.153 1699.89 485.857 1696.91 C 464.873 1684.11 445.204 1669.27 427.136 1652.61 C 428.224 1608.08 427.098 1558.5 426.977 1513.67 C 435.887 1512.02 441.943 1511.19 450.967 1510.42 z" fill="rgb(7,143,102)" transform="translate(0,0)"></path>
<path d="M 1537.95 338.046 C 1560.27 346.38 1595.63 373.674 1615.63 388.294 L 1615.94 471.449 C 1616.03 484.054 1616.28 497.451 1616 510.097 C 1615.94 513.125 1615.57 512.809 1613.79 514.155 C 1586.34 519.69 1566.33 519.367 1538.89 514.461 C 1536.88 458.211 1537.92 394.738 1537.95 338.046 z" fill="rgb(7,143,102)" transform="translate(0,0)"></path>
<path d="M 655.532 1549.34 C 658.709 1548.78 658.781 1548.87 662.034 1549.16 C 663.56 1551.45 686.144 1705.14 687.358 1720.5 C 668.098 1726.59 646.872 1728.86 626.75 1729.06 C 624.145 1729.05 624.789 1729.07 622.24 1728.47 C 619.299 1724.69 598.861 1579.11 595.127 1559.54 C 614.409 1555.76 636.124 1552.34 655.532 1549.34 z" fill="rgb(7,143,102)" transform="translate(0,0)"></path>
<path d="M 823.304 1688.43 L 957.899 1688.33 C 959.29 1711.93 959.964 1736.59 957.824 1760.15 L 926.5 1760 L 858.609 1760.01 C 832.374 1760.22 794.356 1766.52 789.35 1729.79 C 786.319 1707.55 801.094 1690.55 823.304 1688.43 z" fill="rgb(7,143,102)" transform="translate(0,0)"></path>
<path d="M 1455.02 357.065 L 1527.62 356.934 C 1527.65 360.605 1527.83 377.108 1527.52 379.892 C 1525.73 396.07 1529.66 509.387 1525.68 515.478 C 1496.37 519.627 1484.35 520.176 1455 515.265 L 1455.02 357.065 z" fill="rgb(7,143,102)" transform="translate(0,0)"></path>
<path d="M 939.889 487.479 C 963.36 486.41 957.668 519.097 961.345 539.243 C 958.052 544.767 955.287 550.406 948.2 550.913 C 930.38 552.185 912.357 551.511 894.502 551.421 C 862.392 551.46 830.282 551.269 798.175 550.847 C 790.233 548.585 785.082 544.958 780.351 537.972 C 774.576 529.27 772.546 518.611 774.717 508.396 C 776.786 498.266 780.721 493.402 788.947 487.991 C 804.443 487.282 823.147 487.765 838.836 487.768 C 872.52 487.923 906.205 487.826 939.889 487.479 z" fill="rgb(7,143,102)" transform="translate(0,0)"></path>
<path d="M 493.854 346.977 C 495.082 350.16 493.833 499.925 493.817 512.555 C 470.943 518.134 441.8 516.916 418.711 513.492 L 415.315 512.316 C 413.302 505.373 414.962 419.014 414.962 404.944 C 436.484 385.07 467.603 360.047 493.854 346.977 z" fill="rgb(7,143,102)" transform="translate(0,0)"></path>
<path d="M 1109.64 920.425 L 1113.52 921.046 C 1114.09 921.662 1114.65 922.278 1115.22 922.894 C 1122.46 968.543 1142.47 1078.89 1147.39 1118.05 C 1131.32 1122.4 1114.86 1125.18 1098.24 1126.36 C 1095.27 1126.85 1096.36 1126.98 1093.56 1126.05 C 1092.06 1120.95 1089.91 1106.57 1088.91 1100.81 C 1085.54 1081.27 1082.44 1061.68 1079.63 1042.04 C 1073.97 1004.09 1067.1 966.164 1061.74 928.276 C 1075.63 923.418 1094.95 921.55 1109.64 920.425 z" fill="rgb(7,143,102)" transform="translate(0,0)"></path>
<path d="M 1532.12 971.101 L 1603.8 971.013 C 1603.83 984.713 1604.74 1120.53 1602.62 1124.59 C 1572.77 1127.82 1562.35 1127.51 1532.9 1124.63 L 1532.12 971.101 z" fill="rgb(7,143,102)" transform="translate(0,0)"></path>
<path d="M 805.169 1475 L 950.76 1474.89 C 951.974 1496.8 957.6 1524.14 959.048 1547.52 C 944.896 1548.81 919.051 1548.02 904.179 1547.99 L 804.854 1547.95 L 805.169 1475 z" fill="rgb(7,143,102)" transform="translate(0,0)"></path>
<path d="M 1369.55 656.294 L 1430.32 656.144 C 1431.82 682.757 1431.31 715.366 1432.09 742.623 C 1432.65 762.114 1434.12 799.876 1432.81 819.054 L 1431.03 819.922 C 1412.13 822.214 1388.15 821.947 1369.22 820.209 L 1369.55 656.294 z" fill="rgb(7,143,102)" transform="translate(0,0)"></path>
<path d="M 1117.38 568.955 C 1148.06 569.147 1178.69 569.053 1209.35 569.062 C 1249.68 569.073 1261.63 617.182 1230.69 641.384 C 1215.21 649.419 1192.11 647.074 1174.56 647.033 L 1105.47 647.142 C 1107.22 626.352 1113.97 590.455 1117.38 568.955 z" fill="rgb(7,143,102)" transform="translate(0,0)"></path>
<path d="M 317.226 1001.98 L 460.832 1001.89 C 462.357 1011.44 465.777 1064.43 461.768 1070.22 C 413.553 1070.74 365.335 1070.8 317.119 1070.4 C 314.743 1046.33 313.652 1026.04 317.226 1001.98 z" fill="rgb(7,143,102)" transform="translate(0,0)"></path>
<path d="M 609.802 970.808 L 673.033 970.954 C 672.95 989.189 679.276 1118.59 675.791 1123.22 C 652.946 1127.41 633.558 1126.92 610.827 1124.46 C 608.501 1077.74 610.119 1018.58 609.802 970.808 z" fill="rgb(7,143,102)" transform="translate(0,0)"></path>
<path d="M 1486.91 1310.76 L 1638.93 1310.86 C 1640.38 1323.25 1642.4 1364.14 1639.65 1375.58 C 1588.48 1375.42 1537.31 1375.52 1486.14 1375.9 C 1485.05 1351.81 1484.26 1335.04 1486.91 1310.76 z" fill="rgb(7,143,102)" transform="translate(0,0)"></path>
<path d="M 1147.31 782.483 C 1181.67 781.942 1216.04 782.116 1250.4 783.005 C 1253.9 811.42 1254.89 824.161 1250.4 852.049 C 1239.29 852.397 1226.72 852.149 1215.5 852.166 L 1110.76 852.016 C 1111.54 825.978 1113.34 809.872 1109.97 782.841 L 1147.31 782.483 z" fill="rgb(7,143,102)" transform="translate(0,0)"></path>
<path d="M 1179.05 408.713 L 1323.94 408.866 C 1324.95 432.732 1324.43 450.934 1322.85 474.768 C 1317.89 475.644 1287.61 475.111 1279.88 475.099 L 1179.38 475.08 C 1178.37 450.436 1178.12 433.538 1179.05 408.713 z" fill="rgb(7,143,102)" transform="translate(0,0)"></path>
<path d="M 806.114 414.965 L 952.477 415.012 C 956.994 436.029 955.365 455.808 952.618 476.805 C 903.874 477.476 853.911 476.911 805.073 476.837 C 803.333 453.707 802.865 438.132 806.114 414.965 z" fill="rgb(7,143,102)" transform="translate(0,0)"></path>
<path d="M 718.552 1542.19 C 719.729 1542.13 719.901 1542.39 721.14 1542.84 C 723.467 1547.52 723.38 1550.45 724.655 1555.17 C 739.158 1608.84 754.462 1663.59 767.612 1717.54 C 754.402 1722.09 736.965 1726.38 723.215 1730.14 L 720.491 1730.81 C 716.402 1727.8 707.843 1686.43 705.707 1678.04 L 674.497 1555.25 C 686.445 1550.48 706.245 1544.48 718.552 1542.19 z" fill="rgb(7,143,102)" transform="translate(0,0)"></path>
<path d="M 897.414 1615.49 L 975.864 1615.22 C 979.736 1633.91 978.108 1657.93 976.689 1677.01 L 922.5 1677 L 841.091 1677.07 C 839.759 1654.75 838.796 1638.37 841.182 1615.89 C 859.659 1616.06 878.88 1615.64 897.414 1615.49 z" fill="rgb(7,143,102)" transform="translate(0,0)"></path>
<path d="M 722.286 945.205 L 726.52 945.119 C 727.178 945.758 727.835 946.397 728.493 947.036 C 730.992 957.521 734.322 970.911 736.698 981.12 C 746.903 1024.97 758.464 1068.64 767.313 1112.74 C 753.968 1117.31 740.983 1120.76 727.38 1124.48 C 724.075 1125.37 724.652 1125.66 721.652 1124.92 C 717.148 1109.6 712.873 1088.05 709.127 1071.93 C 700.427 1033.84 691.484 995.795 682.3 957.814 C 695.181 952.306 708.575 948.082 722.286 945.205 z" fill="rgb(7,143,102)" transform="translate(0,0)"></path>
<path d="M 1095.7 701.06 C 1135.75 700.633 1175.81 700.536 1215.86 700.769 C 1216.59 713.077 1218.48 753.173 1216.46 764.44 C 1213.47 766.568 1213.74 765.83 1209.25 765.92 L 1085.91 765.946 C 1088.73 744.273 1092.88 722.819 1095.7 701.06 z" fill="rgb(7,143,102)" transform="translate(0,0)"></path>
<path d="M 456.173 707.486 C 491.177 707.161 526.183 707.159 561.186 707.479 C 560.374 731.667 560.346 749.004 562.223 773.153 L 543.75 773.147 L 439.666 773.082 C 437.609 753.958 438.176 726.894 439.722 708.007 L 456.173 707.486 z" fill="rgb(7,143,102)" transform="translate(0,0)"></path>
<path d="M 568.52 1240.35 C 571.554 1239.87 571.377 1239.82 574.364 1240.45 C 576.802 1242.73 582.411 1282.87 583.711 1290.19 C 591.552 1332.5 598.974 1374.88 605.977 1417.34 C 594.445 1420.5 585.06 1422.28 573.332 1424.48 C 569.609 1425.08 568.891 1425.35 565.05 1424.75 C 560.921 1417.92 537.29 1263.49 534.659 1246.48 C 544.04 1244.03 559.102 1241.6 568.52 1240.35 z" fill="rgb(7,143,102)" transform="translate(0,0)"></path>
<path d="M 1641 951.364 C 1643.84 950.939 1649.7 950.951 1652.81 950.861 C 1657.3 973.189 1660.58 998.528 1664.22 1021.21 C 1669.87 1055.94 1675.91 1090.61 1682.32 1125.21 C 1671.82 1127.95 1663.88 1129.23 1653.23 1130.93 L 1641 1132.36 L 1613.13 957.002 C 1622.53 954.316 1631.34 952.688 1641 951.364 z" fill="rgb(7,143,102)" transform="translate(0,0)"></path>
<path d="M 820.369 321.891 C 858.11 322.515 897.206 321.998 935.052 322.001 C 937.31 340.565 937.443 365.353 935.059 383.674 C 899.64 385.148 855.85 383.807 820.072 383.245 C 818.172 361.503 818.097 343.671 820.369 321.891 z" fill="rgb(7,143,102)" transform="translate(0,0)"></path>
<path d="M 1472.04 642.296 C 1475.33 641.844 1476.17 641.507 1479.39 642.556 C 1481.22 648.051 1481.85 653.714 1482.95 659.394 C 1492.68 709.641 1501.18 760.275 1511.19 810.448 C 1501.03 813.744 1487.94 815.94 1477.34 817.693 L 1470.56 818.733 L 1454.93 735.848 C 1449.34 706.773 1443.66 680.182 1439.55 650.773 C 1450.3 647.209 1460.87 644.203 1472.04 642.296 z" fill="rgb(7,143,102)" transform="translate(0,0)"></path>
<path d="M 1699.96 1127.19 C 1724.71 1127.56 1749.46 1127.79 1774.2 1127.9 C 1774.12 1143.8 1774.25 1191.69 1773.62 1210.59 C 1773.6 1211.2 1770.8 1211.39 1770.25 1211.44 C 1745.64 1211.66 1721.58 1210.92 1696.88 1211.59 C 1696.97 1183.82 1698.57 1155.03 1699.96 1127.19 z" fill="rgb(7,143,102)" transform="translate(0,0)"></path>
<path d="M 1627.11 400.33 C 1648.2 411.52 1698.62 477.648 1711 500.248 C 1711.15 504.527 1712.21 510.389 1708.78 513.079 C 1681 517.289 1654.85 519.037 1627.06 512.873 C 1627.27 475.359 1627.29 437.844 1627.11 400.33 z" fill="rgb(7,143,102)" transform="translate(0,0)"></path>
<path d="M 460.264 792.121 C 493.173 792.273 526.082 792.234 558.99 792.004 C 558.927 808.562 559.107 833.636 558.778 851.019 C 558.766 851.622 557.478 851.918 557.041 852.064 C 524.744 852.412 492.446 852.556 460.147 852.495 C 460.996 831.45 460.857 813.164 460.264 792.121 z" fill="rgb(7,143,102)" transform="translate(0,0)"></path>
<path d="M 672.598 488.374 C 701.354 488.001 730.113 487.911 758.871 488.103 L 758.902 517.408 C 758.913 529.266 755.643 533.958 747.148 542.471 C 738.251 549.359 726.697 553.486 715.5 552.614 C 668.706 548.97 671.683 522.389 672.598 488.374 z" fill="rgb(7,143,102)" transform="translate(0,0)"></path>
<path d="M 1629.37 1544.18 L 1713.31 1545.19 C 1697.45 1568.44 1689.29 1582.82 1669.71 1605.06 C 1656.8 1619.55 1644.11 1633.94 1629.16 1646.46 C 1629.51 1612.5 1628.84 1577.82 1629.37 1544.18 z" fill="rgb(7,143,102)" transform="translate(0,0)"></path>
<path d="M 602.92 789.756 C 613.377 790.869 624.566 792.621 634.993 794.259 L 651.007 796.829 C 661.323 798.455 672.594 800.322 682.663 803.002 L 684.643 803.515 C 684.202 805.679 683.663 807.878 683.241 810.011 L 678.148 835.011 L 677.232 839.512 L 676.187 844.512 C 675.612 847.325 675.073 849.765 674.435 852.569 C 664.908 854.445 637.152 850.852 627.012 848.664 L 622.522 847.719 L 618.014 846.73 L 614.015 845.772 C 607.394 844.14 601.615 842.376 595.203 840.08 C 597.858 823.352 599.759 806.453 602.92 789.756 z" fill="rgb(7,143,102)" transform="translate(0,0)"></path>
<path d="M 335.378 1544.94 L 415.539 1544.94 C 415.304 1577.15 415.454 1609.36 415.988 1641.57 C 412.696 1641.94 406.39 1634.03 403.884 1631.52 C 379.831 1607.48 350.695 1575.45 335.378 1544.94 z" fill="rgb(7,143,102)" transform="translate(0,0)"></path>
<path d="M 401.759 417.802 C 402.38 421.824 402.045 440.164 402.093 445.496 L 402.507 512.058 C 380.527 516.79 354.295 518.673 332.22 514.634 C 326.558 512.179 337.964 499.117 340.305 495.247 C 357.901 466.166 377.636 441.616 401.759 417.802 z" fill="rgb(7,143,102)" transform="translate(0,0)"></path>
<path d="M 917.611 1195.03 C 918.518 1198.88 920.063 1204.88 919.709 1208.72 C 928.101 1284.87 938.374 1360.91 946.471 1437.11 C 947.41 1445.95 948.999 1455.09 949.342 1463.94 C 930.458 1456.06 918.737 1448.52 918.314 1426.17 C 917.91 1404.83 918.405 1383.55 918.344 1362.22 L 917.895 1234.02 C 916.589 1222.66 917.15 1206.55 917.611 1195.03 z" fill="rgb(7,143,102)" transform="translate(0,0)"></path>
<path d="M 917.611 1195.03 C 918.518 1198.88 920.063 1204.88 919.709 1208.72 C 917.126 1213.94 918.505 1226.46 917.895 1234.02 C 916.589 1222.66 917.15 1206.55 917.611 1195.03 z" fill="rgb(135,181,171)" transform="translate(0,0)"></path>
<path d="M 1386.69 869.419 C 1401.55 867.465 1428.65 869.823 1442.91 873.137 C 1443.09 886.351 1443.17 899.566 1443.15 912.78 C 1435.94 913.155 1428.34 913.872 1421.25 913.978 C 1401.32 914.611 1381.36 914.071 1361.49 912.36 C 1361.14 900.036 1361.42 885.395 1361.56 872.912 C 1371.69 870.734 1376.56 870.328 1386.69 869.419 z" fill="rgb(7,143,102)" transform="translate(0,0)"></path>
<path d="M 1661.83 1476.43 C 1684.85 1473.82 1720.8 1477.57 1743.91 1479.35 C 1740.36 1489.03 1736.69 1498.67 1732.9 1508.26 L 1714.25 1508 L 1629.5 1506.8 L 1629.53 1480.08 C 1639.26 1477.92 1651.76 1477.15 1661.83 1476.43 z" fill="rgb(7,143,102)" transform="translate(0,0)"></path>
<path d="M 344.547 1475.42 C 357.411 1473.99 402.805 1475.93 415.336 1478.32 C 415.113 1487.87 415.152 1497.66 415.082 1507.23 C 403.134 1507.66 389.563 1507.36 377.5 1507.33 C 356.738 1507.02 335.973 1507.04 315.212 1507.38 C 310.702 1497.63 307.852 1490.31 304.392 1480.18 C 317.78 1477.22 330.936 1476.39 344.547 1475.42 z" fill="rgb(7,143,102)" transform="translate(0,0)"></path>
<path d="M 1295.71 565.431 C 1312.63 563.737 1344.09 564.403 1359.88 569.093 C 1359.81 579.48 1359.55 589.864 1359.13 600.242 C 1350.33 600.33 1341.52 600.351 1332.71 600.304 L 1267.62 601.027 C 1267.62 589.75 1267.22 578.554 1267.33 567.274 L 1295.71 565.431 z" fill="rgb(7,143,102)" transform="translate(0,0)"></path>
<path d="M 1551.03 1471.41 C 1566.57 1469.54 1604.44 1470.82 1620.01 1473.5 L 1620.11 1506.4 C 1614.23 1506.58 1608.35 1506.63 1602.48 1506.55 C 1579.08 1506.53 1555.29 1507.03 1531.97 1506.78 C 1532.07 1495.63 1531.98 1484.49 1531.7 1473.35 C 1538.17 1472.68 1544.56 1472.04 1551.03 1471.41 z" fill="rgb(7,143,102)" transform="translate(0,0)"></path>
<path d="M 967.931 815.323 C 971.076 814.643 972.551 813.836 972.654 817.413 C 972.919 826.669 972.957 835.901 973.523 845.145 C 943.157 855.758 916.83 857.374 885.263 850.402 C 878.585 848.578 880.606 847.698 879.805 841.014 C 878.92 833.624 878.951 826.235 878.675 818.811 C 911.007 823.67 936.243 820.847 967.931 815.323 z" fill="rgb(7,143,102)" transform="translate(0,0)"></path>
<path d="M 1532.03 813.125 C 1534.51 813.537 1537 813.903 1539.49 814.218 C 1564.57 818.113 1590.13 817.57 1615.01 812.612 C 1615.04 817.547 1616.78 845.959 1613.4 846.998 C 1588.3 857.601 1558.16 855.378 1532.6 847.415 C 1532.28 835.987 1532.09 824.557 1532.03 813.125 z" fill="rgb(7,143,102)" transform="translate(0,0)"></path>
<path d="M 1385.46 595.348 C 1395.88 593.683 1416.2 594.799 1426.92 596.639 C 1427.73 612.543 1429.26 629.074 1430.15 645.14 C 1424.68 645.193 1419.22 645.207 1413.75 645.181 L 1369.03 645.42 L 1368.94 598.236 C 1374.75 596.888 1379.57 596.122 1385.46 595.348 z" fill="rgb(7,143,102)" transform="translate(0,0)"></path>
<path d="M 862.624 1174.45 C 880.687 1174.05 890.268 1175.3 907.276 1180.07 L 908.978 1180.54 C 908.92 1189.16 908.987 1197.78 909.179 1206.39 C 894.838 1207.77 880.445 1208.53 866.039 1208.69 C 852.24 1208.58 832.114 1208.38 818.638 1206.23 L 816.957 1205.99 C 817.165 1197.25 817.912 1189.17 818.157 1180.43 C 834.758 1175.6 845.706 1175.1 862.624 1174.45 z" fill="rgb(7,143,102)" transform="translate(0,0)"></path>
<path d="M 817.146 1424.68 C 846.38 1429.78 879.713 1429.75 908.978 1424.87 C 908.965 1430.97 911.03 1449.2 906.538 1452.35 C 877.334 1464.4 847.083 1462.1 817.432 1453.24 C 816.944 1444.06 817.068 1433.93 817.146 1424.68 z" fill="rgb(7,143,102)" transform="translate(0,0)"></path>
<path d="M 1570.34 571.416 C 1586.13 570.516 1601.52 573.558 1615.76 580.273 C 1615.99 588.886 1615.64 598.91 1615.52 607.612 C 1601.89 605.463 1591.78 604.174 1577.93 603.295 C 1564.7 603.329 1550.52 604.669 1537.5 606.931 L 1533.57 607.461 L 1531.87 607.666 C 1532.08 597.879 1531.94 588.113 1532.23 578.366 C 1537.4 576.637 1542.67 575.226 1548.01 574.139 C 1557.03 572.369 1561.26 572.083 1570.34 571.416 z" fill="rgb(7,143,102)" transform="translate(0,0)"></path>
<path d="M 542.201 879.401 C 557.579 877.235 583.929 879.096 598.986 882.916 L 598.751 911.725 C 591.919 911.877 585.084 911.935 578.25 911.901 C 558.05 911.744 537.849 911.949 517.657 912.514 C 517.626 902.931 517.73 893.348 517.967 883.768 C 527.347 881.136 532.599 880.393 542.201 879.401 z" fill="rgb(7,143,102)" transform="translate(0,0)"></path>
<path d="M 1179.97 1120.91 C 1209.04 1121.55 1222.27 1123.47 1253.39 1121.19 C 1253.4 1127.54 1253.84 1149.39 1252.78 1154.26 C 1232.37 1159.1 1202.44 1159.58 1182.05 1154.04 L 1180.11 1153.54 C 1179.94 1142.71 1180.03 1131.76 1179.97 1120.91 z" fill="rgb(7,143,102)" transform="translate(0,0)"></path>
<path d="M 791.12 1112.98 C 813.167 1116.08 831.975 1115.05 853.907 1114.97 C 852.364 1127.77 851.649 1141.78 850.24 1154.76 C 848.132 1160.42 797.918 1154.55 790.959 1153.44 C 790.919 1139.95 790.972 1126.47 791.12 1112.98 z" fill="rgb(7,143,102)" transform="translate(0,0)"></path>
<path d="M 1552.62 898.406 C 1560.53 897.403 1579.84 897.773 1587.5 898.776 C 1592.08 899.338 1596.6 900.313 1601.01 901.691 C 1602.27 902.081 1603.54 902.471 1604.8 902.861 C 1604.76 912.983 1604.8 923.105 1604.94 933.226 C 1599.3 933.439 1594.41 933.557 1588.75 933.491 L 1532.01 933.26 C 1532.05 923.537 1531.83 911.436 1532.45 901.878 C 1541.94 899.211 1543.17 899.304 1552.62 898.406 z" fill="rgb(7,143,102)" transform="translate(0,0)"></path>
<path d="M 617.244 1411.68 C 623.777 1412.29 629.601 1413.67 636.008 1414.8 C 653.875 1417.93 672.418 1420.14 690.525 1421.11 C 689.028 1431.75 687.214 1442.25 685.519 1452.84 C 676.509 1454.88 623.865 1450.57 614.48 1442.1 C 613.368 1441.1 616.88 1417.58 617.244 1411.68 z" fill="rgb(7,143,102)" transform="translate(0,0)"></path>
<path d="M 1211.53 1480.39 C 1224.94 1478.82 1239.11 1481.9 1251.49 1486.87 L 1252.96 1513.55 C 1236.76 1511.3 1227.52 1510.12 1210.9 1510.83 C 1199.13 1511.37 1186.54 1513.52 1175.69 1518.2 L 1173.81 1518.99 C 1173.21 1509.57 1172.91 1501.14 1172.64 1491.72 C 1185.58 1483.95 1196.81 1481.84 1211.53 1480.39 z" fill="rgb(7,143,102)" transform="translate(0,0)"></path>
<path d="M 1261.17 1723.08 C 1265.77 1723.31 1264.39 1741.53 1264.58 1746.11 C 1241.41 1763.69 1216.13 1763.11 1189.56 1754.71 L 1187.64 1754.12 C 1181.45 1750.79 1183.19 1751.21 1182.85 1743.5 C 1182.61 1738.07 1182.65 1732.52 1182.34 1727.07 C 1203.96 1731.33 1219.65 1732.29 1241.51 1728.25 C 1246.8 1727.31 1252.03 1726.01 1257.15 1724.36 C 1258.52 1723.91 1259.79 1723.5 1261.17 1723.08 z" fill="rgb(7,143,102)" transform="translate(0,0)"></path>
<path d="M 629.748 896.421 C 641.886 894.764 658.989 896.503 670.871 900.07 C 671.247 911.267 671.842 922.909 672.131 933.957 C 665.337 933.982 658.543 933.943 651.75 933.841 C 637.546 933.679 623.344 933.977 609.133 933.986 C 609.143 922.81 608.928 911.13 609.206 900.013 C 618.594 897.067 620.163 897.275 629.748 896.421 z" fill="rgb(7,143,102)" transform="translate(0,0)"></path>
<path d="M 698.348 812.048 C 721.036 817.072 738.854 819.713 761.921 821.821 C 761.022 827.023 758.468 849.83 756.758 852.914 C 734.211 856.655 714.695 850.656 692.957 846.132 C 694.786 834.928 696.869 823.269 698.348 812.048 z" fill="rgb(7,143,102)" transform="translate(0,0)"></path>
<path d="M 395.775 1176.35 C 413.825 1174.04 428.016 1178.42 443.267 1187.74 C 443.442 1195.4 443.513 1203.07 443.479 1210.73 C 432.812 1208.55 424.167 1206.6 413.243 1205.39 C 397.03 1204.12 380.72 1207.1 365.151 1211.4 C 365.164 1202.74 365.242 1194.08 365.385 1185.43 L 366.88 1184.71 C 377.304 1179.63 384.524 1177.98 395.775 1176.35 z" fill="rgb(7,143,102)" transform="translate(0,0)"></path>
<path d="M 1687.45 1427.78 C 1718.2 1430.21 1729.97 1431.12 1760.84 1429.86 C 1758.53 1438.92 1755.42 1447.73 1752.93 1456.74 C 1752.56 1457.6 1751.37 1461.57 1750.67 1461.71 C 1735.78 1464.66 1701.67 1461.45 1688.74 1456.01 L 1687.09 1455.34 C 1687.04 1446.15 1687.16 1436.96 1687.45 1427.78 z" fill="rgb(7,143,102)" transform="translate(0,0)"></path>
<path d="M 717.909 1422.75 C 725.031 1423.71 732.373 1425.14 739.504 1425.9 C 754.72 1427.66 770.019 1428.62 785.336 1428.77 C 784.15 1439.07 782.592 1448.45 780.631 1458.6 C 758.042 1461.52 735.856 1459.08 714.166 1452.03 C 714.971 1442.24 716.314 1432.44 717.909 1422.75 z" fill="rgb(7,143,102)" transform="translate(0,0)"></path>
<path d="M 906.055 562.395 C 921.479 560.288 945.831 562.483 960.483 568.507 C 960.897 575.129 960.907 581.521 960.98 588.142 C 948.157 586.994 936.328 586.206 923.418 586.305 C 904.476 587.059 888.698 588.092 869.904 591.415 C 869.846 584.163 869.832 578.322 869.26 571.086 C 883.126 566.294 891.511 563.981 906.055 562.395 z" fill="rgb(7,143,102)" transform="translate(0,0)"></path>
<path d="M 486.31 1176.34 C 501.632 1174.26 515.524 1178.84 529.018 1185.48 C 529.856 1194.51 529.739 1201.24 529.488 1210.28 C 520.253 1207.71 510.842 1205.57 501.25 1204.99 C 477.783 1204.5 475.99 1204.97 453.926 1210.74 C 453.985 1206.48 453.338 1189.18 455.664 1186.67 C 461.692 1180.15 478.153 1177.43 486.31 1176.34 z" fill="rgb(7,143,102)" transform="translate(0,0)"></path>
<path d="M 349.326 821.398 C 350.759 822.167 350.788 822.611 350.804 824.456 L 350.847 845.363 C 327.962 856.909 305.144 855.916 281.362 848.759 C 280.449 848.374 277.018 847.159 276.732 846.474 C 275.222 842.859 275.946 826.11 275.967 822.439 C 280.448 822.881 284.23 823.451 288.503 823.924 C 305.129 825.923 321.95 825.659 338.505 823.139 C 342.179 822.596 345.657 821.94 349.326 821.398 z" fill="rgb(7,143,102)" transform="translate(0,0)"></path>
<path d="M 1121.72 1485.43 C 1128.56 1484.48 1151.53 1484.95 1158.48 1485.47 C 1159.54 1493.6 1159.97 1501.64 1160.71 1509.77 C 1147.77 1510.93 1135.4 1511.27 1122.76 1512.32 C 1110.91 1513.43 1095.08 1514.35 1082.94 1515.14 C 1082.78 1506.68 1082.76 1498.22 1082.87 1489.76 C 1096.29 1487.01 1108.23 1486.48 1121.72 1485.43 z" fill="rgb(7,143,102)" transform="translate(0,0)"></path>
<path d="M 1294.73 1179.43 C 1308.61 1178.44 1321.44 1182.2 1334.41 1186.47 C 1334.45 1194.56 1334.38 1202.64 1334.21 1210.72 C 1321.2 1208.39 1311.69 1207.08 1298.34 1206.93 C 1286.95 1206.99 1281.31 1207.27 1270 1208.84 C 1265.76 1209.44 1261.55 1210.15 1257.35 1210.97 C 1257.32 1203.38 1257.23 1195.79 1257.09 1188.19 C 1271.34 1181.72 1279.44 1180.57 1294.73 1179.43 z" fill="rgb(7,143,102)" transform="translate(0,0)"></path>
<path d="M 1211.54 877.414 C 1223.37 876.391 1241.95 878.183 1253.31 881.873 C 1253.92 890.769 1253.8 898.497 1253.8 907.402 C 1244.08 906.628 1234.49 905.231 1224.82 904.971 C 1209.1 904.875 1195.94 905.24 1180.36 908.357 C 1180.27 899.327 1180.07 890.611 1180.36 881.573 C 1192.01 879.37 1199.77 878.3 1211.54 877.414 z" fill="rgb(7,143,102)" transform="translate(0,0)"></path>
<path d="M 1361.79 1131.58 C 1394.35 1136.55 1409.91 1137.35 1442.86 1131.4 C 1442.83 1135.4 1443.78 1152.59 1441.68 1154.57 C 1414.1 1163.04 1388.52 1162.24 1361.02 1153.98 C 1361.07 1146.26 1361.43 1139.27 1361.79 1131.58 z" fill="rgb(7,143,102)" transform="translate(0,0)"></path>
<path d="M 810.539 870.334 C 827.582 868.241 860.039 869.63 875.722 876.027 C 875.478 883.25 875.035 890.581 874.713 897.829 C 871.873 897.711 869.074 897.392 866.244 897.171 C 845.051 895.954 818.002 893.867 796.945 895.627 C 797.071 887.547 797.346 880.678 797.932 872.615 C 802.877 871.429 805.484 870.984 810.539 870.334 z" fill="rgb(7,143,102)" transform="translate(0,0)"></path>
<path d="M 1170.4 1729.18 C 1173.07 1729.85 1172.79 1747.4 1173.01 1750.89 C 1144.89 1761.22 1126.88 1763.36 1097.22 1758.23 C 1091.1 1756.77 1093.47 1755.16 1092.85 1749.01 C 1092.36 1744.24 1092.07 1739.3 1091.75 1734.52 C 1113.85 1735.58 1131.39 1736.75 1153.51 1733.18 C 1157.8 1732.49 1162.05 1731.56 1166.24 1730.39 C 1167.65 1729.98 1168.98 1729.58 1170.4 1729.18 z" fill="rgb(7,143,102)" transform="translate(0,0)"></path>
<path d="M 441.755 1426.45 C 444.154 1427.91 443.054 1443.73 443.042 1447.27 C 419.818 1457.91 392.354 1458.01 368.258 1450.24 C 362.456 1448.14 365.007 1432.57 365.049 1426.48 C 368.788 1426.93 371.332 1427.31 375.008 1427.88 C 392.901 1430.54 411.082 1430.64 429.003 1428.17 C 433.36 1427.58 437.366 1426.99 441.755 1426.45 z" fill="rgb(7,143,102)" transform="translate(0,0)"></path>
<path d="M 647.23 561.364 C 673.295 558.16 698.097 564.14 722.891 570.823 C 721.971 576.37 721.448 582.035 720.264 587.535 C 719.172 592.604 719.771 593.518 714.791 592.048 C 710.556 590.988 706.266 590.022 701.988 589.153 L 696.989 588.135 C 675.292 583.92 656.938 581.914 635.05 580.062 C 637.648 562.872 632.28 563.134 647.23 561.364 z" fill="rgb(7,143,102)" transform="translate(0,0)"></path>
<path d="M 1075.02 1402.4 C 1097.57 1407.68 1110.8 1410.87 1134.54 1410.55 C 1133.1 1418.5 1132.45 1433.21 1127.97 1439.23 C 1114.72 1443.93 1104.04 1441.95 1090.49 1439.23 C 1084.79 1438.14 1079.21 1436.5 1073.82 1434.33 C 1072.82 1433.92 1071.81 1433.51 1070.8 1433.09 C 1071.07 1430.04 1071.42 1427.03 1071.88 1424 C 1072.75 1416.77 1073.8 1409.57 1075.02 1402.4 z" fill="rgb(7,143,102)" transform="translate(0,0)"></path>
<path d="M 1332.97 1426.53 C 1333.9 1427.45 1333.83 1428 1333.8 1429.43 C 1333.66 1435.53 1333.43 1441.62 1333.11 1447.71 C 1306.76 1458.53 1287.24 1456.34 1260.34 1450.06 C 1259.45 1449.5 1258.56 1448.94 1257.67 1448.39 C 1255.76 1443.67 1256.65 1431.56 1256.65 1426.56 C 1260.45 1426.97 1263.28 1427.38 1267.01 1427.88 C 1285.07 1430.5 1303.41 1430.6 1321.5 1428.16 C 1325.43 1427.64 1328.99 1427 1332.97 1426.53 z" fill="rgb(7,143,102)" transform="translate(0,0)"></path>
<path d="M 401.694 524.447 C 403.969 526.168 402.835 540.561 402.639 543.614 C 397.835 545.249 392.476 546.904 387.49 547.886 C 373.685 550.74 359.53 551.501 345.498 550.145 C 336.026 549.302 328.328 547.406 319.218 545.048 C 314.574 544.652 315.164 544.092 316.615 539.893 C 318.38 534.789 320.486 530.069 322.927 525.254 C 352.83 529.939 372.169 528.47 401.694 524.447 z" fill="rgb(7,143,102)" transform="translate(0,0)"></path>
<path d="M 1627.11 524.66 C 1658.36 531.267 1680.66 528.372 1711.36 524.484 C 1711.45 529.17 1712.57 541.4 1710.48 544.156 C 1685.81 553.654 1652.18 552.675 1627.19 544.557 L 1627.11 524.66 z" fill="rgb(7,143,102)" transform="translate(0,0)"></path>
<path d="M 1533.35 1133.36 C 1551.57 1136.57 1581.19 1137.77 1599.25 1133.42 L 1603.19 1132.47 C 1603.17 1137.53 1604.2 1155.28 1601.8 1158.19 C 1585.14 1162.64 1570.2 1163.9 1553.01 1161.67 C 1549.55 1161.22 1535.83 1159.47 1534.17 1157.32 C 1532.22 1154.81 1532.94 1136.56 1533.35 1133.36 z" fill="rgb(7,143,102)" transform="translate(0,0)"></path>
<path d="M 783.669 322.267 C 792.375 321.735 801.489 321.849 810.235 321.864 C 808.577 341.435 808.049 362.632 809.718 382.417 C 809.744 382.725 808.184 383.235 808.094 383.268 L 784.736 383.124 C 778.177 366.475 777.254 341.2 783.051 324.217 L 783.669 322.267 z" fill="rgb(7,143,102)" transform="translate(0,0)"></path>
<path d="M 633.753 1487.4 C 637.79 1486.6 649.365 1486.76 653.692 1486.85 C 655.121 1494.4 655.887 1501.84 657.373 1509.43 C 640.376 1511.85 624.408 1514.78 607.559 1517.76 C 605.781 1518.06 604.228 1518.43 602.489 1518.77 L 590.31 1521.04 L 588.136 1505.49 C 587.749 1502.76 587.396 1500.71 586.883 1498.01 C 602.112 1491.42 617.355 1489.27 633.753 1487.4 z" fill="rgb(7,143,102)" transform="translate(0,0)"></path>
<path d="M 1267.46 609.273 L 1359.26 609.416 L 1359.34 627.495 C 1331.89 628.207 1294.63 628.399 1267.4 627.345 C 1267.31 621.321 1267.33 615.297 1267.46 609.273 z" fill="rgb(7,143,102)" transform="translate(0,0)"></path>
<path d="M 476.345 1001.83 C 484.845 1001.96 491.793 1002.18 500.215 1002.95 C 505.5 1026.67 505.487 1043.99 499.1 1067.39 C 494.84 1073.34 485.134 1070.65 477.597 1070.43 C 479.202 1047.57 478.783 1024.61 476.345 1001.83 z" fill="rgb(7,143,102)" transform="translate(0,0)"></path>
<path d="M 414.767 524.592 C 447.106 529.395 461.62 529.755 494.367 524.379 C 494.377 529.208 495.08 539.729 493.672 543.705 C 488.702 545.229 482.559 546.907 477.491 547.884 C 464.145 550.451 450.478 550.888 436.996 549.178 C 428.777 548.177 422.57 546.368 414.864 543.52 C 414.777 537.211 414.745 530.901 414.767 524.592 z" fill="rgb(7,143,102)" transform="translate(0,0)"></path>
<path d="M 517.73 921.33 L 598.545 921.239 L 598.534 941.557 C 571.607 941.879 544.678 941.986 517.748 941.877 C 517.68 935.028 517.673 928.179 517.73 921.33 z" fill="rgb(7,143,102)" transform="translate(0,0)"></path>
<path d="M 1362.77 1726.88 C 1382.18 1731.67 1405.45 1733.86 1425.33 1736.75 C 1425.03 1740.84 1424.54 1745.51 1424.26 1749.52 C 1423.8 1756.01 1422.81 1754.28 1416.5 1755.92 C 1393.55 1759.56 1382.59 1762.27 1359.61 1753.72 L 1357.76 1753.08 C 1359.55 1744.35 1361.17 1735.65 1362.77 1726.88 z" fill="rgb(7,143,102)" transform="translate(0,0)"></path>
<path d="M 507.018 524.73 C 535.073 530.822 556.536 528.159 584.189 524.451 C 584.239 528.878 585.179 540.482 583.782 543.84 C 560.944 551.434 529.854 552.513 507.031 544.426 L 507.018 524.73 z" fill="rgb(7,143,102)" transform="translate(0,0)"></path>
<path d="M 1613.88 525.292 C 1618.31 525.33 1616.52 539.595 1616.62 543.893 C 1590.27 553.6 1569.77 552.498 1542.99 546.234 C 1538.07 543.553 1538.34 543.885 1538.5 538.013 C 1538.68 534.016 1538.78 530.016 1538.78 526.016 C 1566.09 530.59 1586.8 530.376 1613.88 525.292 z" fill="rgb(7,143,102)" transform="translate(0,0)"></path>
<path d="M 1198.72 1177.29 C 1213.61 1174.92 1231.16 1177.02 1245.36 1182.1 C 1245.43 1189.19 1245.44 1196.28 1245.38 1203.37 C 1238.67 1202.68 1231.97 1201.7 1225.24 1201.06 C 1206.86 1200.59 1194.47 1201.28 1176.26 1204.38 L 1176.18 1182.94 C 1184.32 1180.02 1190.19 1178.59 1198.72 1177.29 z" fill="rgb(7,143,102)" transform="translate(0,0)"></path>
<path d="M 1731.67 873.42 C 1741.01 872.279 1764.59 872.865 1773.82 873.201 C 1773.92 881.605 1773.87 890.01 1773.67 898.412 L 1749.75 897.757 C 1736.65 897.215 1721.62 898.919 1707.91 899.061 C 1708.76 889.765 1708.98 884.51 1709.04 875.187 C 1716.22 874.8 1724.41 874.023 1731.67 873.42 z" fill="rgb(7,143,102)" transform="translate(0,0)"></path>
<path d="M 452.557 1429.51 C 478.417 1434.72 503.226 1435.42 529.001 1429.36 C 528.964 1434.12 529.257 1444.7 528.619 1448.81 C 503.339 1456.57 479.775 1458.78 454.453 1448.94 L 452.811 1448.34 L 452.557 1429.51 z" fill="rgb(7,143,102)" transform="translate(0,0)"></path>
<path d="M 1698.93 829.501 C 1700.53 831.268 1700.16 845.325 1700.32 849.27 C 1680.86 854.915 1663.15 857.046 1642.99 853.29 C 1637.89 852.372 1632.84 851.174 1627.86 849.7 C 1621.75 847.138 1624.38 837.221 1624.35 830.39 C 1652.9 834.681 1670.76 833.62 1698.93 829.501 z" fill="rgb(7,143,102)" transform="translate(0,0)"></path>
<path d="M 676.198 1132.42 C 679.574 1132.87 678.545 1150.49 678.598 1153.93 C 657.344 1160.3 635.828 1160.07 614.032 1156.72 C 608.641 1155.93 610.826 1137.84 610.813 1132.64 C 635.961 1136.69 651.505 1135.4 676.198 1132.42 z" fill="rgb(7,143,102)" transform="translate(0,0)"></path>
<path d="M 1227.32 700.909 C 1234.31 700.789 1241.3 700.846 1248.28 701.078 L 1248.6 701.812 C 1256.87 720.602 1258.25 740.531 1249.81 759.61 L 1249.05 761.385 C 1244.1 768.207 1237.29 766.05 1229.01 766.049 C 1229.25 742.675 1229.78 724.476 1227.32 700.909 z" fill="rgb(7,143,102)" transform="translate(0,0)"></path>
<path d="M 1146.49 1128.08 C 1150.43 1127.21 1150.36 1128.14 1150.84 1132.47 C 1151.58 1139.12 1152.69 1145.58 1153.38 1152.23 C 1135.31 1163.03 1122.58 1162.67 1102.5 1163.58 C 1098.86 1163.26 1099.45 1163.01 1098.77 1159.04 C 1098.06 1156.06 1097.51 1153.03 1097.13 1149.99 L 1095.39 1136.5 C 1115.19 1135.75 1127.46 1133.01 1146.49 1128.08 z" fill="rgb(7,143,102)" transform="translate(0,0)"></path>
<path d="M 277.709 881.266 L 297.216 881.08 C 296.874 883.066 296.309 885.588 296.116 887.502 C 293.514 911.91 293.819 936.54 297.025 960.876 C 290.574 960.914 284.698 960.867 278.255 960.545 C 275.033 933.864 273.997 908 277.709 881.266 z" fill="rgb(7,143,102)" transform="translate(0,0)"></path>
<path d="M 1526.65 526.457 C 1528.38 528.278 1527.31 541.491 1527.13 544.528 C 1508.21 551.345 1482.31 552.57 1462.87 547.373 L 1458.26 546.121 C 1452.46 544.674 1455.26 532.084 1455.37 526.573 C 1484.66 529.44 1497.2 529.746 1526.65 526.457 z" fill="rgb(7,143,102)" transform="translate(0,0)"></path>
<path d="M 1176.2 1430.64 C 1200.62 1434.97 1220.69 1434.02 1244.94 1430.4 C 1244.9 1437.77 1246.5 1446.32 1242.63 1451.22 C 1220.46 1456.69 1198.73 1457.82 1176.57 1451.09 C 1176.22 1444.04 1176.23 1437.67 1176.2 1430.64 z" fill="rgb(7,143,102)" transform="translate(0,0)"></path>
<path d="M 1158.43 1520.49 C 1162.75 1520.05 1161.12 1534.91 1161.26 1538.8 C 1136.2 1541.44 1111.04 1542.96 1085.85 1543.36 C 1082.11 1542 1083.22 1529.29 1083.13 1525.08 C 1106.3 1524.41 1134.96 1522.03 1158.43 1520.49 z" fill="rgb(7,143,102)" transform="translate(0,0)"></path>
<path d="M 663.242 524.446 C 665.137 525.859 664.555 541.041 664.539 544.017 C 658.931 545.505 653.22 546.926 647.492 547.865 C 634.388 549.918 621.031 549.725 607.992 547.293 C 604.556 546.641 601.59 545.912 598.201 545.114 C 592.426 542.055 594.939 531.078 594.989 524.467 C 622.508 528.92 636.152 527.907 663.242 524.446 z" fill="rgb(7,143,102)" transform="translate(0,0)"></path>
<path d="M 1532.69 1518.14 L 1619.78 1518.04 C 1619.84 1523.66 1619.87 1529.29 1619.85 1534.91 C 1592.56 1535.19 1559.4 1535.7 1532.41 1534.51 C 1532.54 1529.05 1532.63 1523.6 1532.69 1518.14 z" fill="rgb(7,143,102)" transform="translate(0,0)"></path>
<path d="M 1647.82 575.355 C 1662.56 573.53 1678.54 575.709 1692.55 580.409 C 1693.05 587.197 1693.1 593.77 1693.19 600.575 C 1684.6 598.994 1679.21 598.222 1670.58 597.13 C 1653.95 596.641 1641.16 596.928 1624.94 600.505 L 1625.01 581.236 C 1633.84 577.618 1638.54 576.676 1647.82 575.355 z" fill="rgb(7,143,102)" transform="translate(0,0)"></path>
<path d="M 1629.73 1517.49 C 1660.98 1518.03 1695.77 1518.12 1726.68 1519.37 L 1721.13 1531.49 C 1720.84 1531.86 1719.76 1533.38 1719.73 1533.38 C 1703.12 1535.27 1641.44 1533.15 1629.47 1533.04 C 1629.43 1528.09 1629.2 1522.33 1629.73 1517.49 z" fill="rgb(7,143,102)" transform="translate(0,0)"></path>
<path d="M 686.171 1731.17 C 691.122 1730.19 690.028 1732.4 690.836 1737.5 C 691.516 1741.79 691.982 1746.36 692.52 1750.68 C 668.721 1762.48 659.963 1761.35 634.219 1756.26 C 631.046 1755.48 628.286 1754.89 625.123 1754.2 C 624.492 1749.79 624.018 1745.36 623.059 1741.01 L 622.646 1739.02 C 647.607 1738.91 662.199 1736.85 686.171 1731.17 z" fill="rgb(7,143,102)" transform="translate(0,0)"></path>
<path d="M 908.849 596.431 C 924.414 594.975 946.033 596.229 961.546 597.605 C 961.64 602.665 961.867 607.98 961.792 613.011 C 947.961 611.24 934.137 611.088 920.211 611.163 C 909.112 611.787 899.449 612.759 888.497 613.897 L 870.026 615.969 C 869.976 610.972 869.878 605.975 869.733 600.98 C 883.548 598.464 894.988 597.419 908.849 596.431 z" fill="rgb(7,143,102)" transform="translate(0,0)"></path>
<path d="M 1518.96 1134.45 C 1519.72 1137.29 1519.04 1151.73 1518.95 1155.8 C 1498.24 1160.72 1478.1 1162.74 1457.33 1156.53 C 1455.33 1154.37 1456.15 1139.3 1456.12 1135.25 C 1478.72 1139.09 1496.68 1137.36 1518.96 1134.45 z" fill="rgb(7,143,102)" transform="translate(0,0)"></path>
<path d="M 450.589 1479.29 C 463.587 1477.37 479.587 1479.71 492.001 1483.7 C 492.551 1490.81 492.837 1496.73 493.016 1503.89 C 491.385 1503.62 489.631 1503.3 487.997 1503.12 L 470.246 1501.36 C 456.021 1500.36 441.307 1502.36 427.122 1503.91 C 427.66 1497.14 427.989 1491.85 428.124 1485.01 C 435.904 1482.05 442.388 1480.56 450.589 1479.29 z" fill="rgb(7,143,102)" transform="translate(0,0)"></path>
<path d="M 654.365 1519.33 C 659.014 1518.33 659.025 1518.71 659.845 1523.51 C 660.626 1528.07 661.065 1532.63 661.616 1537.22 C 659.367 1537.76 656.719 1538.45 654.491 1538.88 C 635.784 1542.42 617.024 1545.67 598.217 1548.63 C 591.36 1549.9 591.324 1535.83 590.447 1530.24 C 611.009 1525.84 633.496 1522.57 654.365 1519.33 z" fill="rgb(7,143,102)" transform="translate(0,0)"></path>
<path d="M 1127.2 304.411 C 1133.32 304.204 1139.45 304.082 1145.58 304.046 C 1146.19 327.125 1145.76 353.585 1145.62 376.864 C 1139.44 376.993 1133.27 377.044 1127.09 377.015 C 1126.92 354.459 1126.38 326.629 1127.2 304.411 z" fill="rgb(7,143,102)" transform="translate(0,0)"></path>
<path d="M 320.304 1518 C 352.885 1518.15 382.394 1519.38 415.363 1518.06 C 415.3 1523.01 415.275 1527.96 415.289 1532.91 C 408.332 1533.74 396.908 1533.18 389.5 1533.36 C 369.058 1533.86 348.501 1533.13 328.104 1533.08 C 325.817 1528.14 322.819 1523.07 320.304 1518 z" fill="rgb(7,143,102)" transform="translate(0,0)"></path>
<path d="M 1368.93 828.549 C 1395.54 830.93 1406.84 831.052 1432.95 828.755 C 1432.93 835.075 1433.17 842.465 1432.51 848.654 C 1416.71 853.609 1385.67 852.596 1369.63 848.115 C 1369.02 841.105 1368.97 835.561 1368.93 828.549 z" fill="rgb(7,143,102)" transform="translate(0,0)"></path>
<path d="M 1482.16 879.417 C 1493.86 878.656 1507.96 881.668 1519.3 884.578 C 1519.51 891.172 1519.59 897.768 1519.56 904.365 L 1518.18 904.02 C 1507.5 901.23 1503.65 901.065 1492.75 900.723 C 1478.83 900.478 1469.3 901.449 1455.73 904.092 C 1455.67 896.924 1455.43 889.784 1455.4 882.63 C 1464.63 881.116 1472.88 880.183 1482.16 879.417 z" fill="rgb(7,143,102)" transform="translate(0,0)"></path>
<path d="M 1654.4 1310.81 C 1660.85 1310.72 1667.31 1310.71 1673.77 1310.77 C 1676.21 1332.75 1677.17 1353.68 1673.04 1375.59 C 1668.38 1376.27 1658.63 1375.94 1653.71 1375.9 C 1655.35 1352.32 1655.81 1334.82 1654.4 1310.81 z" fill="rgb(7,143,102)" transform="translate(0,0)"></path>
<path d="M 970.292 1688.07 C 976.472 1688.11 981.448 1688.09 987.601 1688.57 C 992.444 1717.23 989.865 1732.75 988.808 1759.95 C 982.853 1760.24 976.957 1760.22 970.996 1760.23 C 971.756 1733.86 973.013 1715.22 970.292 1688.07 z" fill="rgb(7,143,102)" transform="translate(0,0)"></path>
<path d="M 1457.51 1388.46 C 1458.93 1388.27 1461.07 1387.8 1462.41 1388.56 C 1462.99 1388.89 1463.17 1390.34 1463.23 1390.93 C 1463.89 1396.94 1464.2 1460.98 1463.41 1461.61 C 1461.72 1462.94 1455.18 1462.12 1453.02 1462.1 C 1451.33 1462.02 1449.19 1462.27 1447.6 1461.65 C 1446.99 1461.42 1446.42 1461.03 1446.21 1460.39 C 1444.74 1455.85 1445.91 1390.39 1446.54 1389.61 C 1447.67 1388.21 1455.85 1388.56 1457.51 1388.46 z" fill="rgb(7,143,102)" transform="translate(0,0)"></path>
<path d="M 285.364 1001.91 C 291.226 1001.76 297.09 1001.66 302.954 1001.59 C 301.534 1016.28 300.669 1030.72 301.183 1045.5 C 301.449 1053.13 303.294 1063 302.817 1070.31 C 296.542 1070.51 291.269 1070.56 285.002 1070.36 C 281.747 1041.07 282.225 1030.21 285.364 1001.91 z" fill="rgb(7,143,102)" transform="translate(0,0)"></path>
<path d="M 1397.95 1484.19 C 1418.24 1483.96 1443.26 1487.42 1462.43 1494.06 C 1461.27 1499.77 1460.26 1505.39 1459.44 1511.16 C 1438.98 1509.05 1417.8 1504.94 1396.85 1502.73 C 1397.15 1496.86 1397.5 1490.02 1397.95 1484.19 z" fill="rgb(7,143,102)" transform="translate(0,0)"></path>
<path d="M 778.752 1475.06 C 784.205 1474.84 789.663 1474.79 795.118 1474.91 C 796.3 1495.91 795.759 1526.54 795.264 1547.98 C 789.615 1548.09 783.965 1548.05 778.318 1547.85 C 777.978 1524.73 778.483 1498.41 778.752 1475.06 z" fill="rgb(7,143,102)" transform="translate(0,0)"></path>
<path d="M 1085.5 782.728 C 1091 782.71 1096.5 782.723 1102 782.767 C 1102.23 800.67 1102.66 834.692 1100.48 851.954 L 1086.54 851.946 C 1081.13 828.01 1082.33 806.686 1085.5 782.728 z" fill="rgb(7,143,102)" transform="translate(0,0)"></path>
<path d="M 310.294 583.308 C 320.703 582.375 333.993 586.08 344.019 588.806 L 350.761 590.575 C 350.722 596.948 350.588 603.319 350.359 609.688 C 345.608 608.682 340.858 607.297 335.981 607.116 C 319.724 604.769 307.05 605.732 290.911 607.048 C 292.827 600.925 294.249 595.219 296.51 589.058 L 297.882 585.322 L 298.487 585.231 C 302.371 584.685 306.278 583.893 310.294 583.308 z" fill="rgb(7,143,102)" transform="translate(0,0)"></path>
<path d="M 1147.58 408.99 C 1153.68 408.822 1159.77 408.8 1165.86 408.925 C 1163.22 432.188 1163.72 451.408 1165.6 474.554 C 1161.41 475.369 1153.94 475.048 1149.34 475.053 C 1144.99 452.609 1145.26 431.608 1147.58 408.99 z" fill="rgb(7,143,102)" transform="translate(0,0)"></path>
<path d="M 776.525 414.929 C 782.436 414.82 788.348 414.824 794.258 414.941 C 792.8 426.399 792.249 437.954 792.61 449.499 C 792.725 454.178 794.385 474.063 793.744 476.892 C 788.076 476.854 783.097 476.875 777.417 476.499 C 777.001 474.239 776.446 471.753 776.141 469.495 C 773.739 451.376 773.868 433.012 776.525 414.929 z" fill="rgb(7,143,102)" transform="translate(0,0)"></path>
<path d="M 1602.17 944.485 C 1606.44 944.327 1604.53 955.809 1604.5 959.389 C 1581.7 960.275 1557.69 959.926 1534.76 960.2 C 1530.31 959.176 1532.31 949.115 1532.27 944.615 C 1555.57 944.886 1578.87 944.842 1602.17 944.485 z" fill="rgb(7,143,102)" transform="translate(0,0)"></path>
<path d="M 1130.87 487.238 C 1136.23 486.904 1141.06 486.685 1146.44 486.583 C 1145 505.674 1143.05 524.279 1144.95 543.499 C 1145.23 546.259 1146.01 549.283 1143.88 550.964 L 1129.24 550.98 C 1127.95 531.917 1124.39 505.635 1130.87 487.238 z" fill="rgb(7,143,102)" transform="translate(0,0)"></path>
<path d="M 1335.44 408.735 C 1340.74 408.615 1345.19 408.582 1350.5 408.735 C 1354.85 434.261 1352.69 449.705 1350.67 474.939 C 1345.46 475.171 1340.24 475.177 1335.02 475.233 C 1337.82 454.085 1337.65 429.986 1335.44 408.735 z" fill="rgb(7,143,102)" transform="translate(0,0)"></path>
<path d="M 768.328 1726.99 C 771.125 1727.37 773.111 1741.13 773.811 1744.4 C 758.914 1754.26 744.712 1757.2 727.232 1759.66 C 724.489 1759.19 725.182 1757.58 724.64 1755.02 L 723.764 1751.02 C 722.979 1747.57 722.029 1744.14 721.19 1740.7 L 735.015 1737.27 C 737.011 1736.8 739.001 1736.31 740.986 1735.8 C 750.994 1733.23 758.725 1730.95 768.328 1726.99 z" fill="rgb(7,143,102)" transform="translate(0,0)"></path>
<path d="M 817.229 573.391 C 827.215 571.914 845.54 573.283 855.653 574.628 C 856.036 581.163 856.517 586.544 857.086 593.025 C 852.036 592.252 847.405 591.803 842.416 591.072 C 826.538 590.742 816.673 590.919 801.007 593.542 C 800.59 587.451 800.121 581.592 799.823 575.483 L 817.229 573.391 z" fill="rgb(7,143,102)" transform="translate(0,0)"></path>
<path d="M 812.735 1615.5 C 817.874 1615.52 823.012 1615.5 828.15 1615.42 C 826.6 1639.4 826.844 1652.72 829.03 1677 C 823.472 1676.8 818.826 1676.76 813.285 1676.83 C 809.83 1660.9 809.227 1631.67 812.735 1615.5 z" fill="rgb(7,143,102)" transform="translate(0,0)"></path>
<path d="M 609.11 944.723 C 630.229 944.64 651.35 944.697 672.469 944.894 C 672.707 949.956 672.839 955.022 672.866 960.09 C 655.058 960.899 627.268 961.242 609.242 960.332 C 609.114 955.13 609.07 949.927 609.11 944.723 z" fill="rgb(7,143,102)" transform="translate(0,0)"></path>
<path d="M 1455.17 333.039 C 1479.33 332.953 1503.49 333.22 1527.65 333.841 C 1527.77 337.355 1528.41 343.109 1526.74 345.96 C 1502.37 346.887 1478.57 345.812 1455.13 346.724 C 1455.08 342.162 1455.1 337.6 1455.17 333.039 z" fill="rgb(7,143,102)" transform="translate(0,0)"></path>
<path d="M 768.04 1121.02 C 772.758 1121.05 771.925 1133.86 772.854 1138.92 C 756.792 1146.73 746.583 1149.39 729.19 1153.28 C 725.86 1150.66 724.812 1138.51 723.724 1133.7 C 740.861 1129.99 751.566 1126.61 768.04 1121.02 z" fill="rgb(7,143,102)" transform="translate(0,0)"></path>
<path d="M 1459.3 1310.9 C 1464 1310.88 1468.58 1310.82 1473.3 1310.86 C 1472.35 1327.94 1470.72 1344.51 1472.45 1361.67 C 1472.93 1366.49 1472.96 1371.39 1473.05 1376.24 C 1468.6 1376.24 1464.15 1376.16 1459.7 1376.01 C 1456.71 1350.38 1455.99 1336.4 1459.3 1310.9 z" fill="rgb(7,143,102)" transform="translate(0,0)"></path>
<path d="M 574.477 707.503 C 575.376 707.497 583.518 706.947 583.764 708.061 C 585.431 715.619 586.825 771.72 582.245 772.995 L 581.233 773.289 C 578.767 773.194 572.141 774.268 571.939 771.109 C 570.613 750.335 569.458 729.03 570.611 708.322 C 570.659 707.455 574.554 707.5 574.477 707.503 z" fill="rgb(7,143,102)" transform="translate(0,0)"></path>
<path d="M 439.174 792.127 C 443.605 791.994 447.358 792.008 451.779 792.116 C 451.911 801.826 452.761 844.522 451.705 852.106 C 440.362 852.372 441.353 854.185 439.523 843.627 C 436.519 826.298 438.052 809.491 439.174 792.127 z" fill="rgb(7,143,102)" transform="translate(0,0)"></path>
<path d="M 1510.36 819.056 C 1515.1 817.778 1515.89 831.913 1516.56 835.7 C 1503.25 840.84 1491.7 842.997 1477.92 845.41 C 1477.63 845.358 1474.69 844.985 1474.57 844.59 C 1473.03 839.298 1472.39 832.329 1471.44 826.685 C 1486.87 825.11 1495.39 823.707 1510.36 819.056 z" fill="rgb(7,143,102)" transform="translate(0,0)"></path>
<path d="M 605.439 1426.03 C 609.639 1425.58 610.006 1438.78 610.552 1442.62 C 606.021 1444.33 603.289 1445.46 598.447 1446.71 L 594.456 1447.71 C 583.536 1450.36 581.658 1450.77 570.75 1451.55 C 565.311 1450.09 566.962 1439.49 566.231 1433.95 C 581.201 1431.97 590.823 1430.23 605.439 1426.03 z" fill="rgb(7,143,102)" transform="translate(0,0)"></path>
<path d="M 566.361 792.465 C 570.534 792.518 574.705 792.666 578.872 792.91 C 578.941 812.749 578.9 832.588 578.748 852.426 C 574.29 852.392 570.561 852.252 566.096 851.962 C 566.003 843.056 565.373 798.033 566.361 792.465 z" fill="rgb(7,143,102)" transform="translate(0,0)"></path>
<path d="M 1681.44 1134.16 C 1684.9 1134.52 1685.04 1146.9 1685.37 1150.28 C 1670.47 1156.3 1661.91 1156.93 1646.31 1159 C 1643.74 1156.29 1642.84 1144.38 1642.18 1140.29 C 1660.23 1139.6 1664.25 1138.34 1681.44 1134.16 z" fill="rgb(7,143,102)" transform="translate(0,0)"></path>
<path d="M 1454.94 301.693 C 1466.05 306.599 1500.38 317.463 1508.63 322.653 C 1494.17 323.455 1471.01 321.823 1455.13 321.892 L 1454.94 301.693 z" fill="rgb(7,143,102)" transform="translate(0,0)"></path>
<path d="M 276.586 1078.21 C 276.788 1078.27 280.528 1079.19 280.516 1079.72 C 279.997 1102.53 283.533 1135.89 280.495 1157.78 C 280.299 1157.72 276.469 1156.81 276.492 1156.28 C 277.453 1133.95 273.313 1099.83 276.586 1078.21 z" fill="rgb(7,143,102)" transform="translate(0,0)"></path>
<path d="M 1719.03 526.549 C 1732.1 530.245 1732.24 539.078 1738.6 551.867 C 1732.16 551.021 1725.79 550.385 1719.33 549.444 C 1719.18 541.813 1719.08 534.181 1719.03 526.549 z" fill="rgb(7,143,102)" transform="translate(0,0)"></path>
<path d="M 651.984 289.269 C 654.556 289.048 659.276 287.441 658.558 290.86 C 655.794 292.443 654.583 290.917 651.984 289.269 z" fill="rgb(7,143,102)" transform="translate(0,0)"></path>
<path d="M 1718.29 514.511 C 1718.66 514.476 1719.04 514.442 1719.42 514.407 C 1719.37 514.939 1719.31 515.47 1719.26 516.002 C 1718.6 515.509 1718.62 515.323 1718.29 514.511 z" fill="rgb(135,181,171)" transform="translate(0,0)"></path>
<metadata><recraft-signature>{"signed_by": "recraft", "signature_b64": "6ORmyPSOCkVJ6FWuInSy3XUpbtr9aB89AhK5N8yQLRTIgZPkJILXl2I9Wmd5s8Rtk0foUwFMBhb70m0SYmdXCA==", "signing_algo": "Ed25519", "generation_timestamp": 1772776949, "identifier": "31d3374e-6839-40fd-9eaf-1b27b100e7fe"}</recraft-signature></metadata></svg>