<svg xmlns="http://www.w3.org/2000/svg" height="1024" preserveAspectRatio="none" style="display: block;" version="1.1" viewBox="0 0 2048 2048" width="1024">
<path d="M 0 0 L 2048 0 L 2048 2048 L 0 2048 L 0 0 z" fill="rgb(254,254,253)" transform="translate(0,0)"></path>
<path d="M 1038.05 374.308 C 1073.1 387.393 1108.36 399.895 1143.83 411.809 C 1163.17 418.353 1198.07 429.448 1216.03 437.393 L 1215.87 567.468 C 1215.89 587.584 1215.27 611.598 1215.97 631.448 L 1216.01 723.016 L 1216.22 842.048 C 1238.89 850.127 1265.96 859.956 1288.9 866.704 C 1288.93 875.839 1288.69 887.045 1289.01 896.035 L 1288.95 1005.21 C 1320.25 1017.81 1363.96 1030.17 1397 1041.38 L 1396.72 1176.03 C 1416.16 1181.72 1436.08 1188.42 1455.56 1194.46 C 1474.16 1200.22 1498.41 1206.66 1516.31 1213.52 C 1523 1209.77 1531.26 1203.87 1537.69 1199.3 C 1604.08 1152.11 1711.46 1114.65 1784.1 1173.46 C 1782.91 1218.99 1783.88 1268.09 1783.98 1313.82 C 1770.6 1303.31 1748.36 1294.38 1731.92 1290.3 C 1664.33 1273.51 1581.27 1301.35 1527.31 1343.31 C 1505.77 1360.06 1490.73 1377.03 1471.18 1395.26 C 1453.62 1411.64 1427.66 1429.29 1407.01 1441.88 C 1341.66 1482.6 1265.69 1502.99 1188.73 1500.47 C 1094.97 1496.99 1016.18 1472.44 943.415 1412.39 C 917.973 1390.39 893.565 1368.45 867.325 1347.29 C 705.218 1216.51 461.724 1205.4 283.863 1313.71 L 283.929 1184.26 C 398.105 1122.63 555.322 1102.24 681.4 1133.28 C 681.432 1128.07 681.602 1122.72 681.711 1117.5 L 681.448 1042.72 C 693.912 1037.67 709.438 1033.37 722.515 1029.16 C 744.398 1021.95 766.331 1014.89 788.312 1007.98 L 788.191 867.881 C 813.286 858.722 842.441 849.786 868.054 841.145 C 867.934 770.806 866.818 695.755 868.252 625.735 C 869.535 587.792 869.686 535.543 868.074 497.784 C 867.262 478.078 867.887 452.822 867.864 432.77 L 905.022 419.261 C 920.462 414.939 936.781 408.489 952.118 403.432 C 980.737 393.998 1009.44 383.676 1038.05 374.308 z" fill="rgb(2,46,100)" transform="translate(0,0)"></path>
<path d="M 681.4 1133.28 C 681.432 1128.07 681.602 1122.72 681.711 1117.5 C 681.863 1122.85 681.932 1128.19 681.919 1133.54 C 696.556 1137.02 728.554 1144.94 742.726 1150.49 C 747.315 1152.23 751.562 1153.87 756.259 1155.35 C 784.147 1167.65 812.445 1180.15 839.076 1195 C 859.807 1206.9 878.86 1219.09 897.852 1233.65 C 901.24 1236.25 906.327 1240.19 909.927 1242.28 C 923.364 1233.7 1018.54 1205.93 1039 1198.13 C 1040.95 1197.39 1043.99 1197.93 1046.04 1198.33 C 1046.3 1174.7 1046.31 1151.07 1046.07 1127.44 C 1065.99 1135.69 1095.25 1144.15 1116.16 1150.87 L 1205.57 1180.42 C 1289.81 1208.39 1374.28 1235.62 1458.99 1262.11 C 1476.98 1244.64 1496.13 1228.41 1516.31 1213.52 C 1523 1209.77 1531.26 1203.87 1537.69 1199.3 C 1604.08 1152.11 1711.46 1114.65 1784.1 1173.46 C 1782.91 1218.99 1783.88 1268.09 1783.98 1313.82 C 1770.6 1303.31 1748.36 1294.38 1731.92 1290.3 C 1664.33 1273.51 1581.27 1301.35 1527.31 1343.31 C 1505.77 1360.06 1490.73 1377.03 1471.18 1395.26 C 1453.62 1411.64 1427.66 1429.29 1407.01 1441.88 C 1341.66 1482.6 1265.69 1502.99 1188.73 1500.47 C 1094.97 1496.99 1016.18 1472.44 943.415 1412.39 C 917.973 1390.39 893.565 1368.45 867.325 1347.29 C 705.218 1216.51 461.724 1205.4 283.863 1313.71 L 283.929 1184.26 C 398.105 1122.63 555.322 1102.24 681.4 1133.28 z" fill="rgb(33,106,252)" transform="translate(0,0)"></path>
<path d="M 1046.07 1127.44 C 1065.99 1135.69 1095.25 1144.15 1116.16 1150.87 L 1205.57 1180.42 C 1289.81 1208.39 1374.28 1235.62 1458.99 1262.11 C 1415.64 1305.84 1370.58 1339.68 1314.53 1366.16 C 1308.25 1369.13 1291.29 1376.62 1285.14 1377.75 C 1284.45 1344.47 1285.04 1309.18 1285.03 1275.74 C 1264.04 1267.7 1238.83 1260.21 1217.03 1253.28 L 1111.45 1219.76 C 1099.07 1215.86 1055.59 1203.28 1046.04 1198.33 C 1046.3 1174.7 1046.31 1151.07 1046.07 1127.44 z" fill="rgb(254,254,253)" transform="translate(0,0)"></path>
<path d="M 909.927 1242.28 C 923.364 1233.7 1018.54 1205.93 1039 1198.13 C 1040.95 1197.39 1043.99 1197.93 1046.04 1198.33 C 1055.59 1203.28 1099.07 1215.86 1111.45 1219.76 L 1217.03 1253.28 C 1238.83 1260.21 1264.04 1267.7 1285.03 1275.74 C 1285.04 1309.18 1284.45 1344.47 1285.14 1377.75 C 1269.83 1383.61 1242.58 1389.42 1226.02 1391.77 C 1226.11 1368.81 1226.01 1345.85 1225.72 1322.89 C 1189.65 1312.81 1151.88 1300.34 1116.03 1289.32 C 1099.98 1284.39 1059.86 1273.68 1046.14 1267.24 C 1043.54 1263.35 1000.4 1280.57 993.787 1282.3 C 986.881 1284.11 973.966 1288.81 967.884 1292 C 962.615 1287.94 950.879 1276.63 945.329 1271.65 C 933.933 1261.38 922.122 1251.58 909.927 1242.28 z" fill="rgb(2,46,100)" transform="translate(0,0)"></path>
<path d="M 1046.14 1267.24 C 1059.86 1273.68 1099.98 1284.39 1116.03 1289.32 C 1151.88 1300.34 1189.65 1312.81 1225.72 1322.89 C 1226.01 1345.85 1226.11 1368.81 1226.02 1391.77 C 1184.85 1402.19 1082.23 1374.68 1045.9 1348.96 C 1045.9 1346.02 1045.91 1343.09 1045.95 1340.16 C 1045.83 1316.69 1045.59 1290.59 1046.14 1267.24 z" fill="rgb(254,254,253)" transform="translate(0,0)"></path>
<path d="M 967.884 1292 C 973.966 1288.81 986.881 1284.11 993.787 1282.3 C 1000.4 1280.57 1043.54 1263.35 1046.14 1267.24 C 1045.59 1290.59 1045.83 1316.69 1045.95 1340.16 C 1041.74 1340.09 1037.93 1339.59 1034.21 1341.22 C 1029.46 1339.02 1024.96 1335.67 1020.76 1332.59 L 1017.67 1330.36 L 1014.12 1327.81 L 1010 1324.85 C 1004.66 1321.06 1000.01 1317.51 994.828 1313.57 L 985.367 1306.26 C 979.5 1301.81 973.582 1296.69 967.884 1292 z" fill="rgb(14,87,217)" transform="translate(0,0)"></path>
<path d="M 1034.21 1341.22 C 1037.93 1339.59 1041.74 1340.09 1045.95 1340.16 C 1045.91 1343.09 1045.9 1346.02 1045.9 1348.96 C 1042.25 1346.02 1038.34 1343.43 1034.21 1341.22 z" fill="rgb(2,46,100)" transform="translate(0,0)"></path>
<path d="M 742.823 1090.33 C 759.065 1083.8 777.969 1078 794.748 1072.32 L 884.005 1042 L 976.094 1011.64 C 986.765 1008.08 1037.78 989.161 1045.98 991.311 L 1045.99 1061.33 C 1029.49 1059.36 796.251 1142.48 756.259 1155.35 C 751.562 1153.87 747.315 1152.23 742.726 1150.49 L 742.823 1090.33 z" fill="rgb(14,87,217)" transform="translate(0,0)"></path>
<path d="M 1045.98 991.311 C 1110.66 1012.11 1175.07 1033.75 1239.19 1056.23 C 1268.67 1066.4 1305.33 1077.43 1333.63 1089.19 C 1333.93 1111.27 1334.02 1133.35 1333.89 1155.43 C 1267.84 1132.36 1198.36 1110.66 1131.62 1089.05 C 1114.09 1083.22 1096.51 1077.54 1078.88 1072.02 C 1069.62 1069.1 1054.73 1064.85 1045.99 1061.33 L 1045.98 991.311 z" fill="rgb(254,254,253)" transform="translate(0,0)"></path>
<path d="M 839.076 1195 C 882.535 1181.37 925.799 1167.11 968.855 1152.25 C 992.308 1144.11 1015.95 1135.72 1039.46 1127.71 C 1041.99 1126.85 1043.51 1126.7 1046.07 1127.44 C 1046.31 1151.07 1046.3 1174.7 1046.04 1198.33 C 1043.99 1197.93 1040.95 1197.39 1039 1198.13 C 1018.54 1205.93 923.364 1233.7 909.927 1242.28 C 906.327 1240.19 901.24 1236.25 897.852 1233.65 C 878.86 1219.09 859.807 1206.9 839.076 1195 z" fill="rgb(14,87,217)" transform="translate(0,0)"></path>
<path d="M 846.952 915.966 L 976.183 874.959 C 997.163 868.123 1018.45 860.669 1039.43 853.784 C 1043.05 852.597 1043.7 852.856 1046.23 854.236 L 1046.17 923.695 C 1043.48 922.895 1040.97 922.106 1038.21 922.967 C 1017.59 929.383 997.119 936.906 976.607 943.686 C 933.525 958.01 890.261 971.779 846.825 984.99 L 846.952 915.966 z" fill="rgb(14,87,217)" transform="translate(0,0)"></path>
<path d="M 1046.23 854.236 C 1060.69 861.021 1087.12 868.741 1103.2 873.895 C 1144.25 886.957 1185.46 899.514 1226.83 911.563 C 1226.84 935.039 1227.09 958.946 1226.85 982.385 C 1179.47 967.582 1132.25 952.299 1085.19 936.537 C 1079.42 934.6 1050.04 925.776 1046.17 923.695 L 1046.23 854.236 z" fill="rgb(254,254,253)" transform="translate(0,0)"></path>
<path d="M 923.661 618.718 C 948.603 610.786 973.393 602.382 998.017 593.511 C 1005.83 590.717 1040.31 576.696 1046.07 579.396 C 1046.05 602.22 1046.48 626.697 1045.98 649.375 C 1035.91 648.24 1008.44 659.255 997.771 662.985 C 973.112 671.732 948.373 680.252 923.558 688.546 C 923.003 665.699 923.517 641.651 923.661 618.718 z" fill="rgb(14,87,217)" transform="translate(0,0)"></path>
<path d="M 923.857 482.213 C 949.712 472.186 976.977 463.897 1003.26 454.456 C 1014.19 450.532 1029.1 445.296 1040.49 442.071 C 1042.66 441.456 1044.71 443.498 1046.39 444.784 C 1046.18 467.26 1046.08 489.737 1046.1 512.214 C 1036.67 510.719 1011.03 521.059 1000.56 524.658 C 974.97 533.416 949.436 542.344 923.962 551.44 C 923.571 528.706 923.875 505.018 923.857 482.213 z" fill="rgb(14,87,217)" transform="translate(0,0)"></path>
<path d="M 926.194 756.65 C 940.757 751.394 1040.35 714.17 1046.4 716.014 C 1046.34 739.53 1046.01 763.953 1046.43 787.43 C 1037.31 784.776 1005.61 797.71 994.442 801.471 C 971.853 808.853 949.194 816.017 926.467 822.961 C 926.698 800.857 926.607 778.751 926.194 756.65 z" fill="rgb(14,87,217)" transform="translate(0,0)"></path>
<path d="M 1046.4 716.014 C 1056.06 721.183 1081.53 729.329 1093.07 733.297 C 1113.98 740.555 1134.83 747.989 1155.61 755.6 C 1155.8 778.237 1155.85 800.875 1155.77 823.513 C 1119.72 811.6 1082.15 799.862 1046.43 787.43 C 1046.01 763.953 1046.34 739.53 1046.4 716.014 z" fill="rgb(254,254,253)" transform="translate(0,0)"></path>
<path d="M 1046.07 579.396 C 1078.35 592.589 1121.94 607.171 1155.18 618.781 C 1155.4 641.646 1156.03 665.193 1156.03 687.945 C 1130.1 677.883 1103.18 669.437 1076.94 660.173 C 1071.78 658.349 1048.61 651.059 1045.98 649.375 C 1046.48 626.697 1046.05 602.22 1046.07 579.396 z" fill="rgb(254,254,253)" transform="translate(0,0)"></path>
<path d="M 1046.39 444.784 C 1082.56 458.249 1118.97 471.074 1155.59 483.254 C 1155.88 505.787 1155.87 528.323 1155.55 550.855 C 1119.47 537.094 1081.87 525.799 1046.1 512.214 C 1046.08 489.737 1046.18 467.26 1046.39 444.784 z" fill="rgb(254,254,253)" transform="translate(0,0)"></path>
<path d="M 537.234 1324.44 C 659.848 1317.84 785.378 1364.25 873.198 1449.58 C 918.143 1493.25 982.335 1534.23 1041.13 1556.34 C 1175.56 1606.84 1325.96 1590.86 1446.77 1513.22 C 1469.63 1498.27 1491.23 1481.49 1511.35 1463.03 C 1524.09 1451.33 1535.51 1438.53 1548.06 1426.74 C 1590.94 1386.42 1652.66 1357.41 1712.46 1367.25 C 1740.31 1371.84 1762.35 1384.69 1783.51 1402.71 C 1786.39 1532.03 1727.3 1636.28 1622.92 1710.14 C 1622.1 1710.72 1621.26 1711.28 1620.42 1711.84 C 1520.41 1777.41 1444.73 1768.61 1332.41 1768.96 L 1149.41 1768.97 C 1119.64 1769 1083.48 1770.59 1054.07 1767.16 C 1050.42 1766.73 1034.98 1761.13 1030.57 1759.54 C 984.385 1742.42 941.441 1717.59 903.576 1686.08 C 878.266 1665.14 855.819 1642.3 829.274 1622.23 C 674.499 1505.2 498.728 1481.91 332.086 1590.72 C 307.831 1554.99 290.182 1494.2 285.868 1450.97 C 284.461 1436.87 284.482 1420.68 284.576 1406.4 C 316.949 1380.71 355.487 1364.82 393.98 1350.83 C 440.11 1334.07 488.383 1326.74 537.234 1324.44 z" fill="rgb(33,106,252)" transform="translate(0,0)"></path>
<path d="M 284.849 626.535 C 284.547 537.218 330.841 444.611 393.124 381.982 C 452.446 322.109 531.011 285.115 614.954 277.53 C 641.456 275.128 677 276.004 704.509 275.965 L 906.703 275.982 C 930.206 275.962 1009.9 273.323 1026.17 278.223 C 1091.94 298.028 1154.16 347.45 1203.41 393.343 C 1350.69 530.579 1560.39 573.003 1729.45 446.959 C 1762.08 501.843 1784.29 568.001 1783.94 632.258 C 1772.12 641.263 1752.99 651.959 1739.83 659.251 C 1648.06 710.39 1542.31 730.761 1438.11 717.371 C 1352.94 705.872 1287.35 679.418 1215.97 631.448 C 1215.27 611.598 1215.89 587.584 1215.87 567.468 L 1216.03 437.393 C 1198.07 429.448 1163.17 418.353 1143.83 411.809 C 1108.36 399.895 1073.1 387.393 1038.05 374.308 C 1009.44 383.676 980.737 393.998 952.118 403.432 C 936.781 408.489 920.462 414.939 905.022 419.261 C 773.855 411.71 629.34 481.203 542.112 576.951 C 498.5 624.824 440.149 669.052 371.637 665.278 C 339.007 663.153 308.217 649.409 284.849 626.535 z" fill="rgb(33,106,252)" transform="translate(0,0)"></path>
<path d="M 283.687 721.349 C 367.372 770.362 473.088 740.523 541.534 681.861 C 603.748 628.539 641.887 579.624 719.394 543.064 C 773.849 517.378 807.655 506.76 868.074 497.784 C 869.686 535.543 869.535 587.792 868.252 625.735 C 842.191 627.201 808.574 638.339 784.55 648.708 C 739.797 668.287 698.214 694.429 661.172 726.272 C 639.078 745.119 621.135 765.713 600.128 785.159 C 519.948 859.379 388.582 933.032 283.94 864.679 L 283.687 721.349 z" fill="rgb(33,106,252)" transform="translate(0,0)"></path>
<path d="M 1216.01 723.016 L 1216.91 723.47 C 1227.24 728.781 1237.15 735.462 1247.4 741.117 C 1405.18 828.153 1600.43 821.95 1758.81 739.865 C 1767.32 735.452 1775.87 730.561 1783.98 725.452 L 1783.94 862.995 C 1651.24 936.324 1470.07 949.955 1325.01 908.769 C 1313.64 905.54 1299.76 900.74 1289.01 896.035 C 1288.69 887.045 1288.93 875.839 1288.9 866.704 C 1265.96 859.956 1238.89 850.127 1216.22 842.048 L 1216.01 723.016 z" fill="rgb(33,106,252)" transform="translate(0,0)"></path>
<path d="M 528.809 1605.41 C 544.674 1603.65 563.595 1605.31 579.215 1606.27 C 676.68 1612.22 765.179 1663.41 834.794 1729.36 C 849.791 1743.57 870.525 1757.84 888.222 1768.72 C 838.221 1768.03 785.946 1768.93 735.75 1769.07 C 699.325 1769.11 659.879 1770.4 623.775 1768.66 C 526.514 1763.94 442.599 1722.22 377.678 1649.85 C 421.037 1624.34 479.081 1609.29 528.809 1605.41 z" fill="rgb(33,106,252)" transform="translate(0,0)"></path>
<path d="M 1182.57 276.257 C 1241.75 275.863 1300.92 275.776 1360.1 275.995 C 1389.02 275.993 1425.3 275.004 1453.81 277.139 C 1522.74 282.384 1588.64 307.638 1643.43 349.8 C 1657.69 360.904 1672.12 374.914 1685.67 387.228 C 1673.62 394.842 1663.97 399.662 1651.25 405.549 C 1628.44 415.909 1604.59 423.826 1580.12 429.166 C 1470.38 452.955 1369.67 425.498 1281.39 357.237 C 1258.64 339.651 1239.61 319.655 1217.75 301.155 C 1206.86 291.933 1194.58 284 1182.57 276.257 z" fill="rgb(33,106,252)" transform="translate(0,0)"></path>
<metadata><recraft-signature>{"signed_by": "recraft", "signature_b64": "obJPG7/9Ye7tLx7ghtTS01htZ0+/CqdysjP6qjCw0IAorZZLWz6AAVfooHiotPU84aVrIutM0Upi2ho2cYl3AQ==", "signing_algo": "Ed25519", "generation_timestamp": 1772776321, "identifier": "700c8bb3-75e0-4433-aaba-bad09cb18b36"}</recraft-signature></metadata></svg>