<svg xmlns="http://www.w3.org/2000/svg" height="1024" preserveAspectRatio="none" style="display: block;" version="1.1" viewBox="0 0 2048 2048" width="1024">
<path d="M 0 0 L 2048 0 L 2048 2048 L 0 2048 L 0 0 z" fill="rgb(255,255,255)" transform="translate(0,0)"></path>
<path d="M 606.667 298.132 C 661.907 297.665 722.421 299.566 777.022 297.346 L 776.998 570.129 L 898.195 570.03 C 900.412 481.317 898.413 386.8 898.507 297.405 C 938.663 298.001 978.825 298.183 1018.99 297.951 L 1018.93 469.05 C 1018.93 492.501 1017.92 516.663 1019.58 539.964 C 1021.87 551.099 1034.06 563.301 1045.03 564.401 C 1065.78 566.576 1088.17 564.537 1109.04 565.493 C 1123.88 566.172 1140.74 554.692 1141.23 539.253 C 1143.79 459.401 1139.93 377.713 1141.79 297.925 L 1362.89 297.961 L 1436.76 298.001 C 1478.61 298.026 1506.96 296.929 1548.37 307.387 C 1598.1 319.782 1643.55 345.406 1679.89 381.54 C 1692.38 394.014 1713.23 418.587 1721.73 434.048 C 1668.45 434.352 1615.16 434.383 1561.88 434.14 C 1536.79 434.046 1510.7 433.071 1485.84 434.789 C 1472.03 435.743 1456.19 453.146 1453.54 466.448 C 1450.69 480.752 1451.36 495.314 1451.28 509.856 L 1451.09 565.982 C 1490.14 565.087 1530.8 565.539 1569.97 565.498 L 1770.77 565.714 C 1774.97 626.992 1772.84 703.374 1772.88 765.862 L 1772.71 1124.1 L 1772.85 1363.26 C 1772.82 1409.57 1775.55 1463.71 1768.28 1508.77 C 1759.81 1561.29 1731.38 1615.84 1696.99 1655.86 C 1681.65 1673.29 1667.33 1685.78 1649.53 1700.79 L 1649.82 1056.62 L 1649.83 865.345 C 1649.82 848.412 1650.03 831.276 1649.78 814.387 C 1649.36 787.197 1652.53 767.486 1638.88 742.98 C 1612.5 695.639 1572.51 698.572 1525.89 698.472 L 1453.35 698.402 L 1451.96 698.404 L 1451.84 1777.15 L 1327.84 1777.52 L 1328.07 1615.13 C 1328.1 1600.56 1329.05 1551.16 1327.09 1539.4 C 1325.68 1531.03 1321.67 1523.32 1315.64 1517.35 C 1298.62 1500.24 1268.5 1504.83 1245.73 1504.87 L 1141.92 1505.06 L 1141.96 1612.04 C 1141.98 1661.85 1135.13 1709.24 1174.73 1746.58 C 1187.04 1758.19 1199.27 1766.92 1214.91 1773.67 L 1222.15 1776.26 C 1222.59 1776.25 1223.03 1776.24 1223.48 1776.23 L 1224.01 1776.69 L 1224.18 1776.36 L 1224.47 1776.75 L 1224.71 1776.61 C 1225.24 1779.09 1208.83 1778 1206.6 1777.9 L 652.661 1777.47 L 652.827 1505.82 C 634.507 1505.8 616.187 1505.69 597.868 1505.49 C 581.729 1505.31 553.094 1502.16 541.288 1514 C 536.592 1518.7 533.43 1524.72 532.216 1531.25 C 530.077 1543.37 531.509 1594.62 531.544 1609.7 L 530.99 1767.34 C 395.117 1730.89 286.438 1619.86 283.88 1474.08 C 282.833 1466.92 283.042 1456.33 282.916 1448.92 C 282.768 1442.61 282.65 1435.33 282.979 1429.09 L 282.935 1298.25 C 282.934 1287.76 282.301 1248.07 283.74 1240.71 C 309.275 1239.8 336.263 1240.86 361.981 1240.48 C 373.636 1240.84 389.668 1240.13 398.053 1230.79 C 408.563 1219.08 405.499 1192.85 405.439 1177.72 L 405.174 1106.82 L 282.895 1107.06 L 282.999 834.954 L 405.205 834.983 L 405.245 764.031 C 405.313 748.19 408.542 718.708 397.395 706.875 C 387.406 696.27 361.821 698.956 347.857 698.98 L 283.04 699.087 L 282.965 622.832 C 282.943 603.202 282.503 584.097 284.441 564.523 C 291.365 497.96 320.409 435.642 366.929 387.533 C 415.227 337.379 492.581 300.331 562.513 298.873 C 570.776 297.453 597.743 297.8 606.667 298.132 z" fill="rgb(19,175,75)" transform="translate(0,0)"></path>
<path d="M 606.667 298.132 C 661.907 297.665 722.421 299.566 777.022 297.346 L 776.998 570.129 L 898.195 570.03 C 900.412 481.317 898.413 386.8 898.507 297.405 C 938.663 298.001 978.825 298.183 1018.99 297.951 L 1018.93 469.05 C 1018.93 492.501 1017.92 516.663 1019.58 539.964 C 1021.87 551.099 1034.06 563.301 1045.03 564.401 C 1065.78 566.576 1088.17 564.537 1109.04 565.493 C 1123.88 566.172 1140.74 554.692 1141.23 539.253 C 1143.79 459.401 1139.93 377.713 1141.79 297.925 L 1362.89 297.961 L 1436.76 298.001 C 1478.61 298.026 1506.96 296.929 1548.37 307.387 C 1598.1 319.782 1643.55 345.406 1679.89 381.54 C 1692.38 394.014 1713.23 418.587 1721.73 434.048 C 1668.45 434.352 1615.16 434.383 1561.88 434.14 C 1536.79 434.046 1510.7 433.071 1485.84 434.789 C 1472.03 435.743 1456.19 453.146 1453.54 466.448 C 1450.69 480.752 1451.36 495.314 1451.28 509.856 L 1451.09 565.982 L 1394.68 565.916 C 1384.92 565.884 1366.58 565.236 1357.59 567.204 C 1350.11 568.82 1343.27 572.612 1337.94 578.105 C 1324.08 592.555 1327.89 615.12 1327.9 633.854 C 1327.92 655.13 1327.1 677.706 1327.74 698.859 L 1266.86 698.825 C 1229.58 698.832 1196.74 695.712 1167.83 724.447 C 1156.13 736.067 1148.05 750.83 1144.56 766.949 C 1140 787.163 1142.14 823.802 1141.87 845.915 C 1141.35 887.991 1142.51 931.272 1141.18 973.28 C 1123.66 973.437 1106.14 973.462 1088.62 973.354 C 1075.43 973.274 1061.29 972.264 1048.39 974.578 C 1014.17 980.716 1018.15 1012.99 1017.99 1039.38 C 1017.63 1061.59 1018.46 1084.56 1017.84 1106.88 C 1017.17 1165.83 1017.8 1225.63 1017.82 1284.65 L 1017.69 1345.1 C 1017.66 1354.4 1017.16 1368.32 1017.74 1377.07 L 641.101 1377.81 C 604.884 1377.61 584.346 1373.9 557.084 1347.88 C 523.847 1316.16 531.393 1263.21 531.316 1221.13 C 531.14 1182.98 531.176 1144.83 531.425 1106.68 L 405.174 1106.82 L 282.895 1107.06 L 282.999 834.954 L 405.205 834.983 L 405.245 764.031 C 405.313 748.19 408.542 718.708 397.395 706.875 C 387.406 696.27 361.821 698.956 347.857 698.98 L 283.04 699.087 L 282.965 622.832 C 282.943 603.202 282.503 584.097 284.441 564.523 C 291.365 497.96 320.409 435.642 366.929 387.533 C 415.227 337.379 492.581 300.331 562.513 298.873 C 570.776 297.453 597.743 297.8 606.667 298.132 z" fill="rgb(19,175,75)" transform="translate(0,0)"></path>
<path d="M 531.27 834.974 L 531.385 1106.86 L 864.379 1107.15 C 913.399 1107.07 969.484 1108.4 1017.84 1106.88 C 1017.17 1165.83 1017.8 1225.63 1017.82 1284.65 L 1017.69 1345.1 C 1017.66 1354.4 1017.16 1368.32 1017.74 1377.07 L 641.101 1377.81 C 604.884 1377.61 584.346 1373.9 557.084 1347.88 C 523.847 1316.16 531.393 1263.21 531.316 1221.13 C 531.14 1182.98 531.176 1144.83 531.425 1106.68 L 405.174 1106.82 C 404.426 1078.44 405.153 1046.29 405.175 1017.65 L 405.774 834.99 L 531.27 834.974 z" fill="rgb(255,255,255)" transform="translate(0,0)"></path>
<path d="M 531.27 834.974 C 531.414 812.901 531.411 790.827 531.263 768.754 C 531.152 733.795 524.605 697.222 571.635 699.756 C 578.012 700.099 585.774 699.78 592.264 699.802 L 652.157 699.988 L 652.308 834.155 C 611.966 834.836 571.618 835.109 531.27 834.974 z" fill="rgb(255,255,255)" transform="translate(0,0)"></path>
<path d="M 652.887 835.001 C 693.427 835.64 735.727 835.157 776.389 835.208 C 775.097 878.899 776.215 928.842 776.145 973.039 L 715.444 973.177 C 709.781 973.186 703.09 972.996 697.535 973.194 C 647.125 974.997 652.372 942.149 652.546 904.135 L 652.887 835.001 z" fill="rgb(255,255,255)" transform="translate(0,0)"></path>
<path d="M 673.402 570.156 C 682.241 569.195 700.122 569.75 709.694 569.799 C 731.837 569.86 753.98 570.05 776.121 570.368 C 775.667 612.877 776.295 656.607 776.343 699.203 L 756.295 699.364 L 652.724 699.393 C 652.975 678.76 649.895 597.143 656.289 583.804 C 659.911 576.249 665.765 572.816 673.402 570.156 z" fill="rgb(255,255,255)" transform="translate(0,0)"></path>
<path d="M 776.729 699.651 C 796.952 700.238 817.545 699.618 838.212 699.698 C 861.411 699.787 891.458 696.517 895.373 728.173 C 896.522 743.834 896.05 759.864 896.04 775.654 C 896.028 794.001 899.582 811.193 888.092 826.577 C 873.719 838.465 852.941 835.283 834.942 835.231 L 776.814 834.999 L 776.729 699.651 z" fill="rgb(255,255,255)" transform="translate(0,0)"></path>
<path d="M 581.908 301.463 C 586.952 300.91 592.044 300.939 597.082 301.552 C 631.812 305.777 657.217 336.361 654.998 371.276 C 652.78 406.192 623.709 433.314 588.723 433.109 C 553.738 432.904 524.987 405.442 523.178 370.503 C 521.369 335.564 547.131 305.28 581.908 301.463 z" fill="rgb(255,255,255)" transform="translate(0,0)"></path>
<path d="M 521.632 437.287 C 525.087 436.821 527.608 436.333 530.172 438.157 C 531.327 448.955 530.747 470.245 530.752 481.653 L 530.732 565.07 L 417.75 564.943 L 407.553 564.877 C 414.68 498.507 454.045 448.819 521.632 437.287 z" fill="rgb(255,255,255)" transform="translate(0,0)"></path>
<path d="M 1141.18 973.28 C 1142.51 931.272 1141.35 887.991 1141.87 845.915 C 1142.14 823.802 1140 787.163 1144.56 766.949 C 1148.05 750.83 1156.13 736.067 1167.83 724.447 C 1196.74 695.712 1229.58 698.832 1266.86 698.825 L 1327.74 698.859 L 1328.06 862.42 C 1328.08 887.281 1329.13 916.309 1326.72 940.853 C 1326.09 947.249 1320.44 956.135 1315.82 960.795 C 1309.98 966.745 1302.49 970.815 1294.31 972.484 C 1285.38 974.246 1261.89 973.029 1251.86 973.301 C 1216.64 974.255 1175.88 971.572 1141.18 973.28 z" fill="rgb(255,255,255)" transform="translate(0,0)"></path>
<path d="M 783.99 1628.45 C 774.53 1616.25 773.132 1602.25 774.826 1586.7 C 777.291 1564.07 767.854 1530.92 785.213 1513.45 C 794.234 1504.37 806.598 1504.31 818.113 1504.39 C 836.44 1504.52 854.602 1504.62 872.843 1504.68 C 921.246 1504.51 969.649 1504.6 1018.05 1504.96 C 1016.92 1539.66 1019.01 1575.47 1016.97 1610.19 C 1016.31 1615.34 1014.53 1622.46 1011.53 1626.65 C 1000.55 1641.97 970.965 1637.73 953.993 1637.61 L 884.425 1637.27 L 829.418 1637.32 C 809.948 1637.34 799.768 1640.73 783.99 1628.45 z" fill="rgb(255,255,255)" transform="translate(0,0)"></path>
<path d="M 1141.18 973.28 L 1141.05 1106.59 C 1102.77 1106.85 1055.32 1105.41 1017.84 1106.88 C 1018.46 1084.56 1017.63 1061.59 1017.99 1039.38 C 1018.15 1012.99 1014.17 980.716 1048.39 974.578 C 1061.29 972.264 1075.43 973.274 1088.62 973.354 C 1106.14 973.462 1123.66 973.437 1141.18 973.28 z" fill="rgb(255,255,255)" transform="translate(0,0)"></path>
<path d="M 1451.09 565.982 L 1451.33 698.426 C 1410.41 698.738 1368.47 698.122 1327.74 698.859 C 1327.1 677.706 1327.92 655.13 1327.9 633.854 C 1327.89 615.12 1324.08 592.555 1337.94 578.105 C 1343.27 572.612 1350.11 568.82 1357.59 567.204 C 1366.58 565.236 1384.92 565.884 1394.68 565.916 L 1451.09 565.982 z" fill="rgb(255,255,255)" transform="translate(0,0)"></path>
<path d="M 1017.74 1377.07 C 1048.17 1376.96 1082.31 1375.18 1112.15 1378.57 C 1144.88 1382.3 1141.47 1424.7 1141.44 1447.29 L 1141.3 1505.01 C 1100.45 1505.02 1058.84 1505.42 1018.05 1504.96 L 1017.74 1377.07 z" fill="rgb(255,255,255)" transform="translate(0,0)"></path>
<path d="M 287.68 1415.84 C 298.79 1386.93 329.25 1370.38 359.546 1376.78 C 389.842 1383.18 411.002 1410.64 409.47 1441.57 C 407.938 1472.5 384.169 1497.73 353.388 1501.11 C 322.607 1504.48 293.933 1485 285.733 1455.14 C 285.269 1453.45 284.876 1451.74 284.554 1450.02 L 282.916 1448.92 C 282.768 1442.61 282.65 1435.33 282.979 1429.09 L 284.222 1428.84 C 284.908 1424.39 286.067 1420.03 287.68 1415.84 z" fill="rgb(255,255,255)" transform="translate(0,0)"></path>
<path d="M 282.979 1429.09 L 284.222 1428.84 C 283.136 1435.86 283.249 1443.03 284.554 1450.02 L 282.916 1448.92 C 282.768 1442.61 282.65 1435.33 282.979 1429.09 z" fill="rgb(166,199,169)" transform="translate(0,0)"></path>
<path d="M 283.74 1240.71 C 284.708 1263.65 281.256 1405.01 285.456 1414.32 L 287.68 1415.84 C 286.067 1420.03 284.908 1424.39 284.222 1428.84 L 282.979 1429.09 L 282.935 1298.25 C 282.934 1287.76 282.301 1248.07 283.74 1240.71 z" fill="rgb(66,173,95)" transform="translate(0,0)"></path>
<path d="M 282.916 1448.92 L 284.554 1450.02 C 284.876 1451.74 285.269 1453.45 285.733 1455.14 L 284.994 1456.44 C 284.039 1457.92 284.205 1470.88 283.88 1474.08 C 282.833 1466.92 283.042 1456.33 282.916 1448.92 z" fill="rgb(66,173,95)" transform="translate(0,0)"></path>
<path d="M 1222.15 1776.26 C 1222.59 1776.25 1223.03 1776.24 1223.48 1776.23 L 1224.01 1776.69 L 1224.18 1776.36 L 1224.47 1776.75 L 1224.71 1776.61 C 1225.24 1779.09 1208.83 1778 1206.6 1777.9 C 1208.36 1777.63 1210.05 1777.44 1211.81 1777.23 C 1216.78 1777.17 1217.5 1777.33 1222.15 1776.26 z" fill="rgb(166,199,169)" transform="translate(0,0)"></path>
<path d="M 1141.65 1106.91 C 1203.13 1107.72 1266.15 1107.03 1327.75 1107.06 L 1327.98 1165.94 C 1328.07 1190.46 1331.31 1208.21 1315.58 1228.9 C 1303.07 1239.72 1294.93 1241.93 1278.52 1242.05 C 1254.18 1242.22 1229.85 1242.26 1205.5 1242.25 C 1192.91 1241.87 1179.19 1243.09 1166.77 1241.6 C 1135.68 1237.88 1141.47 1199.64 1141.54 1176.35 L 1141.65 1106.91 z" fill="rgb(255,255,255)" transform="translate(0,0)"></path>
<metadata><recraft-signature>{"signed_by": "recraft", "signature_b64": "ebnV8ObY+BFBHxdALQQaxmZbVTMyrmqD9sd0jFc7HE1Eoxl6kYgzFccRpOR83qieeaq0I7u1fuS8noJTSp36Dw==", "signing_algo": "Ed25519", "generation_timestamp": 1772776784, "identifier": "32c3bd01-8f4d-4ca1-916a-20835aa80276"}</recraft-signature></metadata></svg>