<svg xmlns="http://www.w3.org/2000/svg" height="1024" preserveAspectRatio="none" style="display: block;" version="1.1" viewBox="0 0 2048 2048" width="1024">
<path d="M 0 0 L 2048 0 L 2048 2048 L 0 2048 L 0 0 z" fill="rgb(255,255,255)" transform="translate(0,0)"></path>
<path d="M 362.363 1028.95 C 349.492 1005.9 331.005 956.611 322.651 931.121 C 285.949 819.137 269.75 705.137 302.422 590.075 C 332.341 482.94 403.997 392.29 501.328 338.44 C 591.47 288.304 681.713 278.078 783.208 289.691 C 820.393 293.65 857.169 300.8 893.128 311.064 C 925.89 320.442 1001.73 349.058 1027.58 369.484 C 1140.94 298.204 1309.02 266.621 1439.82 296.523 C 1549.23 321.032 1644.21 388.467 1703.43 483.681 C 1776.17 599.991 1777.33 733.116 1747.29 863.385 C 1736.26 911.236 1712.3 985.329 1688.47 1028.37 C 1705.47 1064.67 1719.38 1094.9 1732.72 1133.11 C 1770.61 1241.71 1779.86 1381.37 1740.17 1491 C 1702.39 1593.88 1625.64 1677.76 1526.52 1724.52 C 1421.84 1773.28 1297.02 1775.01 1186.68 1745.77 C 1153.81 1740.81 1055.91 1700.04 1028.08 1680.6 C 948.277 1718.89 886.894 1746.89 797.299 1759.47 C 694.56 1773.89 589.533 1762.86 498.166 1710.99 C 476.319 1698.59 460.345 1686.65 440.219 1671.64 C 437.607 1670.11 429.098 1662.37 426.268 1659.8 C 402.559 1638.26 376.625 1610.39 359.07 1583.46 C 318.379 1523.18 305.524 1478.85 291.258 1409.87 C 283.166 1355.01 282.235 1308.56 290.862 1253.33 C 293.357 1237.36 295.131 1223.67 299.513 1207.88 C 312.386 1150.99 335.341 1080.86 362.363 1028.95 z" fill="rgb(0,0,0)" transform="translate(0,0)"></path>
<path d="M 1029.32 833.815 C 1060.27 834.63 1082.12 837.513 1110.52 850.775 C 1176.97 881.803 1218.76 947.444 1215.93 1021.21 C 1212.41 1112.91 1132.54 1195.56 1069.67 1254.73 C 937.938 1379.85 791.994 1489.1 634.825 1580.24 C 596.544 1602 555.182 1624.56 514.866 1642.37 C 499.564 1649.13 454.45 1669.44 440.219 1671.64 C 437.607 1670.11 429.098 1662.37 426.268 1659.8 C 402.559 1638.26 376.625 1610.39 359.07 1583.46 C 370.826 1563.59 382.763 1543.42 395.518 1524.19 C 419.276 1488.37 447.877 1455.46 474.345 1421.58 L 616.937 1241.09 L 728.947 1324.03 C 746.434 1304.19 762.858 1280.57 779.58 1259.5 L 926.415 1072.5 C 942.224 1052.52 961.797 1025.76 977.874 1006.87 C 994.893 1020.03 1011.84 1033.46 1029.63 1045.57 L 1029.19 914.098 C 1029.15 888.657 1028.53 859.027 1029.32 833.815 z" fill="rgb(52,204,109)" transform="translate(0,0)"></path>
<path d="M 1028.15 370.738 C 1050.76 369.441 1089.21 372.318 1111.93 374.901 C 1244.68 389.858 1369.36 446.202 1468.31 535.952 C 1597.27 650.966 1675.43 812.377 1685.68 984.87 C 1697.37 1193.42 1602.25 1380.05 1466.05 1531.99 C 1397.65 1607.73 1317.76 1672.24 1229.32 1723.16 C 1215.18 1731.34 1201.03 1738.14 1186.68 1745.77 C 1153.81 1740.81 1055.91 1700.04 1028.08 1680.6 C 1027.93 1677.69 1027.15 1674.48 1029.55 1672.89 C 1039.07 1666.59 1055.52 1660.88 1066.27 1655.89 C 1097.7 1641.39 1128.35 1625.25 1158.08 1607.54 C 1355.63 1490.17 1541.12 1305.36 1562.35 1064.85 C 1575.23 924.645 1531.09 785.164 1439.89 677.897 C 1349.4 570.604 1219.67 504.064 1079.74 493.164 C 1062.85 491.636 1045.89 490.923 1028.93 491.027 C 1029.08 450.929 1028.82 410.831 1028.15 370.738 z" fill="rgb(52,204,109)" transform="translate(0,0)"></path>
<path d="M 705.118 735.169 C 717.04 728.882 738.476 721.35 751.65 716.075 C 783.7 703.084 815.862 690.371 848.133 677.939 C 877.194 666.631 906.161 655.082 935.031 643.294 C 958.452 633.754 986.166 622.094 1009.95 614.248 C 1002.93 721.476 997.662 832.074 988.896 938.997 C 957.94 916.446 926.178 892.925 894.897 870.944 C 876.722 895.408 856.964 919.586 838.286 943.813 L 688.727 1137.07 C 650.138 1107.45 609.279 1078.89 571.303 1049.23 C 546.567 1083.32 517.991 1118.26 491.859 1151.43 L 359.45 1321.74 C 337.415 1350.23 312.229 1380.99 291.258 1409.87 C 283.166 1355.01 282.235 1308.56 290.862 1253.33 C 293.357 1237.36 295.131 1223.67 299.513 1207.88 L 301.079 1208.14 C 306.248 1203.43 321.063 1183.26 326.01 1176.74 L 375.733 1111.01 L 558.782 869.718 L 683.475 964.897 L 764.311 859.949 C 776.528 844.122 793.661 823.617 804.623 807.675 C 795.217 799.417 782.893 791.878 772.685 784.39 C 750.641 768.219 726.408 752.149 705.118 735.169 z" fill="rgb(52,204,109)" transform="translate(0,0)"></path>
<path d="M 1029.07 605.415 C 1062.91 605.026 1095.53 607.074 1128.65 614.436 C 1234.78 638.959 1327.16 703.898 1386.17 795.455 C 1445.18 888.337 1464.07 998.186 1439.08 1104.97 C 1396.44 1287.08 1256.1 1406.86 1105.55 1502.19 C 1086.06 1514.12 1050.1 1534.15 1029 1543.64 C 1028.48 1501.64 1028.99 1458.39 1029.01 1416.3 C 1087.45 1383.05 1149.95 1331.25 1198.46 1284.39 C 1270.08 1215.2 1330.79 1118.12 1330.76 1015.24 C 1330.52 937.158 1299.23 862.383 1243.79 807.397 C 1185.05 749.396 1111.33 721.682 1029.23 722.312 C 1028.76 683.68 1028.93 644.065 1029.07 605.415 z" fill="rgb(52,204,109)" transform="translate(0,0)"></path>
<metadata><recraft-signature>{"signed_by": "recraft", "signature_b64": "jixc/eOMJQQ2q8CpyGhidO69D8pDMgdhc9017DAbhTp6obFyBLgPzIsTRLAj7IDt8DsIiB0BBF7+yp222SWsAQ==", "signing_algo": "Ed25519", "generation_timestamp": 1772776763, "identifier": "d3268bd0-0370-49a7-96e8-5d37db30c3b9"}</recraft-signature></metadata></svg>