<svg xmlns="http://www.w3.org/2000/svg" height="1024" preserveAspectRatio="none" style="display: block;" version="1.1" viewBox="0 0 2048 2048" width="1024">
<path d="M 0 0 L 2048 0 L 2048 2048 L 0 2048 L 0 0 z" fill="rgb(255,255,255)" transform="translate(0,0)"></path>
<path d="M 1293.58 257.438 C 1304.36 256.988 1315.14 256.778 1325.93 256.81 C 1497.05 256.645 1657.82 357.352 1737.33 508.079 C 1771.26 571.884 1790.66 642.408 1794.12 714.593 C 1795.64 742.436 1795 773.175 1795 801.222 L 1794.95 947.279 L 1795.03 1296.54 C 1794.99 1324.05 1794.33 1349.42 1790.75 1376.84 C 1777.27 1481.28 1729.52 1578.29 1655 1652.68 C 1576.83 1730.39 1474.69 1779.4 1365.16 1791.76 C 1328.1 1795.99 1290.06 1794.95 1252.71 1794.9 L 1097.64 1794.29 L 761.75 1794.49 C 723.145 1794.55 694.731 1793.13 656.383 1786.15 C 565.025 1768.68 480.224 1726.45 411.238 1664.06 C 317.471 1577.52 262.273 1457.03 257.976 1329.51 C 256.359 1290.6 257.286 1248.24 257.269 1208.96 L 257.087 1004.69 L 257.331 819.609 C 257.596 756.65 255.04 696.934 269.139 634.986 C 287.679 553.521 326.542 475.605 383.303 413.788 C 464.329 325.544 579.398 272.162 698.085 260.552 C 724.829 257.936 755.867 258.861 782.999 258.9 L 903.625 258.815 L 1143.83 258.902 C 1193.81 258.893 1243.65 259.508 1293.58 257.438 z" fill="rgb(247,21,49)" transform="translate(0,0)"></path>
<path d="M 956.607 283.421 C 964.395 282.442 982.715 282.85 991.317 282.837 L 1053.82 282.739 C 1118.12 282.784 1183.79 282.235 1247.95 283.28 C 1094.88 355.526 1005.95 491.01 1006.81 660.825 L 1005.58 660.892 C 767.479 674.756 615.355 906.533 598.237 1126.51 C 593.442 1188.14 596.038 1250.31 595.689 1312.09 C 595.59 1329.59 597.109 1348.27 598.125 1365.78 C 590.407 1365.06 582.719 1364.07 575.076 1362.79 C 514.613 1355.5 446.218 1319.45 400.419 1280.1 C 330.921 1219.17 287.926 1133.53 280.573 1041.4 C 273.587 947.073 304.113 853.804 365.514 781.861 C 426.061 710.459 512.582 666.15 605.907 658.752 C 607.98 573.001 648.03 478.725 704.06 414.491 C 771.292 337.413 854.23 291.415 956.607 283.421 z" fill="rgb(255,255,255)" transform="translate(0,0)"></path>
<path d="M 1009.05 662.951 L 1387.97 662.893 C 1387.24 719.411 1387.05 775.934 1387.38 832.455 C 1387.43 856.657 1384.61 932.604 1391.46 951.87 C 1397.18 967.934 1407.89 982.713 1416.68 997.272 C 1433.74 1025.88 1450.64 1054.59 1467.38 1083.39 C 1477.1 1100.1 1497.74 1128.78 1495.53 1147.83 C 1488.06 1212.42 1385.66 1142.74 1388.92 1217.32 C 1389.31 1226.09 1388.92 1237.3 1388.93 1246.28 L 1389.06 1322.22 C 1389.1 1334.96 1389.68 1352.72 1388.8 1364.96 C 1386.83 1366.48 1386.32 1365.94 1383.25 1366.05 L 1008.81 1366.88 L 1009.02 1259.57 C 1009.05 1242.55 1009.85 1214.36 1008.28 1198.42 C 983.251 1160.89 933.057 1194.18 903.243 1168.16 C 878.822 1146.85 905.236 1116.15 917.289 1096.46 C 936.009 1065.81 954.883 1035.25 973.91 1004.78 C 984.239 988.295 995.45 971.117 1004.93 954.27 C 1010.51 944.368 1009.27 919.797 1009.31 908.433 C 1009.41 887 1009.3 865.47 1009.28 844.041 L 1009.05 662.951 z" fill="rgb(255,255,255)" transform="translate(0,0)"></path>
<path d="M 1767.48 1061.11 C 1767.73 1059.05 1767.69 1057.16 1768.85 1055.46 C 1769.77 1055.22 1769.99 1056.03 1769.96 1056.94 C 1768.78 1088.28 1771.9 1122.43 1769.84 1153.5 L 1770.1 1265.04 C 1770.15 1307.52 1770.41 1345.57 1763.95 1387.78 C 1730.31 1607.59 1535.31 1770.95 1314.07 1770.93 L 1298.37 1770.84 C 1284.81 1771.69 1267.22 1771.16 1253.25 1771.15 L 1155.5 1770.66 L 1085.57 1771.06 C 1079.69 1771.08 1060.97 1771.52 1056.13 1770.36 C 1057.41 1768.72 1059.37 1768.87 1062.04 1768.29 C 1250.23 1728.03 1380.25 1561.56 1391.92 1372.14 C 1461.92 1371.3 1530.28 1350.91 1589.3 1313.26 C 1664.48 1265.57 1723.16 1192.21 1751.99 1108.55 C 1757.55 1092.41 1763.7 1078 1767.48 1061.11 z" fill="rgb(255,255,255)" transform="translate(0,0)"></path>
<path d="M 1298.37 1770.84 C 1284.81 1771.69 1267.22 1771.16 1253.25 1771.15 L 1155.5 1770.66 L 1085.57 1771.06 C 1079.69 1771.08 1060.97 1771.52 1056.13 1770.36 C 1057.41 1768.72 1059.37 1768.87 1062.04 1768.29 L 1063.01 1769.7 C 1075.01 1771.04 1106.51 1770.03 1120.24 1769.95 C 1159.53 1769.81 1198.82 1769.86 1238.11 1770.12 C 1253.11 1770.19 1284.46 1769.49 1298.37 1770.84 z" fill="rgb(243,136,163)" transform="translate(0,0)"></path>
<path d="M 1767.48 1061.11 C 1767.73 1059.05 1767.69 1057.16 1768.85 1055.46 C 1769.77 1055.22 1769.99 1056.03 1769.96 1056.94 C 1768.78 1088.28 1771.9 1122.43 1769.84 1153.5 C 1768.37 1138.89 1770.67 1066.44 1767.48 1061.11 z" fill="rgb(243,136,163)" transform="translate(0,0)"></path>
<path d="M 1207.86 328.796 C 1234.78 309.951 1300.33 280.078 1332.52 281.003 C 1562.68 287.622 1754.22 473.313 1768.91 703.135 C 1771.11 737.517 1769.94 771.595 1770.13 806.03 C 1770.01 852.894 1770.43 899.85 1769.86 946.708 C 1770.3 958.327 1770.09 972.162 1770.01 983.881 C 1768.42 979.833 1767.78 978.169 1767.36 973.763 C 1748.2 890.754 1712.27 831.57 1653.28 771.042 C 1583.83 700.378 1489.43 659.772 1390.37 657.944 C 1388.59 523.441 1320.35 402.06 1207.86 328.796 z" fill="rgb(255,255,255)" transform="translate(0,0)"></path>
<path d="M 1767.36 973.763 C 1769.79 969.036 1769.02 953.172 1769.86 946.708 C 1770.3 958.327 1770.09 972.162 1770.01 983.881 C 1768.42 979.833 1767.78 978.169 1767.36 973.763 z" fill="rgb(253,222,230)" transform="translate(0,0)"></path>
<path d="M 600.689 1366.93 C 736.438 1369.56 872.22 1370.07 1007.98 1368.44 L 1007.33 1768.65 C 1004.88 1769.79 1002.24 1770.49 999.549 1770.72 C 990.817 1771.55 968.843 1769.51 959.433 1768.45 C 890.725 1760.79 825.565 1733.92 771.427 1690.93 C 667.071 1608.98 616.235 1496.53 600.689 1366.93 z" fill="rgb(255,255,255)" transform="translate(0,0)"></path>
<metadata><recraft-signature>{"signed_by": "recraft", "signature_b64": "twvwjw3rVl6gm9ej1oAc8DcmAKdN0WTljh1T0Tguv7TmWoQU6MxStc2Bt9EZpsug6e8TVvtcAuDafNvGIqC6Cw==", "signing_algo": "Ed25519", "generation_timestamp": 1772777015, "identifier": "03d5207c-34c1-47d6-b9c2-9659ca56fc3b"}</recraft-signature></metadata></svg>