<svg xmlns="http://www.w3.org/2000/svg" height="1024" preserveAspectRatio="none" style="display: block;" version="1.1" viewBox="0 0 2048 2048" width="1024">
<path d="M 1475.7 622.366 C 1527.76 618.026 1595.49 647.8 1637.36 678.069 C 1720.01 736.774 1774.73 831.001 1789.06 931.634 C 1805.87 1049.6 1794.46 1186.05 1722.24 1285.27 C 1656.25 1375.92 1563.77 1421.44 1455.83 1439.2 C 1410.91 1582.43 1309.3 1709.43 1166.08 1763.06 C 1064.74 1801.01 953.542 1798.98 855.826 1751.47 C 768.457 1708.98 696.081 1643.15 645.457 1560.11 C 637.499 1547.09 624.054 1523.55 619.019 1509.73 C 722.502 1484.55 774.853 1425.46 809.727 1327.57 C 871.744 1313.65 904.258 1300.48 957.095 1265.93 C 988.826 1243.98 1009.55 1222.2 1034.24 1193.21 C 1072.39 1148.43 1146.92 1129.3 1196.07 1168.12 C 1272.96 1228.86 1245.11 1355.71 1192.49 1423.25 C 1164.01 1459.61 1124.56 1489.13 1077.53 1494.13 C 1016.46 1501.3 967.786 1476.12 921.381 1439.23 C 899.576 1460.89 870.523 1486.99 850.537 1508.49 C 883.495 1536.57 916.007 1557.66 956.847 1572.5 C 1024.42 1597.32 1099.13 1593.95 1164.19 1563.14 C 1238.53 1528 1290.33 1460.12 1320.12 1385.09 C 1328.1 1364.98 1330.78 1349.92 1337.31 1331.96 L 1337.67 1330.99 C 1404.29 1322.18 1457.97 1305.01 1512.14 1263.89 C 1647.16 1161.4 1675.27 974.688 1571.29 839.522 C 1512.48 763.065 1436.79 728.165 1343.07 716.182 C 1346.88 706.124 1359.02 686.842 1366.09 678.606 C 1396.3 643.446 1430.42 626.798 1475.7 622.366 z" fill="rgb(250,20,35)" transform="translate(0,0)"></path>
<path d="M 1008.79 258.421 C 1062.58 254.732 1128.94 267.879 1178.33 288.926 C 1267.28 326.825 1345.66 397.241 1398.26 477.861 C 1409.48 495.056 1422.99 518.296 1430.61 537.271 C 1327.66 566.75 1276.58 615.926 1243.17 717.731 C 1177.75 730.471 1126.58 750.686 1074.05 792.83 C 1059.57 804.582 1046.07 817.497 1033.69 831.447 C 1003.92 864.504 986.282 889.643 937.099 898.008 C 910.048 902.627 876.237 896.482 854.728 878.916 C 738.328 783.857 842.282 565.637 977.016 550.582 C 1040.53 543.485 1083.09 570.498 1129.55 605.523 C 1151.3 584.486 1176.98 558.913 1197.9 537.332 C 1172.5 511.401 1131.43 490.025 1097.96 477.319 C 942.512 418.315 792.363 505.442 733.345 653.236 C 725.218 673.588 719.698 693.811 712.495 714.555 C 663.192 723.361 639.859 726.455 592.5 748.809 C 570.947 758.314 546.741 773.467 528.562 787.925 C 465.358 837.751 424.747 910.818 415.802 990.801 C 407.205 1069.47 430.205 1148.33 479.744 1210.05 C 537.142 1281.6 619.117 1319.43 709.043 1329.56 C 706.193 1336 701.938 1342.34 698.453 1348.48 C 676.562 1387.05 643.348 1411.81 600.095 1422.68 C 544.909 1436.55 479.555 1412.18 432.246 1382.57 C 348.59 1330.13 289.318 1246.47 267.577 1150.16 C 241.844 1038.27 250.092 881.907 313.995 783.427 C 385.889 672.632 472.799 633.924 595.648 605.625 C 603.234 589.105 608.811 569.936 616.011 552.669 C 683.768 390.189 828.356 269.334 1008.79 258.421 z" fill="rgb(250,20,35)" transform="translate(0,0)"></path>
<path d="M 1281.43 804.528 C 1282.5 804.43 1283.57 804.347 1284.64 804.279 C 1353.3 799.98 1420.85 823.171 1472.4 868.737 C 1514.43 905.147 1539.96 956.994 1543.19 1012.51 C 1550.5 1131.48 1451.35 1230.53 1335.31 1237.69 C 1319.18 1180.17 1304.42 1141.01 1256.21 1100.64 C 1214.96 1066.32 1161.7 1049.92 1108.29 1055.11 C 1060.53 1059.34 1015.89 1080.62 982.549 1115.07 C 970.336 1127.54 962.705 1137.93 951.799 1151.08 C 906.681 1205.45 840.085 1233.77 770.755 1240.28 C 768.528 1240.56 766.461 1240.66 764.244 1240.77 C 697.303 1244.09 629.464 1225.33 579.637 1181.17 C 488.914 1100.77 480.429 971.261 563.391 882.366 C 602.787 840.153 659.823 812.634 717.589 810.431 C 718.978 816.789 720.019 823.246 721.513 829.656 C 757.66 984.716 942.993 1046.76 1061.35 937.009 C 1073 926.208 1083.27 911.833 1093.61 899.621 C 1141.14 844.283 1208.69 810.08 1281.43 804.528 z" fill="rgb(250,20,35)" transform="translate(0,0)"></path>
<path d="M 1795.91 1337.87 C 1796.09 1339.26 1796.23 1340.6 1796.23 1342.01 C 1795.9 1462.8 1756.08 1574.67 1671.89 1662.76 C 1592.41 1745.92 1484.29 1793.15 1368.87 1792.94 C 1348.21 1792.91 1327.11 1793.63 1306.4 1793.91 C 1306.05 1790.6 1313.53 1786.61 1316.32 1784.6 C 1390.87 1730.81 1452.45 1662.69 1497.7 1582.68 C 1510.04 1560.86 1519.64 1537.05 1531.8 1515.75 C 1551.88 1509.3 1569.53 1506.61 1590.46 1498.08 C 1679.02 1462 1739.29 1413.01 1795.91 1337.87 z" fill="rgb(250,20,35)" transform="translate(0,0)"></path>
<path d="M 253.78 1338.65 C 265.113 1353.86 278.392 1371.52 291.394 1385.47 C 335.299 1432.56 390.811 1471.97 450.985 1495.29 C 475.761 1504.9 495.246 1508.5 520.201 1515.32 C 524.489 1523.49 529.333 1535.67 533.4 1544.45 C 540.83 1560.39 548.85 1576.06 557.441 1591.41 C 601.461 1670.35 670.187 1745.03 746.522 1793.61 C 713.496 1792.68 677.156 1794.44 644.733 1791.69 C 546.57 1783.62 454.498 1740.82 385.046 1670.98 C 294.427 1580.42 253.836 1465.46 253.78 1338.65 z" fill="rgb(250,20,35)" transform="translate(0,0)"></path>
<path d="M 1304.2 256.248 C 1306.8 256.099 1309.4 256.003 1312 255.961 C 1347.56 255.427 1388.41 254.904 1423.15 260.047 C 1517.49 274.012 1601.47 314.176 1668.49 382.04 C 1758.05 472.737 1794.43 584.92 1795.82 709.469 C 1790.7 704.956 1777.86 686.939 1772.7 680.227 C 1764.99 670.372 1756.76 660.924 1748.06 651.922 C 1701.13 604.042 1643.61 567.854 1580.13 546.273 C 1562.61 540.285 1546.38 537.359 1529.7 531.952 C 1524.3 522.664 1519.33 510.527 1514.79 500.589 C 1508.23 485.875 1500.99 471.471 1493.11 457.421 C 1455.62 391.659 1405.9 333.67 1346.64 286.575 C 1333.81 276.31 1318.45 264.305 1304.2 256.248 z" fill="rgb(250,20,35)" transform="translate(0,0)"></path>
<path d="M 253.445 693.737 C 255.501 665.436 256.959 639.083 262.236 611.132 C 280.84 513.007 332.045 424.044 407.549 358.67 C 473.82 301.981 555.894 266.999 642.683 258.449 C 674.916 255.224 712.167 255.692 744.808 256.086 C 667.486 307.329 603.571 376.355 558.414 457.382 C 550.377 471.843 542.86 486.588 535.879 501.588 C 532.917 508.038 526.237 524.271 523.269 529.263 C 407.823 555.063 325.303 613.455 256.702 708.058 L 254.871 710.722 L 253.552 710.884 C 252.332 706.173 253.173 698.843 253.445 693.737 z" fill="rgb(250,20,35)" transform="translate(0,0)"></path>
<metadata><recraft-signature>{"signed_by": "recraft", "signature_b64": "4Fi59iD1K0MK4oXkrwVnAjEcwZu1/wrcD2Msfe4yxisE1TlvIMJ5RFyK+oZOObh+nz5fFmR9Qw4zuuyACJ0sAA==", "signing_algo": "Ed25519", "generation_timestamp": 1772777035, "identifier": "3e7515cc-1838-4f78-bde3-2a23700c4602"}</recraft-signature></metadata></svg>