<svg xmlns="http://www.w3.org/2000/svg" height="1024" preserveAspectRatio="none" style="display: block;" version="1.1" viewBox="0 0 2048 2048" width="1024">
<path d="M 0 0 L 2048 0 L 2048 2048 L 0 2048 L 0 0 z" fill="rgb(255,255,255)" transform="translate(0,0)"></path>
<path d="M 914.212 289.07 C 988.46 289.501 1062.71 289.456 1136.96 288.935 C 1136.98 319.336 1136.46 351.825 1137.37 382.057 C 1223.44 384.954 1294.19 397.295 1374.06 429.431 C 1434.55 453.77 1513.82 479.158 1567.87 429.194 C 1598.49 401.457 1598.27 366.842 1597.16 329.123 C 1624.16 342.651 1660.01 367.421 1678.59 391.034 C 1697.12 409.5 1716.45 439.404 1727.18 463.491 C 1740.35 497.351 1749.78 531.689 1749.98 568.341 C 1708.7 614.476 1680.49 636.412 1622.44 660.072 C 1634.91 690.003 1647.78 719.764 1661.06 749.348 L 1723.57 894.705 C 1731.58 913.814 1743.11 935.336 1749.37 954.87 C 1750.68 958.956 1750.45 980.975 1750.48 986.617 L 1750.53 1044.06 C 1750.82 1078.78 1750.85 1113.5 1750.62 1148.21 C 1750.54 1162.1 1750.89 1179.21 1750.23 1192.88 C 1749.93 1212.94 1749.86 1233.01 1750.01 1253.07 C 1750.07 1271.26 1750.61 1291.73 1750.09 1309.73 C 1750.48 1334.03 1750.72 1358.34 1750.82 1382.65 C 1750.92 1394.26 1751.56 1417.8 1750.31 1428.51 C 1750.15 1447.1 1749.94 1464.16 1748.71 1482.76 C 1658.67 1533.51 1551.93 1545.64 1452.81 1516.38 C 1321.45 1478.37 1220.76 1365.64 1199.1 1230.14 C 1188.43 1163.34 1216.63 1123.65 1283.66 1112.56 C 1313.24 1047.07 1342.38 981.4 1371.09 915.535 L 1474.05 684.6 L 1472.17 684.233 C 1464.01 682.704 1453.6 682.231 1445.21 681.345 C 1387.68 675.266 1336.3 649.554 1282.14 631.046 C 1251.78 620.671 1223.03 614.352 1191.15 609.555 C 1178.63 646.083 1165.58 663.651 1136.91 689.283 L 1136.95 1179.2 C 1136.99 1275.66 1135.95 1373.6 1137.09 1469.87 C 1183.21 1487.82 1218.49 1517.2 1238.71 1563.37 C 1247.2 1582.84 1252.87 1603.42 1255.56 1624.5 C 1315.36 1636.02 1380.53 1699.49 1401.39 1756.03 L 1343.05 1755.99 C 1334.88 1755.99 1319.63 1755.61 1312.09 1756.42 C 1303 1757.73 1264.07 1756.72 1253.15 1756.69 L 1139.49 1756.97 L 823.01 1756.29 C 793.992 1756.09 764.33 1756.72 735.431 1756.19 C 727.295 1755.43 713.024 1755.82 704.408 1755.82 L 647.868 1755.87 C 649.285 1751.85 651.212 1747.75 653.194 1743.98 C 687.385 1679.05 726.3 1645.37 795.136 1623.49 C 806.933 1546.67 841.11 1497.93 914.044 1469.29 L 913.893 690.566 C 883.303 660.694 873.244 650.539 858.342 609.081 C 786.882 619.576 730.544 646.448 663.599 669.658 C 638.457 678.376 603.5 682.143 577.28 684.201 C 605.86 750.9 635.117 817.306 665.046 883.41 L 766.943 1111.75 C 783.134 1114.12 793.768 1115.74 808.424 1123.51 C 827.595 1133.67 845.935 1155.02 851.539 1176.08 C 863.555 1221.24 835.167 1297.22 813.448 1337.11 C 765.954 1424.68 685.34 1489.56 589.64 1517.23 C 493.567 1545.48 389.751 1531.54 302.212 1483.82 C 300.25 1456.51 299.655 1412.43 300.875 1384.6 C 299.647 1364.03 300.484 1329.88 300.887 1308.71 C 300.752 1290.26 300.763 1271.8 300.918 1253.34 C 301.042 1233.2 300.901 1213.06 300.495 1192.92 C 299.636 1180.99 300.391 1158.92 300.431 1146.29 L 300.674 1054 L 300.669 987.436 C 300.666 981.992 300.259 955.83 301.519 952.192 C 307.974 933.564 318.883 912.187 326.367 893.641 C 349.923 835.263 377.427 778.547 401.727 720.454 C 410.107 700.421 419.492 680.864 427.363 660.574 C 417.225 655.913 408.248 652.996 397.482 647.516 C 356.749 626.782 330.635 602.776 300.491 569.951 C 300.595 535.524 309.529 496.983 322.277 465.272 C 330.617 441.93 353.572 409.922 370.554 391.886 C 388.519 369.211 426.78 340.975 452.347 329.396 C 451.532 368.931 450.932 395.367 479.961 427.252 C 499.272 448.463 533.034 458.593 561.112 458.647 C 603.516 458.729 651.09 436.669 690.756 422.655 C 709.912 415.888 730.226 409.777 749.779 404.174 C 806.512 387.917 855.672 384.293 913.933 381.765 L 914.212 289.07 z" fill="rgb(7,5,4)" transform="translate(0,0)"></path>
<path d="M 300.495 1192.92 L 627.176 1193.04 C 675.108 1193.07 725.754 1191.89 773.298 1192.86 C 758.355 1357.32 622.272 1462.74 459.446 1448.22 C 405.519 1443.41 342.708 1419.81 300.875 1384.6 C 299.647 1364.03 300.484 1329.88 300.887 1308.71 C 300.752 1290.26 300.763 1271.8 300.918 1253.34 C 301.042 1233.2 300.901 1213.06 300.495 1192.92 z" fill="rgb(250,173,53)" transform="translate(0,0)"></path>
<path d="M 300.918 1253.34 C 436.448 1251.29 573.908 1253.77 709.709 1252.82 C 685.278 1312.65 642.221 1355.27 582.586 1380.22 C 522.93 1404.56 456.088 1404.44 396.52 1379.88 C 361.586 1365.46 323.575 1339.3 300.887 1308.71 C 300.752 1290.26 300.763 1271.8 300.918 1253.34 z" fill="rgb(7,5,4)" transform="translate(0,0)"></path>
<path d="M 1276.71 1193 L 1750.23 1192.88 C 1749.93 1212.94 1749.86 1233.01 1750.01 1253.07 C 1750.07 1271.26 1750.61 1291.73 1750.09 1309.73 C 1750.48 1334.03 1750.72 1358.34 1750.82 1382.65 C 1750.92 1394.26 1751.56 1417.8 1750.31 1428.51 C 1749.93 1414.01 1750.38 1397.6 1750.36 1382.89 C 1704.17 1420.42 1647.75 1443.18 1588.44 1448.2 C 1430.01 1462.61 1290.67 1353.68 1276.71 1193 z" fill="rgb(250,173,53)" transform="translate(0,0)"></path>
<path d="M 1340.97 1253.07 L 1750.01 1253.07 C 1750.07 1271.26 1750.61 1291.73 1750.09 1309.73 C 1745.56 1315.79 1741.26 1321.11 1735.98 1326.54 C 1641.88 1423.44 1480.94 1420.65 1387.19 1324.84 C 1367.62 1304.84 1352.11 1278.59 1340.97 1253.07 z" fill="rgb(7,5,4)" transform="translate(0,0)"></path>
<path d="M 1678.59 391.034 C 1697.12 409.5 1716.45 439.404 1727.18 463.491 C 1703.34 504.952 1691.6 523.62 1651.45 553.875 C 1590.94 599.463 1505.16 613.648 1431.83 598.218 C 1403.02 592.155 1372.1 577.904 1344.06 567.854 C 1295.47 550.436 1251 537.456 1200.03 529.878 C 1195.27 504.594 1188.26 487.2 1177.35 464.551 C 1235.84 465.557 1304.41 484.977 1358.52 506.906 C 1442.35 540.886 1527.44 559.309 1606.8 501.789 C 1641.53 476.617 1672.02 434.865 1678.59 391.034 z" fill="rgb(250,173,53)" transform="translate(0,0)"></path>
<path d="M 322.277 465.272 C 330.617 441.93 353.572 409.922 370.554 391.886 C 389.796 497.042 504.74 556.92 604.169 535.74 C 640.774 527.943 672.102 514.179 707.059 501.596 C 766.456 480.524 809.917 471.413 871.543 465.272 C 860.088 486.532 853.623 504.727 850.425 528.932 C 782.378 538.388 723.552 562.382 659.615 586.229 C 536.563 632.124 381.423 588.732 322.277 465.272 z" fill="rgb(250,173,53)" transform="translate(0,0)"></path>
<path d="M 735.431 1756.19 C 793.769 1689 831.928 1693.4 915.236 1693.72 L 1024.75 1693.89 C 1058.71 1693.9 1092.67 1693.7 1126.62 1693.29 C 1157.09 1693 1192.41 1691.01 1221.96 1697.53 C 1258.32 1705.54 1290.57 1726.15 1312.09 1756.42 C 1303 1757.73 1264.07 1756.72 1253.15 1756.69 L 1139.49 1756.97 L 823.01 1756.29 C 793.992 1756.09 764.33 1756.72 735.431 1756.19 z" fill="rgb(250,173,53)" transform="translate(0,0)"></path>
<path d="M 993.832 352.491 C 1014.8 352.305 1035.76 352.445 1056.72 352.909 C 1056.23 383.457 1056.83 415.379 1056.99 446.026 C 1085.04 459.578 1106.65 476.49 1118.37 506.513 C 1127.97 531.79 1127.17 559.836 1116.16 584.528 C 1104.11 611.418 1083.73 628.469 1056.66 638.895 C 1055.48 665.578 1056.15 695.911 1056.18 722.887 L 1056.46 865.274 L 1056.51 1247.07 L 1056.52 1389.23 C 1056.5 1407.85 1057.59 1443.05 1055.85 1460.1 L 992.005 1460.17 L 991.896 1044.73 C 991.416 909.738 991.66 774.743 992.63 639.753 C 938.314 614.03 912.132 572.373 928.294 511.863 C 936.873 479.742 963.584 460.777 991.04 446.178 C 991.058 433.068 989.17 362.678 991.414 353.324 L 993.832 352.491 z" fill="rgb(250,173,53)" transform="translate(0,0)"></path>
<path d="M 1017.98 499.588 C 1041.57 496.096 1063.57 512.279 1067.26 535.842 C 1070.95 559.406 1054.96 581.539 1031.42 585.428 C 1007.61 589.365 985.153 573.134 981.418 549.287 C 977.683 525.44 994.103 503.121 1017.98 499.588 z" fill="rgb(7,5,4)" transform="translate(0,0)"></path>
<path d="M 496.535 713.656 C 501.967 719.058 530.526 786.493 534.85 795.964 L 635.474 1018.37 C 649.42 1049.55 664.888 1081.97 678.012 1113.27 C 620.947 1114.91 555.176 1113.33 497.403 1113.31 L 316.535 1113.8 L 496.535 713.656 z" fill="rgb(255,255,255)" transform="translate(0,0)"></path>
<path d="M 1552.06 713.523 C 1557.8 719.879 1583.9 782.629 1588.93 793.843 L 1679.16 994.343 C 1695.59 1031.19 1714.54 1078.07 1733.04 1113.47 C 1674.87 1114.53 1612.87 1113.31 1554.5 1113.2 L 1372.23 1114.01 L 1552.06 713.523 z" fill="rgb(255,255,255)" transform="translate(0,0)"></path>
<path d="M 961.31 1540.35 C 973.872 1539.04 1006.61 1540.07 1020.51 1540.17 C 1038.75 1540.31 1075.62 1538.76 1092.28 1541.1 C 1103.7 1542.65 1114.76 1546.18 1124.96 1551.53 C 1149.97 1564.79 1164.01 1586.75 1172.14 1613.17 L 1088.02 1613.32 C 1018.42 1613.25 946.598 1614.56 877.311 1613.78 C 889.354 1573.62 919.023 1545.44 961.31 1540.35 z" fill="rgb(250,173,53)" transform="translate(0,0)"></path>
<metadata><recraft-signature>{"signed_by": "recraft", "signature_b64": "fro15KmWXJDNHxf6V+T+nm0dUGMnOkTSXJNdIePGyRrNP9uvh+DlQdTK4HVi1fM9YzI2krlRrpdlfcQ6d8u3Ag==", "signing_algo": "Ed25519", "generation_timestamp": 1772777056, "identifier": "da49ae0e-1ea7-4d1d-a0b9-1314f048bf5f"}</recraft-signature></metadata></svg>