<svg xmlns="http://www.w3.org/2000/svg" height="1024" preserveAspectRatio="none" style="display: block;" version="1.1" viewBox="0 0 2048 2048" width="1024">
<path d="M 0 0 L 2048 0 L 2048 2048 L 0 2048 L 0 0 z" fill="rgb(251,251,251)" transform="translate(0,0)"></path>
<path d="M 773.406 254.416 C 775.179 254.225 776.462 254.135 778.257 254.093 C 808.914 253.37 839.748 253.927 870.451 253.875 L 1066.44 253.965 L 1196.6 253.849 C 1224.57 253.825 1255.69 253.155 1283.35 255.292 C 1407.63 264.314 1525.18 315.209 1616.79 399.665 C 1724.59 499.592 1786.55 641.584 1790.36 788.229 C 1791.25 822.183 1790.9 856.294 1790.92 890.271 L 1790.98 1066.95 L 1790.51 1199.52 C 1790.35 1234.3 1791.01 1265.92 1787.59 1300.63 C 1776.09 1418.09 1726.65 1528.61 1646.74 1615.47 C 1578.43 1689 1490.37 1745.9 1393 1771.95 C 1353.91 1782.41 1315.85 1789.73 1275.29 1791.18 C 1273.61 1791.36 1271.92 1791.5 1270.23 1791.61 C 1243.46 1793.42 1204.04 1792.21 1176.09 1792.19 L 1003.45 1792.1 L 862.722 1792.21 C 827.425 1792.26 792.669 1793.17 757.502 1790.08 C 640.86 1780.74 530.455 1733.58 443.051 1655.78 C 333.848 1559.15 267.457 1423.13 258.459 1277.59 C 256.856 1252.12 257.49 1218.6 257.322 1192.73 C 257.049 1128.87 257.189 1065.01 257.741 1001.15 L 257.619 858.031 C 257.472 820.813 256.42 782.83 260.038 745.8 C 271.891 633.083 317.964 526.696 392.065 440.938 C 489.248 330.435 626.517 263.294 773.406 254.416 z" fill="rgb(22,22,22)" transform="translate(0,0)"></path>
<path d="M 979.137 395.488 L 1054.85 395.534 C 1119.91 395.256 1163.11 394.236 1227.83 409.048 C 1268.68 418.026 1308.54 431 1346.85 447.784 C 1365.96 456.126 1386.06 467.241 1405.43 474.743 C 1413.04 476.048 1423.35 473.919 1430.86 473.978 C 1606.31 475.36 1683.94 706.035 1707.89 845.659 C 1717.15 900.808 1721.96 956.611 1722.29 1012.53 C 1724.26 1169.37 1690.43 1369.88 1577.62 1489.15 C 1535.32 1533.88 1490.5 1553.52 1429.32 1554.12 C 1302.43 1631.9 1210.39 1651.86 1062.5 1650.67 C 1009 1650.2 940.443 1652.78 888.503 1648.93 C 756.648 1640.38 632.186 1585 537.555 1492.79 C 479.396 1435.93 433.922 1367.41 404.117 1291.74 C 398.614 1277.74 393.664 1263.53 389.279 1249.13 C 380.432 1220.63 382.74 1225.27 365.377 1202.25 C 332.06 1158.06 318.067 1097.14 317.696 1042.18 C 317.389 1003.17 324.054 964.416 337.377 927.75 C 342.075 915.132 348.836 902.971 353.409 891.022 C 355.346 885.961 358.905 867.804 360.373 861.648 C 363.935 846.851 368.101 832.205 372.859 817.748 C 402.471 723.683 453.67 637.846 522.367 567.093 C 611.631 475.823 728.999 417.229 855.594 400.735 C 897.764 395.457 936.758 395.737 979.137 395.488 z" fill="rgb(247,71,74)" transform="translate(0,0)"></path>
<path d="M 1425.6 502.428 C 1466.49 500.24 1505.31 517.216 1535.66 543.609 C 1635.34 630.285 1678.51 810.725 1689.24 936.341 C 1701.39 1092.42 1684.28 1259.91 1607.57 1398.89 C 1571.1 1464.96 1522.15 1517.96 1443.24 1524.59 C 1442.78 1524.63 1442.31 1524.67 1441.84 1524.71 C 1400.55 1526.42 1359.51 1508.31 1329.69 1480.92 C 1229.75 1389.11 1184.48 1209.67 1177.1 1078.86 C 1167.95 916.834 1188.12 698.429 1298.52 570.505 C 1331.17 532.67 1374.93 505.342 1425.6 502.428 z" fill="rgb(22,22,22)" transform="translate(0,0)"></path>
<path d="M 1404.93 562.365 C 1416.94 560.922 1429.12 562.222 1440.56 566.167 C 1486.47 581.678 1523.59 636.557 1543.88 679.256 C 1627.92 860.289 1639.39 1088.08 1578.25 1277.59 C 1552.94 1356.07 1489.55 1495.05 1386.74 1459.43 C 1371.13 1452.94 1359 1443.57 1346.5 1432.47 C 1441.22 1424.09 1496.81 1262.15 1511.38 1181.49 C 1541.43 1015.09 1528.89 816.516 1439.46 668.726 C 1418.16 633.538 1384.34 603.976 1343.69 595.812 C 1362.24 576.587 1378.46 565.949 1404.93 562.365 z" fill="rgb(247,71,74)" transform="translate(0,0)"></path>
<path d="M 1275.38 704.854 C 1292.6 707.099 1305.47 710.726 1319.19 722.013 C 1368.96 762.965 1397.48 851.329 1405.38 913.121 C 1411.9 919.266 1418.92 925.819 1424.45 932.859 C 1467.54 987.799 1464.07 1077.08 1407.29 1121.76 C 1400.88 1179.2 1375.17 1253.75 1335.67 1296.81 C 1318.06 1316.01 1303.96 1323.49 1278.13 1324.45 C 1270.17 1309.14 1263.81 1292.07 1258.39 1275.68 C 1247.27 1247.7 1234.41 1188.68 1228.95 1159.21 C 1259.61 1148.81 1290.36 1138.69 1321.2 1128.85 C 1369.7 1113.18 1404.02 1105.5 1419.79 1049.81 C 1427.88 1020.38 1424.13 988.966 1409.34 962.278 C 1399.7 945.178 1384.56 928.369 1365.24 923.154 C 1318.36 910.502 1271.52 894.347 1224.9 881.303 C 1228.93 860.809 1231.92 841.963 1236.58 821.212 C 1246.21 778.367 1257.89 744.639 1275.38 704.854 z" fill="rgb(247,71,74)" transform="translate(0,0)"></path>
<path d="M 998.262 579.453 C 1061.91 578.273 1145.52 583.61 1207.33 598.267 C 1181.5 613.875 1135.41 635.301 1107.53 649.305 L 915.88 745.626 L 759.137 824.934 C 739.39 834.712 717.148 846.616 697.072 855.134 C 690.1 858.092 664.402 856.84 655.228 856.797 L 580.285 856.882 C 533.333 856.871 489.67 854.086 453.131 890.992 C 383.752 961.068 385.494 1109.34 452.399 1180.4 C 484.56 1214.56 518.9 1217.19 562.673 1217.29 L 619.118 1217.35 C 621.194 1228.1 625.913 1242.16 629.146 1252.87 C 635.929 1275.33 642.852 1297.75 649.913 1320.13 L 678.25 1411.6 C 684.355 1431.14 690.083 1453.3 698.952 1471.55 C 718.353 1511.47 758.169 1533.35 801.804 1528.65 C 828.676 1525.73 853.229 1512.08 869.88 1490.79 C 885.025 1471.94 892.038 1447.84 889.369 1423.81 C 886.499 1399.59 872.475 1374.97 851.9 1361.44 C 844.018 1356.26 835.195 1352.39 827.993 1346.32 C 820.261 1327.59 817.239 1285.67 816.643 1264.69 C 835.917 1271.68 860.829 1283.01 880.139 1291.16 L 976.686 1331.08 C 994.78 1338.06 1013.14 1346.39 1031.1 1353.91 L 1139.46 1399.27 C 1158.66 1407.27 1204.67 1423.62 1220.61 1432.99 C 1146.88 1451.29 1018.96 1458.27 941.738 1454.34 C 937.934 1466.29 934.373 1477.36 928.894 1488.75 C 911.042 1525.25 879.39 1553.15 840.931 1566.26 C 804.781 1578.69 755.036 1579.5 720.209 1562.2 C 699.809 1552 682.36 1536.75 669.528 1517.89 C 647.08 1484.46 628.708 1417.97 616.775 1378.3 C 605.667 1340.31 593.914 1302.51 581.523 1264.91 C 569.081 1265.09 556.637 1265.03 544.198 1264.72 C 496.008 1263.27 439.004 1246.07 406.42 1209.64 C 364.368 1162.63 344.817 1092.51 347.679 1030.5 C 350.454 970.375 368.151 905.502 413.029 863.712 C 462.52 817.628 514.612 810.871 578.93 813.839 C 596.345 781.466 620.694 749.317 645.341 722.498 C 716.744 644.806 805.87 598.781 910.444 585.501 C 941.049 581.614 967.286 580.432 998.262 579.453 z" fill="rgb(22,22,22)" transform="translate(0,0)"></path>
<path d="M 1207.03 631.131 C 1206.43 634.083 1195.92 645.051 1193 648.828 C 1132.51 727.226 1098.65 833.484 1088.24 930.686 C 1076.31 1042.13 1086.46 1171.73 1130.51 1275.39 C 1148.35 1317.45 1172.05 1356.77 1200.91 1392.18 C 1167.9 1377.3 1129.46 1363.07 1095.33 1348.69 C 1085.82 1344.58 1048.18 1330.03 1042.25 1325.91 C 1023.14 1312.61 997.433 1265.04 986.607 1244.36 C 928.473 1133.31 919.866 982.95 958.056 864.193 C 971.462 821.809 990.683 781.49 1015.17 744.39 C 1028.02 725.08 1031.98 719.857 1053.11 709.849 C 1067.21 703.171 1082.65 695.177 1096.63 688.042 L 1207.03 631.131 z" fill="rgb(22,22,22)" transform="translate(0,0)"></path>
<path d="M 882.677 794.087 L 883.079 794.34 C 883.03 794.869 859.412 832.859 856.538 838.534 C 840.958 869.3 829.533 901.138 822.931 935.006 C 808.094 1011.12 812.421 1098.93 839.145 1172.05 C 851.157 1204.92 867.605 1234.73 887.084 1263.68 C 852.178 1248.37 810.772 1234.06 774.374 1218.99 C 766.51 1215.73 741.494 1207.42 736.271 1203.59 C 639.456 1132.52 634.998 970.814 710.845 883.37 C 715.233 878.31 755.559 858.976 763.932 854.695 L 882.677 794.087 z" fill="rgb(22,22,22)" transform="translate(0,0)"></path>
<path d="M 530.531 887.381 C 536.363 886.496 559.457 886.916 566.539 886.934 L 636.431 886.934 C 580.395 926.4 561.606 971.408 563.921 1040.59 C 565.317 1082.31 577.88 1124.58 604.61 1157.16 C 613.751 1168.3 624.274 1177.42 634.964 1187.11 L 609.5 1186.99 L 561.214 1187.16 C 531.91 1187.24 507.424 1188.35 482.764 1169.15 C 452.134 1145.31 438.93 1098.88 434.338 1062.17 C 428.875 1018.49 435.952 958.726 464.516 923.19 C 482.72 900.54 502.121 890.534 530.531 887.381 z" fill="rgb(22,22,22)" transform="translate(0,0)"></path>
<path d="M 650.355 1209.34 C 655.677 1209.36 672.426 1209 676.309 1210.08 C 689.347 1213.68 705.096 1220.8 717.961 1226.07 C 741.185 1235.67 764.516 1245.02 787.947 1254.11 C 786.558 1280.38 789.234 1360.8 814.476 1373.37 C 859.579 1395.84 876.855 1437.63 840.416 1479.03 C 797.779 1516.49 740.037 1499.49 719.78 1447.17 C 711.58 1425.99 705.672 1402.47 699.095 1380.62 C 681.636 1323.88 665.386 1266.77 650.355 1209.34 z" fill="rgb(22,22,22)" transform="translate(0,0)"></path>
<metadata><recraft-signature>{"signed_by": "recraft", "signature_b64": "vJP2H/3RXXFva30QCsiyDun0wX3rlCjACMFmmL8aTMSifEOXOv8cq/yg0OVvcSmELOwcAqe6JWb1KoJ0QzSjBw==", "signing_algo": "Ed25519", "generation_timestamp": 1772776867, "identifier": "f5227090-9c15-41af-9e0b-87514493b428"}</recraft-signature></metadata></svg>