<svg xmlns="http://www.w3.org/2000/svg" height="1024" preserveAspectRatio="none" style="display: block;" version="1.1" viewBox="0 0 2048 2048" width="1024">
<path d="M 0 0 L 2048 0 L 2048 2048 L 0 2048 L 0 0 z" fill="rgb(255,255,255)" transform="translate(0,0)"></path>
<path d="M 470.296 788.117 C 476.471 776.498 497.19 749.214 505.628 736.912 C 534.652 694.117 564.057 651.582 593.838 609.311 C 633.342 551.626 673.342 494.283 713.834 437.287 C 740.54 399.011 769.45 351.945 802.337 319.915 C 838.911 284.525 883.304 258.245 931.922 243.201 C 1050.42 207.013 1178.74 242.428 1262.55 335.515 C 1290.2 366.214 1315.24 406.422 1338.93 440.552 L 1452.61 603.65 L 1544.3 734.653 C 1553.96 748.589 1576.73 779.565 1583.82 792.621 C 1619.29 835.39 1639.52 864.478 1670.14 911.417 L 1698.01 954.192 C 1701.23 959.215 1709.16 972.481 1712.6 976.643 C 1732.47 1005.81 1756.52 1042.42 1772.01 1073.92 C 1819.64 1172.79 1834.37 1284.31 1814.03 1392.15 C 1787.58 1526.29 1709.58 1644.7 1596.79 1721.96 C 1532.56 1766.39 1459.06 1795.61 1381.86 1807.42 C 1373.84 1808.62 1350.23 1812.31 1343.14 1811.98 L 1342.61 1811.06 C 1346.02 1806.7 1347.31 1803.79 1347.49 1798.14 C 1348.09 1778.75 1347.55 1759.12 1347.43 1739.72 L 1347.25 1639.46 L 1347.21 1569.72 C 1347.3 1530.99 1350.35 1499.32 1315.42 1473.59 C 1299.11 1461.62 1278.69 1456.69 1258.72 1459.9 C 1227.45 1465.03 1198.95 1493.06 1195.33 1524.77 C 1193.66 1539.39 1194.01 1553.67 1194.09 1568.35 L 1194.82 1638 C 1194.89 1697.36 1194.61 1756.72 1194 1816.08 L 978.184 1816.03 C 937.215 1815.81 896.246 1815.94 855.279 1816.42 C 855.665 1748.5 855.701 1680.58 855.387 1612.67 L 855.118 1560.86 C 854.95 1529.61 857.37 1506.51 833.57 1482.19 C 819.276 1467.52 799.644 1459.27 779.163 1459.34 C 758.413 1459.37 738.547 1467.74 724.033 1482.57 C 701.336 1505.71 701.927 1529.85 701.929 1559.9 L 701.995 1615.82 C 702.072 1674.98 702.071 1734.23 702.217 1793.39 C 702.241 1802.95 702.737 1804.56 708.057 1812.39 C 688.825 1810.2 669.636 1808.2 650.653 1804.4 C 528.034 1780.72 417.895 1714.05 340.056 1616.39 C 254.871 1509.55 215.525 1373.3 230.644 1237.49 C 240.607 1151 272.891 1069.93 323.043 999.478 C 328.06 992.43 332.835 983.905 338.033 977.147 C 366.183 934.62 392.981 889.976 422.276 848.228 C 436.073 828.566 454.862 806.817 470.296 788.117 z" fill="rgb(22,23,107)" transform="translate(0,0)"></path>
<path d="M 1712.6 976.643 C 1732.47 1005.81 1756.52 1042.42 1772.01 1073.92 C 1819.64 1172.79 1834.37 1284.31 1814.03 1392.15 C 1787.58 1526.29 1709.58 1644.7 1596.79 1721.96 C 1532.56 1766.39 1459.06 1795.61 1381.86 1807.42 C 1373.84 1808.62 1350.23 1812.31 1343.14 1811.98 L 1342.61 1811.06 C 1346.02 1806.7 1347.31 1803.79 1347.49 1798.14 C 1348.09 1778.75 1347.55 1759.12 1347.43 1739.72 L 1347.25 1639.46 L 1347.21 1569.72 C 1347.3 1530.99 1350.35 1499.32 1315.42 1473.59 C 1299.11 1461.62 1278.69 1456.69 1258.72 1459.9 C 1227.45 1465.03 1198.95 1493.06 1195.33 1524.77 C 1193.66 1539.39 1194.01 1553.67 1194.09 1568.35 L 1194.82 1638 C 1194.89 1697.36 1194.61 1756.72 1194 1816.08 L 978.184 1816.03 C 937.215 1815.81 896.246 1815.94 855.279 1816.42 C 855.665 1748.5 855.701 1680.58 855.387 1612.67 L 855.118 1560.86 C 854.95 1529.61 857.37 1506.51 833.57 1482.19 C 819.276 1467.52 799.644 1459.27 779.163 1459.34 C 758.413 1459.37 738.547 1467.74 724.033 1482.57 C 701.336 1505.71 701.927 1529.85 701.929 1559.9 L 701.995 1615.82 C 702.072 1674.98 702.071 1734.23 702.217 1793.39 C 702.241 1802.95 702.737 1804.56 708.057 1812.39 C 688.825 1810.2 669.636 1808.2 650.653 1804.4 C 528.034 1780.72 417.895 1714.05 340.056 1616.39 C 254.871 1509.55 215.525 1373.3 230.644 1237.49 C 240.607 1151 272.891 1069.93 323.043 999.478 C 328.06 992.43 332.835 983.905 338.033 977.147 C 444.515 1173.6 625.832 1318.71 840.841 1379.55 C 854.615 1383.53 903.892 1395.59 917.813 1395.93 C 920.433 1395.85 940.413 1397.1 939.91 1397.4 C 940.072 1396.99 940.001 1396.61 940.001 1395.67 C 945.698 1396.62 972.187 1400.25 975.34 1402.63 C 1015.91 1405.08 1038.8 1405.26 1079.66 1402.14 C 1094.06 1402.76 1111.88 1399.68 1126.13 1397.09 C 1166.06 1394.7 1239.4 1372.02 1277.26 1357.65 C 1448.62 1292.57 1598 1168.13 1692.86 1011.27 C 1699.55 1000.21 1707.45 988.34 1712.6 976.643 z" fill="rgb(253,73,74)" transform="translate(0,0)"></path>
<path d="M 940.001 1395.67 C 945.698 1396.62 972.187 1400.25 975.34 1402.63 C 960.494 1402.17 932.202 1399.95 917.813 1395.93 C 920.433 1395.85 940.413 1397.1 939.91 1397.4 C 940.072 1396.99 940.001 1396.61 940.001 1395.67 z" fill="rgb(25,175,204)" transform="translate(0,0)"></path>
<path d="M 470.296 788.117 C 476.471 776.498 497.19 749.214 505.628 736.912 C 534.652 694.117 564.057 651.582 593.838 609.311 C 633.342 551.626 673.342 494.283 713.834 437.287 C 740.54 399.011 769.45 351.945 802.337 319.915 C 838.911 284.525 883.304 258.245 931.922 243.201 C 1050.42 207.013 1178.74 242.428 1262.55 335.515 C 1290.2 366.214 1315.24 406.422 1338.93 440.552 L 1452.61 603.65 L 1544.3 734.653 C 1553.96 748.589 1576.73 779.565 1583.82 792.621 C 1578.55 788.562 1562.87 770.538 1556.76 764.501 C 1539.13 747.083 1521 728.762 1502.22 712.564 C 1416.66 639.25 1316.16 585.438 1207.71 554.866 C 1188.78 549.522 1163.95 542.527 1144.45 539.925 C 1135.65 541.077 1123.72 537.213 1119.25 539.413 C 1118.91 539.342 1118.58 539.272 1118.25 539.202 L 1111.01 537.786 C 1102.13 536.03 1093.33 534.882 1084.48 532.801 L 1080.5 531.904 C 1036 527.669 1005.59 527.809 961.219 532.98 C 948.641 536.109 935.598 538.627 922.872 541.404 C 917.123 537.944 911.827 543.075 904.42 541.351 L 902.617 540.974 C 883.995 542.781 847.47 552.716 829.065 558.308 C 725.979 589.252 630.523 641.461 548.856 711.567 C 531.521 726.382 514.898 742.013 499.045 758.406 C 493.143 764.481 475.364 784.028 470.296 788.117 z" fill="rgb(253,73,74)" transform="translate(0,0)"></path>
<path d="M 1080.5 531.904 C 1093.3 532.282 1103.36 533.518 1115.99 535.129 C 1121.35 535.865 1126.7 536.735 1132.01 537.738 C 1136.18 538.306 1140.35 538.966 1144.45 539.925 C 1135.65 541.077 1123.72 537.213 1119.25 539.413 C 1118.91 539.342 1118.58 539.272 1118.25 539.202 L 1111.01 537.786 C 1102.13 536.03 1093.33 534.882 1084.48 532.801 L 1080.5 531.904 z" fill="rgb(25,175,204)" transform="translate(0,0)"></path>
<path d="M 902.617 540.974 C 917.867 537.351 945.739 533.625 961.219 532.98 C 948.641 536.109 935.598 538.627 922.872 541.404 C 917.123 537.944 911.827 543.075 904.42 541.351 L 902.617 540.974 z" fill="rgb(25,175,204)" transform="translate(0,0)"></path>
<path d="M 902.617 540.974 L 904.42 541.351 C 911.827 543.075 917.123 537.944 922.872 541.404 C 802.122 575.1 710.368 642.242 648.556 751.977 C 592.43 853.549 578.547 973.133 609.909 1084.86 C 642.016 1198.56 718.048 1294.8 821.223 1352.36 C 852.164 1369.68 904.918 1389.4 940.001 1395.67 C 940.001 1396.61 940.072 1396.99 939.91 1397.4 C 940.413 1397.1 920.433 1395.85 917.813 1395.93 C 903.892 1395.59 854.615 1383.53 840.841 1379.55 C 625.832 1318.71 444.515 1173.6 338.033 977.147 C 366.183 934.62 392.981 889.976 422.276 848.228 C 436.073 828.566 454.862 806.817 470.296 788.117 C 475.364 784.028 493.143 764.481 499.045 758.406 C 514.898 742.013 531.521 726.382 548.856 711.567 C 630.523 641.461 725.979 589.252 829.065 558.308 C 847.47 552.716 883.995 542.781 902.617 540.974 z" fill="rgb(7,198,202)" transform="translate(0,0)"></path>
<path d="M 1119.25 539.413 C 1123.72 537.213 1135.65 541.077 1144.45 539.925 C 1163.95 542.527 1188.78 549.522 1207.71 554.866 C 1316.16 585.438 1416.66 639.25 1502.22 712.564 C 1521 728.762 1539.13 747.083 1556.76 764.501 C 1562.87 770.538 1578.55 788.562 1583.82 792.621 C 1619.29 835.39 1639.52 864.478 1670.14 911.417 L 1698.01 954.192 C 1701.23 959.215 1709.16 972.481 1712.6 976.643 C 1707.45 988.34 1699.55 1000.21 1692.86 1011.27 C 1598 1168.13 1448.62 1292.57 1277.26 1357.65 C 1239.4 1372.02 1166.06 1394.7 1126.13 1397.09 C 1111.88 1399.68 1094.06 1402.76 1079.66 1402.14 C 1086.7 1399.75 1108.66 1396.03 1116.98 1394.43 C 1159.51 1384.27 1206.22 1365.81 1243.62 1343.19 C 1345.72 1281.63 1418.69 1181.51 1446.02 1065.47 C 1472.5 952.784 1453.29 834.199 1392.57 735.645 C 1330.91 634.238 1234.02 567.26 1119.25 539.413 z" fill="rgb(7,198,202)" transform="translate(0,0)"></path>
<path d="M 995.958 671.425 C 1049.91 667.152 1103.88 679.505 1150.6 706.822 C 1144.3 717.156 1135.18 729.712 1128.12 739.998 C 1110.17 766.57 1091.45 792.614 1071.98 818.095 C 1063.24 815.161 1056.14 813.067 1047.01 811.381 C 1006.91 803.599 965.362 812.527 931.994 836.099 C 860.398 886.375 849.176 982.281 899.035 1052.21 L 860.21 1103.15 C 844.032 1124.13 828.164 1145.34 812.61 1166.78 C 762.601 1121.71 732.105 1052.07 726.898 985.47 C 720.18 908.691 744.464 832.416 794.335 773.653 C 847.659 711.322 914.359 677.773 995.958 671.425 z" fill="rgb(254,148,5)" transform="translate(0,0)"></path>
<metadata><recraft-signature>{"signed_by": "recraft", "signature_b64": "PzeOvyjRdKOBuG/kWidRBoQHJEfhnc06315ooaz8QgFAOj7iyw1c7LN2mBaQa3nQNnp/v22ERIBQ7vn4qj8nBw==", "signing_algo": "Ed25519", "generation_timestamp": 1772776908, "identifier": "c847bf23-60ad-47f0-8242-f69ebe2b0227"}</recraft-signature></metadata></svg>