<svg xmlns="http://www.w3.org/2000/svg" height="1024" preserveAspectRatio="none" style="display: block;" version="1.1" viewBox="0 0 2048 2048" width="1024">
<path d="M 0 0 L 2048 0 L 2048 2048 L 0 2048 L 0 0 z" fill="rgb(255,255,255)" transform="translate(0,0)"></path>
<path d="M 716.739 257.45 C 757.162 256.447 800.593 257.46 841.31 257.382 L 1115.58 257.219 L 1256.94 257.304 C 1308.59 257.188 1353.99 254.715 1404.74 265.201 C 1489.55 282.724 1563.08 317.714 1628.14 375.239 C 1723.9 459.225 1782.19 577.943 1790.1 705.067 C 1792.17 739.031 1790.97 783.455 1790.9 818.156 C 1790.51 881.815 1790.43 945.475 1790.67 1009.13 L 1790.77 1214.41 C 1790.94 1288.86 1794.97 1363.32 1777.67 1436.04 C 1759.92 1508.64 1724.94 1575.89 1675.67 1632.1 C 1606.28 1710.48 1517.38 1762.72 1415.05 1786.79 C 1389.8 1792.73 1362.1 1795.05 1336.25 1796.63 C 1300.09 1797.98 1257.82 1796.94 1221.24 1796.92 L 1011.54 1796.93 L 826.273 1796.89 C 755.516 1796.86 694.485 1800.85 625.243 1783.66 C 541.519 1762.87 472.69 1725.18 409.153 1666.86 C 317.835 1582.03 264.255 1464.19 260.356 1339.62 C 258.521 1293.76 259.517 1240.02 259.771 1193.9 L 259.885 1018.7 L 259.86 833.622 C 259.782 753.642 255.456 684.807 276.97 606.811 C 298.249 529.668 335.41 465.849 389.565 407.253 C 474.402 315.852 592.115 261.955 716.739 257.45 z" fill="rgb(0,0,0)" transform="translate(0,0)"></path>
<path d="M 489.848 462.921 C 588.377 462.257 684.419 493.84 763.324 552.852 C 853.954 620.686 914.035 721.648 930.426 833.66 C 942.125 918.748 929.898 1006.3 889.696 1082.72 C 870.134 1119.91 873.912 1117.49 837.63 1137.69 C 828.263 1142.95 819.077 1148.52 810.088 1154.4 C 755.319 1189.22 707.34 1233.71 668.496 1285.7 C 567.555 1328.28 478.212 1328 373.477 1302.9 C 370.61 1302.17 370.651 1302.29 368.206 1300.69 C 367.197 1296.86 367.693 1274.24 367.726 1269.01 L 368.186 1197.56 C 521.854 1257.69 686.833 1209.32 779.111 1070.7 C 825.963 999.087 842.714 911.897 825.739 828.019 C 808.74 743.383 758.871 668.943 687.067 621.023 C 624.057 578.519 548.776 558.01 472.915 562.681 C 449.45 564.227 431.714 567.607 408.745 572.273 C 428.912 530.436 454.9 493.753 489.848 462.921 z" fill="rgb(246,77,75)" transform="translate(0,0)"></path>
<path d="M 1090.54 1175.42 C 1207.24 1167.3 1336.77 1217.06 1420.06 1298.98 C 1505.43 1382.93 1545.45 1488.17 1546.07 1606.92 C 1506.17 1638.09 1482.16 1649.64 1435.55 1668.2 C 1439.57 1645.92 1442.04 1613.14 1442.02 1590.62 C 1441.93 1507.28 1408.78 1427.39 1349.86 1368.45 C 1285.18 1303.77 1197.06 1268.05 1105.61 1269.44 C 891.398 1277.65 744.158 1458.74 789.714 1671.29 C 791.077 1677.66 792.762 1684 794.346 1690.31 C 758.136 1690.09 721.096 1691.78 685.349 1686.68 C 681.606 1665.35 678.318 1644.86 677.097 1623.21 C 671.067 1510.13 710.564 1399.35 786.77 1315.59 C 865.015 1228.2 974.536 1181.96 1090.54 1175.42 z" fill="rgb(246,77,75)" transform="translate(0,0)"></path>
<path d="M 1265.63 363.41 C 1268.62 362.996 1271.27 363.049 1274.21 362.892 C 1490.73 351.303 1675.37 509.095 1681.81 729.334 C 1684.32 825.769 1648.46 919.26 1582.1 989.28 C 1513.47 1061.68 1418.99 1104 1319.28 1107.03 C 1214.66 1109.62 1109.86 1066.78 1034.35 994.846 C 1040.56 955.223 1042.95 943.06 1044.99 901.796 C 1116.35 998.466 1208.65 1041.65 1328.25 1036.84 C 1385.23 1031.75 1439.78 1011.37 1486.14 977.85 C 1552.39 929.67 1596.9 857.244 1609.96 776.372 C 1622.6 696.779 1600.34 615.992 1552.95 551.313 C 1503.51 484.978 1430.22 440.464 1348.57 427.179 C 1186.79 402.4 1023.9 517.727 998.848 680.477 C 983.9 650.143 967.65 620.468 950.142 591.536 C 959.274 561.261 984.484 519.824 1005.68 495.193 C 1074.79 414.884 1161.8 372.916 1265.63 363.41 z" fill="rgb(246,77,75)" transform="translate(0,0)"></path>
<path d="M 1300.27 534.123 C 1408.7 532.172 1498.35 618.175 1500.9 726.597 C 1503.45 835.02 1417.94 925.14 1309.53 928.286 C 1200.28 931.457 1109.3 845.134 1106.73 735.863 C 1104.16 626.591 1190.98 536.089 1300.27 534.123 z" fill="rgb(246,77,75)" transform="translate(0,0)"></path>
<path d="M 1290.83 635.6 C 1344.13 629.133 1392.6 667.064 1399.13 720.36 C 1405.67 773.656 1367.8 822.172 1314.51 828.775 C 1261.13 835.389 1212.51 797.436 1205.96 744.045 C 1199.41 690.653 1237.43 642.078 1290.83 635.6 z" fill="rgb(0,0,0)" transform="translate(0,0)"></path>
<path d="M 370.304 701.208 C 431.622 668.147 490.521 657.495 558.851 676.604 C 676.241 709.432 751.082 833.791 715.072 952.568 C 697.412 1012.22 656.473 1062.25 601.494 1091.37 C 547.532 1119.84 484.39 1125.43 426.265 1106.88 C 405.736 1100.52 386.152 1091.44 368.037 1079.88 C 368.025 1053.38 367.659 1025.94 368.145 999.515 C 368.052 997.678 367.989 995.839 367.954 994 C 367.829 986.435 367.8 947.576 368.697 937.402 C 368.707 937.283 369.062 937.362 369.247 937.418 C 370.152 938.527 369.988 938.709 370.189 940.29 C 397.969 1006.84 480.133 1038.67 546.117 1010.5 C 576.834 997.457 601.031 972.63 613.283 941.588 C 626.142 909.625 625.635 873.839 611.875 842.254 C 583.922 778.335 503.812 747.439 440.278 776.212 C 404.742 792.304 383.583 818.199 368.376 853.25 C 367.614 827.727 367.913 801.128 367.881 775.535 C 367.852 752.433 367.301 723.985 370.304 701.208 z" fill="rgb(246,77,75)" transform="translate(0,0)"></path>
<path d="M 368.145 999.515 C 368.052 997.678 367.989 995.839 367.954 994 C 367.829 986.435 367.8 947.576 368.697 937.402 C 368.707 937.283 369.062 937.362 369.247 937.418 C 370.152 938.527 369.988 938.709 370.189 940.29 C 368.188 945.216 369.635 987.804 368.145 999.515 z" fill="rgb(172,63,60)" transform="translate(0,0)"></path>
<path d="M 1091.58 1377.4 C 1095.84 1376.75 1107.48 1376.76 1111.85 1376.76 C 1148.21 1376.75 1180.73 1385.4 1213.32 1401.38 C 1265.5 1427.01 1305.5 1472.13 1324.7 1527 C 1342.31 1578.67 1339.46 1639.24 1315.51 1688.45 C 1294.74 1688.87 1273.49 1688.43 1252.66 1688.46 C 1233.38 1688.49 1212.7 1689.24 1193.55 1688.35 C 1271.32 1616.7 1237.08 1496.41 1134.24 1477.19 C 1127.03 1476.29 1120.89 1475.38 1113.57 1475.29 C 1079.77 1475.09 1047.23 1488.16 1022.96 1511.69 C 983.467 1550.27 975.451 1612.6 1002.92 1660.53 C 1009.68 1672.3 1017.77 1680.47 1027.17 1690 C 987.941 1689.57 946.391 1692.11 907.372 1690.48 C 898.226 1669.44 892.264 1647.15 889.68 1624.35 C 882.758 1564.5 900.423 1504.41 938.631 1457.83 C 977.512 1410.07 1030.75 1383.52 1091.58 1377.4 z" fill="rgb(246,77,75)" transform="translate(0,0)"></path>
<path d="M 1683.56 1036.8 L 1684.5 1038.1 C 1685.57 1048.54 1685.02 1068.56 1685.04 1079.55 L 1685.13 1158.5 L 1685.11 1275.99 C 1685.08 1304.92 1685.79 1340.89 1681.38 1369.37 C 1675.16 1409.61 1659.45 1460.15 1639.76 1495.98 C 1638.08 1490.32 1636.61 1483.42 1635.34 1477.58 C 1626.51 1437.06 1612.16 1399.77 1593.95 1362.69 C 1559.74 1292.96 1516.66 1244.45 1460.59 1192.04 C 1552.49 1159.11 1622.72 1114.64 1683.56 1036.8 z" fill="rgb(246,77,75)" transform="translate(0,0)"></path>
<path d="M 379.973 1414.63 C 463.047 1430.74 519.484 1431.29 603.132 1417.87 C 578.546 1478.16 568.671 1545.6 569.046 1610.4 C 569.452 1623.45 570.751 1637.16 571.265 1650.48 C 563.44 1647.27 552.688 1641.54 545.441 1637.08 C 457.474 1582.87 405.369 1513.98 379.973 1414.63 z" fill="rgb(246,77,75)" transform="translate(0,0)"></path>
<path d="M 729.078 362.433 C 752.365 360.751 791.094 361.941 815.172 361.94 L 987.573 362.075 C 939.959 401.141 913.082 432.983 880.143 483.606 L 870.032 499.149 C 798.88 440.299 724.072 399.162 634.194 377.979 C 659.182 369.048 702.59 363.624 729.078 362.433 z" fill="rgb(246,77,75)" transform="translate(0,0)"></path>
<metadata><recraft-signature>{"signed_by": "recraft", "signature_b64": "+eylamQTq4BPbJKVJBKaDRc8+sXPpf9Amj9LNIvEEXxEE214TLllDAsToj511ttdCTKfem8MWP8Po9GKiWh7Dw==", "signing_algo": "Ed25519", "generation_timestamp": 1772776888, "identifier": "c058768c-d37e-4280-8ff4-5bbde6782c6e"}</recraft-signature></metadata></svg>