<svg xmlns="http://www.w3.org/2000/svg" height="1024" preserveAspectRatio="none" style="display: block;" version="1.1" viewBox="0 0 2048 2048" width="1024">
<path d="M 0 0 L 5.86747 0 L 36.6353 0 L 68.0695 0 L 97.6668 0 L 129.27 0 L 158.895 0 L 191.183 0 L 219.891 0 L 253.173 0 L 281.984 0 L 314.755 0 L 344.489 0 L 376.034 0 L 405.96 0 L 437.917 0 L 559.345 0 L 1085.31 0 L 1480.56 0 L 1588.38 0 L 1617.03 0 L 1647.32 0 L 1677.29 0 L 1707.94 0 L 1739.19 0 L 1769.25 0 L 1801.11 0 L 1830.97 0 L 1862.8 0 L 1893.03 0 L 1923.92 0 L 1954.01 0 L 1983.99 0 L 2014.97 0 L 2048 0 L 2048 31.6408 L 2048 62.7111 L 2048 94.4111 L 2048 125.012 L 2048 156.75 L 2048 187.016 L 2048 218.951 L 2048 249.699 L 2048 282.014 L 2048 312.953 L 2048 345.335 L 2048 374.892 L 2048 406.819 L 2048 436.291 L 2048 469.692 L 2048 541.306 L 2048 598.612 L 2048 791.146 L 2048 1017.77 L 2048 1377.86 L 2048 1500.84 L 2048 1576.54 L 2048 1608.94 C 2041.57 1608.98 2035.63 1608.94 2029.18 1609.13 C 2026.09 1620.7 2017.74 1645.75 2012.97 1657.02 C 2000.18 1696.04 1984.75 1727.93 1963.97 1763.04 C 1941.54 1799.61 1925.68 1820.97 1898 1853.7 C 1893.11 1858.51 1865.59 1885.18 1862.77 1888.98 C 1843.96 1904.74 1829.08 1918.58 1808.61 1933.28 L 1808.34 1933.82 L 1787.03 1948.02 C 1783.26 1950.43 1779.41 1952.71 1775.7 1955.21 C 1753.8 1969.24 1736.22 1978.18 1712.98 1990.22 C 1693.89 1999.39 1674.21 2007.27 1654.06 2013.8 C 1649.33 2015.55 1644.01 2017.79 1639.12 2018.64 C 1602.26 2029.92 1568.99 2039.18 1530.52 2043.81 C 1514.15 2045.78 1494.27 2045.78 1478.89 2048 L 904.915 2048 L 566.618 2048 L 557.351 2048 C 550.979 2046.49 529.325 2045.14 520.874 2044.05 C 496.017 2040.96 471.389 2036.25 447.148 2029.94 C 437.294 2026.94 426.907 2024.44 416.96 2021.47 C 407.644 2018.96 396.957 2015.1 387.696 2012.01 C 366.64 2003.24 350.257 1996.94 328.828 1987.26 C 306.212 1973.96 288.065 1964.51 264.801 1949.89 C 258.228 1946 250.066 1940.91 244.406 1935.83 C 188.709 1895.86 140.368 1846.52 101.534 1790.02 C 91.8976 1776.22 82.6362 1756.93 74.4287 1745.64 L 73.4354 1744.3 C 68.3727 1732.28 57.0684 1712.01 50.8211 1699 C 47.0424 1689.83 42.3917 1678.77 39.2452 1669.47 L 34.9787 1657.38 C 29.375 1640.65 23.4293 1623.61 18.7148 1606.64 C 12.4877 1607.24 6.24782 1607.69 3.55271e-15 1607.99 L 0 1576.41 L 0 1500.58 L 0 1377.73 L 0 1015.88 L 0 791.082 L 0 599.913 L 0 550.565 L 0 438.073 L 0 407.154 L 0 378.444 L 0 345.604 L 0 314.501 L 0 281.447 L 0 190.359 L 0 156.53 L 0 0 z" fill="rgb(254,77,122)" transform="translate(0,0)"></path>
<path d="M 0 599.913 C 16.3727 590.218 40.0577 580.708 57.8487 573.68 C 141.614 540.589 240.917 531.229 328.998 553.573 C 430.219 579.469 516.907 644.718 569.8 734.822 C 609.245 801.612 628.764 876.362 626.617 953.464 C 626.5 957.656 626.179 974.547 627.707 977.801 C 633.579 990.308 650.36 1016.07 657.228 1026.89 L 748.148 1168.69 C 761.944 1190.39 778.945 1213.34 788.676 1236.88 C 797.559 1259.39 785.886 1290.01 764.452 1300.75 C 726.444 1319.78 683.042 1292.84 648.64 1325.44 C 621.419 1351.24 626.217 1382.76 626.238 1417.37 L 626.088 1533.25 C 626.318 1599.04 639.67 1669.89 568.813 1707.12 C 539.206 1722.68 521.998 1719.44 489.566 1719.5 L 392.712 1719.6 C 372.442 1719.61 346.255 1718.1 327.128 1721.14 C 268.007 1730.54 232.353 1780.49 232.9 1838.71 C 233.281 1879.23 229.556 1896.81 244.406 1935.83 C 188.709 1895.86 140.368 1846.52 101.534 1790.02 C 91.8976 1776.22 82.6362 1756.93 74.4287 1745.64 L 73.4354 1744.3 C 68.3727 1732.28 57.0684 1712.01 50.8211 1699 C 47.0424 1689.83 42.3917 1678.77 39.2452 1669.47 L 34.9787 1657.38 C 29.375 1640.65 23.4293 1623.61 18.7148 1606.64 C 12.4877 1607.24 6.24782 1607.69 3.55271e-15 1607.99 L 0 1576.41 L 0 1500.58 L 0 1377.73 L 0 1015.88 L 0 791.082 L 0 599.913 z" fill="rgb(0,0,0)" transform="translate(0,0)"></path>
<path d="M 0 791.082 C 22.1504 790.055 42.3355 789.25 64.1614 794.353 C 92.9157 801.075 119.788 814.527 141.69 834.53 C 175.545 865.448 195.488 911.127 196.136 956.927 C 197.101 1013.06 196.227 1070.61 196.351 1126.93 C 196.39 1144.14 195.92 1163.53 196.681 1180.67 L 237.981 1216.74 C 254.81 1231.42 269.649 1242.93 281.313 1262.41 C 310.237 1310.72 305.388 1374.31 266.374 1415.91 C 233.733 1450.71 199.87 1485.19 166.726 1519.92 L 97.7584 1591.75 C 77.4949 1613.13 55.909 1636.8 34.9787 1657.38 C 29.375 1640.65 23.4293 1623.61 18.7148 1606.64 C 12.4877 1607.24 6.24782 1607.69 3.55271e-15 1607.99 L 0 1576.41 L 0 1500.58 L 0 1377.73 L 0 1015.88 L 0 791.082 z" fill="rgb(254,77,122)" transform="translate(0,0)"></path>
<path d="M 0 1015.88 C 33.694 1042.42 70.1183 1074.12 103.674 1101.82 C 121.801 1116.85 139.816 1132.02 157.718 1147.31 C 169.921 1157.58 185.276 1169.77 196.358 1180.78 C 196.116 1201.55 195.599 1216.53 191.135 1237.05 C 173.549 1317.93 103.353 1380.59 18.8573 1379.09 C 12.5494 1379.03 6.25107 1378.58 0 1377.73 L 0 1015.88 z" fill="rgb(0,0,0)" transform="translate(0,0)"></path>
<path d="M 0 1576.41 C 4.4803 1575.75 6.9792 1575.23 11.4307 1575.22 C 13.3064 1584.97 15.7737 1597.39 18.7148 1606.64 C 12.4877 1607.24 6.24782 1607.69 3.55271e-15 1607.99 L 0 1576.41 z" fill="rgb(254,253,253)" transform="translate(0,0)"></path>
<path d="M 0 1500.58 C 4.50952 1518.8 4.84168 1542.49 8.77135 1562.01 L 10.2257 1569.49 C 10.6649 1571.4 11.0946 1573.29 11.4307 1575.22 C 6.9792 1575.23 4.4803 1575.75 0 1576.41 L 0 1500.58 z" fill="rgb(240,240,240)" transform="translate(0,0)"></path>
<path d="M 1808.61 1933.28 C 1807.52 1928.23 1814.56 1909.91 1814.8 1903.19 C 1816.38 1858.45 1823.19 1802.09 1793.77 1764.89 C 1755.03 1715.9 1714.96 1719.17 1659.51 1719.22 L 1568.97 1719.39 C 1552.09 1719.45 1530.92 1720.57 1514.48 1718.38 C 1476.82 1713.38 1442.64 1685.27 1429.68 1649.68 C 1423.01 1631.38 1423.52 1612.81 1423.42 1593.46 L 1423.29 1540.02 L 1423.12 1414.28 C 1423.07 1383.75 1428.11 1361.15 1409.04 1334.51 C 1372.01 1282.79 1306.31 1332.65 1269.36 1286.69 C 1241.54 1252.08 1270.5 1217.69 1289.27 1187.84 C 1298.97 1172.42 1308.86 1156.52 1318.92 1141 L 1398.21 1018.16 C 1402.13 1012.11 1421.34 983.778 1421.91 978.881 C 1424.26 958.852 1422.8 937.018 1424 916.305 C 1427.71 859.361 1443.6 803.877 1470.59 753.601 C 1519.87 661.354 1603.34 592.095 1703.09 560.684 C 1822.23 524.017 1938.87 541.008 2048 598.612 L 2048 791.146 L 2048 1017.77 L 2048 1377.86 L 2048 1500.84 L 2048 1576.54 L 2048 1608.94 C 2041.57 1608.98 2035.63 1608.94 2029.18 1609.13 C 2026.09 1620.7 2017.74 1645.75 2012.97 1657.02 C 2000.18 1696.04 1984.75 1727.93 1963.97 1763.04 C 1941.54 1799.61 1925.68 1820.97 1898 1853.7 C 1893.11 1858.51 1865.59 1885.18 1862.77 1888.98 C 1843.96 1904.74 1829.08 1918.58 1808.61 1933.28 z" fill="rgb(0,0,0)" transform="translate(0,0)"></path>
<path d="M 2012.97 1657.02 C 1992.74 1634.33 1974.17 1616.23 1953.31 1594.51 L 1833.46 1469.11 C 1814.14 1448.59 1791.03 1426.33 1773.61 1404.75 C 1741.54 1365.05 1742.09 1297.27 1771.66 1256.44 C 1782.49 1241.48 1797.96 1229.79 1811.6 1217.44 C 1824.63 1205.86 1838.41 1192.89 1852.23 1182.39 C 1852.31 1190.92 1852.58 1200.8 1853.23 1209.32 C 1856.6 1259.27 1879.91 1305.77 1917.9 1338.37 C 1956.49 1370.88 1998.51 1382.03 2048 1377.86 L 2048 1500.84 L 2048 1576.54 L 2048 1608.94 C 2041.57 1608.98 2035.63 1608.94 2029.18 1609.13 C 2026.09 1620.7 2017.74 1645.75 2012.97 1657.02 z" fill="rgb(254,77,122)" transform="translate(0,0)"></path>
<path d="M 2036.28 1578.72 L 2038.01 1578.28 C 2042.47 1577.1 2043.45 1577.17 2048 1576.54 L 2048 1608.94 C 2041.57 1608.98 2035.63 1608.94 2029.18 1609.13 C 2029.69 1607.3 2030.31 1605.3 2030.74 1603.47 L 2031.68 1599.44 C 2032.05 1597.84 2032.49 1596.08 2032.84 1594.49 L 2033.73 1590.47 C 2034.56 1586.78 2035.61 1582.4 2036.28 1578.72 z" fill="rgb(254,253,253)" transform="translate(0,0)"></path>
<path d="M 2048 1500.84 L 2048 1576.54 C 2043.45 1577.17 2042.47 1577.1 2038.01 1578.28 L 2036.28 1578.72 C 2039.35 1561.65 2043.22 1545.42 2044.87 1528 C 2045.65 1519.72 2046.21 1508.77 2048 1500.84 z" fill="rgb(240,240,240)" transform="translate(0,0)"></path>
<path d="M 1853.05 1181.86 C 1851.42 1137.86 1853.12 1090.62 1852.74 1046.47 C 1852.45 1013.93 1851.93 977.222 1852.93 945.414 C 1854.19 905.297 1880.29 857.117 1911.35 831.677 C 1954.11 796.659 1994.54 787.526 2048 791.146 L 2048 1017.77 L 1943.64 1105.37 C 1913.48 1130.39 1882.04 1155.55 1853.05 1181.86 z" fill="rgb(254,77,122)" transform="translate(0,0)"></path>
<path d="M 1085.31 0 L 1480.56 0 L 1588.38 0 L 1617.03 0 L 1647.32 0 L 1677.29 0 L 1707.94 0 L 1739.19 0 L 1769.25 0 L 1801.11 0 L 1830.97 0 L 1862.8 0 L 1893.03 0 L 1923.92 0 L 1954.01 0 L 1983.99 0 L 2014.97 0 L 2048 0 L 2048 31.6408 L 2048 62.7111 L 2048 94.4111 L 2048 125.012 L 2048 156.75 L 2048 187.016 L 2048 218.951 L 2048 249.699 L 2048 282.014 L 2048 312.953 L 2048 345.335 L 2048 374.892 L 2048 406.819 C 2040.52 406.728 2026.46 405.709 2019.53 406.464 C 2013.82 386.933 2003.52 361.234 1995.09 342.83 C 1992.12 336.67 1982.03 316.611 1978.46 311.564 C 1961.14 304.189 1939.55 299.717 1921 296.185 C 1847.17 282.125 1767.3 281.309 1693.58 296.344 C 1448.81 346.269 1262.94 520.529 1188.59 757.909 C 1176.11 797.749 1168.34 836.218 1161.59 877.434 C 1158.78 894.615 1159.49 916.203 1155.06 931.644 C 1153.66 936.542 1141.94 955.352 1138.6 960.828 L 1107.3 1011.6 C 1080.14 1055.87 1053.79 1102.36 1025.25 1145.68 C 992.617 1094.28 960.549 1042.53 929.05 990.427 C 917.819 972.243 905.694 953.752 895.409 935.138 C 894.1 932.768 892.676 904.846 892.33 900.511 C 880.043 738.885 810.761 586.873 696.832 471.572 C 678.363 453.03 658.71 435.708 637.996 419.713 C 626.292 410.534 613.082 401.577 601.966 392.09 C 630.138 368.589 661.507 344.601 690.364 321.18 C 774.087 253.787 857.444 185.94 940.43 117.643 C 989.112 78.9108 1037.41 39.6947 1085.31 -9.09495e-13 z" fill="rgb(0,0,0)" transform="translate(0,0)"></path>
<path d="M 1647.32 0 L 1677.29 0 L 1707.94 0 L 1739.19 0 L 1769.25 0 L 1801.11 0 L 1830.97 0 L 1862.8 0 L 1893.03 0 L 1923.92 0 L 1954.01 0 L 1983.99 0 L 2014.97 0 L 2048 0 L 2048 31.6408 L 2048 62.7111 L 2048 94.4111 L 2048 125.012 L 2048 156.75 L 2048 187.016 L 2048 218.951 L 2048 249.699 L 2048 282.014 L 2048 312.953 L 2048 345.335 L 2048 374.892 L 2048 406.819 C 2040.52 406.728 2026.46 405.709 2019.53 406.464 C 2013.82 386.933 2003.52 361.234 1995.09 342.83 C 1992.12 336.67 1982.03 316.611 1978.46 311.564 C 1973.85 301.997 1968.69 294.582 1964.32 285.9 C 1961.69 282.948 1947.85 259.797 1943.97 254.115 C 1927.95 230.547 1910.15 208.236 1890.73 187.378 C 1852.9 144.954 1815.13 117.295 1768.01 86.6857 C 1747.83 76.1774 1730.55 64.4315 1708.47 55.0408 C 1688.36 45.8073 1667.75 37.7172 1646.74 30.8093 C 1647.33 20.8774 1647.41 9.9673 1647.32 0 z" fill="rgb(240,240,240)" transform="translate(0,0)"></path>
<path d="M 1708.99 31.9303 C 1718.96 31.8974 1728.87 31.6904 1738.86 31.8141 C 1738.46 42.5016 1738.31 53.2835 1737.76 63.9193 C 1748.69 63.1029 1759.03 63.6018 1769.99 63.0754 C 1769.94 69.6692 1770.98 81.6186 1768.01 86.6857 C 1747.83 76.1774 1730.55 64.4315 1708.47 55.0408 C 1709.44 47.6708 1709 39.4724 1708.99 31.9303 z" fill="rgb(254,253,253)" transform="translate(0,0)"></path>
<path d="M 1964.32 285.9 C 1967.8 282.189 1979.65 283.526 1984.85 283.508 L 1984.79 312.86 C 1995.38 313.773 2004.29 313.834 2014.94 313.824 C 2014.84 323.765 2014.76 333.224 2015.02 343.165 L 1995.09 342.83 C 1992.12 336.67 1982.03 316.611 1978.46 311.564 C 1973.85 301.997 1968.69 294.582 1964.32 285.9 z" fill="rgb(254,253,253)" transform="translate(0,0)"></path>
<path d="M 2015.4 281.918 C 2026.27 281.731 2037.14 281.763 2048 282.014 L 2048 312.953 C 2037 312.914 2026.5 312.544 2015.57 312.422 C 2015.41 302.248 2015.45 292.081 2015.4 281.918 z" fill="rgb(254,253,253)" transform="translate(0,0)"></path>
<path d="M 2015.94 31.4718 C 2019.29 31.541 2022.65 31.5372 2026.01 31.4606 C 2033.34 31.299 2040.67 31.3591 2048 31.6408 L 2048 62.7111 C 2036.9 63.1001 2027.06 63.0751 2016.02 62.2686 L 2015.94 31.4718 z" fill="rgb(254,253,253)" transform="translate(0,0)"></path>
<path d="M 2015.95 94.1032 C 2026.5 94.0675 2037.51 93.8055 2048 94.4111 L 2048 125.012 C 2037.34 125.092 2026.68 125.06 2016.02 124.919 C 2015.78 114.648 2015.76 104.374 2015.95 94.1032 z" fill="rgb(254,253,253)" transform="translate(0,0)"></path>
<path d="M 2016.07 219.015 L 2048 218.951 L 2048 249.699 C 2037.36 250.004 2026.71 249.881 2016.06 249.926 C 2016 239.622 2016 229.319 2016.07 219.015 z" fill="rgb(254,253,253)" transform="translate(0,0)"></path>
<path d="M 1862.8 0 L 1893.03 0 L 1892.96 32.1242 C 1882.6 32.4386 1873.15 32.5825 1862.79 32.0794 C 1862.58 21.722 1862.23 10.268 1862.8 0 z" fill="rgb(254,253,253)" transform="translate(0,0)"></path>
<path d="M 2016.28 156.909 C 2026.91 156.921 2037.34 156.662 2048 156.75 L 2048 187.016 C 2037.53 187.088 2027.05 187.076 2016.58 186.98 L 2016.28 156.909 z" fill="rgb(254,253,253)" transform="translate(0,0)"></path>
<path d="M 2048 345.335 L 2048 374.892 C 2037.55 375.089 2027.1 375.091 2016.66 374.898 L 2016.59 373.442 C 2016.23 363.808 2015.95 354.729 2015.99 345.06 C 2026.61 345.28 2037.35 345.223 2048 345.335 z" fill="rgb(254,253,253)" transform="translate(0,0)"></path>
<path d="M 1892.48 156.917 C 1902.74 157.06 1912.74 156.7 1922.96 156.742 L 1922.92 188.077 C 1911.56 187.839 1902.04 187.048 1890.73 187.378 C 1893.97 175.245 1892.14 169.276 1892.48 156.917 z" fill="rgb(254,253,253)" transform="translate(0,0)"></path>
<path d="M 1677.29 0 L 1707.94 0 L 1707.92 30.9475 L 1677.21 30.4335 C 1676.99 20.2898 1677.02 10.1423 1677.29 0 z" fill="rgb(254,253,253)" transform="translate(0,0)"></path>
<path d="M 1922.92 188.077 C 1932.66 188.48 1944.04 188.132 1953.95 188.047 C 1954.13 198.357 1954.04 207.851 1953.97 218.12 C 1943.96 217.992 1933.18 218.152 1923.12 218.336 L 1922.92 188.077 z" fill="rgb(254,253,253)" transform="translate(0,0)"></path>
<path d="M 1923.92 0 L 1954.01 0 C 1954.11 10.3785 1954.09 20.7578 1953.95 31.1358 L 1923.99 30.9954 C 1923.86 20.6641 1923.84 10.3318 1923.92 0 z" fill="rgb(254,253,253)" transform="translate(0,0)"></path>
<path d="M 1801.11 0 L 1830.97 0 C 1830.84 10.3666 1830.86 20.7343 1831.02 31.1003 C 1821.04 30.9924 1811.06 30.9568 1801.08 30.9933 C 1800.96 20.9201 1800.82 10.0182 1801.11 0 z" fill="rgb(254,253,253)" transform="translate(0,0)"></path>
<path d="M 1739.19 0 L 1769.25 0 L 1769.56 30.9637 C 1759.58 31.0442 1749.59 31.0433 1739.6 30.9608 C 1738.96 20.807 1739.04 10.1813 1739.19 0 z" fill="rgb(254,253,253)" transform="translate(0,0)"></path>
<path d="M 1983.99 0 L 2014.97 0 L 2015.05 30.2859 L 1984.67 30.1275 L 1984.54 23.4994 C 1984.38 15.4946 1984 8.15442 1983.99 0 z" fill="rgb(254,253,253)" transform="translate(0,0)"></path>
<path d="M 1845.25 94.5003 C 1851.21 94.0929 1856.01 94.1556 1861.98 94.0986 C 1862.07 104.71 1862.08 115.322 1862.02 125.934 L 1848.81 125.967 C 1843.64 126.019 1838.43 125.864 1833.29 126.431 L 1831.51 126.593 L 1831.55 94.51 L 1845.25 94.5003 z" fill="rgb(254,253,253)" transform="translate(0,0)"></path>
<path d="M 1980.77 31.5044 C 1981.04 31.4883 1983.42 31.2767 1983.51 31.6195 C 1985.07 37.4988 1984.48 57.1758 1984.48 62.8002 C 1975.23 62.9235 1965.99 62.9472 1956.75 62.8715 C 1956.43 62.8496 1954.45 62.777 1954.35 62.4829 C 1952.64 57.29 1953.72 36.1728 1953.79 31.7175 C 1962.78 31.5074 1971.77 31.4363 1980.77 31.5044 z" fill="rgb(254,253,253)" transform="translate(0,0)"></path>
<path d="M 1984.83 62.9968 C 1995.17 63.0517 2005.51 63.0486 2015.85 62.9873 C 2015.77 73.209 2015.89 83.6593 2015.73 93.8116 C 2005.68 94.0474 1995.14 93.8297 1985.03 93.8349 L 1984.83 62.9968 z" fill="rgb(254,253,253)" transform="translate(0,0)"></path>
<path d="M 1984.51 125.884 L 2015.86 125.808 C 2015.66 135.655 2015.43 145.564 2015.74 155.394 C 2011.86 156.63 1989.73 156.088 1984.87 156.031 C 1984.83 145.975 1984.51 135.886 1984.51 125.884 z" fill="rgb(254,253,253)" transform="translate(0,0)"></path>
<path d="M 1953.13 219.839 C 1963.5 219.969 1973.88 219.981 1984.25 219.875 C 1984.23 229.946 1983.98 239.812 1984.11 249.894 C 1974.1 250.042 1964.09 250.062 1954.08 249.954 C 1953.24 237.96 1953.01 231.85 1953.13 219.839 z" fill="rgb(254,253,253)" transform="translate(0,0)"></path>
<path d="M 1770.02 32.0037 L 1800.17 31.7782 C 1799.99 42.2348 1800.03 52.4558 1799.99 62.8925 L 1770.04 62.8804 L 1770.02 32.0037 z" fill="rgb(254,253,253)" transform="translate(0,0)"></path>
<path d="M 1862.2 63.1127 L 1892.9 62.9708 C 1892.71 73.453 1892.12 83.3499 1892.23 93.8775 L 1862.15 93.8995 C 1862.09 84.0741 1861.94 72.8639 1862.2 63.1127 z" fill="rgb(254,253,253)" transform="translate(0,0)"></path>
<path d="M 2014.28 250.656 C 2016.91 250.85 2015.36 278.153 2015.29 281.672 C 2005.94 281.637 1996.6 281.709 1987.26 281.889 C 1984.61 279.739 1985.71 255.964 1985.33 250.735 C 1994.98 251.07 2004.64 251.044 2014.28 250.656 z" fill="rgb(254,253,253)" transform="translate(0,0)"></path>
<path d="M 1984.97 188.156 C 1995.3 188.303 2005.63 188.303 2015.96 188.154 C 2015.78 196.919 2016.25 209.882 2015.56 218.091 L 1984.98 218.284 L 1984.97 188.156 z" fill="rgb(254,253,253)" transform="translate(0,0)"></path>
<path d="M 1831.93 32.1844 L 1862.24 31.9498 C 1862.13 41.9557 1862.2 52.8544 1861.9 62.8268 C 1852 62.945 1842.08 62.945 1832.17 62.8268 C 1832.37 52.1479 1832.08 42.7721 1831.93 32.1844 z" fill="rgb(254,253,253)" transform="translate(0,0)"></path>
<path d="M 1954.01 94.51 L 1984.63 94.51 C 1984.29 105.021 1983.96 114.361 1983.95 124.92 L 1953.78 124.952 C 1953.76 114.804 1953.84 104.656 1954.01 94.51 z" fill="rgb(254,253,253)" transform="translate(0,0)"></path>
<path d="M 1923.96 63.0731 L 1953.62 63.1163 L 1953.84 93.9287 L 1924.02 93.9029 C 1924.16 83.6267 1924.14 73.3487 1923.96 63.0731 z" fill="rgb(254,253,253)" transform="translate(0,0)"></path>
<path d="M 1893.7 32.0925 L 1922.67 31.9617 C 1922.52 43.2109 1922.39 51.3884 1922.93 62.6825 C 1913.01 62.9141 1903.09 62.9269 1893.17 62.7207 C 1893.11 54.6496 1892.66 39.6182 1893.7 32.0925 z" fill="rgb(254,253,253)" transform="translate(0,0)"></path>
<path d="M 1893.14 94.9554 C 1903.19 94.8815 1912.88 94.9961 1923 94.7531 L 1922.89 125.226 C 1913.19 125.003 1902.8 125.231 1893.05 125.229 L 1893.14 94.9554 z" fill="rgb(254,253,253)" transform="translate(0,0)"></path>
<path d="M 1801.02 63.6637 C 1811.11 63.5108 1821.21 63.4596 1831.31 63.51 C 1830.97 73.6862 1830.97 83.3217 1830.97 93.49 L 1800.98 93.49 C 1801.05 83.5481 1801.06 73.6058 1801.02 63.6637 z" fill="rgb(254,253,253)" transform="translate(0,0)"></path>
<path d="M 1954.11 157.487 C 1964.12 157.454 1974.12 157.323 1984.12 157.094 L 1984.08 187.036 L 1954.06 187.055 C 1953.96 177.819 1953.72 166.638 1954.11 157.487 z" fill="rgb(254,253,253)" transform="translate(0,0)"></path>
<path d="M 1862.59 126.076 C 1872.68 126.027 1882.71 125.851 1892.81 125.901 L 1892.1 156.089 C 1882.6 155.879 1872.85 155.274 1863.44 155.675 C 1861.67 155.751 1861.92 153.854 1862.14 152.521 C 1863.57 144.032 1862.65 134.746 1862.59 126.076 z" fill="rgb(254,253,253)" transform="translate(0,0)"></path>
<path d="M 1923.92 126.041 C 1933.64 126.109 1943.27 125.914 1953.01 126.038 L 1952.95 156.09 C 1943.21 156.002 1933.67 156.13 1923.87 155.972 L 1923.92 126.041 z" fill="rgb(254,253,253)" transform="translate(0,0)"></path>
<path d="M 1617.03 0 L 1647.32 0 C 1647.41 9.9673 1647.33 20.8774 1646.74 30.8093 C 1636.88 27.3467 1626.37 24.6926 1616.36 21.7125 C 1616.69 13.5191 1617.02 8.61815 1617.03 0 z" fill="rgb(254,253,253)" transform="translate(0,0)"></path>
<path d="M 1480.56 0 L 1588.38 0 C 1587.86 5.13237 1588.39 10.1298 1586.98 14.6743 C 1566.37 10.6591 1546.15 6.75687 1525.31 4.05483 C 1510.98 2.19656 1494.57 2.22587 1480.56 0 z" fill="rgb(254,253,253)" transform="translate(0,0)"></path>
<path d="M 1588.38 0 L 1617.03 0 C 1617.02 8.61815 1616.69 13.5191 1616.36 21.7125 C 1607.8 19.212 1595.84 16.7038 1586.98 14.6743 C 1588.39 10.1298 1587.86 5.13237 1588.38 0 z" fill="rgb(240,240,240)" transform="translate(0,0)"></path>
<path d="M 898.997 1684.58 C 933.361 1748.62 1010.42 1776.54 1077.83 1749.37 C 1105.14 1738.36 1128.36 1719.17 1144.32 1694.42 C 1148.19 1699.94 1152.34 1714.17 1155.09 1721.07 C 1166.26 1749.08 1179.58 1777.23 1195.97 1802.61 L 1027.4 1943.64 L 967.993 1994.03 C 960.11 2000.62 947.282 2011.93 939.097 2017.76 C 937.956 2019.7 908.039 2044.58 904.812 2046.88 L 904.915 2048 L 566.618 2048 C 570.823 2045.18 575.128 2042.76 579.504 2040.23 C 583.496 2036.69 601.199 2027.99 606.571 2025.06 C 610.753 2022.18 632.175 2011.25 638.253 2007.88 C 657.225 1997.63 675.774 1985.06 693.902 1973.25 C 695.247 1972.07 696.476 1971.26 697.933 1970.23 C 721.547 1951.93 735.375 1939.85 756.824 1919.29 L 758.214 1917.79 C 768.133 1906.69 778.663 1896.03 788.42 1884.76 C 795.317 1876.8 801.072 1867.95 807.636 1859.76 C 808.555 1857.84 818.958 1843.34 820.832 1840.65 C 824.092 1835.82 827.313 1830.97 830.496 1826.09 C 843.499 1805.65 855.388 1784.52 866.111 1762.8 C 870.364 1752.68 874.764 1742.63 879.308 1732.63 L 880.344 1730.18 C 886.566 1716.91 892.541 1696.14 898.997 1684.58 z" fill="rgb(240,240,240)" transform="translate(0,0)"></path>
<path d="M 898.997 1684.58 C 933.361 1748.62 1010.42 1776.54 1077.83 1749.37 C 1079.74 1751.62 1080.95 1790.33 1081.61 1797.67 C 1082.48 1787.06 1082.38 1780.61 1082.04 1770.12 C 1091.92 1770.73 1102.1 1770.54 1112.02 1770.51 C 1111.96 1780.4 1111.74 1790.82 1112 1800.66 C 1102.51 1800.68 1091.32 1801 1081.97 1800.65 C 1081.8 1811.24 1081.77 1821.83 1081.88 1832.42 C 1071.61 1832.63 1062.47 1832.77 1052.17 1832.37 C 1052.51 1821.8 1052.53 1811.23 1052.21 1800.66 C 1047.31 1800.72 1035.71 1801.74 1032.5 1799.31 L 1031.22 1795.82 C 1026.5 1794.41 1012.24 1794.73 1006.22 1794.51 C 1006.19 1804.78 1006.34 1815.71 1006.12 1825.93 C 995.939 1825.94 985.762 1825.89 975.586 1825.77 C 974.808 1816.76 975.169 1803.31 975.142 1793.96 L 943.983 1794 C 942.996 1786.46 943.462 1771.79 943.49 1763.68 L 913.011 1763.86 C 912.787 1753.61 912.941 1743.06 912.962 1732.79 C 905.403 1732.76 885.539 1734.1 880.344 1730.18 C 886.566 1716.91 892.541 1696.14 898.997 1684.58 z" fill="rgb(254,253,253)" transform="translate(0,0)"></path>
<path d="M 756.824 1919.29 C 760.455 1923.59 758.996 1942.1 758.999 1949.1 C 749.086 1949.07 737.693 1949.32 727.9 1948.79 C 728.262 1959.07 728.832 1969.9 728.657 1980.15 C 718.911 1980.69 707.018 1981.98 697.691 1982.14 L 697.953 2010.97 C 688.09 2011 677.859 2011.19 668.028 2010.93 C 667.574 2022.11 666.974 2033.21 667.255 2044.4 C 659.078 2044.17 646.827 2044.2 639.038 2043.03 C 639.074 2035.8 639.498 2013.49 638.253 2007.88 C 657.225 1997.63 675.774 1985.06 693.902 1973.25 C 695.247 1972.07 696.476 1971.26 697.933 1970.23 C 721.547 1951.93 735.375 1939.85 756.824 1919.29 z" fill="rgb(254,253,253)" transform="translate(0,0)"></path>
<path d="M 693.902 1973.25 C 695.247 1972.07 696.476 1971.26 697.933 1970.23 C 697.963 1972.33 698.26 1977.93 697.659 1979.55 C 696.387 1980.48 695.387 1975.22 693.902 1973.25 z" fill="rgb(240,240,240)" transform="translate(0,0)"></path>
<path d="M 882.679 2011.95 C 893.062 2012.07 903.659 2011.96 914.065 2011.95 C 914.11 2017.48 913.684 2024.7 914.355 2030.05 L 914.509 2030.13 L 914.666 2030.07 C 915.158 2024.28 915.004 2018.84 915.006 2013.01 C 923.632 2013.01 930.995 2012.18 939.501 2012.01 C 940.091 2011.99 942.372 2011.75 942.632 2012.51 C 941.099 2013.26 939.713 2016.31 939.097 2017.76 C 937.956 2019.7 908.039 2044.58 904.812 2046.88 C 897.962 2044.09 890.332 2045.43 882.7 2045.27 C 882.763 2034.16 882.756 2023.06 882.679 2011.95 z" fill="rgb(254,253,253)" transform="translate(0,0)"></path>
<path d="M 1006.12 1825.93 C 1011.34 1826.06 1029.35 1825.39 1029.53 1826.63 C 1031.07 1836.87 1032.4 1834.08 1050.55 1833.88 C 1050.47 1843.93 1050.48 1853.32 1050.91 1863.37 C 1045.92 1864.19 1037.04 1864.38 1032.05 1863.64 C 1030.09 1863.34 1031.75 1856.7 1030.42 1856.64 C 1022.38 1856.32 1014.26 1856.55 1006.12 1856.2 C 1006.2 1846.09 1005.98 1835.99 1006.12 1825.93 z" fill="rgb(254,253,253)" transform="translate(0,0)"></path>
<path d="M 879.308 1732.63 C 883.106 1740.15 881.873 1754.73 881.948 1764.04 C 892.353 1764.17 902.567 1764.43 912.966 1764.08 L 912.98 1793.95 L 889.5 1793.46 C 887.251 1793.39 885.004 1793.28 882.758 1793.14 C 882.059 1782.41 881.901 1774.92 881.993 1763.98 C 876.818 1763.98 870.445 1764.78 866.111 1762.8 C 870.364 1752.68 874.764 1742.63 879.308 1732.63 z" fill="rgb(254,253,253)" transform="translate(0,0)"></path>
<path d="M 913.062 1794.02 C 923.251 1794.05 933.822 1794.16 943.983 1794 C 943.535 1803.18 943.847 1815.59 943.917 1825.03 C 933.342 1825.14 923.712 1825.13 913.143 1825.03 C 912.841 1814.85 913.009 1804.23 913.062 1794.02 z" fill="rgb(254,253,253)" transform="translate(0,0)"></path>
<path d="M 830.496 1826.09 C 837.781 1826.27 844.71 1826.17 851.991 1826.14 C 851.709 1837.02 851.653 1845.78 851.801 1856.61 C 842.176 1856.92 832.546 1857.03 822.916 1856.94 C 822.92 1850.29 824.221 1846.33 820.832 1840.65 C 824.092 1835.82 827.313 1830.97 830.496 1826.09 z" fill="rgb(254,253,253)" transform="translate(0,0)"></path>
<path d="M 807.636 1859.76 C 807.346 1865.36 794.769 1880.06 790.568 1885.14 L 789.872 1886 C 796.979 1886 814.907 1887.36 820.306 1884.46 C 823.914 1886.91 812.26 1887.28 813.973 1887.1 C 805.697 1887.98 797.557 1887.52 789.305 1886.68 C 790.21 1897.1 789.957 1907.26 789.986 1917.71 C 782.34 1918.71 765.071 1920.88 758.214 1917.79 C 768.133 1906.69 778.663 1896.03 788.42 1884.76 C 795.317 1876.8 801.072 1867.95 807.636 1859.76 z" fill="rgb(254,253,253)" transform="translate(0,0)"></path>
<path d="M 579.504 2040.23 C 583.496 2036.69 601.199 2027.99 606.571 2025.06 C 607.924 2033.06 607.864 2036 607.855 2044 C 597.315 2044.25 586.807 2044.44 576.296 2044.73 L 576.197 2044.49 C 577.28 2042.88 577.674 2043.35 579.504 2040.23 z" fill="rgb(254,253,253)" transform="translate(0,0)"></path>
<path d="M 1143.43 1770.16 C 1153.21 1770.4 1162.99 1770.38 1172.77 1770.11 L 1174.69 1770.07 C 1175.46 1780.86 1175.37 1789.21 1175.35 1800.05 C 1164.9 1799.79 1154 1799.95 1143.51 1800 C 1143.87 1790.05 1143.84 1780.1 1143.43 1770.16 z" fill="rgb(254,253,253)" transform="translate(0,0)"></path>
<path d="M 944.331 1825.58 C 954.545 1825.24 964.767 1825.23 974.982 1825.55 C 974.889 1835.71 974.889 1845.88 974.983 1856.05 C 964.437 1856.22 954.558 1856.05 944.114 1856.08 C 944.531 1845.92 944.604 1835.75 944.331 1825.58 z" fill="rgb(254,253,253)" transform="translate(0,0)"></path>
<path d="M 852.041 1980.57 C 862.335 1980.67 872.553 1980.5 882.852 1980.55 L 882.263 2011.44 C 872.877 2011.07 861.561 2011.3 852.003 2011.35 C 851.947 2001.09 851.96 1990.83 852.041 1980.57 z" fill="rgb(254,253,253)" transform="translate(0,0)"></path>
<path d="M 822.004 1887.1 C 831.992 1887.02 841.98 1886.89 851.968 1886.7 C 851.916 1897.12 852.016 1907.67 851.882 1918.06 C 841.728 1918.06 832.141 1918.14 821.965 1917.91 C 822.168 1907.09 822.202 1897.94 822.004 1887.1 z" fill="rgb(254,253,253)" transform="translate(0,0)"></path>
<path d="M 913.822 1918.53 C 923.925 1918.71 934.028 1918.8 944.132 1918.78 C 944.062 1929.09 943.847 1939.21 943.883 1949.55 C 934.985 1949.09 923.306 1949.39 914.033 1949.25 C 913.787 1939.01 913.717 1928.77 913.822 1918.53 z" fill="rgb(254,253,253)" transform="translate(0,0)"></path>
<path d="M 944.589 1887.96 C 954.808 1888.05 965.027 1888.08 975.246 1888.04 C 974.88 1898.29 975.014 1908.14 974.877 1918.36 C 964.601 1919.07 955.188 1918.9 944.943 1918.4 C 944.939 1908.12 944.983 1898.24 944.589 1887.96 z" fill="rgb(254,253,253)" transform="translate(0,0)"></path>
<path d="M 883.101 1950.02 L 913.988 1950.03 C 914.151 1960.04 914.17 1970.06 914.046 1980.07 C 903.762 1979.93 893.413 1980 883.114 1979.94 C 882.982 1969.96 883.166 1960 883.101 1950.02 z" fill="rgb(254,253,253)" transform="translate(0,0)"></path>
<path d="M 883.239 1825.8 C 892.659 1825.48 903.547 1825.25 912.948 1825.6 L 912.974 1856.01 C 902.277 1856.89 893.89 1857.04 883.108 1856.26 C 883.331 1846.54 883.29 1835.55 883.239 1825.8 z" fill="rgb(254,253,253)" transform="translate(0,0)"></path>
<path d="M 883.51 1887.4 C 893.388 1887.41 903.265 1887.31 913.141 1887.11 C 913.089 1892.95 913.525 1913.57 912.702 1917.98 C 902.779 1918.04 893.002 1918.17 883.076 1918.02 C 883.173 1907.85 883.522 1897.55 883.51 1887.4 z" fill="rgb(254,253,253)" transform="translate(0,0)"></path>
<path d="M 850.11 1949.54 C 853.467 1949.75 851.951 1976.2 851.956 1980.19 L 823.876 1980.32 C 820.387 1978.48 821.989 1955.15 821.964 1949.84 C 831.421 1949.93 840.672 1949.66 850.11 1949.54 z" fill="rgb(254,253,253)" transform="translate(0,0)"></path>
<path d="M 759.94 1950.15 C 769.965 1949.93 779.992 1949.81 790.019 1949.79 C 789.916 1959.93 789.886 1970.07 789.928 1980.21 C 779.407 1980.26 770.441 1980.4 759.865 1980.02 C 759.833 1970.04 760.068 1960.13 759.94 1950.15 z" fill="rgb(254,253,253)" transform="translate(0,0)"></path>
<path d="M 883.108 1856.26 C 882.518 1864.5 882.707 1877.7 882.753 1886.14 L 852.118 1886.02 L 852.022 1856.74 C 862.401 1856.64 872.724 1856.21 883.108 1856.26 z" fill="rgb(254,253,253)" transform="translate(0,0)"></path>
<path d="M 791.076 1918.41 C 801.279 1917.95 810.768 1918.07 820.966 1918.07 L 820.88 1948.8 C 810.927 1948.93 800.973 1948.88 791.023 1948.63 C 791.03 1939.01 790.727 1927.94 791.076 1918.41 z" fill="rgb(254,253,253)" transform="translate(0,0)"></path>
<path d="M 853.043 1793.96 C 862.892 1794.82 872.079 1794.61 881.973 1794.22 C 882.002 1804.35 881.911 1815.06 882.595 1825.14 C 872.527 1825.09 862.54 1825.49 852.476 1825.5 C 852.836 1815.06 852.568 1804.26 853.043 1793.96 z" fill="rgb(254,253,253)" transform="translate(0,0)"></path>
<path d="M 975.134 1918.76 L 1005.87 1918.76 L 1005.07 1948.23 C 994.514 1949.03 985.732 1948.94 975.159 1948.94 C 975.054 1938.89 975.046 1928.82 975.134 1918.76 z" fill="rgb(254,253,253)" transform="translate(0,0)"></path>
<path d="M 944.114 1856.08 C 943.506 1865.43 943.747 1877.17 943.88 1886.63 C 934.45 1886.07 923.559 1886.33 913.962 1886.24 L 913.804 1856.15 C 923.62 1856.1 934.475 1856.34 944.114 1856.08 z" fill="rgb(254,253,253)" transform="translate(0,0)"></path>
<path d="M 944.51 1950.1 L 974.924 1950.09 L 974.923 1979.88 C 964.889 1980.09 954.852 1980.15 944.816 1980.06 C 944.571 1970.08 944.469 1960.09 944.51 1950.1 z" fill="rgb(254,253,253)" transform="translate(0,0)"></path>
<path d="M 821.19 2012.12 C 831.42 2012.22 841.651 2012.16 851.88 2011.94 L 851.05 2042.16 C 841.209 2042.62 831.353 2042.67 821.508 2042.32 C 821.521 2032.29 821.754 2022.13 821.19 2012.12 z" fill="rgb(254,253,253)" transform="translate(0,0)"></path>
<path d="M 698.985 2012.04 L 728.171 2011.96 L 727.972 2043.16 C 718.198 2043.07 708.687 2043.31 698.963 2043.29 C 699.043 2032.87 699.05 2022.45 698.985 2012.04 z" fill="rgb(254,253,253)" transform="translate(0,0)"></path>
<path d="M 729.096 1980.75 C 739.167 1980.85 748.865 1980.51 758.982 1980.68 L 759.034 2011.01 L 729.208 2010.95 C 729.318 2000.88 729.281 1990.82 729.096 1980.75 z" fill="rgb(254,253,253)" transform="translate(0,0)"></path>
<path d="M 1124.76 1739.45 C 1130.7 1739.28 1136.48 1739.32 1142.47 1739.09 L 1142.75 1769.6 C 1139.77 1769.79 1137.21 1769.67 1134.25 1769.72 C 1127.16 1769.73 1120.07 1769.81 1112.99 1769.94 C 1113.12 1759.41 1113.12 1750.4 1113.66 1739.8 C 1116.79 1739.53 1121.53 1739.51 1124.76 1739.45 z" fill="rgb(254,253,253)" transform="translate(0,0)"></path>
<path d="M 760.105 2012.22 C 769.955 2012.32 780.075 2012.04 789.981 2012 C 789.955 2021.72 789.971 2032.43 789.448 2042.09 C 779.426 2042.51 770.906 2042.56 760.814 2042.12 C 760.791 2032.15 760.555 2022.18 760.105 2012.22 z" fill="rgb(254,253,253)" transform="translate(0,0)"></path>
<path d="M 1113.08 1801.42 C 1122.84 1801.21 1132.61 1801.08 1142.38 1801.03 C 1142.05 1811 1141.99 1820.98 1142.2 1830.95 C 1132.49 1831.28 1122.77 1831.46 1113.06 1831.48 C 1113.01 1821.96 1112.76 1810.89 1113.08 1801.42 z" fill="rgb(254,253,253)" transform="translate(0,0)"></path>
<path d="M 852.156 1918.8 C 862.186 1918.95 872.131 1918.69 882.155 1918.62 C 881.949 1928.52 881.876 1938.43 881.934 1948.33 L 852.305 1948.22 C 852.292 1938.57 852.03 1928.35 852.156 1918.8 z" fill="rgb(254,253,253)" transform="translate(0,0)"></path>
<path d="M 976.009 1856.75 C 985.691 1856.97 995.375 1857.12 1005.06 1857.19 L 1004.99 1886.71 C 995.368 1886.86 985.748 1886.86 976.129 1886.72 L 976.009 1856.75 z" fill="rgb(254,253,253)" transform="translate(0,0)"></path>
<path d="M 791.648 1981.5 C 801.166 1981.44 810.683 1981.3 820.2 1981.09 C 820.072 1986.02 820.26 2007.6 819.641 2010.97 L 790.998 2010.93 C 791.019 2005.97 790.572 1984.56 791.648 1981.5 z" fill="rgb(254,253,253)" transform="translate(0,0)"></path>
<path d="M 1083.23 1833.47 C 1092.86 1833.2 1102.5 1833.06 1112.13 1833.04 C 1111.9 1842.91 1111.14 1852.1 1110.99 1862.03 C 1101.67 1862.08 1092.36 1862.21 1083.04 1862.41 C 1083.03 1853.91 1082.72 1841.7 1083.23 1833.47 z" fill="rgb(254,253,253)" transform="translate(0,0)"></path>
<path d="M 1195.97 1802.61 L 1197.28 1804.09 C 1203.47 1811.14 1209.03 1820.77 1214.83 1828.36 C 1301.19 1941.23 1421.35 2005.55 1563.92 2016.77 C 1579.82 2017.89 1595.76 2018.43 1611.7 2018.41 C 1616.97 2018.4 1634.69 2017.92 1639.12 2018.64 C 1602.26 2029.92 1568.99 2039.18 1530.52 2043.81 C 1514.15 2045.78 1494.27 2045.78 1478.89 2048 L 904.915 2048 L 904.812 2046.88 C 908.039 2044.58 937.956 2019.7 939.097 2017.76 C 947.282 2011.93 960.11 2000.62 967.993 1994.03 L 1027.4 1943.64 L 1195.97 1802.61 z" fill="rgb(0,0,0)" transform="translate(0,0)"></path>
<path d="M 0 0 L 5.86747 0 L 36.6353 0 L 68.0695 0 L 97.6668 0 L 129.27 0 L 158.895 0 L 191.183 0 L 219.891 0 L 253.173 0 L 281.984 0 L 314.755 0 L 344.489 0 L 376.034 0 C 375.818 11.1709 375.761 19.8865 376.138 31.1364 C 365.421 32.6185 355.975 32.0721 345.187 32.0699 C 345.285 36.9634 344.911 47.4301 346.078 51.647 C 309.531 68.4596 272.197 88.8132 240.363 113.471 C 198.296 138.897 159.525 185.709 127.865 222.453 C 118.129 234.392 109.075 246.872 100.748 259.833 C 97.7325 264.43 91.7294 274.749 88.9103 278.397 C 83.0803 288.553 76.7116 299.184 71.5458 309.633 C 64.2328 321.558 57.7471 339.197 52.6826 347.116 C 47.7217 359.05 42.6096 370.434 37.9438 382.555 C 35.0467 390.082 32.5122 399.211 29.6519 406.214 C 22.4341 406.014 15.0414 406.129 7.77929 406.058 C 7.83891 412.756 8.17008 419.843 7.7645 426.502 C 7.10619 437.31 8.97961 436.281 0 438.073 L 0 407.154 L 0 378.444 L 0 345.604 L 0 314.501 L 0 281.447 L 0 190.359 L 0 156.53 L 0 0 z" fill="rgb(240,240,240)" transform="translate(0,0)"></path>
<path d="M 99.0783 220.271 C 108.959 220.726 119.048 218.814 127.865 222.453 C 118.129 234.392 109.075 246.872 100.748 259.833 C 97.7325 264.43 91.7294 274.749 88.9103 278.397 C 81.4662 279.279 74.7843 280.449 67.1506 281.011 C 67.1215 274.392 66.7316 256.876 67.4328 251.177 C 77.7816 251.159 88.1586 250.97 98.49 251.039 C 98.4872 240.337 98.8716 230.847 99.0783 220.271 z" fill="rgb(254,253,253)" transform="translate(0,0)"></path>
<path d="M 36.49 346.42 C 40.7115 346.475 49.1105 346.079 52.6826 347.116 C 47.7217 359.05 42.6096 370.434 37.9438 382.555 C 35.0467 390.082 32.5122 399.211 29.6519 406.214 C 22.4341 406.014 15.0414 406.129 7.77929 406.058 C 7.83891 412.756 8.17008 419.843 7.7645 426.502 C 7.10619 437.31 8.97961 436.281 0 438.073 L 0 407.154 C 0.725606 407.045 5.82933 406.508 5.92334 405.665 C 6.6816 398.859 6.14428 385.916 6.11895 379.008 C 9.2399 378.996 36.3472 379.319 36.9698 378.371 C 35.827 368.862 36.4901 356.203 36.49 346.42 z" fill="rgb(254,253,253)" transform="translate(0,0)"></path>
<path d="M 5.86747 0 L 36.6353 0 C 36.8129 10.2302 36.6444 20.4635 36.1301 30.6823 L 6.13535 30.7921 L 5.86747 0 z" fill="rgb(254,253,253)" transform="translate(0,0)"></path>
<path d="M 314.755 0 L 344.489 0 L 344.7 31.0317 C 334.534 31.0603 325.024 31.2143 314.823 30.9545 L 314.755 0 z" fill="rgb(254,253,253)" transform="translate(0,0)"></path>
<path d="M 129.27 0 L 158.895 0 C 159.014 10.2661 158.987 20.5334 158.812 30.7987 L 129.539 30.9318 C 129.163 20.5578 129.224 10.376 129.27 0 z" fill="rgb(254,253,253)" transform="translate(0,0)"></path>
<path d="M 68.0695 0 L 97.6668 0 C 97.4251 10.1337 97.5059 20.6495 97.51 30.7985 L 68.0333 30.7934 C 67.8606 20.5295 67.8726 10.2634 68.0695 0 z" fill="rgb(254,253,253)" transform="translate(0,0)"></path>
<path d="M 253.173 0 L 281.984 0 C 282.082 10.2855 281.872 20.4784 282.116 30.7496 L 253.128 30.7817 L 253.173 0 z" fill="rgb(254,253,253)" transform="translate(0,0)"></path>
<path d="M 191.183 0 L 219.891 0 C 220.014 10.4904 219.791 20.3708 220.776 30.8159 L 191.196 30.8093 C 191.102 20.5398 191.098 10.2696 191.183 0 z" fill="rgb(254,253,253)" transform="translate(0,0)"></path>
<path d="M 0 345.604 L 1.49814 345.849 C 2.08138 345.941 5.36232 346.175 5.43588 347.371 C 6.00182 356.574 5.71676 366.192 5.00574 375.4 C 4.92305 376.47 0.723166 378.085 0 378.444 L 0 345.604 z" fill="rgb(254,253,253)" transform="translate(0,0)"></path>
<path d="M 0 281.447 C 0.444554 281.635 4.64509 283.185 4.67645 283.646 C 5.29796 292.782 5.0971 302.534 4.60342 311.693 C 3.06894 312.629 1.53447 313.565 0 314.501 L 0 281.447 z" fill="rgb(254,253,253)" transform="translate(0,0)"></path>
<path d="M 0 156.53 C 0.508163 156.753 4.74218 158.386 4.65951 159.21 C 4.09409 164.839 5.56407 183.9 4.3846 188.252 C 3.42697 188.925 1.16754 189.793 0 190.359 L 0 156.53 z" fill="rgb(254,253,253)" transform="translate(0,0)"></path>
<path d="M 34.4995 251.708 C 39.0271 250.983 36.8148 277.608 36.7499 282.406 C 46.4121 282.44 56.274 282.209 65.9819 282.166 C 66.0115 293.434 66.6587 301.085 65.3977 312.439 C 56.1984 312.711 47.9463 312.732 38.7516 312.668 C 38.4942 312.653 36.8953 312.645 36.5335 312.376 C 35.3979 309.913 36.1557 286.107 36.2655 281.874 C 26.2031 281.664 16.1378 281.622 6.07391 281.75 C 6.04252 271.915 6.22814 262.001 6.12071 252.195 C 15.5047 252.126 25.1618 252.212 34.4995 251.708 z" fill="rgb(254,253,253)" transform="translate(0,0)"></path>
<path d="M 98.3361 32.2774 L 128.825 32.1939 L 128.806 62.8489 L 98.183 62.8098 C 98.1312 52.9641 97.999 42.0755 98.3361 32.2774 z" fill="rgb(254,253,253)" transform="translate(0,0)"></path>
<path d="M 160.001 32.1535 C 170.212 32.2578 180.424 32.2734 190.635 32.2005 L 190.635 62.51 L 160.067 62.7322 L 160.001 32.1535 z" fill="rgb(254,253,253)" transform="translate(0,0)"></path>
<path d="M 66.7642 126.146 C 76.5506 127.06 87.265 126.486 97.508 127.164 C 97.5451 136.848 97.529 146.532 97.4597 156.216 C 93.3298 157.496 73.0765 156.905 67.2439 156.957 C 67.0433 147.452 67.5178 135.233 66.7642 126.146 z" fill="rgb(254,253,253)" transform="translate(0,0)"></path>
<path d="M 98.1687 95.0173 C 108.286 95.1381 118.405 95.1754 128.524 95.1292 C 128.493 102.206 128.977 119.636 127.996 125.762 L 98.3057 125.809 L 98.1687 95.0173 z" fill="rgb(254,253,253)" transform="translate(0,0)"></path>
<path d="M 37.0964 94.49 L 66.8319 94.49 C 66.6461 103.625 66.1566 117.224 66.7642 126.146 C 58.9409 125.381 45.5158 125.894 37.0997 125.828 C 37.2179 115.382 37.2168 104.936 37.0964 94.49 z" fill="rgb(254,253,253)" transform="translate(0,0)"></path>
<path d="M 5.91274 314.196 C 15.7029 314.061 26.1011 314.381 35.7738 313.589 C 35.8775 323.94 35.8893 334.292 35.8094 344.644 L 6.01652 344.84 C 5.80946 334.556 6.03519 324.417 5.91274 314.196 z" fill="rgb(254,253,253)" transform="translate(0,0)"></path>
<path d="M 34.2305 63.7657 C 36.8827 64.3361 35.7526 89.6835 35.8084 93.8571 C 26.2323 94.0519 16.6532 94.0653 7.07655 93.8971 C 3.87349 92.4937 5.21253 68.996 5.16314 64.248 C 14.8163 64.0254 24.6269 64.1293 34.2305 63.7657 z" fill="rgb(254,253,253)" transform="translate(0,0)"></path>
<path d="M 37.0853 31.9251 L 66.7529 31.8632 C 66.4649 42.1396 66.4238 52.4215 66.6298 62.6998 C 57.0631 62.9208 46.6522 62.7351 37.0708 62.6223 C 37.1467 52.39 37.1515 42.1574 37.0853 31.9251 z" fill="rgb(254,253,253)" transform="translate(0,0)"></path>
<path d="M 98.1089 158.042 C 108.322 157.803 118.459 157.978 128.666 157.995 C 128.626 167.908 128.664 177.821 128.78 187.734 L 98.2551 187.683 C 98.0705 177.804 98.0218 167.923 98.1089 158.042 z" fill="rgb(254,253,253)" transform="translate(0,0)"></path>
<path d="M 129.071 126.24 C 137.596 126.301 150.779 125.471 158.815 126.497 L 158.735 156.853 L 129.199 156.809 L 129.071 126.24 z" fill="rgb(254,253,253)" transform="translate(0,0)"></path>
<path d="M 5.3784 189.585 C 15.9919 189.116 25.8954 189.236 36.51 189.103 L 36.51 218.988 L 5.93215 218.777 C 5.93273 208.809 5.78818 199.517 5.3784 189.585 z" fill="rgb(254,253,253)" transform="translate(0,0)"></path>
<path d="M 191.213 63.174 C 201.095 63.0722 210.966 63.2597 220.868 63.1073 L 220.718 93.5959 C 210.548 93.5148 201.344 93.5475 191.18 93.856 L 191.213 63.174 z" fill="rgb(254,253,253)" transform="translate(0,0)"></path>
<path d="M 16.745 126.499 C 23.4084 126.45 29.1912 126.514 35.8496 126.842 C 35.77 133.742 35.7841 140.764 35.5722 147.654 C 35.389 153.614 37.7726 157.031 31.06 156.774 L 29.25 156.742 C 21.4765 156.721 13.7686 156.833 5.99191 156.653 C 6.01843 150.492 5.95829 144.15 6.00046 137.999 C 6.09207 124.636 4.0761 127.482 16.745 126.499 z" fill="rgb(254,253,253)" transform="translate(0,0)"></path>
<path d="M 67.49 188.966 C 77.805 189.222 88.1249 189.213 98.4395 188.939 C 98.727 199.382 99.0286 207.674 98.0585 218.138 C 87.873 217.956 77.6852 217.941 67.4992 218.093 L 67.49 188.966 z" fill="rgb(254,253,253)" transform="translate(0,0)"></path>
<path d="M 37.1415 220.189 C 47.0079 220.411 56.9838 220.201 66.8728 220.179 C 66.894 230.072 66.8593 239.966 66.7686 249.858 C 57.0254 250.086 47.0878 249.936 37.3079 250.035 C 37.1993 240.087 37.1438 230.138 37.1415 220.189 z" fill="rgb(254,253,253)" transform="translate(0,0)"></path>
<path d="M 76.745 63.4928 C 83.5316 63.5148 90.3182 63.4716 97.104 63.3634 C 96.7838 71.9798 97.2419 84.7394 96.3021 93.4117 C 96.2512 93.8807 94.184 93.9734 93.7483 93.9755 L 92.2487 94.0024 C 83.4851 94.2234 76.7908 94.15 68.0311 93.958 C 68.0861 86.7529 68.2629 79.1689 68.0943 71.9937 C 67.8644 62.2106 67.3023 64.2004 76.745 63.4928 z" fill="rgb(254,253,253)" transform="translate(0,0)"></path>
<path d="M 160.181 95.2033 L 190.219 95.187 C 189.95 105.086 189.983 114.917 189.722 124.749 L 160.205 124.775 L 160.181 95.2033 z" fill="rgb(254,253,253)" transform="translate(0,0)"></path>
<path d="M 36.9435 158.386 C 46.2845 158.725 57.5585 158.56 66.8578 158.167 C 66.9355 168.034 66.9246 177.901 66.8248 187.768 L 37.152 187.802 C 37.0683 177.976 37.1862 168.216 36.9435 158.386 z" fill="rgb(254,253,253)" transform="translate(0,0)"></path>
<path d="M 129.49 64.0947 L 158.701 64.0704 C 158.405 73.9796 158.4 83.8953 158.686 93.8047 C 148.905 94.0256 139.122 94.0742 129.34 93.9505 C 129.493 83.9994 129.543 74.0469 129.49 64.0947 z" fill="rgb(254,253,253)" transform="translate(0,0)"></path>
<path d="M 222.094 32.2383 C 232.017 32.1425 241.94 32.106 251.863 32.1288 C 250.542 43.3127 250.865 50.5984 251.294 61.8705 L 222.009 61.843 L 222.094 32.2383 z" fill="rgb(254,253,253)" transform="translate(0,0)"></path>
<path d="M 283.935 32.0412 C 294.021 31.9768 303.625 31.8797 313.737 31.9676 C 312.839 41.9592 312.99 50.7628 312.767 60.7817 C 304.067 61.0814 295.716 61.0228 287 61.5098 L 283.803 61.6698 C 284.059 51.7956 284.103 41.9172 283.935 32.0412 z" fill="rgb(254,253,253)" transform="translate(0,0)"></path>
<path d="M 898.997 1684.58 C 866.149 1623.36 882.237 1547.38 937.077 1504.73 C 991.918 1462.07 1069.52 1465.19 1120.77 1512.1 C 1172.02 1559 1181.97 1636.03 1144.32 1694.42 C 1128.36 1719.17 1105.14 1738.36 1077.83 1749.37 C 1010.42 1776.54 933.361 1748.62 898.997 1684.58 z" fill="rgb(0,0,0)" transform="translate(0,0)"></path>
<path d="M 240.363 113.471 C 247.96 118.282 261.527 130.548 269.045 136.935 C 282.564 148.324 296.171 159.607 309.866 170.784 C 345.192 199.728 380.6 228.529 415.954 257.402 C 451.224 286.207 483.982 315.668 520.896 343.015 L 518.907 345.278 C 407.884 297.027 286.626 273.913 165.813 290.243 C 146.647 292.84 127.599 296.25 108.722 300.465 C 96.4715 303.291 83.695 307.176 71.5458 309.633 C 76.7116 299.184 83.0803 288.553 88.9103 278.397 C 91.7294 274.749 97.7325 264.43 100.748 259.833 C 109.075 246.872 118.129 234.392 127.865 222.453 C 159.525 185.709 198.296 138.897 240.363 113.471 z" fill="rgb(0,0,0)" transform="translate(0,0)"></path>
<path d="M 7.77929 406.058 C 15.0414 406.129 22.4341 406.014 29.6519 406.214 C 19.4721 438.551 11.9272 465.668 6.35946 499.27 C 4.15697 512.562 2.62291 539.9 0 550.565 L 0 438.073 C 8.97961 436.281 7.10619 437.31 7.7645 426.502 C 8.17008 419.843 7.83891 412.756 7.77929 406.058 z" fill="rgb(240,240,240)" transform="translate(0,0)"></path>
<path d="M 376.034 0 L 405.96 0 C 405.954 9.25931 406.008 20.2893 405.564 29.4631 C 389.736 33.4829 361.394 45.0364 346.078 51.647 C 344.911 47.4301 345.285 36.9634 345.187 32.0699 C 355.975 32.0721 365.421 32.6185 376.138 31.1364 C 375.761 19.8865 375.818 11.1709 376.034 0 z" fill="rgb(254,253,253)" transform="translate(0,0)"></path>
<path d="M 437.917 0 L 559.345 0 L 558.185 0.189329 C 550.888 1.32054 542.643 1.92383 535.24 2.33434 C 502.26 4.16308 471.599 11.5652 439.75 19.6713 C 438.292 16.4932 437.986 3.62589 437.917 0 z" fill="rgb(254,253,253)" transform="translate(0,0)"></path>
<path d="M 405.96 0 L 437.917 0 C 437.986 3.62589 438.292 16.4932 439.75 19.6713 L 435.985 20.7117 C 425.875 23.4788 415.485 26.0691 405.564 29.4631 C 406.008 20.2893 405.954 9.25931 405.96 0 z" fill="rgb(240,240,240)" transform="translate(0,0)"></path>
<path d="M 2019.53 406.464 C 2026.46 405.709 2040.52 406.728 2048 406.819 L 2048 436.291 L 2028.63 436.265 C 2025.33 426.597 2022.88 416.12 2019.53 406.464 z" fill="rgb(254,253,253)" transform="translate(0,0)"></path>
<path d="M 2028.63 436.265 L 2048 436.291 L 2048 469.692 C 2044.35 469.089 2038.64 466.741 2036.39 469.726 C 2034.23 462.63 2029.83 443.629 2028.63 436.265 z" fill="rgb(240,240,240)" transform="translate(0,0)"></path>
<path d="M 2036.39 469.726 C 2038.64 466.741 2044.35 469.089 2048 469.692 L 2048 541.306 C 2046.57 534.384 2045.74 525.178 2045.1 517.997 C 2043.61 501.48 2039.17 485.875 2036.39 469.726 z" fill="rgb(254,253,253)" transform="translate(0,0)"></path>
<path d="M 520.896 343.015 L 522.392 344.256 C 522.529 344.367 525.81 346.98 524.52 347.363 C 523.362 347.707 519.861 345.722 518.907 345.278 L 520.896 343.015 z" fill="rgb(29,5,11)" transform="translate(0,0)"></path>
<path d="M 18.7148 1606.64 C 23.4293 1623.61 29.375 1640.65 34.9787 1657.38 L 39.2452 1669.47 C 42.3917 1678.77 47.0424 1689.83 50.8211 1699 C 57.0684 1712.01 68.3727 1732.28 73.4354 1744.3 L 74.4287 1745.64 C 82.6362 1756.93 91.8976 1776.22 101.534 1790.02 C 140.368 1846.52 188.709 1895.86 244.406 1935.83 C 250.066 1940.91 258.228 1946 264.801 1949.89 C 288.065 1964.51 306.212 1973.96 328.828 1987.26 C 350.257 1996.94 366.64 2003.24 387.696 2012.01 C 396.957 2015.1 407.644 2018.96 416.96 2021.47 C 426.907 2024.44 437.294 2026.94 447.148 2029.94 C 471.389 2036.25 496.017 2040.96 520.874 2044.05 C 529.325 2045.14 550.979 2046.49 557.351 2048 L 0 2048 L 0 2042.27 L 0 2011.51 L 0 1979.95 L 0 1949.07 L 0 1918.45 L 0 1886.56 L 0 1857.57 L 0 1824.89 L 0 1794.69 L 0 1762.79 L 0 1730.93 L 0 1702.06 L 0 1669.87 L 0 1638.08 L 0 1607.99 C 6.24782 1607.69 12.4877 1607.24 18.7148 1606.64 z" fill="rgb(240,240,240)" transform="translate(0,0)"></path>
<path d="M 51 1762 C 51.0097 1753.46 48.8496 1737.2 53.9434 1731.74 C 58.6651 1731.47 63.213 1730.88 66.953 1733.57 C 67.4381 1738.98 68.6303 1741.29 73.4354 1744.3 L 74.4287 1745.64 C 82.6362 1756.93 91.8976 1776.22 101.534 1790.02 C 140.368 1846.52 188.709 1895.86 244.406 1935.83 C 250.066 1940.91 258.228 1946 264.801 1949.89 C 264.643 1959.34 265.091 1969.61 265.321 1979.12 C 271.367 1979 290.635 1979.91 294.659 1977.83 C 294.791 1975.14 294.624 1975.69 295.351 1973.15 C 295.748 1975.59 295.809 1976.02 296.646 1978.33 C 300.067 1980.4 302.176 1978.22 306.162 1979.17 C 304.947 1980.23 297.388 1979.88 295.054 1979.92 L 295.037 2010.89 L 265.814 2010.93 L 265.623 1979.99 C 255.306 1981.26 244.59 1980.85 234.202 1980.61 L 233.995 1948.07 C 224.165 1948.42 214.327 1948.46 204.496 1948.18 C 204.521 1938.05 204.354 1927.92 203.993 1917.8 C 193.917 1918.17 183.837 1918.4 173.755 1918.51 L 173.941 1949 L 143.488 1948.98 C 143.083 1938.84 143.705 1928.74 143.201 1918.13 C 151.648 1918.56 161.94 1918.19 170.373 1917.73 C 162.058 1916.74 152.736 1917 144.287 1917 C 144.724 1907.79 144.444 1896.59 144.455 1887.23 C 148.81 1887.07 167.449 1887.89 169.308 1886.15 C 165.706 1885.33 148.776 1885.88 144.306 1885.91 C 145.058 1876.26 144.803 1865.74 145.454 1855.64 C 134.224 1854.92 124.229 1854.93 112.999 1854.93 C 112.906 1845.1 112.728 1835.26 112.466 1825.43 C 102.372 1825.82 91.9393 1825.58 81.8137 1825.49 C 81.4919 1816.61 81.6044 1806.9 81.4372 1797.91 C 80.4307 1807.98 79.8953 1813.79 80.1206 1823.92 C 72.2781 1824 64.4361 1824.13 56.5952 1824.3 C 64.4882 1825.19 73.4657 1824.89 81.49 1824.85 L 81.49 1856.01 C 71.4129 1856.26 61.1021 1856.24 51.0028 1856.34 L 50.8073 1824.79 C 40.6051 1824.95 30.4007 1824.87 20.2023 1824.55 L 20.102 1794.42 L 51.0277 1794.15 L 51.1433 1762.81 C 60.7195 1763 68.6518 1762.91 78.2164 1762.47 C 69.7784 1761.81 59.5862 1762.03 51 1762 z" fill="rgb(254,253,253)" transform="translate(0,0)"></path>
<path d="M 326.956 2011.01 C 327.047 2005.27 326.371 1991.42 328.828 1987.26 C 350.257 1996.94 366.64 2003.24 387.696 2012.01 C 386.9 2022.32 387.062 2032.86 387.152 2043.23 C 376.988 2043.5 366.818 2043.57 356.651 2043.42 C 356.343 2032.05 356.444 2022.44 355.892 2010.89 C 344.668 2011.35 338.187 2011.58 326.956 2011.01 z" fill="rgb(254,253,253)" transform="translate(0,0)"></path>
<path d="M 173.941 1949 C 183.969 1949.03 193.996 1948.96 204.022 1948.76 C 203.861 1959.19 203.82 1969.63 203.899 1980.06 C 193.961 1979.86 184.026 1980.09 174.057 1979.95 C 174.166 1969.62 174.368 1959.33 173.941 1949 z" fill="rgb(254,253,253)" transform="translate(0,0)"></path>
<path d="M 112.831 1887.09 L 142.868 1887.03 C 142.878 1896.47 142.478 1908.92 143.201 1918.13 C 133.438 1917.79 122.832 1918.18 112.851 1918.01 C 112.952 1907.71 112.945 1897.4 112.831 1887.09 z" fill="rgb(254,253,253)" transform="translate(0,0)"></path>
<path d="M 51.0028 1856.34 L 50.9711 1886.09 C 40.6999 1885.96 30.4564 1886.12 20.1887 1885.96 L 20.068 1856.68 C 29.7691 1856.47 41.7849 1856.95 51.0028 1856.34 z" fill="rgb(254,253,253)" transform="translate(0,0)"></path>
<path d="M 19.1498 1670.03 C 26.0402 1670 32.3419 1670.09 39.2452 1669.47 C 42.3917 1678.77 47.0424 1689.83 50.8211 1699 C 46.4833 1702.53 26.3041 1701.15 19.3425 1701.17 C 18.9825 1690.93 19.2437 1680.33 19.1498 1670.03 z" fill="rgb(254,253,253)" transform="translate(0,0)"></path>
<path d="M 0 1824.89 C 6.66122 1824.87 13.2647 1824.92 19.9276 1824.81 C 19.7277 1835.5 19.8106 1846 19.7914 1856.67 C 13.2017 1857.12 6.60298 1857.42 0 1857.57 L 0 1824.89 z" fill="rgb(254,253,253)" transform="translate(0,0)"></path>
<path d="M 0 1886.56 C 6.64168 1886.47 13.3079 1886.6 19.9564 1886.6 C 19.6514 1897.59 19.4926 1906.89 19.4953 1917.91 C 12.7666 1917.98 6.74255 1918.07 0 1918.45 L 0 1886.56 z" fill="rgb(254,253,253)" transform="translate(0,0)"></path>
<path d="M 0 1762.79 C 6.60498 1762.71 12.8951 1762.84 19.4938 1762.97 C 19.0892 1773.68 19.1457 1783.36 19.1573 1794.03 C 11.7767 1794.61 7.44477 1794.8 0 1794.69 L 0 1762.79 z" fill="rgb(254,253,253)" transform="translate(0,0)"></path>
<path d="M 3.55271e-15 1949.07 C 6.44678 1948.96 12.8946 1948.93 19.3421 1948.97 C 19.0264 1959.46 19.1685 1969.51 19.09 1979.96 L 0 1979.95 L 0 1949.07 z" fill="rgb(254,253,253)" transform="translate(0,0)"></path>
<path d="M 0 2011.51 C 6.25672 2011.51 12.7496 2011.58 18.983 2011.47 C 19.0238 2021.69 19.0028 2031.91 18.9198 2042.13 C 12.6827 2042.19 6.16347 2042.47 0 2042.27 L 0 2011.51 z" fill="rgb(254,253,253)" transform="translate(0,0)"></path>
<path d="M 0 1638.08 C 6.01073 1638.04 12.0217 1638.04 18.0324 1638.08 C 18.1293 1648.75 18.523 1658.88 18.8205 1669.53 C 12.5457 1669.55 6.27152 1669.66 3.55271e-15 1669.87 L 0 1638.08 z" fill="rgb(254,253,253)" transform="translate(0,0)"></path>
<path d="M 416.96 2021.47 C 426.907 2024.44 437.294 2026.94 447.148 2029.94 C 447.061 2033.13 447.278 2044.36 446.322 2044.54 C 444.358 2044.91 419.727 2044.21 417.283 2044.1 C 417.07 2038.01 417.946 2026.7 416.96 2021.47 z" fill="rgb(254,253,253)" transform="translate(0,0)"></path>
<path d="M 0 1702.06 L 18.9405 1701.94 C 18.8453 1711.58 18.8493 1721.22 18.9526 1730.86 L 0 1730.93 L 0 1702.06 z" fill="rgb(254,253,253)" transform="translate(0,0)"></path>
<path d="M 50.9656 1949.69 C 61.2642 1949.96 72.6555 1949.85 82.9635 1949.68 C 82.9996 1959.78 83.1086 1969.67 82.5323 1979.76 C 75.1511 1980.42 59.2333 1979.87 51.0145 1979.96 C 50.8207 1969.81 50.9387 1959.83 50.9656 1949.69 z" fill="rgb(254,253,253)" transform="translate(0,0)"></path>
<path d="M 51.0197 1886.81 C 61.3235 1887.09 71.6325 1887.13 81.9382 1886.94 L 82.4905 1917.94 L 51.0344 1917.96 C 50.9684 1907.58 50.9635 1897.19 51.0197 1886.81 z" fill="rgb(254,253,253)" transform="translate(0,0)"></path>
<path d="M 111.8 2011.87 C 122.139 2011.94 132.478 2011.87 142.815 2011.66 C 142.833 2021.97 142.651 2032.28 142.27 2042.58 C 137.238 2043.33 117.713 2043 111.937 2042.92 C 111.702 2032.57 111.657 2022.22 111.8 2011.87 z" fill="rgb(254,253,253)" transform="translate(0,0)"></path>
<path d="M 50.8667 2011.81 C 61.1752 2012.03 71.4881 2011.96 81.7923 2011.58 C 81.7282 2021.98 81.9341 2032.06 81.5174 2042.49 C 71.8221 2042.68 60.4569 2042.75 50.8297 2042.26 L 50.8667 2011.81 z" fill="rgb(254,253,253)" transform="translate(0,0)"></path>
<path d="M 20.0847 1918.14 L 51.0014 1918.07 C 51.0453 1928.21 51.0204 1938.35 50.9267 1948.49 C 40.7736 1948.49 30.3719 1948.68 20.2613 1948.23 L 20.0847 1918.14 z" fill="rgb(254,253,253)" transform="translate(0,0)"></path>
<path d="M 129.765 1949.5 C 133.696 1949.11 139.033 1949.22 143.065 1949.28 C 142.95 1959.48 143.063 1969.69 142.909 1979.88 C 136.564 1979.67 131.108 1979.63 124.75 1979.71 C 120.67 1979.69 116.59 1979.71 112.51 1979.78 C 112.512 1969.57 112.276 1959.69 112.083 1949.51 L 129.765 1949.5 z" fill="rgb(254,253,253)" transform="translate(0,0)"></path>
<path d="M 20.0168 1731.99 L 49.6661 1731.83 C 49.1374 1741.04 49.8416 1753.28 50.017 1762.75 C 40.0194 1763.04 30.0164 1763.08 20.017 1762.87 L 20.0168 1731.99 z" fill="rgb(254,253,253)" transform="translate(0,0)"></path>
<path d="M 235.001 2012.1 L 265.036 2011.99 C 264.974 2022.49 264.831 2032.25 264.298 2042.74 C 254.534 2043.01 244.763 2043 234.999 2042.7 L 235.001 2012.1 z" fill="rgb(254,253,253)" transform="translate(0,0)"></path>
<path d="M 173.909 2012.02 L 203.636 2011.89 C 203.115 2022.37 203.166 2032.38 203.017 2042.85 C 193.258 2042.8 183.715 2043.08 173.945 2042.86 C 173.843 2032.58 173.831 2022.3 173.909 2012.02 z" fill="rgb(254,253,253)" transform="translate(0,0)"></path>
<path d="M 104.765 1980.5 C 107.325 1980.51 109.447 1980.34 111.998 1980.45 L 111.856 2010.49 L 91.5 2010.49 C 81.9813 2010.48 81.8376 2012.59 81.8459 2003 C 81.8523 1995.57 81.9531 1987.9 82.0535 1980.44 C 89.8664 1980.6 96.9675 1980.51 104.765 1980.5 z" fill="rgb(254,253,253)" transform="translate(0,0)"></path>
<path d="M 165.765 1980.5 L 167.289 1980.49 C 171.81 1980.45 173.289 1979.74 173.193 1984.45 C 173.045 1993.15 172.974 2001.85 172.981 2010.56 C 165.571 2010.44 158.16 2010.42 150.75 2010.49 C 141.441 2010.48 143.427 2010.63 143.253 2001.41 C 143.123 1994.5 143.557 1987.56 143.606 1980.64 L 165.765 1980.5 z" fill="rgb(254,253,253)" transform="translate(0,0)"></path>
<path d="M 204.168 1981.05 L 234.072 1980.96 L 234.071 2011.03 L 204.515 2010.96 C 204.511 2000.98 204.136 1990.94 204.168 1981.05 z" fill="rgb(254,253,253)" transform="translate(0,0)"></path>
<path d="M 83.02 1918.51 L 112.185 1918.51 L 112.023 1948.53 C 102.464 1948.24 92.5984 1948.45 83.022 1948.53 L 83.02 1918.51 z" fill="rgb(254,253,253)" transform="translate(0,0)"></path>
<path d="M 20.7052 1980.97 C 30.7292 1981.02 40.7535 1980.97 50.7764 1980.8 C 50.7642 1990.92 50.4597 1999.66 50.1306 2009.7 C 44.8655 2010.28 26.6965 2010.03 20.7203 2010.01 C 20.9815 2000.33 20.9764 1990.65 20.7052 1980.97 z" fill="rgb(254,253,253)" transform="translate(0,0)"></path>
<path d="M 2029.18 1609.13 C 2035.63 1608.94 2041.57 1608.98 2048 1608.94 L 2048 1640.9 L 2048 1670.83 L 2048 1703.13 L 2048 1731.94 L 2048 1764.82 L 2048 1795.2 L 2048 1825.39 L 2048 1857.02 L 2048 1887.72 L 2048 1917.96 L 2048 1949.29 L 2048 1978.65 L 2048 2011.79 L 2048 2043.44 L 2048 2048 L 1478.89 2048 C 1494.27 2045.78 1514.15 2045.78 1530.52 2043.81 C 1568.99 2039.18 1602.26 2029.92 1639.12 2018.64 C 1644.01 2017.79 1649.33 2015.55 1654.06 2013.8 C 1674.21 2007.27 1693.89 1999.39 1712.98 1990.22 C 1736.22 1978.18 1753.8 1969.24 1775.7 1955.21 C 1779.41 1952.71 1783.26 1950.43 1787.03 1948.02 L 1808.34 1933.82 L 1808.61 1933.28 C 1829.08 1918.58 1843.96 1904.74 1862.77 1888.98 C 1865.59 1885.18 1893.11 1858.51 1898 1853.7 C 1925.68 1820.97 1941.54 1799.61 1963.97 1763.04 C 1984.75 1727.93 2000.18 1696.04 2012.97 1657.02 C 2017.74 1645.75 2026.09 1620.7 2029.18 1609.13 z" fill="rgb(240,240,240)" transform="translate(0,0)"></path>
<path d="M 1988.01 1732.08 L 2019.47 1732.13 C 2019.64 1742.73 2019.72 1753.34 2019.71 1763.95 L 1988.63 1764.06 C 1988.9 1774.65 1989.01 1785.24 1988.96 1795.83 L 1957.99 1795.93 L 1958.04 1825.95 L 1926.91 1826.03 C 1928.52 1833.5 1928.06 1847.68 1928.11 1855.87 C 1918.78 1855.97 1906.39 1856.99 1898 1853.7 C 1925.68 1820.97 1941.54 1799.61 1963.97 1763.04 C 1971.18 1764.65 1980.52 1764.12 1988.1 1764.12 L 1988.01 1732.08 z" fill="rgb(254,253,253)" transform="translate(0,0)"></path>
<path d="M 1654.06 2013.8 C 1674.21 2007.27 1693.89 1999.39 1712.98 1990.22 C 1714.92 1995.3 1714.17 2005.8 1714.13 2011.68 C 1704.95 2010.9 1692.5 2011.04 1683.03 2010.92 C 1683.15 2021.29 1683.15 2031.66 1683.03 2042.03 C 1673.52 2042.15 1664.01 2042.17 1654.49 2042.06 C 1654.29 2032.91 1653.97 2022.86 1654.06 2013.8 z" fill="rgb(254,253,253)" transform="translate(0,0)"></path>
<path d="M 1862.77 1888.98 C 1869.36 1892.38 1866.92 1910.48 1866.89 1917.86 C 1856.56 1917.84 1846.09 1918.07 1835.79 1917.91 C 1836.97 1928.71 1837.02 1938.03 1836.94 1948.89 C 1827.27 1948.94 1817.6 1949.05 1807.94 1949.22 C 1808.08 1944.1 1808.46 1938.89 1808.34 1933.82 L 1808.61 1933.28 C 1829.08 1918.58 1843.96 1904.74 1862.77 1888.98 z" fill="rgb(254,253,253)" transform="translate(0,0)"></path>
<path d="M 2019.95 1794.87 L 2019.44 1825.92 L 1989.11 1825.95 C 1989.04 1816.05 1989.51 1805.85 1989.51 1795.82 C 1997.06 1795.57 2013.94 1795.94 2019.95 1794.87 z" fill="rgb(254,253,253)" transform="translate(0,0)"></path>
<path d="M 1775.7 1955.21 C 1779.41 1952.71 1783.26 1950.43 1787.03 1948.02 C 1795.18 1949.91 1798.56 1949.35 1806.92 1949.57 C 1806.63 1959.73 1806.53 1969.9 1806.64 1980.07 C 1796.5 1980.07 1786.68 1980.18 1776.53 1979.93 C 1776.65 1970.97 1776.66 1964.12 1775.7 1955.21 z" fill="rgb(254,253,253)" transform="translate(0,0)"></path>
<path d="M 2048 1825.39 L 2048 1857.02 C 2037.83 1857.25 2030.08 1857.16 2019.93 1857 L 2019.9 1826 C 2029.52 1825.73 2038.35 1825.34 2048 1825.39 z" fill="rgb(254,253,253)" transform="translate(0,0)"></path>
<path d="M 2019.92 2011.74 C 2029.28 2011.63 2038.64 2011.65 2048 2011.79 L 2048 2043.44 C 2039.08 2042.85 2029.14 2043.24 2019.98 2042.99 C 2019.84 2032.58 2019.82 2022.16 2019.92 2011.74 z" fill="rgb(254,253,253)" transform="translate(0,0)"></path>
<path d="M 2020 1764.96 L 2048 1764.82 L 2048 1795.2 C 2036.71 1795.53 2031.33 1795.5 2019.95 1794.87 C 2020.09 1784.91 2019.94 1774.93 2020 1764.96 z" fill="rgb(254,253,253)" transform="translate(0,0)"></path>
<path d="M 2020.17 1887.82 C 2029.81 1887.72 2038.36 1887.62 2048 1887.72 L 2048 1917.96 L 2020.76 1917.91 C 2020.21 1908.49 2020.28 1897.34 2020.17 1887.82 z" fill="rgb(254,253,253)" transform="translate(0,0)"></path>
<path d="M 2048 1949.29 L 2048 1978.65 C 2038.9 1978.98 2029.61 1978.82 2020.47 1978.95 C 2020.56 1968.64 2020.63 1959.51 2020.45 1949.18 C 2029.64 1949.13 2038.82 1949.16 2048 1949.29 z" fill="rgb(254,253,253)" transform="translate(0,0)"></path>
<path d="M 2021.99 1640.78 C 2030.66 1640.91 2039.33 1640.95 2048 1640.9 L 2048 1670.83 C 2038.82 1671.14 2030.05 1671.86 2020.87 1672.06 C 2021.25 1661.17 2021.87 1651.93 2021.99 1640.78 z" fill="rgb(254,253,253)" transform="translate(0,0)"></path>
<path d="M 2048 1703.13 L 2048 1731.94 L 2019.96 1731.94 C 2019.82 1722.3 2019.82 1712.67 2019.97 1703.03 C 2029.31 1703 2038.66 1703.03 2048 1703.13 z" fill="rgb(254,253,253)" transform="translate(0,0)"></path>
<path d="M 1898.71 1887.26 C 1908.72 1887.1 1918.73 1887.26 1928.73 1887.74 C 1928.79 1892.83 1929.74 1915.65 1927.78 1918.23 C 1917.64 1918.43 1908.2 1918.5 1898.05 1918.45 C 1898.03 1912.31 1897.54 1892.58 1898.71 1887.26 z" fill="rgb(254,253,253)" transform="translate(0,0)"></path>
<path d="M 1776.04 2012.03 C 1786.28 2012.06 1796.52 2011.98 1806.76 2011.77 C 1806.72 2022.34 1806.91 2032.38 1806.21 2042.95 C 1796.32 2043.03 1786.43 2043.02 1776.54 2042.93 C 1775.93 2032.74 1776.09 2022.26 1776.04 2012.03 z" fill="rgb(254,253,253)" transform="translate(0,0)"></path>
<path d="M 1745.02 1980.28 C 1755.41 1980.11 1765.6 1980.19 1775.96 1980.13 L 1775.75 2010.92 C 1765.62 2010.85 1755.49 2010.87 1745.36 2010.97 C 1744.95 2001.85 1744.66 1989.52 1745.02 1980.28 z" fill="rgb(254,253,253)" transform="translate(0,0)"></path>
<path d="M 1898.08 2012.15 C 1908.14 2012.35 1918.26 2012.11 1928.33 2012.02 C 1928.36 2022.32 1928.25 2032.62 1928.01 2042.91 C 1918.22 2042.99 1907.86 2043.21 1898.14 2042.86 C 1897.89 2033.15 1897.91 2021.86 1898.08 2012.15 z" fill="rgb(254,253,253)" transform="translate(0,0)"></path>
<path d="M 1958.65 1826.11 C 1968.6 1825.9 1978.55 1825.85 1988.5 1825.94 C 1988.34 1837.1 1988.46 1845.96 1989.06 1857.01 C 1978.87 1857.1 1968.69 1857.06 1958.51 1856.89 L 1958.65 1826.11 z" fill="rgb(254,253,253)" transform="translate(0,0)"></path>
<path d="M 1959.18 2011.98 C 1969.1 2011.92 1979.01 2011.92 1988.93 2011.96 C 1989.01 2022.27 1988.95 2032.59 1988.74 2042.9 C 1979.03 2042.95 1969.32 2042.93 1959.61 2042.86 C 1959.27 2032.57 1959.13 2022.28 1959.18 2011.98 z" fill="rgb(254,253,253)" transform="translate(0,0)"></path>
<path d="M 1989.66 1980.36 C 1999.62 1980.44 2009.81 1980.13 2019.85 1980.1 C 2019.12 1991.1 2019.31 1999.97 2019.01 2010.83 L 1989.46 2010.91 C 1988.96 2000.29 1989.2 1991 1989.66 1980.36 z" fill="rgb(254,253,253)" transform="translate(0,0)"></path>
<path d="M 1725.25 2012.5 C 1731.85 2012.26 1738.39 2012.24 1745.01 2012.02 C 1744.95 2022.37 1745.17 2032.01 1744.57 2042.37 C 1740.97 2042.7 1738.92 2042.79 1735.25 2042.82 C 1728.55 2043.02 1721.84 2043.05 1715.13 2042.91 C 1714.82 2033 1715.08 2022.49 1715.06 2012.51 L 1725.25 2012.5 z" fill="rgb(254,253,253)" transform="translate(0,0)"></path>
<path d="M 1959.95 1887.99 C 1970.31 1887.72 1979.62 1887.55 1989.99 1887.67 C 1989.55 1897.99 1989.66 1907.63 1989.77 1917.91 C 1978.86 1918.23 1970.94 1918.32 1960.07 1918.03 C 1960.13 1908.02 1960.09 1898 1959.95 1887.99 z" fill="rgb(254,253,253)" transform="translate(0,0)"></path>
<path d="M 1990.92 1918.42 C 2000.89 1917.94 2010.41 1917.99 2020.39 1918.05 C 2020.27 1923.46 2020.24 1945.24 2019.58 1948.83 C 2009.89 1948.94 2000.2 1948.96 1990.52 1948.9 C 1990.45 1940.19 1990.59 1927.17 1990.92 1918.42 z" fill="rgb(254,253,253)" transform="translate(0,0)"></path>
<path d="M 1839.36 1949.41 C 1848.7 1949.12 1857.67 1949.19 1867.01 1949.19 C 1866.98 1954.55 1867.87 1977.71 1865.83 1980.25 C 1856.43 1980.41 1847.39 1980.54 1837.97 1980.27 C 1837.97 1975.91 1836.96 1951.24 1839.36 1949.41 z" fill="rgb(254,253,253)" transform="translate(0,0)"></path>
<path d="M 1989.86 1857.63 C 1998.96 1857.36 2010.7 1856.69 2019.69 1857.23 C 2019.22 1868.8 2019.4 1876.33 2019.57 1887.82 C 2009.84 1887.92 1999.68 1888.14 1989.99 1887.67 C 1990.07 1877.66 1990.03 1867.64 1989.86 1857.63 z" fill="rgb(254,253,253)" transform="translate(0,0)"></path>
<path d="M 1874.46 1918.35 C 1882.59 1918.17 1889.76 1918.47 1897.83 1918.59 C 1897.8 1923.79 1898.18 1931.04 1897.69 1936 C 1896.98 1943.23 1900.93 1948.78 1893.25 1948.65 C 1884.57 1948.69 1876.66 1948.61 1868 1948.48 C 1868.03 1939.9 1867.52 1927.7 1868.58 1919.18 C 1868.69 1918.34 1874.03 1918.37 1874.46 1918.35 z" fill="rgb(254,253,253)" transform="translate(0,0)"></path>
<path d="M 1837.63 2012.04 L 1867.39 2011.93 C 1867.35 2022.41 1867.65 2031.17 1867.1 2041.78 C 1862.25 2042.46 1843.1 2042.32 1837.68 2042.06 C 1837.53 2032.05 1837.51 2022.05 1837.63 2012.04 z" fill="rgb(254,253,253)" transform="translate(0,0)"></path>
<path d="M 1959.96 1950.01 L 1989.94 1949.88 C 1989.9 1959.12 1990.14 1970.94 1989.55 1979.97 C 1979.69 1979.85 1969.83 1979.86 1959.98 1980 C 1960.08 1970 1960.07 1960 1959.96 1950.01 z" fill="rgb(254,253,253)" transform="translate(0,0)"></path>
<path d="M 1929.61 1857.55 C 1939.07 1857.39 1948.72 1857.44 1958.12 1857.14 C 1958.06 1863.62 1959.18 1882.26 1958.3 1887.48 C 1946.93 1887.36 1941.07 1888.02 1929.06 1887.28 C 1929.05 1882.04 1928.66 1861.81 1929.61 1857.55 z" fill="rgb(254,253,253)" transform="translate(0,0)"></path>
<path d="M 1929.02 1980.83 C 1939.04 1980.97 1948.98 1980.65 1959.01 1980.67 C 1959 1990.65 1958.94 2000.64 1958.83 2010.62 C 1948.9 2010.2 1939.01 2010.57 1929.06 2010.41 L 1929.02 1980.83 z" fill="rgb(254,253,253)" transform="translate(0,0)"></path>
<path d="M 1807.04 1981.06 L 1837.02 1981.03 L 1836.89 2010.8 C 1826.91 2010.67 1816.94 2010.79 1807.01 2010.35 L 1807.04 1981.06 z" fill="rgb(254,253,253)" transform="translate(0,0)"></path>
<path d="M 1929.14 1918.96 C 1938.93 1918.77 1949.15 1918.99 1959.03 1918.88 L 1958.91 1948.72 C 1948.99 1948.47 1939.16 1948.95 1929.03 1948.62 L 1929.14 1918.96 z" fill="rgb(254,253,253)" transform="translate(0,0)"></path>
<path d="M 1867.64 1981.11 C 1877.68 1981.22 1887.72 1981.18 1897.77 1980.97 C 1897.38 1989.06 1897.65 2004.07 1896.9 2010.62 C 1888.72 2010.29 1875.87 2010.21 1867.7 2010.65 C 1867.62 2000.8 1867.6 1990.95 1867.64 1981.11 z" fill="rgb(254,253,253)" transform="translate(0,0)"></path>
<path d="M 1898.9 1949.81 C 1909.2 1949.69 1917.62 1949.53 1928.01 1949.75 C 1927.74 1960.22 1927.57 1968.77 1927.69 1979.31 C 1918.08 1979.19 1908.47 1979.31 1898.87 1979.68 C 1898.94 1969.72 1898.95 1959.77 1898.9 1949.81 z" fill="rgb(254,253,253)" transform="translate(0,0)"></path>
<metadata><recraft-signature>{"signed_by": "recraft", "signature_b64": "DMWoVODzcNMF8NOKXXRswLPwavaziJEXfvnJfAwSgxZ2tIKEF1BFcvXQcEIARHbNbJs2CrNrcMoVpfVm/1n5DA==", "signing_algo": "Ed25519", "generation_timestamp": 1772777117, "identifier": "59312215-2ba6-42af-a3f6-35a9dbd41668"}</recraft-signature></metadata></svg>