<svg xmlns="http://www.w3.org/2000/svg" height="1024" preserveAspectRatio="none" style="display: block;" version="1.1" viewBox="0 0 2048 2048" width="1024">
<path d="M 0 0 L 2048 0 L 2048 2048 L 0 2048 L 0 0 z" fill="rgb(251,251,251)" transform="translate(0,0)"></path>
<path d="M 670.471 263.415 C 684.653 262.428 703.024 262.824 717.546 262.836 L 793.101 262.927 L 1015.54 262.792 L 1240.11 262.718 C 1306.74 262.551 1385.2 258.492 1449.23 272.777 C 1519.61 288.895 1584.99 321.928 1639.72 369.015 C 1726.12 442.92 1780.12 547.739 1790.14 660.993 C 1793.65 703.735 1791.85 761.438 1791.82 805.586 L 1791.97 1035.61 L 1792.24 1246.58 C 1792.44 1311.8 1796.47 1382.43 1781.69 1446.19 C 1736.59 1640.64 1576.24 1770.83 1379.75 1785.86 C 1333.52 1788.12 1279.67 1786.94 1232.91 1786.94 L 984.232 1786.94 L 787.373 1786.99 C 722.953 1787.02 664.338 1790.32 601.007 1776.46 C 529.963 1761.04 463.9 1728.1 408.83 1680.64 C 319.675 1605.19 265.065 1496.71 257.566 1380.16 C 256.422 1364.16 256.603 1344.85 256.444 1328.68 C 256.127 1297.86 256.06 1267.04 256.243 1236.21 L 256.068 1019.26 L 256.045 800.833 C 256.029 738.444 252.515 670.605 265.563 609.961 C 280.477 538.223 313.405 471.461 361.247 415.964 C 442.619 322.201 547.301 272.158 670.471 263.415 z" fill="rgb(252,81,30)" transform="translate(0,0)"></path>
<path d="M 1550.3 437.287 L 1552.06 437.362 C 1553.32 439.594 1548.87 484.876 1548.39 490.647 C 1542.72 552.622 1537.9 614.671 1533.91 676.777 L 1517.29 917.84 C 1516.47 929.852 1516.01 942.736 1514.73 954.637 C 1506.41 1032.22 1512.12 1109.62 1514.4 1187.43 C 1518.01 1306.31 1520.97 1425.2 1523.27 1544.11 C 1472.41 1539.81 1420 1536.83 1368.95 1533.26 L 1161.39 1518.75 C 1131.69 1516.87 1102.01 1514.74 1072.36 1512.38 C 1061.23 1511.53 1034.84 1508.87 1025.24 1509.66 C 1011.67 1510.77 987.581 1516.22 973.573 1519.01 C 942.426 1525.31 911.241 1531.42 880.021 1537.35 L 497.75 1612.64 L 496.452 1611.67 C 495.941 1608.04 498.478 1579.24 498.904 1573.31 L 505.913 1474.48 L 526.965 1184.41 C 530.539 1133.51 533.978 1082.05 536.835 1031.11 C 538.048 1009.46 536.58 979.257 535.866 957.019 L 533.252 864.552 L 523.935 504.819 C 558.214 506.2 599.661 510.321 634.778 512.758 L 887.064 530.772 C 918.606 533.132 950.161 535.323 981.727 537.347 C 991.569 538.076 1016.83 541.138 1024.49 540.433 C 1036.52 539.327 1058.66 533.752 1072.02 531.218 C 1114.35 523.505 1156.6 515.32 1198.75 506.664 L 1550.3 437.287 z" fill="rgb(0,0,0)" transform="translate(0,0)"></path>
<path d="M 1452.54 549.317 L 1456.03 549.052 L 1457.24 550.155 C 1457.65 563.324 1454.96 588.488 1453.93 602.295 C 1451.6 636.213 1448.91 670.106 1445.86 703.966 C 1440.39 772.974 1435.44 842.022 1431.01 911.104 C 1430.11 924.901 1429.57 939.866 1428.09 953.52 C 1421.91 1010.29 1425.08 1065.5 1426.25 1122.46 L 1430.09 1343.13 L 1430.72 1407.7 C 1430.81 1418.81 1431.31 1434.61 1430.43 1445.23 C 1397.4 1444.33 1355.35 1440.2 1321.69 1437.88 L 1130.46 1425.01 L 1062.64 1420.2 C 1050.23 1419.32 1030.3 1417.27 1018.68 1418.56 C 1006.18 1419.95 989.531 1423.56 976.929 1426.03 L 917.006 1437.53 L 692.018 1481.49 C 672.168 1485.38 652.395 1488.83 632.541 1492.89 C 622.827 1494.88 599.994 1500.04 591.323 1500.5 C 599.49 1408.66 605.254 1317.27 612.977 1225.58 L 624.161 1093.49 C 626.615 1062.84 629.792 1031.6 629.003 1000.85 C 628.598 985.077 627.749 969.263 627.105 953.496 L 624.194 864.679 C 621.449 778.057 619.949 689.56 616.114 603.089 L 908.103 623.685 C 932.343 625.305 956.565 627.18 980.765 629.308 C 993.14 630.356 1012.7 632.572 1024.59 632.095 C 1034.5 631.697 1053.71 626.994 1064.19 624.834 C 1086.14 620.246 1108.12 615.868 1130.15 611.701 C 1236.84 591.799 1346.4 567.702 1452.54 549.317 z" fill="rgb(252,81,30)" transform="translate(0,0)"></path>
<path d="M 1365.75 649.322 C 1368.09 649.018 1366.92 648.951 1369.27 649.568 C 1371.88 656.876 1360.21 780.056 1358.42 800.161 C 1354.04 849.467 1350.72 905.444 1345.19 955.178 C 1338.4 1016.17 1341.78 1067.15 1343.63 1127.87 L 1347.05 1281.83 C 1347.61 1307.75 1348.9 1333.17 1349.08 1359.19 C 1277.46 1353.38 1204.56 1349.03 1132.79 1344.01 L 1065.78 1339.02 C 1054.72 1338.2 1035.47 1336.28 1024.99 1337 C 1010.46 1338 990.322 1342.31 975.557 1345.12 L 893.651 1360.81 L 760.797 1386.39 C 733.616 1391.53 703.564 1396.33 676.867 1402.49 C 676.974 1391.12 678.985 1375.49 680.106 1363.74 L 686.199 1297.91 C 691.776 1235.72 696.88 1173.48 701.51 1111.2 C 703.798 1081.72 706.764 1051.82 708.563 1022.35 C 709.14 1012.91 707.853 994.082 707.412 983.924 C 706.463 963.572 705.678 943.213 705.058 922.849 C 701.853 845.53 699.387 768.182 697.66 690.815 L 926.736 708.026 C 946.587 709.475 966.423 711.123 986.241 712.969 C 996.414 713.907 1016.73 716.332 1026.05 715.659 C 1037.59 714.826 1056.11 710.589 1068.15 708.145 L 1134.53 694.704 C 1209.95 679.372 1290.24 662.496 1365.75 649.322 z" fill="rgb(0,0,0)" transform="translate(0,0)"></path>
<path d="M 1280.34 749.312 L 1280.91 749.788 C 1282.06 756.133 1274.63 817.901 1273.57 827.647 C 1268.89 871.072 1264.48 914.526 1260.33 958.006 C 1258.3 977.524 1252.43 1010.77 1253.03 1029.29 C 1255.62 1109.14 1262.41 1189.22 1265.33 1269.05 C 1216.68 1263.56 1160.62 1260.31 1111.35 1256.17 L 1058.62 1251.64 C 1051.16 1251 1031.25 1248.96 1024.76 1249.73 C 1002.07 1252.41 977.503 1258.65 954.816 1262.78 C 892.004 1274.19 829.455 1288.78 766.76 1300.42 C 768.355 1275.43 772.544 1245.61 775.48 1220.32 C 780.905 1174.76 785.995 1129.16 790.749 1083.52 C 792.631 1065.32 796.604 1035.41 796.962 1018.18 C 797.407 996.795 793.891 962.851 792.342 940.624 C 788.471 887.352 784.899 834.059 781.624 780.747 C 804.395 781.527 831.006 784.544 854.172 786.536 L 957.803 795.043 C 978.852 796.89 1002.3 799.874 1023.26 800.453 C 1030.6 800.656 1050.64 796.209 1058.68 794.568 L 1110.41 783.917 L 1280.34 749.312 z" fill="rgb(252,81,30)" transform="translate(0,0)"></path>
<path d="M 1187.59 852.221 L 1189.15 852.981 C 1189.36 860.094 1185.83 884.574 1184.85 893.446 C 1182.26 917.907 1179.46 942.345 1176.44 966.757 C 1174.46 982.536 1171.07 1005.01 1170.2 1020.44 C 1169.34 1035.71 1173.04 1065.26 1174.52 1081.44 C 1177.64 1116.08 1180.54 1150.74 1183.23 1185.41 C 1146.24 1181.33 1108.81 1174.29 1071.91 1169.64 C 1063.72 1168.61 1030.04 1162.52 1023.61 1163.7 C 969.955 1173.57 911.868 1189.47 858.812 1199.78 C 864.021 1165.35 868.707 1130.84 872.869 1096.27 C 875.177 1078.24 879.596 1047.65 879.545 1030.08 C 879.489 1011.02 875.399 982.012 873.163 962.19 L 862.618 863.611 C 898.996 869.317 935.44 874.599 971.941 879.454 C 987.042 881.604 1009.27 885.24 1024 886.148 C 1030.05 886.521 1057.73 879.741 1065.49 878.171 C 1106.25 869.833 1146.95 861.183 1187.59 852.221 z" fill="rgb(0,0,0)" transform="translate(0,0)"></path>
<path d="M 449.539 497.791 L 450.052 498.304 C 451.667 502.759 453.543 609.224 453.868 619.888 L 459.11 815.999 C 461.105 881.415 463.916 953.056 463.475 1018.13 C 462.894 1054.5 461.761 1090.85 460.078 1127.19 C 458.427 1174.65 456.529 1222.11 454.385 1269.55 C 450.638 1360.75 446.326 1451.92 441.45 1543.06 C 433.404 1533.03 427.133 1522.43 420.491 1511.49 C 392.672 1462.37 374.159 1407.81 373.143 1350.9 C 372.119 1293.51 372.698 1235.88 372.772 1178.47 L 372.744 900.223 L 372.821 761.668 C 372.797 723.015 371.152 680.026 378.57 642.295 C 387.915 594.765 416.644 533.524 449.539 497.791 z" fill="rgb(0,0,0)" transform="translate(0,0)"></path>
<path d="M 1607.07 506.654 C 1619.03 517.404 1647.13 574.706 1653.39 591.134 C 1658.2 604.161 1662.23 617.466 1665.44 630.977 C 1675.86 673.321 1675.2 700.232 1675.52 743.352 L 1675.8 822.119 L 1675.36 1059 L 1675.66 1267.41 C 1675.21 1369.76 1678.23 1426 1622.76 1517.46 C 1613.82 1531.42 1606.58 1541.86 1595.99 1554.6 C 1592.89 1429.88 1590.54 1305.15 1588.97 1180.4 C 1588.08 1108.7 1584.59 1037.17 1587.89 965.5 C 1589.39 932.846 1590.55 899.961 1591.68 867.286 C 1595.57 747.026 1600.7 626.809 1607.07 506.654 z" fill="rgb(0,0,0)" transform="translate(0,0)"></path>
<path d="M 695.519 377.428 C 739.401 376.416 786.491 377.32 830.583 377.382 L 1050.66 377.293 L 1237.93 377.515 C 1288.61 377.605 1342.75 374.951 1392.61 380.914 C 1411.77 383.206 1432.97 389.169 1451.79 394.11 C 1437.05 399.184 1388.16 405.955 1369.9 409.117 C 1326.84 416.574 1283.76 424.677 1240.75 432.319 L 1096.91 458.58 C 1075.84 462.455 1048.84 468.408 1028.45 471.144 C 1018.94 472.419 983.332 468.895 971.833 468.03 L 874.221 461.134 L 679.073 447.452 C 625.437 444.121 571.84 440.191 518.293 435.663 C 572.284 396.402 629.564 380.554 695.519 377.428 z" fill="rgb(0,0,0)" transform="translate(0,0)"></path>
<path d="M 1021.73 1579.39 C 1033.15 1578.96 1065.58 1582.34 1078.3 1583.28 L 1197.76 1592.16 C 1307.12 1600.31 1415.61 1606.08 1525.26 1615.09 C 1438.23 1677.28 1358.95 1672.26 1259.06 1672.52 L 1104.5 1672.58 C 1013.67 1671.37 924.477 1672.89 833.91 1672.41 L 748.951 1672.1 C 692.511 1672.04 652.702 1673.09 597.924 1654.85 C 648.335 1646.41 701.186 1635.95 751.663 1626.62 L 909.071 1598.65 C 946.307 1592.06 984.412 1584.85 1021.73 1579.39 z" fill="rgb(0,0,0)" transform="translate(0,0)"></path>
<metadata><recraft-signature>{"signed_by": "recraft", "signature_b64": "Q6u9AMSUKte8oK8JsdWcxDyhkk33mDyLotwyPtKlSxSjloIAGwUvcjrXo8OBLv4JhtZaqz0SufXrjdHg4b/WBw==", "signing_algo": "Ed25519", "generation_timestamp": 1772776805, "identifier": "cfbbe446-079b-4f1c-82e2-bbac2d9a9cc8"}</recraft-signature></metadata></svg>