<svg xmlns="http://www.w3.org/2000/svg" height="1024" preserveAspectRatio="none" style="display: block;" version="1.1" viewBox="0 0 2048 2048" width="1024">
<path d="M 0 0 L 2048 0 L 2048 2048 L 0 2048 L 0 0 z" fill="rgb(255,255,255)" transform="translate(0,0)"></path>
<path d="M 1237.64 278.778 C 1246.96 277.45 1262.75 277.879 1272.61 277.902 L 1327.7 277.9 C 1363.65 277.671 1405.58 275.75 1441.12 278.967 C 1598.6 293.222 1740.81 424.456 1762.25 581.998 C 1764.08 595.489 1767.53 632.525 1765.22 645.056 C 1766.49 654.428 1766.03 687.219 1765.82 698.152 C 1765.53 712.991 1766.5 738.846 1765.18 752.247 C 1765.58 756.889 1765.27 762.501 1764.98 767.175 C 1765.15 769.35 1765.18 771.345 1765.23 773.52 C 1765.52 787.531 1764.86 801.871 1765.27 815.683 C 1767.29 884.188 1738.92 952.16 1707.29 1011.56 C 1705.14 1015.59 1702.01 1020.68 1700.37 1024.79 C 1742.19 1092.53 1772.32 1174.83 1768.12 1255.26 C 1769.46 1264.43 1769.11 1280.03 1769.12 1289.68 L 1769.14 1341.83 C 1769.14 1356.45 1768.56 1372.8 1769.22 1387.12 C 1778.58 1588.24 1613.87 1768.4 1410.78 1768.64 C 1404.66 1768.65 1399.03 1769.1 1392.83 1768.09 C 1373.81 1770.23 1339.02 1768.58 1318.51 1768.75 C 1301.88 1769.23 1283.88 1768.81 1267.2 1768.67 C 1250.12 1768.52 1230.83 1769.09 1213.96 1767.53 C 1167.35 1763.24 1121.66 1750.73 1078.45 1732.93 C 1061.51 1725.96 1042.83 1719.38 1027.03 1710.43 C 971.282 1737.38 907.307 1761.62 845.38 1768.8 C 831.648 1770.4 815.922 1770.13 801.978 1769.93 C 789.526 1766.59 774.157 1765.59 761.227 1763.18 C 715.514 1754.65 676.436 1730.43 642.106 1699.9 C 637.022 1695.37 624.347 1680.91 618.83 1678.51 L 619.123 1677.95 C 618.528 1674.83 610.019 1664.84 607.369 1661.35 C 596.97 1647.83 587.465 1633.65 578.913 1618.89 C 557.376 1581.21 545.161 1550.71 529.877 1511.17 C 441.952 1485.93 366.346 1447.18 317.82 1365.66 C 304.591 1343.43 290.165 1306.92 286.839 1281.2 C 285.666 1283.13 285.456 1283.22 283.819 1284.97 C 283.767 1283.46 283.719 1282.01 283.705 1280.5 C 277.46 1177.96 297.57 1114.46 347.465 1025.14 C 317.026 971.446 290.546 907.137 283.471 845.417 C 281.35 826.918 281.635 810.585 282.154 792.163 C 281.403 753.785 281.024 715.4 281.016 677.014 C 280.963 657.836 280.462 636.669 281.487 617.784 C 286.728 521.243 331.618 432.832 404.445 369.454 C 481.817 302.121 567.922 275.743 669.806 282.247 C 690.248 281.956 710.692 281.864 731.135 281.971 C 741.569 281.966 756.49 281.503 766.61 282.033 C 772.544 281.879 778.248 282.019 784.145 281.926 C 885.017 277.972 937.95 300.91 1028.32 339.661 C 1046.63 329.491 1062.75 322.813 1081.67 314.579 C 1135.17 291.288 1179.29 279.81 1237.64 278.778 z" fill="rgb(28,184,169)" transform="translate(0,0)"></path>
<path d="M 1405.18 1314.39 C 1401.93 1323.75 1395.34 1336.05 1391.05 1345.31 C 1370.54 1389.54 1347.23 1426.18 1320.03 1466.23 C 1356.22 1466.61 1427.24 1458.87 1462.24 1449.4 C 1454.52 1475.46 1445.29 1501.05 1434.59 1526.04 C 1413.04 1527.37 1388.9 1532.04 1366.65 1533.78 C 1331.07 1536.57 1297.24 1536.14 1261.68 1536.78 C 1218.16 1582.44 1164.17 1629.83 1110.7 1663.13 C 1100.22 1668.48 1083.84 1678.9 1072.81 1685.21 C 1061.4 1691.74 1036.89 1703.62 1027.03 1710.43 C 971.282 1737.38 907.307 1761.62 845.38 1768.8 C 831.648 1770.4 815.922 1770.13 801.978 1769.93 C 789.526 1766.59 774.157 1765.59 761.227 1763.18 C 715.514 1754.65 676.436 1730.43 642.106 1699.9 C 637.022 1695.37 624.347 1680.91 618.83 1678.51 L 619.123 1677.95 C 618.528 1674.83 610.019 1664.84 607.369 1661.35 C 596.97 1647.83 587.465 1633.65 578.913 1618.89 C 557.376 1581.21 545.161 1550.71 529.877 1511.17 C 547.344 1516.45 565.092 1520.76 583.038 1524.08 C 590.258 1525.48 610.978 1528.27 616.703 1530.5 C 678.601 1540.16 728.41 1540.59 790.418 1536.54 C 832.401 1580.17 895.89 1633 947.798 1663.52 C 955.781 1664.92 1020.17 1636.29 1030.7 1629.59 C 991.078 1611.58 913.407 1556.95 881.451 1526.16 C 933.275 1515.01 972.611 1501.43 1020.76 1480.34 C 1035.23 1473.56 1049.28 1465.91 1062.83 1457.44 C 1070.9 1452.4 1092.68 1436.88 1099.85 1434.49 C 1155.86 1423.96 1210.02 1410.68 1262.33 1387.5 C 1273.79 1382.43 1285.36 1377.52 1296.89 1372.58 C 1337.7 1352.65 1366.5 1337.52 1405.18 1314.39 z" fill="rgb(4,52,85)" transform="translate(0,0)"></path>
<path d="M 616.703 1530.5 C 678.601 1540.16 728.41 1540.59 790.418 1536.54 C 832.401 1580.17 895.89 1633 947.798 1663.52 C 864.079 1694.88 774.672 1703.5 699.499 1645.26 C 666.295 1619.53 643.807 1587.55 625.283 1550.23 C 622.927 1545.49 617.331 1535.35 616.703 1530.5 z" fill="rgb(1,2,38)" transform="translate(0,0)"></path>
<path d="M 1020.76 1480.34 C 1051.21 1493.31 1092.32 1506.63 1124.47 1515.59 C 1139.32 1519.72 1158.63 1522.17 1174.05 1525.43 C 1139.84 1557.83 1100.66 1586.72 1060.5 1611.26 C 1054.58 1614.88 1034.76 1625.6 1030.7 1629.59 C 991.078 1611.58 913.407 1556.95 881.451 1526.16 C 933.275 1515.01 972.611 1501.43 1020.76 1480.34 z" fill="rgb(1,2,38)" transform="translate(0,0)"></path>
<path d="M 1296.89 1372.58 C 1296.99 1373.2 1297.09 1373.82 1297.2 1374.44 C 1288.04 1389.16 1270.57 1412.51 1261.39 1425.97 C 1251.58 1440.34 1240.75 1451.45 1231.99 1463.77 C 1203.75 1461.71 1174.28 1457.1 1147 1449.47 C 1138.69 1447.15 1105.51 1438.88 1099.85 1434.49 C 1155.86 1423.96 1210.02 1410.68 1262.33 1387.5 C 1273.79 1382.43 1285.36 1377.52 1296.89 1372.58 z" fill="rgb(1,2,38)" transform="translate(0,0)"></path>
<path d="M 1237.64 278.778 C 1246.96 277.45 1262.75 277.879 1272.61 277.902 L 1327.7 277.9 C 1363.65 277.671 1405.58 275.75 1441.12 278.967 C 1598.6 293.222 1740.81 424.456 1762.25 581.998 C 1764.08 595.489 1767.53 632.525 1765.22 645.056 C 1766.49 654.428 1766.03 687.219 1765.82 698.152 C 1765.53 712.991 1766.5 738.846 1765.18 752.247 C 1764.91 749.983 1764.66 739.916 1764.22 739.273 C 1763.41 739.319 1759.13 744.082 1758.18 744.991 C 1753.76 728.623 1747.64 712.761 1739.93 697.661 C 1693.2 606.161 1611.44 565.346 1518.84 535.102 C 1504.09 493.283 1492.52 461.633 1468.16 424.332 C 1460.13 411.96 1451.55 399.962 1442.43 388.376 C 1439.31 384.484 1429.57 374.692 1428.65 371.478 L 1430.79 370.497 C 1422.72 369.498 1409.39 354.286 1402.44 347.98 C 1362.83 312.08 1311.02 290.261 1258.48 282.193 C 1251.31 281.093 1244.76 280.334 1237.64 278.778 z" fill="rgb(28,184,169)" transform="translate(0,0)"></path>
<path d="M 1430.79 370.497 C 1504.23 379.065 1574.18 421.722 1619.89 479.11 C 1639.6 503.421 1654.8 531.062 1664.77 560.728 C 1697.04 565.728 1726.03 583.268 1745.43 609.532 C 1754.22 621.294 1759.3 631.766 1765.22 645.056 C 1766.49 654.428 1766.03 687.219 1765.82 698.152 C 1765.53 712.991 1766.5 738.846 1765.18 752.247 C 1764.91 749.983 1764.66 739.916 1764.22 739.273 C 1763.41 739.319 1759.13 744.082 1758.18 744.991 C 1753.76 728.623 1747.64 712.761 1739.93 697.661 C 1693.2 606.161 1611.44 565.346 1518.84 535.102 C 1504.09 493.283 1492.52 461.633 1468.16 424.332 C 1460.13 411.96 1451.55 399.962 1442.43 388.376 C 1439.31 384.484 1429.57 374.692 1428.65 371.478 L 1430.79 370.497 z" fill="rgb(1,2,38)" transform="translate(0,0)"></path>
<path d="M 282.154 792.163 C 281.403 753.785 281.024 715.4 281.016 677.014 C 280.963 657.836 280.462 636.669 281.487 617.784 C 286.728 521.243 331.618 432.832 404.445 369.454 C 481.817 302.121 567.922 275.743 669.806 282.247 C 690.248 281.956 710.692 281.864 731.135 281.971 C 741.569 281.966 756.49 281.503 766.61 282.033 L 774.584 284.422 C 698.367 299.594 631.21 344.216 587.694 408.602 C 560.474 448.945 542.907 494.547 528.925 540.885 C 488.005 554.309 448.419 569.183 411.276 591.368 C 405.763 594.661 376.465 615.609 373.958 615.479 L 373.491 613.278 C 372.296 621.864 355.599 634.22 349.148 641.061 C 308.248 684.429 290.767 734.371 282.154 792.163 z" fill="rgb(28,184,169)" transform="translate(0,0)"></path>
<path d="M 669.806 282.247 C 690.248 281.956 710.692 281.864 731.135 281.971 C 741.569 281.966 756.49 281.503 766.61 282.033 L 774.584 284.422 C 698.367 299.594 631.21 344.216 587.694 408.602 C 560.474 448.945 542.907 494.547 528.925 540.885 C 488.005 554.309 448.419 569.183 411.276 591.368 C 405.763 594.661 376.465 615.609 373.958 615.479 L 373.491 613.278 C 375.687 591.787 382.428 565.849 390.405 546.101 C 413.935 489.224 455.183 441.454 508.024 409.886 C 524.85 400.002 540.86 393.43 558.738 385.917 C 576.871 337.134 617.866 294.03 669.806 282.247 z" fill="rgb(1,2,38)" transform="translate(0,0)"></path>
<path d="M 1768.12 1255.26 C 1769.46 1264.43 1769.11 1280.03 1769.12 1289.68 L 1769.14 1341.83 C 1769.14 1356.45 1768.56 1372.8 1769.22 1387.12 C 1778.58 1588.24 1613.87 1768.4 1410.78 1768.64 C 1404.66 1768.65 1399.03 1769.1 1392.83 1768.09 C 1373.81 1770.23 1339.02 1768.58 1318.51 1768.75 C 1303.25 1767.53 1287.09 1768.51 1271.41 1767.6 C 1307.5 1759.12 1325.75 1756.59 1359.81 1737.39 C 1428.91 1698.42 1472.22 1636.74 1499.47 1563.88 C 1506.75 1544.4 1514.87 1526.05 1520.7 1505.57 C 1558.04 1496.96 1604.71 1476.68 1637.75 1457.81 C 1649.24 1451.25 1664.11 1440.79 1675.58 1433.31 L 1677.47 1433.74 C 1677.66 1431.94 1678.11 1430.11 1679.41 1428.77 C 1698.26 1409.25 1717.49 1390.98 1731.3 1367.18 C 1745.08 1343.41 1755.53 1317.43 1761.49 1290.55 C 1763.98 1279.32 1764.98 1267.6 1767.82 1256.4 L 1768.12 1255.26 z" fill="rgb(28,184,169)" transform="translate(0,0)"></path>
<path d="M 1520.7 1505.57 C 1558.04 1496.96 1604.71 1476.68 1637.75 1457.81 C 1649.24 1451.25 1664.11 1440.79 1675.58 1433.31 L 1677.47 1433.74 C 1667.72 1507.76 1626.11 1576.09 1566.99 1621.2 C 1543.7 1638.97 1528.03 1647.06 1501.65 1658.94 C 1490.84 1694.11 1474.62 1720.1 1444.81 1742.75 C 1427.79 1755.68 1412.71 1760.96 1392.83 1768.09 C 1373.81 1770.23 1339.02 1768.58 1318.51 1768.75 C 1303.25 1767.53 1287.09 1768.51 1271.41 1767.6 C 1307.5 1759.12 1325.75 1756.59 1359.81 1737.39 C 1428.91 1698.42 1472.22 1636.74 1499.47 1563.88 C 1506.75 1544.4 1514.87 1526.05 1520.7 1505.57 z" fill="rgb(1,2,38)" transform="translate(0,0)"></path>
<path d="M 1028.32 339.661 C 1046.63 329.491 1062.75 322.813 1081.67 314.579 C 1135.17 291.288 1179.29 279.81 1237.64 278.778 C 1244.76 280.334 1251.31 281.093 1258.48 282.193 C 1311.02 290.261 1362.83 312.08 1402.44 347.98 C 1409.39 354.286 1422.72 369.498 1430.79 370.497 L 1428.65 371.478 C 1429.57 374.692 1439.31 384.484 1442.43 388.376 C 1451.55 399.962 1460.13 411.96 1468.16 424.332 C 1492.52 461.633 1504.09 493.283 1518.84 535.102 C 1489.34 526.562 1462.22 520.887 1432.26 514.494 C 1382.75 505.588 1308.72 503.249 1259.07 509.327 C 1231.8 483.017 1207.52 457.189 1177.52 433.123 C 1155.82 415.709 1134.16 401.245 1111.16 385.713 C 1098.99 379.378 1085.15 370.089 1072.41 363.163 C 1058.7 355.706 1041.07 347.582 1028.32 339.661 z" fill="rgb(4,52,85)" transform="translate(0,0)"></path>
<path d="M 1111.16 385.713 C 1118.69 382.675 1138.75 378.004 1147.37 375.925 C 1204.99 362.04 1253.58 355.457 1309.93 379.909 C 1352.03 398.175 1381.69 426.334 1406.3 465.102 C 1415.08 478.944 1424.7 499.51 1432.26 514.494 C 1382.75 505.588 1308.72 503.249 1259.07 509.327 C 1231.8 483.017 1207.52 457.189 1177.52 433.123 C 1155.82 415.709 1134.16 401.245 1111.16 385.713 z" fill="rgb(1,2,38)" transform="translate(0,0)"></path>
<path d="M 1653.12 1093.95 C 1668.86 1073.11 1686.07 1046.86 1700.37 1024.79 C 1742.19 1092.53 1772.32 1174.83 1768.12 1255.26 L 1767.82 1256.4 C 1764.98 1267.6 1763.98 1279.32 1761.49 1290.55 C 1755.53 1317.43 1745.08 1343.41 1731.3 1367.18 C 1717.49 1390.98 1698.26 1409.25 1679.41 1428.77 C 1678.11 1430.11 1677.66 1431.94 1677.47 1433.74 L 1675.58 1433.31 C 1664.11 1440.79 1649.24 1451.25 1637.75 1457.81 C 1604.71 1476.68 1558.04 1496.96 1520.7 1505.57 C 1529.45 1478.74 1535.97 1450.13 1543.56 1422.85 C 1562.74 1343.16 1573.21 1258.82 1579.04 1177.21 C 1601.07 1158.56 1634.63 1116.51 1653.12 1093.95 z" fill="rgb(4,52,85)" transform="translate(0,0)"></path>
<path d="M 1653.12 1093.95 C 1681.93 1167.65 1704.5 1229.93 1670.01 1308.09 C 1643.41 1368.34 1602.63 1397.14 1545.46 1423.16 L 1543.56 1422.85 C 1562.74 1343.16 1573.21 1258.82 1579.04 1177.21 C 1601.07 1158.56 1634.63 1116.51 1653.12 1093.95 z" fill="rgb(1,2,38)" transform="translate(0,0)"></path>
<path d="M 373.491 613.278 L 373.958 615.479 C 376.465 615.609 405.763 594.661 411.276 591.368 C 448.419 569.183 488.005 554.309 528.925 540.885 C 523.564 558.337 518.444 575.862 513.568 593.455 C 510.957 603.202 508.47 615.546 505.668 624.766 C 484.918 708.356 475.252 785.808 471.149 871.523 C 444.64 896.557 419.982 923.481 397.372 952.085 C 380.584 973.861 361.286 1001.19 347.465 1025.14 C 317.026 971.446 290.546 907.137 283.471 845.417 C 281.35 826.918 281.635 810.585 282.154 792.163 C 290.767 734.371 308.248 684.429 349.148 641.061 C 355.599 634.22 372.296 621.864 373.491 613.278 z" fill="rgb(4,52,85)" transform="translate(0,0)"></path>
<path d="M 397.372 952.085 C 390.549 946.413 376.977 899.589 373.708 888.758 C 354.596 826.384 364.338 753.803 403.354 701.07 C 419.997 678.577 479.112 628.361 505.668 624.766 C 484.918 708.356 475.252 785.808 471.149 871.523 C 444.64 896.557 419.982 923.481 397.372 952.085 z" fill="rgb(1,2,38)" transform="translate(0,0)"></path>
<path d="M 1261.68 1536.78 C 1297.24 1536.14 1331.07 1536.57 1366.65 1533.78 C 1388.9 1532.04 1413.04 1527.37 1434.59 1526.04 C 1405.77 1590.17 1376.37 1646.17 1305.59 1674.2 C 1258.28 1692.93 1207.53 1686.78 1158.92 1676.18 C 1143.28 1672.77 1126.12 1666.51 1110.7 1663.13 C 1164.17 1629.83 1218.16 1582.44 1261.68 1536.78 z" fill="rgb(1,2,38)" transform="translate(0,0)"></path>
<path d="M 1405.18 1314.39 C 1437.75 1295.35 1475.61 1269.25 1504.29 1244.49 C 1494.95 1314.36 1483.22 1381.86 1462.24 1449.4 C 1427.24 1458.87 1356.22 1466.61 1320.03 1466.23 C 1347.23 1426.18 1370.54 1389.54 1391.05 1345.31 C 1395.34 1336.05 1401.93 1323.75 1405.18 1314.39 z" fill="rgb(1,2,38)" transform="translate(0,0)"></path>
<path d="M 1758.18 744.991 C 1759.13 744.082 1763.41 739.319 1764.22 739.273 C 1764.66 739.916 1764.91 749.983 1765.18 752.247 C 1765.58 756.889 1765.27 762.501 1764.98 767.175 C 1764.28 764.594 1764.86 762.735 1762.45 762.033 C 1761.07 756.196 1759.83 750.767 1758.18 744.991 z" fill="rgb(1,1,6)" transform="translate(0,0)"></path>
<path d="M 766.61 282.033 C 772.544 281.879 778.248 282.019 784.145 281.926 C 780.317 283.004 778.603 283.721 774.584 284.422 L 766.61 282.033 z" fill="rgb(3,10,14)" transform="translate(0,0)"></path>
<path d="M 283.705 1280.5 C 283.88 1278.62 283.985 1273.77 284.718 1272.42 L 284.391 1272.16 L 284.491 1271.9 L 284.423 1272.11 L 284.497 1272.17 C 285.311 1275.17 286.144 1278.16 286.839 1281.2 C 285.666 1283.13 285.456 1283.22 283.819 1284.97 C 283.767 1283.46 283.719 1282.01 283.705 1280.5 z" fill="rgb(1,1,6)" transform="translate(0,0)"></path>
<path d="M 1762.45 762.033 C 1764.86 762.735 1764.28 764.594 1764.98 767.175 C 1765.15 769.35 1765.18 771.345 1765.23 773.52 L 1764.79 772.371 C 1762.91 767.534 1763.26 767.2 1762.45 762.033 z" fill="rgb(3,10,14)" transform="translate(0,0)"></path>
<path d="M 1231.55 581.829 C 1256.77 577.791 1291.62 577.031 1316.9 576.954 C 1352.78 577.507 1388.55 580.918 1423.88 587.153 C 1433.18 588.748 1454.76 594.352 1462.09 595.129 C 1481.04 600.68 1529.44 614.924 1546.05 624.182 C 1599.56 645.758 1647.95 687.223 1670.92 741.351 C 1703.15 817.292 1684.22 878.882 1655.21 951.037 C 1654.9 951.72 1654.58 952.403 1654.27 953.086 C 1644.34 974.838 1624.4 1009.63 1611.15 1029.37 C 1605.49 1039.11 1589.04 1061.81 1581.88 1070.35 C 1582.11 1057.87 1582.59 1045.88 1582.92 1033.5 C 1573.02 999.215 1553.52 951.524 1529.23 925.555 C 1525.29 945.228 1523.94 967.043 1519.91 985.221 C 1519.25 1001.9 1518.98 1018.46 1518.91 1035.15 C 1518.77 1071.01 1516.25 1107 1515.78 1142.83 C 1496.06 1162.78 1466.76 1191.22 1443.14 1206.59 C 1460.1 1142.42 1458.81 1089.44 1435.68 1026.25 C 1421.45 988.794 1407.66 968.648 1385.74 935.72 C 1353.47 895.558 1327.08 870.05 1282.89 841.861 C 1271.31 834.472 1256.63 827.582 1245.61 820.258 L 1244.87 819.756 C 1240.55 817.924 1235.82 815.579 1231.59 813.502 C 1204.55 800.22 1176.63 790.339 1148.15 780.489 C 1133.06 751.102 1099.26 710.674 1074.93 688.268 C 1061.42 675.822 1038.67 659.351 1023.46 648.173 C 1043.14 635.133 1079.17 617.944 1101.71 611.22 C 1143.7 596.412 1187.27 586.548 1231.55 581.829 z" fill="rgb(4,52,85)" transform="translate(0,0)"></path>
<path d="M 1546.05 624.182 C 1599.56 645.758 1647.95 687.223 1670.92 741.351 C 1703.15 817.292 1684.22 878.882 1655.21 951.037 C 1654.9 951.72 1654.58 952.403 1654.27 953.086 C 1650.85 950.636 1641.62 937.969 1638.13 933.66 C 1620.19 911.509 1600.86 892.104 1580.35 872.452 C 1578.77 851.816 1578.09 830.923 1575.94 810.353 C 1570.18 755.272 1561.19 700.554 1549.67 646.397 C 1548.26 639.788 1546.48 630.822 1546.05 624.182 z" fill="rgb(1,2,38)" transform="translate(0,0)"></path>
<path d="M 1445.35 843.675 C 1449.5 847.073 1453.89 850.992 1457.73 854.735 C 1475.96 872.525 1497.25 888.731 1514.82 907.093 C 1514.79 917.176 1516.22 932.455 1516.83 942.813 C 1517.42 952.556 1517.62 976.758 1519.91 985.221 C 1519.25 1001.9 1518.98 1018.46 1518.91 1035.15 C 1518.77 1071.01 1516.25 1107 1515.78 1142.83 C 1496.06 1162.78 1466.76 1191.22 1443.14 1206.59 C 1460.1 1142.42 1458.81 1089.44 1435.68 1026.25 C 1459.82 954.107 1456.13 916.225 1445.35 843.675 z" fill="rgb(1,2,38)" transform="translate(0,0)"></path>
<path d="M 1316.9 576.954 C 1352.78 577.507 1388.55 580.918 1423.88 587.153 C 1433.18 588.748 1454.76 594.352 1462.09 595.129 C 1465.74 604.222 1470.84 626.171 1473.66 636.293 C 1489.31 692.481 1496.8 746.722 1504.57 804.297 C 1494.91 797.858 1481.72 786.798 1471.87 779.448 C 1451.6 764.332 1430.58 750.255 1408.89 737.272 C 1395.4 706.78 1381.73 676.166 1364.18 647.736 C 1349.27 623.584 1333.32 600.104 1316.9 576.954 z" fill="rgb(1,2,38)" transform="translate(0,0)"></path>
<path d="M 1180.65 704.633 C 1196.37 708.81 1209.06 714.557 1224.01 719.999 C 1268.44 736.166 1308.51 757.129 1350.1 779.539 C 1354.73 786.595 1358.42 797.786 1361.33 805.962 C 1373.99 841.512 1382.8 878.178 1385.61 915.881 C 1385.98 920.806 1387.54 931.689 1385.74 935.72 C 1353.47 895.558 1327.08 870.05 1282.89 841.861 C 1271.31 834.472 1256.63 827.582 1245.61 820.258 L 1244.87 819.756 C 1238.58 795.824 1197.46 723.166 1180.65 704.633 z" fill="rgb(1,2,38)" transform="translate(0,0)"></path>
<path d="M 1101.71 611.22 C 1143.7 596.412 1187.27 586.548 1231.55 581.829 C 1242.77 595.138 1256.24 614.935 1266.64 629.599 C 1276.22 643.108 1290.43 662.423 1298.42 676.184 C 1255.53 655.02 1206.06 639.887 1160.2 626.339 C 1153.88 624.472 1103.57 612.52 1101.71 611.22 z" fill="rgb(1,2,38)" transform="translate(0,0)"></path>
<path d="M 1584.1 985.576 C 1591.17 994.787 1606.6 1018.49 1611.15 1029.37 C 1605.49 1039.11 1589.04 1061.81 1581.88 1070.35 C 1582.11 1057.87 1582.59 1045.88 1582.92 1033.5 C 1584.62 1026.53 1583.99 994.707 1584.1 985.576 z" fill="rgb(1,2,38)" transform="translate(0,0)"></path>
<path d="M 614.237 520.082 C 679.931 362.371 793.74 337.582 944.301 385.256 C 967.526 393.809 1007.31 407.885 1028.21 420.738 C 1082.69 449.745 1126.59 479.147 1172.1 521.324 C 1138.09 528.15 1104.72 537.87 1072.37 550.379 C 1057.89 556.119 1042.34 563.932 1028.64 569.136 C 1017.24 574.654 1006.74 580.275 996.008 585.979 C 984.929 591.87 957.198 611.806 949.08 613.499 C 875.734 627.558 823.333 643.636 755.252 673.351 C 712.219 693.061 684.813 709.442 644.743 732.656 C 605.441 760.14 581.893 773.726 543.859 807.399 C 550.272 743.945 568.45 657.032 586.432 596.712 C 595.24 572.647 602.452 542.788 614.237 520.082 z" fill="rgb(4,52,85)" transform="translate(0,0)"></path>
<path d="M 614.237 520.082 C 679.931 362.371 793.74 337.582 944.301 385.256 L 943.583 385.804 C 931.911 394.594 913.42 404.607 902.785 412.738 C 871.934 436.324 813.03 480.625 790.61 510.027 C 744.051 509.874 700.089 509.558 653.826 514.818 C 648.009 515.479 617.207 521.092 614.237 520.082 z" fill="rgb(1,2,38)" transform="translate(0,0)"></path>
<path d="M 1028.21 420.738 C 1082.69 449.745 1126.59 479.147 1172.1 521.324 C 1138.09 528.15 1104.72 537.87 1072.37 550.379 C 1057.89 556.119 1042.34 563.932 1028.64 569.136 C 1022.89 566.084 1009.51 561.061 1003.08 558.475 C 963.503 542.515 922.561 530.184 880.755 521.636 C 917.401 489.773 958.917 458.576 1001.77 435.362 C 1010.09 430.854 1019.62 426.188 1027.5 421.192 L 1028.21 420.738 z" fill="rgb(1,2,38)" transform="translate(0,0)"></path>
<path d="M 586.432 596.712 C 621.21 587.85 695.338 578.527 731.619 578.945 C 718.231 600.415 703.813 621.012 690.548 642.395 C 679.83 659.673 670.475 679.933 661.14 698.102 C 657.2 705.772 646.888 725.353 644.743 732.656 C 605.441 760.14 581.893 773.726 543.859 807.399 C 550.272 743.945 568.45 657.032 586.432 596.712 z" fill="rgb(1,2,38)" transform="translate(0,0)"></path>
<path d="M 755.252 673.351 C 756.008 664.362 811.457 591.722 822.575 581.83 C 868.32 586.699 904.776 596.775 948.336 611.523 L 949.08 613.499 C 875.734 627.558 823.333 643.636 755.252 673.351 z" fill="rgb(1,2,38)" transform="translate(0,0)"></path>
<path d="M 998.54 819.756 C 1035.13 816.35 1060.87 818.913 1095.59 833.783 C 1103.2 837.044 1115.28 844.612 1120.23 846.694 C 1155.67 875.342 1167.92 892.103 1186.22 934.652 C 1199.16 973.64 1203.96 1005.51 1200.49 1046.97 C 1199.6 1057.62 1196.68 1069.13 1195.55 1079.74 C 1198.96 1102.66 1188.74 1152.07 1182.52 1175.4 C 1170.48 1178.28 1147.31 1189.18 1137 1188.71 C 1117.13 1206.59 1078.91 1216.68 1053.06 1220.5 C 1003.2 1224.19 964.111 1217.89 918.896 1195.17 C 890.323 1170.92 877.696 1149.16 862.662 1115.87 C 843.692 1067.38 843.606 1019.62 851.708 969.255 C 850.926 962.527 850.846 963.817 851.765 957.177 L 852.025 955.209 C 853.434 942.167 855.465 927.876 857.893 914.992 C 858.59 911.316 859.367 907.657 860.221 904.015 L 862.719 893.466 C 864.504 885.975 867.531 873.86 869.966 866.556 C 884.85 864.365 905.726 852.803 917.384 854.443 C 923.351 850.603 929.703 844.748 935.795 841.315 C 956.732 829.517 975.475 824.39 998.54 819.756 z" fill="rgb(255,255,255)" transform="translate(0,0)"></path>
<path d="M 1195.55 1079.74 C 1198.96 1102.66 1188.74 1152.07 1182.52 1175.4 C 1170.48 1178.28 1147.31 1189.18 1137 1188.71 C 1142.78 1181.38 1150.02 1174.68 1155.97 1166.81 C 1175.96 1140.35 1187.38 1111.45 1195.55 1079.74 z" fill="rgb(1,2,38)" transform="translate(0,0)"></path>
<path d="M 869.966 866.556 C 884.85 864.365 905.726 852.803 917.384 854.443 C 896.114 874.007 884.214 886.425 871.427 913.52 C 868.157 920.45 864.098 930.603 860.666 936.972 C 859.896 936.28 859.868 936.144 859.14 935.763 C 858.368 940.904 854.495 950.723 852.025 955.209 C 853.434 942.167 855.465 927.876 857.893 914.992 C 858.59 911.316 859.367 907.657 860.221 904.015 L 862.719 893.466 C 864.504 885.975 867.531 873.86 869.966 866.556 z" fill="rgb(1,2,38)" transform="translate(0,0)"></path>
<path d="M 852.025 955.209 C 854.495 950.723 858.368 940.904 859.14 935.763 C 859.868 936.144 859.896 936.28 860.666 936.972 C 860.354 938.984 856.11 951.813 855.207 955.017 C 853.85 959.714 852.682 964.464 851.708 969.255 C 850.926 962.527 850.846 963.817 851.765 957.177 L 852.025 955.209 z" fill="rgb(1,1,6)" transform="translate(0,0)"></path>
<path d="M 534.388 904.783 C 557.872 882.063 582.584 860.648 608.411 840.633 C 593.431 901.535 594.33 962.264 615.759 1021.81 C 599.208 1083.96 590.971 1136.47 606.601 1200.83 C 616.448 1243.12 625.855 1268.28 641.569 1309.28 C 650.055 1326.06 658.039 1343.18 666.459 1360.06 C 686.117 1399.47 708.381 1433.42 734.447 1468.77 C 678.283 1467.57 640.415 1461.69 586.114 1449.8 C 558.094 1442.87 530.557 1434.12 503.681 1423.59 C 417.353 1383.8 360 1321.66 363.43 1220.9 C 365.034 1173.79 379.848 1137.98 398.508 1096.02 C 412.163 1067.36 422.342 1049.54 439.133 1022.77 C 443.591 1016.07 463.154 984.13 467.364 980.555 C 468.752 981.065 467.95 985.708 467.865 986.788 C 467.646 1010.76 477.18 1058.48 483.757 1082.76 C 503.611 1056.43 520.763 1009.49 531.005 978.453 C 531.896 953.548 532.416 929.648 534.388 904.783 z" fill="rgb(4,52,85)" transform="translate(0,0)"></path>
<path d="M 398.508 1096.02 C 411.16 1113.06 420.259 1124.92 434.881 1140.41 C 446.614 1152.83 459.815 1164.58 471.155 1176.59 C 470.604 1203.45 474.456 1235.8 477.092 1262.58 C 480.917 1301.44 486.892 1339.38 494.593 1377.63 C 497.572 1392.43 500.13 1409.1 503.681 1423.59 C 417.353 1383.8 360 1321.66 363.43 1220.9 C 365.034 1173.79 379.848 1137.98 398.508 1096.02 z" fill="rgb(1,2,38)" transform="translate(0,0)"></path>
<path d="M 534.388 904.783 C 557.872 882.063 582.584 860.648 608.411 840.633 C 593.431 901.535 594.33 962.264 615.759 1021.81 C 599.208 1083.96 590.971 1136.47 606.601 1200.83 C 581.588 1190.42 555.852 1157.76 536.442 1143.11 C 532.754 1109.58 533.444 1072.18 531.992 1038.32 C 531.339 1023.1 533.512 991.912 531.005 978.453 C 531.896 953.548 532.416 929.648 534.388 904.783 z" fill="rgb(1,2,38)" transform="translate(0,0)"></path>
<path d="M 544.506 1243.79 C 554.734 1250.48 565.84 1259.79 575.972 1267.06 C 596.028 1281.45 619.62 1298.2 641.569 1309.28 C 650.055 1326.06 658.039 1343.18 666.459 1360.06 C 686.117 1399.47 708.381 1433.42 734.447 1468.77 C 678.283 1467.57 640.415 1461.69 586.114 1449.8 C 574.936 1426.3 571.849 1404.21 566.227 1379.54 C 555.869 1334.07 550.28 1290.02 544.506 1243.79 z" fill="rgb(1,2,38)" transform="translate(0,0)"></path>
<path d="M 439.133 1022.77 C 443.591 1016.07 463.154 984.13 467.364 980.555 C 468.752 981.065 467.95 985.708 467.865 986.788 C 466.037 994.91 467.803 999.812 467.19 1007 C 465.763 1023.71 465.075 1044.14 465.603 1060.76 C 462.713 1057.25 460.811 1054.62 458.184 1050.92 L 450.645 1040.33 L 448.419 1037.19 C 444.088 1031.1 442.81 1029.04 439.133 1022.77 z" fill="rgb(1,2,38)" transform="translate(0,0)"></path>
<path d="M 663.876 1111.83 C 699.582 1164.11 752.203 1198.43 807.04 1227.15 C 841.228 1242.76 868.13 1255.17 904.882 1265.27 C 922.019 1309.44 953.077 1348.5 989.826 1378.01 C 999.294 1385.61 1014.82 1395.01 1022.87 1402.22 C 1003.73 1414.39 968.049 1431.01 945.968 1437.49 C 906.395 1451.85 865.181 1461.21 823.285 1465.34 C 800.304 1433.51 778.896 1414.35 758.401 1376.21 C 748.997 1367.89 709.594 1289.13 703.387 1273.78 C 679.227 1218.81 667.66 1171.43 663.876 1111.83 z" fill="rgb(4,52,85)" transform="translate(0,0)"></path>
<path d="M 663.876 1111.83 C 699.582 1164.11 752.203 1198.43 807.04 1227.15 C 808.918 1234.13 814.8 1246.45 817.883 1253.35 C 831.317 1284.04 846.795 1313.79 864.212 1342.4 C 818.794 1327.76 776.008 1312.27 733.595 1289.9 C 723.565 1284.61 713.44 1278.88 703.387 1273.78 C 679.227 1218.81 667.66 1171.43 663.876 1111.83 z" fill="rgb(1,2,38)" transform="translate(0,0)"></path>
<path d="M 758.401 1376.21 C 761.825 1376.92 793.667 1391.17 800.14 1393.61 C 826.221 1403.47 853.243 1411.78 879.21 1420.25 C 889.589 1423.64 942.567 1435.14 945.968 1437.49 C 906.395 1451.85 865.181 1461.21 823.285 1465.34 C 800.304 1433.51 778.896 1414.35 758.401 1376.21 z" fill="rgb(1,2,38)" transform="translate(0,0)"></path>
<path d="M 1362.15 1033.59 C 1374.69 1063.08 1389.68 1115.95 1383.09 1147.06 C 1381.85 1181.19 1366.19 1235.84 1353.34 1267.52 C 1317.71 1290.04 1226.77 1333.03 1187.33 1341.04 C 1208.22 1307.55 1226.85 1275.42 1240.11 1238.19 C 1241.64 1233.89 1244.08 1227.02 1246.02 1222.99 C 1251.19 1205.08 1256.9 1186.39 1261.27 1168.37 C 1264.52 1154.98 1266.92 1139.83 1269.57 1126.22 L 1271.63 1126.49 C 1299.64 1107.07 1326.41 1081.51 1346.46 1053.89 C 1351.49 1046.94 1356.71 1040.22 1362.15 1033.59 z" fill="rgb(1,2,38)" transform="translate(0,0)"></path>
<path d="M 1362.15 1033.59 C 1374.69 1063.08 1389.68 1115.95 1383.09 1147.06 C 1382.73 1137.59 1383.38 1129.34 1383.28 1120.14 C 1346.27 1158.68 1320.59 1185.42 1271.29 1210.8 C 1265.93 1213.56 1250.8 1221.81 1246.02 1222.99 C 1251.19 1205.08 1256.9 1186.39 1261.27 1168.37 C 1264.52 1154.98 1266.92 1139.83 1269.57 1126.22 L 1271.63 1126.49 C 1299.64 1107.07 1326.41 1081.51 1346.46 1053.89 C 1351.49 1046.94 1356.71 1040.22 1362.15 1033.59 z" fill="rgb(4,52,85)" transform="translate(0,0)"></path>
<path d="M 860.901 707.092 C 835.444 749.251 823.123 775.379 804.953 821.25 C 798.029 842.559 792.524 861.704 787.418 883.592 C 785.03 893.826 783.076 910.9 780.554 919.8 L 779.357 917.905 C 770.122 920.357 741.938 947.989 733.938 956.639 C 719.154 972.623 696.761 997.768 688.884 1017.58 C 674.785 990.431 662.068 934.841 666.9 904.7 C 666.918 874.283 685.836 805.44 700.042 778.027 C 715.469 767.287 733.113 759.171 749.833 750.763 C 787.546 731.797 820.55 718.667 860.901 707.092 z" fill="rgb(1,2,38)" transform="translate(0,0)"></path>
<path d="M 666.991 925.643 C 703.239 883.571 753.507 842.928 804.953 821.25 C 798.029 842.559 792.524 861.704 787.418 883.592 C 785.03 893.826 783.076 910.9 780.554 919.8 L 779.357 917.905 C 770.122 920.357 741.938 947.989 733.938 956.639 C 719.154 972.623 696.761 997.768 688.884 1017.58 C 674.785 990.431 662.068 934.841 666.9 904.7 C 667.241 910.829 666.994 919.4 666.991 925.643 z" fill="rgb(4,52,85)" transform="translate(0,0)"></path>
<path d="M 1182.52 1175.4 C 1177.35 1193.65 1159.21 1248.39 1148.8 1263.09 C 1126.7 1307.65 1083.37 1358.86 1043.42 1388.36 C 1039.15 1391.51 1027.22 1400.07 1022.87 1402.22 C 1014.82 1395.01 999.294 1385.61 989.826 1378.01 C 953.077 1348.5 922.019 1309.44 904.882 1265.27 C 929.771 1272.27 962.273 1280.49 988.163 1282.33 C 1016.93 1270.81 1040.17 1248.67 1053.06 1220.5 C 1078.91 1216.68 1117.13 1206.59 1137 1188.71 C 1147.31 1189.18 1170.48 1178.28 1182.52 1175.4 z" fill="rgb(1,2,38)" transform="translate(0,0)"></path>
<path d="M 1182.52 1175.4 C 1177.35 1193.65 1159.21 1248.39 1148.8 1263.09 C 1141.07 1263.55 1123.16 1270.8 1114.2 1272.85 C 1081.61 1280.3 1019.49 1290.27 988.163 1282.33 C 1016.93 1270.81 1040.17 1248.67 1053.06 1220.5 C 1078.91 1216.68 1117.13 1206.59 1137 1188.71 C 1147.31 1189.18 1170.48 1178.28 1182.52 1175.4 z" fill="rgb(4,52,85)" transform="translate(0,0)"></path>
<path d="M 1023.46 648.173 C 1038.67 659.351 1061.42 675.822 1074.93 688.268 C 1099.26 710.674 1133.06 751.102 1148.15 780.489 C 1118.64 771.577 1098.01 767.469 1067.64 762.435 C 1042.04 768.698 1013.8 794.947 999.927 817.449 C 999.457 818.213 998.995 818.983 998.54 819.756 C 975.475 824.39 956.732 829.517 935.795 841.315 C 929.703 844.748 923.351 850.603 917.384 854.443 C 905.726 852.803 884.85 864.365 869.966 866.556 C 876.02 844.096 892.164 799.404 904.358 779.66 C 932.527 724.986 973.869 683.38 1023.46 648.173 z" fill="rgb(1,2,38)" transform="translate(0,0)"></path>
<path d="M 904.358 779.66 C 906.409 781.088 927.801 773.796 932.015 772.771 C 971.331 763.213 1028.26 753.662 1067.64 762.435 C 1042.04 768.698 1013.8 794.947 999.927 817.449 C 999.457 818.213 998.995 818.983 998.54 819.756 C 975.475 824.39 956.732 829.517 935.795 841.315 C 929.703 844.748 923.351 850.603 917.384 854.443 C 905.726 852.803 884.85 864.365 869.966 866.556 C 876.02 844.096 892.164 799.404 904.358 779.66 z" fill="rgb(4,52,85)" transform="translate(0,0)"></path>
<path d="M 1120.23 846.694 C 1136.43 848.807 1157.13 857.309 1172.16 863.745 C 1254.19 898.869 1322.01 952.636 1362.15 1033.59 C 1356.71 1040.22 1351.49 1046.94 1346.46 1053.89 C 1326.41 1081.51 1299.64 1107.07 1271.63 1126.49 L 1269.57 1126.22 C 1273.35 1092.81 1275.56 1059.17 1274.49 1025.52 C 1273.17 983.592 1226.55 939.416 1186.22 934.652 C 1167.92 892.103 1155.67 875.342 1120.23 846.694 z" fill="rgb(1,2,38)" transform="translate(0,0)"></path>
<path d="M 688.884 1017.58 C 696.761 997.768 719.154 972.623 733.938 956.639 C 741.938 947.989 770.122 920.357 779.357 917.905 L 780.554 919.8 C 776.905 945.205 774.287 969.304 773.389 994.952 C 772.389 1023.52 773.277 1045.83 791.505 1069.3 C 811.313 1094.81 832.058 1107.53 862.662 1115.87 C 877.696 1149.16 890.323 1170.92 918.896 1195.17 C 911.652 1193.87 897.769 1189.16 890.466 1186.44 C 808.327 1155.91 726.463 1098.79 688.884 1017.58 z" fill="rgb(1,2,38)" transform="translate(0,0)"></path>
<path d="M 286.839 1281.2 C 290.165 1306.92 304.591 1343.43 317.82 1365.66 C 366.346 1447.18 441.952 1485.93 529.877 1511.17 C 545.161 1550.71 557.376 1581.21 578.913 1618.89 C 587.465 1633.65 596.97 1647.83 607.369 1661.35 C 610.019 1664.84 618.528 1674.83 619.123 1677.95 L 618.83 1678.51 C 624.347 1680.91 637.022 1695.37 642.106 1699.9 C 676.436 1730.43 715.514 1754.65 761.227 1763.18 C 774.157 1765.59 789.526 1766.59 801.978 1769.93 L 695.995 1770.64 C 683.972 1770.74 671.006 1770.36 658.989 1770.9 C 464.85 1779.64 281.102 1612.11 283.495 1415.57 C 283.624 1404.95 282.507 1392.15 283.871 1381.73 C 284.194 1349.58 283.213 1317.5 283.819 1284.97 C 285.456 1283.22 285.666 1283.13 286.839 1281.2 z" fill="rgb(28,184,169)" transform="translate(0,0)"></path>
<path d="M 286.839 1281.2 C 290.165 1306.92 304.591 1343.43 317.82 1365.66 C 366.346 1447.18 441.952 1485.93 529.877 1511.17 C 545.161 1550.71 557.376 1581.21 578.913 1618.89 C 587.465 1633.65 596.97 1647.83 607.369 1661.35 C 610.019 1664.84 618.528 1674.83 619.123 1677.95 L 618.83 1678.51 C 593.959 1673.3 576.339 1671.02 551.725 1661.35 C 491.14 1636.94 440.3 1593.23 407.088 1536.99 C 398.218 1521.87 390.963 1505 383.977 1488.91 C 343.037 1474.31 309.764 1445.27 291.933 1405.61 C 288.618 1398.23 287.557 1390.65 284.625 1383.52 L 283.871 1381.73 C 284.194 1349.58 283.213 1317.5 283.819 1284.97 C 285.456 1283.22 285.666 1283.13 286.839 1281.2 z" fill="rgb(1,2,38)" transform="translate(0,0)"></path>
<metadata><recraft-signature>{"signed_by": "recraft", "signature_b64": "GpZkuLHEOn3X2hsgNhz0WrVcenXX1ThdDuGOy92aPPT8wGSvA6OlpEGiS+ERoRZcs3ay9tfUYBTJBnYfL58rDA==", "signing_algo": "Ed25519", "generation_timestamp": 1772776363, "identifier": "e364b0bc-9848-4824-9227-3f3b86606f39"}</recraft-signature></metadata></svg>