<svg xmlns="http://www.w3.org/2000/svg" viewBox="0 0 1280 640" width="1280" height="640">
  <defs>
    <!-- Deep space gradient -->
    <linearGradient id="bg" x1="0%" y1="0%" x2="100%" y2="100%">
      <stop offset="0%" stop-color="#080810"/>
      <stop offset="100%" stop-color="#0d1520"/>
    </linearGradient>
    
    <!-- Azure blue -->
    <linearGradient id="azure" x1="0%" y1="0%" x2="0%" y2="100%">
      <stop offset="0%" stop-color="#0078d4"/>
      <stop offset="100%" stop-color="#005a9e"/>
    </linearGradient>
    
    <!-- Flame -->
    <linearGradient id="flame" x1="0%" y1="0%" x2="0%" y2="100%">
      <stop offset="0%" stop-color="#ffc857"/>
      <stop offset="100%" stop-color="#ff6b35"/>
    </linearGradient>
    
    <!-- Large glow behind rocket -->
    <radialGradient id="glow" cx="50%" cy="50%" r="50%">
      <stop offset="0%" stop-color="#0078d4" stop-opacity="0.2"/>
      <stop offset="70%" stop-color="#0078d4" stop-opacity="0.05"/>
      <stop offset="100%" stop-color="#0078d4" stop-opacity="0"/>
    </radialGradient>
    
    <!-- Cloud gradient -->
    <linearGradient id="cloudGrad" x1="0%" y1="0%" x2="0%" y2="100%">
      <stop offset="0%" stop-color="#3a86ff"/>
      <stop offset="100%" stop-color="#0078d4"/>
    </linearGradient>
  </defs>
  
  <!-- Background -->
  <rect width="1280" height="640" fill="url(#bg)"/>
  
  <!-- Stars (minimal) -->
  <g fill="white">
    <circle cx="100" cy="100" r="1" opacity="0.4"/>
    <circle cx="200" cy="500" r="1" opacity="0.3"/>
    <circle cx="400" cy="150" r="1.5" opacity="0.5"/>
    <circle cx="850" cy="80" r="1" opacity="0.4"/>
    <circle cx="1000" cy="200" r="1" opacity="0.3"/>
    <circle cx="1150" cy="120" r="1.5" opacity="0.5"/>
    <circle cx="1200" cy="500" r="1" opacity="0.4"/>
  </g>
  
  <!-- Sync arrows (left side) -->
  <g transform="translate(140, 280)" opacity="0.6">
    <path d="M0,20 L25,0 L25,12 L50,12 L50,28 L25,28 L25,40 Z" fill="#0078d4"/>
    <path d="M70,0 L70,12 L45,12 L45,28 L70,28 L70,40 L95,20 Z" fill="#ff6b35"/>
  </g>
  
  <!-- Cloud icon (right side) -->
  <g transform="translate(1050, 250)" opacity="0.6">
    <path d="M85,45 C85,45 90,20 70,15 C55,10 45,25 45,25 C45,25 30,20 20,30 C10,40 20,55 20,55 L80,55 C80,55 95,55 95,45 C95,35 85,35 85,45 Z" fill="url(#cloudGrad)" stroke="#0078d4" stroke-width="1"/>
    <!-- Sync symbol inside cloud -->
    <g transform="translate(35, 28)">
      <path d="M0,8 L8,0 L8,5 L18,5 L18,11 L8,11 L8,16 Z" fill="white" opacity="0.8"/>
      <path d="M25,8 L17,16 L17,11 L7,11 L7,5 L17,5 L17,0 Z" fill="white" opacity="0.8"/>
    </g>
  </g>
  
  <!-- Sync lines connecting rocket to cloud -->
  <g stroke="#0078d4" stroke-width="1" fill="none" opacity="0.3" stroke-dasharray="4,4">
    <path d="M750,280 Q900,200 1050,280"/>
    <path d="M750,320 Q900,350 1050,300"/>
  </g>
  
  <!-- Glow behind logo -->
  <ellipse cx="640" cy="260" rx="400" ry="300" fill="url(#glow)"/>
  
  <!-- Large centered A Negative Space Logo -->
  <g transform="translate(540, 130) scale(3.5)">
    <!-- Rocket body -->
    <path d="M30,5 C30,5 15,20 15,45 L15,65 L22,68 L22,62 L38,62 L38,68 L45,65 L45,45 C45,20 30,5 30,5 Z" fill="url(#azure)"/>
    <!-- Fins -->
    <polygon points="15,55 5,70 15,67" fill="url(#azure)"/>
    <polygon points="45,55 55,70 45,67" fill="url(#azure)"/>
    <!-- A cutout -->
    <path d="M30,15 L21,50 L24,50 L26,42 L34,42 L36,50 L39,50 Z M28,38 L30,22 L32,38 Z" fill="#080810"/>
    <!-- Flame -->
    <polygon points="22,68 30,90 38,68" fill="url(#flame)"/>
    <polygon points="24,68 30,85 36,68" fill="#ffc857"/>
  </g>
  
  <!-- Tagline -->
  <text x="680" y="500" font-family="Segoe UI, Arial, sans-serif" font-size="42" font-weight="bold" fill="white" text-anchor="middle" letter-spacing="3">STRAP A ROCKET TO YOUR BACK</text>
  
  <!-- Subtitle: Cloud Sync -->
  <text x="680" y="555" font-family="Segoe UI, Arial, sans-serif" font-size="24" fill="#888888" text-anchor="middle">
    <tspan fill="#888888">Sync Your </tspan><tspan fill="#0078d4" font-weight="bold">WISDOM</tspan><tspan fill="#888888"> Everywhere</tspan>
  </text>
  
  <!-- Premium feature badge -->
  <g transform="translate(1105, 85)">
    <rect x="0" y="0" width="130" height="28" rx="14" fill="#ff6b35" opacity="0.9"/>
    <text x="65" y="19" font-family="Segoe UI, Arial, sans-serif" font-size="12" font-weight="bold" fill="white" text-anchor="middle">CLOUD SYNC</text>
  </g>
  
  <!-- CorreaX mark bottom left -->
  <g transform="translate(30, 580) scale(1.0)" opacity="0.7">
    <path d="M16 2C8.268 2 2 8.268 2 16s6.268 14 14 14c3.866 0 7.389-1.568 9.928-4.1l-3.535-3.536A9.002 9.002 0 0116 25c-4.97 0-9-4.03-9-9s4.03-9 9-9c2.29 0 4.38.857 5.971 2.268l3.464-3.639C22.993 3.352 19.66 2 16 2z" fill="#0078d4"/>
    <path d="M20 10l-4 6 4 6h4l-4-6 4-6h-4z" fill="#0078d4"/>
    <path d="M24 10l4 6-4 6h4l4-6-4-6h-4z" fill="#0078d4" opacity="0.5"/>
  </g>
  <text x="68" y="608" font-family="Segoe UI, Arial, sans-serif" font-size="20" fill="#888888">CorreaX</text>
</svg>
