<svg xmlns="http://www.w3.org/2000/svg" viewBox="0 0 128 128" width="128" height="128">
  <defs>
    <!-- Deep space gradient -->
    <linearGradient id="bg" x1="0%" y1="0%" x2="100%" y2="100%">
      <stop offset="0%" stop-color="#080810"/>
      <stop offset="100%" stop-color="#0d1520"/>
    </linearGradient>
    
    <!-- Azure blue -->
    <linearGradient id="azure" x1="0%" y1="0%" x2="0%" y2="100%">
      <stop offset="0%" stop-color="#0d9488"/>
      <stop offset="100%" stop-color="#2dd4bf"/>
    </linearGradient>
    
    <!-- Flame -->
    <linearGradient id="flame" x1="0%" y1="0%" x2="0%" y2="100%">
      <stop offset="0%" stop-color="#f97316"/>
      <stop offset="100%" stop-color="#f97316"/>
    </linearGradient>
    
    <!-- Glow behind rocket -->
    <radialGradient id="glow" cx="50%" cy="45%" r="40%">
      <stop offset="0%" stop-color="#0d9488" stop-opacity="0.3"/>
      <stop offset="100%" stop-color="#0d9488" stop-opacity="0"/>
    </radialGradient>
  </defs>
  
  <!-- Background -->
  <rect width="128" height="128" fill="url(#bg)"/>
  
  <!-- Glow -->
  <ellipse cx="64" cy="55" rx="50" ry="45" fill="url(#glow)"/>
  
  <!-- Connection lines from nodes to center -->
  <g stroke="#0d9488" stroke-width="1" fill="none" opacity="0.5">
    <line x1="20" y1="25" x2="50" y2="45"/>
    <line x1="108" y1="25" x2="78" y2="45"/>
    <line x1="15" y1="80" x2="45" y2="70"/>
    <line x1="113" y1="80" x2="83" y2="70"/>
  </g>
  
  <!-- Project nodes (outer) -->
  <g opacity="0.8">
    <circle cx="20" cy="25" r="6" fill="#0d9488" opacity="0.3"/>
    <circle cx="20" cy="25" r="4" fill="#0d9488"/>
    <circle cx="108" cy="25" r="6" fill="#0d9488" opacity="0.3"/>
    <circle cx="108" cy="25" r="4" fill="#0d9488"/>
    <circle cx="15" cy="80" r="6" fill="#0d9488" opacity="0.3"/>
    <circle cx="15" cy="80" r="4" fill="#0d9488"/>
    <circle cx="113" cy="80" r="6" fill="#0d9488" opacity="0.3"/>
    <circle cx="113" cy="80" r="4" fill="#0d9488"/>
  </g>
  
  <!-- A Negative Space Rocket (centered) -->
  <g transform="translate(34, 20) scale(1)">
    <!-- Rocket body -->
    <path d="M30,5 C30,5 15,20 15,45 L15,65 L22,68 L22,62 L38,62 L38,68 L45,65 L45,45 C45,20 30,5 30,5 Z" fill="url(#azure)"/>
    <!-- Fins -->
    <polygon points="15,55 5,70 15,67" fill="url(#azure)"/>
    <polygon points="45,55 55,70 45,67" fill="url(#azure)"/>
    <!-- A cutout -->
    <path d="M30,15 L21,50 L24,50 L26,42 L34,42 L36,50 L39,50 Z M28,38 L30,22 L32,38 Z" fill="#080810"/>
    <!-- Flame -->
    <polygon points="22,68 30,85 38,68" fill="url(#flame)"/>
    <polygon points="24,68 30,82 36,68" fill="#f97316"/>
  </g>
</svg>
