<svg xmlns="http://www.w3.org/2000/svg" height="1024" preserveAspectRatio="none" style="display: block;" version="1.1" viewBox="0 0 2048 2048" width="1024">
<path d="M 0 0 L 2048 0 L 2048 2048 L 0 2048 L 0 0 z" fill="rgb(255,255,255)" transform="translate(0,0)"></path>
<path d="M 683.971 273.495 L 1197.73 273.383 L 1360.26 273.474 C 1411.45 273.669 1453.56 270.275 1503.92 282.034 C 1572.15 297.967 1626.68 328.574 1676.26 377.854 C 1731.32 433.441 1766.41 505.714 1776.03 583.364 C 1779.14 610.335 1778.46 639.278 1778.53 666.591 L 1778.75 1215.27 L 1778.54 1366.82 C 1778.42 1407.96 1779.95 1457.82 1771.24 1497.69 C 1756.49 1564.19 1723.18 1625.14 1675.18 1673.46 C 1616.81 1732.8 1539.05 1769.19 1456.09 1775.97 C 1431.44 1778.08 1396.12 1777.22 1370.5 1777.23 L 833.192 1776.97 L 688.275 1777.03 C 643.523 1777.13 598.368 1779.76 554.573 1770.36 C 487.248 1756.39 425.421 1723.18 376.591 1674.77 C 310.365 1608.92 273.098 1519.4 273.029 1426 L 273.144 862.884 L 273.021 702.108 C 272.978 650.255 269.811 596.537 281.504 546.11 C 296.694 480.995 330.075 421.538 377.758 374.666 C 430.403 321.874 507.241 283.236 581.42 275.767 C 612.702 272.617 651.846 273.546 683.971 273.495 z" fill="rgb(37,15,119)" transform="translate(0,0)"></path>
<path d="M 734.829 479.5 L 1424.42 479.246 C 1470.11 479.301 1500.96 488.439 1533.87 521.208 C 1572.19 559.36 1571.18 599.819 1571.33 649.187 L 1571.31 731.721 L 1571.06 1021.41 C 1517.51 986.37 1455.98 965.421 1392.18 960.504 C 1391.83 938.108 1392.1 914.951 1392.09 892.5 L 1392.29 778.124 C 1392.21 745.665 1397.35 709.09 1373.42 683.79 C 1349.29 658.272 1320.18 662.921 1288.2 663.103 L 1205.72 663.537 C 1104.88 663.885 1001.19 664.653 900.455 663.389 C 783.414 579.043 626.266 565.124 497.052 631.528 C 491.292 634.488 485.595 637.622 479.901 640.709 C 479.706 635.688 479.611 630.663 479.615 625.638 C 479.341 570.813 496.049 532.791 541.885 501.366 C 577.872 476.692 611.994 479.78 653.09 479.751 L 734.829 479.5 z" fill="rgb(255,255,255)" transform="translate(0,0)"></path>
<path d="M 987.688 1204.95 C 986.355 1212.62 974.679 1244.47 971.8 1255.56 C 941.734 1371.41 962 1469.13 1019.07 1570.84 L 735.255 1571.01 L 655.686 1571.04 C 600.702 1571.06 570.387 1573.63 525.773 1536.29 C 523.261 1534.04 520.818 1531.72 518.448 1529.32 C 478.115 1488.03 479.654 1449.1 479.287 1396.53 C 479.059 1370.67 479.05 1344.8 479.26 1318.94 C 498.997 1327.62 514.502 1336.52 535.24 1344.6 C 598.422 1368.63 666.773 1375.77 733.556 1365.33 C 840.855 1348.64 924.448 1291.6 987.688 1204.95 z" fill="rgb(255,255,255)" transform="translate(0,0)"></path>
<path d="M 1096.6 809.508 L 1158.63 808.95 C 1183.14 808.868 1204.54 809.748 1222.96 828.552 C 1247.67 853.765 1244.36 885.943 1244.32 918.144 L 1244.33 975.319 C 1181.48 993.388 1124.23 1027.08 1077.92 1073.25 C 1057.36 1093.4 1042.83 1111.28 1026.94 1134.96 C 1034.36 1113.16 1043.51 1091.92 1048.94 1069.24 C 1063.13 1010.02 1062.5 942.674 1048.18 883.529 C 1042.38 859.608 1031.86 832.018 1023 809.533 C 1046.64 810.178 1072.77 809.597 1096.6 809.508 z" fill="rgb(255,255,255)" transform="translate(0,0)"></path>
<metadata><recraft-signature>{"signed_by": "recraft", "signature_b64": "fVCgNlgHbXcke2AW33HHEint3lZsRwRx8b42lr2kwyGwb1GkcfkOYNeb2zutWa8K7/CNEPAeBYOe2VcKXYPCBA==", "signing_algo": "Ed25519", "generation_timestamp": 1772774655, "identifier": "fcf231f5-bddc-46a4-8d55-ddc58d7d4511"}</recraft-signature></metadata></svg>