<svg xmlns="http://www.w3.org/2000/svg" height="1024" preserveAspectRatio="none" style="display: block;" version="1.1" viewBox="0 0 2048 2048" width="1024">
<path d="M 0 0 L 2048 0 L 2048 2048 L 0 2048 L 0 0 z" fill="rgb(255,255,255)" transform="translate(0,0)"></path>
<path d="M 613.833 282.459 C 674.164 281.226 738.176 282.351 798.758 282.394 L 1167.03 282.65 L 1359.02 282.478 C 1404.52 282.558 1455.47 279.906 1499.6 288.824 C 1562.98 301.705 1621.4 332.296 1668.08 377.047 C 1731.49 438.156 1767.92 522.024 1769.3 610.075 C 1770.87 680.891 1769.43 754.983 1769.3 826.14 L 1769.51 1167.92 L 1769.6 1351.04 C 1769.63 1399.57 1772.31 1456.23 1762.56 1502.91 C 1749.82 1564.27 1719.88 1620.75 1676.24 1665.74 C 1613.81 1730.06 1528.38 1766.93 1438.75 1768.24 L 844.683 1768.07 L 696.121 1768.2 C 645.834 1768.5 600.134 1770.98 550.408 1761.78 C 400.643 1734.08 285.986 1600.71 282.717 1448.09 C 281.328 1383.22 282.066 1318.13 282.042 1253.28 L 282.019 894.485 L 282.042 702.557 C 282.048 655.094 279.507 593.85 288.87 548.558 C 301.192 489.628 329.543 435.244 370.799 391.398 C 435.735 322.006 519.014 285.559 613.833 282.459 z" fill="rgb(33,21,169)" transform="translate(0,0)"></path>
<path d="M 1370.13 605.33 C 1372.81 610.098 1371.05 1102.28 1371.04 1136.48 C 1250.58 1159.02 1142.9 1225.75 1069.1 1323.59 L 1068.36 1323.16 C 1067.49 1318.86 1068.02 1292.67 1068.05 1287.06 L 1068.46 1201.79 L 1068.69 957.348 L 1068.56 891.689 C 1068.5 881.709 1067.75 855.472 1069.71 847.173 C 1073.29 832.034 1089.88 803.122 1098.58 789.592 C 1162.64 689.882 1255.63 630.534 1370.13 605.33 z" fill="rgb(255,255,255)" transform="translate(0,0)"></path>
<path d="M 679.581 604.818 C 765.945 626.875 835.382 658.654 899.993 723.835 C 931.25 755.368 965.602 804.051 980.247 846.876 C 982.424 853.241 981.903 893.443 981.931 902.896 L 981.867 1018.21 L 981.709 1211.28 C 981.77 1248.86 982.516 1288.39 981.662 1325.84 C 966.973 1310.03 955.101 1292.59 938.784 1276.15 C 862.583 1199.38 784.525 1159.24 679.747 1136.57 C 678.635 1078.52 679.822 1016.57 679.821 958.17 L 679.581 604.818 z" fill="rgb(255,255,255)" transform="translate(0,0)"></path>
<path d="M 372.421 664.483 C 394.27 663.64 420.942 663.668 442.645 664.865 L 442.92 1354.73 C 542.235 1355.51 622.018 1364.77 714.015 1402.52 C 800.594 1438.04 867.138 1490.29 931.582 1557.31 C 937.608 1563.58 959.679 1583.73 962.254 1589.8 C 830.621 1482.62 662.297 1434.31 494.773 1429.17 C 453.931 1427.92 413.405 1428.62 372.593 1428.13 C 371.353 1396.75 372.238 1358.12 372.205 1326.21 L 372.145 1133.3 C 372.139 977.87 370.613 819.628 372.421 664.483 z" fill="rgb(255,255,255)" transform="translate(0,0)"></path>
<path d="M 1610.79 664.973 C 1633.2 664.181 1655.62 663.967 1678.03 664.333 L 1678.03 1428.72 C 1616.73 1428.14 1552.4 1427.55 1491.29 1432.91 C 1390.53 1441.67 1292.32 1469.36 1201.82 1514.54 C 1174.4 1528.03 1118.33 1560.15 1096.2 1581.17 L 1094 1579.51 C 1123.12 1549.68 1150.82 1519.99 1182.69 1492.84 C 1269.22 1419.15 1381.22 1375.42 1493.21 1360.47 C 1529.7 1355.59 1573.07 1354.85 1610.04 1354.14 L 1610.79 664.973 z" fill="rgb(255,255,255)" transform="translate(0,0)"></path>
<path d="M 1457 737.568 C 1479.53 732.31 1501.28 726.728 1524.26 723.838 L 1524.39 1270.15 C 1363.14 1279.49 1210.44 1345.76 1093.48 1457.16 L 1091.07 1453.85 C 1099.36 1437.77 1108.84 1419.42 1118.77 1404.34 C 1172.08 1323.39 1244.07 1263.95 1337.1 1235.02 C 1384.33 1220.33 1408.81 1217.59 1456.8 1213.02 L 1457 737.568 z" fill="rgb(255,255,255)" transform="translate(0,0)"></path>
<path d="M 527.969 723.779 C 550.489 726.712 570.838 731.711 592.914 736.73 L 593.105 1214.01 C 652.268 1218.42 694.165 1225.12 749.256 1248.47 C 825.478 1280.79 887.056 1335.62 930.594 1405.77 C 941.335 1423.08 954.665 1445.24 962.133 1464.17 C 958.403 1461.16 947.236 1450.21 943.104 1446.47 C 928.166 1432.93 914.833 1421.52 898.783 1409.41 C 783.361 1322.36 670.309 1284.1 528.067 1269.82 L 527.969 723.779 z" fill="rgb(255,255,255)" transform="translate(0,0)"></path>
<path d="M 1445.74 424.469 C 1448.71 424.018 1447.61 423.893 1450.44 424.733 C 1451.47 430.872 1450.97 445.473 1450.95 452.414 L 1450.87 502.948 C 1447.51 503.172 1444.15 503.414 1440.79 503.673 C 1334.01 511.975 1220.03 553.026 1135.41 619.331 C 1104.11 643.852 1077.79 671.276 1052.05 701.383 L 1049.7 703.342 C 1049.44 698.978 1055.43 687.787 1057.66 683.297 C 1076.61 644.648 1100.55 608.657 1128.88 576.246 C 1211.08 480.629 1321.76 433.929 1445.74 424.469 z" fill="rgb(255,255,255)" transform="translate(0,0)"></path>
<path d="M 600.061 424.761 C 640.205 425.581 692.54 435.976 730.313 448.899 C 822.445 480.057 901.679 540.822 955.664 621.722 C 972.615 647.341 983.855 670.427 997.318 697.861 L 995.487 700.435 C 991.31 694.482 985.51 687.435 980.602 681.941 C 884.131 573.95 742.774 512.522 600.126 502.757 C 599.598 477.307 600.05 450.327 600.061 424.761 z" fill="rgb(255,255,255)" transform="translate(0,0)"></path>
<path d="M 1576.09 546.581 C 1584.88 545.802 1595 545.726 1603.92 545.455 L 1603.8 624.889 C 1559.38 626.305 1523.95 629.565 1480.56 638.183 C 1472.83 639.917 1464.88 642.123 1457.2 644.138 C 1456.9 618.274 1457.66 590.665 1457.92 564.668 C 1489.72 554.444 1543.08 548.576 1576.09 546.581 z" fill="rgb(255,255,255)" transform="translate(0,0)"></path>
<path d="M 447.311 545.264 C 496.222 546.824 544.878 552.981 592.636 563.653 L 592.477 642.742 C 553.871 632.266 487.377 625.577 447.462 624.734 C 446.507 599.698 447.19 570.469 447.311 545.264 z" fill="rgb(255,255,255)" transform="translate(0,0)"></path>
<path d="M 1093.48 1457.16 C 1084.76 1466.37 1086.84 1462.49 1091.07 1453.85 L 1093.48 1457.16 z" fill="rgb(237,228,251)" transform="translate(0,0)"></path>
<path d="M 1094 1579.51 L 1096.2 1581.17 C 1094.15 1583.07 1092.42 1584.44 1090.38 1586.45 L 1088.75 1585.88 C 1090.56 1583.75 1092.16 1581.63 1094 1579.51 z" fill="rgb(201,190,244)" transform="translate(0,0)"></path>
<path d="M 997.318 697.861 C 997.754 698.868 999.91 703.143 999.5 704.304 L 999.342 704.445 C 998.098 704.352 996.123 701.241 995.487 700.435 L 997.318 697.861 z" fill="rgb(237,228,251)" transform="translate(0,0)"></path>
<path d="M 1088.75 1585.88 L 1090.38 1586.45 C 1089.76 1587.05 1088.33 1588.91 1087.16 1588.57 C 1086.7 1587.54 1088.15 1586.5 1088.75 1585.88 z" fill="rgb(143,126,235)" transform="translate(0,0)"></path>
<metadata><recraft-signature>{"signed_by": "recraft", "signature_b64": "YFmH6dixLArJqgSDnyKBrFaDqMq5dGtaN+bQFVPf7YasyOtEz0kbD1wLUcQuSeOFWZ2GHyyRoU0uV7aheUhIAg==", "signing_algo": "Ed25519", "generation_timestamp": 1772774674, "identifier": "40ac4348-d704-4f7c-8e23-ec6f23e65406"}</recraft-signature></metadata></svg>