<svg xmlns="http://www.w3.org/2000/svg" height="1024" preserveAspectRatio="none" style="display: block;" version="1.1" viewBox="0 0 2048 2048" width="1024">
<path d="M 0 0 L 2048 0 L 2048 2048 L 0 2048 L 0 0 z" fill="rgb(255,255,255)" transform="translate(0,0)"></path>
<path d="M 363.164 863.971 C 334.371 855.777 313.649 842.127 301.351 813.684 C 297.296 804.261 294.723 794.266 293.727 784.055 C 292.066 767.636 292.992 728.513 293.156 710.453 C 293.513 671.057 290.799 621.96 296.03 583.679 C 299.715 557.421 306.527 531.697 316.319 507.056 C 352.033 418.824 421.71 348.648 509.684 312.306 C 542.363 298.476 576.995 289.816 612.336 286.634 C 634.68 284.574 655.938 284.933 678.333 284.926 L 757.537 284.942 L 1017.08 284.953 L 1290.02 285 L 1376.75 284.999 C 1399.69 285.011 1422.05 284.661 1444.93 286.593 C 1481.08 289.593 1516.57 298.066 1550.18 311.724 C 1635.84 347.524 1703.84 415.778 1739.32 501.567 C 1753.25 534.871 1769.2 593.384 1754.62 627.882 C 1746.87 646.138 1732.2 660.575 1713.82 668.026 C 1694.95 675.706 1673.78 675.464 1655.09 667.356 C 1603.52 645.096 1619.57 595.891 1601.27 553.494 C 1578.33 500.34 1538.75 462.09 1485.83 439.683 C 1492.66 447.371 1500.27 459.09 1505.89 467.927 C 1534.6 512.49 1551.91 563.434 1556.28 616.265 C 1558.29 639.056 1557.19 670.848 1557.51 694.323 C 1557.98 728.025 1560.85 759.997 1535.17 785.454 C 1521.39 798.983 1502.79 806.476 1483.47 806.281 C 1449.77 805.546 1420.72 782.362 1412.52 749.66 C 1408.91 734.734 1410.37 717.055 1410.23 701.586 C 1409.94 669.247 1411.89 638.954 1405.39 606.957 C 1395.96 560.578 1376.41 527.939 1344.19 494.329 C 1343.52 493.561 1343.39 493.39 1342.55 492.585 C 1304.93 456.548 1254.74 436.595 1202.64 436.963 C 1108.79 436.395 1028.35 492.628 995.55 580.756 C 984.468 610.526 981.99 634.05 981.936 665.471 L 981.917 901.89 C 981.816 961.324 981.183 1021.74 981.787 1081.13 L 1410.04 1081.48 L 1409.96 1006.76 C 1409.92 989.363 1408.73 962.513 1412.7 946.553 C 1415.83 933.689 1422.43 921.926 1431.76 912.539 C 1459.77 884.634 1507.06 884.222 1534.64 912.907 C 1544.7 923.437 1551.73 936.487 1554.99 950.68 C 1557.91 963.41 1557.32 977.918 1557.29 991.024 C 1557.18 1036.5 1557.53 1081.99 1557.11 1127.46 C 1556.84 1156.03 1547.09 1182.6 1526.04 1202.31 C 1511.77 1215.6 1494.06 1224.61 1474.92 1228.31 C 1461.09 1230.85 1436.71 1230.12 1421.89 1230.11 L 1339.39 1230 L 1208.95 1230.22 C 1186.04 1230.34 1161.66 1231.17 1138.9 1230.5 L 1139.14 1421.9 C 1139.09 1444.94 1140.3 1492.56 1138.14 1514.43 C 1176.11 1547.74 1218.26 1583.75 1257.02 1616.3 C 1310.9 1601.82 1355.28 1569.07 1383.13 1520.44 C 1397.38 1495.62 1406.09 1468.02 1408.67 1439.52 C 1412.56 1396.82 1398.35 1355.16 1430.01 1321.52 C 1439.04 1311.79 1450.61 1304.8 1463.42 1301.33 C 1481.98 1296.24 1502.58 1297.98 1519.38 1307.7 C 1536.77 1317.76 1549.41 1334.37 1554.46 1353.81 C 1558.73 1370.52 1556.46 1388.56 1557.03 1405.45 C 1559.35 1474.37 1542.98 1534.99 1507.11 1594.23 L 1503.15 1600.71 C 1515.79 1592.67 1528.98 1584.26 1540.49 1575.11 C 1572.08 1550 1602.62 1507.22 1610.18 1466.81 C 1616.62 1432.38 1612.16 1398.57 1647.68 1375.41 C 1663.96 1364.75 1683.84 1361.06 1702.85 1365.19 C 1721.37 1369.24 1738.73 1382.82 1748.9 1398.6 C 1763.64 1421.54 1761.75 1446.71 1758.69 1472.5 C 1739.81 1631.41 1597.1 1758.2 1438.46 1765.56 C 1384.27 1768.07 1327.61 1764.53 1273.21 1766.05 C 1262.3 1766.35 1250.16 1765.93 1239.28 1764.91 C 1229.37 1767.08 1195.36 1765.2 1183.79 1765.19 L 1063.86 1765.54 L 972.289 1765.86 C 953.873 1765.89 930.242 1767.21 912.626 1763.82 C 854.4 1752.62 835.384 1677.6 876.705 1637.08 C 898.828 1615.39 919.091 1616.49 947.94 1616.6 L 990.256 1616.71 C 990.576 1602.86 990.169 1587.64 990.074 1573.7 C 977.57 1560.44 942.496 1533.02 926.999 1519.72 C 873.725 1473.95 820.074 1428.63 766.05 1383.75 L 568.035 1217.23 C 527.079 1182.57 480.682 1141.96 438.798 1109.38 C 439.73 1121.53 440.748 1142.85 439.004 1154.38 C 436.007 1172.97 425.817 1189.64 410.633 1200.78 C 394.534 1212.63 373.208 1217.3 353.552 1214.23 C 335.101 1211.42 318.51 1201.43 307.403 1186.43 C 300.527 1176.91 296.076 1165.85 294.436 1154.21 C 292.599 1141.99 293.159 1126.12 293.202 1113.46 L 293.268 1056.03 L 293.269 997.013 C 293.277 987.659 292.916 970.247 294.276 961.385 C 292.156 909.928 313.033 878.937 363.164 863.971 z" fill="rgb(39,30,152)" transform="translate(0,0)"></path>
<path d="M 443.427 927.09 C 476.727 897.133 523.157 875.497 567.596 869.556 C 584.574 867.287 606.902 867.838 624.555 867.807 C 652.76 867.91 680.965 867.74 709.167 867.296 L 710.607 867.868 C 714.49 869.369 720.032 870.85 724.16 872.102 C 749.704 879.85 775.352 908.28 775.982 935.838 C 777.341 995.255 776.707 1055.93 776.137 1115.47 C 775.826 1147.91 780.651 1166.57 764.075 1196.21 C 726.374 1162.47 680.113 1125.3 641.092 1092.84 C 604.633 1062.78 567.161 1032.79 531.92 1001.33 C 504.689 979.796 469.352 950.361 443.427 927.09 z" fill="rgb(252,61,109)" transform="translate(0,0)"></path>
<path d="M 531.92 1001.33 C 564.603 1000.18 606.992 1002.84 640.817 1002.95 L 641.092 1092.84 C 604.633 1062.78 567.161 1032.79 531.92 1001.33 z" fill="rgb(255,255,255)" transform="translate(0,0)"></path>
<path d="M 709.167 867.296 C 750.018 866.169 797.584 866.666 838.59 867.4 L 838.731 1045.09 C 838.623 1067.85 836.653 1131.13 840.891 1150.17 C 845.314 1170.02 855.368 1188.17 869.849 1202.46 C 904.503 1236.57 945.268 1230.29 990.946 1230.19 L 990.788 1387.31 C 985.476 1383.9 973.054 1373.04 967.994 1368.77 L 919.455 1327.28 L 764.075 1196.21 C 780.651 1166.57 775.826 1147.91 776.137 1115.47 C 776.707 1055.93 777.341 995.255 775.982 935.838 C 775.352 908.28 749.704 879.85 724.16 872.102 C 720.032 870.85 714.49 869.369 710.607 867.868 L 709.167 867.296 z" fill="rgb(255,255,255)" transform="translate(0,0)"></path>
<path d="M 990.074 1573.7 C 1057.66 1627.71 1120.75 1691.76 1189.18 1744.86 C 1201.28 1754.26 1224.3 1761.59 1239.28 1764.91 C 1229.37 1767.08 1195.36 1765.2 1183.79 1765.19 L 1063.86 1765.54 L 972.289 1765.86 C 953.873 1765.89 930.242 1767.21 912.626 1763.82 C 854.4 1752.62 835.384 1677.6 876.705 1637.08 C 898.828 1615.39 919.091 1616.49 947.94 1616.6 L 990.256 1616.71 C 990.576 1602.86 990.169 1587.64 990.074 1573.7 z" fill="rgb(254,233,10)" transform="translate(0,0)"></path>
<path d="M 990.946 1230.19 C 1036.66 1230.14 1093.91 1228.45 1138.9 1230.5 L 1139.14 1421.9 C 1139.09 1444.94 1140.3 1492.56 1138.14 1514.43 C 1123.75 1499.91 1097.01 1478.55 1080.63 1464.76 C 1050.24 1439.47 1020.29 1413.64 990.788 1387.31 L 990.946 1230.19 z" fill="rgb(254,233,10)" transform="translate(0,0)"></path>
<path d="M 294.276 961.385 C 305.193 1004.88 326.378 1014.77 358.762 1042.22 C 384.073 1063.68 415.79 1086.11 438.798 1109.38 C 439.73 1121.53 440.748 1142.85 439.004 1154.38 C 436.007 1172.97 425.817 1189.64 410.633 1200.78 C 394.534 1212.63 373.208 1217.3 353.552 1214.23 C 335.101 1211.42 318.51 1201.43 307.403 1186.43 C 300.527 1176.91 296.076 1165.85 294.436 1154.21 C 292.599 1141.99 293.159 1126.12 293.202 1113.46 L 293.268 1056.03 L 293.269 997.013 C 293.277 987.659 292.916 970.247 294.276 961.385 z" fill="rgb(254,233,10)" transform="translate(0,0)"></path>
<path d="M 632.316 433.413 C 640.449 432.469 657.214 432.88 665.826 432.893 L 726.982 432.997 L 918.841 433.066 C 905.962 451.909 891.943 469.304 880.725 489.417 C 866.75 514.473 857.423 540.677 849.841 568.224 C 836.175 617.876 838.935 669.294 839.019 720.264 L 726.5 720.316 L 566.896 720.382 C 525.484 720.519 481.755 721.383 440.546 720.126 C 439.645 702.868 441.157 683.982 439.953 667.282 C 431.231 546.28 505.355 444.02 632.316 433.413 z" fill="rgb(255,255,255)" transform="translate(0,0)"></path>
<path d="M 623.81 493.862 C 669.021 488.232 710.198 520.417 715.656 565.649 C 721.113 610.881 688.773 651.935 643.52 657.221 C 598.511 662.478 557.724 630.349 552.295 585.359 C 546.867 540.37 578.842 499.461 623.81 493.862 z" fill="rgb(254,233,10)" transform="translate(0,0)"></path>
<path d="M 363.002 1298.37 C 377.206 1297.15 395.271 1301.33 406.795 1309.64 C 439.933 1333.51 440.863 1361.05 440.137 1398.23 C 439.684 1421.46 439.325 1453.21 443.448 1475.39 C 449.45 1507.68 467.137 1538.13 489.178 1561.78 C 514.949 1589.43 557.253 1611.95 595.009 1615.86 C 624.011 1618.86 660.737 1616.39 690.601 1616.99 C 712.515 1616.65 731.294 1616.45 750.236 1629.17 C 783.248 1651.33 791.464 1699.43 768.849 1731.92 C 754.469 1752.57 737.707 1761.38 713.351 1765.95 C 677.689 1767.35 633.359 1766.99 597.989 1764.79 C 448.583 1755.53 315.631 1634.04 295.597 1485.24 C 291.892 1457.73 293.557 1428.15 293.011 1400.41 C 290.643 1349.97 307.031 1304.97 363.002 1298.37 z" fill="rgb(39,30,152)" transform="translate(0,0)"></path>
<path d="M 1684.66 757.381 C 1721.81 755.527 1753.52 780.588 1759.25 817.103 C 1762.42 837.357 1761 865.397 1761.01 886.168 L 1761.03 1007.55 L 1761.01 1142.41 C 1761.01 1165.97 1762.11 1191.48 1760.04 1214.78 C 1756.67 1252.7 1729.54 1274.84 1693.83 1279.97 C 1647.14 1281.37 1615.53 1250.83 1615.78 1204.4 C 1615.9 1183.2 1615.55 1161.52 1615.52 1140.29 L 1615.72 984.079 L 1615.61 876.333 C 1615.57 845.1 1610.74 807.941 1632.58 782.882 C 1646.73 766.647 1663.58 759.465 1684.66 757.381 z" fill="rgb(252,61,109)" transform="translate(0,0)"></path>
<path d="M 1188.24 731.382 C 1195.56 730.928 1202.91 731.713 1209.97 733.703 C 1248.47 744.496 1264.01 788.632 1282.54 820.577 C 1297.19 845.855 1310.78 872.246 1325.47 897.641 C 1340.99 924.487 1356.38 949.344 1346.87 981.257 C 1341.7 998.257 1329.96 1012.49 1314.25 1020.81 C 1291.83 1032.81 1261.39 1031.02 1240.66 1016.26 C 1225.4 1005.39 1217.96 990.023 1209.69 973.886 L 1193.34 942.404 L 1192.67 941.573 C 1177.74 948.973 1171.28 1020.98 1112.58 1028.29 C 1093.43 1030.74 1074.11 1025.29 1059.07 1013.18 C 1038.45 996.684 1027.52 966.579 1036.11 940.903 C 1041.55 924.649 1051.64 908.372 1060.09 893.337 C 1068.94 877.607 1077.67 861.802 1086.26 845.923 C 1096.99 826.198 1108.27 805.719 1118.44 785.723 C 1134.19 754.771 1152 734.674 1188.24 731.382 z" fill="rgb(252,61,109)" transform="translate(0,0)"></path>
<path d="M 583.958 1319.37 C 618.074 1315.27 635.841 1337.35 659.759 1357.13 C 681.11 1375.24 703.694 1393.76 724.924 1411.86 C 744.722 1428.73 760.261 1440.59 764.255 1467.66 C 770.625 1510.82 740.568 1544.39 700.189 1551.05 C 678.835 1551.66 663.763 1549.34 646.349 1535.52 C 616.726 1511.81 588.474 1486.27 559.317 1461.95 C 538.526 1444.6 520.463 1431.02 516.451 1402.6 C 513.657 1382.87 519.028 1362.84 531.326 1347.16 C 544.813 1329.77 562.699 1322.03 583.958 1319.37 z" fill="rgb(254,233,10)" transform="translate(0,0)"></path>
<path d="M 1202.64 436.963 C 1254.74 436.595 1304.93 456.548 1342.55 492.585 C 1343.39 493.39 1343.52 493.561 1344.19 494.329 C 1304.01 536.579 1262.81 577.653 1222.08 619.387 C 1203.67 638.247 1188.57 652.601 1160.48 652.698 C 1141.25 652.764 1121.83 643.622 1108.53 629.996 C 1095.2 616.238 1087.9 597.741 1088.24 578.589 C 1088.94 542.811 1116.44 523.123 1139.66 499.667 C 1160.39 478.504 1181.39 457.601 1202.64 436.963 z" fill="rgb(252,61,109)" transform="translate(0,0)"></path>
<path d="M 1267.8 1301.69 C 1310.78 1298.33 1348.3 1330.51 1351.54 1373.5 C 1354.77 1416.48 1322.47 1453.91 1279.48 1457.01 C 1236.67 1460.1 1199.43 1427.97 1196.21 1385.17 C 1193 1342.37 1225.01 1305.04 1267.8 1301.69 z" fill="rgb(252,61,109)" transform="translate(0,0)"></path>
<metadata><recraft-signature>{"signed_by": "recraft", "signature_b64": "NA55ALxyF9zLLDClg6s29slTs2y/eRTiJwGRI4hGcC+cl49qJcBG8Cz+qDQMkM7SSe0fDWwettuwpLRQT6c5Bg==", "signing_algo": "Ed25519", "generation_timestamp": 1772774694, "identifier": "f726612f-246c-43d2-a042-d992ea92830e"}</recraft-signature></metadata></svg>