<svg xmlns="http://www.w3.org/2000/svg" height="1024" preserveAspectRatio="none" style="display: block;" version="1.1" viewBox="0 0 2048 2048" width="1024">
<path d="M 0 0 L 2048 0 L 2048 2048 L 0 2048 L 0 0 z" fill="rgb(251,251,252)" transform="translate(0,0)"></path>
<path d="M 288.336 857.741 C 287.176 805.208 288.304 752.235 287.989 699.673 C 287.796 667.532 287.002 633.764 288.622 601.848 C 297.384 429.221 442.305 292.049 615.068 291.042 C 682.996 290.646 751.433 290.892 819.563 290.975 L 1164.82 290.966 L 1340.9 290.874 C 1397.31 290.835 1451.15 287.518 1506.38 299.307 C 1565.37 311.846 1619.62 340.803 1662.87 382.837 C 1727.03 444.347 1763.8 529.032 1764.96 617.901 C 1766.36 680.683 1765.12 748.055 1765.1 811.155 L 1765.12 1166.42 L 1765.06 1344.83 C 1765.08 1392.4 1767.54 1447.27 1758.04 1493.46 C 1745.55 1556.3 1715.28 1614.22 1670.82 1660.35 C 1609.23 1723.94 1524.72 1760.19 1436.2 1760.98 C 1373.03 1762.02 1306.9 1761.07 1243.45 1761.04 L 878.4 1761.07 L 698.124 1761.01 C 668.431 1761 638.198 1761.59 608.531 1760.65 C 526.866 1758.08 448.418 1725.68 389.521 1668.91 C 323.335 1605.11 288.422 1517.47 288.164 1425.96 C 287.939 1346.55 287.984 1267.12 288.021 1187.7 C 389.638 1288.79 532.798 1361.34 675.521 1378.35 C 666.859 1361.36 660.343 1346.49 652.344 1329.53 C 481.028 1296.41 344.581 1188.69 243.921 1049.46 C 221.179 1018.01 245.269 993.424 263.589 969.915 C 315.268 903.596 375.867 847.623 446.353 801.778 C 466.17 788.734 486.813 776.989 508.151 766.619 C 525.673 758.307 542.313 751.922 559.635 744.204 C 563.638 732.823 595.098 701.9 604.185 692.384 C 607.865 688.531 608.308 688.577 608.143 684.384 C 500.675 706.16 366.886 781.522 288.336 857.741 z" fill="rgb(33,13,125)" transform="translate(0,0)"></path>
<path d="M 608.143 684.384 C 626.305 680.196 655.632 675.513 674.05 673.635 C 667.352 689.455 661.814 705.174 656.191 721.402 C 621.753 724.706 592.203 733.215 559.635 744.204 C 563.638 732.823 595.098 701.9 604.185 692.384 C 607.865 688.531 608.308 688.577 608.143 684.384 z" fill="rgb(251,251,252)" transform="translate(0,0)"></path>
<path d="M 670.745 825.586 C 696.527 822.697 737.968 826.387 762.633 833.557 C 816.241 849.494 861.398 885.934 888.3 934.966 C 953.513 1055.42 871.735 1200.1 739.694 1220.36 C 696.809 1226.95 651.156 1221.04 609.759 1208.41 C 513.617 1176.97 433.114 1115.18 366.547 1040.28 C 362.133 1035.31 357.599 1030.41 353.132 1025.48 C 354.721 1023.28 356.387 1021.14 358.127 1019.05 C 432.644 929.895 550.996 836.456 670.745 825.586 z" fill="rgb(251,251,252)" transform="translate(0,0)"></path>
<path d="M 674.214 880.652 C 752.716 871.904 823.42 928.512 832.058 1007.02 C 840.696 1085.54 783.989 1156.16 705.464 1164.69 C 627.094 1173.2 556.639 1116.63 548.018 1038.27 C 539.397 959.917 595.869 889.382 674.214 880.652 z" fill="rgb(33,13,125)" transform="translate(0,0)"></path>
<path d="M 663.535 1050.44 C 653.024 1039.69 649.805 1023.77 655.315 1009.78 C 660.825 995.787 674.036 986.337 689.056 985.641 C 704.075 984.946 718.103 993.135 724.882 1006.56 C 733.371 1023.36 728.335 1043.84 713.023 1054.8 C 697.71 1065.75 676.697 1063.9 663.535 1050.44 z" fill="rgb(251,251,252)" transform="translate(0,0)"></path>
<path d="M 724.882 1006.56 C 733.371 1023.36 728.335 1043.84 713.023 1054.8 C 697.71 1065.75 676.697 1063.9 663.535 1050.44 C 678.647 1042.69 694.723 1040.68 709.637 1031.52 C 723.031 1023.29 719.605 1018.88 724.882 1006.56 z" fill="rgb(219,217,230)" transform="translate(0,0)"></path>
<path d="M 1011.91 764.407 C 1025.24 763.695 1038.62 764.088 1051.89 765.585 C 1185.12 779.791 1305 911.832 1289.99 1048 C 1281.34 1120.06 1244.63 1185.82 1187.83 1231 C 1124.12 1281.56 1041 1302.95 962.268 1276.94 C 952.247 1273.64 916.52 1259.7 910.849 1252.4 L 912.558 1250.24 C 926.42 1238.76 946.6 1215.2 957.332 1200.65 C 1005.16 1214.38 1042.1 1215.32 1089.81 1197.94 C 1184.37 1163.51 1235.83 1051.62 1197.68 957.447 C 1179.58 912.616 1144.43 876.802 1099.94 857.869 C 1057.09 839.834 1005.58 837.139 962.216 854.93 C 948.291 833.877 927.919 814.034 908.821 797.526 C 942.738 778.365 973.079 767.312 1011.91 764.407 z" fill="rgb(251,251,252)" transform="translate(0,0)"></path>
<path d="M 1007.21 396.425 C 1023.75 395.139 1048.33 396.451 1064.91 397.949 C 1158.07 406.434 1246.36 443.365 1317.82 503.732 C 1385.66 560.567 1440.06 648.093 1448.13 737.322 C 1422.75 716.511 1399.77 701.694 1369.87 688.133 C 1367.25 680.623 1360.92 668.167 1357.23 660.785 C 1327.51 601.322 1278.66 555.207 1222.16 521.264 C 1175.61 494.519 1124.16 477.413 1070.87 470.964 C 980.439 460.933 889.248 481.421 811.797 529.17 C 794.092 540.156 779.602 551.811 763.249 564.746 C 733.482 566.666 695.72 569.043 666.364 572.932 C 671.928 564.583 679.973 554.816 686.767 547.386 C 772.265 453.878 881.531 403.455 1007.21 396.425 z" fill="rgb(251,251,252)" transform="translate(0,0)"></path>
<path d="M 1444.83 1319.84 C 1446.02 1330.39 1439.48 1360.45 1436.54 1370.33 C 1384.16 1546.12 1201.86 1655.18 1024.84 1654.88 C 902.037 1654.72 784.469 1605.13 698.641 1517.3 C 686.892 1504.94 674.924 1492.2 664.336 1478.85 C 696.309 1481.46 728.363 1482.96 760.44 1483.35 C 790.42 1506.97 816.313 1525.1 850.65 1541.98 C 948.631 1590.16 1047.28 1598.04 1150.79 1562.39 C 1228.26 1535.71 1294.19 1488.64 1339.71 1419.85 C 1350.48 1403.57 1358.56 1386.73 1367.1 1369.26 C 1397.92 1353.41 1418.05 1343.43 1444.83 1319.84 z" fill="rgb(251,251,252)" transform="translate(0,0)"></path>
<path d="M 1263.87 1296.19 C 1265.13 1299.72 1264.04 1306.48 1263.78 1310.47 C 1260.95 1353.07 1239.83 1393.09 1205.75 1419.22 C 1077.19 1517.77 894.707 1492.41 793.339 1369.54 C 781.407 1354.29 773.015 1341.31 764.497 1324.05 C 783.951 1319.78 793.011 1316.98 811.452 1310.1 C 869.879 1359.5 939.706 1390.44 1017.02 1392.43 C 1108.76 1394.05 1197.44 1359.47 1263.87 1296.19 z" fill="rgb(251,251,252)" transform="translate(0,0)"></path>
<path d="M 1009.81 571.444 C 1105.2 564.303 1226.09 620.412 1261.99 715.496 C 1266.05 726.253 1267.66 745.163 1268.87 757.017 C 1206.45 698.109 1124.98 663.518 1039.25 659.517 C 1039.19 659.509 1039.13 659.501 1039.07 659.493 C 979.898 656.909 915.91 672.699 864.714 702.369 C 845.724 713.375 829.153 726.685 812.638 740.548 C 796.546 734.941 781.53 730.972 765.129 726.411 C 771.754 709.797 790.091 685.054 802.32 670.97 C 856.005 609.143 929.388 577.463 1009.81 571.444 z" fill="rgb(251,251,252)" transform="translate(0,0)"></path>
<path d="M 1349.34 395.118 C 1380.99 395.43 1415.39 394.508 1446.64 396.075 C 1505.69 398.647 1561.24 424.821 1600.82 468.724 C 1649.58 522.974 1661.17 581.608 1659.14 651.535 C 1658.57 671.09 1659.97 691.315 1658.88 711.358 C 1653.53 707.005 1632.26 681.857 1624.4 674.057 C 1588.16 638.108 1559.48 620.17 1515.77 596.061 C 1512.67 590.939 1507.92 580.321 1505.07 574.601 C 1499.31 563.013 1493.08 551.667 1486.39 540.592 C 1459.92 498.088 1427.26 459.777 1389.47 426.925 C 1376.56 415.858 1362.2 406.287 1349.34 395.118 z" fill="rgb(251,251,252)" transform="translate(0,0)"></path>
<path d="M 1658.57 1340.71 C 1661.33 1350.96 1658.65 1382.43 1659.1 1395.37 C 1660.85 1444.85 1657.41 1487.35 1634.05 1532.12 C 1625.1 1549.41 1614.05 1565.54 1601.15 1580.12 C 1560.34 1626.08 1502.37 1653.56 1441.12 1655.18 C 1410.81 1655.99 1379.6 1654.06 1349.56 1655.92 C 1349.87 1653.16 1355.61 1650.13 1358.21 1648.22 C 1425.03 1599.41 1482.7 1531.88 1514.76 1455.28 C 1579.41 1423.6 1612.57 1394.41 1658.57 1340.71 z" fill="rgb(251,251,252)" transform="translate(0,0)"></path>
<path d="M 1553.28 747.555 C 1557.94 751.107 1567.88 762.499 1571.93 767.394 C 1672.32 888.532 1690.11 1066.98 1621.07 1207.51 C 1611.5 1226.99 1599.75 1244.6 1587.61 1262.5 C 1576 1278.65 1565.64 1291.63 1551.84 1305.9 C 1552.13 1286.71 1554.5 1266.36 1554.81 1246.63 C 1555.16 1224.95 1553.25 1198.64 1555.75 1177.65 C 1556.45 1171.71 1566.31 1149.42 1568.91 1141.13 C 1580.26 1105.68 1586.34 1068.75 1586.95 1031.53 C 1587.24 991.426 1581.27 951.519 1569.25 913.252 C 1566.81 905.346 1556.15 878.767 1555.67 874.517 C 1553.95 859.129 1554.73 834.386 1554.78 818.245 C 1554.8 794.673 1554.3 771.105 1553.28 747.555 z" fill="rgb(251,251,252)" transform="translate(0,0)"></path>
<path d="M 394.029 1391.47 C 418.781 1406.5 442.693 1420.68 468.949 1432.87 C 490.816 1443.02 512.679 1450.68 534.673 1460.17 C 574.968 1543.45 626.628 1603 701.749 1655.79 L 688.649 1655.85 C 662.762 1655.89 622.878 1656.98 598.333 1654.69 C 545.098 1649.56 495.378 1625.82 457.918 1587.64 C 422.567 1551.76 400.571 1504.86 395.59 1454.73 C 393.475 1434.24 393.925 1412.18 394.029 1391.47 z" fill="rgb(251,251,252)" transform="translate(0,0)"></path>
<path d="M 614.109 395.441 C 642.427 394.75 672.194 395.375 700.652 395.456 C 626.254 444.545 570.638 513.186 533.239 593.577 C 505.444 601.71 475.215 615.687 449.321 628.419 C 434.246 635.538 406.986 649.832 393.707 659.273 C 393.377 584.833 398.427 529.195 451.646 469.509 C 492.913 423.228 552.427 398.079 614.109 395.441 z" fill="rgb(251,251,252)" transform="translate(0,0)"></path>
<path d="M 1373.07 808.766 C 1377.71 812.709 1382.31 816.695 1386.88 820.723 C 1440.04 867.951 1474.86 940.98 1478.88 1011.89 C 1483.23 1087.13 1457.41 1161.01 1407.13 1217.16 C 1395.78 1229.12 1385.07 1238.67 1372.74 1249.51 C 1372.97 1220.12 1371.91 1196.1 1366.01 1166.95 C 1383.8 1122.51 1394.77 1089.74 1397.2 1041.47 C 1400.2 981.982 1386.67 936.136 1364.17 882.361 C 1370.14 854.888 1371.42 836.752 1373.07 808.766 z" fill="rgb(251,251,252)" transform="translate(0,0)"></path>
<path d="M 1019.49 944.22 C 1024.36 943.866 1029.27 943.99 1034.12 944.591 C 1056.23 947.414 1076.31 958.944 1089.88 976.625 C 1102.59 993.063 1109.41 1016.19 1106.36 1036.77 C 1102.49 1062.93 1088.64 1079.13 1068.37 1094.32 C 1046.56 1108.06 1029.05 1111.11 1003.83 1106.89 C 1022.83 1054.9 1022.11 999.847 1007.28 946.887 C 1011.16 945.864 1015.53 945.049 1019.49 944.22 z" fill="rgb(251,251,252)" transform="translate(0,0)"></path>
<metadata><recraft-signature>{"signed_by": "recraft", "signature_b64": "+2HQDP6YKhNxkq+cW+6C3grQfc9dSwvdd7GILpoFaqHW+orNzNC+1DPcQOAw8x49tMaqRGlW+fWQ2QagO4iBBg==", "signing_algo": "Ed25519", "generation_timestamp": 1772774528, "identifier": "617e3f35-2aba-4d1d-8418-e4c143a9dace"}</recraft-signature></metadata></svg>