<svg xmlns="http://www.w3.org/2000/svg" viewBox="0 0 256 256" fill="none">
  <rect x="20" y="28" width="216" height="200" rx="48" fill="#171c3f"/>
  <path d="M20 86C20 53.98 45.98 28 78 28H178C210.02 28 236 53.98 236 86V110H20V86Z" fill="#6366f1" opacity="0.18"/>
  <rect x="20" y="28" width="216" height="200" rx="48" stroke="#9aa5ff" stroke-opacity="0.34" stroke-width="4"/>
  <path d="M128 82C99.28 82 76 104.53 76 132.33C76 153.89 89.98 172.27 110 179.1V154H94V133H110V118C110 102.54 118.95 94 132.66 94C139.22 94 146 95.16 146 95.16V110H138.49C131.09 110 128 114.42 128 118.95V133H145.33L142.56 154H128V179.1C148.02 172.27 162 153.89 162 132.33C162 104.53 138.72 82 110 82" fill="#eef2ff"/>
</svg>
