<svg xmlns="http://www.w3.org/2000/svg" height="1024" preserveAspectRatio="none" style="display: block;" version="1.1" viewBox="0 0 2048 2048" width="1024">
<defs>
	<linearGradient gradientUnits="userSpaceOnUse" id="Gradient1" x1="847.241" x2="920.36" y1="751.051" y2="801.14">
		<stop class="stop0" offset="0" stop-color="rgb(241,239,240)" stop-opacity="0.419608"></stop>
		<stop class="stop1" offset="1" stop-color="rgb(240,240,242)" stop-opacity="0.87451"></stop>
	</linearGradient>
</defs>
<path d="M 1316.61 423.508 C 1324.7 426.117 1322.55 431.233 1325.49 432.707 C 1325.88 432.653 1325.69 432.725 1326.05 432.445 C 1326.16 431.845 1326.14 431.603 1325.95 431.026 C 1325.7 430.313 1325.4 429.617 1325.21 428.888 C 1324.92 427.765 1324.77 427.17 1323.99 426.238 C 1323.73 425.921 1323.7 426.047 1323.43 425.625 C 1322.87 424.738 1322.24 422.683 1322.49 421.615 C 1322.5 421.582 1327.87 421.452 1328.97 421.025 C 1329.19 420.943 1329.39 420.846 1329.61 420.767 C 1330.49 420.442 1331.56 420.167 1332.31 419.55 C 1333.03 418.957 1333.71 418.302 1334.46 417.751 C 1335.12 417.271 1335.69 416.981 1336.18 416.325 C 1338.02 413.833 1340.87 410.479 1343.45 408.72 C 1343.73 408.53 1344.02 408.362 1344.3 408.174 C 1345.92 407.081 1347.07 406.151 1349.09 406.234 C 1350.96 406.31 1351.17 406.636 1352.51 407.997 C 1349.96 412.247 1352.16 412.604 1351.32 413.895 C 1350.9 413.979 1350.49 414.063 1350.08 414.146 C 1347.79 418.101 1355.06 414.411 1354.85 417.502 C 1354.75 419.041 1354.96 424.163 1356.49 424.722 C 1358.11 425.31 1358.87 415.732 1359.52 413.697 C 1362.62 421.283 1365.77 428.558 1367.99 436.465 C 1376.99 437.131 1383.04 438.219 1391.97 439.886 C 1388.19 440.854 1378.29 446.439 1385.71 447.486 L 1385.75 447.561 C 1386.73 447.938 1387.4 446.242 1387.69 445.702 C 1388.92 443.386 1392.06 442.641 1394.38 442.159 C 1394.79 442.993 1394.31 442.888 1393.8 443.563 C 1394.18 444.481 1394.93 444.984 1395.11 445.986 C 1394.38 447.92 1388.7 447.192 1389.27 450.023 C 1393.32 454.015 1403.87 446.415 1407.91 444.089 C 1447.59 457.601 1479.9 474.21 1510.52 503.928 C 1561.19 553.091 1587.75 626.413 1581.49 696.911 C 1632.15 728.015 1668.42 777.933 1682.35 835.728 C 1697.43 896.988 1687.55 961.731 1654.88 1015.7 C 1640.52 1039.18 1629.64 1050.53 1610.45 1069.25 C 1616.43 1083 1621.69 1095.04 1625.69 1109.63 C 1638.32 1155.78 1636 1208.82 1618.42 1253.37 C 1595.24 1311.91 1549.46 1358.64 1491.41 1383.01 C 1476.23 1389.5 1463.4 1393.1 1447.39 1396.65 C 1436.63 1456.92 1408.63 1506.73 1357.64 1542.04 C 1320.31 1568.27 1275.76 1582.25 1230.13 1582.04 C 1168.14 1645.32 1103.2 1706.28 1040.62 1768.92 C 1031.31 1768.62 1022.49 1768.37 1013.15 1768.47 C 950.611 1707.06 887.287 1643.04 824.169 1582.67 C 790.96 1581.53 769.612 1578.09 738.101 1565.41 C 741.866 1560.21 715.136 1556.49 717.044 1551.07 C 715.835 1550.5 714.967 1550.02 714.484 1548.57 C 720.114 1536.88 733.507 1549.01 735.384 1533.96 C 735.643 1531.89 736.605 1528.77 738.986 1528.45 C 739.561 1530.9 735.509 1529.99 739.853 1533.63 C 743.1 1536.35 748.41 1526.54 749.497 1524.87 C 770.639 1533.33 790.138 1538.35 812.956 1539.31 L 812.75 1256.4 C 812.566 1178.96 811.837 1099.23 812.607 1021.84 C 805.529 1015.84 800.692 1011.19 794.166 1004.56 C 796.337 1005.56 798.545 1006.46 800.705 1007.48 L 799.967 1007.17 L 801.516 1007.7 C 801.683 1007.6 801.85 1007.49 802.017 1007.39 L 801.999 1007.15 C 801.947 1007.22 801.895 1007.28 801.844 1007.35 C 801.421 1006.4 801.076 1005.71 801.195 1004.7 L 801.443 1002.7 C 800.625 1000.78 800.655 1000.79 799.003 999.387 C 798.787 998.398 801.362 990.488 802.351 989.613 C 807.831 984.766 804.739 977.854 807.825 973.452 C 808.078 973.091 809.303 972.449 809.482 972.396 C 816.591 970.309 813.05 969.182 813.576 967.429 C 820.201 969.832 818.767 973.094 818.924 976.966 L 819.557 977.247 C 821.624 976.067 821.319 972.906 821.413 970.948 C 827.871 977.5 831.995 982.494 837.801 989.701 L 966.394 862.2 C 978.227 850.292 990.484 839.355 1002.03 827.072 L 1002.33 643.508 C 1002.7 639.699 1002.98 619.642 1003.6 618.42 C 1004.41 620.344 1004.67 628.979 1005.83 628.251 C 1008.01 626.879 1009.31 623.561 1012.99 622.99 C 1012.62 623.047 1016.25 621.131 1017.65 620.964 C 1023.25 625.732 1031.96 634.585 1037.47 638.187 C 1038.18 637.598 1042.6 632.059 1042.81 630.577 C 1045.28 613.329 1043.97 595.624 1047.98 578.686 L 1047.99 826.491 C 1053.16 832.014 1058.46 837.304 1063.94 842.516 C 1113.91 889.996 1161.45 939.958 1210.79 988.049 C 1250.49 947.417 1290.93 920.645 1350.49 926.696 C 1371.82 897.742 1376.99 877.9 1381.64 842.739 C 1395.02 845.718 1408.46 848.35 1421.97 850.631 C 1414.97 893.58 1413.67 897.999 1395.01 938.178 C 1453.35 968.991 1482.14 1016.63 1482.67 1082.63 C 1492.67 1081.14 1502.55 1078.91 1512.22 1075.98 C 1560.72 1060.97 1601.15 1027.1 1624.42 981.979 C 1647.13 938.525 1653.66 880.958 1637.99 834.317 C 1619.9 780.449 1584.74 744.832 1535.18 719.426 C 1559.65 593.813 1472.71 481.459 1344.63 475.782 C 1351.28 473.564 1361.03 475.396 1363.27 474.367 L 1363.3 474.293 C 1362.47 473.552 1347.32 472.611 1345.57 473.32 C 1341.88 474.815 1331.8 472.533 1328.57 472.92 C 1317.15 474.29 1305.63 473.364 1294.24 473.127 C 1292.36 473.087 1283.2 474.521 1286.01 469.53 C 1285.68 470.116 1290.21 468.443 1289.75 466.16 L 1289.64 466.046 C 1289.53 464.494 1292.74 458.336 1289.56 457.178 C 1288.63 457.419 1288.45 458.617 1287.55 458.833 C 1286.65 452.074 1282.35 450.683 1276.15 450.445 L 1276.24 450.252 C 1278.2 449.341 1280.4 450.645 1282.42 450.404 L 1282.55 450.295 C 1284.5 450.396 1286 451.637 1287.52 452.735 C 1288.02 452.675 1288.24 452.538 1288.56 452.176 C 1288.9 452.437 1289.24 452.699 1289.58 452.96 C 1289.83 452.943 1296.44 450.322 1296.2 450.514 C 1295 448.969 1290.39 448.455 1289.02 447.255 C 1285.57 444.117 1280.67 446.028 1276.41 445.509 C 1273.66 445.174 1275.9 439.639 1278.77 442.203 C 1279.43 442.785 1287.26 442.609 1287.96 442.085 C 1290.15 440.454 1297.99 441.127 1299.1 439.547 C 1298.38 438.367 1293.87 438.851 1293.73 437.628 C 1295.17 436.182 1301.68 436.477 1305.59 435.012 L 1322.27 434.829 L 1316.61 423.508 z M 854.926 1025.08 L 854.425 1423.55 C 854.261 1468.31 855.126 1515.05 854.123 1559.57 C 892.158 1595.72 929.816 1632.26 967.092 1669.19 C 985.589 1687.44 1006.23 1709.2 1025.15 1726.32 C 1043.28 1709.48 1058.96 1692.68 1076.39 1675.4 C 1115.47 1637.19 1154.28 1598.71 1192.81 1559.96 L 1193.02 1217.9 C 1193.01 1158.7 1194.3 1094.08 1192.68 1035.27 C 1178.5 1042.53 1162.25 1053.25 1148.29 1061.55 L 1067.46 1109.23 C 1059.9 1113.71 1031.48 1131.37 1025.15 1133.74 L 1024.43 1132.64 C 1025.44 1126.68 1025.12 1121.5 1025.04 1115.47 C 1071.07 1091.05 1115.2 1061.06 1160.48 1035.22 C 1169.95 1029.81 1179.3 1024.01 1188.59 1018.29 L 1094.5 926.767 C 1073.54 906.563 1043.16 878.356 1024.08 857.1 C 1011.62 872.73 993.021 889.717 978.399 903.902 L 905.542 975.385 C 891.086 989.328 867.304 1010.78 854.926 1025.08 z" fill="rgb(212,209,218)" fill-opacity="0.988235" transform="translate(0,0)"></path>
<path d="M 1024.08 857.1 C 1043.16 878.356 1073.54 906.563 1094.5 926.767 L 1188.59 1018.29 C 1179.3 1024.01 1169.95 1029.81 1160.48 1035.22 C 1115.2 1061.06 1071.07 1091.05 1025.04 1115.47 C 1025.12 1121.5 1025.44 1126.68 1024.43 1132.64 L 1025.15 1133.74 C 1031.48 1131.37 1059.9 1113.71 1067.46 1109.23 L 1148.29 1061.55 C 1162.25 1053.25 1178.5 1042.53 1192.68 1035.27 C 1194.3 1094.08 1193.01 1158.7 1193.02 1217.9 L 1192.81 1559.96 C 1154.28 1598.71 1115.47 1637.19 1076.39 1675.4 C 1058.96 1692.68 1043.28 1709.48 1025.15 1726.32 C 1006.23 1709.2 985.589 1687.44 967.092 1669.19 C 929.816 1632.26 892.158 1595.72 854.123 1559.57 C 855.126 1515.05 854.261 1468.31 854.425 1423.55 L 854.926 1025.08 C 867.304 1010.78 891.086 989.328 905.542 975.385 L 978.399 903.902 C 993.021 889.717 1011.62 872.73 1024.08 857.1 z M 1013.21 1685.86 C 1013.89 1687.85 1018.59 1699.09 1023.34 1696.86 C 1024.32 1696.4 1024.4 1684.6 1023.5 1683.3 C 1023.1 1682.71 1015.1 1681.67 1013.51 1681.33 C 1013.43 1682.88 1013.35 1684.32 1013.21 1685.86 z M 1018.78 1108.57 C 1020.21 1104.44 1021.31 1099.49 1018.3 1095.83 C 1013.93 1100.34 1016.06 1103.11 1018.78 1108.57 z" fill="rgb(23,6,115)" transform="translate(0,0)"></path>
<path d="M 869.991 1038.52 C 884.133 1045.74 901.797 1057.3 915.824 1065.77 L 1024.43 1132.64 L 1025.15 1133.74 C 1024.1 1151.34 1024.67 1173.98 1024.61 1191.94 L 1024.5 1296.98 L 1024.49 1556.02 L 1024.52 1634.31 C 1024.52 1641.87 1025.76 1678.45 1022.36 1681.63 C 1020.41 1681.08 1019.31 1680.74 1017.43 1679.99 C 1016.16 1680.38 1014.65 1680.76 1013.51 1681.33 C 1013.43 1682.88 1013.35 1684.32 1013.21 1685.86 L 1012.57 1688.39 C 1008.88 1688.05 887.55 1567.56 870.205 1552.47 C 869.163 1501.55 870.594 1445.15 870.713 1393.88 C 871.268 1275.43 871.027 1156.97 869.991 1038.52 z" fill="rgb(254,253,254)" transform="translate(0,0)"></path>
<path d="M 1022.62 882.689 C 1022.75 882.812 1022.91 882.919 1023.02 883.06 C 1025.85 886.447 1024.24 1093.42 1024.71 1115.24 C 995.129 1096.34 965.366 1077.72 935.422 1059.4 C 916.419 1047.58 897.3 1035.94 878.067 1024.49 C 890.424 1010.62 906.107 996.108 919.374 982.796 C 953.13 948.928 988.756 916.376 1022.62 882.689 z M 1018.78 1108.57 C 1020.21 1104.44 1021.31 1099.49 1018.3 1095.83 C 1013.93 1100.34 1016.06 1103.11 1018.78 1108.57 z" fill="rgb(254,253,254)" transform="translate(0,0)"></path>
<path d="M 1018.3 1095.83 C 1021.31 1099.49 1020.21 1104.44 1018.78 1108.57 C 1016.06 1103.11 1013.93 1100.34 1018.3 1095.83 z" fill="rgb(254,253,254)" fill-opacity="0.847059" transform="translate(0,0)"></path>
<path d="M 1322.7 970.315 C 1328.16 969.698 1333.66 969.483 1339.14 969.673 C 1365.39 970.483 1393.38 983.131 1411.32 1002.44 C 1453.28 1047.83 1447.62 1121.99 1395.68 1157.19 C 1388.64 1161.68 1381.27 1165.72 1374.09 1170 C 1329.51 1196.58 1308.63 1238.41 1306.64 1289.01 L 1348.71 1289.2 C 1350.42 1253.24 1371.14 1217.8 1404.05 1202.11 C 1438.56 1185.67 1458.53 1160.66 1474.09 1126.56 C 1520.43 1120.35 1534.58 1115.67 1575.86 1095.34 C 1599.63 1158.47 1597.09 1210.77 1562.4 1269.49 C 1558.09 1276.22 1553.41 1282.7 1548.38 1288.92 C 1511.41 1334.19 1465.03 1353.63 1408.11 1359.17 C 1405.4 1409.43 1394.24 1447.47 1359.28 1486.05 C 1329.15 1519.3 1280.48 1537.8 1236.04 1539.36 C 1235.29 1425.94 1235.18 1312.52 1235.71 1199.1 C 1235.9 1142.2 1234.55 1081.85 1236.54 1025.2 C 1265.39 994.57 1279.13 977.16 1322.7 970.315 z" fill="rgb(23,6,115)" transform="translate(0,0)"></path>
<path d="M 1435.8 289.413 C 1458.17 289.226 1480.15 288.633 1502.46 290.508 C 1661.44 303.873 1767.84 430.35 1769.12 584.959 L 1769.15 1218.67 L 1769.16 1399.65 C 1769.14 1438.14 1771.23 1492.26 1764.27 1528.24 C 1752.93 1586.66 1724.76 1640.49 1683.21 1683.1 C 1648.55 1718.05 1600.07 1745.4 1552.96 1758.57 C 1511.99 1770.04 1471.92 1768.97 1429.95 1768.96 L 1040.62 1768.92 C 1103.2 1706.28 1168.14 1645.32 1230.13 1582.04 C 1275.76 1582.25 1320.31 1568.27 1357.64 1542.04 C 1408.63 1506.73 1436.63 1456.92 1447.39 1396.65 C 1463.4 1393.1 1476.23 1389.5 1491.41 1383.01 C 1549.46 1358.64 1595.24 1311.91 1618.42 1253.37 C 1636 1208.82 1638.32 1155.78 1625.69 1109.63 C 1621.69 1095.04 1616.43 1083 1610.45 1069.25 C 1629.64 1050.53 1640.52 1039.18 1654.88 1015.7 C 1687.55 961.731 1697.43 896.988 1682.35 835.728 C 1668.42 777.933 1632.15 728.015 1581.49 696.911 C 1587.75 626.413 1561.19 553.091 1510.52 503.928 C 1479.9 474.21 1447.59 457.601 1407.91 444.089 C 1402.56 442.376 1397.32 441.38 1391.97 439.886 C 1383.04 438.219 1376.99 437.131 1367.99 436.465 C 1365.77 428.558 1362.62 421.283 1359.52 413.697 C 1358.47 411.037 1357.35 408.893 1356.05 406.368 C 1354.82 403.81 1353.6 401.442 1352.29 398.932 C 1351.8 398.251 1351.3 397.569 1350.81 396.888 C 1349.56 394.577 1349.14 393.416 1347.45 391.422 L 1346.48 389.858 C 1344.65 386.618 1339.2 377.566 1336.56 374.861 C 1310.1 336.369 1276.46 310.512 1234.22 291.244 C 1246.38 285.218 1396.3 293.293 1422.4 290.102 C 1426.1 289.65 1431.03 290.66 1435.8 289.413 z" fill="rgb(23,6,115)" transform="translate(0,0)"></path>
<path d="M 1013.15 1768.47 C 1009.75 1768.66 1006.34 1768.76 1002.94 1768.79 L 738.037 1768.79 L 631.953 1768.9 C 584.746 1768.85 539.396 1770.69 493.663 1757.17 C 388.324 1726.03 308.244 1638.34 287.325 1530.41 C 280.573 1495.57 282.117 1455.45 282.101 1420 L 282.144 1284 L 282.078 747.832 L 282.028 628.098 C 282.042 604.775 281.602 581.558 282.998 558.277 C 287.291 486.703 318.485 421.91 368.877 371.566 C 422.571 318.467 495.263 289.035 570.774 289.823 C 590.032 291.114 619.246 290.229 639.132 290.212 L 759.103 290.19 C 768.671 290.175 813.054 289.537 819.359 290.727 C 766.952 313.246 730.484 344.445 701.114 394.086 C 693.787 406.469 687.611 422.045 681.879 435.425 C 611.631 448.739 555.084 474.494 512.804 535.914 C 476.669 588.409 467.584 634.609 467.858 696.954 C 413.709 733.192 379.335 780.794 365.906 845.475 C 353.477 905.34 363.976 968.761 397.616 1020.22 C 410.055 1039.24 423.712 1053.26 439.498 1069.26 C 412.184 1133.71 408.465 1191.48 434.537 1258.14 C 457.054 1315.7 504.432 1359.03 560.653 1382.93 C 574.733 1388.91 590.946 1392.38 603.081 1397.61 C 607.83 1422.43 615.071 1450.03 629.401 1471.22 C 633.786 1481.08 656.439 1509.76 665.127 1517.16 C 672.439 1524.35 688.232 1539.43 697.495 1543.8 C 700.663 1547.15 705.87 1549.69 710.014 1551.86 C 715.138 1555.28 732.36 1563.29 738.101 1565.41 C 769.612 1578.09 790.96 1581.53 824.169 1582.67 C 887.287 1643.04 950.611 1707.06 1013.15 1768.47 z" fill="rgb(23,6,115)" transform="translate(0,0)"></path>
<path d="M 1047.74 519.773 C 1048.64 483.804 1046.2 444.296 1049.11 408.908 C 1054.04 348.857 1113.84 307.83 1172.44 317.038 C 1227.27 325.654 1264.5 351.604 1298.73 394.795 C 1300.01 396.925 1300.91 398.089 1302.48 399.976 C 1303.61 402.813 1305.83 405.502 1307.59 408.107 L 1308.15 409.13 C 1309.72 412.885 1313.06 418.095 1315.51 421.388 L 1316.09 422.652 L 1316.61 423.508 L 1322.27 434.829 L 1305.59 435.012 C 1293.44 434.098 1275.4 434.651 1262.73 434.699 C 1262.73 448.408 1262.98 462.229 1262.86 475.916 L 1324.29 475.769 C 1329.95 475.722 1339.52 476.127 1344.63 475.782 C 1472.71 481.459 1559.65 593.813 1535.18 719.426 C 1584.74 744.832 1619.9 780.449 1637.99 834.317 C 1653.66 880.958 1647.13 938.525 1624.42 981.979 C 1601.15 1027.1 1560.72 1060.97 1512.22 1075.98 C 1502.55 1078.91 1492.67 1081.14 1482.67 1082.63 C 1482.14 1016.63 1453.35 968.991 1395.01 938.178 C 1413.67 897.999 1414.97 893.58 1421.97 850.631 C 1408.46 848.35 1395.02 845.718 1381.64 842.739 C 1376.99 877.9 1371.82 897.742 1350.49 926.696 C 1290.93 920.645 1250.49 947.417 1210.79 988.049 C 1161.45 939.958 1113.91 889.996 1063.94 842.516 C 1058.46 837.304 1053.16 832.014 1047.99 826.491 L 1047.98 578.686 C 1048.01 570.394 1047.95 562.102 1047.82 553.811 C 1048.43 545.652 1048 528.332 1047.74 519.773 z M 1110.1 502.398 C 1112.5 502.7 1117.37 503.697 1119.36 501.279 C 1119.93 500.587 1119.38 499.535 1118.62 499.213 C 1115.74 498.004 1112.46 499.107 1109.58 499.752 L 1110.1 502.398 z" fill="rgb(23,6,115)" transform="translate(0,0)"></path>
<path d="M 1109.58 499.752 L 1110.68 496.974 C 1116.53 495.357 1125.58 496.801 1131.74 497.291 C 1216.16 504.015 1299.66 564.003 1324.06 647.085 C 1388.48 646.796 1445.8 661.954 1492.92 708.588 C 1530.76 746.543 1553.52 796.957 1556.96 850.444 C 1543.54 853.519 1530.6 855.758 1517.38 858.643 C 1508.85 804.343 1491.94 757.897 1445.54 724.19 C 1406.63 695.776 1357.94 684.176 1310.4 691.993 C 1303.72 693.09 1297.06 694.337 1290.43 695.735 C 1283.75 655.995 1275.3 627.872 1246.77 597.86 C 1207.79 556.861 1165.11 541.029 1110 538.086 C 1109.99 528.21 1109.48 511.754 1110.1 502.398 C 1112.5 502.7 1117.37 503.697 1119.36 501.279 C 1119.93 500.587 1119.38 499.535 1118.62 499.213 C 1115.74 498.004 1112.46 499.107 1109.58 499.752 z" fill="rgb(212,209,218)" transform="translate(0,0)"></path>
<path d="M 1075.26 686.731 C 1087.97 687.437 1102.12 691.358 1114.05 694.737 C 1189.9 716.202 1242.62 784.06 1245.27 862.712 C 1245.45 868.002 1246.12 875.511 1244.53 880.618 L 1242.25 881.206 L 1204.05 880.77 C 1205.28 800.191 1148.38 739.049 1069.49 728.678 C 1071.87 716.372 1073.7 699.429 1075.26 686.731 z" fill="rgb(212,209,218)" transform="translate(0,0)"></path>
<path d="M 1109.58 499.752 C 1112.46 499.107 1115.74 498.004 1118.62 499.213 C 1119.38 499.535 1119.93 500.587 1119.36 501.279 C 1117.37 503.697 1112.5 502.7 1110.1 502.398 L 1109.58 499.752 z" fill="rgb(212,209,218)" fill-opacity="0.694118" transform="translate(0,0)"></path>
<path d="M 727.391 434.765 C 737.417 412.949 750.859 392.872 767.212 375.292 C 831.195 307.454 954.886 281.55 996.295 387.811 C 1002.73 404.326 1001.97 426.189 1002.28 443.808 L 1002.42 572.605 C 1002.43 596.12 1001.96 620.036 1002.33 643.508 L 1002.03 827.072 C 990.484 839.355 978.227 850.292 966.394 862.2 L 837.801 989.701 C 831.995 982.494 827.871 977.5 821.413 970.948 C 816.565 966.1 810.931 961.443 805.477 957.277 C 803.725 955.916 802.109 954.391 800.102 953.422 C 799.027 952.597 798.325 951.976 797.164 951.341 C 795.34 949.822 795.079 949.377 793.047 948.593 C 789.408 946.008 787.297 944.809 783.345 942.738 L 778.945 940.634 C 756.978 930.019 723.685 920.89 699.495 927.042 C 681.662 903.162 669.421 872.285 668.905 842.324 C 656.713 844.285 639.763 848.751 627.363 851.664 C 632.036 889.638 638.824 906.82 656.35 939.411 C 641.219 945.9 627.409 955.114 615.609 966.595 C 582.173 999.324 569.852 1037.22 569.15 1082.78 C 556.364 1080.74 545.103 1078.3 532.826 1074 C 483.306 1056.42 442.78 1019.92 420.136 972.501 C 400.54 930.934 397.84 869.555 414.528 826.811 C 434.413 775.878 467.642 742.084 516.571 719.781 C 513.026 703.75 511.758 694.474 511.706 677.847 C 511.278 624.336 532.369 572.897 570.239 535.089 C 636.862 468.737 703.817 475.961 788.513 475.993 C 788.967 462.452 788.844 447.942 788.968 434.326 C 768.441 434.127 747.912 434.273 727.391 434.765 z M 728.924 647.007 C 674.424 641.882 612.524 660.4 570.104 695.189 C 523.144 733.703 497.469 790.293 492.103 850.172 L 492.028 851.077 C 502.267 852.93 511.172 854.905 521.254 857.281 C 524.716 858.108 528.638 858.941 532.018 859.912 C 533.803 845.344 535.239 831.329 539.045 817.094 C 561.147 734.42 643.018 680.078 727.791 689.932 C 740.04 691.356 750.596 693.352 762.538 696.076 C 779.485 600.206 843.193 543.645 940.746 538.141 C 940.857 524.401 940.89 510.66 940.844 496.92 C 933.024 496.698 928.239 496.589 920.518 497.344 C 827.69 509.201 761.809 558.931 728.924 647.007 z M 848.989 751.677 C 837.856 764.191 830.274 776.626 822.852 791.665 C 816.564 804.412 811.592 817.775 808.436 831.648 C 806.445 844.542 805.373 853.108 804.515 866.317 L 804.354 873.665 L 804.263 877.485 C 804.242 878.357 804.444 880.416 804.968 880.497 C 812.452 881.651 836.724 880.939 843.193 881.051 C 845.236 880.98 845.386 881.166 846.526 879.494 C 846.738 873.498 846.698 861.759 847.589 856.337 L 848.444 849.248 C 849.097 845.577 850.723 840.194 850.74 836.766 C 852.183 832.453 853.43 828.089 854.72 823.727 C 859.411 813.062 862.738 804.815 869.367 794.927 L 870.302 793.502 C 878.989 780.88 888.57 771.594 900.356 761.958 C 902.915 760.28 905.679 758.482 908.005 756.507 C 914.782 751.957 922.158 748.136 929.105 743.711 C 939.718 739.178 947.348 736.1 958.438 732.951 C 964.814 731.647 971.82 730.48 978.297 729.997 L 980.292 729.835 C 980.129 726.533 980.03 717.829 979.445 715.336 C 978.964 707.76 978.456 694.886 976.349 687.819 L 974.073 686.892 C 971.439 687.411 968.799 687.897 966.153 688.349 C 963.404 688.73 958.707 689.229 956.151 689.877 C 946.79 691.601 938.73 693.232 929.862 696.874 C 926.871 697.872 924.031 699.142 921.125 700.355 C 918.37 701.457 914.411 702.871 911.985 704.317 C 906.087 707.045 902.475 708.526 896.909 712.261 C 890.865 715.429 878.431 722.778 873.924 727.793 L 873.184 728.405 C 867.504 732.173 857.191 742.415 852.763 747.644 C 851.169 749.036 850.353 750.088 848.989 751.677 z" fill="rgb(23,6,115)" transform="translate(0,0)"></path>
<path d="M 974.073 686.892 L 976.349 687.819 C 978.456 694.886 978.964 707.76 979.445 715.336 C 977.272 724.148 965.99 715.367 962.583 723.023 C 962.22 723.837 962.15 726.502 962.672 727.375 C 963.987 727.952 965.583 727.152 966.834 728.008 C 966.95 730.54 958.732 729.353 958.438 732.951 C 947.348 736.1 939.718 739.178 929.105 743.711 C 922.158 748.136 914.782 751.957 908.005 756.507 L 908.976 754.779 C 909.095 754.571 917.997 745.743 914.439 743.375 C 910.937 741.043 902.413 744.035 900.759 747.939 C 895.263 755.7 897.974 755.209 900.356 761.958 C 888.57 771.594 878.989 780.88 870.302 793.502 C 870.348 792.346 870.519 788.492 870.291 787.625 C 867.874 786.096 867.099 793.244 866.431 793.918 L 865.948 794.049 C 862.567 791.853 866.257 791.844 863.155 794.223 C 858.12 798.086 861.797 803.389 860.442 805.792 C 858.819 805.594 858.409 803.87 856.623 805.595 C 855.612 808.988 853.65 810.787 851.647 813.858 C 851.089 814.713 854.206 821.892 854.72 823.727 C 853.43 828.089 852.183 832.453 850.74 836.766 C 850.516 834.787 851.346 826.884 847.831 827.779 C 839.099 830.003 842.833 845.393 848.444 849.248 L 847.589 856.337 L 847.177 854.681 C 846.246 849.607 845.872 850.622 841.488 848.314 C 840.612 848.6 840.742 851.271 841.673 851.495 C 842.526 851.701 842.869 849.924 843.668 850.306 C 844.587 851.915 846.008 856.319 843.705 857.721 C 840.663 859.573 843.311 862.781 841.063 864.989 C 839.128 866.89 835.761 868.028 835.563 870.985 C 835.483 871.891 835.403 872.797 835.323 873.703 C 834.996 875.039 835.362 874.785 834.438 875.717 L 834.298 875.741 C 833.09 874.538 834.244 871.916 829.733 873.538 C 826.3 874.772 823.13 875.103 819.614 873.839 C 816.783 870.424 829.606 871.801 826.478 867.802 C 826.573 866.571 827.754 865.615 827.626 864.327 L 827.477 864.137 C 824.916 864.949 823.484 868.913 820.481 869.259 C 814.396 869.96 812.652 868.462 807.137 871.191 C 804.778 869.878 805.226 871.404 804.53 873.802 L 804.354 873.665 L 804.515 866.317 C 807.11 865.487 813.092 870.188 818.504 864.337 L 818.461 864.174 C 814.801 862.432 809.554 866.315 809.101 863.842 C 809.79 862.249 811.199 861.706 811.757 860.527 C 811.493 856.667 807.953 854.51 807.424 853.075 C 805.773 848.595 811.766 843.255 810.604 837.794 C 818.323 828.648 813.11 837.018 816.414 827.067 C 818.824 819.808 814.908 817.946 815.27 816.255 C 816.607 814.957 819.42 816.147 819.627 813.517 C 819.832 810.905 816.746 809.932 817.542 807.26 C 825.194 805.104 824.263 799.826 822.852 791.665 C 830.274 776.626 837.856 764.191 848.989 751.677 C 850.703 752.564 854.701 755.433 855.974 755.382 C 863.735 755.067 885.343 737.119 877.961 728.7 C 877.282 727.926 876.507 727.8 875.472 727.807 L 873.924 727.793 C 878.431 722.778 890.865 715.429 896.909 712.261 C 906.047 712.681 901.604 712.823 907.73 710.173 C 909.735 709.307 913.558 710.349 911.985 704.317 C 914.411 702.871 918.37 701.457 921.125 700.355 C 925.36 702.706 929.053 702.477 929.862 696.874 C 938.73 693.232 946.79 691.601 956.151 689.877 C 958.707 689.229 963.404 688.73 966.153 688.349 C 968.856 702.252 977.641 692.979 974.073 686.892 z" fill="url(#Gradient1)" transform="translate(0,0)"></path>
<path d="M 807.137 871.191 C 812.652 868.462 814.396 869.96 820.481 869.259 C 823.484 868.913 824.916 864.949 827.477 864.137 L 827.626 864.327 C 827.754 865.615 826.573 866.571 826.478 867.802 C 829.606 871.801 816.783 870.424 819.614 873.839 C 823.13 875.103 826.3 874.772 829.733 873.538 C 834.244 871.916 833.09 874.538 834.298 875.741 L 834.438 875.717 C 835.362 874.785 834.996 875.039 835.323 873.703 C 835.403 872.797 835.483 871.891 835.563 870.985 C 835.761 868.028 839.128 866.89 841.063 864.989 C 843.311 862.781 840.663 859.573 843.705 857.721 C 846.008 856.319 844.587 851.915 843.668 850.306 C 842.869 849.924 842.526 851.701 841.673 851.495 C 840.742 851.271 840.612 848.6 841.488 848.314 C 845.872 850.622 846.246 849.607 847.177 854.681 L 847.589 856.337 C 846.698 861.759 846.738 873.498 846.526 879.494 C 846.504 876.183 846.909 872.368 845.521 869.411 C 844.505 870.261 841.539 871.93 840.286 872.025 C 837.162 868.982 837.173 878.137 837.646 879.396 C 838.859 879.855 841.678 880.56 843.193 881.051 C 836.724 880.939 812.452 881.651 804.968 880.497 C 804.444 880.416 804.242 878.357 804.263 877.485 L 804.354 873.665 L 804.53 873.802 C 805.526 883.957 816.857 880.542 814.062 874.494 C 813.385 873.028 809.463 872.509 807.137 871.191 z" fill="rgb(234,233,237)" fill-opacity="0.580392" transform="translate(0,0)"></path>
<path d="M 873.924 727.793 L 875.472 727.807 C 876.507 727.8 877.282 727.926 877.961 728.7 C 885.343 737.119 863.735 755.067 855.974 755.382 C 854.701 755.433 850.703 752.564 848.989 751.677 C 850.353 750.088 851.169 749.036 852.763 747.644 C 858.059 751.249 864.714 743.814 869.375 740.335 C 870.813 735.507 869.249 737.35 874.468 732.374 C 874.811 732.048 873.974 730.204 873.751 729.718 L 873.184 728.405 L 873.924 727.793 z" fill="rgb(234,233,237)" fill-opacity="0.313725" transform="translate(0,0)"></path>
<path d="M 822.852 791.665 C 824.263 799.826 825.194 805.104 817.542 807.26 C 816.746 809.932 819.832 810.905 819.627 813.517 C 819.42 816.147 816.607 814.957 815.27 816.255 C 814.908 817.946 818.824 819.808 816.414 827.067 C 813.11 837.018 818.323 828.648 810.604 837.794 C 809.197 835.068 809.177 834.602 808.436 831.648 C 811.592 817.775 816.564 804.412 822.852 791.665 z" fill="rgb(234,233,237)" fill-opacity="0.509804" transform="translate(0,0)"></path>
<path d="M 979.445 715.336 C 980.03 717.829 980.129 726.533 980.292 729.835 L 978.297 729.997 C 971.82 730.48 964.814 731.647 958.438 732.951 C 958.732 729.353 966.95 730.54 966.834 728.008 C 965.583 727.152 963.987 727.952 962.672 727.375 C 962.15 726.502 962.22 723.837 962.583 723.023 C 965.99 715.367 977.272 724.148 979.445 715.336 z" fill="rgb(234,233,237)" fill-opacity="0.615686" transform="translate(0,0)"></path>
<path d="M 900.356 761.958 C 897.974 755.209 895.263 755.7 900.759 747.939 C 902.413 744.035 910.937 741.043 914.439 743.375 C 917.997 745.743 909.095 754.571 908.976 754.779 L 908.005 756.507 C 905.679 758.482 902.915 760.28 900.356 761.958 z" fill="rgb(234,233,237)" fill-opacity="0.509804" transform="translate(0,0)"></path>
<path d="M 854.72 823.727 C 854.206 821.892 851.089 814.713 851.647 813.858 C 853.65 810.787 855.612 808.988 856.623 805.595 C 858.409 803.87 858.819 805.594 860.442 805.792 C 861.797 803.389 858.12 798.086 863.155 794.223 C 866.257 791.844 862.567 791.853 865.948 794.049 L 866.431 793.918 C 867.099 793.244 867.874 786.096 870.291 787.625 C 870.519 788.492 870.348 792.346 870.302 793.502 L 869.367 794.927 C 862.738 804.815 859.411 813.062 854.72 823.727 z" fill="rgb(234,233,237)" fill-opacity="0.603922" transform="translate(0,0)"></path>
<path d="M 804.515 866.317 C 805.373 853.108 806.445 844.542 808.436 831.648 C 809.177 834.602 809.197 835.068 810.604 837.794 C 811.766 843.255 805.773 848.595 807.424 853.075 C 807.953 854.51 811.493 856.667 811.757 860.527 C 811.199 861.706 809.79 862.249 809.101 863.842 C 809.554 866.315 814.801 862.432 818.461 864.174 L 818.504 864.337 C 813.092 870.188 807.11 865.487 804.515 866.317 z" fill="rgb(234,233,237)" fill-opacity="0.74902" transform="translate(0,0)"></path>
<path d="M 852.763 747.644 C 857.191 742.415 867.504 732.173 873.184 728.405 L 873.751 729.718 C 873.974 730.204 874.811 732.048 874.468 732.374 C 869.249 737.35 870.813 735.507 869.375 740.335 C 864.714 743.814 858.059 751.249 852.763 747.644 z" fill="rgb(234,233,237)" fill-opacity="0.294118" transform="translate(0,0)"></path>
<path d="M 848.444 849.248 C 842.833 845.393 839.099 830.003 847.831 827.779 C 851.346 826.884 850.516 834.787 850.74 836.766 C 850.723 840.194 849.097 845.577 848.444 849.248 z" fill="rgb(234,233,237)" fill-opacity="0.745098" transform="translate(0,0)"></path>
<path d="M 843.193 881.051 C 841.678 880.56 838.859 879.855 837.646 879.396 C 837.173 878.137 837.162 868.982 840.286 872.025 C 841.539 871.93 844.505 870.261 845.521 869.411 C 846.909 872.368 846.504 876.183 846.526 879.494 C 845.386 881.166 845.236 880.98 843.193 881.051 z" fill="rgb(234,233,237)" fill-opacity="0.0627451" transform="translate(0,0)"></path>
<path d="M 804.53 873.802 C 805.226 871.404 804.778 869.878 807.137 871.191 C 809.463 872.509 813.385 873.028 814.062 874.494 C 816.857 880.542 805.526 883.957 804.53 873.802 z" fill="rgb(234,233,237)" fill-opacity="0.239216" transform="translate(0,0)"></path>
<path d="M 966.153 688.349 C 968.799 687.897 971.439 687.411 974.073 686.892 C 977.641 692.979 968.856 702.252 966.153 688.349 z" fill="rgb(234,233,237)" fill-opacity="0.352941" transform="translate(0,0)"></path>
<path d="M 911.985 704.317 C 913.558 710.349 909.735 709.307 907.73 710.173 C 901.604 712.823 906.047 712.681 896.909 712.261 C 902.475 708.526 906.087 707.045 911.985 704.317 z" fill="rgb(234,233,237)" fill-opacity="0.54902" transform="translate(0,0)"></path>
<path d="M 921.125 700.355 C 924.031 699.142 926.871 697.872 929.862 696.874 C 929.053 702.477 925.36 702.706 921.125 700.355 z" fill="rgb(234,233,237)" fill-opacity="0.564706" transform="translate(0,0)"></path>
<path d="M 707.8 969.916 L 708.684 969.933 C 721.981 970.102 725.989 970.064 739.555 972.402 C 742.448 973.154 745.334 973.934 748.212 974.741 L 749.312 975.176 C 751.467 976.069 753.72 976.726 755.919 977.508 C 761.437 981.093 769.901 985.002 778.059 990.314 L 787.76 998.11 C 789.237 1000 792.385 1002.93 794.166 1004.56 C 800.692 1011.19 805.529 1015.84 812.607 1021.84 C 811.837 1099.23 812.566 1178.96 812.75 1256.4 L 812.956 1539.31 C 790.138 1538.35 770.639 1533.33 749.497 1524.87 C 746.391 1523.27 741.31 1520.61 738.13 1519.46 C 736.45 1518.47 735.351 1517.78 733.557 1516.97 L 732.352 1516.03 C 729.55 1514.23 724.006 1510.82 721.248 1509.29 C 713.804 1503.9 706.861 1499.43 699.911 1493.15 C 697.084 1490.59 693.294 1486.32 690.549 1484.42 C 676.581 1467.81 666.926 1455.16 658.749 1434.66 C 657.976 1432.75 657.483 1431.29 656.615 1429.32 C 646.859 1400.12 645.782 1389.52 645.463 1358.99 C 597.386 1353.88 563.047 1345.06 525.411 1313.08 C 502.717 1293.79 488.714 1277.12 476.676 1249.52 C 455.525 1200.81 454.836 1145.65 474.765 1096.42 C 488.233 1101.4 500.651 1108.78 515.722 1113.94 C 539.334 1122.03 554.184 1122.52 577.428 1126.48 C 586.009 1144.2 595.791 1162.41 610.467 1175.95 C 645.93 1208.67 670.926 1205.25 693.41 1253.23 L 694.004 1254.99 L 694.585 1256.62 C 696.076 1260.89 696.912 1264.57 698.254 1268.7 L 698.269 1270.26 C 698.598 1273.21 699.037 1276.18 699.797 1279.05 C 699.868 1280.81 699.707 1287.13 700.695 1288.2 C 703.223 1288.98 737.588 1288.82 742.72 1288.91 C 742.453 1280.28 742.042 1278.61 740.832 1270.25 L 740.7 1269.29 C 740.414 1265.29 738.908 1256.91 737.589 1253.24 C 730.313 1222.55 709.819 1194.31 684.447 1175.71 C 675.477 1169.45 665.243 1164.25 656.293 1158.05 C 608.161 1124.71 598.179 1057.98 633.118 1011.23 C 651.629 986.461 673.706 975.268 703.473 970.081 C 705.221 970.078 706.086 970.07 707.8 969.916 z" fill="rgb(23,6,115)" transform="translate(0,0)"></path>
<path d="M 1005.57 556.996 C 1005.64 557.729 1005.79 563.007 1006.44 563.281 L 1006.49 563.15 C 1006.37 562.848 1006.24 562.546 1006.12 562.245 L 1006.97 561.727 C 1007.11 558.724 1008.17 547.865 1012.52 548.36 C 1021.41 549.371 1025.04 561.788 1029.8 567.408 C 1033.66 570.276 1032.79 573.977 1031.78 578.199 C 1031.46 579.521 1038.65 589.493 1039.8 589.285 C 1038.44 590.375 1044.99 575.304 1044.79 576.043 C 1046.75 568.815 1046.82 561.187 1047.82 553.811 C 1047.95 562.102 1048.01 570.394 1047.98 578.686 C 1043.97 595.624 1045.28 613.329 1042.81 630.577 C 1042.6 632.059 1038.18 637.598 1037.47 638.187 C 1031.96 634.585 1023.25 625.732 1017.65 620.964 C 1016.25 621.131 1012.62 623.047 1012.99 622.99 C 1009.31 623.561 1008.01 626.879 1005.83 628.251 C 1004.67 628.979 1004.41 620.344 1003.6 618.42 C 1002.98 619.642 1002.7 639.699 1002.33 643.508 C 1001.96 620.036 1002.43 596.12 1002.42 572.605 C 1002.57 574.305 1002.64 576.028 1002.9 577.716 L 1003.72 578.23 L 1003.32 578.847 C 1003.4 578.898 1003.49 578.948 1003.57 578.999 C 1005.09 575.424 1005.49 560.736 1005.57 556.996 z" fill="rgb(254,253,254)" fill-opacity="0.768627" transform="translate(0,0)"></path>
<path d="M 1015.72 501.056 C 1021.45 500.041 1028.47 492.445 1032.57 503.437 L 1032.74 503.495 C 1033.6 502.692 1032.44 498.784 1033.27 497.253 L 1033.48 497.168 C 1038.73 503.099 1039.19 518.205 1042.39 523.793 C 1045.9 529.936 1043.42 527.76 1044.54 533.391 C 1045.1 533.889 1044.72 533.64 1045.8 533.901 C 1047.06 532.804 1047.42 522.35 1047.74 519.773 C 1048 528.332 1048.43 545.652 1047.82 553.811 C 1046.82 561.187 1046.75 568.815 1044.79 576.043 C 1044.99 575.304 1038.44 590.375 1039.8 589.285 C 1038.65 589.493 1031.46 579.521 1031.78 578.199 C 1032.79 573.977 1033.66 570.276 1029.8 567.408 C 1025.04 561.788 1021.41 549.371 1012.52 548.36 C 1008.17 547.865 1007.11 558.724 1006.97 561.727 L 1006.12 562.245 C 1006.24 562.546 1006.37 562.848 1006.49 563.15 L 1006.44 563.281 C 1005.79 563.007 1005.64 557.729 1005.57 556.996 C 1005.36 547.993 1004.84 533.199 1012.28 526.661 C 1016.19 523.229 1015.41 517.064 1015.84 511.641 C 1015.44 508.1 1015.48 504.615 1015.72 501.056 z" fill="rgb(254,253,254)" fill-opacity="0.501961" transform="translate(0,0)"></path>
<path d="M 664.765 1507.45 C 666.389 1506.3 668.002 1504.84 669.471 1503.8 C 669.702 1504.04 669.934 1504.28 670.165 1504.52 L 670.404 1504.49 C 678.247 1495.01 658.814 1489.2 675.711 1475.87 L 675.193 1477.63 C 675.048 1478.04 673.106 1482.19 674.524 1482.34 C 676.22 1481.5 676.173 1478.2 678.62 1480.62 C 679.656 1481.64 682.42 1483.05 683.912 1483.22 C 686.886 1483.41 687.653 1484.53 690.549 1484.42 C 693.294 1486.32 697.084 1490.59 699.911 1493.15 C 706.861 1499.43 713.804 1503.9 721.248 1509.29 C 718.2 1509.83 712.259 1510.71 711.019 1513.96 C 707.368 1523.53 715.055 1523.58 715.818 1524.53 C 716.422 1530.04 701.179 1522.49 702.266 1526.41 C 703.06 1529.27 694.086 1534.45 692.61 1535.46 C 687.895 1531.07 689.057 1529.88 682.06 1526.91 C 680.445 1526.23 674.8 1518.9 672.611 1516.48 C 669.696 1513.25 666.921 1511.37 664.765 1507.45 z" fill="rgb(234,233,237)" fill-opacity="0.372549" transform="translate(0,0)"></path>
<path d="M 1262.73 434.699 C 1275.4 434.651 1293.44 434.098 1305.59 435.012 C 1301.68 436.477 1295.17 436.182 1293.73 437.628 C 1293.87 438.851 1298.38 438.367 1299.1 439.547 C 1297.99 441.127 1290.15 440.454 1287.96 442.085 C 1287.26 442.609 1279.43 442.785 1278.77 442.203 C 1275.9 439.639 1273.66 445.174 1276.41 445.509 C 1280.67 446.028 1285.57 444.117 1289.02 447.255 C 1290.39 448.455 1295 448.969 1296.2 450.514 C 1296.44 450.322 1289.83 452.943 1289.58 452.96 C 1289.24 452.699 1288.9 452.437 1288.56 452.176 C 1288.24 452.538 1288.02 452.675 1287.52 452.735 C 1286 451.637 1284.5 450.396 1282.55 450.295 L 1282.42 450.404 C 1280.4 450.645 1278.2 449.341 1276.24 450.252 L 1276.15 450.445 C 1282.35 450.683 1286.65 452.074 1287.55 458.833 C 1288.45 458.617 1288.63 457.419 1289.56 457.178 C 1292.74 458.336 1289.53 464.494 1289.64 466.046 L 1289.75 466.16 C 1290.21 468.443 1285.68 470.116 1286.01 469.53 C 1283.2 474.521 1292.36 473.087 1294.24 473.127 C 1305.63 473.364 1317.15 474.29 1328.57 472.92 C 1331.8 472.533 1341.88 474.815 1345.57 473.32 C 1347.32 472.611 1362.47 473.552 1363.3 474.293 L 1363.27 474.367 C 1361.03 475.396 1351.28 473.564 1344.63 475.782 C 1339.52 476.127 1329.95 475.722 1324.29 475.769 L 1262.86 475.916 C 1262.98 462.229 1262.73 448.408 1262.73 434.699 z M 1271.22 476.407 C 1274.36 473.928 1275.33 465.209 1270.26 463.485 L 1269.17 463.731 C 1268.1 463.965 1264.81 464.203 1264.48 464.958 C 1262.17 470.378 1265.86 474.115 1270.09 475.906 L 1271.22 476.407 z" fill="rgb(234,233,237)" fill-opacity="0.694118" transform="translate(0,0)"></path>
<path d="M 1270.26 463.485 C 1275.33 465.209 1274.36 473.928 1271.22 476.407 L 1270.09 475.906 C 1265.86 474.115 1262.17 470.378 1264.48 464.958 C 1264.81 464.203 1268.1 463.965 1269.17 463.731 L 1270.26 463.485 z" fill="rgb(234,233,237)" fill-opacity="0.372549" transform="translate(0,0)"></path>
<path d="M 805.477 957.277 C 810.931 961.443 816.565 966.1 821.413 970.948 C 821.319 972.906 821.624 976.067 819.557 977.247 L 818.924 976.966 C 818.767 973.094 820.201 969.832 813.576 967.429 C 813.05 969.182 816.591 970.309 809.482 972.396 C 809.303 972.449 808.078 973.091 807.825 973.452 C 804.739 977.854 807.831 984.766 802.351 989.613 C 801.362 990.488 798.787 998.398 799.003 999.387 C 800.655 1000.79 800.625 1000.78 801.443 1002.7 C 794.542 1000.4 795.015 1001.26 790.96 994.367 C 788.512 989.659 778.805 989.582 789.404 977.649 C 797.611 968.409 789.362 959.947 805.477 957.277 z" fill="rgb(234,233,237)" fill-opacity="0.756863" transform="translate(0,0)"></path>
<path d="M 711.609 1259.62 C 719.469 1262.12 719.169 1258.83 726.699 1256.17 C 727.333 1255.95 724.376 1250.58 724.161 1250.38 C 722.345 1248.69 722.679 1238.76 723.564 1238.06 C 723.01 1237.64 725.348 1253.6 733.046 1253.46 C 737.483 1253.38 735.396 1255.82 737.589 1253.24 C 738.908 1256.91 740.414 1265.29 740.7 1269.29 C 739.76 1269.42 739.59 1269.6 739.078 1270.42 C 731.971 1277.53 710.116 1281.54 701.018 1278.13 C 721.599 1278.38 715.168 1259.64 701.321 1268.71 L 699.831 1269.64 L 700.307 1268.54 C 702.839 1262.57 705.133 1260.73 711.609 1259.62 z" fill="rgb(212,209,218)" fill-opacity="0.321569" transform="translate(0,0)"></path>
<path d="M 764 944.091 C 762.674 943.027 763.299 943.735 762.376 941.769 C 755.163 936.874 751.434 943.635 744.32 943.43 C 741.306 943.832 724.971 940.056 723.322 940.612 C 708.399 945.643 706.299 936.481 692.98 934.95 C 690.795 934.699 687.953 939.841 686.596 941.743 C 682.386 939.799 685.125 937.009 679.873 933.738 C 682.147 928.931 679.111 930.668 681.858 926.553 C 691.407 929.006 697.972 929.867 707.852 930.896 C 711.387 931.264 718.963 935.699 722.997 936.885 C 735.091 940.44 748.235 937.141 760.259 934.917 C 766.321 936.997 772.399 940.63 778.945 940.634 L 783.345 942.738 L 780.531 944.803 C 773.13 940.091 773.752 944.282 766.007 944.136 L 764 944.091 z" fill="rgb(234,233,237)" fill-opacity="0.121569" transform="translate(0,0)"></path>
<path d="M 1302.48 399.976 C 1302.84 397.077 1302.09 388.987 1302.65 387.582 C 1304.16 383.813 1314.09 383.282 1316.17 379.417 C 1317.54 376.866 1320.32 374.47 1322.93 373.362 C 1325.99 371.756 1326.88 372.791 1330.41 373.543 C 1332.43 374.942 1334.26 375.686 1336.56 374.861 C 1339.2 377.566 1344.65 386.618 1346.48 389.858 C 1344.68 389.551 1338.55 389.07 1338.14 387.04 C 1336.61 379.543 1332.94 376.442 1326.62 383.757 C 1321.5 389.68 1316.88 395.41 1309.58 399.932 C 1308.27 400.743 1312.01 406.774 1307.59 408.107 C 1305.83 405.502 1303.61 402.813 1302.48 399.976 z" fill="rgb(234,233,237)" fill-opacity="0.231373" transform="translate(0,0)"></path>
<path d="M 629.401 1471.22 L 630.062 1469.38 C 630.881 1467.09 628.65 1458.41 626.833 1456.41 C 622.883 1452.06 625.53 1446.71 624.103 1441.97 C 623.782 1440.8 622.735 1438.84 622.754 1437.57 C 626.066 1432.29 627.49 1447.78 627.937 1448.99 C 631.125 1457.64 635.502 1451.65 634.57 1465.25 C 634.202 1469.64 637.766 1469.44 639.705 1471.4 C 643.169 1474.9 642.569 1479.6 648.351 1482.18 C 648.366 1482.18 652.089 1491.19 652.23 1491.82 C 649.072 1494.78 650.772 1493.76 652.358 1496.53 C 654.581 1500.41 668.908 1513.79 665.127 1517.16 C 656.439 1509.76 633.786 1481.08 629.401 1471.22 z" fill="rgb(212,209,218)" fill-opacity="0.0588235" transform="translate(0,0)"></path>
<path d="M 738.13 1519.46 C 741.31 1520.61 746.391 1523.27 749.497 1524.87 C 748.41 1526.54 743.1 1536.35 739.853 1533.63 C 735.509 1529.99 739.561 1530.9 738.986 1528.45 C 736.605 1528.77 735.643 1531.89 735.384 1533.96 C 733.507 1549.01 720.114 1536.88 714.484 1548.57 C 714.967 1550.02 715.835 1550.5 717.044 1551.07 C 715.136 1556.49 741.866 1560.21 738.101 1565.41 C 732.36 1563.29 715.138 1555.28 710.014 1551.86 C 710.079 1551.81 710.143 1551.76 710.209 1551.72 C 710.214 1551.72 711.182 1551.22 711.255 1550.87 C 711.321 1550.57 711.212 1550.49 711.078 1550.17 C 710.49 1547.93 709.37 1542.45 710.909 1540.51 C 714.501 1536.04 720.554 1536.67 725.594 1536.21 C 729.794 1535.83 725.206 1531.85 726.491 1529.29 C 726.582 1529.26 726.673 1529.23 726.764 1529.21 C 728.424 1530.05 728.774 1532.75 729.587 1533.28 C 731.123 1530.94 726.71 1526.97 729.459 1521.89 C 732.367 1516.51 729.898 1520.15 736.119 1519.64 L 738.13 1519.46 z" fill="rgb(234,233,237)" fill-opacity="0.709804" transform="translate(0,0)"></path>
<path d="M 683.999 947.656 C 688.98 951.238 683.604 961.212 692.495 957.769 C 692.084 957.022 689.064 956.344 690.521 953.033 C 691.801 950.124 696.27 947.33 698.971 946.536 C 702.286 947.822 706.241 951.802 707.021 955.445 C 705.899 956.348 702.905 957.49 702.188 958.55 L 702.25 958.737 C 705.677 959.87 703.419 960.32 703.283 961.719 C 705.47 963.121 712.622 967.63 712.312 961.586 C 712.147 958.368 718.514 958.958 719.28 961.082 C 719.494 961.188 719.709 961.295 719.923 961.402 L 720.091 961.333 C 724.572 962.18 725.807 964.672 731.572 962.949 C 733.056 963.552 735.769 966.055 733.781 967.556 C 732.773 970.658 736.602 969.969 738.422 969.918 L 739.805 970.44 L 739.555 972.402 C 725.989 970.064 721.981 970.102 708.684 969.933 L 707.8 969.916 C 707.504 968.575 705.098 966.915 703.705 965.618 C 694.191 956.755 676.28 967.663 683.999 947.656 z" fill="rgb(254,253,254)" fill-opacity="0.305882" transform="translate(0,0)"></path>
<path d="M 797.164 951.341 C 798.325 951.976 799.027 952.597 800.102 953.422 C 797.017 953.625 794.168 952.687 791.943 954.878 C 788.327 958.439 793.369 964.784 789.265 969.576 C 786.484 972.823 782.99 973.661 781.064 978.069 C 779.322 981.822 782.259 980.971 781.406 984.523 C 779.458 986.898 779.199 987.563 778.059 990.314 C 769.901 985.002 761.437 981.093 755.919 977.508 C 757.663 973.072 755.513 970.033 761.372 972.475 C 763.022 968.356 765.783 969.495 769.945 969.569 C 772.536 969.435 777.831 968.939 780.446 969.027 C 798.182 969.623 779.762 960.772 787.88 953.876 C 793.906 948.756 789.051 951.822 797.164 951.341 z" fill="rgb(234,233,237)" fill-opacity="0.541176" transform="translate(0,0)"></path>
<path d="M 651.962 1446.78 C 654.277 1443.41 656.993 1440.18 658.229 1436.22 L 658.749 1434.66 C 666.926 1455.16 676.581 1467.81 690.549 1484.42 C 687.653 1484.53 686.886 1483.41 683.912 1483.22 C 682.42 1483.05 679.656 1481.64 678.62 1480.62 C 676.173 1478.2 676.22 1481.5 674.524 1482.34 C 673.106 1482.19 675.048 1478.04 675.193 1477.63 L 675.711 1475.87 C 674.515 1474.54 674.515 1474.65 674.207 1472.95 C 673.478 1471.13 672.994 1469.68 672 1468 C 669.879 1468 667.044 1468.91 666.071 1468.79 C 666.716 1469.4 663.284 1463.1 661.702 1461.52 C 661.638 1461.52 661.575 1461.52 661.511 1461.53 C 661.087 1461.61 660.664 1461.69 660.24 1461.77 C 659.019 1459.58 661.574 1459.08 660.917 1456.51 C 659.765 1455.39 653.752 1456.45 654.719 1452.53 C 655.43 1449.65 654.732 1447.72 651.962 1446.78 z" fill="rgb(212,209,218)" fill-opacity="0.129412" transform="translate(0,0)"></path>
<path d="M 1347.45 391.422 C 1349.14 393.416 1349.56 394.577 1350.81 396.888 C 1347.45 398.503 1347.75 397.883 1344 397.834 C 1336.88 397.922 1334.42 406.767 1326.55 406.4 C 1323.76 406.27 1321.17 408.819 1319.54 410.662 C 1315.7 414.995 1320.13 419.325 1315.51 421.388 C 1313.06 418.095 1309.72 412.885 1308.15 409.13 C 1313.38 408.008 1310.2 405.307 1314.64 402.393 C 1316.89 399.942 1329.33 397.289 1330.33 396.387 C 1335.03 392.155 1345.15 392.963 1347.45 391.422 z" fill="rgb(234,233,237)" fill-opacity="0.427451" transform="translate(0,0)"></path>
<path d="M 1307.59 408.107 C 1312.01 406.774 1308.27 400.743 1309.58 399.932 C 1316.88 395.41 1321.5 389.68 1326.62 383.757 C 1332.94 376.442 1336.61 379.543 1338.14 387.04 C 1338.55 389.07 1344.68 389.551 1346.48 389.858 L 1347.45 391.422 C 1345.15 392.963 1335.03 392.155 1330.33 396.387 C 1329.33 397.289 1316.89 399.942 1314.64 402.393 C 1310.2 405.307 1313.38 408.008 1308.15 409.13 L 1307.59 408.107 z" fill="rgb(234,233,237)" fill-opacity="0.356863" transform="translate(0,0)"></path>
<path d="M 721.248 1509.29 C 724.006 1510.82 729.55 1514.23 732.352 1516.03 C 721.952 1518.08 722.608 1521.07 718.25 1528.96 C 715.454 1534.02 699.3 1527.61 695.669 1538.16 C 694.097 1537.02 693.914 1536.87 692.61 1535.46 C 694.086 1534.45 703.06 1529.27 702.266 1526.41 C 701.179 1522.49 716.422 1530.04 715.818 1524.53 C 715.055 1523.58 707.368 1523.53 711.019 1513.96 C 712.259 1510.71 718.2 1509.83 721.248 1509.29 z" fill="rgb(234,233,237)" fill-opacity="0.541176" transform="translate(0,0)"></path>
<path d="M 793.047 948.593 C 795.079 949.377 795.34 949.822 797.164 951.341 C 789.051 951.822 793.906 948.756 787.88 953.876 C 779.762 960.772 798.182 969.623 780.446 969.027 C 777.831 968.939 772.536 969.435 769.945 969.569 C 760.196 963.112 778.26 962.149 763.129 960.717 C 760.389 958.914 756.718 958.126 754.9 956.71 L 753.444 955.615 C 755.027 955.571 765.897 955.934 766.701 956.792 C 767.621 965.037 778.239 957.733 780.298 953.557 C 781.932 950.242 783.887 952.652 787.974 949.045 C 788.89 948.114 790.336 948.786 791.532 948.692 L 793.047 948.593 z" fill="rgb(254,253,254)" fill-opacity="0.454902" transform="translate(0,0)"></path>
<path d="M 1002.28 443.808 C 1003.63 469.986 1001.32 506.106 1004.2 530.751 L 1004.73 529.05 C 1005.33 527.14 1004.96 527.795 1005.61 526.808 C 1006.15 527.168 1006.15 527.302 1006.61 527.261 C 1007.32 526.608 1007.27 521.628 1009.03 519.509 C 1008.59 519.673 1015.02 512.454 1015.84 511.641 C 1015.41 517.064 1016.19 523.229 1012.28 526.661 C 1004.84 533.199 1005.36 547.993 1005.57 556.996 C 1005.49 560.736 1005.09 575.424 1003.57 578.999 C 1003.49 578.948 1003.4 578.898 1003.32 578.847 L 1003.72 578.23 L 1002.9 577.716 C 1002.64 576.028 1002.57 574.305 1002.42 572.605 L 1002.28 443.808 z" fill="rgb(254,253,254)" fill-opacity="0.447059" transform="translate(0,0)"></path>
<path d="M 739.078 1270.42 C 739.59 1269.6 739.76 1269.42 740.7 1269.29 L 740.832 1270.25 C 742.042 1278.61 742.453 1280.28 742.72 1288.91 C 737.588 1288.82 703.223 1288.98 700.695 1288.2 C 699.707 1287.13 699.868 1280.81 699.797 1279.05 C 702.112 1280.28 706.461 1284.28 706.761 1284.44 C 714.676 1288.59 736.9 1281.37 738.716 1272.15 L 739.078 1270.42 z" fill="rgb(212,209,218)" fill-opacity="0.027451" transform="translate(0,0)"></path>
<path d="M 703.473 970.081 C 696.672 967.562 691.793 965.741 684.504 964.969 C 682.305 964.737 676.941 963.229 675.166 961.708 C 673.167 959.996 671.563 955.153 671.89 952.511 C 672.435 948.109 669.867 944.61 670.127 940.585 C 670.204 939.676 673.203 941.979 672.689 941.774 C 674.506 942.5 675.323 946.568 676.284 947.483 C 677.054 947.345 677.615 946.768 678.428 946.742 C 679.303 947.344 680.01 948.958 680.553 949.853 C 682.708 949.427 680.645 947.19 683.999 947.656 C 676.28 967.663 694.191 956.755 703.705 965.618 C 705.098 966.915 707.504 968.575 707.8 969.916 C 706.086 970.07 705.221 970.078 703.473 970.081 z" fill="rgb(212,209,218)" fill-opacity="0.129412" transform="translate(0,0)"></path>
<path d="M 742.998 964.715 C 752.102 964.355 749.6 959.41 763.129 960.717 C 778.26 962.149 760.196 963.112 769.945 969.569 C 765.783 969.495 763.022 968.356 761.372 972.475 C 755.513 970.033 757.663 973.072 755.919 977.508 C 753.72 976.726 751.467 976.069 749.312 975.176 L 748.212 974.741 C 752.423 974.033 751.317 971.482 749.989 971.127 C 745.938 970.045 745.674 972.178 739.805 970.44 L 738.422 969.918 C 735.403 965.337 738.572 964.12 742.998 964.715 z" fill="rgb(234,233,237)" fill-opacity="0.364706" transform="translate(0,0)"></path>
<path d="M 800.102 953.422 C 802.109 954.391 803.725 955.916 805.477 957.277 C 789.362 959.947 797.611 968.409 789.404 977.649 C 778.805 989.582 788.512 989.659 790.96 994.367 C 789.691 996.51 789.69 996.435 787.76 998.11 L 778.059 990.314 C 779.199 987.563 779.458 986.898 781.406 984.523 C 782.259 980.971 779.322 981.822 781.064 978.069 C 782.99 973.661 786.484 972.823 789.265 969.576 C 793.369 964.784 788.327 958.439 791.943 954.878 C 794.168 952.687 797.017 953.625 800.102 953.422 z" fill="rgb(234,233,237)" fill-opacity="0.6" transform="translate(0,0)"></path>
<path d="M 652.23 1491.82 C 654.025 1493.54 664.499 1505.93 664.765 1507.45 C 666.921 1511.37 669.696 1513.25 672.611 1516.48 C 674.8 1518.9 680.445 1526.23 682.06 1526.91 C 689.057 1529.88 687.895 1531.07 692.61 1535.46 C 693.914 1536.87 694.097 1537.02 695.669 1538.16 C 696.44 1538.71 697.357 1539.12 697.17 1540.18 C 697.373 1543.01 698.187 1542.46 699.119 1540.87 C 699.128 1541.85 699.137 1542.83 699.146 1543.8 L 697.495 1543.8 C 688.232 1539.43 672.439 1524.35 665.127 1517.16 C 668.908 1513.79 654.581 1500.41 652.358 1496.53 C 650.772 1493.76 649.072 1494.78 652.23 1491.82 z" fill="rgb(234,233,237)" fill-opacity="0.298039" transform="translate(0,0)"></path>
<path d="M 1350.81 396.888 C 1351.3 397.569 1351.8 398.251 1352.29 398.932 C 1346.72 404.186 1340.44 406.734 1331.97 414.393 C 1314.58 417.55 1325.07 419.961 1316.09 422.652 L 1315.51 421.388 C 1320.13 419.325 1315.7 414.995 1319.54 410.662 C 1321.17 408.819 1323.76 406.27 1326.55 406.4 C 1334.42 406.767 1336.88 397.922 1344 397.834 C 1347.75 397.883 1347.45 398.503 1350.81 396.888 z" fill="rgb(234,233,237)" fill-opacity="0.654902" transform="translate(0,0)"></path>
<path d="M 1005.61 526.808 C 1005.27 513.633 1006.83 510.73 1008.13 498.501 L 1008.53 494.602 C 1011.25 493.92 1012.27 485.512 1015.5 484.102 C 1015.86 484.3 1015.81 500.253 1015.72 501.056 C 1015.48 504.615 1015.44 508.1 1015.84 511.641 C 1015.02 512.454 1008.59 519.673 1009.03 519.509 C 1007.27 521.628 1007.32 526.608 1006.61 527.261 C 1006.15 527.302 1006.15 527.168 1005.61 526.808 z" fill="rgb(254,253,254)" fill-opacity="0.305882" transform="translate(0,0)"></path>
<path d="M 570.774 289.823 C 588.464 288.608 612.057 289.204 630.16 289.228 L 733.874 289.325 L 791.027 289.086 C 798.183 289.046 815.258 288.464 821.376 289.628 C 821.008 289.842 819.705 290.66 819.359 290.727 C 813.054 289.537 768.671 290.175 759.103 290.19 L 639.132 290.212 C 619.246 290.229 590.032 291.114 570.774 289.823 z" fill="rgb(63,51,135)" fill-opacity="0.839216" transform="translate(0,0)"></path>
<path d="M 733.557 1516.97 C 735.351 1517.78 736.45 1518.47 738.13 1519.46 L 736.119 1519.64 C 729.898 1520.15 732.367 1516.51 729.459 1521.89 C 726.71 1526.97 731.123 1530.94 729.587 1533.28 C 728.774 1532.75 728.424 1530.05 726.764 1529.21 C 726.673 1529.23 726.582 1529.26 726.491 1529.29 C 725.206 1531.85 729.794 1535.83 725.594 1536.21 C 720.554 1536.67 714.501 1536.04 710.909 1540.51 C 709.37 1542.45 710.49 1547.93 711.078 1550.17 C 705.598 1544.3 706.16 1545.9 699.146 1543.8 C 699.137 1542.83 699.128 1541.85 699.119 1540.87 C 702.215 1536.87 711.208 1533.56 715.501 1533.69 C 731.741 1534.16 716.083 1521.27 733.557 1516.97 z" fill="rgb(234,233,237)" fill-opacity="0.65098" transform="translate(0,0)"></path>
<path d="M 764 944.091 L 766.007 944.136 C 773.752 944.282 773.13 940.091 780.531 944.803 C 783.348 946.815 784.924 947.461 787.974 949.045 C 783.887 952.652 781.932 950.242 780.298 953.557 C 778.239 957.733 767.621 965.037 766.701 956.792 C 768.39 949.988 768.891 948.28 764 944.091 z" fill="rgb(254,253,254)" fill-opacity="0.333333" transform="translate(0,0)"></path>
<path d="M 1331.97 414.393 C 1340.44 406.734 1346.72 404.186 1352.29 398.932 C 1353.6 401.442 1354.82 403.81 1356.05 406.368 C 1354.71 407.514 1354.3 407.894 1352.51 407.997 C 1351.17 406.636 1350.96 406.31 1349.09 406.234 C 1347.07 406.151 1345.92 407.081 1344.3 408.174 C 1344.02 408.362 1343.73 408.53 1343.45 408.72 C 1340.87 410.479 1338.02 413.833 1336.18 416.325 C 1335.69 416.981 1335.12 417.271 1334.46 417.751 C 1333.71 418.302 1333.03 418.957 1332.31 419.55 C 1331.56 420.167 1330.49 420.442 1329.61 420.767 C 1329.39 420.846 1329.19 420.943 1328.97 421.025 C 1327.87 421.452 1322.5 421.582 1322.49 421.615 C 1322.24 422.683 1322.87 424.738 1323.43 425.625 C 1323.7 426.047 1323.73 425.921 1323.99 426.238 C 1324.77 427.17 1324.92 427.765 1325.21 428.888 C 1325.4 429.617 1325.7 430.313 1325.95 431.026 C 1326.14 431.603 1326.16 431.845 1326.05 432.445 C 1325.69 432.725 1325.88 432.653 1325.49 432.707 C 1322.55 431.233 1324.7 426.117 1316.61 423.508 L 1316.09 422.652 C 1325.07 419.961 1314.58 417.55 1331.97 414.393 z" fill="rgb(234,233,237)" fill-opacity="0.705882" transform="translate(0,0)"></path>
<path d="M 1298.73 394.795 C 1300.49 388.649 1297.65 388.262 1298.76 382.606 C 1299.65 379.913 1305.75 378.157 1308.07 377.823 C 1315.69 376.724 1320.44 363.557 1328.78 371.77 C 1329.32 372.361 1329.87 372.952 1330.41 373.543 C 1326.88 372.791 1325.99 371.756 1322.93 373.362 C 1320.32 374.47 1317.54 376.866 1316.17 379.417 C 1314.09 383.282 1304.16 383.813 1302.65 387.582 C 1302.09 388.987 1302.84 397.077 1302.48 399.976 C 1300.91 398.089 1300.01 396.925 1298.73 394.795 z" fill="rgb(212,209,218)" fill-opacity="0.0313725" transform="translate(0,0)"></path>
<path d="M 739.078 1270.42 L 738.716 1272.15 C 736.9 1281.37 714.676 1288.59 706.761 1284.44 C 706.461 1284.28 702.112 1280.28 699.797 1279.05 L 701.018 1278.13 C 710.116 1281.54 731.971 1277.53 739.078 1270.42 z" fill="rgb(212,209,218)" fill-opacity="0.156863" transform="translate(0,0)"></path>
<path d="M 732.352 1516.03 L 733.557 1516.97 C 716.083 1521.27 731.741 1534.16 715.501 1533.69 C 711.208 1533.56 702.215 1536.87 699.119 1540.87 C 698.187 1542.46 697.373 1543.01 697.17 1540.18 C 697.357 1539.12 696.44 1538.71 695.669 1538.16 C 699.3 1527.61 715.454 1534.02 718.25 1528.96 C 722.608 1521.07 721.952 1518.08 732.352 1516.03 z" fill="rgb(234,233,237)" fill-opacity="0.572549" transform="translate(0,0)"></path>
<path d="M 651.962 1446.78 C 644.644 1443.01 650.454 1440.52 648.145 1434.09 C 647.448 1432.15 643.116 1421.84 645.545 1420.16 C 644.627 1419.49 651.626 1435.65 656.615 1429.32 C 657.483 1431.29 657.976 1432.75 658.749 1434.66 L 658.229 1436.22 C 656.993 1440.18 654.277 1443.41 651.962 1446.78 z" fill="rgb(212,209,218)" fill-opacity="0.270588" transform="translate(0,0)"></path>
<path d="M 1234.22 291.244 C 1232.88 290.985 1232.1 290.576 1230.82 290.072 C 1232.68 288.555 1418.54 289.252 1435.8 289.413 C 1431.03 290.66 1426.1 289.65 1422.4 290.102 C 1396.3 293.293 1246.38 285.218 1234.22 291.244 z" fill="rgb(63,51,135)" fill-opacity="0.803922" transform="translate(0,0)"></path>
<path d="M 699.831 1269.64 L 701.321 1268.71 C 715.168 1259.64 721.599 1278.38 701.018 1278.13 L 699.797 1279.05 C 699.037 1276.18 698.598 1273.21 698.269 1270.26 L 698.877 1270.45 C 699.139 1270.45 699.402 1270.46 699.664 1270.47 C 699.806 1270.16 699.732 1270.39 699.831 1269.64 z M 706.366 1276.14 C 707.55 1275.69 708.358 1274.59 708.426 1273.32 C 708.494 1272.06 707.809 1270.88 706.681 1270.3 C 705.552 1269.73 704.193 1269.88 703.216 1270.69 C 702.01 1271.68 701.699 1273.4 702.48 1274.75 C 703.262 1276.1 704.906 1276.69 706.366 1276.14 z" fill="rgb(212,209,218)" fill-opacity="0.364706" transform="translate(0,0)"></path>
<path d="M 703.216 1270.69 C 704.193 1269.88 705.552 1269.73 706.681 1270.3 C 707.809 1270.88 708.494 1272.06 708.426 1273.32 C 708.358 1274.59 707.55 1275.69 706.366 1276.14 C 704.906 1276.69 703.262 1276.1 702.48 1274.75 C 701.699 1273.4 702.01 1271.68 703.216 1270.69 z" fill="rgb(212,209,218)" fill-opacity="0.439216" transform="translate(0,0)"></path>
<path d="M 693.41 1253.23 C 695.919 1241.64 686.496 1233.11 690.449 1226.56 L 690.572 1226.58 C 690.062 1225.91 692.567 1233.5 692.475 1233.07 C 693.295 1236.92 693.964 1234.7 696.307 1237.93 C 696.569 1243.01 696.288 1250.61 698.296 1255.15 C 700.387 1259.87 700.797 1264.25 698.254 1268.7 C 696.912 1264.57 696.076 1260.89 694.585 1256.62 L 694.004 1254.99 L 693.41 1253.23 z" fill="rgb(234,233,237)" fill-opacity="0.0705882" transform="translate(0,0)"></path>
<path d="M 1391.97 439.886 C 1397.32 441.38 1402.56 442.376 1407.91 444.089 C 1403.87 446.415 1393.32 454.015 1389.27 450.023 C 1388.7 447.192 1394.38 447.92 1395.11 445.986 C 1394.93 444.984 1394.18 444.481 1393.8 443.563 C 1394.31 442.888 1394.79 442.993 1394.38 442.159 C 1392.06 442.641 1388.92 443.386 1387.69 445.702 C 1387.4 446.242 1386.73 447.938 1385.75 447.561 L 1385.71 447.486 C 1378.29 446.439 1388.19 440.854 1391.97 439.886 z" fill="rgb(212,209,218)" fill-opacity="0.72549" transform="translate(0,0)"></path>
<path d="M 1356.05 406.368 C 1357.35 408.893 1358.47 411.037 1359.52 413.697 C 1358.87 415.732 1358.11 425.31 1356.49 424.722 C 1354.96 424.163 1354.75 419.041 1354.85 417.502 C 1355.06 414.411 1347.79 418.101 1350.08 414.146 C 1350.49 414.063 1350.9 413.979 1351.32 413.895 C 1352.16 412.604 1349.96 412.247 1352.51 407.997 C 1354.3 407.894 1354.71 407.514 1356.05 406.368 z" fill="rgb(234,233,237)" fill-opacity="0.678431" transform="translate(0,0)"></path>
<path d="M 696.307 1237.93 C 696.497 1238.66 696.687 1239.4 696.876 1240.13 C 696.137 1237.9 697.637 1242.58 697.587 1242.27 C 698.424 1247.57 697.261 1250.97 700.099 1255.98 C 700.377 1256.47 701.038 1257.94 701.266 1258.47 C 701.446 1258.89 701.713 1259.33 702.179 1259.48 C 702.239 1259.49 702.299 1259.5 702.36 1259.51 C 705.636 1253.04 708.041 1257.76 711.609 1259.62 C 705.133 1260.73 702.839 1262.57 700.307 1268.54 L 699.831 1269.64 C 699.732 1270.39 699.806 1270.16 699.664 1270.47 C 699.402 1270.46 699.139 1270.45 698.877 1270.45 L 698.269 1270.26 L 698.254 1268.7 C 700.797 1264.25 700.387 1259.87 698.296 1255.15 C 696.288 1250.61 696.569 1243.01 696.307 1237.93 z" fill="rgb(212,209,218)" fill-opacity="0.192157" transform="translate(0,0)"></path>
<path d="M 787.76 998.11 C 789.69 996.435 789.691 996.51 790.96 994.367 C 795.015 1001.26 794.542 1000.4 801.443 1002.7 L 801.195 1004.7 C 801.076 1005.71 801.421 1006.4 801.844 1007.35 C 801.895 1007.28 801.947 1007.22 801.999 1007.15 L 802.017 1007.39 C 801.85 1007.49 801.683 1007.6 801.516 1007.7 L 799.967 1007.17 L 800.705 1007.48 C 798.545 1006.46 796.337 1005.56 794.166 1004.56 C 792.385 1002.93 789.237 1000 787.76 998.11 z" fill="rgb(234,233,237)" fill-opacity="0.721569" transform="translate(0,0)"></path>
<path d="M 742.998 964.715 C 746.617 960.035 748.097 957.839 753.444 955.615 L 754.9 956.71 C 756.718 958.126 760.389 958.914 763.129 960.717 C 749.6 959.41 752.102 964.355 742.998 964.715 z" fill="rgb(234,233,237)" fill-opacity="0.305882" transform="translate(0,0)"></path>
<path d="M 697.495 1543.8 L 699.146 1543.8 C 706.16 1545.9 705.598 1544.3 711.078 1550.17 C 711.212 1550.49 711.321 1550.57 711.255 1550.87 C 711.182 1551.22 710.214 1551.72 710.209 1551.72 C 710.143 1551.76 710.079 1551.81 710.014 1551.86 C 705.87 1549.69 700.663 1547.15 697.495 1543.8 z" fill="rgb(234,233,237)" fill-opacity="0.572549" transform="translate(0,0)"></path>
<path d="M 783.345 942.738 C 787.297 944.809 789.408 946.008 793.047 948.593 L 791.532 948.692 C 790.336 948.786 788.89 948.114 787.974 949.045 C 784.924 947.461 783.348 946.815 780.531 944.803 L 783.345 942.738 z" fill="rgb(234,233,237)" fill-opacity="0.298039" transform="translate(0,0)"></path>
<path d="M 739.805 970.44 C 745.674 972.178 745.938 970.045 749.989 971.127 C 751.317 971.482 752.423 974.033 748.212 974.741 C 745.334 973.934 742.448 973.154 739.555 972.402 L 739.805 970.44 z" fill="rgb(212,209,218)" fill-opacity="0.266667" transform="translate(0,0)"></path>
<path d="M 672 1468 C 672.994 1469.68 673.478 1471.13 674.207 1472.95 C 665.635 1474.31 667.768 1468.78 671.525 1470.36 L 672 1468 z" fill="rgb(212,209,218)" fill-opacity="0.258824" transform="translate(0,0)"></path>
<metadata><recraft-signature>{"signed_by": "recraft", "signature_b64": "oRj2qHuxFBJxNRobpyw6l4PH839Ew8dqUNkuOXdthH2eGji8MJkmCUo45yu0usx9uee9T74riy1MaA7YNOX8Bg==", "signing_algo": "Ed25519", "generation_timestamp": 1772774614, "identifier": "c88fbf68-25d4-4be1-b3e4-3ed070ba897f"}</recraft-signature></metadata></svg>