<svg xmlns="http://www.w3.org/2000/svg" height="1024" preserveAspectRatio="none" style="display: block;" version="1.1" viewBox="0 0 2048 2048" width="1024">
<path d="M 0 0 L 2048 0 L 2048 2048 L 0 2048 L 0 0 z" fill="rgb(251,251,251)" transform="translate(0,0)"></path>
<path d="M 693.302 344.206 C 694.393 343.271 695.491 342.343 696.594 341.422 C 745.679 300.48 807.198 278.746 871.279 284.71 C 931.592 290.05 987.237 319.38 1025.73 366.119 C 1054.75 335.978 1080.58 314.908 1120.19 299.766 C 1207.86 266.26 1292.93 287.25 1362.38 346.813 C 1399.83 317.42 1430.17 297.86 1478.43 288.404 C 1541.51 276.566 1606.72 290.246 1659.73 326.44 C 1714.39 363.627 1751.86 421.168 1763.76 486.194 C 1778.68 565.882 1756.14 623.192 1712.49 687.142 C 1790.16 785.534 1784.47 907.489 1703.76 1001.32 C 1700.41 1005.21 1697.06 1009.14 1693.68 1013.03 C 1698.64 1018.35 1703.57 1023.7 1708.47 1029.09 C 1748.54 1073.59 1769.48 1132.07 1766.75 1191.89 C 1763.36 1254.85 1734.4 1310.54 1687.95 1352.44 C 1706.72 1370.89 1726.1 1389.46 1738.46 1413.14 C 1819.51 1568.42 1722.4 1740.86 1551.02 1764.73 C 1549.66 1764.87 1548.3 1765 1546.94 1765.12 C 1478.9 1771.15 1416.01 1752.39 1363.64 1708.46 C 1317.16 1744.7 1265.12 1765.46 1205.71 1765.72 C 1150.63 1766.4 1097.05 1747.76 1054.28 1713.04 C 1044.1 1704.76 1034.7 1695.13 1025.38 1685.86 C 1022.73 1689.04 1020.03 1692.17 1017.26 1695.25 C 963.956 1753.89 879.843 1777.76 803.209 1759.9 C 756.931 1749.12 726.26 1729.39 691.68 1698.12 C 649.21 1732.1 607.602 1757.6 552.149 1764.69 C 490.571 1772.56 428.389 1755.64 379.29 1717.65 C 276.188 1637.48 253.12 1488.6 327.665 1381.48 C 336.028 1369.46 343.767 1358.86 352.825 1347.28 C 330.118 1319.94 312.718 1298.04 299.916 1264.06 C 265.187 1171.89 288.127 1082.02 351.422 1010.12 C 313.236 972.03 288.161 916.083 284.709 862.504 C 280.311 794.228 300.738 738.565 344.535 687.288 C 311.186 648.552 290.496 602.857 285.401 551.706 C 279.298 487.807 298.693 424.086 339.363 374.424 C 383.528 321.114 446.144 290.709 514.513 284.403 C 514.937 284.347 515.361 284.292 515.785 284.236 C 580.18 281.115 645.52 301.456 693.302 344.206 z" fill="rgb(42,45,168)" transform="translate(0,0)"></path>
<path d="M 1359.11 605.515 C 1342.83 587.343 1328.44 570.922 1307.41 557.59 C 1293.23 548.595 1277.46 545.202 1265.53 533.504 C 1242.65 511.081 1258.78 480.877 1226.14 462.36 C 1219.34 458.5 1211.33 455.817 1203.47 455.311 C 1189.67 454.508 1176.14 459.314 1165.94 468.638 C 1151.44 481.694 1143.93 499.317 1143.16 518.697 C 1142.2 542.985 1151.91 569.632 1168.41 587.502 C 1184.68 605.113 1204.98 609.287 1225.71 619.029 C 1273.6 641.532 1306.23 682.843 1314.41 735.449 C 1317.9 757.881 1317.29 782.366 1316.77 805.092 C 1316.5 817.066 1312.32 828.522 1303.4 836.765 C 1295.39 844.168 1285.24 847.634 1274.38 847.019 C 1266.07 846.548 1257.64 842.766 1252.24 836.364 C 1234.04 814.785 1254.19 757.42 1233.61 720.509 C 1210.6 679.237 1182.53 682.88 1147.53 662.293 C 1093.27 630.327 1062.79 569.528 1069.63 506.929 C 1082.46 396.339 1214.79 334.217 1295.09 425.053 C 1316.22 448.967 1314.66 495.054 1356.65 499.64 C 1371.17 502.043 1384.27 496.569 1395.7 488.19 C 1415.74 473.499 1416.39 450.887 1425.91 434.117 C 1447.25 396.558 1497.87 377.549 1539.66 382.74 C 1579.03 387.63 1613.44 406.865 1638.02 437.597 C 1661.67 467.518 1672.43 505.626 1667.92 543.498 C 1662.96 584.134 1641.42 619.696 1609.07 645.665 C 1567.1 679.356 1502.72 677.876 1493.15 743.325 C 1490.61 760.673 1492.94 796.662 1492.44 816.319 C 1490.52 874.908 1462.62 929.601 1416.32 965.554 C 1370.96 1001.45 1313.04 1017.53 1255.67 1010.16 C 1200.31 1003.16 1145.47 974.809 1110.96 930.504 C 1126.12 920.335 1152.95 901.366 1165.75 889.022 C 1192.52 919.738 1230.59 936.006 1270.68 938.354 C 1308.88 940.591 1348.94 931.441 1378.06 906.146 C 1410.84 877.843 1417.56 843.076 1415.12 801.856 C 1413.65 762.436 1413.12 725.223 1431.81 689.56 C 1446.79 660.976 1475.11 630.087 1505.64 618.935 C 1550.55 602.531 1588.72 585.651 1594 531.278 C 1597.3 497.308 1567.87 459.494 1532.35 458.012 C 1519.92 457.406 1506.59 460.222 1497.27 468.946 C 1477.13 487.5 1487.81 511.477 1466.64 531.156 C 1454.85 542.118 1444.16 543.234 1430.03 549.578 C 1404.66 560.968 1376.47 583.641 1359.11 605.515 z" fill="rgb(251,251,251)" transform="translate(0,0)"></path>
<path d="M 904.004 1533.2 C 903.906 1481.59 899.925 1441.67 940.111 1401.27 C 962.943 1378.04 994.168 1364.99 1026.74 1365.06 C 1058.33 1365.11 1088.6 1377.77 1110.81 1400.24 C 1128.34 1418.21 1139.95 1441.12 1144.08 1465.88 C 1148.6 1492.88 1141.79 1540.99 1148.27 1562.43 C 1152.05 1574.95 1160.28 1585.08 1171.97 1591 C 1179.44 1594.78 1187.37 1597.27 1195.82 1597.25 C 1208.56 1597.23 1221.59 1591.92 1230.37 1582.66 C 1268.66 1542.25 1207.75 1456.95 1293.41 1392 C 1314.93 1375.68 1339.61 1366.63 1366.62 1365.4 C 1399.35 1363.9 1419.89 1372.74 1446.05 1391.15 C 1456.93 1398.8 1468.06 1405.89 1480.99 1409.52 C 1492.8 1412.83 1505.11 1412.46 1517.27 1412.48 C 1561.16 1412.56 1595.87 1411.02 1630.63 1442.97 C 1653.39 1464.13 1666.84 1493.45 1668.01 1524.51 C 1669.3 1560.24 1656.29 1595.01 1631.87 1621.12 C 1605.2 1649.78 1568.14 1666.53 1529 1667.59 C 1500.27 1668.6 1465 1661.64 1443.76 1641.02 C 1422.91 1620.78 1424.5 1600.88 1424.02 1574.31 C 1461.79 1588.85 1519.1 1605.45 1558.37 1588.59 C 1585.65 1576.88 1603.92 1542.81 1589.76 1514.71 C 1583.98 1503.24 1572.02 1493.67 1559.31 1490.16 C 1531.68 1484.16 1497.84 1491.02 1469.77 1485.99 C 1454.61 1483.27 1434.12 1475 1421.26 1466.65 C 1403.61 1455.19 1394.59 1438.62 1370.87 1438.3 C 1362.63 1438.24 1354.52 1440.35 1347.36 1444.41 C 1305.6 1467.71 1324.41 1524.4 1317.76 1563.7 C 1306.34 1631.26 1252.49 1674.08 1183.46 1666.23 C 1122.48 1655.92 1082.26 1615.18 1073.45 1553.8 C 1065.59 1527.68 1081.9 1474.11 1060.76 1454.41 C 1025.28 1421.34 979.837 1442.71 979.081 1490.8 C 961.802 1503.59 948.708 1512.41 929.005 1522.16 C 921.318 1525.97 910.496 1529.88 904.004 1533.2 z" fill="rgb(251,251,251)" transform="translate(0,0)"></path>
<path d="M 1073.45 1553.8 C 1097.08 1573.44 1112.59 1575.54 1139.04 1587.63 C 1170.2 1601.88 1185.13 1632.35 1183.46 1666.23 C 1122.48 1655.92 1082.26 1615.18 1073.45 1553.8 z" fill="rgb(193,192,194)" transform="translate(0,0)"></path>
<path d="M 645.369 432.132 C 594.549 484.101 509.939 434.286 471.124 471.74 C 460.9 481.606 454.57 496.393 454.813 510.606 C 455.068 525.475 462.26 537.74 472.829 547.699 C 477.515 552.114 483.198 556.4 489.369 558.381 C 505.513 563.562 555.957 561.492 575.003 560.779 C 623.107 559.202 669.167 540.955 705.301 509.162 C 727.337 489.596 726.527 487.944 736.324 462.204 C 752.653 420.344 800.639 382.05 846.535 381.737 C 927.747 381.183 984.981 447.927 983.983 527.029 C 983.139 593.87 951.492 646.118 891.6 676.24 C 868.162 688.027 844.019 691.928 825.734 712.538 C 800.392 738.483 804.766 763.901 805.123 797.75 C 805.559 819.551 805.605 840.146 780.622 847.493 C 769.744 850.692 759.212 847.917 749.659 842.184 C 721.074 825.029 729.598 790.833 728.748 763.216 C 727.694 703.008 770.613 653.059 822.548 628.031 C 830.193 624.346 838.487 622.374 846.438 619.463 C 867.487 611.256 884.68 598.376 896.772 579.056 C 912.557 553.839 912.933 527.154 907.315 498.76 C 904.452 484.29 893.603 470.824 881.156 463.167 C 869.166 455.79 854.715 453.538 841.049 456.919 C 831.92 459.227 824.296 463.581 817.355 470.22 C 801.354 485.526 805.576 507.089 794.815 524.989 C 786.2 539.319 774.085 543.542 761.477 552.695 C 751.757 560.609 741.322 569.556 732.183 578.037 C 695.889 611.715 646.539 636.188 595.821 628.968 C 571.657 625.527 547.92 619.482 522.463 619.021 C 492.76 618.484 468.368 623.878 439.64 631.158 C 411.927 602.354 386.729 575.218 382.792 533.585 C 375.304 454.424 438.83 390.874 514.518 382.386 C 514.73 382.35 514.941 382.315 515.153 382.28 C 567.286 378.351 607.02 399.669 645.369 432.132 z" fill="rgb(251,251,251)" transform="translate(0,0)"></path>
<path d="M 1031.21 697.755 C 1059.2 729.366 1103.93 745.47 1125.16 775.32 C 1136.51 790.989 1143.34 809.472 1144.91 828.755 C 1147.3 857.728 1148.76 864.279 1165.75 889.022 C 1152.95 901.366 1126.12 920.335 1110.96 930.504 C 1096.72 913.932 1085.76 894.799 1078.68 874.127 C 1069.55 848.069 1073.75 822.765 1050.14 807.88 C 1043.72 803.834 1036.4 801.455 1028.83 800.958 C 1016.22 800.228 1003.97 805.088 994.764 813.771 C 978.278 829.325 983.635 846.478 979.818 864.529 C 969.462 913.502 940.754 948.211 899.671 975.127 C 889.222 982.84 874.438 990.117 862.504 995.139 C 781.501 1029.22 671.189 1019.23 606.426 956.806 C 580.447 932.684 561.903 900.272 558.827 864.614 C 556.845 841.629 563.5 823.303 547.115 803.737 C 538.618 793.627 526.453 787.308 513.297 786.168 C 485.811 783.907 461.37 806.004 461.047 833.802 C 460.532 878.208 459.082 910.736 490.389 944.91 C 469.409 946.627 455.69 951.016 435.849 957.247 C 411.357 928.427 389.338 903.966 383.848 865.361 C 378.678 829.006 387.125 796.513 409.089 767.061 C 431.052 737.712 463.733 718.243 499.999 712.902 C 530.546 708.791 561.488 716.808 586.194 735.237 C 611.363 754.187 632.687 791.961 633.194 822.832 C 633.85 862.769 635.617 885.508 670.676 911.605 C 706.223 938.065 758.355 942.832 801.492 937.307 C 847.092 931.466 891.021 902.086 900.672 854.863 C 903.175 843.192 902.446 834.971 903.259 823.437 C 904.749 804.506 912.492 786.607 925.269 772.558 C 940.936 755.529 954.968 752.161 974.965 743.036 C 1000.98 731.163 1014.58 720.331 1031.21 697.755 z" fill="rgb(251,251,251)" transform="translate(0,0)"></path>
<path d="M 606.426 956.806 C 665.783 957.146 741.329 958.169 800.651 963.106 C 818.236 964.489 835.772 966.445 853.229 968.971 C 866.541 970.978 886.747 975.15 899.671 975.127 C 889.222 982.84 874.438 990.117 862.504 995.139 C 781.501 1029.22 671.189 1019.23 606.426 956.806 z" fill="rgb(193,192,194)" transform="translate(0,0)"></path>
<path d="M 1483.67 1054.63 C 1496.44 1048.71 1510.09 1044.96 1524.09 1043.52 C 1557.8 1040.29 1591.47 1054.23 1617.06 1075.58 C 1646.41 1101.76 1666.26 1136.9 1668.59 1176.63 C 1670.55 1212.07 1658.14 1246.81 1634.18 1273 C 1609.83 1300.27 1575.53 1316.59 1539.01 1318.27 C 1506.09 1319.76 1473.38 1310.03 1448.94 1287.36 C 1440.86 1279.97 1434.15 1271.2 1429.12 1261.47 C 1424.7 1252.83 1421.45 1241.85 1417.66 1232.78 C 1402.79 1197.3 1358.41 1183.59 1330.61 1213.5 C 1319.28 1225.7 1318.29 1238.88 1311.92 1253.42 C 1292.98 1293.79 1251.02 1320.35 1207.02 1323.31 C 1172.22 1325.84 1137.84 1314.39 1111.49 1291.52 C 1087.53 1270.85 1073.01 1241.33 1071.27 1209.73 C 1070.87 1203.57 1071.02 1197.38 1071.71 1191.24 C 1090.97 1190.85 1112.45 1187.15 1131.15 1182.67 C 1134.56 1181.85 1139.31 1180.23 1142.42 1180.84 C 1141.13 1200.28 1141.94 1217.05 1155.54 1232.85 C 1165.33 1244.26 1179.38 1251.15 1194.4 1251.89 C 1208.98 1252.54 1223.2 1247.2 1233.75 1237.11 C 1245.88 1225.73 1249.42 1213.59 1253.89 1198.1 C 1267.65 1162.99 1304.67 1142.48 1340.1 1135.84 C 1380.8 1128.21 1416.8 1135.27 1451.09 1158.21 C 1459.81 1164.62 1480.29 1182.64 1484.69 1192.63 C 1490.58 1205.99 1490.71 1212.26 1500.64 1224.49 C 1535.54 1267.51 1592.38 1237.13 1594.65 1188.51 C 1596.22 1153.72 1577.54 1136.04 1555.88 1111.68 C 1529.29 1083.42 1516.19 1074.94 1483.67 1054.63 z" fill="rgb(251,251,251)" transform="translate(0,0)"></path>
<path d="M 1253.89 1198.1 C 1267.65 1162.99 1304.67 1142.48 1340.1 1135.84 C 1380.8 1128.21 1416.8 1135.27 1451.09 1158.21 C 1399.93 1177.79 1351.62 1185.45 1297.59 1193.57 C 1283.23 1195.72 1267.3 1196.1 1253.89 1198.1 z" fill="rgb(193,192,194)" transform="translate(0,0)"></path>
<path d="M 417.689 1086.26 C 444.169 1056.3 474.993 1037.48 515.862 1035.11 C 549.991 1033.12 583.487 1044.93 608.822 1067.88 C 630.512 1087.43 634.004 1101.8 649.124 1121.21 C 662.317 1134.86 675.954 1144.2 695.99 1144.18 C 708.914 1144.28 721.359 1139.3 730.64 1130.31 C 747.498 1132.67 795.516 1139.08 810.764 1143.08 C 794.699 1186.01 772.253 1187.95 737.077 1212.19 C 723.532 1221.53 709.436 1237.94 699.064 1250.66 C 678.987 1227.68 658.906 1211.65 630.711 1199.3 C 614.742 1192.31 599.887 1186.15 586.157 1175.44 C 571.97 1165.78 572.271 1152.38 566.281 1137.95 C 559.025 1120.48 537.548 1108.8 518.986 1107.43 C 485.098 1104.95 454.79 1135.68 454.139 1168.89 C 453.704 1191.07 464.397 1213.87 479.881 1229.43 C 497.789 1247.5 520.651 1252.06 543.171 1261.7 C 595.169 1283.96 632.404 1325.28 633.164 1384.01 C 633.191 1386.91 633.163 1389.82 633.08 1392.72 C 632.663 1397.45 630.897 1446.84 631.515 1445.43 C 624.732 1441.43 572.367 1447.99 564.06 1451.19 L 562.613 1452.89 C 559.923 1443.16 564.18 1423.32 560.996 1414.48 C 560.926 1404.34 561.107 1392.62 559.811 1382.79 C 557.38 1358.7 535.979 1333.29 512.941 1325.58 C 483.776 1315.82 463.781 1310.07 438.158 1290.36 C 408.32 1267.11 388.899 1233 384.138 1195.47 C 378.876 1155 393.395 1117.99 417.689 1086.26 z" fill="rgb(251,251,251)" transform="translate(0,0)"></path>
<path d="M 417.689 1086.26 C 444.169 1056.3 474.993 1037.48 515.862 1035.11 C 549.991 1033.12 583.487 1044.93 608.822 1067.88 C 630.512 1087.43 634.004 1101.8 649.124 1121.21 C 642.813 1119.92 634.181 1117.26 627.326 1115.7 C 608.394 1111.54 589.394 1107.68 570.335 1104.14 C 517.993 1094.74 470.352 1090.27 417.689 1086.26 z" fill="rgb(193,192,194)" transform="translate(0,0)"></path>
<path d="M 633.08 1392.72 C 634.822 1414.19 634.519 1442.4 633.974 1464.16 C 632.513 1522.55 644.414 1579.17 603.395 1627.21 C 584.084 1649.94 556.447 1663.94 526.702 1666.08 C 491.813 1668.47 455.964 1655.07 429.864 1632.14 C 401.948 1607.29 385.075 1572.35 382.972 1535.03 C 379.744 1483.7 402.107 1449.33 427.306 1406.11 C 448.828 1424.87 457.659 1446.41 460.605 1475.45 C 463.995 1508.85 451.894 1559.61 479.966 1584.28 C 489.629 1592.77 505.612 1595.98 518.194 1594.59 C 530.991 1593.27 542.643 1586.63 550.309 1576.3 C 563.286 1558.97 560.537 1540.53 560.675 1519.87 C 560.837 1497.94 560.865 1476.01 560.76 1454.08 C 560.717 1442.18 560.147 1426.05 560.996 1414.48 C 564.18 1423.32 559.923 1443.16 562.613 1452.89 L 564.06 1451.19 C 572.367 1447.99 624.732 1441.43 631.515 1445.43 C 630.897 1446.84 632.663 1397.45 633.08 1392.72 z" fill="rgb(193,192,194)" transform="translate(0,0)"></path>
<path d="M 908.89 1181.12 C 919.904 1184.48 931.095 1187.22 942.413 1189.34 C 948.127 1190.46 978.842 1195.34 982.376 1197.21 C 983.221 1200.23 983.196 1200.64 983.396 1203.81 C 978.801 1243.9 960.472 1274.22 928.76 1299.3 C 916.303 1309.29 902.439 1317.38 887.618 1323.32 C 878.191 1327.03 865.165 1331.49 856.514 1335.93 C 832.009 1348.51 808.518 1373.67 805.513 1402.09 C 804.153 1414.96 804.788 1435.62 804.831 1449.18 L 804.999 1535.7 C 766.137 1517.34 757.001 1484.44 741.36 1446.87 C 737.459 1437.5 734.9 1424.28 729.98 1415.74 C 729.385 1355.4 769.392 1297.37 823.377 1272.26 C 852.459 1258.73 881.414 1252.32 900.054 1223.44 C 909.939 1208.12 909.608 1198.43 908.89 1181.12 z" fill="rgb(251,251,251)" transform="translate(0,0)"></path>
<path d="M 729.98 1415.74 C 734.9 1424.28 737.459 1437.5 741.36 1446.87 C 757.001 1484.44 766.137 1517.34 804.999 1535.7 C 804.655 1553.08 806.173 1566.38 818.786 1580.13 C 828.144 1590.14 841.221 1595.83 854.921 1595.87 C 876.822 1596.03 894.292 1582.57 901.324 1562.13 C 904.776 1552.1 904.152 1543.52 904.004 1533.2 C 910.496 1529.88 921.318 1525.97 929.005 1522.16 C 948.708 1512.41 961.802 1503.59 979.081 1490.8 L 979.123 1495.67 C 979.575 1549.97 981.657 1586.78 940.276 1630.57 C 917.658 1654.5 883.916 1667.01 850.962 1666.84 C 819.94 1666.54 790.318 1653.88 768.676 1631.65 C 727.516 1589.92 729.749 1549.02 729.768 1495.7 L 729.98 1415.74 z" fill="rgb(193,192,194)" transform="translate(0,0)"></path>
<path d="M 730.64 1130.31 C 739.152 1117.83 745.146 1103.6 752.421 1090.35 C 786.191 1028.85 863.456 1017.8 919.103 1056.46 C 951.753 1079.54 974.053 1114.5 981.215 1153.83 C 983.184 1165.05 985.252 1192.78 983.396 1203.81 C 983.196 1200.64 983.221 1200.23 982.376 1197.21 C 978.842 1195.34 948.127 1190.46 942.413 1189.34 C 931.095 1187.22 919.904 1184.48 908.89 1181.12 C 904.723 1162.89 908.888 1148.68 896.835 1131.09 C 873.779 1097.44 818.892 1096.84 810.764 1143.08 C 795.516 1139.08 747.498 1132.67 730.64 1130.31 z" fill="rgb(193,192,194)" transform="translate(0,0)"></path>
<path d="M 1625.29 738.97 C 1649.6 762.428 1664.66 793.854 1667.71 827.5 C 1673.15 885.553 1650.87 913.95 1616.74 954.795 L 1602.02 949.681 C 1585.16 945.43 1574.4 943.55 1557.25 941.747 C 1579.2 905.563 1595.91 872.032 1593.75 828.44 C 1593.09 814.969 1590.39 797.447 1592.13 784.591 C 1595.1 762.701 1608.9 751.328 1625.29 738.97 z" fill="rgb(193,192,194)" transform="translate(0,0)"></path>
<path d="M 1071.71 1191.24 C 1084.23 1112.46 1151.22 1067.88 1228.74 1071.38 C 1233.67 1071.6 1238.59 1071.91 1243.51 1072.22 C 1206.01 1097.11 1152.01 1134.4 1142.42 1180.84 C 1139.31 1180.23 1134.56 1181.85 1131.15 1182.67 C 1112.45 1187.15 1090.97 1190.85 1071.71 1191.24 z" fill="rgb(193,192,194)" transform="translate(0,0)"></path>
<metadata><recraft-signature>{"signed_by": "recraft", "signature_b64": "goY0Ekj1SPS0DTNeHfkDzWtvIDRh9lxAySLeSD+YqPYB+HMnGR1cpuT4tRKGIEf7sJ8wSG1A28Y9b2CYNv3EBA==", "signing_algo": "Ed25519", "generation_timestamp": 1772774549, "identifier": "80411797-26a5-46b3-a576-edaa3e1fec61"}</recraft-signature></metadata></svg>