<svg xmlns="http://www.w3.org/2000/svg" height="1024" preserveAspectRatio="none" style="display: block;" version="1.1" viewBox="0 0 2048 2048" width="1024">
<defs>
	<linearGradient gradientUnits="userSpaceOnUse" id="Gradient1" x1="909.664" x2="261.101" y1="1290.45" y2="1351.73">
		<stop class="stop0" offset="0" stop-color="rgb(211,210,211)" stop-opacity="1"></stop>
		<stop class="stop1" offset="1" stop-color="rgb(255,254,255)" stop-opacity="1"></stop>
	</linearGradient>
</defs>
<path d="M 0 0 L 2048 0 L 2048 2048 L 0 2048 L 0 0 z" fill="rgb(254,254,254)" transform="translate(0,0)"></path>
<path d="M 915.427 346.383 C 927.447 363.361 969.148 380.559 989.828 384.851 C 1103.99 408.544 1156.38 275.345 1261.39 262.374 C 1287.4 259.162 1310.24 259.266 1335.45 264.694 C 1348.45 267.506 1361.16 271.534 1373.41 276.725 C 1390.99 284.384 1432.21 309.276 1442.37 325.117 C 1452.49 330.982 1458.8 336.443 1467.34 344.456 C 1469.63 345.472 1483.27 355.606 1486.57 357.891 C 1501.13 367.843 1516.97 375.767 1533.65 381.446 C 1573.98 395.384 1618.32 391.599 1655.71 371.028 C 1668.62 364.065 1680.77 354.504 1693.68 347.159 C 1722.29 330.879 1755.56 317.512 1788.78 315.662 C 1792.01 315.482 1794.72 315.436 1796.91 317.452 L 1796.29 319.342 C 1795.64 322.47 1794.88 325.324 1794.08 328.412 C 1786.28 355.434 1780.31 361.012 1769.51 383.888 C 1787.57 423.876 1796.12 458.585 1798.78 502.598 C 1799.58 515.746 1799.15 530.074 1800 542.644 C 1800 544.287 1800.1 546.594 1799.89 548.157 L 1799.84 684.692 C 1800.81 718.213 1800.08 755.115 1799.98 788.879 L 1799.98 944.111 C 1800 967.801 1800.65 995.174 1799.85 1018.55 C 1799.99 1021.76 1800.05 1024.4 1800.02 1027.65 C 1800 1093.42 1800.58 1159.96 1799.84 1225.65 C 1800.52 1238.32 1800.18 1257.31 1800 1270.25 L 1799.89 1397.8 C 1799.89 1430.46 1800.74 1464.48 1796 1496.81 C 1795.74 1502.05 1791.12 1531.06 1789.44 1534.23 C 1763.58 1630.1 1708.94 1702.95 1622.43 1752.79 C 1588.66 1772.23 1551.78 1785.64 1513.41 1792.44 C 1480.67 1797.99 1452.29 1797.57 1419.21 1797.6 L 1336.03 1797.6 C 1248.98 1797.64 1160.55 1798.34 1073.58 1797.25 C 1070.84 1794.61 1057.33 1788.09 1053.06 1785.77 C 1042.18 1779.83 1032.28 1772.23 1023.71 1763.25 C 998.554 1737.31 981.685 1698.38 982.084 1661.9 L 986.211 1662.53 C 985.761 1639.4 987.084 1610.14 989.202 1587.03 C 990.089 1583.46 991.515 1572.28 992.266 1567.86 L 1000.08 1522.15 C 970.626 1540.18 949.984 1546.64 915.404 1546.94 C 910.85 1542.28 906.762 1536.89 902.669 1531.78 C 822.055 1442.92 693.111 1427.18 604.12 1512.53 C 560.884 1553.99 526.714 1593.31 461.503 1589.92 C 416.011 1587.55 386.899 1566.64 351.89 1541.18 C 317.425 1517.79 294.656 1503.92 252.28 1497.72 C 247.667 1461.24 248.807 1427.12 248.951 1390.36 C 249.107 1350.28 248.629 1309.86 249.135 1269.82 L 248.651 1266.31 L 250.914 1265.01 L 251.024 1262.95 L 248.795 1261.41 L 249.139 1021.32 L 248.98 1019.98 L 249.156 1019.23 C 247.798 943.775 249.151 865.996 248.76 790.231 L 252.312 788.872 C 251.982 787.202 251.671 785.528 251.38 783.851 L 248.886 780.782 C 247.915 753.342 248.87 721.93 248.907 694.187 C 248.668 646.963 248.702 599.737 249.008 552.513 L 248.973 544.842 C 249.118 477.989 252.715 445.423 279.549 383.198 C 265.43 362.23 256.93 342.357 251.845 317.792 C 265.994 341.383 276.541 358.65 294.751 379.749 C 335.342 426.777 390.702 459.399 453.463 463.809 C 504.576 466.916 555.234 452.603 597.164 423.207 C 620.959 406.531 643.98 384.316 666.44 365.279 C 726.212 314.616 805.639 294.162 880.216 322.98 C 896.005 329.081 904.276 333.511 915.427 346.383 z" fill="rgb(29,5,107)" transform="translate(0,0)"></path>
<path d="M 915.427 346.383 C 927.447 363.361 969.148 380.559 989.828 384.851 C 1103.99 408.544 1156.38 275.345 1261.39 262.374 C 1287.4 259.162 1310.24 259.266 1335.45 264.694 C 1348.45 267.506 1361.16 271.534 1373.41 276.725 C 1390.99 284.384 1432.21 309.276 1442.37 325.117 C 1452.49 330.982 1458.8 336.443 1467.34 344.456 C 1469.63 345.472 1483.27 355.606 1486.57 357.891 C 1501.13 367.843 1516.97 375.767 1533.65 381.446 C 1573.98 395.384 1618.32 391.599 1655.71 371.028 C 1668.62 364.065 1680.77 354.504 1693.68 347.159 C 1722.29 330.879 1755.56 317.512 1788.78 315.662 C 1792.01 315.482 1794.72 315.436 1796.91 317.452 L 1796.29 319.342 C 1795.64 322.47 1794.88 325.324 1794.08 328.412 C 1786.28 355.434 1780.31 361.012 1769.51 383.888 C 1787.57 423.876 1796.12 458.585 1798.78 502.598 C 1799.58 515.746 1799.15 530.074 1800 542.644 C 1800 544.287 1800.1 546.594 1799.89 548.157 L 1799.84 684.692 C 1800.81 718.213 1800.08 755.115 1799.98 788.879 L 1798.11 785.365 L 1798.6 781.789 C 1708.77 784.417 1680.04 859.01 1607.83 867.465 L 1603.24 868.662 C 1593.8 885.28 1561.63 911.624 1545.45 923.688 C 1538.96 928.533 1530.49 933.347 1524.08 937.991 C 1480.64 927.964 1456.49 910.726 1421.95 885.402 C 1411.85 886.087 1378.01 873.948 1361.22 872.097 C 1335.92 884.987 1310.53 901.222 1285.16 914.856 C 1200.49 960.372 1107.85 996.783 1011.82 1007.97 C 977.439 1011.98 942.506 1012.74 908.002 1014.48 C 898.23 1014.97 867.975 1014.54 860.695 1016.62 C 842.814 1004.55 832.801 998.195 813.686 989.315 C 748.125 958.857 680.572 974.218 623.93 1015.62 C 619.72 1018.69 603.589 1031.86 599.981 1033.61 C 595.558 1033.62 548.051 1050.56 536.541 1053.3 C 494.743 1063.24 446.715 1069.55 403.845 1067.67 C 389.36 1067.04 368.133 1063.61 362.953 1066.34 C 355.78 1062.4 343.046 1053.14 335.043 1048.09 C 312.281 1033.74 276.256 1018.73 248.98 1019.98 L 249.156 1019.23 C 247.798 943.775 249.151 865.996 248.76 790.231 L 252.312 788.872 C 251.982 787.202 251.671 785.528 251.38 783.851 L 248.886 780.782 C 247.915 753.342 248.87 721.93 248.907 694.187 C 248.668 646.963 248.702 599.737 249.008 552.513 L 248.973 544.842 C 249.118 477.989 252.715 445.423 279.549 383.198 C 265.43 362.23 256.93 342.357 251.845 317.792 C 265.994 341.383 276.541 358.65 294.751 379.749 C 335.342 426.777 390.702 459.399 453.463 463.809 C 504.576 466.916 555.234 452.603 597.164 423.207 C 620.959 406.531 643.98 384.316 666.44 365.279 C 726.212 314.616 805.639 294.162 880.216 322.98 C 896.005 329.081 904.276 333.511 915.427 346.383 z" fill="rgb(46,29,212)" transform="translate(0,0)"></path>
<path d="M 251.845 317.792 C 265.994 341.383 276.541 358.65 294.751 379.749 C 335.342 426.777 390.702 459.399 453.463 463.809 C 504.576 466.916 555.234 452.603 597.164 423.207 C 620.959 406.531 643.98 384.316 666.44 365.279 C 726.212 314.616 805.639 294.162 880.216 322.98 C 896.005 329.081 904.276 333.511 915.427 346.383 C 885.865 347.899 858.189 361.366 838.753 383.692 C 838.421 384.093 838.09 384.495 837.759 384.897 C 853.241 391.14 874.293 407.907 888.293 417.936 C 913.637 436.092 934.899 446.918 964.585 456.053 C 957.919 459.304 950.444 461.11 943.407 463.445 C 910.935 474.22 865.999 501.981 842.418 527.592 C 859.29 538.223 881.284 551.543 893.541 567.471 C 901.061 573.104 908.111 577.91 914.023 585.238 C 882.973 589.806 860.867 600.085 839.883 624.253 L 849.443 630.315 C 823.129 663.318 788.044 690.379 754.219 715.411 C 746.432 721.174 722.744 734.921 717.261 740.165 C 679.713 747.006 662.202 754.024 630.022 774.657 C 600.013 793.897 579.306 820.457 552.471 840.941 C 498.545 882.104 429.09 877.232 375.267 838.397 C 346.178 817.409 319.288 797.916 283.816 788.973 C 272.107 786.02 261.418 785.305 251.545 783.013 L 251.38 783.851 L 248.886 780.782 C 247.915 753.342 248.87 721.93 248.907 694.187 C 248.668 646.963 248.702 599.737 249.008 552.513 L 248.973 544.842 C 249.118 477.989 252.715 445.423 279.549 383.198 C 265.43 362.23 256.93 342.357 251.845 317.792 z" fill="rgb(29,5,107)" transform="translate(0,0)"></path>
<path d="M 251.845 317.792 C 265.994 341.383 276.541 358.65 294.751 379.749 C 335.342 426.777 390.702 459.399 453.463 463.809 C 504.576 466.916 555.234 452.603 597.164 423.207 C 620.959 406.531 643.98 384.316 666.44 365.279 C 726.212 314.616 805.639 294.162 880.216 322.98 C 896.005 329.081 904.276 333.511 915.427 346.383 C 885.865 347.899 858.189 361.366 838.753 383.692 C 838.421 384.093 838.09 384.495 837.759 384.897 C 853.241 391.14 874.293 407.907 888.293 417.936 C 913.637 436.092 934.899 446.918 964.585 456.053 C 957.919 459.304 950.444 461.11 943.407 463.445 C 910.935 474.22 865.999 501.981 842.418 527.592 C 802.968 505.659 767.178 497.517 721.799 501.309 C 671.566 505.507 633.633 529.245 596.201 560.958 C 592.394 566.083 559.74 593.058 553.809 597.984 C 506.421 637.344 439.437 639.133 387.623 607.152 C 367.308 594.613 347.737 578.68 326.487 567.764 C 301.38 554.868 279.591 549.328 251.745 546.266 C 250.426 545.217 250.572 545.279 248.973 544.842 C 249.118 477.989 252.715 445.423 279.549 383.198 C 265.43 362.23 256.93 342.357 251.845 317.792 z" fill="rgb(46,29,212)" transform="translate(0,0)"></path>
<path d="M 596.201 560.958 C 596.106 553.244 603.559 542.523 606.702 535.428 C 643.92 451.417 716.794 372.96 816.525 382.373 C 823.794 383.059 830.229 385.347 837.759 384.897 C 853.241 391.14 874.293 407.907 888.293 417.936 C 913.637 436.092 934.899 446.918 964.585 456.053 C 957.919 459.304 950.444 461.11 943.407 463.445 C 910.935 474.22 865.999 501.981 842.418 527.592 C 802.968 505.659 767.178 497.517 721.799 501.309 C 671.566 505.507 633.633 529.245 596.201 560.958 z" fill="rgb(29,5,107)" transform="translate(0,0)"></path>
<path d="M 596.201 560.958 C 633.633 529.245 671.566 505.507 721.799 501.309 C 767.178 497.517 802.968 505.659 842.418 527.592 C 859.29 538.223 881.284 551.543 893.541 567.471 C 839.62 542.781 790.025 542.334 734.705 562.843 C 707.07 572.91 681.549 588.03 659.444 607.431 C 646.601 618.844 634.253 631.859 621.205 642.927 C 571.111 685.42 511.361 709.836 445.012 704.065 C 419.165 723.611 371.781 730.503 342.319 743.152 C 328.561 749.059 258.575 775.384 251.545 783.013 L 251.38 783.851 L 248.886 780.782 C 247.915 753.342 248.87 721.93 248.907 694.187 C 248.668 646.963 248.702 599.737 249.008 552.513 L 248.973 544.842 C 250.572 545.279 250.426 545.217 251.745 546.266 C 279.591 549.328 301.38 554.868 326.487 567.764 C 347.737 578.68 367.308 594.613 387.623 607.152 C 439.437 639.133 506.421 637.344 553.809 597.984 C 559.74 593.058 592.394 566.083 596.201 560.958 z" fill="rgb(236,235,236)" transform="translate(0,0)"></path>
<path d="M 250.834 550.486 C 258.392 566.411 268.981 588.505 278.946 602.602 C 306.875 642.112 347.292 676.06 392.99 692.144 C 409.81 698.118 427.268 702.118 445.012 704.065 C 419.165 723.611 371.781 730.503 342.319 743.152 C 328.561 749.059 258.575 775.384 251.545 783.013 L 251.38 783.851 L 248.886 780.782 C 247.915 753.342 248.87 721.93 248.907 694.187 C 248.668 646.963 248.702 599.737 249.008 552.513 L 250.834 550.486 z" fill="rgb(46,29,212)" transform="translate(0,0)"></path>
<path d="M 248.973 544.842 C 250.572 545.279 250.426 545.217 251.745 546.266 C 250.997 548.222 251.091 548.283 250.834 550.486 L 249.008 552.513 L 248.973 544.842 z" fill="rgb(71,51,172)" transform="translate(0,0)"></path>
<path d="M 717.261 740.165 C 780.261 735.15 834.675 753.244 882.685 794.263 C 888.878 799.571 894.941 805.03 900.868 810.634 L 897.735 811.421 C 851.718 787.153 797.868 782.436 748.334 798.334 C 692.889 815.626 663.146 846.258 621.313 883.179 C 591.146 909.804 546.95 932.333 507.816 940.763 C 499.157 942.629 489.116 942.621 480.293 944.756 C 474.302 950.899 462.326 956.244 454.526 959.97 C 406.052 983.13 352.295 992.007 300.595 1005.28 C 290.023 1008 257.363 1019.53 249.156 1019.23 C 247.798 943.775 249.151 865.996 248.76 790.231 L 252.312 788.872 C 251.982 787.202 251.671 785.528 251.38 783.851 L 251.545 783.013 C 261.418 785.305 272.107 786.02 283.816 788.973 C 319.288 797.916 346.178 817.409 375.267 838.397 C 429.09 877.232 498.545 882.104 552.471 840.941 C 579.306 820.457 600.013 793.897 630.022 774.657 C 662.202 754.024 679.713 747.006 717.261 740.165 z" fill="rgb(236,235,236)" transform="translate(0,0)"></path>
<path d="M 252.312 788.872 C 257.517 804.578 265.1 816.05 273.75 829.759 C 322.554 907.107 387.354 949.973 480.293 944.756 C 474.302 950.899 462.326 956.244 454.526 959.97 C 406.052 983.13 352.295 992.007 300.595 1005.28 C 290.023 1008 257.363 1019.53 249.156 1019.23 C 247.798 943.775 249.151 865.996 248.76 790.231 L 252.312 788.872 z" fill="rgb(29,5,107)" transform="translate(0,0)"></path>
<path d="M 914.023 585.238 C 918.211 589.169 928.914 596.532 934.041 599.832 C 965.411 620.024 992.631 630.308 1030.05 629.249 C 1094.92 627.413 1125.1 580.834 1170.78 544.129 C 1190.73 528.1 1212.07 516.02 1236.33 508.034 C 1262.67 499.363 1289.04 496.804 1316.59 499.993 C 1366.32 505.749 1408.35 530.06 1444.26 563.759 C 1446.14 565.504 1447.99 567.281 1449.81 569.088 C 1401.65 546.037 1340.69 545.711 1290.51 563.197 C 1229.22 584.558 1209.68 619.751 1163.78 656.751 C 1099.39 708.654 1007.94 720.7 932.389 685.574 C 895.204 668.285 879.515 648.505 849.443 630.315 L 839.883 624.253 C 860.867 600.085 882.973 589.806 914.023 585.238 z" fill="rgb(236,235,236)" transform="translate(0,0)"></path>
<path d="M 915.427 346.383 C 927.447 363.361 969.148 380.559 989.828 384.851 C 1103.99 408.544 1156.38 275.345 1261.39 262.374 C 1287.4 259.162 1310.24 259.266 1335.45 264.694 C 1348.45 267.506 1361.16 271.534 1373.41 276.725 C 1390.99 284.384 1432.21 309.276 1442.37 325.117 C 1384.69 303.792 1331.37 302.445 1274.73 328.715 C 1253.55 338.55 1233.79 351.202 1215.99 366.329 C 1190.64 387.94 1168.82 413.343 1140.13 430.507 C 1092.26 459.15 1035.3 471.73 980.388 459.502 C 976.606 458.66 968.046 456.379 964.585 456.053 C 934.899 446.918 913.637 436.092 888.293 417.936 C 874.293 407.907 853.241 391.14 837.759 384.897 C 838.09 384.495 838.421 384.093 838.753 383.692 C 858.189 361.366 885.865 347.899 915.427 346.383 z" fill="rgb(236,235,236)" transform="translate(0,0)"></path>
<path d="M 1467.34 344.456 C 1469.63 345.472 1483.27 355.606 1486.57 357.891 C 1501.13 367.843 1516.97 375.767 1533.65 381.446 C 1573.98 395.384 1618.32 391.599 1655.71 371.028 C 1668.62 364.065 1680.77 354.504 1693.68 347.159 C 1722.29 330.879 1755.56 317.512 1788.78 315.662 C 1792.01 315.482 1794.72 315.436 1796.91 317.452 L 1796.29 319.342 C 1795.64 322.47 1794.88 325.324 1794.08 328.412 C 1793.69 326.556 1793.32 324.696 1792.96 322.832 C 1765.14 370.296 1726.16 414.031 1676.77 439.489 C 1655.68 450.306 1633.01 457.688 1609.59 461.355 C 1562.6 468.626 1520.1 461.024 1477.54 439.797 C 1446.74 424.435 1421.97 402.805 1394.44 382.588 C 1415.48 357.591 1435.98 349.32 1467.34 344.456 z" fill="rgb(213,212,213)" transform="translate(0,0)"></path>
<path d="M 1792.96 322.832 C 1794.21 320.737 1794.08 320.209 1796.29 319.342 C 1795.64 322.47 1794.88 325.324 1794.08 328.412 C 1793.69 326.556 1793.32 324.696 1792.96 322.832 z" fill="rgb(48,26,121)" transform="translate(0,0)"></path>
<path d="M 1677.35 680.804 C 1720.41 657.242 1754.2 618.738 1780.55 577.909 C 1784.01 572.545 1795.69 549.837 1799.89 548.157 L 1799.84 684.692 C 1800.81 718.213 1800.08 755.115 1799.98 788.879 L 1798.11 785.365 L 1798.6 781.789 C 1708.77 784.417 1680.04 859.01 1607.83 867.465 C 1608.62 864.489 1626.58 837.943 1630.52 829.765 C 1653.17 782.605 1668.94 732.441 1677.35 680.804 z" fill="rgb(29,5,107)" transform="translate(0,0)"></path>
<path d="M 1798.6 781.789 C 1799.41 778.082 1799.01 759.747 1799.1 754.781 C 1799.52 731.896 1798.32 707.465 1799.84 684.692 C 1800.81 718.213 1800.08 755.115 1799.98 788.879 L 1798.11 785.365 L 1798.6 781.789 z" fill="rgb(111,95,145)" transform="translate(0,0)"></path>
<path d="M 1676.77 439.489 C 1726.16 414.031 1765.14 370.296 1792.96 322.832 C 1793.32 324.696 1793.69 326.556 1794.08 328.412 C 1786.28 355.434 1780.31 361.012 1769.51 383.888 C 1787.57 423.876 1796.12 458.585 1798.78 502.598 C 1799.58 515.746 1799.15 530.074 1800 542.644 C 1710.89 546.128 1675.65 622.129 1605.74 629.489 C 1605.23 625.276 1626.63 593.604 1630.29 586.216 C 1651.79 542.76 1671.14 487.597 1676.77 439.489 z" fill="rgb(29,5,107)" transform="translate(0,0)"></path>
<path d="M 1605.74 629.489 C 1675.65 622.129 1710.89 546.128 1800 542.644 C 1800 544.287 1800.1 546.594 1799.89 548.157 C 1795.69 549.837 1784.01 572.545 1780.55 577.909 C 1754.2 618.738 1720.41 657.242 1677.35 680.804 C 1636.6 700.31 1584.82 714.536 1539.93 702.114 C 1546.85 689.202 1599.88 641.638 1599.28 630.657 C 1599.99 630.339 1604.66 629.664 1605.74 629.489 z" fill="rgb(213,212,213)" transform="translate(0,0)"></path>
<path d="M 1390.3 864.494 L 1391.26 863.416 C 1408.35 844.515 1440.75 824.034 1468.12 828.755 C 1475.77 830.076 1490.36 841.129 1497.97 845.38 C 1536.03 866.656 1561.3 870.677 1603.24 868.662 C 1593.8 885.28 1561.63 911.624 1545.45 923.688 C 1538.96 928.533 1530.49 933.347 1524.08 937.991 C 1480.64 927.964 1456.49 910.726 1421.95 885.402 C 1413.64 878.392 1399.85 869.072 1390.3 864.494 z" fill="rgb(254,254,254)" transform="translate(0,0)"></path>
<path d="M 1396.96 624.149 C 1416.9 601.8 1435.93 589.506 1466.61 586.51 C 1473.84 590.032 1489.55 601.062 1497.67 605.848 C 1532.82 626.562 1559.33 632.558 1599.28 630.657 C 1599.88 641.638 1546.85 689.202 1539.93 702.114 C 1466.62 685.443 1453.43 664.163 1396.96 624.149 z" fill="rgb(254,254,254)" transform="translate(0,0)"></path>
<path d="M 900.868 810.634 C 901.33 810.997 905.001 813.575 904.235 814.567 C 902.848 815.163 898.841 812.142 897.735 811.421 L 900.868 810.634 z" fill="rgb(208,195,240)" transform="translate(0,0)"></path>
<path d="M 1282.57 738.405 C 1285.36 737.89 1295.04 737.669 1297.96 737.727 C 1361.34 739.001 1416.41 774.058 1459.31 818.074 C 1437.81 805.942 1415.3 799.511 1391.03 796.237 C 1330.1 788.019 1268.65 809.996 1222.02 848.949 C 1203.02 864.821 1185.88 882.423 1166.04 897.487 C 1118.7 933.445 1055.54 955.752 995.759 947.516 C 925.297 939.681 889.069 903.17 837.074 864.333 C 857.431 844.847 882.896 829.31 911.502 826.711 C 933.783 838.693 944.31 851.798 972.215 861.892 C 993.556 869.622 1016.32 872.632 1038.94 870.717 C 1111.82 863.827 1140.94 806.601 1196.57 769.163 C 1222.09 751.639 1251.72 741.04 1282.57 738.405 z" fill="rgb(236,235,236)" transform="translate(0,0)"></path>
<path d="M 1607.83 867.465 C 1680.04 859.01 1708.77 784.417 1798.6 781.789 L 1798.11 785.365 L 1799.98 788.879 L 1799.98 944.111 C 1800 967.801 1800.65 995.174 1799.85 1018.55 C 1799.99 1021.76 1800.05 1024.4 1800.02 1027.65 C 1800 1093.42 1800.58 1159.96 1799.84 1225.65 C 1800.52 1238.32 1800.18 1257.31 1800 1270.25 C 1799.37 1269.01 1798.73 1267.78 1798.07 1266.56 C 1798.2 1265.31 1798.33 1264.14 1798.51 1262.89 C 1716.62 1263.12 1683.13 1325.74 1623.27 1341.1 C 1623.68 1338.11 1630.02 1322.81 1631.57 1318.56 C 1649.89 1268.18 1644.05 1223.32 1617.29 1177.69 C 1582.79 1185.63 1545.48 1182.44 1511.65 1172.85 C 1484.12 1164.85 1461.89 1151.09 1438.85 1134.8 C 1428 1126.69 1408.16 1108.2 1396.37 1104.63 L 1396.51 1103.08 C 1403.28 1102.42 1409.2 1101.97 1415.99 1100.69 C 1434.24 1097.23 1458.5 1081.74 1469.94 1067.35 L 1471.33 1066.78 C 1461.7 1050.61 1424.15 1037.37 1406.98 1033 C 1352.4 1018.68 1296.97 1032.58 1249.36 1060.78 C 1219.73 1078.33 1199.89 1099.84 1173.94 1121.38 C 1103.09 1180.2 1023.06 1197.52 936.975 1164.55 C 911.613 1153.54 893.946 1140.35 871.35 1124.79 C 862.684 1118.82 846.758 1107.46 837.271 1103.84 C 856.011 1079.87 885.471 1067.5 915.082 1064.45 C 912.058 1061.41 909.059 1058.36 906.086 1055.27 C 905.114 1053.53 899.633 1049.45 897.875 1048.04 C 884.967 1036.12 874.488 1027.37 860.695 1016.62 C 867.975 1014.54 898.23 1014.97 908.002 1014.48 C 942.506 1012.74 977.439 1011.98 1011.82 1007.97 C 1107.85 996.783 1200.49 960.372 1285.16 914.856 C 1310.53 901.222 1335.92 884.987 1361.22 872.097 C 1378.01 873.948 1411.85 886.087 1421.95 885.402 C 1456.49 910.726 1480.64 927.964 1524.08 937.991 C 1530.49 933.347 1538.96 928.533 1545.45 923.688 C 1561.63 911.624 1593.8 885.28 1603.24 868.662 L 1607.83 867.465 z" fill="rgb(29,5,107)" transform="translate(0,0)"></path>
<path d="M 906.086 1055.27 L 907.082 1055.86 C 915.968 1061.16 927.725 1069.96 936.661 1076.05 C 973.881 1101.41 1008.09 1114.17 1053.35 1103.73 C 1100.02 1092.96 1128.12 1054.96 1163.38 1025.86 C 1235.03 966.719 1317.88 956.386 1398.8 1004.19 C 1421.71 1017.72 1438.81 1033.12 1458.02 1051.01 C 1461.27 1054.04 1470.83 1060.35 1473.26 1062.91 L 1471.33 1066.78 C 1461.7 1050.61 1424.15 1037.37 1406.98 1033 C 1352.4 1018.68 1296.97 1032.58 1249.36 1060.78 C 1219.73 1078.33 1199.89 1099.84 1173.94 1121.38 C 1103.09 1180.2 1023.06 1197.52 936.975 1164.55 C 911.613 1153.54 893.946 1140.35 871.35 1124.79 C 862.684 1118.82 846.758 1107.46 837.271 1103.84 C 856.011 1079.87 885.471 1067.5 915.082 1064.45 C 912.058 1061.41 909.059 1058.36 906.086 1055.27 z" fill="rgb(213,212,213)" transform="translate(0,0)"></path>
<path d="M 1798.14 1026.22 L 1800.02 1027.65 C 1800 1093.42 1800.58 1159.96 1799.84 1225.65 C 1800.52 1238.32 1800.18 1257.31 1800 1270.25 C 1799.37 1269.01 1798.73 1267.78 1798.07 1266.56 C 1798.2 1265.31 1798.33 1264.14 1798.51 1262.89 C 1716.62 1263.12 1683.13 1325.74 1623.27 1341.1 C 1623.68 1338.11 1630.02 1322.81 1631.57 1318.56 C 1649.89 1268.18 1644.05 1223.32 1617.29 1177.69 C 1623.79 1176.68 1630.69 1174.8 1636.99 1172.91 C 1715.4 1149.4 1760.87 1094.68 1798.14 1026.22 z" fill="rgb(29,5,107)" transform="translate(0,0)"></path>
<path d="M 1798.51 1262.89 C 1799.73 1258.42 1798.99 1233.45 1799.84 1225.65 C 1800.52 1238.32 1800.18 1257.31 1800 1270.25 C 1799.37 1269.01 1798.73 1267.78 1798.07 1266.56 C 1798.2 1265.31 1798.33 1264.14 1798.51 1262.89 z" fill="rgb(111,95,145)" transform="translate(0,0)"></path>
<path d="M 1799.85 1018.55 C 1799.99 1021.76 1800.05 1024.4 1800.02 1027.65 L 1798.14 1026.22 C 1760.87 1094.68 1715.4 1149.4 1636.99 1172.91 C 1630.69 1174.8 1623.79 1176.68 1617.29 1177.69 C 1582.79 1185.63 1545.48 1182.44 1511.65 1172.85 C 1515.53 1170.43 1521.52 1167.84 1525.71 1165.67 C 1560.94 1147.48 1593.68 1127.64 1626.03 1104.75 C 1628.81 1103.96 1628.52 1102.97 1630.06 1100.45 C 1695.28 1078.56 1719.7 1025.5 1798.98 1019.63 L 1799.85 1018.55 z" fill="rgb(213,212,213)" transform="translate(0,0)"></path>
<path d="M 1799.85 1018.55 C 1799.99 1021.76 1800.05 1024.4 1800.02 1027.65 L 1798.14 1026.22 C 1798.35 1023.86 1798.62 1021.96 1798.98 1019.63 L 1799.85 1018.55 z" fill="rgb(159,156,183)" transform="translate(0,0)"></path>
<path d="M 1607.83 867.465 C 1680.04 859.01 1708.77 784.417 1798.6 781.789 L 1798.11 785.365 C 1770.79 836.647 1733.73 883.389 1683.07 913.362 C 1636.27 941.048 1577.14 951.277 1524.08 937.991 C 1530.49 933.347 1538.96 928.533 1545.45 923.688 C 1561.63 911.624 1593.8 885.28 1603.24 868.662 L 1607.83 867.465 z" fill="rgb(213,212,213)" transform="translate(0,0)"></path>
<path d="M 1471.33 1066.78 L 1473.26 1062.91 C 1518.87 1094.5 1561.6 1113.69 1619.04 1102.89 C 1620.08 1102.69 1621.12 1102.49 1622.15 1102.28 C 1623.92 1103.2 1624.37 1103.54 1626.03 1104.75 C 1593.68 1127.64 1560.94 1147.48 1525.71 1165.67 C 1521.52 1167.84 1515.53 1170.43 1511.65 1172.85 C 1484.12 1164.85 1461.89 1151.09 1438.85 1134.8 C 1428 1126.69 1408.16 1108.2 1396.37 1104.63 L 1396.51 1103.08 C 1403.28 1102.42 1409.2 1101.97 1415.99 1100.69 C 1434.24 1097.23 1458.5 1081.74 1469.94 1067.35 L 1471.33 1066.78 z" fill="rgb(254,254,254)" transform="translate(0,0)"></path>
<path d="M 1622.15 1102.28 C 1624.81 1101.71 1627.42 1101.06 1630.06 1100.45 C 1628.52 1102.97 1628.81 1103.96 1626.03 1104.75 C 1624.37 1103.54 1623.92 1103.2 1622.15 1102.28 z" fill="rgb(236,235,236)" transform="translate(0,0)"></path>
<path d="M 599.981 1033.61 C 603.589 1031.86 619.72 1018.69 623.93 1015.62 C 680.572 974.218 748.125 958.857 813.686 989.315 C 832.801 998.195 842.814 1004.55 860.695 1016.62 C 874.488 1027.37 884.967 1036.12 897.875 1048.04 C 899.633 1049.45 905.114 1053.53 906.086 1055.27 C 909.059 1058.36 912.058 1061.41 915.082 1064.45 C 885.471 1067.5 856.011 1079.87 837.271 1103.84 C 846.758 1107.46 862.684 1118.82 871.35 1124.79 C 893.946 1140.35 911.613 1153.54 936.975 1164.55 C 930.77 1167.51 886.052 1172.48 872.506 1176.7 C 848.482 1184.17 825.111 1190.73 800.907 1200.35 C 791.373 1204.13 773 1213.6 765.315 1216.45 C 695.576 1212.8 648.129 1237.54 596.459 1282.59 C 578.338 1298.39 560.374 1316.32 539.215 1327.73 C 518.882 1338.94 500.596 1343.9 477.556 1345.49 C 379.762 1352.25 350.516 1268.87 251.024 1262.95 L 248.795 1261.41 L 249.139 1021.32 L 248.98 1019.98 C 276.256 1018.73 312.281 1033.74 335.043 1048.09 C 343.046 1053.14 355.78 1062.4 362.953 1066.34 C 368.133 1063.61 389.36 1067.04 403.845 1067.67 C 446.715 1069.55 494.743 1063.24 536.541 1053.3 C 548.051 1050.56 595.558 1033.62 599.981 1033.61 z" fill="rgb(46,29,212)" transform="translate(0,0)"></path>
<path d="M 599.981 1033.61 C 603.589 1031.86 619.72 1018.69 623.93 1015.62 C 680.572 974.218 748.125 958.857 813.686 989.315 C 832.801 998.195 842.814 1004.55 860.695 1016.62 C 874.488 1027.37 884.967 1036.12 897.875 1048.04 L 895.569 1049.26 C 883.364 1041.99 869.033 1037.27 855.515 1033.79 C 783.758 1015.31 714.863 1038.82 659.555 1085.08 C 632.176 1107.98 613.497 1127.94 581.776 1146.6 C 529.934 1177.11 472.459 1189.23 413.662 1173.94 C 349.498 1157.26 301.97 1113.2 268.532 1057.49 C 261.65 1046.02 256.286 1033.06 250.114 1022.91 L 249.139 1021.32 L 248.98 1019.98 C 276.256 1018.73 312.281 1033.74 335.043 1048.09 C 343.046 1053.14 355.78 1062.4 362.953 1066.34 C 368.133 1063.61 389.36 1067.04 403.845 1067.67 C 446.715 1069.55 494.743 1063.24 536.541 1053.3 C 548.051 1050.56 595.558 1033.62 599.981 1033.61 z" fill="rgb(236,235,236)" transform="translate(0,0)"></path>
<path d="M 362.953 1066.34 C 368.133 1063.61 389.36 1067.04 403.845 1067.67 C 446.715 1069.55 494.743 1063.24 536.541 1053.3 C 548.051 1050.56 595.558 1033.62 599.981 1033.61 C 577.96 1055.28 545.588 1082.82 517.491 1094.26 C 464.041 1116.03 407.403 1100.88 362.953 1066.34 z" fill="rgb(29,5,107)" transform="translate(0,0)"></path>
<path d="M 539.215 1327.73 C 539.239 1327.42 539.263 1327.12 539.287 1326.81 C 578.106 1212.69 673.515 1097.01 804.628 1100.02 C 818.37 1100.34 826.221 1102.38 837.271 1103.84 C 846.758 1107.46 862.684 1118.82 871.35 1124.79 C 893.946 1140.35 911.613 1153.54 936.975 1164.55 C 930.77 1167.51 886.052 1172.48 872.506 1176.7 C 848.482 1184.17 825.111 1190.73 800.907 1200.35 C 791.373 1204.13 773 1213.6 765.315 1216.45 C 695.576 1212.8 648.129 1237.54 596.459 1282.59 C 578.338 1298.39 560.374 1316.32 539.215 1327.73 z" fill="rgb(29,5,107)" transform="translate(0,0)"></path>
<path d="M 897.875 1048.04 C 899.633 1049.45 905.114 1053.53 906.086 1055.27 C 903.184 1054.75 898.325 1051.07 895.569 1049.26 L 897.875 1048.04 z" fill="rgb(208,195,240)" transform="translate(0,0)"></path>
<path d="M 936.975 1164.55 C 1023.06 1197.52 1103.09 1180.2 1173.94 1121.38 C 1199.89 1099.84 1219.73 1078.33 1249.36 1060.78 C 1296.97 1032.58 1352.4 1018.68 1406.98 1033 C 1424.15 1037.37 1461.7 1050.61 1471.33 1066.78 L 1469.94 1067.35 C 1458.5 1081.74 1434.24 1097.23 1415.99 1100.69 C 1409.2 1101.97 1403.28 1102.42 1396.51 1103.08 L 1396.37 1104.63 C 1408.16 1108.2 1428 1126.69 1438.85 1134.8 C 1438.37 1135.02 1437.88 1135.24 1437.4 1135.46 C 1407.18 1138.68 1381.28 1141.72 1350.92 1148.23 C 1252.96 1169.24 1157.5 1225.88 1108.32 1315.47 C 1107.34 1317.27 1106.5 1319.7 1106.16 1321.69 C 1094.75 1332.14 1071.42 1340.67 1056.31 1342.9 L 1054.12 1343.52 C 1008.99 1351.55 952.708 1336.96 919.419 1304.78 C 918.344 1303.13 915.968 1300.45 914.627 1298.83 C 909.996 1291.36 894.134 1277.75 887.255 1271.57 C 852.013 1239.93 812.539 1221.55 765.315 1216.45 C 773 1213.6 791.373 1204.13 800.907 1200.35 C 825.111 1190.73 848.482 1184.17 872.506 1176.7 C 886.052 1172.48 930.77 1167.51 936.975 1164.55 z" fill="rgb(46,29,212)" transform="translate(0,0)"></path>
<path d="M 1396.37 1104.63 C 1408.16 1108.2 1428 1126.69 1438.85 1134.8 C 1438.37 1135.02 1437.88 1135.24 1437.4 1135.46 C 1407.18 1138.68 1381.28 1141.72 1350.92 1148.23 C 1252.96 1169.24 1157.5 1225.88 1108.32 1315.47 C 1107.34 1317.27 1106.5 1319.7 1106.16 1321.69 C 1094.75 1332.14 1071.42 1340.67 1056.31 1342.9 C 1058.01 1334.71 1064.98 1323.46 1068.62 1315.63 C 1117.61 1210.23 1211.45 1125.59 1329.38 1108.58 C 1341.69 1106.83 1354.08 1105.77 1366.5 1105.42 C 1376.05 1105.21 1387.02 1105.85 1396.37 1104.63 z" fill="rgb(29,5,107)" transform="translate(0,0)"></path>
<path d="M 1469.94 1067.35 C 1458.5 1081.74 1434.24 1097.23 1415.99 1100.69 C 1409.2 1101.97 1403.28 1102.42 1396.51 1103.08 C 1417.74 1079.13 1437.83 1068.31 1469.94 1067.35 z" fill="rgb(213,212,213)" transform="translate(0,0)"></path>
<path d="M 539.215 1327.73 C 560.374 1316.32 578.338 1298.39 596.459 1282.59 C 648.129 1237.54 695.576 1212.8 765.315 1216.45 C 812.539 1221.55 852.013 1239.93 887.255 1271.57 C 894.134 1277.75 909.996 1291.36 914.627 1298.83 C 867.706 1269.32 816.905 1257.21 762.082 1269.47 C 725.875 1277.63 692.409 1295.06 664.957 1320.04 C 652.505 1331.22 640.916 1343.87 628.231 1354.81 C 580.37 1396.08 535.951 1418.83 472.601 1422.85 C 449.505 1456.95 425.796 1486.48 393.227 1512.15 C 384.999 1518.63 355.616 1536.38 351.89 1541.18 C 317.425 1517.79 294.656 1503.92 252.28 1497.72 C 247.667 1461.24 248.807 1427.12 248.951 1390.36 C 249.107 1350.28 248.629 1309.86 249.135 1269.82 L 248.651 1266.31 L 250.914 1265.01 L 251.024 1262.95 C 350.516 1268.87 379.762 1352.25 477.556 1345.49 C 500.596 1343.9 518.882 1338.94 539.215 1327.73 z" fill="url(#Gradient1)" transform="translate(0,0)"></path>
<path d="M 250.914 1265.01 L 251.334 1266.39 C 287.007 1354.38 374.561 1426.1 472.601 1422.85 C 449.505 1456.95 425.796 1486.48 393.227 1512.15 C 384.999 1518.63 355.616 1536.38 351.89 1541.18 C 317.425 1517.79 294.656 1503.92 252.28 1497.72 C 247.667 1461.24 248.807 1427.12 248.951 1390.36 C 249.107 1350.28 248.629 1309.86 249.135 1269.82 L 248.651 1266.31 L 250.914 1265.01 z" fill="rgb(46,29,212)" transform="translate(0,0)"></path>
<path d="M 250.914 1265.01 L 251.334 1266.39 C 250.609 1267.54 249.876 1268.68 249.135 1269.82 L 248.651 1266.31 L 250.914 1265.01 z" fill="rgb(46,29,212)" transform="translate(0,0)"></path>
<path d="M 1438.85 1134.8 C 1461.89 1151.09 1484.12 1164.85 1511.65 1172.85 C 1545.48 1182.44 1582.79 1185.63 1617.29 1177.69 C 1644.05 1223.32 1649.89 1268.18 1631.57 1318.56 C 1630.02 1322.81 1623.68 1338.11 1623.27 1341.1 L 1622.07 1341.65 C 1576.04 1351.67 1528.33 1343.59 1489.74 1316.41 C 1485.23 1313.23 1480.76 1310.38 1476.02 1307.58 C 1471.56 1303.11 1464.61 1297.67 1459.65 1293.68 C 1453.77 1278.25 1397.47 1241.11 1379.12 1233.44 C 1332.02 1213.76 1283.62 1208.98 1235.34 1228 C 1198.44 1242.53 1171.55 1265.41 1142.9 1291.72 C 1134.55 1299.39 1115.39 1316.77 1106.16 1321.69 C 1106.5 1319.7 1107.34 1317.27 1108.32 1315.47 C 1157.5 1225.88 1252.96 1169.24 1350.92 1148.23 C 1381.28 1141.72 1407.18 1138.68 1437.4 1135.46 C 1437.88 1135.24 1438.37 1135.02 1438.85 1134.8 z" fill="rgb(46,29,212)" transform="translate(0,0)"></path>
<path d="M 989.202 1587.03 C 1062.53 1601.96 1105.03 1563.65 1153.92 1515.37 C 1241.42 1428.97 1360.28 1441.39 1444.9 1527.38 C 1393.02 1503.85 1339.34 1503.18 1286.19 1522.71 C 1236.54 1540.96 1207.81 1573.88 1169.65 1607.26 C 1139.96 1633.23 1099.48 1653.32 1060.72 1660.72 C 1039.72 1664.73 1007.79 1666.38 986.211 1662.53 C 985.761 1639.4 987.084 1610.14 989.202 1587.03 z" fill="rgb(213,212,213)" transform="translate(0,0)"></path>
<path d="M 1106.16 1321.69 C 1115.39 1316.77 1134.55 1299.39 1142.9 1291.72 C 1171.55 1265.41 1198.44 1242.53 1235.34 1228 C 1283.62 1208.98 1332.02 1213.76 1379.12 1233.44 C 1397.47 1241.11 1453.77 1278.25 1459.65 1293.68 C 1437.18 1279.64 1409.42 1270.53 1383.31 1266.83 C 1321.32 1258.05 1261.16 1282.84 1215.69 1324.2 C 1200.81 1337.73 1186.76 1352.61 1171.59 1365.83 C 1129.28 1401.84 1083.01 1421 1027.57 1423 C 1030.6 1406.88 1053.08 1357.13 1054.12 1343.52 L 1056.31 1342.9 C 1071.42 1340.67 1094.75 1332.14 1106.16 1321.69 z" fill="rgb(213,212,213)" transform="translate(0,0)"></path>
<path d="M 1604.75 1588.78 C 1607.01 1587.91 1616.03 1586.19 1618.84 1585.53 C 1650.69 1578.02 1669.95 1562.38 1694.83 1542.49 C 1723.66 1519.43 1759.34 1503.76 1796 1496.81 C 1795.74 1502.05 1791.12 1531.06 1789.44 1534.23 L 1787.97 1534.04 C 1719.91 1629.3 1629.44 1689.6 1507.72 1654.26 C 1538.68 1631.62 1572.32 1613.94 1603.3 1591.12 L 1602.74 1590.97 L 1604.75 1588.78 z" fill="rgb(213,212,213)" transform="translate(0,0)"></path>
<path d="M 1623.27 1341.1 C 1683.13 1325.74 1716.62 1263.12 1798.51 1262.89 C 1798.33 1264.14 1798.2 1265.31 1798.07 1266.56 C 1793.32 1278.23 1782.58 1294.42 1775.12 1305.02 C 1743.73 1349.66 1708.49 1383.47 1657.79 1405.57 C 1616.08 1423.75 1560.3 1429.05 1516.65 1415.03 C 1521.97 1412.65 1537.55 1410.28 1545.57 1407.71 C 1573.85 1398.65 1609.68 1368.63 1622.07 1341.65 L 1623.27 1341.1 z" fill="rgb(213,212,213)" transform="translate(0,0)"></path>
<path d="M 919.419 1304.78 C 952.708 1336.96 1008.99 1351.55 1054.12 1343.52 C 1053.08 1357.13 1030.6 1406.88 1027.57 1423 C 979.087 1423.57 933.926 1408.22 894.225 1380.73 C 876.212 1368.26 857.574 1353.4 838.757 1342.54 C 864.248 1321.98 886.668 1310.28 919.419 1304.78 z" fill="rgb(254,254,254)" transform="translate(0,0)"></path>
<path d="M 1476.02 1307.58 C 1480.76 1310.38 1485.23 1313.23 1489.74 1316.41 C 1528.33 1343.59 1576.04 1351.67 1622.07 1341.65 C 1609.68 1368.63 1573.85 1398.65 1545.57 1407.71 C 1537.55 1410.28 1521.97 1412.65 1516.65 1415.03 C 1468.63 1404.47 1432.2 1370.46 1392.6 1343.8 C 1415.02 1320.61 1445.17 1311.99 1476.02 1307.58 z" fill="rgb(254,254,254)" transform="translate(0,0)"></path>
<path d="M 1393.23 1589.53 C 1411.33 1564.4 1435.14 1554.84 1464.39 1549.41 C 1473.04 1552.68 1482.86 1560.86 1491.54 1565.28 C 1530.8 1585.27 1561.36 1592.17 1604.75 1588.78 L 1602.74 1590.97 L 1603.3 1591.12 C 1572.32 1613.94 1538.68 1631.62 1507.72 1654.26 C 1449.45 1634.69 1440.33 1618.66 1393.23 1589.53 z" fill="rgb(254,254,254)" transform="translate(0,0)"></path>
<path d="M 413.732 1657.01 C 418.312 1658.1 422.905 1659.12 427.512 1660.09 C 496.713 1674.15 564.027 1652.36 617.634 1607.38 C 640.783 1587.2 661.305 1564.61 687.044 1547.62 C 743.894 1510.1 815.034 1499.56 879.425 1523.01 C 886.106 1525.45 895.969 1530.65 902.669 1531.78 C 906.762 1536.89 910.85 1542.28 915.404 1546.94 C 949.984 1546.64 970.626 1540.18 1000.08 1522.15 L 992.266 1567.86 C 991.515 1572.28 990.089 1583.46 989.202 1587.03 C 987.084 1610.14 985.761 1639.4 986.211 1662.53 L 982.084 1661.9 C 981.685 1698.38 998.554 1737.31 1023.71 1763.25 C 1032.28 1772.23 1042.18 1779.83 1053.06 1785.77 C 1057.33 1788.09 1070.84 1794.61 1073.58 1797.25 C 1050.1 1798.37 1019.25 1797.27 995.326 1797.18 L 855.734 1797.1 L 678.219 1797.21 C 647.037 1797.2 614.733 1797.62 583.621 1796.8 C 489.405 1794.29 404.421 1753.87 340.276 1684.81 C 346.297 1682.89 361.541 1676.96 367.716 1674.58 C 377.548 1670.79 406.065 1662.25 413.732 1657.01 z" fill="rgb(46,29,212)" transform="translate(0,0)"></path>
<path d="M 841.5 1584.24 C 861.534 1561.8 886.248 1550.32 916.232 1547.87 C 935.518 1567 963.55 1579.26 989.202 1587.03 C 987.084 1610.14 985.761 1639.4 986.211 1662.53 L 982.084 1661.9 C 903.671 1642.82 902.565 1627.52 841.5 1584.24 z" fill="rgb(254,254,254)" transform="translate(0,0)"></path>
<path d="M 282.95 1567.32 C 319.94 1610.82 358.411 1640.5 413.732 1657.01 C 406.065 1662.25 377.548 1670.79 367.716 1674.58 C 361.541 1676.96 346.297 1682.89 340.276 1684.81 C 309.485 1651.72 291.02 1617.63 273.013 1576.67 C 276.257 1573.44 279.83 1570.57 282.95 1567.32 z" fill="rgb(29,5,107)" transform="translate(0,0)"></path>
<path d="M 273.013 1576.67 C 267.865 1561.88 264.293 1553.01 260.664 1537.44 C 267.526 1546.35 276.301 1558.09 282.95 1567.32 C 279.83 1570.57 276.257 1573.44 273.013 1576.67 z" fill="rgb(46,29,212)" transform="translate(0,0)"></path>
<path d="M 248.886 780.782 L 251.38 783.851 C 251.671 785.528 251.982 787.202 252.312 788.872 L 248.76 790.231 C 248.722 786.986 248.789 784.022 248.886 780.782 z" fill="rgb(48,26,121)" transform="translate(0,0)"></path>
<path d="M 248.795 1261.41 L 251.024 1262.95 L 250.914 1265.01 L 248.651 1266.31 C 248.72 1264.73 248.837 1262.97 248.795 1261.41 z" fill="rgb(71,51,172)" transform="translate(0,0)"></path>
<metadata><recraft-signature>{"signed_by": "recraft", "signature_b64": "G2yU+n+RguhFr8qi4IYMVIz7IQmqFnW1D0eJ3wtOscZxPUILqHJJXd29Fzz7ow5u5RaUc154erVSdatV6fvZBA==", "signing_algo": "Ed25519", "generation_timestamp": 1772774592, "identifier": "547d24f2-5a3b-443b-9521-4e218de9d8d5"}</recraft-signature></metadata></svg>