<svg xmlns="http://www.w3.org/2000/svg" height="1024" preserveAspectRatio="none" style="display: block;" version="1.1" viewBox="0 0 2048 2048" width="1024">
<path d="M 1025.35 354.097 C 1070.17 310.718 1109.63 288.097 1174.25 288.283 C 1228.65 288.439 1279.17 313.258 1316.71 352.296 C 1321.18 356.964 1325.56 361.719 1329.84 366.559 C 1412.34 373.527 1488.59 413.299 1541.52 476.965 C 1585.43 530.029 1605.62 578.876 1617.53 646.217 L 1618.42 647.061 C 1626.89 654.974 1636.48 661.955 1645.34 669.486 C 1714.18 728.043 1759.05 823.715 1762.83 913.627 C 1764.18 942.034 1761.84 970.495 1755.88 998.302 C 1753.84 1007.72 1747.56 1022.96 1747.37 1030.67 C 1747.15 1039.78 1751.44 1056.24 1752.47 1066.26 C 1754.91 1090.12 1754.21 1113.3 1751.78 1137.08 C 1748.05 1161.15 1744.45 1181.29 1737.21 1204.79 C 1712.61 1286.7 1661.39 1358.07 1591.66 1407.58 C 1573.88 1420.04 1559.82 1427.67 1540.74 1437.77 C 1530.76 1454.8 1525.29 1469.86 1513.26 1487.39 C 1459.16 1566.43 1373.66 1618.35 1278.58 1629.9 C 1255.9 1632.72 1228.26 1629.61 1210 1642.06 C 1172.35 1667.72 1194.47 1721.09 1184.55 1760.36 C 1177.27 1789.17 1162.79 1812.69 1137.53 1828.48 C 1126.43 1835.42 1114.08 1840.11 1101.18 1842.29 C 1075.88 1846.71 967.074 1846.87 942.673 1841.12 C 925.914 1837.17 909.749 1827.94 897.075 1816.38 C 838.43 1762.86 879.673 1695.39 854.571 1656.36 C 836.942 1628.95 807.637 1634.15 779.905 1631.45 C 766.189 1630.12 752.141 1627.23 738.734 1624.04 C 660.219 1605.38 588.01 1560.17 541.197 1493.82 C 528.377 1475.65 519.354 1455.81 507.778 1436.99 C 470.051 1415.84 436.983 1395.65 406.739 1363.79 C 321.372 1273.86 280.354 1152.76 304.427 1029.65 C 298.399 1015.8 295.169 1000.84 292.101 986.106 C 277.542 916.19 291.022 851.58 318.031 787.036 C 339.937 740.408 363.838 705.546 403.232 671.366 C 411.118 664.523 423.045 654.245 432.248 649.754 C 437.625 627.051 439.37 612.342 446.787 588.998 C 469.855 515.611 518.633 453.013 584.156 412.707 C 625.858 386.902 670.607 370.569 719.736 366.69 C 765.635 318.82 808.57 289.923 877.574 288.724 C 941.714 287.609 981.005 311.812 1025.35 354.097 z M 809.64 443.054 C 810.031 447.17 809.275 451.489 815.002 446.082 C 817.242 443.368 822.59 440.832 823.815 437.426 C 825.967 431.444 839.328 428.835 828.082 424.493 C 821.809 429.25 814.342 436.735 809.64 443.054 z M 1436.61 928.141 L 1436.63 927.103 C 1436.71 924.293 1435.99 918.593 1432.65 923.529 C 1434.08 925.334 1434.97 926.566 1436.61 928.141 z" fill="rgb(61,41,222)" transform="translate(0,0)"></path>
<path d="M 828.082 424.493 C 839.328 428.835 825.967 431.444 823.815 437.426 C 822.59 440.832 817.242 443.368 815.002 446.082 C 809.275 451.489 810.031 447.17 809.64 443.054 C 814.342 436.735 821.809 429.25 828.082 424.493 z" fill="rgb(236,235,236)" fill-opacity="0.890196" transform="translate(0,0)"></path>
<path d="M 1432.65 923.529 C 1435.99 918.593 1436.71 924.293 1436.63 927.103 L 1436.61 928.141 C 1434.97 926.566 1434.08 925.334 1432.65 923.529 z" fill="rgb(216,215,217)" fill-opacity="0.537255" transform="translate(0,0)"></path>
<path d="M 318.031 787.036 C 345.176 802.918 372.053 814.913 401.569 825.665 C 406.629 827.509 419.818 831.986 423.58 834.328 L 424.256 833.205 C 439.493 838.336 486.18 851.84 501.122 851.444 L 501.23 851.914 L 502.152 851.961 C 514.051 852.67 527.188 856.007 539.226 856.694 C 563.365 858.07 587.265 856.653 611.295 854.383 C 616.348 853.905 624.96 853.26 629.826 854.319 C 626.525 861.045 622.902 868.095 620.094 874.998 C 626.708 880.014 626.625 880.722 631.569 887.876 L 633.814 891.103 C 638.3 897.491 642.152 903.281 647.31 909.193 L 647.17 909.689 C 651.401 912.002 672.824 933.741 678.056 938.744 C 689.421 949.696 701.134 960.28 713.177 970.481 C 717.65 974.282 731.669 985.035 733.591 989.539 L 733.891 991.46 C 750.952 1002.98 835.151 1058.56 857.334 1075.74 C 857.899 1076.18 860.489 1074.11 861.841 1073.08 C 871.217 1081.46 884.981 1088.4 895.699 1095.17 C 916.72 1108.46 940.784 1118.41 962.02 1131.04 L 962.682 1130.38 C 965.958 1135.42 1069.31 1187.44 1081.75 1193.42 C 1065.43 1224.82 1046.33 1257.4 1031.22 1288.73 C 1064.12 1278.63 1083.61 1285.16 1116.78 1292.85 C 1124.8 1294.7 1139.78 1298.34 1147.25 1300.88 L 1147.77 1300.99 C 1168.48 1309.76 1204.61 1315.1 1227.34 1321.41 L 1228.33 1321.3 C 1264.85 1329.56 1324.35 1326.57 1360.19 1317.02 C 1370.59 1314.26 1381.45 1309.28 1391.83 1306.48 L 1392.68 1306.25 L 1395.26 1302.61 C 1431.66 1285.03 1459.67 1268.25 1487.12 1237.35 L 1490.16 1234.13 C 1516.79 1233.96 1538.75 1232.05 1564.9 1226.55 C 1577.6 1223.88 1593.53 1219.19 1605.82 1217.23 L 1606.92 1217.06 L 1608.23 1215.11 C 1644.9 1202.2 1680.18 1183.65 1713.21 1163.32 C 1722.19 1157.79 1744.15 1139.94 1751.78 1137.08 C 1748.05 1161.15 1744.45 1181.29 1737.21 1204.79 C 1712.61 1286.7 1661.39 1358.07 1591.66 1407.58 C 1573.88 1420.04 1559.82 1427.67 1540.74 1437.77 C 1530.76 1454.8 1525.29 1469.86 1513.26 1487.39 C 1459.16 1566.43 1373.66 1618.35 1278.58 1629.9 C 1255.9 1632.72 1228.26 1629.61 1210 1642.06 C 1172.35 1667.72 1194.47 1721.09 1184.55 1760.36 C 1177.27 1789.17 1162.79 1812.69 1137.53 1828.48 C 1126.43 1835.42 1114.08 1840.11 1101.18 1842.29 C 1075.88 1846.71 967.074 1846.87 942.673 1841.12 C 925.914 1837.17 909.749 1827.94 897.075 1816.38 C 838.43 1762.86 879.673 1695.39 854.571 1656.36 C 836.942 1628.95 807.637 1634.15 779.905 1631.45 C 766.189 1630.12 752.141 1627.23 738.734 1624.04 C 660.219 1605.38 588.01 1560.17 541.197 1493.82 C 528.377 1475.65 519.354 1455.81 507.778 1436.99 C 470.051 1415.84 436.983 1395.65 406.739 1363.79 C 321.372 1273.86 280.354 1152.76 304.427 1029.65 C 298.399 1015.8 295.169 1000.84 292.101 986.106 C 277.542 916.19 291.022 851.58 318.031 787.036 z" fill="rgb(42,24,144)" transform="translate(0,0)"></path>
<path d="M 424.256 833.205 C 439.493 838.336 486.18 851.84 501.122 851.444 L 501.23 851.914 C 482.762 909.203 480.285 957.567 498.615 1015.41 C 484.398 1079.77 496.406 1144.86 532.515 1200.01 C 566.143 1251.37 603.222 1275.7 655.856 1303.03 C 660.017 1314.43 666.265 1324.71 672.079 1335.32 C 705.744 1396.73 764.348 1439.1 833.667 1450.28 C 852.027 1453.24 870.433 1454.21 888.9 1457.73 L 888.884 1339.29 C 851.862 1339.66 822.746 1331.34 795.476 1304.39 C 769.667 1278.52 752.24 1245.48 745.463 1209.57 C 663.218 1195.53 605.726 1131.89 606.94 1047.37 C 622.081 1058.03 637.677 1067.85 653.045 1078.12 C 656.56 1080.47 670.234 1088.97 672.938 1091.3 C 690.26 1101.9 707.397 1112.8 724.34 1124 C 742.795 1136.31 763.844 1151.62 783.85 1160.68 C 792.631 1164.66 808.822 1167.54 818.678 1169.6 C 831.401 1198.45 844.334 1223.67 872.551 1240.6 C 875.596 1246.99 878.646 1253.59 881.855 1259.88 C 884.915 1264.76 891.391 1278.3 894.315 1283.96 C 902.268 1299.33 910.33 1314.65 918.499 1329.91 L 949.559 1386.55 C 951.771 1390.57 963.962 1412.47 964.211 1415.05 C 966.253 1436.19 964.717 1460.12 968.148 1481.57 C 976.217 1532.02 998.833 1556.63 1032.56 1591.44 C 1048.04 1607.46 1063.43 1623.57 1078.73 1639.76 C 1072.7 1667.71 1073.59 1700.7 1073.04 1729.6 C 1044.14 1730.71 1008.19 1729.45 978.734 1729.09 C 978.605 1689.48 981.366 1652.03 964.899 1616.33 C 932.2 1545.44 876.524 1520.67 803.35 1519.4 C 737.729 1517.56 646.419 1466.07 619.764 1404.6 C 591.843 1340.21 588.726 1358.13 534.334 1321.75 C 460.561 1272.29 414.897 1190.53 411.483 1101.78 C 410.96 1087.75 411.922 1073.71 414.352 1059.88 C 416.588 1047.83 423.207 1033.08 422.66 1021.48 C 421.676 1013.57 416.546 1005.53 413.914 998.275 C 394.22 944.01 402.667 885.812 423.58 834.328 L 424.256 833.205 z" fill="rgb(193,191,197)" transform="translate(0,0)"></path>
<path d="M 672.938 1091.3 C 690.26 1101.9 707.397 1112.8 724.34 1124 C 742.795 1136.31 763.844 1151.62 783.85 1160.68 C 792.631 1164.66 808.822 1167.54 818.678 1169.6 C 831.401 1198.45 844.334 1223.67 872.551 1240.6 C 875.596 1246.99 878.646 1253.59 881.855 1259.88 C 823.662 1267.63 775.559 1239.08 760.84 1181.02 C 745.672 1170.08 668.89 1107.78 672.938 1091.3 z" fill="rgb(236,235,236)" transform="translate(0,0)"></path>
<path d="M 1490.16 1234.13 C 1516.79 1233.96 1538.75 1232.05 1564.9 1226.55 C 1577.6 1223.88 1593.53 1219.19 1605.82 1217.23 L 1606.92 1217.06 C 1581.87 1266.41 1547.72 1303.62 1500.18 1332.07 C 1486.81 1340.07 1466.94 1348.54 1455.78 1358.43 C 1445.1 1367.9 1438.44 1389.78 1431.34 1403.01 C 1404.19 1453.61 1354.96 1491.97 1300.7 1509.3 C 1235.37 1530.15 1199.87 1505.74 1138.48 1552.01 C 1120.45 1533.73 1102.63 1515.25 1085.03 1496.55 L 1084.89 1446.93 C 1084.85 1417.88 1083.54 1415.32 1098.97 1389.24 C 1115.78 1360.81 1130.71 1329.68 1147.25 1300.88 L 1147.77 1300.99 C 1168.48 1309.76 1204.61 1315.1 1227.34 1321.41 L 1228.33 1321.3 C 1264.85 1329.56 1324.35 1326.57 1360.19 1317.02 C 1370.59 1314.26 1381.45 1309.28 1391.83 1306.48 L 1392.68 1306.25 L 1395.26 1302.61 C 1431.66 1285.03 1459.67 1268.25 1487.12 1237.35 L 1490.16 1234.13 z" fill="rgb(193,191,197)" transform="translate(0,0)"></path>
<path d="M 1228.33 1321.3 C 1264.85 1329.56 1324.35 1326.57 1360.19 1317.02 C 1370.59 1314.26 1381.45 1309.28 1391.83 1306.48 L 1392.68 1306.25 C 1343.49 1409.93 1275.08 1449.57 1163.03 1458.7 C 1163.11 1419.07 1162.81 1379.44 1162.16 1339.81 C 1184.3 1337.24 1207.85 1332.9 1227.34 1321.41 L 1228.33 1321.3 z" fill="rgb(42,24,144)" transform="translate(0,0)"></path>
<path d="M 962.682 1130.38 C 965.958 1135.42 1069.31 1187.44 1081.75 1193.42 C 1065.43 1224.82 1046.33 1257.4 1031.22 1288.73 L 1024.34 1299.03 C 1011.73 1275.65 998.888 1252.4 985.812 1229.28 C 970.4 1202.14 965.719 1189.65 944.031 1167.67 C 948.647 1156.82 956.625 1141.92 962.02 1131.04 L 962.682 1130.38 z" fill="rgb(193,191,197)" transform="translate(0,0)"></path>
<path d="M 606.687 936.644 C 608.267 918.674 611.91 891.095 620.094 874.998 C 626.708 880.014 626.625 880.722 631.569 887.876 L 633.814 891.103 C 638.3 897.491 642.152 903.281 647.31 909.193 L 647.17 909.689 C 634.578 917.087 618.743 928.241 606.687 936.644 z" fill="rgb(193,191,197)" transform="translate(0,0)"></path>
<path d="M 828.082 424.493 C 867.762 396.903 919.089 397.884 950.646 439.965 C 971.179 467.346 964.341 512.671 965.096 545.867 C 965.285 554.171 944.342 584.968 941.452 593.442 C 922.448 629.592 901.321 665.461 882.715 701.69 C 876.119 714.604 869.437 728.028 863.048 740.964 C 860.749 745.619 848.13 757.412 843.695 763.556 C 831.677 780.203 827.187 795.398 819.141 813.473 C 804.264 816.982 785.582 820.952 772.395 828.75 C 754.883 839.105 736.183 850.891 719.372 862.405 L 671.12 893.832 C 664.684 898.025 653.471 905.826 647.31 909.193 C 642.152 903.281 638.3 897.491 633.814 891.103 L 631.569 887.876 C 626.625 880.722 626.708 880.014 620.094 874.998 C 622.902 868.095 626.525 861.045 629.826 854.319 C 624.96 853.26 616.348 853.905 611.295 854.383 C 587.265 856.653 563.365 858.07 539.226 856.694 C 527.188 856.007 514.051 852.67 502.152 851.961 L 501.23 851.914 L 501.122 851.444 C 486.18 851.84 439.493 838.336 424.256 833.205 C 443.236 787.736 480.799 747.461 523.247 722.774 C 539.548 710.229 540.799 699.847 543.385 680.743 C 550.019 636.757 563.725 597.871 591.411 562.613 C 623.243 521.453 668.58 492.849 719.435 481.841 C 733.58 478.774 749.498 477.259 763.942 475.664 C 793.752 472.374 793.37 464.036 809.64 443.054 C 810.031 447.17 809.275 451.489 815.002 446.082 C 817.242 443.368 822.59 440.832 823.815 437.426 C 825.967 431.444 839.328 428.835 828.082 424.493 z" fill="rgb(236,235,236)" transform="translate(0,0)"></path>
<path d="M 663.88 632.784 C 686.166 592.086 708.008 564.108 747.133 538.071 C 793.038 507.522 834.505 499.753 888.189 498.434 C 889.383 535.038 888.67 573.002 889.188 609.838 C 842.765 614.759 814.263 624.586 783.191 662.289 C 770.551 677.627 763 693.761 755.593 712.632 C 749.3 728.665 747.246 754.514 736.868 767.916 C 731.627 774.685 714.364 779.122 706.001 782.67 C 670.993 797.52 647.191 821.177 629.826 854.319 C 624.96 853.26 616.348 853.905 611.295 854.383 C 587.265 856.653 563.365 858.07 539.226 856.694 C 527.188 856.007 514.051 852.67 502.152 851.961 L 501.23 851.914 L 501.122 851.444 C 486.18 851.84 439.493 838.336 424.256 833.205 C 443.236 787.736 480.799 747.461 523.247 722.774 C 539.548 710.229 540.799 699.847 543.385 680.743 C 575.914 663.485 627.224 635.846 663.88 632.784 z" fill="rgb(61,41,222)" transform="translate(0,0)"></path>
<path d="M 523.247 722.774 C 536.338 728.586 570.62 727.352 578.905 731.413 C 541.203 769.159 519.748 801.179 501.122 851.444 C 486.18 851.84 439.493 838.336 424.256 833.205 C 443.236 787.736 480.799 747.461 523.247 722.774 z" fill="rgb(236,235,236)" transform="translate(0,0)"></path>
<path d="M 543.385 680.743 C 575.914 663.485 627.224 635.846 663.88 632.784 C 655.397 650.633 650.42 664.281 645.667 683.592 C 620.299 699.237 601.781 711.758 578.905 731.413 C 570.62 727.352 536.338 728.586 523.247 722.774 C 539.548 710.229 540.799 699.847 543.385 680.743 z" fill="rgb(216,215,217)" transform="translate(0,0)"></path>
<path d="M 719.372 862.405 C 718.903 861.084 718.448 859.333 718.551 857.911 C 721.552 816.506 757.746 762.425 785.314 733.69 C 810.818 707.106 849.071 701.617 882.715 701.69 C 876.119 714.604 869.437 728.028 863.048 740.964 C 860.749 745.619 848.13 757.412 843.695 763.556 C 831.677 780.203 827.187 795.398 819.141 813.473 C 804.264 816.982 785.582 820.952 772.395 828.75 C 754.883 839.105 736.183 850.891 719.372 862.405 z" fill="rgb(216,215,217)" transform="translate(0,0)"></path>
<path d="M 936.891 821.243 C 939.309 819.941 946.649 816.171 947.949 814.234 C 956.216 801.905 963.366 786.335 970.576 773.104 C 988.943 739.95 1007.06 706.661 1024.94 673.24 C 1038.98 699.32 1053.17 725.32 1067.5 751.24 C 1075.72 766.109 1088.65 793.52 1101.63 802.857 C 1084.52 836.154 1068.14 869.9 1055.64 905.272 C 1045.54 933.875 1036.98 965.772 1028.82 995.195 C 1064.19 960.897 1133 915.509 1179.73 898.041 C 1198.49 908.437 1221.14 924.238 1239.39 936.261 C 1267.56 954.543 1295.56 973.064 1323.41 991.822 C 1311.78 1000.99 1290.04 1013.7 1276.97 1021.95 L 1205.4 1067.52 C 1167.7 1039.12 1116.03 1018.81 1070.21 1007.96 C 1057.84 1005.04 1043.73 1001.75 1031.09 1001.56 C 1041.74 1019.62 1052.82 1044.16 1062.34 1063.47 L 1111.09 1161.47 C 1096.94 1174.5 1090.66 1176.15 1081.75 1193.42 C 1069.31 1187.44 965.958 1135.42 962.682 1130.38 L 962.02 1131.04 C 940.784 1118.41 916.72 1108.46 895.699 1095.17 C 884.981 1088.4 871.217 1081.46 861.841 1073.08 C 860.489 1074.11 857.899 1076.18 857.334 1075.74 C 835.151 1058.56 750.952 1002.98 733.891 991.46 L 733.591 989.539 C 766.697 967.625 810.949 936.669 844.672 916.824 C 890.976 942.287 932.249 962.469 982.559 980.162 C 994.471 984.351 1011.44 991.646 1023.3 993.996 C 990.84 940.668 957.5 880.156 936.891 821.243 z" fill="rgb(216,215,217)" transform="translate(0,0)"></path>
<path d="M 861.841 1073.08 C 915.302 1047.02 970.153 1023.92 1026.15 1003.87 L 987.994 1079.46 C 980.103 1094.9 969.363 1114.82 962.682 1130.38 L 962.02 1131.04 C 940.784 1118.41 916.72 1108.46 895.699 1095.17 C 884.981 1088.4 871.217 1081.46 861.841 1073.08 z" fill="rgb(61,41,222)" transform="translate(0,0)"></path>
<path d="M 1166.91 700.489 C 1152.24 675.985 1137.97 646.679 1123.52 620.788 C 1111.19 598.694 1093.92 569.542 1084.58 546.199 C 1083.49 543.473 1084.45 522.434 1084.57 517.822 C 1085.32 489.048 1080.69 466.308 1097.88 441.363 C 1110.37 423.074 1129.79 410.691 1151.64 407.09 C 1182.35 401.86 1218.43 415.828 1237.73 440.041 C 1245.51 449.813 1255.24 466.881 1266.6 470.953 C 1278.93 475.073 1293.63 476.865 1306.54 478.42 C 1412.06 491.131 1487.85 572.545 1504.59 675.201 L 1504.12 676.009 C 1500.94 677.411 1489.9 669.009 1484.91 666.414 C 1458.49 652.658 1411.67 631.823 1383.08 625.359 C 1375.59 613.555 1366.93 599.296 1358.45 588.484 C 1325.29 546.156 1278.41 516.718 1225.88 505.243 C 1204.79 500.539 1183.66 498.742 1162.13 498.058 C 1162.48 535.202 1162.42 572.35 1161.94 609.493 C 1211.88 617.238 1239.97 624.865 1271.77 668.394 C 1283.72 684.649 1292.89 702.783 1298.88 722.049 C 1314.09 770.968 1302.44 765.202 1351.13 787.934 C 1399.13 810.346 1432.11 861.607 1439.74 914.401 C 1435.33 914.57 1442.15 920.51 1436.61 928.141 L 1436.63 927.103 C 1436.71 924.293 1435.99 918.593 1432.65 923.529 C 1431.8 924.851 1431.03 926.118 1430.07 927.363 C 1423.82 924.195 1404.78 910.894 1397.46 906.077 L 1327.07 860.013 C 1312.43 849.896 1297.75 839.445 1282.64 830.06 C 1266.74 820.177 1247.38 817.267 1229.41 813.003 C 1217.76 783.737 1211.68 766.324 1189.42 744.012 C 1187.56 742.143 1169.56 705.528 1166.91 700.489 z" fill="rgb(236,235,236)" transform="translate(0,0)"></path>
<path d="M 1166.91 700.489 C 1210.99 703.378 1244.87 705.07 1276.65 742.049 C 1298.43 767.397 1330.02 808.628 1331.37 844.64 C 1331.45 846.708 1327.87 857.403 1327.07 860.013 C 1312.43 849.896 1297.75 839.445 1282.64 830.06 C 1266.74 820.177 1247.38 817.267 1229.41 813.003 C 1217.76 783.737 1211.68 766.324 1189.42 744.012 C 1187.56 742.143 1169.56 705.528 1166.91 700.489 z" fill="rgb(216,215,217)" transform="translate(0,0)"></path>
<path d="M 1532.94 814.599 C 1563.88 823.839 1595.6 844.363 1618.57 866.859 C 1624.3 872.473 1637.81 888.793 1643.5 891.138 C 1649.37 913.863 1648.18 969.126 1638.7 989.518 C 1619.32 1031.2 1629.56 1023.5 1635.83 1063.58 C 1643.51 1112.61 1629.15 1169.81 1608.23 1215.11 L 1606.92 1217.06 L 1605.82 1217.23 C 1593.53 1219.19 1577.6 1223.88 1564.9 1226.55 C 1538.75 1232.05 1516.79 1233.96 1490.16 1234.13 C 1514.59 1204.67 1530.38 1182.32 1543.42 1145.21 C 1554.25 1115.02 1558.89 1082.95 1557.06 1050.92 C 1556.52 1042.9 1553.38 1022.37 1553.72 1016.18 C 1554.42 1003.36 1560.59 986.676 1562.4 972.287 C 1569.91 912.458 1558.3 867.541 1532.94 814.599 z" fill="rgb(216,215,217)" transform="translate(0,0)"></path>
<path d="M 1233.39 1170.1 C 1248.01 1166.82 1262.34 1163.38 1275.55 1156.14 C 1302.73 1141.24 1328.17 1122.83 1354.04 1105.87 C 1367.77 1114.97 1380.38 1113.56 1396 1116.17 C 1403.99 1117.51 1422.06 1117.49 1428.76 1120 C 1406.45 1171.45 1368.93 1196.53 1316.42 1211.24 L 1312.54 1221.89 C 1304.55 1225.46 1297.99 1232.79 1290.31 1237.5 C 1251.38 1261.4 1215.66 1262.4 1171.2 1257.88 C 1182.37 1234.57 1186.11 1237.55 1203.41 1219.33 C 1215.84 1206.25 1226.29 1186.58 1233.39 1170.1 z" fill="rgb(236,235,236)" transform="translate(0,0)"></path>
<path d="M 1469.21 731.2 C 1474.98 727.553 1515.07 726.828 1526.57 722.999 C 1586.5 758.575 1620.65 802.771 1639.53 871.359 C 1641.18 877.346 1642.78 884.948 1643.5 891.138 C 1637.81 888.793 1624.3 872.473 1618.57 866.859 C 1595.6 844.363 1563.88 823.839 1532.94 814.599 C 1514.94 780.972 1497.01 757.302 1469.21 731.2 z" fill="rgb(236,235,236)" transform="translate(0,0)"></path>
<path d="M 1383.08 625.359 C 1411.67 631.823 1458.49 652.658 1484.91 666.414 C 1489.9 669.009 1500.94 677.411 1504.12 676.009 L 1504.59 675.201 C 1507.97 695.29 1509.65 709.935 1526.57 722.999 C 1515.07 726.828 1474.98 727.553 1469.21 731.2 C 1446.87 711.609 1430.79 701.974 1405.67 687.097 C 1399.16 662.688 1393.51 648.078 1383.08 625.359 z" fill="rgb(216,215,217)" transform="translate(0,0)"></path>
<path d="M 1171.2 1257.88 C 1215.66 1262.4 1251.38 1261.4 1290.31 1237.5 C 1297.99 1232.79 1304.55 1225.46 1312.54 1221.89 C 1294 1266.33 1269.12 1295.54 1228.33 1321.3 L 1227.34 1321.41 C 1204.61 1315.1 1168.48 1309.76 1147.77 1300.99 C 1152.39 1290.58 1165.26 1267.6 1171.2 1257.88 z" fill="rgb(216,215,217)" transform="translate(0,0)"></path>
<path d="M 1354.04 1105.87 C 1383.47 1086.68 1412.99 1068 1442.34 1048.6 C 1441.16 1071.67 1438.53 1098.67 1428.76 1120 C 1422.06 1117.49 1403.99 1117.51 1396 1116.17 C 1380.38 1113.56 1367.77 1114.97 1354.04 1105.87 z" fill="rgb(216,215,217)" transform="translate(0,0)"></path>
<path d="M 1395.26 1302.61 C 1396.81 1298.11 1401.53 1292.77 1404.44 1288.88 L 1407.44 1284.85 C 1424.23 1262.53 1457.43 1234.73 1487.12 1237.35 C 1459.67 1268.25 1431.66 1285.03 1395.26 1302.61 z" fill="rgb(42,24,144)" transform="translate(0,0)"></path>
<path d="M 1436.61 928.141 C 1442.15 920.51 1435.33 914.57 1439.74 914.401 C 1440.85 922.642 1441 926.687 1441.17 934.982 C 1437.45 932.309 1433.77 929.968 1430.07 927.363 C 1431.03 926.118 1431.8 924.851 1432.65 923.529 C 1434.08 925.334 1434.97 926.566 1436.61 928.141 z" fill="rgb(216,215,217)" transform="translate(0,0)"></path>
<metadata><recraft-signature>{"signed_by": "recraft", "signature_b64": "vQbe8gxhYfcIKkaxY2DrG8XZNSF6wdXIDPwRlWmgpEEFwB4g1hk8jIEROvX3atFdK64nGRCj+ozwbS+wU2PpBw==", "signing_algo": "Ed25519", "generation_timestamp": 1772774635, "identifier": "0880fa60-1ef1-4846-a3e1-827e3e94c786"}</recraft-signature></metadata></svg>