<svg xmlns="http://www.w3.org/2000/svg" viewBox="0 0 256 256" fill="none">
  <rect x="20" y="28" width="216" height="200" rx="48" fill="#171c3f"/>
  <path d="M20 86C20 53.98 45.98 28 78 28H178C210.02 28 236 53.98 236 86V110H20V86Z" fill="#6366f1" opacity="0.18"/>
  <rect x="20" y="28" width="216" height="200" rx="48" stroke="#9aa5ff" stroke-opacity="0.34" stroke-width="4"/>
  <path d="M128 74C100.39 74 78 95.94 78 123C78 139.62 86.43 154.32 99.35 163.2V182L114.95 172.53C119.13 173.66 123.49 174.25 128 174.25C155.61 174.25 178 152.31 178 125.25C178 98.19 155.61 74 128 74Z" fill="#eef2ff"/>
  <path d="M108 116H148" stroke="#4f46e5" stroke-width="10" stroke-linecap="round"/>
  <path d="M108 138H138" stroke="#4f46e5" stroke-width="10" stroke-linecap="round"/>
</svg>
