<svg xmlns="http://www.w3.org/2000/svg" height="1024" preserveAspectRatio="none" style="display: block;" version="1.1" viewBox="0 0 2048 2048" width="1024">
<path d="M 368.45 32.5302 C 369.632 32.4735 370.815 32.4281 371.998 32.3942 C 406.599 31.2971 444.251 32.0001 479.184 31.9978 L 670.537 32.0129 L 1245.59 32.0359 L 1538 32.0372 L 1624.17 32.0777 C 1661.42 32.1459 1689.06 31.4751 1725.98 38.2907 C 1794.51 50.6742 1857.9 82.8942 1908.3 130.958 C 1974.44 193.529 2014.42 286.125 2016.17 376.78 C 2016.91 415.241 2016.61 454.86 2016.65 493.417 L 2016.76 698.049 L 2016.72 1268.55 L 2016.79 1556.03 L 2016.82 1634.56 C 2016.85 1665.44 2017.92 1696.47 2011.71 1726.89 C 1976.84 1897.67 1839.08 2010.98 1665.82 2015.58 L 728.135 2015.56 L 479.719 2015.4 C 432.993 2015.33 368.399 2017.84 324.332 2010.26 C 261.165 1999.38 202.106 1971.65 153.395 1929.99 C 85.7685 1872.88 39.387 1782.74 31.375 1694.58 C 28.7107 1665.27 29.9271 1623.97 29.9496 1593.87 L 29.9503 1433.46 L 30.0472 911.662 L 29.9185 537.235 L 29.6909 428.187 C 29.649 400.731 28.7024 360.467 33.587 333.689 C 45.3921 268.971 71.5351 206.964 114.654 157.133 C 182.668 78.5303 266.513 40.5007 368.45 32.5302 z M 1085.21 1936.44 C 1281.35 1930.56 1513.5 1872.08 1669.45 1749 C 1694.21 1729.29 1717.42 1707.71 1738.88 1684.46 C 1821.73 1596.27 1883.25 1474.11 1914.13 1357.54 C 1931.8 1290.8 1936.2 1221.39 1936.31 1152.68 L 1936.26 1048.92 C 1936.14 983.512 1937.62 910.952 1935.8 846.361 C 1930.62 661.732 1845.01 458.945 1708.43 332.614 C 1518.81 157.219 1220.51 104.905 970.055 113.187 C 967.664 113.279 965.275 113.405 962.888 113.568 C 727.756 124.146 468.527 189.564 304.429 369.336 C 196.722 489.241 130.667 640.754 116.116 801.273 C 110.977 859.498 113.092 932.743 113.075 992.684 L 113.038 1125.23 C 113.017 1193.3 113.14 1265.24 127.982 1331.97 C 159.997 1475.89 233.985 1616.82 343.528 1716.72 C 532.746 1890.23 832.109 1947.97 1082.23 1936.61 C 1083.22 1936.56 1084.22 1936.5 1085.21 1936.44 z M 473.559 1919.67 C 470.961 1916.24 452.231 1907.76 447.141 1905.11 C 431.064 1896.68 415.25 1887.77 399.722 1878.37 C 359.784 1853.91 322.114 1825.92 287.163 1794.75 C 240.599 1752.77 199.733 1704.87 165.607 1652.28 C 159.737 1643.21 130.176 1590.6 126.318 1586.81 L 126.396 1587.95 C 128.119 1615.69 125.824 1648.31 127.173 1676.87 C 129.935 1744.65 160.439 1808.31 211.534 1852.93 C 260.953 1896.66 321.482 1919.3 387.399 1919.62 C 409.396 1919.73 431.514 1919.87 453.526 1919.78 C 459.653 1919.75 467.565 1919.21 473.559 1919.67 z M 1578.77 1919.41 C 1609.42 1918.69 1640.05 1920.6 1670.91 1919.3 C 1741.25 1916.33 1804.2 1887.86 1853.18 1836.96 C 1889.98 1798.69 1913.33 1746.08 1920.14 1693.67 C 1922.62 1674.61 1921.81 1651.85 1921.39 1632.53 C 1921.1 1619.19 1922.52 1600.08 1921.1 1587.41 L 1920.49 1586.85 C 1861.64 1701.85 1773.27 1799.12 1664.42 1868.68 C 1643.21 1882.32 1621.41 1895.02 1599.09 1906.77 C 1594.74 1909.02 1577.59 1915.76 1576.94 1918.95 L 1578.77 1919.41 z M 471.094 129.064 C 451.38 128.351 431.654 128.022 411.928 128.078 C 395.056 128.036 379.085 127.861 362.279 129.583 C 301.371 135.221 244.341 161.943 201.03 205.137 C 124.166 282.182 126.31 354.873 126.762 455.024 C 126.366 460.49 127.354 458.722 129.788 456.105 C 134.818 442.053 156.688 409.054 165.18 395.739 C 219.699 311.896 290.887 240.167 374.316 185.015 C 406.846 163.702 437.25 147.811 471.094 129.064 z M 1922.01 460.254 C 1921.74 389.434 1927.63 332.25 1892.45 266.84 C 1842.37 173.763 1748.89 124.449 1644.25 128.143 C 1625.09 128.82 1595.17 129.677 1576.22 128.386 C 1585.13 134.348 1597.81 140.077 1607.55 145.097 C 1621.28 152.108 1634.7 159.708 1647.78 167.877 C 1764.06 240.07 1855.54 334.381 1918.55 456.307 C 1919.56 458.251 1920.04 459.913 1922.01 460.254 z" fill="rgb(29,17,124)" transform="translate(0,0)"></path>
<path d="M 991.365 163.489 C 1024.53 163.03 1071.73 162.708 1104.45 164.706 C 1264.43 174.474 1453.49 218.648 1589.26 305.535 C 1619.58 325.287 1648.09 347.7 1674.43 372.51 C 1804.55 494.908 1878.16 675.296 1883.46 852.687 C 1884.25 879.388 1883.65 907.359 1883.49 934.166 L 1883.31 1049.9 C 1883.4 1110.22 1886.01 1183.19 1880.21 1241.88 C 1864.96 1389.02 1801.46 1543.23 1698.36 1650.79 C 1535.84 1820.33 1286.45 1878.79 1059.79 1884.94 C 1020.59 1885.35 976.437 1885.4 937.496 1883.11 C 747.806 1871.97 516.079 1811.37 375.625 1676 C 241.82 1545.02 165.635 1366.18 163.88 1178.94 C 162.367 1090.18 164.218 1000.82 163.732 912.016 C 163.575 883.539 163.653 853.701 166.058 825.38 C 174.411 716.064 207.449 610.066 262.686 515.364 C 288.463 470.718 315.967 432.523 351.71 395.061 C 511.13 227.974 767.131 166.77 991.365 163.489 z M 1067.68 1807.99 C 1270.83 1800.83 1503.39 1743.33 1645.64 1589.43 C 1742.32 1484.84 1797.02 1347.54 1806.29 1205.9 C 1807.6 1185.84 1807.25 1164.92 1807.24 1144.8 L 1807.14 1052.91 L 1807.15 929.747 C 1807.2 903.624 1807.68 877.083 1806.82 851.002 C 1801.68 695.009 1737.53 541.043 1622.51 434.28 C 1587.08 401.603 1547.88 373.256 1505.75 349.835 C 1357.23 268.097 1153.02 236.501 984.65 242.459 C 806.158 246.833 624.383 285.95 477.176 391.419 C 340.168 489.821 258.524 654.696 244.743 820.972 C 241.52 859.857 242.125 900.256 242.327 939.328 C 242.766 1024.4 241.785 1109.56 242.258 1194.6 C 243.097 1345.3 310.939 1503.87 420.358 1607.63 C 449.363 1635.46 481.062 1660.32 514.988 1681.87 C 631.728 1755.15 780.857 1790.89 916.957 1804.17 C 966.368 1808.99 1017.98 1808.47 1067.68 1807.99 z" fill="rgb(29,17,124)" transform="translate(0,0)"></path>
<path d="M 952.691 296.432 C 1159.39 289.49 1388.67 316.316 1557.33 447.438 C 1668.09 533.54 1735.56 669.722 1750.69 807.69 C 1754.15 839.198 1754.12 871.384 1754.23 903.177 L 1754.28 1017.5 L 1754.32 1127.4 C 1754.29 1156.91 1754.53 1186.72 1752.19 1216.14 C 1743.58 1328.51 1701.73 1435.78 1631.97 1524.29 C 1529.64 1653.16 1370.22 1714.88 1212.06 1741.42 C 1190.37 1745.08 1168.58 1748.1 1146.71 1750.49 C 1130.32 1752.15 1113.8 1753 1097.46 1754.88 C 1053.82 1756.41 1005.65 1757.02 962.059 1754.76 C 798.612 1746.31 597.605 1696.93 472.246 1585.09 C 366.877 1489.25 303.607 1355.68 296.196 1213.44 C 292.188 1143.21 294.054 1064.4 293.898 993.641 C 295.593 939.568 291.381 881.033 296.446 827.371 C 315.184 628.831 420.561 462.532 603.548 378.102 C 721.901 323.493 822.606 303.494 952.691 296.432 z M 1282.34 1173.74 C 1285.11 1115.34 1273.66 1063.7 1232.64 1020.37 C 1194.49 980.07 1139 954.647 1083.49 953.744 C 1041.58 953.062 1000.42 954.063 958.601 952.69 C 890.49 949.299 814.599 916.046 765.993 867.614 C 764.86 930.015 775.831 980.742 820.346 1027.24 C 860.583 1069.27 917.687 1090.97 975.376 1091.96 C 1071.73 1093.61 1137.53 1081.11 1226.61 1134.16 C 1237.97 1140.92 1249.34 1148.24 1259.55 1156.64 C 1264.8 1160.96 1276.72 1173.75 1282.38 1175.25 L 1282.34 1173.74 z M 1304.35 862.115 C 1288.75 881.792 1263.99 901.652 1243.06 915.027 C 1278.22 941.422 1294.09 954.254 1320.47 990.055 C 1376.22 991.725 1436.27 990.663 1492.29 990.324 C 1459.2 1041.02 1417.4 1062.84 1357.48 1063.32 C 1360.75 1075.96 1366.1 1095.01 1367.5 1107.71 C 1370.27 1132.84 1369.94 1160.93 1370.12 1186.36 C 1420.03 1186.46 1452.81 1190.85 1499.14 1168.3 C 1515.38 1160.59 1530.21 1150.2 1543.01 1137.58 C 1607.49 1073.9 1605.59 975.457 1542.05 911.92 C 1515.34 885.126 1480.52 867.937 1443.01 863.042 C 1426.54 861.043 1407.12 861.393 1390.47 861.419 L 1326.25 861.501 L 1304.35 862.115 z M 1070.74 637.612 C 1130.68 635.065 1168.99 603.775 1188.35 547.28 C 1188.82 597.209 1193.49 648.161 1155.12 686.596 C 1128.64 713.119 1101.77 718.403 1066.06 719.728 L 1065.59 789.75 C 1065.39 814.445 1064.93 842.367 1066.04 866.966 C 1077.76 867.346 1112.02 869.189 1121.66 868.183 C 1155.99 864.597 1197.58 841.381 1222.35 818.003 C 1260.33 782.001 1282.53 732.431 1284.1 680.117 C 1284.56 662.178 1283.63 643.115 1284.33 625.526 C 1286.24 577.282 1280.55 534.318 1245.41 497.946 C 1223.24 474.996 1190.64 459.568 1158.1 463.389 C 1105.18 469.067 1069.58 509.047 1070.75 562.195 C 1071.29 587.078 1070.25 612.656 1070.74 637.612 z M 744.242 1186.1 C 750.204 1179.81 756.204 1173.55 762.239 1167.33 C 775.906 1154.38 792.564 1140.12 808.642 1130.36 C 776.348 1107.72 759.53 1093.29 734.13 1062.79 C 675.106 1062.49 622.028 1070.87 577.497 1024.38 C 567.382 1013.82 559.144 1003.93 551.991 991.047 C 598.793 988.854 649.168 991.865 696.115 990.515 C 687.941 963.164 682.137 940.582 680.455 911.728 C 679.483 895.065 679.744 878.592 679.033 862.08 C 664.602 861.852 648.851 861.283 634.523 861.465 C 582.539 863.009 540.29 877.787 504.111 916.08 C 442.394 981.349 445.33 1082.58 512.929 1142.69 C 562.907 1187.14 613.911 1187.9 677.071 1186.58 C 698.967 1186.13 722.493 1187.39 744.242 1186.1 z M 863.429 1500.86 C 862.395 1500.23 861.887 1499.94 860.933 1499.18 C 860.891 1444.88 854.639 1397.82 896.817 1355.5 C 918.751 1333.49 944.864 1324.67 975.662 1324.9 C 977.763 1324.92 979.865 1324.94 981.967 1324.98 L 982.276 1178.97 C 968.861 1179.15 942.042 1175.39 932.395 1176.68 C 890.496 1183.98 851.051 1204.57 821.201 1235.21 C 759.016 1299.06 764.458 1367.94 764.838 1449.86 C 765.295 1548.45 873.318 1629.68 955 1552.97 C 982.09 1527.53 983.108 1493.16 982.746 1457.39 C 982.492 1441.68 982.523 1425.96 982.838 1410.25 C 922.309 1413.31 883.449 1443.61 863.429 1500.86 z M 677.934 1429.71 L 678.064 1417.25 C 677.977 1356.49 677.823 1336.63 693.378 1277.09 C 633.691 1272.92 608.709 1283.37 545.57 1261.91 C 542.646 1307 550.851 1348.08 581.767 1382.5 C 606.512 1410.05 641.294 1426.46 677.934 1429.71 z M 674.351 616.365 C 598.501 626.507 548.028 686.774 544.73 762.785 C 544.437 769.541 543.542 780.246 545.774 786.408 C 548.04 786.786 546.893 786.815 549.215 786.269 C 601.67 770.958 624.882 771.774 678.91 772.73 C 678.977 761.038 680.421 621.478 678.658 616.485 C 676.782 616.344 676.229 616.269 674.351 616.365 z M 1371.39 1276.61 C 1370.96 1291.18 1369.87 1424.2 1372 1429.3 L 1372.25 1429.54 C 1458.47 1421.92 1508.87 1348.6 1504.18 1265.55 C 1504.11 1264.31 1503.88 1263.52 1503.6 1262.38 L 1502.27 1261.99 C 1448.29 1280.06 1425.64 1275.56 1371.39 1276.61 z M 378.219 1097.84 L 379.095 1165.43 C 379.19 1187.14 378.426 1211.56 380.959 1233 C 405.904 1444.08 562.015 1597.57 767.621 1636.97 C 726.882 1602.79 705.859 1574.1 688.39 1522.68 C 555.276 1510.66 473.017 1433.63 459.363 1298.27 C 456.636 1271.23 459.483 1242.55 458.093 1215.4 C 431.605 1191.69 408.732 1165.25 392.546 1133.07 C 389.375 1126.76 380.761 1101.41 378.219 1097.84 z M 1067.87 1326.36 C 1088.65 1321.92 1100.18 1318.21 1115.64 1303.27 C 1137.81 1279.1 1138.19 1262.26 1138.16 1230.49 L 1138.04 1187.43 C 1112.94 1181.81 1094.11 1178.15 1067.86 1178.83 C 1068.27 1228 1068.28 1277.18 1067.87 1326.36 z M 980.476 866.969 C 980.759 830.806 980.78 794.64 980.54 758.476 C 980.473 751.999 980.632 725.411 979.677 720.283 C 977.125 719.61 976.957 719.845 974.282 720.212 C 959.086 724.047 950.139 727.772 938.306 738.063 C 913.026 760.048 913.554 790.033 914.103 820.816 C 914.314 832.642 913.982 845.033 914.842 857.191 C 919.262 858.415 923.783 859.746 928.246 860.758 C 945.361 864.822 962.886 866.906 980.476 866.969 z M 1070.32 402.954 C 1089.48 392.143 1113.94 382.581 1136 380.286 C 1105.85 378.074 1075.8 378.176 1045.56 378.053 C 1013.68 377.816 981.801 377.948 949.924 378.448 C 940.359 378.86 929.408 379.046 920.038 380.368 C 965.035 394.22 991.926 404.08 1025.81 439.833 C 1042.08 423.996 1050.79 414.865 1070.32 402.954 z M 1130.04 1673.04 C 1130.92 1673.03 1138.02 1673.36 1138.43 1672.56 C 1138.13 1671.69 1136.25 1671.26 1135.49 1670.96 C 1082.71 1660.22 1060.18 1648.41 1023.05 1609.45 C 988.638 1646.05 969.529 1657.86 921.141 1670.22 C 912.47 1672.88 918.211 1672.84 923.069 1673.42 C 961.446 1675.82 1000.11 1676.06 1038.57 1675.83 C 1066.99 1675.66 1101.95 1676.35 1130.04 1673.04 z M 458.675 836.954 C 458.711 821.203 459.371 802.342 458.588 786.854 C 451.548 647.454 548.49 528.096 691.378 524.531 C 700.929 490.518 724.026 452.205 749.422 428.409 C 754.901 423.275 759.854 417.127 766.209 413.059 L 765.782 412.359 C 589.726 445.177 451.668 557.108 399.388 731.125 C 375.257 811.445 378.97 865.751 378.666 949.037 L 379.703 950.186 C 389.566 912.133 427.079 860.884 458.675 836.954 z M 1594.79 1210 C 1593.77 1239.54 1595.65 1272.91 1592.95 1301.61 C 1587.45 1359.91 1557.85 1417.73 1515.1 1457.46 C 1473.01 1496.83 1418.22 1519.84 1360.64 1522.32 C 1350.62 1550.67 1341.83 1571.7 1323.2 1596.35 C 1317.09 1604.51 1310.39 1612.21 1303.16 1619.39 C 1300.52 1622.02 1283.91 1636.22 1283.7 1637.41 L 1284.22 1637.74 C 1419.58 1607.27 1525.02 1546.8 1599.28 1427.89 C 1650.21 1346.34 1672.97 1265.95 1670.39 1170.09 C 1669.77 1147.31 1672.2 1124.08 1670.41 1100.85 L 1669.68 1099.89 C 1655.51 1142.88 1629.56 1181.03 1594.79 1210 z M 1372.98 615.337 C 1371.38 634.984 1372.56 658.286 1371.95 678.33 C 1371.06 707.781 1365.72 745.92 1354.01 773.151 C 1391.32 770.68 1454.16 771.35 1489.23 781.862 L 1504.71 787.04 C 1504.86 735.365 1498.34 694.844 1460.16 656.057 C 1434.49 629.974 1408.33 620.54 1372.98 615.337 z M 1286.48 412.975 C 1295.97 422.586 1306.54 431.956 1315.61 441.471 C 1337.74 464.689 1353.22 493.373 1362.77 523.897 C 1493.82 527.391 1588.7 630.339 1593.59 759.122 C 1594.61 785.753 1593.27 812.532 1594.26 838.967 C 1615.26 856.571 1633.19 877.548 1647.31 901.037 C 1651.24 907.611 1669.51 949.552 1670.54 950.404 C 1670.84 929.187 1670.19 908.168 1670.01 887.004 C 1669.69 851.457 1668.89 814.491 1662.5 779.397 C 1647.13 695.087 1605.37 612.267 1545.68 550.936 C 1475.27 479.725 1384.87 431.609 1286.48 412.975 z M 873.197 467.288 C 839.743 472.614 813.018 488.693 792.798 516.22 C 763.535 556.055 766.466 592.931 766.082 638.885 C 765.521 706.009 777.931 757.642 827.784 806.716 C 826.695 793.113 827.683 772.423 830.259 759.278 C 847.978 685.319 910.64 641.354 984.629 636.132 C 984.847 619.912 984.89 603.691 984.755 587.471 C 984.507 550.231 984.183 525.248 956.313 496.073 C 937.709 476.599 911.552 466.86 884.739 466.786 C 880.885 466.74 877.032 466.908 873.197 467.288 z M 1223.02 1240.79 C 1222.99 1246.91 1223.05 1253.27 1222.61 1259.37 C 1216.58 1344.12 1150.34 1406.11 1066.02 1410.14 L 1065.86 1458.95 C 1065.84 1470.47 1065.51 1482.07 1066.46 1493.56 C 1069.86 1534.66 1094.96 1563.66 1132.93 1577.53 C 1199.09 1596.05 1259.55 1553.98 1277.3 1491.01 C 1287.18 1455.99 1286.64 1375.1 1278.96 1339.53 C 1274.91 1321.05 1268.08 1303.28 1258.7 1286.84 C 1249.27 1269.73 1237.23 1254.2 1223.02 1240.79 z" fill="rgb(29,17,124)" transform="translate(0,0)"></path>
<path d="M 923.069 1673.42 C 918.211 1672.84 912.47 1672.88 921.141 1670.22 L 923.069 1673.42 z" fill="rgb(230,224,244)" fill-opacity="0.0117647" transform="translate(0,0)"></path>
<path d="M 1135.49 1670.96 C 1136.25 1671.26 1138.13 1671.69 1138.43 1672.56 C 1138.02 1673.36 1130.92 1673.03 1130.04 1673.04 L 1135.49 1670.96 z" fill="rgb(134,127,182)" fill-opacity="0.0431373" transform="translate(0,0)"></path>
<path d="M 860.933 1499.18 C 861.887 1499.94 862.395 1500.23 863.429 1500.86 C 863.135 1502.04 862.939 1503.6 861.942 1504.37 C 860.682 1504.21 860.983 1500.23 860.933 1499.18 z" fill="rgb(46,40,136)" fill-opacity="0.87451" transform="translate(0,0)"></path>
<path d="M 126.762 455.024 L 129.788 456.105 C 127.354 458.722 126.366 460.49 126.762 455.024 z" fill="rgb(230,224,244)" fill-opacity="0.0156863" transform="translate(0,0)"></path>
<metadata><recraft-signature>{"signed_by": "recraft", "signature_b64": "ejzCL0snczkjwQmDgfbRM2mZnpHCvySYZTcrknCEUuF6vcWYpmQ1UG+TTmf2CXxQOxxZzBZ76l+JW8kkP1ZtDA==", "signing_algo": "Ed25519", "generation_timestamp": 1772774464, "identifier": "fda0d733-34e8-414d-b9d5-2539af6c83b4"}</recraft-signature></metadata></svg>