<svg xmlns="http://www.w3.org/2000/svg" viewBox="0 0 256 256" fill="none">
  <rect x="20" y="28" width="216" height="200" rx="48" fill="#171c3f"/>
  <path d="M20 86C20 53.98 45.98 28 78 28H178C210.02 28 236 53.98 236 86V110H20V86Z" fill="#6366f1" opacity="0.18"/>
  <rect x="20" y="28" width="216" height="200" rx="48" stroke="#9aa5ff" stroke-opacity="0.34" stroke-width="4"/>
  <path d="M92 94C92 79.64 107.22 68 126 68C144.78 68 160 79.64 160 94C160 101.9 155.4 108.98 148 113.66V126H104V113.66C96.6 108.98 92 101.9 92 94Z" fill="#eef2ff"/>
  <path d="M110 144H146" stroke="#eef2ff" stroke-width="12" stroke-linecap="round"/>
  <path d="M114 166H142" stroke="#c7d2fe" stroke-width="12" stroke-linecap="round"/>
</svg>
