<svg xmlns="http://www.w3.org/2000/svg" height="1024" preserveAspectRatio="none" style="display: block;" version="1.1" viewBox="0 0 2048 2048" width="1024">
<defs>
	<linearGradient gradientUnits="userSpaceOnUse" id="Gradient1" x1="615.01" x2="596.329" y1="1659.29" y2="1688.71">
		<stop class="stop0" offset="0" stop-color="rgb(213,212,212)" stop-opacity="1"></stop>
		<stop class="stop1" offset="1" stop-color="rgb(250,249,249)" stop-opacity="1"></stop>
	</linearGradient>
	<linearGradient gradientUnits="userSpaceOnUse" id="Gradient2" x1="1407.67" x2="1431.66" y1="825.781" y2="836.739">
		<stop class="stop0" offset="0" stop-color="rgb(171,170,170)" stop-opacity="1"></stop>
		<stop class="stop1" offset="1" stop-color="rgb(218,218,219)" stop-opacity="1"></stop>
	</linearGradient>
	<linearGradient gradientUnits="userSpaceOnUse" id="Gradient3" x1="1343.83" x2="1379.47" y1="789.06" y2="842.164">
		<stop class="stop0" offset="0" stop-color="rgb(152,151,152)" stop-opacity="1"></stop>
		<stop class="stop1" offset="1" stop-color="rgb(193,192,192)" stop-opacity="1"></stop>
	</linearGradient>
	<linearGradient gradientUnits="userSpaceOnUse" id="Gradient4" x1="678.044" x2="654.76" y1="1685.19" y2="1711">
		<stop class="stop0" offset="0" stop-color="rgb(151,150,150)" stop-opacity="1"></stop>
		<stop class="stop1" offset="1" stop-color="rgb(223,223,223)" stop-opacity="1"></stop>
	</linearGradient>
	<linearGradient gradientUnits="userSpaceOnUse" id="Gradient5" x1="660.24" x2="739.576" y1="1345.59" y2="1443.12">
		<stop class="stop0" offset="0" stop-color="rgb(116,114,115)" stop-opacity="1"></stop>
		<stop class="stop1" offset="1" stop-color="rgb(240,240,239)" stop-opacity="1"></stop>
	</linearGradient>
	<linearGradient gradientUnits="userSpaceOnUse" id="Gradient6" x1="1668.83" x2="1688.62" y1="592.773" y2="564.917">
		<stop class="stop0" offset="0" stop-color="rgb(196,196,196)" stop-opacity="1"></stop>
		<stop class="stop1" offset="1" stop-color="rgb(254,252,254)" stop-opacity="1"></stop>
	</linearGradient>
	<linearGradient gradientUnits="userSpaceOnUse" id="Gradient7" x1="1555.2" x2="1574.36" y1="710.814" y2="780.527">
		<stop class="stop0" offset="0" stop-color="rgb(194,194,194)" stop-opacity="1"></stop>
		<stop class="stop1" offset="1" stop-color="rgb(236,235,235)" stop-opacity="1"></stop>
	</linearGradient>
	<linearGradient gradientUnits="userSpaceOnUse" id="Gradient8" x1="1567.99" x2="1559.98" y1="707.238" y2="640.526">
		<stop class="stop0" offset="0" stop-color="rgb(126,126,126)" stop-opacity="1"></stop>
		<stop class="stop1" offset="1" stop-color="rgb(181,180,180)" stop-opacity="1"></stop>
	</linearGradient>
	<linearGradient gradientUnits="userSpaceOnUse" id="Gradient9" x1="1539.49" x2="1539.82" y1="836.189" y2="777.757">
		<stop class="stop0" offset="0" stop-color="rgb(125,124,125)" stop-opacity="1"></stop>
		<stop class="stop1" offset="1" stop-color="rgb(172,170,170)" stop-opacity="1"></stop>
	</linearGradient>
	<linearGradient gradientUnits="userSpaceOnUse" id="Gradient10" x1="1288.99" x2="1382.59" y1="931.821" y2="1007.42">
		<stop class="stop0" offset="0" stop-color="rgb(157,156,156)" stop-opacity="1"></stop>
		<stop class="stop1" offset="1" stop-color="rgb(255,255,255)" stop-opacity="1"></stop>
	</linearGradient>
	<linearGradient gradientUnits="userSpaceOnUse" id="Gradient11" x1="1020.07" x2="994.001" y1="1242.89" y2="1228.14">
		<stop class="stop0" offset="0" stop-color="rgb(122,121,122)" stop-opacity="1"></stop>
		<stop class="stop1" offset="1" stop-color="rgb(172,170,174)" stop-opacity="1"></stop>
	</linearGradient>
	<linearGradient gradientUnits="userSpaceOnUse" id="Gradient12" x1="749.326" x2="740.575" y1="1614.9" y2="1597.75">
		<stop class="stop0" offset="0" stop-color="rgb(172,170,171)" stop-opacity="1"></stop>
		<stop class="stop1" offset="1" stop-color="rgb(214,213,213)" stop-opacity="1"></stop>
	</linearGradient>
	<linearGradient gradientUnits="userSpaceOnUse" id="Gradient13" x1="1069.74" x2="1163.89" y1="1663.43" y2="1217.41">
		<stop class="stop0" offset="0" stop-color="rgb(171,169,170)" stop-opacity="1"></stop>
		<stop class="stop1" offset="1" stop-color="rgb(225,225,225)" stop-opacity="1"></stop>
	</linearGradient>
</defs>
<path d="M 0 0 L 2048 0 L 2048 2048 L 0 2048 L 0 0 z" fill="rgb(255,255,255)" transform="translate(0,0)"></path>
<path d="M 665.414 271.413 C 680.596 270.187 698.929 270.962 714.351 270.973 L 798.528 271.028 L 1055.98 271.032 L 1264.82 270.986 C 1325.91 270.932 1389.89 267.397 1449.43 280.023 C 1516.84 294.098 1579.62 324.932 1631.96 369.677 C 1717.13 441.517 1769.81 544.608 1778.13 655.721 C 1779.51 673.9 1779.11 693.326 1779.11 711.637 L 1779.15 792.674 L 1779.83 1032.1 L 1779.5 1262.92 C 1779.39 1319.98 1782.65 1387.76 1771.33 1442.57 C 1757.39 1512.57 1725.6 1577.78 1679.04 1631.87 C 1603.45 1719.68 1501.99 1769.07 1386.85 1777.59 C 1385.99 1777.66 1385.14 1777.72 1384.28 1777.78 C 1353.85 1779.76 1310.49 1778.21 1279.25 1778.16 L 1084.21 1778.13 L 821.994 1778.29 L 728.595 1778.23 C 678.803 1778.16 646.448 1778.94 597.252 1767.99 C 527.43 1752.34 462.775 1719.08 409.439 1671.38 C 332.158 1603.29 279.273 1496.3 273.326 1393.55 C 270.63 1346.97 272.214 1287.45 272.191 1239.66 L 272.222 966.348 L 272.369 760.411 C 272.558 705.807 269.953 651.519 281.126 598.053 C 295.171 530.142 326.539 467.018 372.183 414.81 C 449.32 327.934 549.199 278.366 665.414 271.413 z" fill="rgb(46,10,142)" transform="translate(0,0)"></path>
<path d="M 1449.8 838.196 C 1467.51 838.168 1487.36 837.338 1504.84 837.793 C 1516.58 838.328 1528.36 838.232 1540.12 838.252 C 1540.07 846.146 1539.67 857.272 1540.66 864.844 C 1541.25 857.772 1540.92 845.668 1540.95 838.224 C 1555.62 838.422 1570.3 838.426 1584.97 838.238 C 1584.44 862.906 1589.7 869.872 1595.48 893.011 C 1608.62 945.703 1599.79 991.108 1581.6 1041 C 1599.95 1074.5 1598.26 1121.22 1587.76 1157.16 C 1586.94 1160.04 1586 1162.89 1584.96 1165.7 C 1595.67 1206.36 1588.99 1255.31 1567.68 1291.74 C 1545.29 1329.74 1508.84 1357.41 1466.22 1368.76 C 1465.91 1369.27 1465.2 1370.31 1465.08 1370.81 C 1469.54 1397.62 1456.31 1434.14 1440.66 1456.01 C 1419.49 1485.25 1387.59 1504.91 1351.96 1510.67 C 1345.51 1511.7 1338.88 1512.16 1332.37 1512.64 C 1297.62 1569.02 1250.46 1606.06 1185.47 1621.72 C 1145.34 1631.4 1081.77 1630.41 1048.26 1602.56 C 1036.77 1595.37 1031.5 1590.23 1021.7 1580.64 C 993.069 1610.96 959.327 1623.07 917.914 1624.07 C 904.193 1624.41 877.209 1623.82 864.847 1620.43 C 821.758 1613.66 797.793 1596.64 762.747 1575.95 C 763.017 1590.15 762.864 1604.35 763.039 1618.54 C 753.861 1622.66 743.1 1620.72 734.448 1628.17 C 731.36 1630.83 728.089 1633.41 724.049 1632 C 724.135 1617.84 723.778 1603.13 724.183 1589.04 C 723.427 1576.46 723.878 1558.93 723.872 1546.03 L 723.871 1466.96 C 787.465 1465.94 853.18 1467.08 916.994 1466.99 C 934.86 1466.91 952.726 1466.94 970.593 1467.07 C 977.853 1466.88 994.941 1467.52 1000.81 1466.54 C 1001.91 1451.09 1001.1 1426.47 1001.27 1409.96 C 1001.11 1381.99 1001.33 1354.02 1001.92 1326.06 L 1001.93 1323.85 C 1001.31 1315.45 1001.81 1298.97 1001.84 1290.07 C 1000.13 1272.71 1000.89 1230.88 1000.95 1212.11 C 1016.52 1212.09 1041.75 1211.36 1056.66 1212.25 C 1087.69 1211.89 1118.73 1211.88 1149.77 1212.21 C 1149.67 1193.29 1148.82 1166.54 1150.06 1148.43 C 1149.1 1095.86 1150.12 1040.83 1150.04 987.968 L 1209.13 988.118 C 1215.69 988.054 1222.26 988.025 1228.82 988.029 C 1233.96 987.939 1239.19 988.033 1244.35 988.011 C 1262.77 988.027 1283.18 987.589 1301.43 988.133 C 1309.72 987.693 1322.32 988.036 1330.96 988.018 L 1331.2 952.631 L 1331.18 941.399 C 1330.26 922.736 1330.98 893.147 1331.11 873.548 C 1331.32 874.555 1332.35 880.176 1332.69 880.642 C 1338.49 881.536 1352.12 863.226 1356.63 859.653 C 1360.47 856.62 1366.97 852.337 1371.2 849.574 C 1371.11 847.412 1371.05 845.249 1371 843.086 L 1371.03 842.346 C 1371.16 838.625 1371.15 837.958 1374.97 837.984 C 1380.47 838.144 1385.79 838.098 1391.29 838.128 C 1398.88 838.341 1438.16 838.879 1443.96 837.613 L 1449.8 838.196 z" fill="rgb(46,10,142)" transform="translate(0,0)"></path>
<path d="M 1000.95 1212.11 C 1016.52 1212.09 1041.75 1211.36 1056.66 1212.25 L 1056.89 1212.97 C 1062.8 1213.22 1068.71 1213.32 1074.62 1213.28 C 1084.94 1212.81 1095.28 1212.63 1105.61 1212.71 C 1116.84 1212.89 1132.74 1212.72 1143.55 1213.68 C 1141.64 1213.97 1139.8 1214.26 1137.97 1214.89 C 1134.86 1222.7 1135.34 1232.79 1132.56 1241.44 C 1135.69 1246.16 1137.08 1244.38 1140.24 1247.9 C 1124.95 1248.42 1104.5 1248.44 1089.31 1247.95 C 1078.16 1248.56 1062.32 1248.41 1051.26 1247.9 C 1048.29 1247.94 1044.82 1247.55 1042.49 1249.03 C 1040.54 1261.73 1043 1291.48 1041.82 1306.94 C 1044.28 1307.13 1053.07 1307.42 1054.25 1309.15 C 1067.48 1328.55 1082.18 1337.86 1106.22 1340.22 C 1140.12 1343.55 1165.16 1323.07 1183.92 1296.46 C 1220.18 1316.64 1251.44 1339.07 1263.77 1381.2 C 1269.84 1401.93 1268.5 1427.39 1260.03 1447.33 C 1306.94 1478.62 1371.01 1471.23 1404.45 1422.68 C 1410.8 1413.46 1413.93 1402.66 1416.72 1391.98 C 1417.33 1389.49 1418.26 1383.33 1418.94 1381.47 L 1420.61 1378.25 C 1431.74 1375.28 1447.52 1375.55 1464 1371.3 L 1464.18 1381.37 L 1465.08 1370.81 C 1469.54 1397.62 1456.31 1434.14 1440.66 1456.01 C 1419.49 1485.25 1387.59 1504.91 1351.96 1510.67 C 1345.51 1511.7 1338.88 1512.16 1332.37 1512.64 C 1297.62 1569.02 1250.46 1606.06 1185.47 1621.72 C 1145.34 1631.4 1081.77 1630.41 1048.26 1602.56 C 1036.77 1595.37 1031.5 1590.23 1021.7 1580.64 C 993.069 1610.96 959.327 1623.07 917.914 1624.07 C 904.193 1624.41 877.209 1623.82 864.847 1620.43 C 821.758 1613.66 797.793 1596.64 762.747 1575.95 C 763.017 1590.15 762.864 1604.35 763.039 1618.54 C 753.861 1622.66 743.1 1620.72 734.448 1628.17 C 731.36 1630.83 728.089 1633.41 724.049 1632 C 724.135 1617.84 723.778 1603.13 724.183 1589.04 C 723.427 1576.46 723.878 1558.93 723.872 1546.03 L 723.871 1466.96 C 787.465 1465.94 853.18 1467.08 916.994 1466.99 C 934.86 1466.91 952.726 1466.94 970.593 1467.07 C 977.853 1466.88 994.941 1467.52 1000.81 1466.54 C 1001.91 1451.09 1001.1 1426.47 1001.27 1409.96 C 1001.11 1381.99 1001.33 1354.02 1001.92 1326.06 L 1001.93 1323.85 C 1001.31 1315.45 1001.81 1298.97 1001.84 1290.07 C 1000.13 1272.71 1000.89 1230.88 1000.95 1212.11 z" fill="url(#Gradient13)" transform="translate(0,0)"></path>
<path d="M 1189.26 1359.48 C 1237.74 1399.78 1219.71 1454.04 1163.75 1470.77 C 1174.07 1488.66 1178.48 1495.78 1185.75 1515.23 C 1207.93 1506.18 1224.7 1498.34 1241.96 1480.71 C 1256.86 1490.45 1266.2 1495.71 1282.37 1503.13 C 1233.92 1567.59 1151.61 1605.45 1075.31 1565.47 C 1063.15 1555.78 1059.37 1551.84 1052.31 1537.79 L 992.288 1536.98 C 978.479 1577.19 934.885 1581.3 898.67 1581.14 C 844.317 1579.72 800.072 1552.63 763.047 1514.97 C 762.807 1534.63 762.771 1555.74 761.049 1575.25 L 762.747 1575.95 C 763.017 1590.15 762.864 1604.35 763.039 1618.54 C 753.861 1622.66 743.1 1620.72 734.448 1628.17 C 731.36 1630.83 728.089 1633.41 724.049 1632 C 724.135 1617.84 723.778 1603.13 724.183 1589.04 C 723.427 1576.46 723.878 1558.93 723.872 1546.03 L 723.871 1466.96 C 787.465 1465.94 853.18 1467.08 916.994 1466.99 C 934.86 1466.91 952.726 1466.94 970.593 1467.07 C 977.853 1466.88 994.941 1467.52 1000.81 1466.54 C 1011.88 1453.96 1024.65 1445.47 1035.12 1428.97 L 1036.42 1429.34 L 1037.47 1427.59 C 1037.83 1426.94 1038.16 1425.87 1038.91 1425.6 C 1040.86 1426.17 1037.65 1432.1 1040.91 1434.56 C 1041.44 1430.98 1041.08 1415.05 1041.05 1410.5 C 1041.15 1401.21 1041.86 1376.74 1040.43 1368.85 L 1042.51 1367.1 C 1049.95 1370.1 1056.69 1375.12 1066.4 1378.84 C 1096.19 1390.24 1128.81 1391.7 1158.36 1378.97 C 1169.64 1374.16 1180.07 1367.58 1189.26 1359.48 z" fill="rgb(46,10,142)" transform="translate(0,0)"></path>
<path d="M 723.871 1466.96 C 787.465 1465.94 853.18 1467.08 916.994 1466.99 L 919.921 1469.06 C 917.668 1478.01 884.945 1494.03 875.184 1504.5 C 865.829 1504.59 834.698 1504.45 827.473 1505.8 C 816.724 1505.83 771.81 1505.28 764.066 1506.55 C 762.433 1509.26 762.942 1511.71 763.047 1514.97 C 762.807 1534.63 762.771 1555.74 761.049 1575.25 L 762.747 1575.95 C 763.017 1590.15 762.864 1604.35 763.039 1618.54 C 753.861 1622.66 743.1 1620.72 734.448 1628.17 C 731.36 1630.83 728.089 1633.41 724.049 1632 C 724.135 1617.84 723.778 1603.13 724.183 1589.04 C 723.427 1576.46 723.878 1558.93 723.872 1546.03 L 723.871 1466.96 z" fill="rgb(255,255,255)" transform="translate(0,0)"></path>
<path d="M 726.494 1606.43 C 737.589 1600.84 746.513 1594.04 758.138 1589.88 C 758.866 1589.62 759.536 1589.61 760.283 1589.29 C 761.066 1587.83 760.221 1578.65 761.049 1575.25 L 762.747 1575.95 C 763.017 1590.15 762.864 1604.35 763.039 1618.54 C 753.861 1622.66 743.1 1620.72 734.448 1628.17 C 731.36 1630.83 728.089 1633.41 724.049 1632 C 724.135 1617.84 723.778 1603.13 724.183 1589.04 C 727.857 1590.44 726.496 1602.61 726.494 1606.43 z" fill="url(#Gradient12)" transform="translate(0,0)"></path>
<path d="M 1036.42 1429.34 L 1037.47 1427.59 C 1037.83 1426.94 1038.16 1425.87 1038.91 1425.6 C 1040.86 1426.17 1037.65 1432.1 1040.91 1434.56 C 1041.59 1458.23 1041.85 1481.91 1041.69 1505.59 L 893.2 1505.68 C 873.431 1505.66 846.449 1506.77 827.473 1505.8 C 834.698 1504.45 865.829 1504.59 875.184 1504.5 C 884.945 1494.03 917.668 1478.01 919.921 1469.06 L 916.994 1466.99 C 934.86 1466.91 952.726 1466.94 970.593 1467.07 C 977.853 1466.88 994.941 1467.52 1000.81 1466.54 C 1011.88 1453.96 1024.65 1445.47 1035.12 1428.97 L 1036.42 1429.34 z" fill="rgb(178,178,178)" transform="translate(0,0)"></path>
<path d="M 1035.12 1428.97 L 1036.42 1429.34 C 1033.51 1436.42 1023.73 1449.42 1018.04 1455.03 C 1014.68 1458.34 1014.12 1461.82 1011.79 1461.61 C 1006.3 1462.93 1013.29 1472.18 1006.58 1467.51 C 1005.12 1469.32 1004.82 1470.67 1002.63 1470.55 C 1001.67 1478.73 1001.25 1476.17 994.677 1479.62 C 993.033 1479.13 994.111 1475.21 997.652 1475.64 C 998.366 1474.64 997.718 1474.22 998.037 1473.51 C 1001.34 1466.2 995.719 1468.73 987.312 1468.31 C 983.409 1472.08 961.12 1494.58 956.439 1493.37 C 954.876 1490.66 959.501 1491.06 958.472 1487.5 C 957.727 1484.91 961.49 1485.77 962.483 1485.47 C 962.49 1484.55 961.153 1484.83 960.592 1483.94 C 961.295 1479.92 971.334 1474.03 972.831 1472.52 C 976.831 1468.49 980.252 1470.29 982.316 1468.46 L 982.291 1468.42 L 981.719 1468.66 C 978.3 1467.97 976.011 1468.47 970.593 1467.07 C 977.853 1466.88 994.941 1467.52 1000.81 1466.54 C 1011.88 1453.96 1024.65 1445.47 1035.12 1428.97 z" fill="rgb(137,136,136)" transform="translate(0,0)"></path>
<path d="M 1000.95 1212.11 C 1016.52 1212.09 1041.75 1211.36 1056.66 1212.25 L 1056.89 1212.97 C 1052.13 1212.63 1048.15 1212.83 1043.39 1212.94 C 1035.24 1213.73 1036.36 1212.11 1032.21 1220.41 L 1031.57 1221.66 C 1031.45 1221.91 1031.33 1222.16 1031.21 1222.41 L 1030.57 1223.66 C 1030.45 1223.91 1030.33 1224.16 1030.21 1224.41 L 1029.57 1225.66 C 1025.53 1233.69 1020.12 1241.94 1017.05 1250.42 C 1012.95 1261.7 1002.72 1271.19 1002.42 1283.5 C 1002.37 1285.74 1002.09 1287.88 1001.84 1290.07 C 1000.13 1272.71 1000.89 1230.88 1000.95 1212.11 z" fill="url(#Gradient11)" transform="translate(0,0)"></path>
<path d="M 1001.84 1290.07 C 1002.09 1287.88 1002.37 1285.74 1002.42 1283.5 C 1002.72 1271.19 1012.95 1261.7 1017.05 1250.42 C 1020.12 1241.94 1025.53 1233.69 1029.57 1225.66 L 1030.21 1224.41 C 1030.33 1224.16 1030.45 1223.91 1030.57 1223.66 L 1031.21 1222.41 C 1031.33 1222.16 1031.45 1221.91 1031.57 1221.66 L 1032.21 1220.41 C 1036.36 1212.11 1035.24 1213.73 1043.39 1212.94 C 1039.11 1221.4 1032.93 1230.07 1027.89 1237.43 C 1021.89 1246.19 1002.03 1292.46 1004.83 1300.76 C 1005.58 1300.15 1021.76 1273.3 1025.33 1268.81 C 1025.4 1267.87 1002.86 1322.47 1001.93 1323.85 C 1001.31 1315.45 1001.81 1298.97 1001.84 1290.07 z" fill="rgb(178,178,178)" transform="translate(0,0)"></path>
<path d="M 1035.12 1428.97 C 1028.5 1427.95 1033.85 1427.93 1029.49 1428.5 C 1029.18 1428.35 1029.31 1428.46 1029.11 1428.18 C 1029.02 1426.4 1039.15 1412.49 1041.05 1410.5 C 1041.08 1415.05 1041.44 1430.98 1040.91 1434.56 C 1037.65 1432.1 1040.86 1426.17 1038.91 1425.6 C 1038.16 1425.87 1037.83 1426.94 1037.47 1427.59 L 1036.42 1429.34 L 1035.12 1428.97 z" fill="rgb(137,136,136)" transform="translate(0,0)"></path>
<path d="M 1007.62 1320.08 C 1010.19 1315.9 1013.08 1311.59 1015.76 1307.46 L 1017.74 1304.46 C 1018.17 1303.86 1018.3 1303.17 1018.64 1302.52 L 1019.02 1302.41 C 1021.05 1303.89 1014.5 1319.5 1013.29 1322.01 C 1010.6 1325.11 1009.12 1324.44 1008.78 1328.82 C 1008.7 1329.98 1008.5 1334.23 1007.02 1334.7 C 1005.8 1332.08 1007.5 1323.83 1007.62 1320.08 z" fill="rgb(195,194,194)" transform="translate(0,0)"></path>
<path d="M 1038.48 1236.29 C 1039.12 1236.16 1039.41 1236.03 1039.71 1236.14 L 1039.74 1236.22 C 1039.39 1236.82 1038.97 1237.32 1038.52 1237.87 C 1037.67 1238.17 1037.97 1238.14 1037.53 1238.13 C 1037.58 1237.51 1038.14 1236.83 1038.48 1236.29 z" fill="rgb(178,178,178)" transform="translate(0,0)"></path>
<path d="M 1540.95 838.224 C 1555.62 838.422 1570.3 838.426 1584.97 838.238 C 1584.44 862.906 1589.7 869.872 1595.48 893.011 C 1608.62 945.703 1599.79 991.108 1581.6 1041 C 1599.95 1074.5 1598.26 1121.22 1587.76 1157.16 C 1586.94 1160.04 1586 1162.89 1584.96 1165.7 C 1595.67 1206.36 1588.99 1255.31 1567.68 1291.74 C 1545.29 1329.74 1508.84 1357.41 1466.22 1368.76 C 1465.91 1369.27 1465.2 1370.31 1465.08 1370.81 L 1464.18 1381.37 L 1464 1371.3 C 1447.52 1375.55 1431.74 1375.28 1420.61 1378.25 L 1418.94 1381.47 C 1419.05 1379.06 1418.89 1377.78 1418.68 1375.39 C 1417.1 1373.9 1387.87 1368.31 1381.84 1366.47 C 1388 1350.16 1391.27 1339.07 1395.61 1322.42 C 1481.74 1339.12 1543.37 1279.97 1538.61 1192.02 C 1537.91 1178.99 1533.96 1167.74 1529.73 1155.49 C 1495.21 1177.81 1473.08 1179.83 1433.29 1178.83 C 1433.22 1182.29 1432.96 1185.75 1432.5 1189.19 C 1428.9 1218.37 1414.46 1243.12 1391.26 1261.11 C 1368.46 1278.91 1339.44 1286.73 1310.79 1282.79 C 1288.39 1279.92 1257.26 1266.75 1243.35 1248.66 C 1254.9 1237.47 1264.62 1228.15 1275.55 1216.3 C 1283.62 1221.69 1294.31 1228.95 1303.42 1232.18 C 1318.62 1237.49 1335.31 1236.47 1349.74 1229.33 C 1364.87 1221.83 1375.45 1208.97 1380.68 1192.99 C 1386.01 1176.4 1384.53 1158.37 1376.54 1142.87 C 1366.16 1122.47 1350.4 1114.51 1329.6 1107.91 C 1334.84 1091.52 1339.05 1077.97 1342.83 1061.22 C 1384.36 1072.16 1413.76 1094.2 1428.76 1135.04 C 1468.28 1135.98 1509.87 1122.41 1526.33 1083.09 L 1517.61 1067.82 C 1542.5 1017.04 1559.61 971.856 1551.48 913.124 C 1549.18 896.522 1543.82 881.978 1540.88 866.058 L 1540.66 864.844 C 1541.25 857.772 1540.92 845.668 1540.95 838.224 z" fill="rgb(255,255,255)" transform="translate(0,0)"></path>
<path d="M 1150.04 987.968 L 1209.13 988.118 C 1215.69 988.054 1222.26 988.025 1228.82 988.029 C 1233.96 987.939 1239.19 988.033 1244.35 988.011 C 1241.51 991.963 1226.62 1019.51 1227.59 1022.44 C 1228.68 1023.38 1229.92 1024.14 1231.08 1024.99 C 1221.57 1024.93 1208.68 1025.14 1199.55 1024.24 L 1197.19 1024.58 C 1193.89 1032.03 1197.95 1217.38 1196.71 1241.54 C 1196.75 1242.38 1197.09 1247.35 1196.32 1247.56 C 1192.05 1248.72 1177.89 1248.03 1173.74 1247.89 C 1167.76 1248.55 1146.79 1247.99 1140.24 1247.9 C 1137.08 1244.38 1135.69 1246.16 1132.56 1241.44 C 1135.34 1232.79 1134.86 1222.7 1137.97 1214.89 C 1139.8 1214.26 1141.64 1213.97 1143.55 1213.68 C 1132.74 1212.72 1116.84 1212.89 1105.61 1212.71 C 1095.28 1212.63 1084.94 1212.81 1074.62 1213.28 C 1068.71 1213.32 1062.8 1213.22 1056.89 1212.97 L 1056.66 1212.25 C 1087.69 1211.89 1118.73 1211.88 1149.77 1212.21 C 1149.67 1193.29 1148.82 1166.54 1150.06 1148.43 C 1149.1 1095.86 1150.12 1040.83 1150.04 987.968 z" fill="rgb(178,178,178)" transform="translate(0,0)"></path>
<path d="M 1150.04 987.968 L 1209.13 988.118 L 1209.48 989.498 C 1209.1 989.689 1208.7 989.846 1208.33 990.071 C 1198.44 996.207 1155.69 1107.62 1152.54 1124.27 C 1151.07 1132.05 1152.99 1141.24 1150.06 1148.43 C 1149.1 1095.86 1150.12 1040.83 1150.04 987.968 z" fill="rgb(195,194,194)" transform="translate(0,0)"></path>
<path d="M 1228.82 988.029 C 1233.96 987.939 1239.19 988.033 1244.35 988.011 C 1241.51 991.963 1226.62 1019.51 1227.59 1022.44 C 1228.68 1023.38 1229.92 1024.14 1231.08 1024.99 C 1221.57 1024.93 1208.68 1025.14 1199.55 1024.24 C 1203.05 1023.97 1213.23 1023.85 1215.3 1023.42 C 1217.79 1020.98 1223.42 1003.64 1226.31 999.729 C 1228.82 996.328 1231.91 991.701 1228.82 988.029 z" fill="rgb(137,136,136)" transform="translate(0,0)"></path>
<path d="M 1173.74 1247.89 C 1184.74 1243.72 1183.19 1251.37 1187.88 1233.05 L 1188.88 1229.04 C 1189.49 1226.82 1190.49 1222.76 1191.48 1220.46 C 1196.28 1209.24 1193.3 1196.38 1194.8 1185.73 L 1195.19 1185.54 L 1195.28 1185.58 C 1197.67 1192.85 1194.55 1229.46 1196.71 1241.54 C 1196.75 1242.38 1197.09 1247.35 1196.32 1247.56 C 1192.05 1248.72 1177.89 1248.03 1173.74 1247.89 z" fill="rgb(195,194,194)" transform="translate(0,0)"></path>
<path d="M 1331.11 873.548 C 1331.32 874.555 1332.35 880.176 1332.69 880.642 C 1338.49 881.536 1352.12 863.226 1356.63 859.653 C 1360.47 856.62 1366.97 852.337 1371.2 849.574 C 1371.18 851.625 1371.14 853.675 1371.07 855.724 C 1371.05 872.951 1371.49 892.622 1370.83 909.65 C 1371.77 946.905 1370.81 987.492 1370.81 1025.02 L 1314.18 1025.16 C 1306.5 1025.17 1291.64 1025.57 1284.56 1024.87 C 1267.81 1025.53 1248.06 1025.01 1231.08 1024.99 C 1229.92 1024.14 1228.68 1023.38 1227.59 1022.44 C 1226.62 1019.51 1241.51 991.963 1244.35 988.011 C 1262.77 988.027 1283.18 987.589 1301.43 988.133 C 1309.72 987.693 1322.32 988.036 1330.96 988.018 L 1331.2 952.631 L 1331.18 941.399 C 1330.26 922.736 1330.98 893.147 1331.11 873.548 z" fill="url(#Gradient10)" transform="translate(0,0)"></path>
<path d="M 1331.11 873.548 C 1331.32 874.555 1332.35 880.176 1332.69 880.642 C 1338.49 881.536 1352.12 863.226 1356.63 859.653 C 1360.47 856.62 1366.97 852.337 1371.2 849.574 C 1371.18 851.625 1371.14 853.675 1371.07 855.724 C 1355.83 866.919 1347.01 882.026 1332.45 894.383 C 1331.8 908.232 1332.59 928.46 1331.18 941.399 C 1330.26 922.736 1330.98 893.147 1331.11 873.548 z" fill="rgb(137,136,136)" transform="translate(0,0)"></path>
<path d="M 733.088 325.5 L 1142.32 325.7 L 1292.42 325.607 C 1349.59 325.803 1399.31 323.406 1455.26 337.615 C 1518.84 353.764 1557.35 378.845 1606.97 419.017 L 1388.02 418.93 C 1387.94 475.443 1388.19 531.956 1388.78 588.466 C 1379.38 566.255 1367.07 545.392 1352.17 526.426 C 1311.71 474.123 1252.13 440.043 1186.53 431.687 C 1126.88 424.528 1071.92 438.234 1024.48 475.619 C 1013.51 465.822 994.09 454.745 980.57 448.815 C 866.904 398.963 727.849 457.76 677.691 569.919 C 589.32 581.602 535.359 636.652 539.021 727.665 C 528.42 736.729 512.075 754.085 503.34 764.633 C 439.794 846.791 432.439 934.063 462.21 1030.61 C 461.566 1031.81 460.939 1033.03 460.33 1034.26 C 438.462 1078.35 443.352 1119.06 458.198 1163.62 C 431.669 1255.78 483.701 1338.35 571.028 1370.76 L 571.341 1512.82 L 354.013 1512.76 C 334.725 1458.92 324.452 1420.16 323.895 1361.95 L 323.994 911.216 L 323.874 768.807 C 323.78 712.945 320.799 665.219 333.731 610.544 C 349.27 545.278 382.488 485.555 429.74 437.929 C 491 375.919 571.835 337.023 658.517 327.847 C 681.922 325.263 709.229 325.67 733.088 325.5 z" fill="rgb(255,255,255)" transform="translate(0,0)"></path>
<path d="M 873.516 483.385 C 875.427 483.073 880.018 482.891 882.087 482.824 C 931.365 481.222 963.652 489.709 999.876 522.464 L 1000.04 663.57 C 983.293 651.32 961.793 646.357 941.359 646.83 C 903.426 647.708 877.446 663.058 851.815 689.927 C 870.247 703.265 876.445 709.952 890.453 727.303 C 903.931 710.282 919.74 697.797 942.467 696.719 C 967.443 695.422 987.209 711.169 995.3 734.142 C 1000.21 748.075 999.15 762.381 999.137 776.942 L 999.058 817.291 C 964.452 823.264 928.464 836.88 899.148 856.453 C 846.697 892.231 810.375 947.158 797.988 1009.43 C 784.167 1081.35 802.212 1151.5 842.781 1211.5 L 842.862 1313.53 C 752.073 1314 661.281 1313.77 570.495 1312.83 C 511.894 1279.27 491.732 1225.75 511.871 1161.61 C 503.979 1138.28 498.977 1119.66 498.747 1095.11 C 532.994 1129.98 549.686 1140.93 593.744 1162.25 C 598.926 1190.51 606.802 1213.5 628.052 1233.87 C 673.183 1277.13 738.188 1272.14 773.939 1220.2 C 776.426 1215.85 778.831 1211.26 781.224 1206.85 C 765.185 1198.84 755.252 1192.95 740.491 1182.76 C 695.221 1258.75 617.507 1177.7 651.147 1118.17 C 661.471 1099.9 675.525 1092.07 695.275 1086.29 C 690.307 1056 691.39 1034.79 698.474 1005.19 C 682.476 1001.39 671.613 998.116 660.76 984.324 C 650.48 971.181 645.902 954.462 648.054 937.915 C 651.539 911.865 673.066 887.03 701.676 891.732 C 719.345 894.636 728.873 906.754 738.371 920.526 C 752.926 910.067 763.126 903.627 778.544 895.053 C 756.346 854.504 721.046 834.184 674.605 842.357 C 663.574 790.417 640.771 759.718 593.721 733.935 C 567.644 641.807 693.425 579.989 757.038 656.651 C 727.284 701.179 737.216 751.926 777.667 785.719 C 788.81 795.028 800.027 800.437 812.844 806.849 C 819.261 791.72 825.97 776.715 832.965 761.844 C 811.377 749.197 788.428 734.681 790.461 705.546 C 793.002 669.153 831.868 662.06 855.389 640.831 C 884.415 614.632 893.667 586.577 896.171 548.037 L 846.107 547.951 C 846.017 588.553 824.243 601.462 791.648 618.275 C 774.847 600.701 754.582 586.803 732.136 577.461 C 758.212 523.147 814.87 489.754 873.516 483.385 z" fill="rgb(255,255,255)" transform="translate(0,0)"></path>
<path d="M 1051.96 889.244 C 1084.72 888.774 1118.43 889.16 1151.24 889.245 C 1152.28 889.776 1221.84 891.473 1228.5 891.5 C 1228.62 907.772 1229.18 911.579 1225.17 927.506 C 1205.48 927.469 1183.92 928.713 1163.79 928.968 C 1146.51 929.187 1111.16 927.904 1095.62 929.728 L 1093.32 930.967 C 1092.47 942.913 1093.22 956.081 1093.11 968.137 C 1092.57 1029.13 1095.13 1091.1 1093.34 1152.04 L 942.09 1152.07 L 941.663 1411.31 L 832.327 1411.23 C 824.478 1411.27 786.824 1412.06 780.484 1411.1 C 774.873 1408.27 741.911 1409.43 733.48 1409.51 C 745.007 1397.91 758.245 1383.83 770.584 1373.49 C 781.49 1373.45 824.654 1375.41 830.444 1371.11 C 852.769 1370.45 876.423 1370.9 898.846 1370.97 L 898.731 1113.67 L 1051.89 1113.71 L 1051.96 889.244 z" fill="rgb(255,255,255)" transform="translate(0,0)"></path>
<path d="M 1146.81 481.425 C 1224.82 476.162 1302.67 527.491 1337.27 595.957 L 1388.49 596.306 L 1388.27 640.028 L 1304.4 640.212 C 1301.77 626.811 1299.52 613.336 1297.68 599.804 C 1280.88 604.862 1263.71 610.926 1246.05 607.217 C 1224.4 602.671 1210.36 588.253 1205.81 566.622 C 1204.75 561.601 1204.11 551.866 1201.8 548.325 L 1198.25 548.017 C 1182.83 548.079 1167.41 547.94 1151.99 547.6 C 1151.95 557.513 1153.06 567.397 1155.31 577.052 C 1163.34 611.108 1180.42 632.054 1209.62 650.044 L 1178.49 650.031 L 1178.26 672.922 C 1163.85 662.577 1152.22 654.544 1134.66 650.432 C 1102.69 642.942 1077.2 646.244 1049.26 662.794 C 1048.45 617.186 1049.01 569.772 1049 524.032 L 1049.81 523.096 C 1074.23 495.313 1110.96 483.826 1146.81 481.425 z" fill="rgb(255,255,255)" transform="translate(0,0)"></path>
<path d="M 1446.75 475.04 C 1499.29 475.353 1553.14 474.432 1605.33 475.138 C 1621.59 474.93 1637.85 474.944 1654.11 475.18 C 1661.8 486.616 1669.17 498.254 1676.24 510.083 C 1658.01 510.242 1639.79 510.221 1621.57 510.021 C 1576.02 509.596 1530.47 509.465 1484.91 509.631 L 1484.94 740.007 L 1390.42 740.322 C 1376.88 740.331 1354.68 740.927 1341.54 739.936 C 1318.29 740.181 1295.03 740.195 1271.78 739.978 L 1271.9 929.965 C 1215.29 929.99 1151.64 931.482 1095.62 929.728 C 1111.16 927.904 1146.51 929.187 1163.79 928.968 C 1183.92 928.713 1205.48 927.469 1225.17 927.506 C 1229.18 911.579 1228.62 907.772 1228.5 891.5 C 1221.84 891.473 1152.28 889.776 1151.24 889.245 C 1157.31 888.691 1169.5 889.017 1176.21 889.022 C 1194.84 889.096 1213.47 889.272 1232.09 889.55 C 1231.34 827.139 1231.98 763.476 1232.04 700.966 C 1275.19 700.546 1321.61 700.309 1364.68 701.105 C 1389.29 700.038 1421.75 700.959 1447.03 700.983 L 1446.75 475.04 z" fill="rgb(178,178,178)" transform="translate(0,0)"></path>
<path d="M 562.74 775.68 C 575.752 777.828 597.319 793.631 605.991 803.67 C 621.692 821.845 627.619 839.051 626.397 862.597 C 625.573 863.57 625.575 863.534 624.504 864.966 C 578.955 925.902 590.575 1002.08 652.051 1047.08 C 629.232 1063.51 617.545 1073.44 604.733 1098.47 L 599.771 1109.64 C 581.458 1100.75 560.764 1087.61 546.54 1072.85 C 486.088 1010.13 484.155 896.919 524.691 823.404 C 535.006 804.699 547.698 790.355 562.74 775.68 z" fill="rgb(255,255,255)" transform="translate(0,0)"></path>
<path d="M 996.109 868.143 L 998.229 868.189 C 999.829 871.825 999.476 1042.1 999.407 1059.8 L 849.75 1059.85 C 846.813 1059.74 848.098 1060.17 845.715 1058.63 C 843.694 1050.9 845.113 1041.55 845.895 1033.69 C 853.968 952.579 918.741 889.001 996.109 868.143 z" fill="rgb(255,255,255)" transform="translate(0,0)"></path>
<path d="M 1093.67 697.232 C 1124.97 694.339 1139.69 704.722 1159.8 726.891 C 1165.8 721.802 1171.25 715.778 1178.02 710.085 C 1179 749.165 1178.65 791.769 1178.2 830.956 L 1150.5 831.064 L 1049.67 831.22 C 1049.05 811.978 1049.75 792.398 1049.39 773.237 C 1048.71 736.976 1054.6 709.137 1093.67 697.232 z" fill="rgb(255,255,255)" transform="translate(0,0)"></path>
<path d="M 630.489 1473.3 C 643.585 1468.56 653.289 1464.7 665.777 1458.82 C 665.578 1464.51 664.877 1469.23 666.901 1474.45 C 667.977 1517.4 667.064 1563.85 666.959 1607.16 C 658.143 1608.34 642.762 1607.96 633.453 1607.97 L 579.554 1607.94 L 477.918 1607.49 C 462.316 1607.46 444.782 1608.09 429.41 1607.66 C 428.257 1607.72 422.901 1608 422.299 1607.51 C 416.167 1602.49 388.998 1570.08 387.111 1565.67 C 395.687 1564.17 439.365 1565.11 450.487 1565.13 L 465.446 1565.06 C 471.313 1564.91 476.804 1564.86 482.65 1565.08 C 499.835 1563.84 523.422 1564.61 541.011 1564.74 L 629.017 1565.15 C 628.768 1540.22 628.805 1515.28 629.126 1490.36 C 631.083 1485.07 630.518 1479.08 630.489 1473.3 z" fill="rgb(255,255,255)" transform="translate(0,0)"></path>
<path d="M 387.111 1565.67 C 395.687 1564.17 439.365 1565.11 450.487 1565.13 C 450.498 1572.55 450.468 1572.61 454.839 1579.11 L 456.846 1582.11 C 457.097 1582.51 457.348 1582.9 457.6 1583.29 L 459.66 1586.38 C 461.276 1588.78 463.092 1590.94 464.771 1593.53 L 466.783 1596.54 C 469.399 1600.36 471.224 1601.41 468.825 1604.89 C 468.705 1605.41 468.586 1605.94 468.466 1606.46 C 458.215 1608.56 441.208 1604.66 429.41 1607.66 C 428.257 1607.72 422.901 1608 422.299 1607.51 C 416.167 1602.49 388.998 1570.08 387.111 1565.67 z" fill="rgb(195,194,194)" transform="translate(0,0)"></path>
<path d="M 387.111 1565.67 C 395.687 1564.17 439.365 1565.11 450.487 1565.13 C 450.498 1572.55 450.468 1572.61 454.839 1579.11 L 456.846 1582.11 C 457.097 1582.51 457.348 1582.9 457.6 1583.29 L 459.66 1586.38 C 461.276 1588.78 463.092 1590.94 464.771 1593.53 L 466.783 1596.54 C 469.399 1600.36 471.224 1601.41 468.825 1604.89 C 458.906 1598.47 442.492 1575.86 434.544 1565.93 C 419.755 1565.82 401.572 1566.28 387.111 1565.67 z" fill="rgb(137,136,136)" transform="translate(0,0)"></path>
<path d="M 465.446 1565.06 C 471.313 1564.91 476.804 1564.86 482.65 1565.08 C 480.242 1565.91 478.084 1566.73 475.457 1566.64 C 473.745 1566.72 472.145 1567.47 470.416 1567.5 C 470.273 1567.5 469.806 1567.57 469.78 1567.72 C 469.168 1571.16 478.146 1582.79 479.632 1584.4 C 484.026 1589.18 488.564 1594.68 494.136 1596.3 L 495.797 1597.12 L 497.385 1600.15 L 497.315 1599.12 C 498.813 1601.93 500.46 1605.35 503.977 1605.74 C 514.614 1606.93 526.008 1606.95 536.701 1607.06 C 565.364 1607.18 594.028 1607.1 622.69 1606.83 C 631.898 1606.74 659.538 1605.95 666.959 1607.16 C 658.143 1608.34 642.762 1607.96 633.453 1607.97 L 579.554 1607.94 L 477.918 1607.49 C 462.316 1607.46 444.782 1608.09 429.41 1607.66 C 441.208 1604.66 458.215 1608.56 468.466 1606.46 C 468.586 1605.94 468.705 1605.41 468.825 1604.89 C 471.224 1601.41 469.399 1600.36 466.783 1596.54 L 464.771 1593.53 C 463.092 1590.94 461.276 1588.78 459.66 1586.38 L 457.6 1583.29 C 457.348 1582.9 457.097 1582.51 456.846 1582.11 L 454.839 1579.11 C 450.468 1572.61 450.498 1572.55 450.487 1565.13 L 465.446 1565.06 z" fill="rgb(178,178,178)" transform="translate(0,0)"></path>
<path d="M 465.446 1565.06 C 471.313 1564.91 476.804 1564.86 482.65 1565.08 C 480.242 1565.91 478.084 1566.73 475.457 1566.64 C 473.745 1566.72 472.145 1567.47 470.416 1567.5 C 470.273 1567.5 469.806 1567.57 469.78 1567.72 C 469.168 1571.16 478.146 1582.79 479.632 1584.4 C 484.026 1589.18 488.564 1594.68 494.136 1596.3 C 493.465 1609.3 470.217 1581.26 468.89 1580.02 C 464.807 1576.21 463.679 1569.94 460.63 1567.46 C 462.373 1566.9 463.841 1565.95 465.446 1565.06 z" fill="rgb(195,194,194)" transform="translate(0,0)"></path>
<path d="M 1584.9 630.477 C 1585.64 653.684 1584.64 677.684 1585.02 701.041 L 1584.96 708.542 C 1585.24 728.711 1585.56 748.23 1584.92 768.447 C 1586.24 785.752 1585.05 819.415 1584.97 838.238 C 1570.3 838.426 1555.62 838.422 1540.95 838.224 C 1540.92 845.668 1541.25 857.772 1540.66 864.844 C 1539.67 857.272 1540.07 846.146 1540.12 838.252 C 1528.36 838.232 1516.58 838.328 1504.84 837.793 C 1487.36 837.338 1467.51 838.168 1449.8 838.196 L 1443.96 837.613 C 1440.83 836.3 1438.28 837.21 1438.29 832.892 C 1438.94 831.913 1440.49 832.631 1440.41 831.551 C 1440 826.52 1443.23 823.089 1443.61 818.439 C 1443.74 816.835 1450.35 811.419 1451.6 810.646 C 1456.94 807.327 1459.61 803.961 1461.54 797.683 C 1467.16 797.672 1472.67 797.707 1478.28 797.401 C 1489.1 796.553 1505.22 797.709 1516.41 797.825 C 1525.45 797.889 1534.5 797.893 1543.54 797.837 C 1542.65 784.342 1543.24 766.941 1543.18 753.002 C 1541.95 723.658 1542.98 687.102 1542.98 657.203 C 1551.09 655.032 1573.18 640.342 1582.79 637.154 C 1583.8 636.819 1583.52 633.276 1583.56 632.016 L 1584.9 630.477 z" fill="url(#Gradient9)" transform="translate(0,0)"></path>
<path d="M 1584.9 630.477 C 1585.64 653.684 1584.64 677.684 1585.02 701.041 L 1584.96 708.542 L 1584.34 707.235 C 1581.8 701.588 1578.09 705.541 1574.86 708.212 C 1569.96 712.249 1561.55 713.194 1556.59 718.631 C 1553.64 721.854 1546.89 726.879 1547.53 731.693 L 1547.79 731.852 L 1547.49 731.549 L 1548.45 731.549 C 1549.1 731.166 1549.7 730.836 1550.47 730.978 C 1551.83 732.333 1544.91 738.303 1543.73 739.507 C 1543.95 744.324 1543.58 748.074 1544 752.999 L 1543.18 753.002 C 1541.95 723.658 1542.98 687.102 1542.98 657.203 C 1551.09 655.032 1573.18 640.342 1582.79 637.154 C 1583.8 636.819 1583.52 633.276 1583.56 632.016 L 1584.9 630.477 z" fill="url(#Gradient8)" transform="translate(0,0)"></path>
<path d="M 1544.48 712.614 C 1553.73 707.473 1562.06 703.887 1572.69 702.423 C 1577.25 701.795 1582.41 698.132 1585.02 701.041 L 1584.96 708.542 L 1584.34 707.235 C 1581.8 701.588 1578.09 705.541 1574.86 708.212 C 1569.96 712.249 1561.55 713.194 1556.59 718.631 C 1553.64 721.854 1546.89 726.879 1547.53 731.693 L 1547.79 731.852 L 1547.49 731.549 L 1548.45 731.549 C 1549.1 731.166 1549.7 730.836 1550.47 730.978 C 1551.83 732.333 1544.91 738.303 1543.73 739.507 C 1543.43 730.535 1543.68 721.554 1544.48 712.614 z" fill="rgb(178,178,178)" transform="translate(0,0)"></path>
<path d="M 1543.73 739.507 C 1544.91 738.303 1551.83 732.333 1550.47 730.978 C 1549.7 730.836 1549.1 731.166 1548.45 731.549 L 1547.49 731.549 L 1547.79 731.852 L 1547.53 731.693 C 1546.89 726.879 1553.64 721.854 1556.59 718.631 C 1561.55 713.194 1569.96 712.249 1574.86 708.212 C 1578.09 705.541 1581.8 701.588 1584.34 707.235 L 1584.96 708.542 C 1585.24 728.711 1585.56 748.23 1584.92 768.447 C 1583.66 769.369 1583.41 769.841 1583.43 771.458 L 1583.51 777.515 C 1580.22 778.765 1576.89 779.93 1573.54 781.01 C 1569.64 782.233 1569.69 782.502 1565.54 782.475 C 1569.33 780.846 1566.98 779.45 1566.56 779.578 C 1562.77 780.726 1548.13 787.646 1544.52 789.201 C 1543.68 776.925 1544.93 763.532 1544 752.999 C 1543.58 748.074 1543.95 744.324 1543.73 739.507 z" fill="url(#Gradient7)" transform="translate(0,0)"></path>
<path d="M 1478.28 797.401 C 1489.1 796.553 1505.22 797.709 1516.41 797.825 C 1512.9 807.391 1512.22 801.846 1509.73 806.464 C 1510.57 806.945 1511.58 807.018 1512.46 807.427 C 1510.95 807.947 1509.64 807.175 1507.93 808.173 L 1507.81 808.508 C 1511.8 812.289 1507.6 809.421 1506.81 812.418 C 1508.97 816.887 1503.78 814.303 1501.99 816.48 C 1502.33 817.153 1503.57 816.914 1504.17 816.906 C 1507.13 816.866 1505.85 818.689 1506.37 819.863 C 1508.74 820.586 1508.42 817.289 1510.48 818.221 C 1510.47 821.663 1494.46 833.844 1495.99 835.723 C 1497 836.135 1497.95 836.011 1499.02 836.054 C 1501.04 836.134 1501.69 836.011 1503.62 835.615 C 1503.93 835.551 1504.84 835.646 1505.04 835.98 C 1505.31 836.417 1504.86 837.687 1504.84 837.793 C 1487.36 837.338 1467.51 838.168 1449.8 838.196 L 1443.96 837.613 C 1440.83 836.3 1438.28 837.21 1438.29 832.892 C 1438.94 831.913 1440.49 832.631 1440.41 831.551 C 1440 826.52 1443.23 823.089 1443.61 818.439 C 1443.74 816.835 1450.35 811.419 1451.6 810.646 C 1456.94 807.327 1459.61 803.961 1461.54 797.683 C 1467.16 797.672 1472.67 797.707 1478.28 797.401 z" fill="rgb(178,178,178)" transform="translate(0,0)"></path>
<path d="M 1461.54 797.683 C 1467.16 797.672 1472.67 797.707 1478.28 797.401 C 1479.83 797.765 1481.46 798.044 1482.95 798.605 C 1482.62 801.136 1453.57 834.403 1449.8 838.196 L 1443.96 837.613 C 1440.83 836.3 1438.28 837.21 1438.29 832.892 C 1438.94 831.913 1440.49 832.631 1440.41 831.551 C 1440 826.52 1443.23 823.089 1443.61 818.439 C 1443.74 816.835 1450.35 811.419 1451.6 810.646 C 1456.94 807.327 1459.61 803.961 1461.54 797.683 z" fill="rgb(255,255,255)" transform="translate(0,0)"></path>
<path d="M 1542.98 571.488 C 1551.41 570.564 1566.73 571.029 1575.61 571.045 L 1635.08 571.22 C 1647.16 571.25 1693.07 570.304 1702.66 571.838 C 1705.49 582.905 1708.44 593.941 1711.5 604.945 C 1707.55 606.493 1686.53 605.998 1681.15 605.994 C 1676.5 606.062 1671.63 605.931 1666.96 605.881 L 1585.25 606.034 C 1585.17 613.646 1585.33 623.007 1584.9 630.477 L 1583.56 632.016 C 1583.52 633.276 1583.8 636.819 1582.79 637.154 C 1573.18 640.342 1551.09 655.032 1542.98 657.203 L 1542.98 571.488 z" fill="rgb(195,194,194)" transform="translate(0,0)"></path>
<path d="M 1542.98 571.488 C 1551.41 570.564 1566.73 571.029 1575.61 571.045 L 1635.08 571.22 C 1647.16 571.25 1693.07 570.304 1702.66 571.838 C 1705.49 582.905 1708.44 593.941 1711.5 604.945 C 1707.55 606.493 1686.53 605.998 1681.15 605.994 C 1676.5 606.062 1671.63 605.931 1666.96 605.881 L 1667.37 604.693 L 1664.26 603.571 C 1647.53 592.115 1629.8 584.724 1613.37 572.395 C 1609.62 572.179 1606.41 572.071 1602.64 572.041 C 1585.1 572 1559.68 572.794 1542.98 571.488 z" fill="url(#Gradient6)" transform="translate(0,0)"></path>
<path d="M 1542.98 571.488 C 1551.41 570.564 1566.73 571.029 1575.61 571.045 L 1635.08 571.22 C 1647.16 571.25 1693.07 570.304 1702.66 571.838 C 1686.79 572.735 1655.34 572.386 1638.81 572.161 C 1652.18 586.041 1677.35 598.457 1695.59 604.446 C 1696.89 604.873 1708.89 604.755 1711.5 604.945 C 1707.55 606.493 1686.53 605.998 1681.15 605.994 C 1676.5 606.062 1671.63 605.931 1666.96 605.881 L 1667.37 604.693 L 1664.26 603.571 C 1647.53 592.115 1629.8 584.724 1613.37 572.395 C 1609.62 572.179 1606.41 572.071 1602.64 572.041 C 1585.1 572 1559.68 572.794 1542.98 571.488 z" fill="rgb(137,136,136)" transform="translate(0,0)"></path>
<path d="M 1622.04 572.325 C 1627.08 572.238 1633.99 571.898 1638.81 572.161 C 1652.18 586.041 1677.35 598.457 1695.59 604.446 C 1696.89 604.873 1708.89 604.755 1711.5 604.945 C 1707.55 606.493 1686.53 605.998 1681.15 605.994 C 1675.4 601.938 1668.81 599.006 1662.61 595.636 C 1649.16 588.329 1635.52 579.167 1622.04 572.325 z" fill="rgb(178,178,178)" transform="translate(0,0)"></path>
<path d="M 1602.64 572.041 C 1606.41 572.071 1609.62 572.179 1613.37 572.395 C 1629.8 584.724 1647.53 592.115 1664.26 603.571 C 1652.7 601.111 1654.11 606.587 1643.73 598.535 C 1633.73 590.775 1619.87 585.727 1609.98 577.003 C 1607.98 575.235 1605.6 574.976 1602.64 572.041 z" fill="rgb(178,178,178)" transform="translate(0,0)"></path>
<path d="M 628.75 1371.07 C 666.252 1370.87 703.754 1370.9 741.256 1371.15 C 768.691 1370.9 803.173 1370.18 830.444 1371.11 C 824.654 1375.41 781.49 1373.45 770.584 1373.49 C 758.245 1383.83 745.007 1397.91 733.48 1409.51 C 741.911 1409.43 774.873 1408.27 780.484 1411.1 C 775.224 1411.52 768.883 1411.52 763.549 1411.43 C 737.187 1410.99 709.78 1412.57 683.506 1411.18 C 677.92 1411.42 672.917 1411.62 667.313 1411.57 C 667.274 1431.45 667.824 1454.85 666.901 1474.45 C 664.877 1469.23 665.578 1464.51 665.777 1458.82 C 653.289 1464.7 643.585 1468.56 630.489 1473.3 C 630.518 1479.08 631.083 1485.07 629.126 1490.36 C 627.548 1454.92 628.984 1407.38 628.75 1371.07 z" fill="url(#Gradient5)" transform="translate(0,0)"></path>
<path d="M 763.039 1618.54 C 763.05 1620.32 763.024 1622.1 762.96 1623.87 C 762.818 1639 763.433 1655.35 762.846 1670.35 C 763.462 1680.87 763.01 1697.18 762.978 1708.05 C 752.881 1708.02 742.398 1708.13 732.339 1707.85 C 721.427 1708.14 686.915 1708.27 676.979 1707.17 C 669.75 1707.27 651.782 1707.15 645.107 1706.36 C 642.878 1697.07 634.207 1688.92 633.915 1687.56 L 634.151 1687.3 C 634.248 1687.31 634.35 1687.31 634.444 1687.34 C 634.74 1687.43 635.023 1687.64 635.331 1687.61 C 635.649 1686.93 634.936 1685.19 634.84 1684.84 C 633.962 1683.32 633.23 1681.87 632.689 1680.2 L 632.085 1678.47 C 630.377 1675.65 629.281 1674.39 628.284 1671.22 C 626.5 1665.54 622.661 1665.54 618.903 1663.87 C 625.196 1663.52 632.116 1663.61 638.44 1663.8 C 643.192 1663.63 649.108 1663.48 653.848 1663.82 C 659.259 1663.61 666.53 1663.08 671.743 1663.36 C 676.692 1663.2 722.903 1663.38 723.541 1662.43 C 724.721 1660.67 724.01 1655.35 724.002 1653.37 L 724.056 1639.91 C 724.032 1637.27 724.029 1634.64 724.049 1632 C 728.089 1633.41 731.36 1630.83 734.448 1628.17 C 743.1 1620.72 753.861 1622.66 763.039 1618.54 z" fill="rgb(195,194,194)" transform="translate(0,0)"></path>
<path d="M 653.848 1663.82 C 659.259 1663.61 666.53 1663.08 671.743 1663.36 C 669.175 1665.34 666.808 1663.74 664.917 1664.65 C 664.931 1667.57 715.524 1703.54 723.166 1706 C 723.582 1706.31 723.998 1706.61 724.413 1706.92 C 727.655 1707.07 729.137 1707.28 732.339 1707.85 C 721.427 1708.14 686.915 1708.27 676.979 1707.17 C 669.75 1707.27 651.782 1707.15 645.107 1706.36 C 642.878 1697.07 634.207 1688.92 633.915 1687.56 L 634.151 1687.3 C 634.248 1687.31 634.35 1687.31 634.444 1687.34 C 634.74 1687.43 635.023 1687.64 635.331 1687.61 C 635.649 1686.93 634.936 1685.19 634.84 1684.84 C 633.962 1683.32 633.23 1681.87 632.689 1680.2 L 632.085 1678.47 C 630.377 1675.65 629.281 1674.39 628.284 1671.22 C 626.5 1665.54 622.661 1665.54 618.903 1663.87 C 625.196 1663.52 632.116 1663.61 638.44 1663.8 C 643.192 1663.63 649.108 1663.48 653.848 1663.82 z" fill="url(#Gradient4)" transform="translate(0,0)"></path>
<path d="M 653.848 1663.82 C 659.259 1663.61 666.53 1663.08 671.743 1663.36 C 669.175 1665.34 666.808 1663.74 664.917 1664.65 C 664.931 1667.57 715.524 1703.54 723.166 1706 C 723.582 1706.31 723.998 1706.61 724.413 1706.92 C 727.655 1707.07 729.137 1707.28 732.339 1707.85 C 721.427 1708.14 686.915 1708.27 676.979 1707.17 C 685.936 1706.41 696.993 1706.77 706.209 1706.59 C 703.022 1704.92 695.736 1701.8 693.266 1699.72 C 677.313 1686.26 653.859 1677.37 638.44 1663.8 C 643.192 1663.63 649.108 1663.48 653.848 1663.82 z" fill="rgb(137,136,136)" transform="translate(0,0)"></path>
<path d="M 653.848 1663.82 C 659.259 1663.61 666.53 1663.08 671.743 1663.36 C 669.175 1665.34 666.808 1663.74 664.917 1664.65 C 664.931 1667.57 715.524 1703.54 723.166 1706 C 723.582 1706.31 723.998 1706.61 724.413 1706.92 C 720.549 1706.87 716.321 1707.52 713.065 1705.56 C 692.027 1692.88 672.242 1680.08 653.848 1663.82 z" fill="rgb(178,178,178)" transform="translate(0,0)"></path>
<path d="M 632.085 1678.47 C 633.268 1678.47 635.259 1678.41 636.377 1678.56 C 636.053 1678.17 645.172 1692.91 644.733 1690.76 C 644.496 1691.49 643.415 1690.82 643.056 1690.57 C 639.171 1687.91 639.433 1686.19 634.84 1684.84 C 633.962 1683.32 633.23 1681.87 632.689 1680.2 L 632.085 1678.47 z" fill="rgb(195,194,194)" transform="translate(0,0)"></path>
<path d="M 763.039 1618.54 C 763.05 1620.32 763.024 1622.1 762.96 1623.87 C 762.818 1639 763.433 1655.35 762.846 1670.35 C 761.69 1659.83 762.253 1645.37 761.914 1634.22 C 751.927 1637.7 743.331 1641 733.831 1645.83 C 726.173 1649.72 726.728 1644.77 724.002 1653.37 L 724.056 1639.91 C 724.032 1637.27 724.029 1634.64 724.049 1632 C 728.089 1633.41 731.36 1630.83 734.448 1628.17 C 743.1 1620.72 753.861 1622.66 763.039 1618.54 z" fill="rgb(178,178,178)" transform="translate(0,0)"></path>
<path d="M 763.039 1618.54 C 763.05 1620.32 763.024 1622.1 762.96 1623.87 C 757.591 1624.69 749.465 1630.68 743.993 1632.72 C 737.551 1635.12 730.556 1637.8 724.056 1639.91 C 724.032 1637.27 724.029 1634.64 724.049 1632 C 728.089 1633.41 731.36 1630.83 734.448 1628.17 C 743.1 1620.72 753.861 1622.66 763.039 1618.54 z" fill="rgb(137,136,136)" transform="translate(0,0)"></path>
<path d="M 1360.31 797.279 C 1377.49 795.989 1421.58 797.048 1439.85 797.755 C 1446.59 798.157 1454.62 797.696 1461.54 797.683 C 1459.61 803.961 1456.94 807.327 1451.6 810.646 C 1450.35 811.419 1443.74 816.835 1443.61 818.439 C 1443.23 823.089 1440 826.52 1440.41 831.551 C 1440.49 832.631 1438.94 831.913 1438.29 832.892 C 1438.28 837.21 1440.83 836.3 1443.96 837.613 C 1438.16 838.879 1398.88 838.341 1391.29 838.128 C 1385.79 838.098 1380.47 838.144 1374.97 837.984 C 1371.15 837.958 1371.16 838.625 1371.03 842.346 L 1371 843.086 C 1371.05 845.249 1371.11 847.412 1371.2 849.574 C 1366.97 852.337 1360.47 856.62 1356.63 859.653 C 1352.12 863.226 1338.49 881.536 1332.69 880.642 C 1332.35 880.176 1331.32 874.555 1331.11 873.548 C 1330.85 859.75 1330.64 837.935 1331.35 824.436 C 1331.25 815.309 1331.24 806.182 1331.33 797.055 L 1360.31 797.279 z" fill="url(#Gradient3)" transform="translate(0,0)"></path>
<path d="M 1439.85 797.755 C 1446.59 798.157 1454.62 797.696 1461.54 797.683 C 1459.61 803.961 1456.94 807.327 1451.6 810.646 C 1450.35 811.419 1443.74 816.835 1443.61 818.439 C 1443.23 823.089 1440 826.52 1440.41 831.551 C 1440.49 832.631 1438.94 831.913 1438.29 832.892 C 1438.28 837.21 1440.83 836.3 1443.96 837.613 C 1438.16 838.879 1398.88 838.341 1391.29 838.128 C 1406.25 820.171 1422.98 812.144 1439.85 797.755 z" fill="url(#Gradient2)" transform="translate(0,0)"></path>
<path d="M 1360.31 797.279 C 1377.49 795.989 1421.58 797.048 1439.85 797.755 C 1422.98 812.144 1406.25 820.171 1391.29 838.128 C 1385.79 838.098 1380.47 838.144 1374.97 837.984 C 1391.33 826.571 1406.04 812.671 1420 798.484 C 1409.09 797.933 1398.16 797.747 1387.24 797.927 C 1382.93 797.89 1362.62 798.852 1360.31 797.279 z" fill="rgb(137,136,136)" transform="translate(0,0)"></path>
<path d="M 1331.35 824.436 C 1332.37 825.49 1332.37 825.718 1332.35 827.416 L 1332.02 854.372 C 1332.01 862.075 1331.89 866.984 1332.56 874.728 C 1346.98 864.74 1355.43 852.011 1371 843.086 C 1371.05 845.249 1371.11 847.412 1371.2 849.574 C 1366.97 852.337 1360.47 856.62 1356.63 859.653 C 1352.12 863.226 1338.49 881.536 1332.69 880.642 C 1332.35 880.176 1331.32 874.555 1331.11 873.548 C 1330.85 859.75 1330.64 837.935 1331.35 824.436 z" fill="rgb(178,178,178)" transform="translate(0,0)"></path>
<path d="M 1346.86 855.934 C 1351.75 856.068 1341.2 863.002 1340.06 863.67 L 1338.61 864.53 C 1338.36 864.817 1338.12 865.103 1337.88 865.389 L 1337.79 865.336 C 1337.44 862.753 1345 857.295 1346.86 855.934 z" fill="rgb(178,178,178)" transform="translate(0,0)"></path>
<path d="M 522.013 1663 C 542.179 1662.85 562.346 1662.81 582.512 1662.9 C 591.531 1662.92 609.368 1662.54 617.528 1663.7 C 617.986 1663.76 618.444 1663.81 618.903 1663.87 C 622.661 1665.54 626.5 1665.54 628.284 1671.22 C 629.281 1674.39 630.377 1675.65 632.085 1678.47 L 632.689 1680.2 C 633.23 1681.87 633.962 1683.32 634.84 1684.84 C 634.936 1685.19 635.649 1686.93 635.331 1687.61 C 635.023 1687.64 634.74 1687.43 634.444 1687.34 C 634.35 1687.31 634.248 1687.31 634.151 1687.3 L 633.915 1687.56 C 634.207 1688.92 642.878 1697.07 645.107 1706.36 C 630.347 1705.52 617.51 1703.95 602.974 1701.36 C 596.135 1700.74 584.529 1697.82 577.472 1696.23 L 573.455 1695.29 C 570.407 1694.56 567.053 1693.92 564.285 1692.43 C 539.027 1686.31 517.789 1674.83 495.322 1663.04 C 504.206 1662.96 513.174 1663.18 522.013 1663 z" fill="url(#Gradient1)" transform="translate(0,0)"></path>
<path d="M 522.013 1663 C 542.179 1662.85 562.346 1662.81 582.512 1662.9 C 591.531 1662.92 609.368 1662.54 617.528 1663.7 C 599.561 1664.96 575.87 1663.18 556.044 1664.03 C 570.756 1678.84 587.014 1688.32 602.974 1701.36 C 596.135 1700.74 584.529 1697.82 577.472 1696.23 L 573.455 1695.29 C 570.407 1694.56 567.053 1693.92 564.285 1692.43 C 539.027 1686.31 517.789 1674.83 495.322 1663.04 C 504.206 1662.96 513.174 1663.18 522.013 1663 z" fill="rgb(137,136,136)" transform="translate(0,0)"></path>
<path d="M 495.322 1663.04 C 504.206 1662.96 513.174 1663.18 522.013 1663 C 528.608 1664.79 561.112 1686.97 564.285 1692.43 C 539.027 1686.31 517.789 1674.83 495.322 1663.04 z" fill="rgb(195,194,194)" transform="translate(0,0)"></path>
<metadata><recraft-signature>{"signed_by": "recraft", "signature_b64": "B0jxDMwM3QrwaJPHrSmYL0zlbz0IRGkZ32vRoIw2KGp8vyhDjesM4GF2j3W2cGg8mzbP0qcbGZaTWWLVEsPhDg==", "signing_algo": "Ed25519", "generation_timestamp": 1772774569, "identifier": "fe1e6293-b803-47a0-a973-d57aa3e6d8fe"}</recraft-signature></metadata></svg>