<svg xmlns="http://www.w3.org/2000/svg" height="1024" preserveAspectRatio="none" style="display: block;" version="1.1" viewBox="0 0 2048 2048" width="1024">
<defs>
	<linearGradient gradientUnits="userSpaceOnUse" id="Gradient1" x1="1144.42" x2="1092.76" y1="1421.48" y2="1434.17">
		<stop class="stop0" offset="0" stop-color="rgb(188,187,187)" stop-opacity="0.32549"></stop>
		<stop class="stop1" offset="1" stop-color="rgb(198,198,197)" stop-opacity="0.486275"></stop>
	</linearGradient>
</defs>
<path d="M 1134.25 257.431 C 1143.31 257.347 1152.35 258.291 1161.2 260.244 C 1188.57 266.387 1212.98 284.515 1227.89 308.097 C 1242.07 330.591 1246.83 357.765 1241.13 383.739 C 1233.75 416.274 1215.78 436.774 1188.52 454.173 C 1178.73 498.623 1189.34 606.842 1234.66 628.174 C 1276.81 591.997 1298.2 553.405 1305.27 498.979 C 1210.15 443.226 1246.07 323.187 1321.82 269.293 C 1348.9 250.029 1382.05 257.627 1402.64 281.447 C 1414.68 295.374 1423.41 306.343 1433.27 321.904 C 1464.45 371.094 1471.21 438.398 1427.43 482.523 C 1417.61 492.398 1408.37 497.577 1396.79 504.483 C 1394.55 523.916 1391.64 536.699 1386.8 555.411 C 1437.35 564.88 1468.13 558.176 1511.88 528.361 C 1503.91 506.979 1502.92 483.619 1509.07 461.641 C 1525.52 404.641 1587.12 370.535 1644 387.38 C 1672.01 395.678 1695.43 416.986 1709.09 442.463 C 1721.76 466.431 1724.23 494.497 1715.93 520.308 C 1697.81 578.44 1637.92 607.829 1580.15 589.428 C 1536.58 632.492 1477.59 652.605 1416.96 651.156 C 1392.03 650.561 1370.13 645.41 1346.47 638.367 C 1334.06 660.023 1303.66 690.364 1285.49 707.657 C 1325.92 711.807 1362.18 729.207 1396.75 749.115 C 1452.84 718.616 1518.19 713.461 1579.18 731.219 C 1600.87 666.372 1663.24 579.64 1729.8 652.398 C 1759.43 684.784 1782.24 728.381 1782.21 773.128 C 1782.18 808.001 1767.04 833.406 1742.91 856.93 C 1752.97 881.166 1763.03 899.686 1770.6 925.387 C 1776.3 944.481 1779.94 964.132 1781.45 984.002 C 1783.19 1005.39 1782.54 1032.14 1782.55 1054 L 1782.4 1166.41 L 1782.38 1255.61 C 1782.5 1293.66 1783.21 1328.04 1776.92 1365.91 C 1768.24 1420.63 1750.41 1473.5 1724.18 1522.3 C 1662.78 1634.69 1558.99 1717.86 1435.92 1753.27 C 1403.94 1762.41 1371.12 1768.33 1337.95 1770.93 C 1301.67 1773.43 1251.51 1771.9 1214.01 1771.87 L 993.814 1771.74 L 819.814 1771.81 C 773.104 1771.87 725.615 1773.58 679.388 1767.03 C 621.935 1758.96 566.407 1740.6 515.463 1712.84 C 404.65 1651.86 322.566 1549.4 287.232 1427.95 C 278.197 1396.37 272.382 1363.96 269.875 1331.21 C 267.778 1305.79 268.28 1276.64 268.242 1250.91 L 268.16 1137.62 L 268.189 1042.39 C 268.218 1016.53 267.395 991.497 271.122 965.817 C 276.649 927.873 288.87 891.212 307.217 857.541 C 261.184 816.566 258.401 760.065 283.787 706.446 C 300.824 670.732 348.585 604.734 396.121 629.422 C 429.266 646.635 459.873 695.687 471.406 730.105 C 534.843 716.145 595.238 715.603 653.104 749.259 C 682.996 731.711 729.704 709.374 764.665 706.831 C 741.262 686.441 720.296 663.414 702.182 638.208 C 684.184 643.47 670.341 647.989 651.609 650.124 C 602.077 655.544 552.11 644.966 509.023 619.938 C 493.529 610.778 482.078 601.603 468.127 590.51 C 446.403 595.772 425.725 598.404 404.172 590.997 C 347.774 571.615 316.707 511.59 335.705 455.016 C 344.446 428.409 363.609 406.487 388.807 394.266 C 462.404 358.384 547.71 414.071 543.561 496.737 C 543.017 507.579 539.596 517.606 536.01 527.8 C 571.167 556.671 618.224 565.209 662.034 556.187 C 655.638 534.954 652.839 522.588 651.209 500.73 L 640.004 494.178 C 600.919 466.701 585.582 429.139 593.566 381.619 C 600.608 339.702 627.605 295.279 661.625 269.951 C 688.51 249.936 722.748 257.159 744.042 281.296 C 754.879 292.995 763.211 300.235 772.218 314.172 C 793.338 346.854 806.541 387.873 798.631 426.825 C 791.642 461.438 773.833 479.492 745.498 498.179 C 750.905 553.296 776.057 592.324 816.473 629.069 C 835.979 616.541 841.34 601.329 849.984 580.591 C 867.256 539.15 868.56 499.792 862.983 455.788 C 841.038 438.519 828.644 433.852 816.034 405.057 C 804.644 379.495 804.051 350.42 814.388 324.415 C 825.026 297.81 845.861 276.563 872.252 265.404 C 897.841 254.708 928.243 255.327 953.802 265.804 C 980.272 276.592 1001.24 297.647 1011.92 324.162 C 1033.01 375.586 1007.71 437.387 956.013 458.14 C 956.839 530.71 958.46 558.857 928.876 628.938 C 984.494 660.551 998.127 731.079 961.917 782.978 C 927.547 832.241 847.874 845.023 809.434 793.784 C 788.8 794.026 773.442 795.738 753.461 801.886 C 702.033 818.005 659.073 853.818 633.963 901.506 C 646.93 913.96 656.84 927.11 663.306 944.074 C 673.391 969.873 672.754 998.63 661.537 1023.96 C 647.677 1054.47 625.141 1070.83 594.769 1082.36 C 582.587 1124.88 563.583 1161.86 533.404 1194.64 C 488.559 1244.25 425.58 1273.64 358.757 1276.14 C 354.474 1340.85 375.503 1419.73 405.645 1476.6 C 450.878 1561.95 534.238 1632.05 626.329 1661.04 C 637.624 1641.09 650.856 1625.42 666.331 1608.88 C 642.927 1585.68 631.101 1562.57 627.734 1529.23 C 623.497 1487.28 639.403 1454.6 665.454 1422.98 C 628.699 1383.55 614.776 1330.22 636.48 1279.42 C 646.868 1255.11 663.273 1238.58 684.062 1222.88 C 680.741 1215.75 678.079 1209.04 675.969 1201.42 C 666.492 1167.23 671.125 1130.66 688.829 1099.91 C 709.189 1064.14 740.757 1043.8 779.7 1033.19 C 780.804 997.416 793.944 963.062 816.996 935.684 C 841.218 907.075 878 886.59 915.549 883.767 C 960.57 880.382 990.804 891.196 1024.65 919.808 C 1085.08 863.628 1177.13 872.705 1229.23 934.288 C 1255.04 964.781 1264.25 993.382 1268.14 1032.73 C 1276.28 1034.78 1282.94 1036.76 1290.73 1040.04 C 1325.92 1054.45 1353.78 1082.47 1368 1117.73 C 1382.05 1153.24 1378.52 1187.96 1363.79 1222.4 C 1367.48 1224.93 1371.04 1227.64 1374.46 1230.52 C 1399.95 1251.89 1417.7 1282.35 1420.17 1315.71 C 1423.46 1360.11 1409.3 1389.86 1381.31 1422.56 C 1435.35 1481.68 1437.44 1548.84 1384.29 1609.18 C 1400.7 1628.63 1408.85 1640.12 1422.86 1661.23 C 1487.23 1640.3 1544.99 1602.87 1590.38 1552.66 C 1656.98 1478.38 1695.71 1376.6 1690.28 1276.56 C 1642.28 1272.74 1615.32 1265.08 1573.67 1240.53 C 1515.03 1205.97 1472.85 1147.15 1455.9 1081.56 C 1437.83 1074.56 1423.8 1067.5 1410.09 1053.63 C 1377.82 1021 1371.53 967.474 1395.88 928.471 C 1403.17 916.798 1410.21 909.859 1419.94 900.511 C 1411.7 885.985 1398.85 869.106 1387.29 857.051 C 1349.23 817.516 1297.04 794.694 1242.17 793.591 C 1215.04 821.161 1188.29 833.444 1148.95 824.252 C 1121.02 817.877 1096.86 800.481 1081.96 776.02 C 1067.08 751.809 1062.49 722.658 1069.21 695.045 C 1076.42 666.08 1095.48 644.043 1120.73 628.814 C 1094.11 566.86 1091.86 523.583 1093.78 458.157 C 994.387 408.507 1017.47 266.634 1134.25 257.431 z M 359.01 1183.22 C 382.753 1182.32 412.684 1172.92 432.612 1159.9 C 468.103 1136.41 492.564 1105.73 504.398 1064.61 C 489.437 1053.37 479.838 1044.79 469.762 1028.85 C 432.575 970.026 471.057 886.933 539.33 875.036 C 553.278 853.705 564.986 837.357 579.224 816.87 C 567.484 814.88 545.327 813.164 533.587 814.409 C 484.033 818.035 441.056 837.307 408.175 875.117 C 354.74 936.56 358.859 994.912 358.931 1069.2 L 359.01 1183.22 z M 1635.62 1169.37 C 1653.17 1176.59 1671.35 1182.74 1690.56 1183.31 C 1691.55 1149.65 1690.67 1115.89 1691 1082.07 C 1691.72 1005.97 1697.24 933.277 1640.04 873.376 C 1605.56 837.263 1563.97 815.386 1513.2 814.007 C 1507.2 813.87 1501.18 814.063 1495.2 814.584 C 1487.79 815.161 1480.53 815.619 1473.18 816.761 L 1473.88 817.846 C 1487.29 838.554 1499.45 849.915 1510.12 874.827 C 1537.69 880.306 1561.21 896.801 1576.84 920.07 C 1592.14 942.542 1597.78 970.206 1592.52 996.875 C 1586.61 1025.89 1570.28 1048.01 1546.19 1064.57 C 1563.48 1114.77 1587.56 1144.75 1635.62 1169.37 z M 1018.29 1348.78 C 1019.34 1349.84 1020.38 1350.91 1021.41 1351.98 C 1022.28 1352.99 1022.65 1353.01 1023.88 1353.72 C 1024.49 1353.36 1025.1 1352.99 1025.72 1352.62 C 1064.12 1310.6 1089.38 1255.69 1075.11 1198.01 C 1068.17 1169.94 1046.74 1134.16 1028.37 1111.19 C 1024.5 1104.58 1023.57 1105.12 1019.7 1111.08 C 987.512 1154.6 963.24 1199.48 972.306 1255.3 C 976.716 1282.45 987.567 1305.93 1003.69 1328.07 C 1005.94 1331.17 1017.25 1346.47 1018.29 1348.78 z M 1113.72 1081.92 C 1114.84 1083.87 1115.87 1085.51 1117.1 1087.38 C 1117.94 1088.3 1118.2 1088.21 1119.44 1088.8 C 1122.38 1087 1130.23 1077.14 1133.66 1073.62 C 1147.7 1059.17 1158.43 1051.94 1176.11 1042.88 C 1176.5 1034.5 1176.63 1026.79 1174.37 1018.55 C 1166.21 988.768 1131.11 967.832 1101.18 977.161 C 1085.61 982.013 1075.6 991.662 1068 1005.62 C 1065.69 1011.5 1064.39 1012.73 1067.43 1018.08 C 1085.19 1037.52 1098.41 1062 1113.72 1081.92 z M 929.822 1089.44 C 946.114 1062.55 964.06 1036.7 983.557 1012.04 C 974.246 986.178 954.876 973.541 927.472 975.282 C 892.235 980.36 870.128 1006.89 871.936 1042.57 C 896.034 1055.14 913.779 1067.09 929.822 1089.44 z M 789.182 1389.07 C 794.666 1391.25 800.919 1393.57 806.266 1395.91 C 810.816 1365.55 816.461 1338.93 797.052 1312.27 C 788.291 1300.04 775.007 1291.81 760.153 1289.42 C 755.692 1288.71 751.733 1288.93 747.262 1289.16 C 703.891 1307.08 714.75 1365.14 754.827 1379.29 C 766.621 1383.46 777.255 1383.69 789.182 1389.07 z M 814.18 1561.7 C 817.057 1562.41 820.1 1563.55 823.076 1563.43 C 836.08 1567.21 846.986 1572.1 859.57 1576.7 C 853.506 1569.13 841.147 1555.49 836.218 1547.93 C 834.61 1544.74 828.598 1536.21 826.277 1533.16 C 812.183 1510.16 794.104 1486.83 768.214 1477.13 C 761.015 1475.04 757.409 1474.74 749.891 1475.3 C 715.57 1487.95 709.895 1527.53 737.511 1551.63 C 740.667 1554.38 746.053 1557.11 749.786 1559.11 C 780.663 1557.91 783.218 1556.48 814.18 1561.7 z M 812.721 1210.48 C 815.929 1212.38 836.367 1224.53 838.848 1225.42 C 840.89 1227.19 843.472 1229.51 845.968 1230.49 C 848.18 1232.51 849.603 1233.79 851.993 1235.59 C 859.719 1243.01 865.497 1250.68 872.306 1258.82 L 873.123 1259.81 C 873.114 1254.76 873.057 1250.17 872.756 1245.11 C 872.788 1236.17 872.7 1227.45 873.44 1218.53 C 876.688 1198.04 881.461 1184.08 871.743 1164.26 C 868.201 1157.35 865.221 1151.25 859.358 1145.96 C 846.053 1131.07 830.693 1121.09 810 1120.32 C 778.934 1119.17 754.19 1149.39 764.373 1179.76 C 764.953 1181.82 765.686 1184.66 767.25 1186.24 C 771.155 1193.38 774.393 1197.48 781.786 1200.64 L 783.146 1201.13 C 792.72 1203.8 803.541 1206.84 812.721 1210.48 z M 927.842 1478.43 C 936.981 1464.33 954.763 1439.09 967.607 1428.52 C 953.647 1411.72 940.721 1395.45 928.682 1377.19 C 923.942 1370.01 919.682 1359.8 915.126 1353.57 C 895.612 1402.72 887.861 1451.7 913.904 1500.45 C 919.192 1493.24 923.292 1486.1 927.842 1478.43 z M 1083.13 1423.14 C 1082.03 1424.76 1078.81 1428.24 1080.58 1429.87 C 1084.13 1433.14 1088.97 1440.82 1092.25 1443.66 C 1100.12 1450.48 1114.27 1477.15 1120.5 1482.33 C 1123.37 1487.88 1129.91 1499.61 1132.99 1504.6 C 1139.81 1491.81 1140.54 1483.88 1145.3 1471.51 C 1146.06 1468.39 1146.76 1463.93 1147.37 1460.65 C 1148.69 1457.85 1148.87 1450.62 1149.16 1447.5 C 1150.47 1434.06 1149.98 1420.51 1147.68 1407.2 C 1147.47 1404.87 1147.05 1402.57 1146.76 1400.25 L 1145.65 1394.97 L 1144.6 1391.26 C 1143.43 1385.24 1141.83 1379.33 1140.27 1373.4 C 1139.63 1371.61 1139.23 1370.51 1138.46 1368.77 C 1137.04 1362.94 1136.11 1360.59 1133.87 1355.22 L 1133.18 1353.52 C 1130.45 1357.74 1127.66 1362.26 1125.37 1366.74 C 1123.27 1369.07 1121.63 1372.39 1119.94 1375.15 C 1119.07 1376.66 1118.23 1377.94 1117.28 1379.4 C 1108.21 1392.16 1093.5 1411.68 1083.13 1423.14 z M 803.917 1680.28 L 848.679 1680.88 C 829.238 1662.12 792.462 1649.79 765.597 1652.32 C 750.27 1654.51 725.785 1662.25 719.522 1678.03 C 721.87 1681.15 745.174 1680.42 750.056 1680.45 C 768.01 1680.48 785.964 1680.43 803.917 1680.28 z M 1272.53 1680.02 C 1288.85 1679.99 1315.79 1680.77 1331.28 1679.45 C 1317.25 1656.2 1285.59 1651.28 1260.74 1653.27 C 1239.25 1657.06 1216.22 1665.23 1199.78 1680.05 C 1224.03 1680.26 1248.28 1680.25 1272.53 1680.02 z M 1360.16 429.604 C 1386.61 421.093 1373.87 384.091 1362.77 367.938 C 1360.56 364.72 1358.12 359.447 1354.78 357.53 C 1350.76 363.667 1347.17 369.134 1344.29 375.922 C 1336.41 394.525 1329.83 430.062 1360.16 429.604 z M 699.328 429.781 C 729.918 421.766 710.36 370.927 695.469 356.674 C 684.021 375.297 659.805 427.178 698.866 429.747 L 699.328 429.781 z M 439.467 511.375 C 452.06 509.845 461.075 498.465 459.683 485.857 C 458.29 473.248 447.008 464.11 434.386 465.365 C 423.069 466.491 414.247 475.67 413.572 487.022 C 413.164 493.875 415.819 500.556 420.82 505.259 C 425.821 509.962 432.652 512.202 439.467 511.375 z M 1178.93 741.282 C 1190.98 738.409 1198.54 726.453 1195.97 714.336 C 1193.4 702.219 1181.64 694.362 1169.46 696.629 C 1161.31 698.146 1154.62 703.965 1151.99 711.829 C 1149.36 719.693 1151.2 728.366 1156.79 734.484 C 1162.39 740.603 1170.87 743.205 1178.93 741.282 z M 1683.77 789.346 C 1692.83 790.616 1694.33 778.732 1695.46 772.071 C 1697.36 760.851 1686.39 729.629 1677.77 723.594 C 1662.6 745.846 1649.51 778.01 1683.77 789.346 z M 373.529 787.05 C 400.678 774.178 391.709 755.479 381.437 733.304 C 379.991 730.182 377.179 724.952 374.793 722.678 C 365.083 737.821 354.581 760.806 358.179 778.992 C 360.816 792.322 363.823 791.606 373.529 787.05 z M 557.729 958.659 C 545.852 962.305 539.109 974.819 542.596 986.744 C 546.083 998.669 558.506 1005.58 570.476 1002.25 C 578.363 1000.06 584.459 993.791 586.433 985.847 C 588.407 977.902 585.954 969.511 580.01 963.882 C 574.067 958.253 565.555 956.257 557.729 958.659 z M 1481.35 958.432 C 1468.98 961.121 1461.19 973.381 1464 985.719 C 1466.81 998.057 1479.14 1005.73 1491.45 1002.8 C 1503.59 999.914 1511.14 987.784 1508.37 975.615 C 1505.6 963.446 1493.55 955.78 1481.35 958.432 z M 1602.6 468.004 C 1596.94 473.586 1592.23 477.994 1592.01 486.495 C 1591.57 504.134 1605.38 514.936 1622.05 509.81 C 1622.86 509.307 1623.68 508.811 1624.5 508.321 C 1628.69 505.312 1630.27 503.712 1632.41 499.272 C 1633.09 498.238 1635.46 493.141 1634.47 492.459 C 1624.36 485.515 1636.81 484.012 1632.61 476.198 L 1631.65 474.75 C 1623.77 464.905 1613.92 462.579 1602.6 468.004 z M 1214.29 1545.74 C 1212.81 1547.08 1206.4 1555.97 1204.82 1558.14 L 1206.35 1560.46 C 1204.43 1563.08 1203.83 1564.09 1202.29 1566.91 C 1202.67 1569.47 1206.5 1568.42 1208.95 1568.51 C 1211.97 1567.76 1226.55 1563.44 1229.34 1562.42 C 1230.8 1558.19 1235.33 1556.09 1235.61 1554.5 C 1235.63 1550.63 1227.62 1552.05 1226.4 1550.39 C 1223.75 1546.8 1225.82 1533.69 1218.59 1542.61 C 1216.69 1544.95 1218.04 1545.36 1214.29 1545.74 z M 1243.48 1385.3 C 1242.95 1385.94 1242.73 1386.77 1242.88 1387.58 C 1243.03 1388.39 1243.52 1389.09 1244.23 1389.5 C 1245.52 1390.25 1247.16 1389.85 1247.97 1388.61 C 1248.78 1387.37 1248.48 1385.71 1247.29 1384.83 C 1246.1 1383.95 1244.42 1384.16 1243.48 1385.3 z M 1140.55 384.27 C 1152.79 382.069 1160.97 370.423 1158.89 358.164 C 1156.82 345.905 1145.25 337.606 1132.97 339.562 C 1124.92 340.844 1118.18 346.352 1115.31 353.987 C 1112.45 361.622 1113.9 370.207 1119.12 376.471 C 1124.34 382.735 1132.53 385.713 1140.55 384.27 z M 908.436 339.759 C 900.431 341.438 893.96 347.316 891.522 355.123 C 889.083 362.93 891.058 371.446 896.684 377.382 C 902.31 383.319 910.708 385.748 918.634 383.732 C 930.537 380.705 937.836 368.717 935.061 356.753 C 932.286 344.789 920.456 337.239 908.436 339.759 z M 884.503 741.256 C 896.604 737.759 903.544 725.08 899.97 713.002 C 896.395 700.924 883.672 694.065 871.617 697.718 C 859.672 701.337 852.888 713.92 856.431 725.888 C 859.973 737.857 872.512 744.721 884.503 741.256 z" fill="rgb(30,14,80)" transform="translate(0,0)"></path>
<path d="M 1028.37 1111.19 C 1046.74 1134.16 1068.17 1169.94 1075.11 1198.01 C 1089.38 1255.69 1064.12 1310.6 1025.72 1352.62 C 1025.1 1352.99 1024.49 1353.36 1023.88 1353.72 C 1022.65 1353.01 1022.28 1352.99 1021.41 1351.98 C 1024.03 1346.59 1024.93 1343.79 1018.29 1348.78 C 1017.25 1346.47 1005.94 1331.17 1003.69 1328.07 C 987.567 1305.93 976.716 1282.45 972.306 1255.3 C 963.24 1199.48 987.512 1154.6 1019.7 1111.08 C 1020.01 1113.44 1019.66 1117.85 1021.57 1118.92 C 1034.51 1126.14 1028.46 1113.55 1028.37 1111.19 z" fill="rgb(208,208,209)" fill-opacity="0.984314" transform="translate(0,0)"></path>
<path d="M 1022.52 1497.53 C 1060.04 1532.66 1112.78 1668.39 1023.82 1675.52 C 947.467 1672.08 973.091 1573.25 998.348 1533.14 C 1006.36 1520.41 1013.66 1509.62 1022.52 1497.53 z" fill="rgb(208,208,209)" transform="translate(0,0)"></path>
<path d="M 1175.24 1237.69 C 1174.8 1200.53 1160.45 1173.66 1190.87 1142.93 C 1212.47 1121.1 1247.97 1110.43 1273.05 1134.08 C 1288.89 1149.01 1291.07 1179.48 1274.44 1194.4 C 1266.1 1202.32 1253.34 1203.89 1242.87 1207.72 C 1217.05 1216.68 1191.36 1239.06 1175.81 1261.07 C 1175.12 1261.94 1174.94 1262.41 1174.02 1262.75 C 1173.48 1262.62 1173.65 1262.73 1173.42 1262.49 C 1173.41 1262.39 1175.1 1240.49 1175.24 1237.69 z" fill="rgb(190,188,189)" transform="translate(0,0)"></path>
<path d="M 1175.24 1237.69 C 1178.23 1234.72 1175.36 1226.01 1176.58 1223.67 L 1176.7 1223.68 C 1177.88 1230.06 1176.18 1236.4 1176.43 1241.73 C 1176.65 1246.67 1174.94 1257.38 1175.81 1261.07 C 1175.12 1261.94 1174.94 1262.41 1174.02 1262.75 C 1173.48 1262.62 1173.65 1262.73 1173.42 1262.49 C 1173.41 1262.39 1175.1 1240.49 1175.24 1237.69 z" fill="rgb(230,230,229)" transform="translate(0,0)"></path>
<path d="M 1068 1005.62 C 1075.6 991.662 1085.61 982.013 1101.18 977.161 C 1131.11 967.832 1166.21 988.768 1174.37 1018.55 C 1176.63 1026.79 1176.5 1034.5 1176.11 1042.88 C 1158.43 1051.94 1147.7 1059.17 1133.66 1073.62 C 1130.23 1077.14 1122.38 1087 1119.44 1088.8 C 1118.2 1088.21 1117.94 1088.3 1117.1 1087.38 C 1122.58 1078.47 1116.89 1075.32 1113.72 1081.92 C 1098.41 1062 1085.19 1037.52 1067.43 1018.08 C 1074.2 1017.83 1071.84 1009.1 1068 1005.62 z" fill="rgb(208,208,209)" fill-opacity="0.968627" transform="translate(0,0)"></path>
<path d="M 747.262 1289.16 C 751.733 1288.93 755.692 1288.71 760.153 1289.42 C 775.007 1291.81 788.291 1300.04 797.052 1312.27 C 816.461 1338.93 810.816 1365.55 806.266 1395.91 C 800.919 1393.57 794.666 1391.25 789.182 1389.07 C 777.255 1383.69 766.621 1383.46 754.827 1379.29 C 714.75 1365.14 703.891 1307.08 747.262 1289.16 z" fill="rgb(230,230,229)" fill-opacity="0.0235294" transform="translate(0,0)"></path>
<path d="M 1243.48 1385.3 C 1240.05 1356.09 1235.38 1337.08 1255.17 1311.94 C 1268.59 1294.89 1296.37 1279.72 1316.01 1295.67 C 1336.66 1312.44 1334.58 1343.18 1317.72 1362.17 C 1312.82 1367.7 1306.85 1372.19 1300.18 1375.38 C 1292.76 1378.89 1283.39 1379.92 1275.26 1381.55 C 1269.09 1382.78 1248.97 1392.9 1244.75 1392.22 L 1244.23 1389.5 C 1245.52 1390.25 1247.16 1389.85 1247.97 1388.61 C 1248.78 1387.37 1248.48 1385.71 1247.29 1384.83 C 1246.1 1383.95 1244.42 1384.16 1243.48 1385.3 z" fill="rgb(190,188,189)" transform="translate(0,0)"></path>
<path d="M 1214.29 1545.74 C 1231.07 1520.69 1252.3 1483.75 1283.79 1475.86 C 1306.1 1470.26 1324.5 1488.39 1328.1 1509.74 C 1330 1521.5 1327.09 1533.54 1320.02 1543.13 C 1305.13 1563.61 1288.71 1557.86 1267.01 1558.05 C 1254.31 1558.16 1241.75 1559.89 1229.34 1562.42 C 1230.8 1558.19 1235.33 1556.09 1235.61 1554.5 C 1235.63 1550.63 1227.62 1552.05 1226.4 1550.39 C 1223.75 1546.8 1225.82 1533.69 1218.59 1542.61 C 1216.69 1544.95 1218.04 1545.36 1214.29 1545.74 z" fill="rgb(208,208,209)" transform="translate(0,0)"></path>
<path d="M 749.786 1559.11 C 746.053 1557.11 740.667 1554.38 737.511 1551.63 C 709.895 1527.53 715.57 1487.95 749.891 1475.3 C 755.081 1482.49 760.307 1481.09 768.214 1477.13 C 794.104 1486.83 812.183 1510.16 826.277 1533.16 C 824.376 1536.05 822.136 1536.82 821.717 1540.49 C 820.931 1547.39 830.875 1544.14 831.519 1544.53 C 831.841 1545.78 827.441 1549.6 825.98 1549.4 C 821.883 1548.86 813.865 1550.27 814.034 1555.62 C 812.875 1557.88 816.156 1557.44 814.18 1561.7 C 783.218 1556.48 780.663 1557.91 749.786 1559.11 z" fill="rgb(208,208,209)" fill-opacity="0.803922" transform="translate(0,0)"></path>
<path d="M 832.589 1129.8 C 832.343 1130.54 832.097 1131.27 831.851 1132 C 831.148 1134.05 833.031 1133.96 834.147 1134.54 C 836.341 1135.68 838.108 1139.04 839.501 1140.95 C 839.16 1141.39 838.749 1141.9 838.47 1142.36 C 842.155 1144.21 843.01 1144.77 846.97 1145.62 C 849.113 1146.08 857.778 1146.51 859.358 1145.96 C 865.221 1151.25 868.201 1157.35 871.743 1164.26 C 868.455 1167.59 864.595 1169.57 865.499 1174.48 C 865.725 1175.71 863.191 1181.98 865.395 1182.77 C 866.035 1182.54 866.297 1181.75 867.134 1181.1 C 867.548 1181.64 867.928 1182.37 868.618 1182.61 C 869.811 1182.42 869.862 1180.72 870.447 1179.61 C 873.479 1183.4 870.094 1195.49 872.798 1197.23 C 879.937 1201.85 868.974 1198.78 873.73 1205.39 C 873.884 1204.84 871.382 1209.99 871.347 1210.07 C 868.465 1209.7 872.246 1201.94 864.887 1206.63 C 865.784 1209.11 868.676 1213.46 871.535 1214.18 C 872.168 1213.79 871.845 1214.04 872.47 1213.4 C 872.643 1215.15 873.035 1216.82 873.44 1218.53 C 872.7 1227.45 872.788 1236.17 872.756 1245.11 C 872.105 1239.29 872.094 1234.02 871.954 1228.19 L 872.443 1225.73 L 872.709 1222.56 C 862.132 1219.66 864.281 1226.12 854.643 1224.36 C 848.575 1223.25 848.752 1223.69 843.009 1223.92 C 841.74 1223.03 832.732 1217.26 831.845 1216.44 C 832.545 1216.14 833.353 1216.04 833.612 1215.36 C 831.646 1209.03 818.111 1209.06 812.721 1210.48 C 803.541 1206.84 792.72 1203.8 783.146 1201.13 C 787.503 1200.06 784.725 1197.59 784.954 1193.52 C 784.451 1191.24 779.86 1187.64 779.622 1185.73 C 779.025 1180.94 771.283 1181.02 770.595 1180.34 C 769.652 1173.88 772.495 1168.75 771.248 1162.59 C 770.833 1160.54 769.66 1158.38 772.162 1156.71 C 773.06 1156.75 774.144 1160.07 775.231 1155.86 C 775.841 1153.5 775.285 1154.19 776.33 1152.64 C 778.829 1153.77 780.751 1154.67 782.822 1156.49 C 784.096 1157.62 787.155 1155.12 787.979 1155.64 C 788.42 1157.51 786.129 1159.25 786.609 1160.75 C 788.267 1162.24 796.69 1154.08 798.238 1152.38 C 800.767 1149.59 799.359 1151.11 798.485 1149.77 C 798.669 1148.78 803.522 1147.09 804.763 1147.74 C 811.013 1150.96 816.618 1140.35 810.384 1136.29 C 805.473 1133.1 800.724 1135.74 803.033 1132.08 C 803.94 1130.65 817.676 1131.24 819.779 1133.05 C 822.87 1134.56 825.884 1130.61 830.845 1130.08 L 832.589 1129.8 z" fill="rgb(230,230,229)" fill-opacity="0.501961" transform="translate(0,0)"></path>
<path d="M 1117.28 1379.4 C 1128 1389.58 1126.22 1381.3 1133.7 1374.98 L 1133.89 1375.01 C 1135.17 1377.07 1134.19 1389.21 1136.89 1391.63 C 1138.14 1392.75 1143.12 1393.35 1144.6 1391.26 L 1145.65 1394.97 C 1145.3 1395.88 1145.15 1396.81 1144.26 1397.28 C 1137.46 1396.76 1135.53 1414.44 1134.69 1418.46 L 1133.76 1423 L 1132.92 1427 C 1132.41 1429.49 1134.69 1434.27 1132.99 1438.49 C 1132.5 1439.69 1136.44 1453.28 1137.03 1455.02 C 1141.55 1468.36 1146.08 1459.82 1146.64 1459.72 C 1147 1460.01 1146.77 1459.77 1147.37 1460.65 C 1146.76 1463.93 1146.06 1468.39 1145.3 1471.51 L 1144.24 1468.57 C 1143.25 1467.96 1135.1 1466.57 1135.04 1466.58 C 1129.08 1468.54 1130.04 1475.07 1121.65 1474.7 C 1120.98 1474.67 1120.01 1476.99 1119.51 1477.47 C 1113.95 1474.48 1122.58 1474.1 1121.46 1471.16 C 1121.09 1470.19 1115.73 1464.88 1115.24 1464.59 C 1109.97 1461.52 1114.95 1457.13 1108.4 1454.79 C 1104.35 1453.58 1105.64 1452.99 1103.8 1451.38 C 1094.72 1443.47 1099.1 1442.08 1094.83 1433.18 C 1094.24 1430.14 1093.36 1431.07 1091.6 1429.68 C 1088.17 1426.96 1087.29 1425.58 1083.13 1423.14 C 1093.5 1411.68 1108.21 1392.16 1117.28 1379.4 z" fill="url(#Gradient1)" transform="translate(0,0)"></path>
<path d="M 764.373 1179.76 C 754.19 1149.39 778.934 1119.17 810 1120.32 C 830.693 1121.09 846.053 1131.07 859.358 1145.96 C 857.778 1146.51 849.113 1146.08 846.97 1145.62 C 843.01 1144.77 842.155 1144.21 838.47 1142.36 C 838.749 1141.9 839.16 1141.39 839.501 1140.95 C 838.108 1139.04 836.341 1135.68 834.147 1134.54 C 833.031 1133.96 831.148 1134.05 831.851 1132 C 832.097 1131.27 832.343 1130.54 832.589 1129.8 L 831.703 1128.82 C 830.26 1127.16 830.914 1127.93 829.205 1127.45 C 829.752 1127.16 830.47 1126.92 830.893 1126.43 L 830.829 1126.19 C 831.175 1126.36 809.735 1125.57 807.468 1126.25 C 804.259 1127.21 800.06 1125.81 797.564 1129.54 C 793.084 1137.46 781.719 1146.9 772.503 1147.53 C 769.761 1147.72 766.351 1148.13 767.392 1151.56 C 766.148 1157.18 765.077 1157.08 766.285 1162.38 C 767.312 1166.88 766.534 1175.51 764.373 1179.76 z" fill="rgb(230,230,229)" fill-opacity="0.129412" transform="translate(0,0)"></path>
<path d="M 1145.65 1394.97 L 1146.76 1400.25 C 1145.3 1403.23 1142.3 1403.41 1142.38 1405.59 C 1142.84 1417.89 1144.54 1412.81 1147.68 1407.2 C 1149.98 1420.51 1150.47 1434.06 1149.16 1447.5 C 1148.87 1450.62 1148.69 1457.85 1147.37 1460.65 C 1146.77 1459.77 1147 1460.01 1146.64 1459.72 C 1146.08 1459.82 1141.55 1468.36 1137.03 1455.02 C 1136.44 1453.28 1132.5 1439.69 1132.99 1438.49 C 1134.69 1434.27 1132.41 1429.49 1132.92 1427 L 1133.76 1423 L 1134.69 1418.46 C 1135.53 1414.44 1137.46 1396.76 1144.26 1397.28 C 1145.15 1396.81 1145.3 1395.88 1145.65 1394.97 z" fill="rgb(190,188,189)" fill-opacity="0.537255" transform="translate(0,0)"></path>
<path d="M 767.392 1151.56 C 766.351 1148.13 769.761 1147.72 772.503 1147.53 C 781.719 1146.9 793.084 1137.46 797.564 1129.54 C 800.06 1125.81 804.259 1127.21 807.468 1126.25 C 809.735 1125.57 831.175 1126.36 830.829 1126.19 L 830.893 1126.43 C 830.47 1126.92 829.752 1127.16 829.205 1127.45 C 830.914 1127.93 830.26 1127.16 831.703 1128.82 L 832.589 1129.8 L 830.845 1130.08 C 825.884 1130.61 822.87 1134.56 819.779 1133.05 C 817.676 1131.24 803.94 1130.65 803.033 1132.08 C 800.724 1135.74 805.473 1133.1 810.384 1136.29 C 816.618 1140.35 811.013 1150.96 804.763 1147.74 C 803.522 1147.09 798.669 1148.78 798.485 1149.77 C 799.359 1151.11 800.767 1149.59 798.238 1152.38 C 796.69 1154.08 788.267 1162.24 786.609 1160.75 C 786.129 1159.25 788.42 1157.51 787.979 1155.64 C 787.155 1155.12 784.096 1157.62 782.822 1156.49 C 780.751 1154.67 778.829 1153.77 776.33 1152.64 C 773.423 1152.27 770.188 1151.97 767.392 1151.56 z" fill="rgb(230,230,229)" fill-opacity="0.262745" transform="translate(0,0)"></path>
<path d="M 1083.13 1423.14 C 1087.29 1425.58 1088.17 1426.96 1091.6 1429.68 C 1093.36 1431.07 1094.24 1430.14 1094.83 1433.18 C 1099.1 1442.08 1094.72 1443.47 1103.8 1451.38 C 1105.64 1452.99 1104.35 1453.58 1108.4 1454.79 C 1114.95 1457.13 1109.97 1461.52 1115.24 1464.59 C 1115.73 1464.88 1121.09 1470.19 1121.46 1471.16 C 1122.58 1474.1 1113.95 1474.48 1119.51 1477.47 C 1120.01 1476.99 1120.98 1474.67 1121.65 1474.7 C 1130.04 1475.07 1129.08 1468.54 1135.04 1466.58 C 1135.1 1466.57 1143.25 1467.96 1144.24 1468.57 C 1128.44 1490.12 1125.55 1478.86 1120.5 1482.33 C 1114.27 1477.15 1100.12 1450.48 1092.25 1443.66 C 1088.97 1440.82 1084.13 1433.14 1080.58 1429.87 C 1078.81 1428.24 1082.03 1424.76 1083.13 1423.14 z" fill="rgb(208,208,209)" fill-opacity="0.309804" transform="translate(0,0)"></path>
<path d="M 1622.05 509.81 C 1605.38 514.936 1591.57 504.134 1592.01 486.495 C 1592.23 477.994 1596.94 473.586 1602.6 468.004 C 1609.9 470.255 1613.92 468.611 1619.6 471.106 C 1614.64 472.001 1607.49 473.215 1605.78 478.837 C 1595.61 477.727 1601.09 490.22 1601.03 498.009 C 1600.96 508.577 1611.66 501.538 1616.12 505.486 C 1618.31 507.184 1620.1 508.289 1622.05 509.81 z" fill="rgb(190,188,189)" fill-opacity="0.0352941" transform="translate(0,0)"></path>
<path d="M 1619.6 471.106 C 1628.07 473.554 1623.4 478.889 1631.65 474.75 L 1632.61 476.198 C 1622.47 484.294 1625.9 473.581 1616.11 476.356 C 1614.64 476.773 1613.43 479.311 1614.29 480.785 C 1618.35 485.667 1617.76 489.643 1618.78 495.695 C 1623.02 497.952 1623.32 497.983 1627.09 500.966 C 1626.15 502.129 1624.79 502.115 1623.57 501.289 C 1618.6 498 1610.56 500.736 1605.93 499.219 C 1599.93 497.253 1604.83 483.747 1603.81 482.406 C 1604.48 481.222 1605.13 480.032 1605.78 478.837 C 1607.49 473.215 1614.64 472.001 1619.6 471.106 z" fill="rgb(190,188,189)" fill-opacity="0.14902" transform="translate(0,0)"></path>
<path d="M 1214.29 1545.74 C 1218.04 1545.36 1216.69 1544.95 1218.59 1542.61 C 1225.82 1533.69 1223.75 1546.8 1226.4 1550.39 C 1227.62 1552.05 1235.63 1550.63 1235.61 1554.5 C 1235.33 1556.09 1230.8 1558.19 1229.34 1562.42 C 1226.55 1563.44 1211.97 1567.76 1208.95 1568.51 C 1206.5 1568.42 1202.67 1569.47 1202.29 1566.91 C 1202.77 1566.92 1209.66 1566.66 1209.02 1566.52 C 1217.61 1568.48 1218.87 1554.67 1212.53 1553.67 C 1210.78 1553.4 1207.5 1559.02 1206.35 1560.46 L 1204.82 1558.14 C 1206.4 1555.97 1212.81 1547.08 1214.29 1545.74 z" fill="rgb(208,208,209)" fill-opacity="0.764706" transform="translate(0,0)"></path>
<path d="M 1120.5 1482.33 C 1125.55 1478.86 1128.44 1490.12 1144.24 1468.57 L 1145.3 1471.51 C 1140.54 1483.88 1139.81 1491.81 1132.99 1504.6 C 1129.91 1499.61 1123.37 1487.88 1120.5 1482.33 z" fill="rgb(190,188,189)" fill-opacity="0.00784314" transform="translate(0,0)"></path>
<path d="M 1618.78 495.695 C 1617.76 489.643 1618.35 485.667 1614.29 480.785 C 1613.43 479.311 1614.64 476.773 1616.11 476.356 C 1625.9 473.581 1622.47 484.294 1632.61 476.198 C 1636.81 484.012 1624.36 485.515 1634.47 492.459 C 1635.46 493.141 1633.09 498.238 1632.41 499.272 C 1630.9 498.21 1630.21 499.218 1628.55 500.254 L 1627.09 500.966 C 1623.32 497.983 1623.02 497.952 1618.78 495.695 z" fill="rgb(190,188,189)" fill-opacity="0.215686" transform="translate(0,0)"></path>
<path d="M 871.743 1164.26 C 881.461 1184.08 876.688 1198.04 873.44 1218.53 C 873.035 1216.82 872.643 1215.15 872.47 1213.4 C 871.845 1214.04 872.168 1213.79 871.535 1214.18 C 868.676 1213.46 865.784 1209.11 864.887 1206.63 C 872.246 1201.94 868.465 1209.7 871.347 1210.07 C 871.382 1209.99 873.884 1204.84 873.73 1205.39 C 868.974 1198.78 879.937 1201.85 872.798 1197.23 C 870.094 1195.49 873.479 1183.4 870.447 1179.61 C 869.862 1180.72 869.811 1182.42 868.618 1182.61 C 867.928 1182.37 867.548 1181.64 867.134 1181.1 C 866.297 1181.75 866.035 1182.54 865.395 1182.77 C 863.191 1181.98 865.725 1175.71 865.499 1174.48 C 864.595 1169.57 868.455 1167.59 871.743 1164.26 z" fill="rgb(208,208,209)" fill-opacity="0.6" transform="translate(0,0)"></path>
<path d="M 767.392 1151.56 C 770.188 1151.97 773.423 1152.27 776.33 1152.64 C 775.285 1154.19 775.841 1153.5 775.231 1155.86 C 774.144 1160.07 773.06 1156.75 772.162 1156.71 C 769.66 1158.38 770.833 1160.54 771.248 1162.59 C 772.495 1168.75 769.652 1173.88 770.595 1180.34 C 771.283 1181.02 779.025 1180.94 779.622 1185.73 C 779.86 1187.64 784.451 1191.24 784.954 1193.52 C 784.725 1197.59 787.503 1200.06 783.146 1201.13 L 781.786 1200.64 C 782.795 1198.17 780.575 1195.13 778.982 1194.5 C 774.937 1192.92 772.224 1182.19 768.206 1185.5 L 767.25 1186.24 C 765.686 1184.66 764.953 1181.82 764.373 1179.76 C 766.534 1175.51 767.312 1166.88 766.285 1162.38 C 765.077 1157.08 766.148 1157.18 767.392 1151.56 z" fill="rgb(208,208,209)" fill-opacity="0.321569" transform="translate(0,0)"></path>
<path d="M 826.277 1533.16 C 828.598 1536.21 834.61 1544.74 836.218 1547.93 C 831.807 1552.64 828.153 1560.81 824.471 1562.7 L 823.076 1563.43 C 820.1 1563.55 817.057 1562.41 814.18 1561.7 C 816.156 1557.44 812.875 1557.88 814.034 1555.62 C 813.865 1550.27 821.883 1548.86 825.98 1549.4 C 827.441 1549.6 831.841 1545.78 831.519 1544.53 C 830.875 1544.14 820.931 1547.39 821.717 1540.49 C 822.136 1536.82 824.376 1536.05 826.277 1533.16 z" fill="rgb(208,208,209)" fill-opacity="0.682353" transform="translate(0,0)"></path>
<path d="M 812.721 1210.48 C 818.111 1209.06 831.646 1209.03 833.612 1215.36 C 833.353 1216.04 832.545 1216.14 831.845 1216.44 C 832.732 1217.26 841.74 1223.03 843.009 1223.92 C 848.752 1223.69 848.575 1223.25 854.643 1224.36 C 864.281 1226.12 862.132 1219.66 872.709 1222.56 C 869.069 1224.86 865.596 1225.82 861.556 1227.31 C 854.903 1229.77 845.512 1224.65 838.848 1225.42 C 836.367 1224.53 815.929 1212.38 812.721 1210.48 z" fill="rgb(230,230,229)" fill-opacity="0.458824" transform="translate(0,0)"></path>
<path d="M 1119.94 1375.15 C 1120.95 1376.63 1123.08 1382.5 1124.75 1379.29 C 1126.81 1375.35 1133.6 1367.45 1138.98 1372.3 L 1140.27 1373.4 C 1141.83 1379.33 1143.43 1385.24 1144.6 1391.26 C 1143.12 1393.35 1138.14 1392.75 1136.89 1391.63 C 1134.19 1389.21 1135.17 1377.07 1133.89 1375.01 L 1133.7 1374.98 C 1126.22 1381.3 1128 1389.58 1117.28 1379.4 C 1118.23 1377.94 1119.07 1376.66 1119.94 1375.15 z" fill="rgb(190,188,189)" fill-opacity="0.12549" transform="translate(0,0)"></path>
<path d="M 1624.5 508.321 C 1619.14 506.879 1615.29 500.21 1611.43 501.432 C 1599.94 505.068 1599.38 486.712 1603.81 482.406 C 1604.83 483.747 1599.93 497.253 1605.93 499.219 C 1610.56 500.736 1618.6 498 1623.57 501.289 C 1624.79 502.115 1626.15 502.129 1627.09 500.966 L 1628.55 500.254 C 1630.21 499.218 1630.9 498.21 1632.41 499.272 C 1630.27 503.712 1628.69 505.312 1624.5 508.321 z" fill="rgb(190,188,189)" fill-opacity="0.12549" transform="translate(0,0)"></path>
<path d="M 1125.37 1366.74 C 1129.73 1366.28 1126.18 1365.92 1131.03 1366.4 C 1134.63 1366.76 1137.07 1369.6 1138.46 1368.77 C 1139.23 1370.51 1139.63 1371.61 1140.27 1373.4 L 1138.98 1372.3 C 1133.6 1367.45 1126.81 1375.35 1124.75 1379.29 C 1123.08 1382.5 1120.95 1376.63 1119.94 1375.15 C 1121.63 1372.39 1123.27 1369.07 1125.37 1366.74 z" fill="rgb(190,188,189)" fill-opacity="0.152941" transform="translate(0,0)"></path>
<path d="M 872.709 1222.56 L 872.443 1225.73 C 854.188 1237.61 858.689 1230.53 845.968 1230.49 C 843.472 1229.51 840.89 1227.19 838.848 1225.42 C 845.512 1224.65 854.903 1229.77 861.556 1227.31 C 865.596 1225.82 869.069 1224.86 872.709 1222.56 z" fill="rgb(208,208,209)" fill-opacity="0.337255" transform="translate(0,0)"></path>
<path d="M 1602.6 468.004 C 1613.92 462.579 1623.77 464.905 1631.65 474.75 C 1623.4 478.889 1628.07 473.554 1619.6 471.106 C 1613.92 468.611 1609.9 470.255 1602.6 468.004 z" fill="rgb(190,188,189)" fill-opacity="0.027451" transform="translate(0,0)"></path>
<path d="M 1206.35 1560.46 C 1207.5 1559.02 1210.78 1553.4 1212.53 1553.67 C 1218.87 1554.67 1217.61 1568.48 1209.02 1566.52 C 1209.66 1566.66 1202.77 1566.92 1202.29 1566.91 C 1203.83 1564.09 1204.43 1563.08 1206.35 1560.46 z" fill="rgb(208,208,209)" fill-opacity="0.133333" transform="translate(0,0)"></path>
<path d="M 1019.7 1111.08 C 1023.57 1105.12 1024.5 1104.58 1028.37 1111.19 C 1028.46 1113.55 1034.51 1126.14 1021.57 1118.92 C 1019.66 1117.85 1020.01 1113.44 1019.7 1111.08 z" fill="rgb(208,208,209)" fill-opacity="0.847059" transform="translate(0,0)"></path>
<path d="M 1204.82 1558.14 L 1206.35 1560.46 C 1204.43 1563.08 1203.83 1564.09 1202.29 1566.91 C 1202.67 1569.47 1206.5 1568.42 1208.95 1568.51 C 1198.14 1573.04 1194.99 1574.36 1184.61 1580.44 C 1191.82 1572.84 1198.15 1566.28 1204.82 1558.14 z" fill="rgb(230,230,229)" transform="translate(0,0)"></path>
<path d="M 1622.05 509.81 C 1620.1 508.289 1618.31 507.184 1616.12 505.486 C 1611.66 501.538 1600.96 508.577 1601.03 498.009 C 1601.09 490.22 1595.61 477.727 1605.78 478.837 C 1605.13 480.032 1604.48 481.222 1603.81 482.406 C 1599.38 486.712 1599.94 505.068 1611.43 501.432 C 1615.29 500.21 1619.14 506.879 1624.5 508.321 C 1623.68 508.811 1622.86 509.307 1622.05 509.81 z" fill="rgb(190,188,189)" fill-opacity="0.0901961" transform="translate(0,0)"></path>
<path d="M 872.443 1225.73 L 871.954 1228.19 C 864.787 1235.51 861.372 1235.42 851.993 1235.59 C 849.603 1233.79 848.18 1232.51 845.968 1230.49 C 858.689 1230.53 854.188 1237.61 872.443 1225.73 z" fill="rgb(208,208,209)" fill-opacity="0.192157" transform="translate(0,0)"></path>
<path d="M 767.25 1186.24 L 768.206 1185.5 C 772.224 1182.19 774.937 1192.92 778.982 1194.5 C 780.575 1195.13 782.795 1198.17 781.786 1200.64 C 774.393 1197.48 771.155 1193.38 767.25 1186.24 z" fill="rgb(208,208,209)" fill-opacity="0.172549" transform="translate(0,0)"></path>
<path d="M 749.891 1475.3 C 757.409 1474.74 761.015 1475.04 768.214 1477.13 C 760.307 1481.09 755.081 1482.49 749.891 1475.3 z" fill="rgb(208,208,209)" fill-opacity="0.733333" transform="translate(0,0)"></path>
<path d="M 1067.43 1018.08 C 1064.39 1012.73 1065.69 1011.5 1068 1005.62 C 1071.84 1009.1 1074.2 1017.83 1067.43 1018.08 z" fill="rgb(208,208,209)" fill-opacity="0.67451" transform="translate(0,0)"></path>
<path d="M 1146.76 1400.25 C 1147.05 1402.57 1147.47 1404.87 1147.68 1407.2 C 1144.54 1412.81 1142.84 1417.89 1142.38 1405.59 C 1142.3 1403.41 1145.3 1403.23 1146.76 1400.25 z" fill="rgb(190,188,189)" fill-opacity="0.611765" transform="translate(0,0)"></path>
<path d="M 1113.72 1081.92 C 1116.89 1075.32 1122.58 1078.47 1117.1 1087.38 C 1115.87 1085.51 1114.84 1083.87 1113.72 1081.92 z" fill="rgb(208,208,209)" fill-opacity="0.878431" transform="translate(0,0)"></path>
<path d="M 1243.48 1385.3 C 1244.42 1384.16 1246.1 1383.95 1247.29 1384.83 C 1248.48 1385.71 1248.78 1387.37 1247.97 1388.61 C 1247.16 1389.85 1245.52 1390.25 1244.23 1389.5 C 1243.52 1389.09 1243.03 1388.39 1242.88 1387.58 C 1242.73 1386.77 1242.95 1385.94 1243.48 1385.3 z" fill="rgb(208,208,209)" fill-opacity="0.921569" transform="translate(0,0)"></path>
<path d="M 1018.29 1348.78 C 1024.93 1343.79 1024.03 1346.59 1021.41 1351.98 C 1020.38 1350.91 1019.34 1349.84 1018.29 1348.78 z" fill="rgb(208,208,209)" fill-opacity="0.929412" transform="translate(0,0)"></path>
<metadata><recraft-signature>{"signed_by": "recraft", "signature_b64": "uQ/eRThT6slianQax0IXLwf5ryEn58BTbi0KZ2C9Djr1slA0q5vJiHOavRyUKgil68tZPQQABdLteY3u7UoXAA==", "signing_algo": "Ed25519", "generation_timestamp": 1772774507, "identifier": "a04030b2-2da6-4699-8b47-95e84461bfdc"}</recraft-signature></metadata></svg>