<svg xmlns="http://www.w3.org/2000/svg" height="1024" preserveAspectRatio="none" style="display: block;" version="1.1" viewBox="0 0 2048 2048" width="1024">
<path d="M 0 0 L 2048 0 L 2048 2048 L 0 2048 L 0 0 z" fill="rgb(255,255,255)" transform="translate(0,0)"></path>
<path d="M 274.722 761.209 C 280.692 635.028 348.662 501.918 441.615 417.325 C 479.631 382.71 522.311 353.594 568.409 330.826 C 672.253 279.994 748.15 276.97 860.229 277.261 L 989.236 277.624 C 1046.25 277.228 1103.27 277.28 1160.28 277.779 C 1192.79 277.747 1230.51 276.708 1262.49 278.273 C 1402.84 284.623 1534.66 347.417 1628.02 452.393 C 1702.36 534.641 1747.97 638.816 1757.97 749.231 C 1761.03 781.218 1760.04 817.346 1760.05 849.874 L 1760.06 999.008 L 1760.04 1183.98 C 1759.91 1252.63 1761.96 1312.4 1746.1 1380.11 C 1721.15 1482.69 1666.16 1575.5 1588.16 1646.64 C 1504.29 1722.57 1398.35 1769.7 1285.8 1781.14 C 1267.76 1782.98 1249.38 1784.01 1231.25 1784.03 C 1176.89 1784.09 1122.66 1784.92 1068.32 1782.98 C 1063.85 1786.28 1057.9 1785.96 1052.43 1785.88 C 1024.83 1785.46 997.118 1784.37 969.512 1784.99 C 906.47 1786.41 843.382 1786.37 780.328 1786.02 C 774.88 1785.99 752.914 1784.75 747.649 1783.3 C 743.26 1782.74 738.092 1782.06 733.82 1781.09 C 733.11 1781.07 731.996 1781.06 731.006 1780.92 C 573.61 1759.57 433.421 1668.47 351.21 1532.47 C 306.134 1459.01 279.563 1375.71 273.778 1289.72 C 271.353 1257.48 272.747 1219.45 272.416 1186.74 C 271.918 1137.52 271.079 1089.46 276.396 1040.45 C 271.999 1026.28 273.05 999.955 272.692 984.01 C 271.881 947.79 272.125 911.227 272.693 874.995 C 273.183 843.696 271.65 811.079 273.13 779.867 C 273.005 775.295 272.944 773.644 273.593 769.058 C 273.895 766.445 273.731 763.527 274.722 761.209 z" fill="rgb(40,2,139)" transform="translate(0,0)"></path>
<path d="M 742.744 1779.45 C 730.363 1773.02 716.571 1766.12 704.613 1758.79 C 565.001 1673.23 465.308 1527.28 424.773 1369.75 C 407.752 1303.61 405.965 1249.9 407.003 1182.27 C 407.477 1151.42 405.886 1118.13 407.439 1087.71 C 411.53 1006.71 435.507 927.956 477.252 858.418 C 542.764 749.276 646.153 665.826 770.588 634.861 C 793.611 629.032 817.113 625.29 840.808 623.681 C 871.924 621.423 922.345 623.1 955.304 623.153 L 1040.78 623.342 C 1084.59 623.506 1115.47 623.133 1158.68 632.049 C 1206.7 642.386 1252.67 660.647 1294.69 686.084 C 1400.64 749.8 1476.9 853.051 1506.63 973.061 C 1534.2 1089.28 1514.28 1211.69 1451.27 1313.17 C 1380.02 1431.43 1264.17 1516.04 1129.83 1547.91 C 999.022 1579.42 861.048 1557.36 746.594 1486.62 C 639.485 1420.9 561.287 1321.54 531.808 1198.66 L 528.814 1201.04 C 528.957 1233.8 528.548 1261.07 532.932 1293.71 C 549.315 1415.66 611.997 1528.89 698.87 1614.88 C 777.416 1693.04 876.843 1746.89 985.227 1769.97 C 1001.86 1773.61 1018.62 1776.63 1035.48 1779.03 C 1045.05 1780.32 1059.52 1781.4 1068.32 1782.98 C 1063.85 1786.28 1057.9 1785.96 1052.43 1785.88 C 1024.83 1785.46 997.118 1784.37 969.512 1784.99 C 906.47 1786.41 843.382 1786.37 780.328 1786.02 C 774.88 1785.99 752.914 1784.75 747.649 1783.3 C 746.719 1780.61 745.707 1780.53 742.744 1779.45 z" fill="rgb(228,228,228)" transform="translate(0,0)"></path>
<path d="M 529.279 1187.57 C 530.131 1190.96 530.731 1194.19 531.535 1197.48 L 531.808 1198.66 L 528.814 1201.04 C 528.777 1196.01 528.948 1192.55 529.279 1187.57 z" fill="rgb(75,44,148)" transform="translate(0,0)"></path>
<path d="M 944.508 740.145 C 953.09 739.836 961.594 740.083 970.17 739.901 L 969.941 741.963 C 967.87 742.129 965.829 742.475 963.759 742.63 C 886.605 758.413 822.406 799.678 778.723 866.078 C 738.163 927.385 723.561 1002.27 738.119 1074.33 C 770.385 1228.42 919.855 1324.57 1073.53 1291.35 C 1146.83 1276.1 1210.96 1232.1 1251.58 1169.21 C 1360.78 998.247 1258.64 782.226 1064.61 742.794 L 1063.63 739.997 C 1066.24 739.975 1068.84 739.968 1071.44 739.976 C 1164.26 740.005 1244.24 773.443 1309.64 839.355 C 1371.42 902.131 1405.59 986.961 1404.59 1075.03 C 1403.8 1168.08 1360.71 1260.77 1294.9 1325.65 C 1218.95 1400.93 1116.06 1442.7 1009.14 1441.69 C 904.518 1441.05 804.393 1399.08 730.589 1324.93 C 660.622 1253.46 619.277 1162.14 620.53 1061.28 C 621.737 972.994 657.918 888.789 721.135 827.144 C 769.042 780.651 832.403 749.833 898.827 741.613 C 915.177 739.59 928.192 739.875 944.508 740.145 z" fill="rgb(40,2,139)" transform="translate(0,0)"></path>
<path d="M 944.508 740.145 C 953.09 739.836 961.594 740.083 970.17 739.901 L 969.941 741.963 C 967.87 742.129 965.829 742.475 963.759 742.63 C 959.229 740.312 951.254 741.315 944.508 740.145 z" fill="rgb(75,44,148)" transform="translate(0,0)"></path>
<path d="M 1007.61 857.224 C 1096.97 853.194 1172.7 922.318 1176.81 1011.67 C 1180.92 1101.02 1111.87 1176.81 1022.52 1181.01 C 933.055 1185.21 857.143 1116.05 853.024 1026.58 C 848.905 937.106 918.141 861.259 1007.61 857.224 z" fill="rgb(40,2,139)" transform="translate(0,0)"></path>
<path d="M 1054.46 739.806 C 1057.52 739.942 1060.58 739.824 1063.63 739.997 L 1064.61 742.794 C 1061.08 742.345 1057.44 741.915 1053.97 741.27 L 1054.46 739.806 z" fill="rgb(75,44,148)" transform="translate(0,0)"></path>
<path d="M 970.17 739.901 C 973.818 739.248 977.23 738.518 980.732 739.856 L 980.225 739.686 L 980.484 740.256 L 980.562 740.272 C 979.891 741.165 972.671 741.54 971.249 741.766 L 969.941 741.963 L 970.17 739.901 z" fill="rgb(162,160,189)" transform="translate(0,0)"></path>
<path d="M 1053.97 741.27 C 1052.9 741.245 1045.82 741.508 1045.58 740.311 C 1046.73 738.359 1052.67 739.472 1054.46 739.806 L 1053.97 741.27 z" fill="rgb(162,160,189)" transform="translate(0,0)"></path>
<path d="M 276.49 771.032 C 337.746 618.181 470.462 493.419 620.796 429.27 C 691.883 398.23 768.191 380.887 845.711 378.153 C 878.849 376.837 917.707 378.042 951.388 377.95 C 987.353 377.851 1028.98 377.03 1064.41 378.269 C 1118.2 380.15 1185.93 398.938 1235.85 419.064 C 1389.69 480.304 1512.35 600.951 1576.13 753.749 C 1595.87 800.262 1600.7 826.229 1613.23 873.399 L 1611.27 873.863 C 1565.56 739.256 1454.37 619.979 1327.63 557.451 C 1256.54 521.495 1178.84 500.501 1099.32 495.766 C 1073.6 494.287 1043.39 494.152 1017.61 494.897 C 959.125 496.589 897.559 492.428 839.351 495.409 C 789.408 498.235 740.094 507.939 692.804 524.246 C 533.117 578.782 404.043 703.621 330.431 853.949 C 310.187 895.678 295.071 939.706 285.414 985.071 C 281.5 1004.39 279.493 1021.38 276.396 1040.45 C 271.999 1026.28 273.05 999.955 272.692 984.01 C 271.881 947.79 272.125 911.227 272.693 874.995 C 273.183 843.696 271.65 811.079 273.13 779.867 C 273.953 778.565 274.287 777.978 275.016 776.592 C 275.497 774.706 275.953 772.907 276.49 771.032 z" fill="rgb(228,228,228)" transform="translate(0,0)"></path>
<path d="M 273.593 769.058 C 273.895 766.445 273.731 763.527 274.722 761.209 C 276.011 766.571 272.837 765.872 276.49 771.032 C 275.953 772.907 275.497 774.706 275.016 776.592 C 274.287 777.978 273.953 778.565 273.13 779.867 C 273.005 775.295 272.944 773.644 273.593 769.058 z" fill="rgb(75,44,148)" transform="translate(0,0)"></path>
<path d="M 273.593 769.058 L 275.016 776.592 C 274.287 777.978 273.953 778.565 273.13 779.867 C 273.005 775.295 272.944 773.644 273.593 769.058 z" fill="rgb(121,102,180)" transform="translate(0,0)"></path>
<path d="M 742.744 1779.45 C 745.707 1780.53 746.719 1780.61 747.649 1783.3 C 743.26 1782.74 738.092 1782.06 733.82 1781.09 C 738.246 1780.65 738.844 1781.31 742.744 1779.45 z" fill="rgb(75,44,148)" transform="translate(0,0)"></path>
<path d="M 1611.27 873.863 L 1613.23 873.399 C 1614.19 876.877 1614.94 880.385 1615.25 883.978 L 1614.06 884.341 C 1612.98 880.89 1612.05 877.395 1611.27 873.863 z" fill="rgb(121,102,180)" transform="translate(0,0)"></path>
<path d="M 1615.25 883.978 C 1615.49 884.736 1616.5 886.93 1615.47 887.567 L 1615.22 887.501 C 1614.28 886.585 1614.29 885.662 1614.06 884.341 L 1615.25 883.978 z" fill="rgb(75,44,148)" transform="translate(0,0)"></path>
<metadata><recraft-signature>{"signed_by": "recraft", "signature_b64": "FefHiPQnj1UBX2prQabYUD0CyF2KdzTPOUSCwOmrTNrPDKSOJnnh7yvXlOIZQeHFsCtpjeZV/FSKF/GO65xbDw==", "signing_algo": "Ed25519", "generation_timestamp": 1772774485, "identifier": "e3b9de0a-a070-4625-800b-b23805445740"}</recraft-signature></metadata></svg>