<svg xmlns="http://www.w3.org/2000/svg" height="1024" preserveAspectRatio="none" style="display: block;" version="1.1" viewBox="0 0 2048 2048" width="1024">
<path d="M 0 0 L 2048 0 L 2048 2048 L 0 2048 L 0 0 z" fill="rgb(255,255,255)" transform="translate(0,0)"></path>
<path d="M 761.884 276.426 C 766.268 276.011 771.45 275.916 775.896 275.883 C 803.566 275.673 831.26 275.779 858.93 275.821 L 1031.32 275.795 L 1192.4 275.801 C 1227.82 275.818 1273.5 274.563 1307.87 277.654 C 1411.85 287.987 1510.35 329.194 1590.71 395.975 C 1695.43 482.526 1761.55 607.072 1774.58 742.301 C 1778 779.287 1777 820.967 1776.93 858.475 L 1776.87 1017.16 L 1776.93 1187.86 C 1776.94 1232.92 1778.01 1278.66 1772.84 1323.29 C 1751.85 1504.43 1629.06 1660.5 1463.34 1733.52 C 1407.84 1757.97 1351.37 1769.47 1291.25 1774.89 C 1251.3 1776.56 1211.23 1775.93 1171.22 1775.93 L 988.968 1775.91 L 847.12 1775.94 C 809.704 1775.93 772.672 1776.78 735.413 1772.7 C 628.823 1760.24 528.563 1715.58 447.998 1644.69 C 349.174 1557.71 283.559 1428.67 275.321 1296.99 C 273.27 1264.21 274.321 1223.87 274.298 1190.5 L 274.197 1011.03 L 274.148 859.298 C 274.116 823.065 273.056 780.874 276.128 745.328 C 285.696 635.207 330.833 531.19 404.725 448.982 C 496.43 346.702 624.762 284.701 761.884 276.426 z" fill="rgb(38,21,146)" transform="translate(0,0)"></path>
<path d="M 988.122 338.004 C 1002.75 337.904 1045.79 336.296 1058.03 337.921 L 1170.05 338.098 C 1246.28 341.839 1328.3 370.366 1394.03 407.596 C 1400.12 411.049 1424.67 424.17 1428.9 428.5 C 1492.63 471.121 1573.79 539.67 1615.38 605.136 C 1623.17 614.564 1637.83 639.355 1644.35 650.549 C 1682.16 715.458 1714.27 800.792 1715.07 876.909 L 1715.36 989.129 C 1716.04 1004.22 1716.42 1046.14 1715.13 1060.69 L 1715.03 1169.34 C 1714.57 1242.03 1682.7 1326.09 1646.85 1387.95 C 1641.78 1396.71 1623.96 1428.33 1617.99 1434.68 C 1600.72 1459.39 1577.09 1490.93 1556.03 1512.7 C 1548.31 1520.88 1512.72 1556.8 1504.51 1561.92 C 1484.85 1578.99 1465.66 1594.7 1444.12 1609.36 C 1439.28 1612.66 1433.22 1616.76 1428.67 1620.37 C 1414.36 1631.05 1393.68 1642.52 1377.83 1651 C 1309.37 1687.6 1247.41 1705.12 1170.77 1712.98 C 1133.13 1713.82 1093.81 1713.3 1056.12 1713.06 C 1020.57 1714.36 982.314 1713.21 946.604 1714 C 939.965 1714.15 909.244 1714.37 905.197 1713.41 L 880.295 1712.92 C 812.488 1710.55 721.655 1678.64 663.204 1646.41 C 650.661 1639.49 632.438 1630.44 621.22 1621.54 C 595.752 1604.62 565.688 1580.79 541.682 1561.62 C 532.736 1556.68 500.606 1522.75 491.456 1513.29 C 470.156 1491.83 448.74 1462.2 431.467 1437.68 C 425.395 1432.28 412.418 1408.37 407.843 1400.48 C 368.297 1332.31 338.143 1248.89 337.998 1169.11 L 337.995 1058.4 L 338.054 989.109 L 338.005 877.47 C 339.006 798.397 365.295 721.32 405.477 654.082 C 412.379 642.533 423.446 622.448 432.427 613.158 C 452.221 584.082 469.965 562.637 493.909 537.01 C 500.972 527.19 536.19 494.636 546.283 487.144 C 567.301 468.542 598.734 443.493 622.562 428.737 C 636.677 420.141 650.372 411.221 664.878 403.294 C 731.303 366.261 804.933 343.988 880.746 337.994 L 988.122 338.004 z" fill="rgb(255,255,255)" transform="translate(0,0)"></path>
<path d="M 880.746 337.994 L 988.122 338.004 C 988.146 377.041 989 420.267 988.145 459.022 C 1006.79 456.315 1038.79 458.179 1057.66 459.184 C 1143.06 467.16 1211.64 483.789 1288.08 525.661 C 1300.8 532.63 1321.31 544.683 1332.17 553.749 C 1316.36 569.845 1300.77 586.147 1285.38 602.651 C 1163.49 531.274 1038.27 510.203 899.693 545.034 C 834.195 561.497 754.123 604.056 702.736 648.204 C 692.529 656.744 661.339 686.439 653.717 696.646 C 487.2 892.205 485.226 1156.14 651.812 1351.87 C 658.988 1359.51 694.199 1397.83 700.789 1400.96 C 727.284 1421.01 749.63 1438.51 778.701 1455.61 C 873.492 1511.31 984.326 1533.34 1093.21 1518.11 C 1188.84 1504.86 1274.95 1461.36 1349.45 1401.11 C 1357.34 1395.55 1390.34 1360.86 1397.39 1352.58 C 1456.03 1283.13 1492.15 1215.35 1512.63 1125.92 C 1538.93 1011.08 1513.25 868.369 1449.58 769.153 C 1466.15 752.224 1482.89 735.455 1499.79 718.848 C 1509.39 730.866 1521.83 753.638 1529.11 767.436 C 1566.22 837.815 1584.88 910.157 1591.85 989.139 L 1715.36 989.129 C 1716.04 1004.22 1716.42 1046.14 1715.13 1060.69 L 1715.03 1169.34 C 1714.57 1242.03 1682.7 1326.09 1646.85 1387.95 C 1641.78 1396.71 1623.96 1428.33 1617.99 1434.68 C 1600.72 1459.39 1577.09 1490.93 1556.03 1512.7 C 1548.31 1520.88 1512.72 1556.8 1504.51 1561.92 C 1484.85 1578.99 1465.66 1594.7 1444.12 1609.36 C 1439.28 1612.66 1433.22 1616.76 1428.67 1620.37 C 1414.36 1631.05 1393.68 1642.52 1377.83 1651 C 1309.37 1687.6 1247.41 1705.12 1170.77 1712.98 C 1133.13 1713.82 1093.81 1713.3 1056.12 1713.06 C 1020.57 1714.36 982.314 1713.21 946.604 1714 C 939.965 1714.15 909.244 1714.37 905.197 1713.41 L 880.295 1712.92 C 812.488 1710.55 721.655 1678.64 663.204 1646.41 C 650.661 1639.49 632.438 1630.44 621.22 1621.54 C 595.752 1604.62 565.688 1580.79 541.682 1561.62 C 532.736 1556.68 500.606 1522.75 491.456 1513.29 C 470.156 1491.83 448.74 1462.2 431.467 1437.68 C 425.395 1432.28 412.418 1408.37 407.843 1400.48 C 368.297 1332.31 338.143 1248.89 337.998 1169.11 L 337.995 1058.4 L 338.054 989.109 L 338.005 877.47 C 339.006 798.397 365.295 721.32 405.477 654.082 C 412.379 642.533 423.446 622.448 432.427 613.158 C 452.221 584.082 469.965 562.637 493.909 537.01 C 500.972 527.19 536.19 494.636 546.283 487.144 C 567.301 468.542 598.734 443.493 622.562 428.737 C 636.677 420.141 650.372 411.221 664.878 403.294 C 731.303 366.261 804.933 343.988 880.746 337.994 z" fill="rgb(38,21,146)" transform="translate(0,0)"></path>
<path d="M 493.909 537.01 C 500.972 527.19 536.19 494.636 546.283 487.144 C 579.424 524.168 620.285 562.155 655.277 598.603 C 633.629 615.462 621.986 628.552 603.77 648.502 C 538.424 722.527 493.059 812.008 471.972 908.47 C 465.779 937.362 463.326 960.553 460.305 989.525 C 459.408 1013.89 459.012 1033.27 460.009 1057.64 C 422.746 1056.92 375.506 1057.33 337.995 1058.4 L 338.054 989.109 L 338.005 877.47 C 339.006 798.397 365.295 721.32 405.477 654.082 C 412.379 642.533 423.446 622.448 432.427 613.158 C 452.221 584.082 469.965 562.637 493.909 537.01 z" fill="rgb(255,255,255)" transform="translate(0,0)"></path>
<path d="M 338.005 877.47 C 339.006 798.397 365.295 721.32 405.477 654.082 C 412.379 642.533 423.446 622.448 432.427 613.158 C 452.662 629.078 471.865 645.704 491.917 661.498 C 480.49 680.618 465.865 703.648 455.63 722.979 C 428.353 774.688 408.335 829.912 396.142 887.089 C 378.725 884.464 354.775 881.486 338.005 877.47 z" fill="rgb(88,31,242)" transform="translate(0,0)"></path>
<path d="M 493.909 537.01 C 500.972 527.19 536.19 494.636 546.283 487.144 C 579.424 524.168 620.285 562.155 655.277 598.603 C 633.629 615.462 621.986 628.552 603.77 648.502 C 598.542 642.514 592.521 636.238 586.843 630.673 C 555.446 599.895 524.929 568.118 493.909 537.01 z" fill="rgb(88,31,242)" transform="translate(0,0)"></path>
<path d="M 338.054 989.109 C 377.333 989.121 421.437 988.181 460.305 989.525 C 459.408 1013.89 459.012 1033.27 460.009 1057.64 C 422.746 1056.92 375.506 1057.33 337.995 1058.4 L 338.054 989.109 z" fill="rgb(88,31,242)" transform="translate(0,0)"></path>
<path d="M 1591.85 989.139 L 1715.36 989.129 C 1716.04 1004.22 1716.42 1046.14 1715.13 1060.69 L 1715.03 1169.34 C 1714.57 1242.03 1682.7 1326.09 1646.85 1387.95 C 1641.78 1396.71 1623.96 1428.33 1617.99 1434.68 C 1600.72 1459.39 1577.09 1490.93 1556.03 1512.7 C 1548.31 1520.88 1512.72 1556.8 1504.51 1561.92 C 1491.58 1547.09 1474.66 1531.09 1460.61 1516.93 C 1439.4 1495.12 1418.07 1473.44 1396.61 1451.88 C 1413.8 1433.68 1429.44 1422.44 1447.59 1400.99 C 1455.65 1392.72 1468.1 1376.16 1475.13 1367.07 C 1527.38 1299.49 1563.93 1219.54 1581.03 1135.84 C 1585.16 1115.66 1591.22 1086.68 1591.05 1066.06 C 1592 1039.1 1592.32 1016.21 1591.85 989.139 z" fill="rgb(255,255,255)" transform="translate(0,0)"></path>
<path d="M 1653.78 1160.55 C 1674.23 1163.29 1694.64 1166.22 1715.03 1169.34 C 1714.57 1242.03 1682.7 1326.09 1646.85 1387.95 C 1641.78 1396.71 1623.96 1428.33 1617.99 1434.68 L 1557.61 1387.16 C 1606.34 1313.93 1632.88 1245.74 1653.78 1160.55 z" fill="rgb(88,31,242)" transform="translate(0,0)"></path>
<path d="M 1396.61 1451.88 C 1413.8 1433.68 1429.44 1422.44 1447.59 1400.99 C 1458.09 1414.7 1480.84 1436.26 1493.76 1449.23 L 1556.03 1512.7 C 1548.31 1520.88 1512.72 1556.8 1504.51 1561.92 C 1491.58 1547.09 1474.66 1531.09 1460.61 1516.93 C 1439.4 1495.12 1418.07 1473.44 1396.61 1451.88 z" fill="rgb(88,31,242)" transform="translate(0,0)"></path>
<path d="M 1591.85 989.139 L 1715.36 989.129 C 1716.04 1004.22 1716.42 1046.14 1715.13 1060.69 C 1687.87 1060.05 1660.16 1060.68 1632.86 1060.62 C 1626 1060.61 1597.25 1060.35 1592.48 1061.39 C 1591.79 1063.34 1591.55 1064.03 1591.05 1066.06 C 1592 1039.1 1592.32 1016.21 1591.85 989.139 z" fill="rgb(88,31,242)" transform="translate(0,0)"></path>
<path d="M 337.995 1058.4 C 375.506 1057.33 422.746 1056.92 460.009 1057.64 C 472.133 1184.88 515.286 1305.58 603.17 1401.03 C 617.007 1414.46 629.333 1429.02 644.28 1441.33 C 646.969 1443.54 651.583 1447.4 653.382 1450.14 C 637.861 1462.21 609.302 1492.72 594.377 1507.56 C 580.385 1521.48 553.81 1547.08 541.682 1561.62 C 532.736 1556.68 500.606 1522.75 491.456 1513.29 C 470.156 1491.83 448.74 1462.2 431.467 1437.68 C 425.395 1432.28 412.418 1408.37 407.843 1400.48 C 368.297 1332.31 338.143 1248.89 337.998 1169.11 L 337.995 1058.4 z" fill="rgb(255,255,255)" transform="translate(0,0)"></path>
<path d="M 337.998 1169.11 C 357.427 1165.98 376.964 1163.57 396.57 1161.88 C 413.82 1232.3 430.71 1286.67 469.212 1349.4 C 476.074 1360.58 485.185 1376.75 493.484 1386.61 C 473.341 1402.5 450.141 1420.38 431.467 1437.68 C 425.395 1432.28 412.418 1408.37 407.843 1400.48 C 368.297 1332.31 338.143 1248.89 337.998 1169.11 z" fill="rgb(88,31,242)" transform="translate(0,0)"></path>
<path d="M 603.17 1401.03 C 617.007 1414.46 629.333 1429.02 644.28 1441.33 C 646.969 1443.54 651.583 1447.4 653.382 1450.14 C 637.861 1462.21 609.302 1492.72 594.377 1507.56 C 580.385 1521.48 553.81 1547.08 541.682 1561.62 C 532.736 1556.68 500.606 1522.75 491.456 1513.29 C 528.874 1475.45 566.053 1439.28 603.17 1401.03 z" fill="rgb(88,31,242)" transform="translate(0,0)"></path>
<path d="M 541.682 1561.62 C 553.81 1547.08 580.385 1521.48 594.377 1507.56 C 609.302 1492.72 637.861 1462.21 653.382 1450.14 C 736.503 1518.79 815.592 1560.4 922.677 1581.86 C 946.995 1586.73 965.51 1587.4 988.015 1590.96 C 1006.41 1591.79 1024.47 1592.3 1042.87 1591.39 C 1047.25 1591.17 1052.65 1590.92 1056.99 1591.06 C 1056.48 1631.73 1056.19 1672.39 1056.12 1713.06 C 1020.57 1714.36 982.314 1713.21 946.604 1714 C 939.965 1714.15 909.244 1714.37 905.197 1713.41 L 880.295 1712.92 C 812.488 1710.55 721.655 1678.64 663.204 1646.41 C 650.661 1639.49 632.438 1630.44 621.22 1621.54 C 595.752 1604.62 565.688 1580.79 541.682 1561.62 z" fill="rgb(255,255,255)" transform="translate(0,0)"></path>
<path d="M 669.4 1559.61 C 742.113 1607.58 803.836 1633 887.412 1653.73 C 885.15 1672.45 881.68 1694.45 880.295 1712.92 C 812.488 1710.55 721.655 1678.64 663.204 1646.41 C 650.661 1639.49 632.438 1630.44 621.22 1621.54 C 635.898 1600.26 653.787 1580.32 669.4 1559.61 z" fill="rgb(88,31,242)" transform="translate(0,0)"></path>
<path d="M 988.015 1590.96 C 1006.41 1591.79 1024.47 1592.3 1042.87 1591.39 C 1047.25 1591.17 1052.65 1590.92 1056.99 1591.06 C 1056.48 1631.73 1056.19 1672.39 1056.12 1713.06 C 1020.57 1714.36 982.314 1713.21 946.604 1714 C 939.965 1714.15 909.244 1714.37 905.197 1713.41 C 930.152 1712.35 962.743 1713.34 988.1 1713.43 L 988.015 1590.96 z" fill="rgb(88,31,242)" transform="translate(0,0)"></path>
<path d="M 1396.61 1451.88 C 1418.07 1473.44 1439.4 1495.12 1460.61 1516.93 C 1474.66 1531.09 1491.58 1547.09 1504.51 1561.92 C 1484.85 1578.99 1465.66 1594.7 1444.12 1609.36 C 1439.28 1612.66 1433.22 1616.76 1428.67 1620.37 C 1414.36 1631.05 1393.68 1642.52 1377.83 1651 C 1309.37 1687.6 1247.41 1705.12 1170.77 1712.98 C 1133.13 1713.82 1093.81 1713.3 1056.12 1713.06 C 1056.19 1672.39 1056.48 1631.73 1056.99 1591.06 C 1082.47 1590.66 1116.8 1584.47 1141.79 1579.1 C 1242.44 1557.49 1317.4 1515.82 1396.61 1451.88 z" fill="rgb(255,255,255)" transform="translate(0,0)"></path>
<path d="M 1380.56 1558.52 C 1396.22 1578.93 1413.88 1599.64 1428.67 1620.37 C 1414.36 1631.05 1393.68 1642.52 1377.83 1651 C 1309.37 1687.6 1247.41 1705.12 1170.77 1712.98 C 1168.31 1694.4 1165.23 1671.62 1161.57 1653.49 C 1171.22 1650.53 1181.45 1648.43 1191.2 1645.57 C 1257.45 1626.11 1323.05 1596.69 1380.56 1558.52 z" fill="rgb(88,31,242)" transform="translate(0,0)"></path>
<path d="M 880.746 337.994 L 988.122 338.004 C 988.146 377.041 989 420.267 988.145 459.022 C 964.475 461.228 941.71 463.406 918.381 468.247 C 821.96 488.257 728.233 532.13 655.277 598.603 C 620.285 562.155 579.424 524.168 546.283 487.144 C 567.301 468.542 598.734 443.493 622.562 428.737 C 636.677 420.141 650.372 411.221 664.878 403.294 C 731.303 366.261 804.933 343.988 880.746 337.994 z" fill="rgb(255,255,255)" transform="translate(0,0)"></path>
<path d="M 622.562 428.737 C 636.677 420.141 650.372 411.221 664.878 403.294 C 731.303 366.261 804.933 343.988 880.746 337.994 C 881.626 354.594 886.011 380.211 888.354 397.416 C 870.043 401.824 852.638 405.557 834.548 411.011 C 776.392 429.166 721.143 455.579 670.496 489.441 C 656.663 471.885 636.8 444.829 622.562 428.737 z" fill="rgb(88,31,242)" transform="translate(0,0)"></path>
<path d="M 1615.38 605.136 C 1623.17 614.564 1637.83 639.355 1644.35 650.549 C 1682.16 715.458 1714.27 800.792 1715.07 876.909 C 1703.22 879.896 1667.65 884.87 1654.9 886.412 C 1630.65 791.956 1609.48 743.335 1557.21 662.255 C 1578.01 642.713 1595.92 626.014 1615.38 605.136 z" fill="rgb(88,31,242)" transform="translate(0,0)"></path>
<path d="M 1170.05 338.098 C 1246.28 341.839 1328.3 370.366 1394.03 407.596 C 1400.12 411.049 1424.67 424.17 1428.9 428.5 C 1413.25 450.106 1396.74 470.575 1381.03 492.143 C 1315.89 446.39 1238.63 417.32 1162.18 397.114 C 1164.63 377.45 1167.63 357.86 1170.05 338.098 z" fill="rgb(88,31,242)" transform="translate(0,0)"></path>
<path d="M 780.365 1223.38 C 796.351 1239.76 813.08 1256.49 828.75 1273.08 C 785.728 1314.28 743.931 1359.82 700.789 1400.96 C 694.199 1397.83 658.988 1359.51 651.812 1351.87 C 692.225 1308.5 738.888 1266.93 780.365 1223.38 z" fill="rgb(88,31,242)" transform="translate(0,0)"></path>
<path d="M 702.736 648.204 L 791.533 738.785 C 803.143 750.758 817.227 764.269 828.229 776.395 C 814.003 790.999 794.052 810.367 781.245 825.43 C 758.31 803.544 736.795 780.111 713.961 758.232 C 693.439 738.569 674.377 715.623 653.717 696.646 C 661.339 686.439 692.529 656.744 702.736 648.204 z" fill="rgb(88,31,242)" transform="translate(0,0)"></path>
<path d="M 1221.57 1271.68 C 1237.5 1255.27 1253.61 1239.05 1269.91 1223.02 C 1285.45 1240.61 1303.15 1256.94 1319.58 1273.79 C 1345.16 1300.04 1370.8 1327.36 1397.39 1352.58 C 1390.34 1360.86 1357.34 1395.55 1349.45 1401.11 C 1327.24 1377.3 1303.56 1355.15 1280.59 1332.04 C 1260.72 1312.06 1241.51 1291.55 1221.57 1271.68 z" fill="rgb(88,31,242)" transform="translate(0,0)"></path>
<path d="M 988.122 338.004 C 1002.75 337.904 1045.79 336.296 1058.03 337.921 C 1057.89 377.707 1058.53 419.689 1057.66 459.184 C 1038.79 458.179 1006.79 456.315 988.145 459.022 C 989 420.267 988.146 377.041 988.122 338.004 z" fill="rgb(88,31,242)" transform="translate(0,0)"></path>
<path d="M 1161.94 837.803 L 1360.43 642.128 C 1397.75 605.365 1435.31 566.87 1473.03 530.601 C 1484.54 543.541 1509.79 570.337 1522.31 582.02 L 1212.98 890.493 C 1217.22 899.278 1223.7 909.512 1228.38 918.649 C 1239.49 940.353 1245.42 959.539 1249.74 983.349 C 1260.79 1044.32 1247.11 1107.19 1211.71 1158.05 C 1176.59 1207.93 1123.18 1241.9 1063.11 1252.55 C 938.101 1274.31 819.369 1187.48 798.848 1062.73 C 788.44 1000.85 803.275 937.375 840.035 886.517 C 916.379 781.82 1058.07 760.24 1161.94 837.803 z" fill="rgb(38,21,146)" transform="translate(0,0)"></path>
<path d="M 1161.94 837.803 L 1360.43 642.128 C 1397.75 605.365 1435.31 566.87 1473.03 530.601 C 1484.54 543.541 1509.79 570.337 1522.31 582.02 L 1212.98 890.493 L 1022.65 1083.87 C 1006.14 1068.13 982.586 1044.71 967.713 1027.91 C 985.695 1008.54 1008.29 987.248 1027.38 968.38 L 1161.94 837.803 z" fill="rgb(88,31,242)" transform="translate(0,0)"></path>
<path d="M 668.786 824.434 C 673.829 827.54 684.536 837.564 689.318 841.83 C 704.475 855.406 719.509 869.12 734.417 882.969 C 716.061 922.624 701.849 963.836 699.598 1007.91 C 696.952 1059.72 709.152 1120.3 734.922 1165.43 C 721.593 1178.69 704.295 1193.21 690.004 1205.78 C 682.703 1212.8 673.767 1220.36 666.142 1227.46 C 587.579 1095.51 589.017 954.9 668.786 824.434 z" fill="rgb(88,31,242)" transform="translate(0,0)"></path>
<path d="M 1383.71 826.619 C 1386.75 828.997 1391.53 837.938 1393.64 841.819 C 1443.58 933.665 1452.71 1047.51 1420.52 1146.72 C 1411.08 1175.81 1397.43 1201.69 1382.82 1228.03 C 1375.93 1222.03 1369.29 1215.61 1362.65 1209.32 C 1346.81 1194.06 1330.42 1179.65 1314.65 1164.11 C 1320.27 1153.43 1325.24 1142.43 1329.55 1131.16 C 1358.07 1055.61 1352.96 964.474 1319.95 891.155 C 1339.75 872.39 1366.29 846.745 1383.71 826.619 z" fill="rgb(88,31,242)" transform="translate(0,0)"></path>
<path d="M 885.479 1317.65 C 893.487 1321.62 901.666 1325.25 909.991 1328.51 C 997.597 1362.41 1080.24 1355.11 1164.4 1317.69 C 1183.51 1339.64 1204.75 1363 1222.57 1385.71 C 1207.02 1396.64 1188.12 1404.63 1170.61 1412 C 1064.54 1457.83 925.785 1447.77 827.983 1385.9 C 846.312 1363.53 866.717 1339.76 885.479 1317.65 z" fill="rgb(88,31,242)" transform="translate(0,0)"></path>
<path d="M 1000.54 609.406 C 1008.76 608.395 1027.52 608.694 1036 608.897 C 1105.56 610.56 1164.22 630.178 1223.46 665.58 C 1205.01 686.505 1182.19 708.969 1165.41 730.024 C 1155.82 726.393 1145.27 720.817 1134.95 716.983 C 1107.34 706.731 1083.3 701.464 1054.25 698.218 C 988.381 693.158 944.914 703.585 885.138 730.389 C 870.59 711.18 844.722 683.146 828.419 664.462 C 880.428 632.312 939.529 613.408 1000.54 609.406 z" fill="rgb(88,31,242)" transform="translate(0,0)"></path>
<metadata><recraft-signature>{"signed_by": "recraft", "signature_b64": "vV0IsnDeO22gOPLYkZ8sEz87V7DWS4w9CqNrGP6r+MWvGTcAG3MsKyo+B7oE8dSTtR9VbyEC2Ab3qjgg2D7SDA==", "signing_algo": "Ed25519", "generation_timestamp": 1772774488, "identifier": "b0687f45-eb61-4049-a719-5c2f662f4236"}</recraft-signature></metadata></svg>