<svg xmlns="http://www.w3.org/2000/svg" height="1024" preserveAspectRatio="none" style="display: block;" version="1.1" viewBox="0 0 2048 2048" width="1024">
<path d="M 0 0 L 2048 0 L 2048 2048 L 0 2048 L 0 0 z" fill="rgb(255,255,255)" transform="translate(0,0)"></path>
<path d="M 601.509 278.425 C 621.538 277.905 642.51 278.612 662.656 278.66 L 785.162 278.833 L 1163.67 278.922 L 1356.42 278.883 C 1400.63 278.824 1459.11 276.64 1501.37 284.301 C 1558.59 294.816 1612.08 320.092 1656.53 357.628 C 1708.89 402.067 1746.81 464.193 1762.36 530.805 C 1775.67 587.814 1771.15 651.762 1771.23 710.441 L 1771.37 981.473 C 1771.94 1091.75 1771.96 1202.02 1771.41 1312.3 L 1771.48 1400.61 C 1771.59 1434.05 1772.71 1463.74 1766.83 1496.95 C 1756.99 1555.38 1731.51 1610.04 1693.09 1655.14 C 1630.63 1728.27 1549.98 1763.57 1455.25 1770.97 C 1393.62 1772.54 1324.82 1770.92 1262.66 1770.84 L 879.221 1770.55 L 689.354 1771 C 648.668 1771.13 598.662 1773.35 559.568 1766.89 C 497.061 1756.57 436.677 1730.55 389.022 1688.17 C 324.091 1630.63 284.671 1549.66 279.431 1463.06 C 278.299 1443.33 279.02 1418.84 279.044 1398.7 L 279.079 1289.8 L 279.089 944.919 L 279.017 711.388 C 278.951 662.064 276.006 592.787 284.661 546.595 C 295.231 487.419 322.098 432.365 362.242 387.623 C 425.414 317.705 508.385 282.94 601.509 278.425 z" fill="rgb(43,11,155)" transform="translate(0,0)"></path>
<path d="M 589.221 434.607 C 590.951 433.884 792.335 431.928 807.525 433.736 L 1298.21 433.988 L 1400.03 433.596 C 1416.59 433.574 1437.13 433.076 1453.48 433.807 C 1514.84 437.7 1560.59 461.338 1596.48 511.681 C 1588.26 576.394 1563.48 638.518 1532.53 695.519 C 1439.39 867.004 1253.85 992.306 1058.41 1006.31 C 1055.56 1006.56 1052.71 1006.76 1049.85 1006.9 C 898.125 1014.33 745.148 949.974 634.021 849.591 C 627.02 843.267 620.758 836.161 613.749 829.818 C 548.491 761.024 503.174 688.221 474.47 597.283 C 465.327 568.317 458.051 540.531 454.533 510.299 C 481.161 467.714 539.842 437.126 589.221 434.607 z" fill="rgb(255,255,255)" transform="translate(0,0)"></path>
<path d="M 589.221 434.607 C 590.951 433.884 792.335 431.928 807.525 433.736 L 1298.21 433.988 C 1291.19 505.558 1256.25 571.479 1200.96 617.469 C 1144.07 665.081 1070.26 687.519 996.495 679.631 C 983.576 678.378 970.78 676.089 958.228 672.786 C 954.705 671.895 944.04 668.628 941.301 668.175 C 931.246 670.845 903.665 669.548 891.438 670.657 C 833.055 675.949 791.314 695.918 745.702 730.985 C 727.821 715.17 717.132 704.702 701.219 687.111 C 657.382 638.908 623.481 570.354 607.866 507.191 C 601.549 481.643 600.826 460.886 596.805 435.856 C 593.992 433.953 593.368 434.666 589.221 434.607 z" fill="rgb(255,255,255)" transform="translate(0,0)"></path>
<path d="M 589.221 434.607 C 590.951 433.884 792.335 431.928 807.525 433.736 C 789.621 433.936 771.715 433.957 753.811 433.797 C 755.102 446.443 756.101 455.303 758.882 467.882 C 760.21 473.885 764.001 485.81 764.802 490.546 C 761.863 495.367 762.665 525.326 761.946 533.722 C 758.137 578.218 744.528 618.095 720.71 655.775 C 715.495 664.026 704.042 678.298 701.219 687.111 C 657.382 638.908 623.481 570.354 607.866 507.191 C 601.549 481.643 600.826 460.886 596.805 435.856 C 593.992 433.953 593.368 434.666 589.221 434.607 z" fill="rgb(127,31,235)" transform="translate(0,0)"></path>
<path d="M 701.219 687.111 C 704.042 678.298 715.495 664.026 720.71 655.775 C 744.528 618.095 758.137 578.218 761.946 533.722 C 762.665 525.326 761.863 495.367 764.802 490.546 C 794.97 577.991 854.11 637.463 941.301 668.175 C 931.246 670.845 903.665 669.548 891.438 670.657 C 833.055 675.949 791.314 695.918 745.702 730.985 C 727.821 715.17 717.132 704.702 701.219 687.111 z" fill="rgb(43,11,155)" transform="translate(0,0)"></path>
<path d="M 1298.21 433.988 L 1400.03 433.596 C 1416.59 433.574 1437.13 433.076 1453.48 433.807 C 1452.42 463.185 1447.61 488.574 1440.12 516.924 C 1418.1 600.332 1375.83 668.381 1312.93 726.935 C 1231.72 802.424 1123.68 842.264 1012.9 837.565 C 910.859 833.858 822.813 797.698 745.702 730.985 C 791.314 695.918 833.055 675.949 891.438 670.657 C 903.665 669.548 931.246 670.845 941.301 668.175 C 944.04 668.628 954.705 671.895 958.228 672.786 C 970.78 676.089 983.576 678.378 996.495 679.631 C 1070.26 687.519 1144.07 665.081 1200.96 617.469 C 1256.25 571.479 1291.19 505.558 1298.21 433.988 z" fill="rgb(127,31,235)" transform="translate(0,0)"></path>
<path d="M 433.969 825.98 C 476.622 795.824 534.359 795.143 581.712 814.941 C 590.186 818.484 605.84 830.05 613.749 829.818 C 620.758 836.161 627.02 843.267 634.021 849.591 C 745.148 949.974 898.125 1014.33 1049.85 1006.9 C 1052.71 1006.76 1055.56 1006.56 1058.41 1006.31 L 1058.95 1007.81 C 1064.22 1009.73 1078.37 1011.67 1084.75 1013 C 1096.52 1015.55 1108.14 1018.73 1119.57 1022.54 C 1162.78 1036.68 1201.14 1059.69 1234.03 1090.97 C 1244.25 1100.68 1257.94 1115.69 1267.89 1123.92 C 1287.55 1116.76 1310.28 1108.46 1329.25 1099.61 C 1417.48 1057.5 1496.29 997.991 1560.96 924.66 C 1572.6 911.715 1583.77 898.347 1594.44 884.582 C 1600.7 876.382 1609.61 863.203 1616.09 856.053 C 1618.06 874.44 1617.02 911.043 1617.02 930.932 L 1617.1 1073.19 C 1494.93 1219.15 1295.13 1314.45 1106.99 1329.84 C 1090.17 1331.22 1067.48 1333.23 1050.73 1333.11 C 1036.19 1332.47 1017.77 1333.11 1002.78 1332.94 C 982.673 1332.6 962.585 1331.45 942.567 1329.5 C 811.179 1316.89 667.927 1267.01 560.095 1190.39 C 516.802 1159.94 466.86 1122 433.471 1080.59 C 432.658 1061.68 433.147 1039.99 433.177 1020.96 L 433.229 916.013 C 431.681 887.662 433.524 854.587 433.969 825.98 z" fill="rgb(255,255,255)" transform="translate(0,0)"></path>
<path d="M 433.969 825.98 C 476.622 795.824 534.359 795.143 581.712 814.941 C 590.186 818.484 605.84 830.05 613.749 829.818 C 620.758 836.161 627.02 843.267 634.021 849.591 C 745.148 949.974 898.125 1014.33 1049.85 1006.9 C 1052.71 1006.76 1055.56 1006.56 1058.41 1006.31 L 1058.95 1007.81 C 1064.22 1009.73 1078.37 1011.67 1084.75 1013 C 1096.52 1015.55 1108.14 1018.73 1119.57 1022.54 C 1162.78 1036.68 1201.14 1059.69 1234.03 1090.97 C 1244.25 1100.68 1257.94 1115.69 1267.89 1123.92 C 1240.24 1134.39 1215.75 1140.31 1187.02 1146.58 C 1090.17 1168.47 989.829 1169.99 892.36 1151.04 C 835.751 1140.11 786.85 1125.88 733.84 1102.47 C 619.792 1052.11 503.772 957.525 433.92 854.21 C 433.358 874.722 434.072 895.583 433.229 916.013 C 431.681 887.662 433.524 854.587 433.969 825.98 z" fill="rgb(127,31,235)" transform="translate(0,0)"></path>
<path d="M 560.095 1190.39 C 667.927 1267.01 811.179 1316.89 942.567 1329.5 C 962.585 1331.45 982.673 1332.6 1002.78 1332.94 C 1017.77 1333.11 1036.19 1332.47 1050.73 1333.11 C 1057.11 1335.31 1064.45 1335.63 1071.15 1336.79 C 1085.65 1339.29 1100.26 1341.39 1114.5 1345.21 C 1169.96 1360.28 1219.18 1392.23 1257.23 1435.04 C 1265.62 1444.47 1272.81 1454.54 1280.89 1463.85 C 1380.18 1436.82 1474.19 1393.17 1558.92 1334.76 C 1579.13 1320.95 1596.99 1305.22 1616.29 1291.5 C 1616.86 1328.27 1617.1 1365.05 1617.01 1401.83 C 1617.02 1420.44 1617.5 1440.4 1616.71 1458.92 C 1615.12 1496.36 1598.5 1536.72 1572.19 1563.69 C 1544.21 1592.55 1507.04 1610.76 1467.09 1615.18 C 1454.25 1616.57 1437.21 1616.33 1424.12 1616.43 L 754.146 1616.07 C 703.212 1618.14 640.247 1616.35 588.99 1615.95 C 546.517 1611.12 511.221 1598.08 480.889 1567.13 C 436.131 1521.45 433.239 1481.49 433.239 1422.46 L 433.229 1355.36 C 431.317 1331.04 433.347 1284.16 433.874 1258.67 C 454.272 1233.16 494.098 1211.24 524.911 1200.9 C 535.252 1197.44 550.765 1195.34 560.095 1190.39 z" fill="rgb(127,31,235)" transform="translate(0,0)"></path>
<path d="M 1280.89 1463.85 C 1380.18 1436.82 1474.19 1393.17 1558.92 1334.76 C 1579.13 1320.95 1596.99 1305.22 1616.29 1291.5 C 1616.86 1328.27 1617.1 1365.05 1617.01 1401.83 C 1617.02 1420.44 1617.5 1440.4 1616.71 1458.92 C 1615.12 1496.36 1598.5 1536.72 1572.19 1563.69 C 1544.21 1592.55 1507.04 1610.76 1467.09 1615.18 C 1454.25 1616.57 1437.21 1616.33 1424.12 1616.43 L 754.146 1616.07 C 771.009 1590.5 797.489 1565.57 822.273 1548.1 C 861.499 1520.53 906.907 1503.04 954.49 1497.18 C 979.813 1494.23 1006.72 1495.09 1032.34 1494.95 C 1056.28 1494.73 1080.21 1493.85 1104.11 1492.32 C 1163.84 1488.82 1223.07 1479.29 1280.89 1463.85 z" fill="rgb(255,255,255)" transform="translate(0,0)"></path>
<path d="M 433.874 1292.77 C 443.646 1301.76 458.993 1312.29 470.083 1320.02 C 535.513 1365.15 606.71 1401.28 681.764 1427.45 C 695.078 1432.11 709.148 1437.33 722.705 1441.02 C 713.007 1448.96 701.603 1458 692.402 1466.25 C 650.563 1503.76 606.11 1561.86 588.99 1615.95 C 546.517 1611.12 511.221 1598.08 480.889 1567.13 C 436.131 1521.45 433.239 1481.49 433.239 1422.46 L 433.229 1355.36 C 434.116 1335.19 433.789 1313.09 433.874 1292.77 z" fill="rgb(255,255,255)" transform="translate(0,0)"></path>
<metadata><recraft-signature>{"signed_by": "recraft", "signature_b64": "Zc+qn5GykSg5U2roPrJzCymMqWrn4omdnFp7V4xj6SQ7wE+muJST4LC5PP6z0BJCBHRNxWXVyQ/E9RgLirT5Dw==", "signing_algo": "Ed25519", "generation_timestamp": 1772774467, "identifier": "33e722b1-1757-41d3-88cb-bc76ff33d88f"}</recraft-signature></metadata></svg>