<svg xmlns="http://www.w3.org/2000/svg" height="1024" preserveAspectRatio="none" style="display: block;" version="1.1" viewBox="0 0 2048 2048" width="1024">
<path d="M 0 0 L 2048 0 L 2048 2048 L 0 2048 L 0 0 z" fill="rgb(255,255,255)" transform="translate(0,0)"></path>
<path d="M 854.511 282.5 L 855.454 282.495 L 1263.47 282.366 L 1392.65 282.591 C 1439.54 282.755 1478.23 279.996 1524.57 290.782 C 1582.65 304.672 1635.81 334.227 1678.27 376.23 C 1730.6 428.136 1763.23 496.633 1770.57 569.97 C 1772.48 590.346 1772.09 610.063 1772.04 630.48 L 1771.99 703.425 L 1772.19 905.008 C 1744.05 904.767 1723.48 909.894 1697.14 917.845 L 1697.16 847.277 C 1656.86 846.402 1614.75 847.039 1574.25 847.045 L 1367.76 846.967 L 821.384 847.041 C 805.216 807.406 789.025 765.782 773.88 725.622 C 771.969 720.555 772.733 697.191 772.747 690.29 L 772.829 630.428 L 772.647 395.5 L 772.65 357.161 L 771.75 357.154 L 656.135 357.173 C 632.08 357.19 597.826 356.426 574.343 358.878 C 517.174 365.256 463.868 390.873 423.17 431.526 C 383.928 470.935 359.872 522.942 355.251 578.364 C 353.369 600.374 354.368 631.807 354.33 654.601 L 354.123 771.968 L 646.764 771.447 C 638.962 795.35 627.513 823.397 618.457 847.105 L 354.681 847.4 C 352.882 898.895 354.143 958.462 354.051 1010.44 C 331.317 1011.47 303.016 1010.63 280.128 1010.15 L 279.812 618.126 C 279.722 598.348 279.343 581.564 281.701 561.794 C 290.6 492.21 322.179 427.497 371.553 377.664 C 419.012 329.92 489.51 292.437 556.56 285.204 C 591.642 281.42 641.863 282.76 678.372 282.718 L 854.511 282.5 z" fill="rgb(38,18,97)" transform="translate(0,0)"></path>
<path d="M 1071.08 357.017 C 1094.03 357.049 1120.63 356.404 1143.26 357.147 L 1340.92 357.319 L 1410.47 357.312 C 1449.87 357.244 1474.55 355.796 1513.4 365.703 C 1556.55 376.729 1595.91 399.24 1627.29 430.844 C 1663.92 467.413 1682.81 508.925 1693.43 558.671 C 1697.15 582.046 1697.74 608.701 1697.04 632.568 L 1696.98 771.55 L 1534.12 771.946 C 1507.94 772.06 1481.76 772.038 1455.58 771.881 L 847.149 771.961 C 846.137 730.817 847.027 685.534 847.205 644.086 C 847.585 619.797 847.17 594.511 847.06 570.152 L 847 357.033 L 1071.08 357.017 z" fill="rgb(255,255,255)" transform="translate(0,0)"></path>
<path d="M 1693.43 558.671 C 1697.15 582.046 1697.74 608.701 1697.04 632.568 L 1696.98 771.55 L 1534.12 771.946 C 1507.94 772.06 1481.76 772.038 1455.58 771.881 C 1478.98 660.596 1579.3 567.805 1693.43 558.671 z" fill="rgb(92,51,239)" transform="translate(0,0)"></path>
<path d="M 1534.12 771.946 C 1540.14 751.934 1549.42 733.05 1561.58 716.053 C 1594.98 668.925 1640.41 642.198 1697.04 632.568 L 1696.98 771.55 L 1534.12 771.946 z" fill="rgb(255,255,255)" transform="translate(0,0)"></path>
<path d="M 847 357.033 L 1071.08 357.017 C 1070.28 392.229 1052.35 439.244 1032.88 468.687 C 992.791 529.315 919.643 568.659 847.06 570.152 L 847 357.033 z" fill="rgb(255,255,255)" transform="translate(0,0)"></path>
<path d="M 1071.08 357.017 C 1094.03 357.049 1120.63 356.404 1143.26 357.147 C 1139.29 437.582 1103.54 513.147 1043.87 567.233 C 1008.79 598.846 969.586 619.917 924.377 633.177 C 897.824 640.965 874.604 642.552 847.205 644.086 C 847.585 619.797 847.17 594.511 847.06 570.152 C 919.643 568.659 992.791 529.315 1032.88 468.687 C 1052.35 439.244 1070.28 392.229 1071.08 357.017 z" fill="rgb(92,51,239)" transform="translate(0,0)"></path>
<path d="M 1292.82 462.331 C 1352.97 454.009 1408.48 496.017 1416.82 556.166 C 1425.15 616.314 1383.15 671.833 1323.01 680.18 C 1262.84 688.529 1207.3 646.518 1198.97 586.352 C 1190.63 526.186 1232.65 470.656 1292.82 462.331 z" fill="rgb(38,18,97)" transform="translate(0,0)"></path>
<path d="M 1305.46 535.592 C 1324.81 534.03 1341.84 548.256 1343.75 567.574 C 1345.66 586.892 1331.75 604.181 1312.47 606.442 C 1299.68 607.942 1287.08 602.422 1279.52 592.007 C 1271.95 581.592 1270.59 567.903 1275.97 556.207 C 1281.35 544.51 1292.62 536.628 1305.46 535.592 z" fill="rgb(255,255,255)" transform="translate(0,0)"></path>
<path d="M 1697.21 1124.92 C 1717.86 1108.51 1745.49 1101.35 1771.51 1100.93 L 1772.05 1434.26 C 1772.04 1454.78 1771.57 1474.29 1768.55 1494.67 C 1757.97 1563 1725.93 1626.2 1677.07 1675.14 C 1633.33 1718.68 1578.01 1748.76 1517.69 1761.8 C 1472.99 1771.44 1420.95 1768.88 1374.63 1768.86 L 1214.33 1768.8 L 618.877 1768.83 C 599.883 1768.79 580.271 1768.68 561.407 1766.36 C 489.889 1757.34 423.46 1724.61 372.743 1673.38 C 319.892 1620.28 287.479 1550.24 281.217 1475.58 C 278.803 1446.21 280.188 1404.87 280.155 1374.64 C 280.017 1318.7 280.161 1262.75 280.586 1206.81 L 354.104 1206.99 L 353.914 1281 L 353.75 1404.49 C 352.381 1421.06 352.497 1486.77 359.142 1500.51 C 365.004 1518.36 368.303 1531.49 376.218 1549.32 C 399.651 1600.95 440.13 1642.95 490.862 1668.27 C 555.83 1700.92 622.318 1693.78 692.331 1693.79 L 911.584 1693.87 C 917.235 1583.08 974.139 1487.66 1073.69 1435.57 C 1117.3 1412.75 1157.28 1403.95 1205.95 1401.03 L 1205.95 1281 C 1142.38 1279.91 1075.96 1280.9 1012.2 1281 C 1020.46 1259.1 1034.65 1229 1044.4 1206.83 L 1697.04 1206.15 L 1697.21 1124.92 z" fill="rgb(38,18,97)" transform="translate(0,0)"></path>
<path d="M 911.584 1693.87 C 917.235 1583.08 974.139 1487.66 1073.69 1435.57 C 1117.3 1412.75 1157.28 1403.95 1205.95 1401.03 C 1206 1425.64 1206.59 1452.33 1206.06 1476.75 L 1205.99 1693.29 C 1134.37 1694.61 1055.84 1694.68 984.119 1693.88 C 959.942 1693.51 935.761 1693.51 911.584 1693.87 z" fill="rgb(255,255,255)" transform="translate(0,0)"></path>
<path d="M 911.584 1693.87 C 917.235 1583.08 974.139 1487.66 1073.69 1435.57 C 1117.3 1412.75 1157.28 1403.95 1205.95 1401.03 C 1206 1425.64 1206.59 1452.33 1206.06 1476.75 C 1091.07 1479.34 987.917 1570.63 984.047 1692.18 C 984.071 1692.74 984.095 1693.31 984.119 1693.88 C 959.942 1693.51 935.761 1693.51 911.584 1693.87 z" fill="rgb(92,51,239)" transform="translate(0,0)"></path>
<path d="M 1280.24 1281.08 L 1697.02 1281.05 L 1697.09 1397.97 C 1697.1 1420.94 1697.81 1447.05 1696.02 1469.56 C 1691.37 1528.14 1665.34 1580.26 1624.4 1622.06 C 1583.84 1662.38 1530.49 1687.29 1473.55 1692.49 C 1449.99 1694.69 1420.09 1693.86 1395.99 1693.84 L 1280.56 1693.78 C 1279.91 1651.7 1280.42 1608.68 1280.27 1566.5 L 1280.24 1281.08 z" fill="rgb(255,255,255)" transform="translate(0,0)"></path>
<path d="M 1470.03 1342.39 C 1544.86 1336.77 1610.09 1392.85 1615.74 1467.67 C 1621.4 1542.5 1565.34 1607.75 1490.52 1613.44 C 1415.65 1619.13 1350.36 1563.03 1344.7 1488.17 C 1339.04 1413.3 1395.16 1348.02 1470.03 1342.39 z" fill="rgb(38,18,97)" transform="translate(0,0)"></path>
<path d="M 1471.6 1418.59 C 1504.48 1413.69 1535.05 1436.49 1539.74 1469.39 C 1544.43 1502.29 1521.44 1532.72 1488.51 1537.2 C 1455.87 1541.65 1425.77 1518.91 1421.12 1486.3 C 1416.47 1453.68 1439.02 1423.44 1471.6 1418.59 z" fill="rgb(255,255,255)" transform="translate(0,0)"></path>
<path d="M 655.408 933.109 C 670.141 925.146 677.506 917.927 695.845 923.381 C 711.835 928.137 721.776 941.551 722.491 957.976 C 718.506 966.819 714.106 980.242 710.656 989.669 C 704.525 1006.33 698.274 1022.94 691.904 1039.51 C 670.933 1094.56 648.6 1151.72 628.899 1207.11 L 760.014 1207.34 C 770.17 1232.6 779.229 1256.08 790.044 1281.1 C 726.59 1281.08 663.135 1281.41 599.684 1282.1 C 590.081 1308.72 579.427 1338.51 565.656 1363.26 C 521.808 1442.07 447.286 1488.16 359.142 1500.51 C 352.497 1486.77 352.381 1421.06 353.75 1404.49 L 353.914 1281 L 354.104 1206.99 L 550.834 1206.97 C 567.435 1163.76 583.682 1120.42 599.574 1076.94 C 604.393 1063.81 610.275 1052.59 614.766 1039 L 613.202 1037.47 C 613.388 1037.4 613.585 1037.34 613.758 1037.24 C 618.174 1034.69 641.097 970.677 644.643 960.971 C 646.532 954.071 652.484 939.469 655.408 933.109 z" fill="rgb(92,51,239)" transform="translate(0,0)"></path>
<path d="M 353.914 1281 C 409.844 1280.93 467.398 1280.16 523.233 1281.02 C 518.008 1294.66 512.901 1308.89 506.075 1321.77 C 485.368 1360.36 452.461 1391 412.497 1408.91 C 390.259 1418.77 376.898 1421.89 353.746 1426.56 C 353.776 1419.72 354.045 1411.19 353.75 1404.49 L 353.914 1281 z" fill="rgb(255,255,255)" transform="translate(0,0)"></path>
<path d="M 1071.02 1057.9 C 1119.57 1004.41 1162.46 971.234 1238.49 965.731 C 1281.72 962.678 1337.09 977.697 1370.7 1005.26 C 1414.11 1040.87 1440.12 1075.46 1501.59 1075.26 C 1558.33 1075.08 1579.8 1051.33 1619.85 1017.48 C 1653.01 989.461 1701.85 969.811 1744.6 964.703 C 1763.16 962.429 1783.14 963.006 1802.02 963.02 L 1883.06 963.078 C 1883.22 987.899 1883.23 1012.72 1883.09 1037.54 C 1860.27 1037.73 1837.45 1037.76 1814.62 1037.64 C 1785.42 1037.57 1757.25 1035.97 1728.88 1043.46 C 1692.23 1053.13 1669.59 1072.23 1642.48 1096.89 C 1621.99 1115.53 1594 1131.54 1567.78 1140.18 C 1501.27 1161.3 1425.88 1148.75 1371.54 1104.42 C 1354.86 1090.8 1341.37 1074.03 1322.45 1063.07 C 1263.21 1025.68 1195.25 1037.47 1146.68 1085.91 C 1137.93 1094.64 1107.75 1132.56 1102.22 1143.32 C 1098.23 1134.98 1071.32 1062.64 1071.02 1057.9 z" fill="rgb(38,18,97)" transform="translate(0,0)"></path>
<path d="M 720.142 757.666 C 725.098 767.511 730.502 782.274 734.694 792.795 L 756.581 847.253 L 817.693 999.708 L 869.575 1130.24 C 879.555 1154.96 894.3 1187.74 902.071 1212.64 C 910.2 1195.16 919.164 1167.6 926.072 1148.76 L 959.498 1060.02 C 965.378 1044.37 970.837 1028.01 976.993 1012.59 C 983.241 1025.56 988.151 1049.48 992.644 1064 C 999.354 1085.68 1005.72 1107.12 1011.65 1129.03 C 999.788 1163.78 982.951 1203.04 968.887 1237.1 L 923.974 1347.31 C 916.1 1366.35 906.632 1386.42 899.588 1405.54 C 854.435 1287.07 805.099 1169 759.372 1050.71 C 747.436 1019.83 734.023 988.928 722.491 957.976 C 721.776 941.551 711.835 928.137 695.845 923.381 C 677.506 917.927 670.141 925.146 655.408 933.109 C 677.788 875.402 698.382 815.526 720.142 757.666 z" fill="rgb(38,18,97)" transform="translate(0,0)"></path>
<path d="M 559.591 437.015 C 634.222 431.14 699.46 486.934 705.233 561.572 C 711.006 636.211 655.123 701.373 580.477 707.044 C 505.975 712.705 440.965 656.953 435.203 582.458 C 429.441 507.963 485.104 442.878 559.591 437.015 z" fill="rgb(38,18,97)" transform="translate(0,0)"></path>
<path d="M 562.888 511.552 C 595.694 507.702 625.446 531.082 629.463 563.868 C 633.479 596.655 610.249 626.525 577.483 630.707 C 544.482 634.919 514.35 611.486 510.306 578.464 C 506.261 545.442 529.846 515.429 562.888 511.552 z" fill="rgb(255,255,255)" transform="translate(0,0)"></path>
<path d="M 723.982 1374.72 C 785.134 1367.24 840.741 1410.83 848.07 1472 C 855.399 1533.17 811.664 1588.67 750.476 1595.84 C 689.505 1602.99 634.25 1559.45 626.947 1498.49 C 619.644 1437.54 663.049 1382.18 723.982 1374.72 z" fill="rgb(38,18,97)" transform="translate(0,0)"></path>
<path d="M 729.132 1449.89 C 748.817 1445.18 768.565 1457.43 773.105 1477.15 C 777.644 1496.87 765.236 1516.52 745.474 1520.89 C 725.947 1525.21 706.587 1512.98 702.101 1493.49 C 697.615 1474 709.68 1454.54 729.132 1449.89 z" fill="rgb(255,255,255)" transform="translate(0,0)"></path>
<path d="M 218.072 1070.23 C 253.191 1069.5 288.435 1070.47 323.501 1070.13 C 349.987 1069.88 384.199 1072.62 409.187 1065.81 C 434.537 1058.9 453.169 1041.49 471.431 1023.51 C 505.647 989.814 549.279 969.564 596.772 963.162 C 611.497 961.176 629.571 961.18 644.643 960.971 C 641.097 970.677 618.174 1034.69 613.758 1037.24 C 613.585 1037.34 613.388 1037.4 613.202 1037.47 C 579.79 1040.46 554.058 1050 528.333 1072.48 C 516.524 1083.46 505.514 1094.63 492.911 1104.77 C 437.935 1149 379.535 1145.23 313.662 1145.03 C 281.797 1144.84 249.932 1144.83 218.068 1145 L 218.072 1070.23 z" fill="rgb(38,18,97)" transform="translate(0,0)"></path>
<path d="M 976.993 1012.59 C 988.672 977.812 1003.88 943.133 1014.7 908.177 C 1032.65 953.075 1047.54 998.883 1065.15 1043.88 C 1066.85 1048.23 1068.89 1053.83 1071.02 1057.9 C 1071.32 1062.64 1098.23 1134.98 1102.22 1143.32 C 1096.32 1147.19 1029.53 1144.91 1017.9 1144.16 C 1016.07 1138.35 1015 1134.19 1011.65 1129.03 C 1005.72 1107.12 999.354 1085.68 992.644 1064 C 988.151 1049.48 983.241 1025.56 976.993 1012.59 z" fill="rgb(92,51,239)" transform="translate(0,0)"></path>
<metadata><recraft-signature>{"signed_by": "recraft", "signature_b64": "9eDlUPQCdXOS0jQQiZW2X1EUGPDAex5ZPOIVBx4mBRehWF8vnO1oFN1/o0Rv2DegfjVecOP3JlWx0fKeL2lhAg==", "signing_algo": "Ed25519", "generation_timestamp": 1772774508, "identifier": "40a5061f-f2f2-497c-a7ed-728c2d088182"}</recraft-signature></metadata></svg>