<svg xmlns="http://www.w3.org/2000/svg" height="1024" preserveAspectRatio="none" style="display: block;" version="1.1" viewBox="0 0 2048 2048" width="1024">
<path d="M 0 0 L 2048 0 L 2048 2048 L 0 2048 L 0 0 z" fill="rgb(255,255,255)" transform="translate(0,0)"></path>
<path d="M 685.533 286.103 L 1140.19 285.963 L 1291.53 286.039 C 1315.58 286.051 1344.5 285.291 1367.97 286.155 L 1369.24 286.27 C 1382.32 287.348 1399.59 286.493 1413.07 286.69 C 1494.55 287.885 1551.7 276.599 1627.25 318.369 C 1654.33 333.173 1678.57 352.682 1698.82 375.984 C 1755.88 442.196 1768.97 509.306 1765.28 593.528 C 1764.12 619.888 1765.84 647.953 1764.95 674.583 L 1765.01 754.36 C 1765.03 767.129 1765.53 783.521 1764.91 796.062 C 1765.82 848.448 1765.49 901.805 1765.17 954.263 C 1764.34 1092.65 1766.99 1231.61 1765 1369.93 L 1765.03 1459.7 C 1765.06 1480.05 1765.64 1501.48 1763.94 1521.48 C 1758.41 1586.77 1729.33 1645.38 1682.63 1691.01 C 1643.44 1729.31 1587.6 1756.41 1532.86 1762.15 C 1505.69 1765 1473.07 1764.02 1445.3 1764.03 L 1369.77 1764 C 1213.7 1764.81 1057.62 1764.75 901.539 1763.82 C 873.392 1764.8 826.688 1764.71 798.224 1763.89 C 791.095 1765.17 766.326 1764.32 757.514 1764.26 L 677.59 1763.84 L 672.058 1764.05 C 658.405 1763.08 642.213 1763.7 628.464 1763.65 C 555.795 1763.43 491.125 1770.21 424.801 1732.51 C 402.707 1719.95 381.178 1705.33 363.082 1687.25 C 320.355 1644.21 293.399 1588 286.574 1527.73 C 284.189 1505.2 284.928 1478.49 284.956 1455.56 L 285.003 1369.43 L 284.97 681.391 L 284.9 591.399 C 284.894 571.462 284.283 548.042 285.96 528.521 C 290.817 467.633 316.909 410.385 359.679 366.777 C 400.935 324.117 455.306 296.527 514.094 288.42 C 536.152 285.475 561.981 286.148 584.528 286.183 C 618.196 286.419 651.865 286.393 685.533 286.103 z" fill="rgb(56,9,157)" transform="translate(0,0)"></path>
<path d="M 1764.91 796.062 C 1765.82 848.448 1765.49 901.805 1765.17 954.263 C 1764.34 1092.65 1766.99 1231.61 1765 1369.93 L 1765.03 1459.7 C 1765.06 1480.05 1765.64 1501.48 1763.94 1521.48 C 1758.41 1586.77 1729.33 1645.38 1682.63 1691.01 C 1643.44 1729.31 1587.6 1756.41 1532.86 1762.15 C 1505.69 1765 1473.07 1764.02 1445.3 1764.03 L 1369.77 1764 C 1213.7 1764.81 1057.62 1764.75 901.539 1763.82 C 873.392 1764.8 826.688 1764.71 798.224 1763.89 C 791.095 1765.17 766.326 1764.32 757.514 1764.26 L 677.59 1763.84 C 687.88 1733.55 698.646 1703.44 709.881 1673.49 C 724.027 1630.34 735.181 1600.98 759.634 1561.73 C 798.005 1500.13 855.656 1450.75 922.571 1422.5 C 943.795 1413.54 968.638 1407.47 990.919 1402.26 C 998.722 1397.23 1000.56 1375.53 1010.97 1367.32 C 1025.47 1355.88 1039.21 1359.67 1054.02 1349.42 C 1059.05 1346.25 1060.58 1343 1063.28 1337.84 C 1093.67 1329.05 1115.87 1322.67 1145.16 1307.83 C 1218.86 1270.48 1274.3 1212.59 1312.82 1139.81 C 1324.39 1117.95 1334.26 1089.76 1342.01 1066.69 C 1359.29 1056.51 1357.71 1015.55 1370.19 1000.3 C 1378.83 989.744 1388.22 988.358 1400.81 986.834 C 1396.85 1019.32 1393.66 1034.82 1405.04 1066.07 C 1414.24 1069.04 1425.47 1070.83 1435.16 1073.11 C 1446.8 1075.86 1457.23 1079.73 1468.48 1082.81 C 1477.89 1078.96 1492.63 1075.71 1502.99 1072.18 C 1621.35 1031.84 1717.41 934.101 1757.14 815.692 C 1758.81 810.72 1761.79 802.122 1764.06 797.676 L 1764.91 796.062 z" fill="rgb(56,9,157)" transform="translate(0,0)"></path>
<path d="M 1342.01 1066.69 C 1359.29 1056.51 1357.71 1015.55 1370.19 1000.3 C 1378.83 989.744 1388.22 988.358 1400.81 986.834 C 1396.85 1019.32 1393.66 1034.82 1405.04 1066.07 C 1404.94 1080.33 1423.69 1129.88 1430.42 1143.82 C 1399.56 1250 1327.33 1339.33 1229.96 1391.73 C 1196.18 1409.98 1173.12 1417.98 1136.47 1427.92 C 1126.16 1424.33 1115.98 1419.61 1105.66 1415.78 C 1092.21 1410.8 1079.09 1407.04 1065.23 1403.33 C 1070.55 1425.65 1074.79 1444.08 1082.27 1465.87 L 1081.74 1467.4 C 1079.31 1474.59 1078.22 1482.98 1076.13 1490.35 C 1041.79 1611.57 936.46 1720.42 815.386 1758 C 810.692 1759.39 802.022 1761.54 798.224 1763.89 C 791.095 1765.17 766.326 1764.32 757.514 1764.26 L 677.59 1763.84 C 687.88 1733.55 698.646 1703.44 709.881 1673.49 C 724.027 1630.34 735.181 1600.98 759.634 1561.73 C 798.005 1500.13 855.656 1450.75 922.571 1422.5 C 943.795 1413.54 968.638 1407.47 990.919 1402.26 C 998.722 1397.23 1000.56 1375.53 1010.97 1367.32 C 1025.47 1355.88 1039.21 1359.67 1054.02 1349.42 C 1059.05 1346.25 1060.58 1343 1063.28 1337.84 C 1093.67 1329.05 1115.87 1322.67 1145.16 1307.83 C 1218.86 1270.48 1274.3 1212.59 1312.82 1139.81 C 1324.39 1117.95 1334.26 1089.76 1342.01 1066.69 z" fill="rgb(223,233,45)" transform="translate(0,0)"></path>
<path d="M 709.881 1673.49 C 724.027 1630.34 735.181 1600.98 759.634 1561.73 C 798.005 1500.13 855.656 1450.75 922.571 1422.5 C 943.795 1413.54 968.638 1407.47 990.919 1402.26 C 986.796 1417.33 985.296 1428.84 980.025 1444.2 C 952.633 1525.83 895.78 1594.3 820.583 1636.24 C 786.307 1655.41 748.77 1668.04 709.881 1673.49 z" fill="rgb(255,255,255)" transform="translate(0,0)"></path>
<path d="M 1673.68 1399.63 C 1703.42 1390.85 1734.62 1379.12 1765 1369.93 L 1765.03 1459.7 C 1765.06 1480.05 1765.64 1501.48 1763.94 1521.48 C 1758.41 1586.77 1729.33 1645.38 1682.63 1691.01 C 1643.44 1729.31 1587.6 1756.41 1532.86 1762.15 C 1505.69 1765 1473.07 1764.02 1445.3 1764.03 L 1369.77 1764 C 1380.85 1735.47 1390.62 1700.43 1402.27 1673.04 C 1413.12 1641.41 1421.23 1617.41 1437.52 1587.24 C 1473.13 1520.87 1527.55 1466.49 1593.96 1430.93 C 1619.52 1417.55 1646.11 1407.95 1673.68 1399.63 z" fill="rgb(248,101,53)" transform="translate(0,0)"></path>
<path d="M 1402.27 1673.04 C 1413.12 1641.41 1421.23 1617.41 1437.52 1587.24 C 1473.13 1520.87 1527.55 1466.49 1593.96 1430.93 C 1619.52 1417.55 1646.11 1407.95 1673.68 1399.63 C 1668.69 1421.65 1663.3 1443.27 1655.13 1464.38 C 1613.41 1572.26 1516.69 1653.6 1402.27 1673.04 z" fill="rgb(255,255,255)" transform="translate(0,0)"></path>
<path d="M 1065.23 1403.33 C 1079.09 1407.04 1092.21 1410.8 1105.66 1415.78 C 1115.98 1419.61 1126.16 1424.33 1136.47 1427.92 C 1223.89 1465.36 1295.21 1543.46 1329.72 1631.35 C 1334.35 1643.15 1341.89 1663.99 1344.16 1676.08 C 1217.82 1653.96 1130.38 1585.63 1082.27 1465.87 C 1074.79 1444.08 1070.55 1425.65 1065.23 1403.33 z" fill="rgb(255,255,255)" transform="translate(0,0)"></path>
<path d="M 1405.04 1066.07 C 1414.24 1069.04 1425.47 1070.83 1435.16 1073.11 C 1446.8 1075.86 1457.23 1079.73 1468.48 1082.81 C 1509.33 1100.17 1544.05 1119.65 1576.05 1151.41 C 1629.09 1204.05 1660.7 1269.09 1671.24 1342.89 C 1651.11 1336.92 1633.91 1331.58 1614.62 1323.09 C 1540.54 1290.73 1479.26 1234.76 1440.33 1163.91 C 1436.8 1157.33 1433.49 1150.63 1430.42 1143.82 C 1423.69 1129.88 1404.94 1080.33 1405.04 1066.07 z" fill="rgb(255,255,255)" transform="translate(0,0)"></path>
<path d="M 798.224 1763.89 C 802.022 1761.54 810.692 1759.39 815.386 1758 C 817.587 1760.51 818.497 1762.61 821.479 1762.68 C 840.642 1763.1 859.984 1762.91 879.157 1763.06 C 886.314 1763.12 894.728 1762.62 901.539 1763.82 C 873.392 1764.8 826.688 1764.71 798.224 1763.89 z" fill="rgb(90,19,154)" transform="translate(0,0)"></path>
<path d="M 1367.97 286.155 L 1369.24 286.27 C 1382.32 287.348 1399.59 286.493 1413.07 286.69 C 1494.55 287.885 1551.7 276.599 1627.25 318.369 C 1654.33 333.173 1678.57 352.682 1698.82 375.984 C 1755.88 442.196 1768.97 509.306 1765.28 593.528 C 1764.12 619.888 1765.84 647.953 1764.95 674.583 L 1765.01 754.36 C 1765.03 767.129 1765.53 783.521 1764.91 796.062 L 1764.06 797.676 C 1761.79 802.122 1758.81 810.72 1757.14 815.692 C 1717.41 934.101 1621.35 1031.84 1502.99 1072.18 C 1492.63 1075.71 1477.89 1078.96 1468.48 1082.81 C 1457.23 1079.73 1446.8 1075.86 1435.16 1073.11 C 1425.47 1070.83 1414.24 1069.04 1405.04 1066.07 C 1393.66 1034.82 1396.85 1019.32 1400.81 986.834 C 1388.22 988.358 1378.83 989.744 1370.19 1000.3 C 1357.71 1015.55 1359.29 1056.51 1342.01 1066.69 L 1332.21 1068.44 C 1338.82 1037.52 1347.83 1019.43 1340.21 987.263 C 1261.66 985.835 1172.52 930.76 1126.39 868.544 C 1112.39 849.668 1102.33 830.349 1090.74 810.132 C 1073.44 772.198 1067.53 746.715 1059.3 706.308 C 1052.21 680.066 1054.62 668.375 1061.53 642.59 C 1082.05 639.871 1116.21 626.957 1135.19 617.805 C 1207.34 583.386 1266.77 527.036 1304.97 456.81 C 1320.25 428.35 1328.09 406.981 1338.66 376.749 C 1346.95 359.232 1362.01 305.912 1367.97 286.155 z" fill="rgb(56,9,157)" transform="translate(0,0)"></path>
<path d="M 1367.97 286.155 L 1369.24 286.27 C 1382.32 287.348 1399.59 286.493 1413.07 286.69 C 1494.55 287.885 1551.7 276.599 1627.25 318.369 C 1654.33 333.173 1678.57 352.682 1698.82 375.984 C 1755.88 442.196 1768.97 509.306 1765.28 593.528 C 1764.12 619.888 1765.84 647.953 1764.95 674.583 L 1762.47 674.915 C 1741.66 670.408 1693.2 655.178 1672.45 648.453 C 1667.31 646.743 1662.18 645.006 1657.06 643.243 C 1553.4 607.479 1479.51 545.217 1431.57 446.67 C 1407.16 545.788 1336.24 635.596 1249.36 688.09 C 1223.74 703.533 1196.49 716.088 1168.11 725.526 C 1159.47 728.328 1150.39 730.03 1142.87 732.478 C 1122.94 722.961 1080.72 708.053 1059.3 706.308 C 1052.21 680.066 1054.62 668.375 1061.53 642.59 C 1082.05 639.871 1116.21 626.957 1135.19 617.805 C 1207.34 583.386 1266.77 527.036 1304.97 456.81 C 1320.25 428.35 1328.09 406.981 1338.66 376.749 C 1346.95 359.232 1362.01 305.912 1367.97 286.155 z" fill="rgb(223,233,45)" transform="translate(0,0)"></path>
<path d="M 1407.13 375.238 C 1497.31 393.395 1564.15 428.191 1618.14 507.456 C 1649.72 553.818 1661.34 594.546 1672.45 648.453 C 1667.31 646.743 1662.18 645.006 1657.06 643.243 C 1553.4 607.479 1479.51 545.217 1431.57 446.67 C 1421.35 422.227 1412.78 401.308 1407.13 375.238 z" fill="rgb(255,255,255)" transform="translate(0,0)"></path>
<path d="M 1762.47 674.915 L 1764.95 674.583 L 1765.01 754.36 C 1765.03 767.129 1765.53 783.521 1764.91 796.062 L 1764.06 797.676 C 1761.79 802.122 1758.81 810.72 1757.14 815.692 C 1717.41 934.101 1621.35 1031.84 1502.99 1072.18 C 1492.63 1075.71 1477.89 1078.96 1468.48 1082.81 C 1457.23 1079.73 1446.8 1075.86 1435.16 1073.11 C 1425.47 1070.83 1414.24 1069.04 1405.04 1066.07 C 1393.66 1034.82 1396.85 1019.32 1400.81 986.834 L 1401.07 986.367 C 1407.41 954.075 1419.47 920.301 1435.21 891.377 C 1489.47 791.684 1565.9 736.549 1671.44 703.393 L 1733.29 683.996 C 1741.68 681.368 1754.92 677.897 1762.47 674.915 z" fill="rgb(248,101,53)" transform="translate(0,0)"></path>
<path d="M 1401.07 986.367 C 1407.41 954.075 1419.47 920.301 1435.21 891.377 C 1489.47 791.684 1565.9 736.549 1671.44 703.393 C 1670.1 717.055 1665.93 732.133 1662.25 745.397 C 1632.09 854.165 1547.3 943.836 1439.32 977.625 C 1427.44 981.342 1413.58 985.661 1401.07 986.367 z" fill="rgb(255,255,255)" transform="translate(0,0)"></path>
<path d="M 1059.3 706.308 C 1080.72 708.053 1122.94 722.961 1142.87 732.478 C 1230.4 774.297 1293.07 842.631 1326.43 934.391 C 1333.29 953.241 1334.99 971.323 1340.21 987.263 C 1261.66 985.835 1172.52 930.76 1126.39 868.544 C 1112.39 849.668 1102.33 830.349 1090.74 810.132 C 1073.44 772.198 1067.53 746.715 1059.3 706.308 z" fill="rgb(255,255,255)" transform="translate(0,0)"></path>
<path d="M 653.077 1064.29 C 670.044 1041.78 665.901 983.624 709.95 986.103 C 700.969 1009.32 701.501 1035.15 711.43 1057.98 C 712.337 1060.03 713.686 1062.45 714.139 1064.5 C 717.864 1085.81 730.691 1124.84 740.46 1144.09 C 779.199 1227.67 849.666 1292.35 936.249 1323.8 C 953.51 1329.97 969.699 1333.7 987.521 1337.42 C 1000.3 1339.92 1013.11 1342.26 1025.94 1344.45 C 1033.84 1345.75 1046.86 1347.35 1054.02 1349.42 C 1039.21 1359.67 1025.47 1355.88 1010.97 1367.32 C 1000.56 1375.53 998.722 1397.23 990.919 1402.26 C 968.638 1407.47 943.795 1413.54 922.571 1422.5 C 855.656 1450.75 798.005 1500.13 759.634 1561.73 C 735.181 1600.98 724.027 1630.34 709.881 1673.49 C 698.646 1703.44 687.88 1733.55 677.59 1763.84 L 672.058 1764.05 C 658.405 1763.08 642.213 1763.7 628.464 1763.65 C 555.795 1763.43 491.125 1770.21 424.801 1732.51 C 402.707 1719.95 381.178 1705.33 363.082 1687.25 C 320.355 1644.21 293.399 1588 286.574 1527.73 C 284.189 1505.2 284.928 1478.49 284.956 1455.56 L 285.003 1369.43 C 315.446 1359.64 347.228 1347.98 377.218 1338.8 C 401.812 1334.54 440.386 1316.41 462.307 1304.01 C 542.367 1258.56 604.709 1187.38 639.206 1102.03 C 643.674 1091.08 649.918 1075.63 653.077 1064.29 z" fill="rgb(248,101,53)" transform="translate(0,0)"></path>
<path d="M 443.571 1428.74 C 471.853 1422.09 505.597 1408.95 531.609 1395.67 C 607.519 1356.92 669.672 1295.75 709.633 1220.47 C 723.143 1194.49 731.495 1171.75 740.46 1144.09 C 779.199 1227.67 849.666 1292.35 936.249 1323.8 C 953.51 1329.97 969.699 1333.7 987.521 1337.42 C 1000.3 1339.92 1013.11 1342.26 1025.94 1344.45 C 1033.84 1345.75 1046.86 1347.35 1054.02 1349.42 C 1039.21 1359.67 1025.47 1355.88 1010.97 1367.32 C 1000.56 1375.53 998.722 1397.23 990.919 1402.26 C 968.638 1407.47 943.795 1413.54 922.571 1422.5 C 855.656 1450.75 798.005 1500.13 759.634 1561.73 C 735.181 1600.98 724.027 1630.34 709.881 1673.49 C 698.646 1703.44 687.88 1733.55 677.59 1763.84 L 672.058 1764.05 C 670.243 1756.8 668.97 1746.25 667.454 1738.49 C 663.302 1717.27 659.624 1696.14 653.939 1675.23 C 620.934 1561.66 549.533 1479.89 443.571 1428.74 z" fill="rgb(56,9,157)" transform="translate(0,0)"></path>
<path d="M 377.826 1403.86 C 401.059 1410.41 421.665 1418.87 443.571 1428.74 C 549.533 1479.89 620.934 1561.66 653.939 1675.23 C 598.332 1665.59 559.331 1653.3 512.073 1620.63 C 438.44 1569.73 393.059 1491.53 377.826 1403.86 z" fill="rgb(255,255,255)" transform="translate(0,0)"></path>
<path d="M 1090.74 810.132 C 1102.33 830.349 1112.39 849.668 1126.39 868.544 C 1172.52 930.76 1261.66 985.835 1340.21 987.263 C 1347.83 1019.43 1338.82 1037.52 1332.21 1068.44 L 1342.01 1066.69 C 1334.26 1089.76 1324.39 1117.95 1312.82 1139.81 C 1274.3 1212.59 1218.86 1270.48 1145.16 1307.83 C 1115.87 1322.67 1093.67 1329.05 1063.28 1337.84 C 1060.58 1343 1059.05 1346.25 1054.02 1349.42 C 1046.86 1347.35 1033.84 1345.75 1025.94 1344.45 C 1013.11 1342.26 1000.3 1339.92 987.521 1337.42 C 969.699 1333.7 953.51 1329.97 936.249 1323.8 C 849.666 1292.35 779.199 1227.67 740.46 1144.09 C 730.691 1124.84 717.864 1085.81 714.139 1064.5 C 725.273 1067.6 737.556 1069.07 749.01 1071.54 C 767.523 1075.53 783.133 1080.92 800.671 1087.7 C 839.598 1077.73 876.794 1061.93 910.999 1040.84 C 978.341 999.882 1025.05 948.503 1062.32 878.837 C 1073.51 857.927 1085.11 833.254 1090.74 810.132 z" fill="rgb(248,101,53)" transform="translate(0,0)"></path>
<path d="M 740.46 1144.09 C 730.691 1124.84 717.864 1085.81 714.139 1064.5 C 725.273 1067.6 737.556 1069.07 749.01 1071.54 C 767.523 1075.53 783.133 1080.92 800.671 1087.7 C 818.608 1095.81 838.956 1106 855.184 1117.06 C 907.024 1152.38 947.846 1207.29 969.792 1265.85 C 977.536 1286.51 986.413 1315.44 987.521 1337.42 C 969.699 1333.7 953.51 1329.97 936.249 1323.8 C 849.666 1292.35 779.199 1227.67 740.46 1144.09 z" fill="rgb(255,255,255)" transform="translate(0,0)"></path>
<path d="M 1332.21 1068.44 L 1342.01 1066.69 C 1334.26 1089.76 1324.39 1117.95 1312.82 1139.81 C 1274.3 1212.59 1218.86 1270.48 1145.16 1307.83 C 1115.87 1322.67 1093.67 1329.05 1063.28 1337.84 C 1095.29 1193.44 1181.52 1093.04 1332.21 1068.44 z" fill="rgb(255,255,255)" transform="translate(0,0)"></path>
<path d="M 284.97 681.391 L 284.9 591.399 C 284.894 571.462 284.283 548.042 285.96 528.521 C 290.817 467.633 316.909 410.385 359.679 366.777 C 400.935 324.117 455.306 296.527 514.094 288.42 C 536.152 285.475 561.981 286.148 584.528 286.183 C 618.196 286.419 651.865 286.393 685.533 286.103 C 689.842 307.576 696.31 350.222 708.418 367.606 C 709.505 369.168 713.174 372.856 714.008 374.419 C 719.2 398.927 728.33 423.934 738.454 446.809 C 730.768 473.069 721.832 498.356 709.657 522.934 C 673.568 595.79 610.345 659.561 539.161 698.559 C 519.723 708.974 499.441 717.731 478.531 724.735 C 471.515 727.145 454.986 731.874 449.249 734.462 C 430.586 723.68 397.178 713.154 376.438 706.159 C 376.07 705.592 375.729 705.006 375.333 704.458 C 366.441 692.161 302.172 684.491 284.97 681.391 z" fill="rgb(248,101,53)" transform="translate(0,0)"></path>
<path d="M 641.639 376.366 C 644.827 375.978 643.754 375.491 645.916 376.677 C 646.484 385.041 624.289 434.689 619.091 444.369 C 564.539 545.945 492.466 606.522 383.216 640.265 C 381.029 640.867 381.474 640.696 379.135 640.708 C 376.549 636.996 379.801 626.033 380.855 621.302 C 390.631 578.326 408.997 537.771 434.849 502.076 C 484.278 434.297 558.714 389.046 641.639 376.366 z" fill="rgb(255,255,255)" transform="translate(0,0)"></path>
<path d="M 709.95 986.103 C 715.795 962.254 720.729 942.889 729.867 920.065 C 758.931 849.037 810.198 789.319 876.007 749.836 C 910.027 729.217 951.084 712.742 990.31 705.38 C 985.9 727.145 981.429 746.75 974.004 767.799 C 949.996 835.976 904.761 894.659 844.942 935.232 C 811.296 957.609 774.586 974.889 734.827 982.576 C 728.667 983.767 716.036 986.345 709.95 986.103 z" fill="rgb(255,255,255)" transform="translate(0,0)"></path>
<path d="M 376.438 706.159 C 397.178 713.154 430.586 723.68 449.249 734.462 C 461.092 739.717 476.208 748.646 487.245 755.675 C 570.566 807.772 629.493 891.129 650.813 987.056 C 596.542 978.721 547.21 959.623 503.583 925.593 C 433.764 872.216 388.025 793.276 376.438 706.159 z" fill="rgb(255,255,255)" transform="translate(0,0)"></path>
<path d="M 714.008 374.419 L 715.264 374.809 C 730.759 379.482 747.346 381.504 762.967 386.157 C 885.283 422.598 967.95 523.259 990.463 646.679 C 880.728 625.498 783.741 549.391 738.454 446.809 C 728.33 423.934 719.2 398.927 714.008 374.419 z" fill="rgb(255,255,255)" transform="translate(0,0)"></path>
<path d="M 653.077 1064.29 C 649.918 1075.63 643.674 1091.08 639.206 1102.03 C 604.709 1187.38 542.367 1258.56 462.307 1304.01 C 440.386 1316.41 401.812 1334.54 377.218 1338.8 C 388.773 1288.05 396.752 1254.14 426.496 1208.74 C 466.156 1147.87 525.168 1102.14 594.008 1078.92 C 614.516 1072.04 631.879 1068.66 653.077 1064.29 z" fill="rgb(255,255,255)" transform="translate(0,0)"></path>
<path d="M 1061.53 642.59 C 1075.47 577.805 1095.85 534.235 1139.01 482.998 C 1184.38 429.127 1267.73 381.44 1338.66 376.749 C 1328.09 406.981 1320.25 428.35 1304.97 456.81 C 1266.77 527.036 1207.34 583.386 1135.19 617.805 C 1116.21 626.957 1082.05 639.871 1061.53 642.59 z" fill="rgb(255,255,255)" transform="translate(0,0)"></path>
<metadata><recraft-signature>{"signed_by": "recraft", "signature_b64": "Jcsmguwe18uqYJ1StiyZcAg/HalG16aTx4L03vjgX3kfsLu86OG193Y9ddwfnZIXoD2mY7L9/C71dAFC9TxYCg==", "signing_algo": "Ed25519", "generation_timestamp": 1772774420, "identifier": "9d1bdc76-decf-4860-82ea-a8d1de2ebacf"}</recraft-signature></metadata></svg>