<svg xmlns="http://www.w3.org/2000/svg" height="1024" preserveAspectRatio="none" style="display: block;" version="1.1" viewBox="0 0 2048 2048" width="1024">
<path d="M 0 0 L 2048 0 L 2048 2048 L 0 2048 L 0 0 z" fill="rgb(255,255,255)" transform="translate(0,0)"></path>
<path d="M 395.321 791.412 C 386.096 784.533 377.32 777.071 369.046 769.074 C 316.509 718.654 286.081 644.093 284.918 571.496 C 283.982 492.507 314.735 416.437 370.303 360.291 C 423.505 306.744 495.521 276.099 570.994 274.892 C 703.906 273.075 822.435 353.614 861.302 481.371 C 866.476 498.881 870.253 516.775 872.598 534.882 C 879.186 588.429 878.159 623.323 921.29 664.042 C 958.646 699.308 991.458 706.941 1041.05 706.244 C 1040.51 611.163 1040.46 516.08 1040.89 420.999 L 926.178 420.744 C 905.652 372.093 854.643 312.155 808.512 286.218 L 808.393 282.61 C 826.663 283.52 848.881 282.966 867.553 282.926 L 990.304 282.215 L 1388.73 282.311 C 1416.91 282.626 1445.09 282.703 1473.27 282.542 C 1495.76 282.374 1519.47 281.496 1541.84 282.507 C 1602.98 285.271 1665.61 314.775 1706.36 360.126 C 1737.15 394.473 1757.14 437.134 1763.82 482.776 C 1766.87 503.219 1766.27 528.255 1766.34 549.225 L 1766.26 644.23 L 1766.15 933.217 L 1766.21 1344.86 L 1766.08 1467.29 C 1766.07 1489.92 1766.53 1514.81 1765.53 1537.29 C 1762.71 1600.79 1733.58 1659.77 1685.57 1701.73 C 1652.94 1730.56 1612.56 1749.17 1569.45 1755.25 C 1549.02 1758.23 1526.51 1757.67 1505.73 1757.65 L 1431.9 1757.72 L 1143.15 1757.9 L 720.554 1757.67 L 583.871 1757.73 C 563.756 1757.76 543.198 1757.23 523.158 1757.59 C 452.298 1758.88 387.779 1732.9 340.446 1678.4 C 300.725 1632.91 280.904 1573.38 285.42 1513.16 C 290.186 1454.42 318.113 1399.98 363.047 1361.85 C 412.871 1319.34 471.846 1300.93 536.981 1306.4 C 595.89 1311.88 650.264 1340.36 688.322 1385.66 C 726.576 1431.01 745.26 1489.68 740.268 1548.8 C 737.877 1575.77 731.617 1593.22 722.121 1618.08 L 1236.56 1618.18 L 1236.7 1537.26 C 1236.74 1511.64 1237.86 1485.96 1231.97 1460.54 C 1218.17 1399.99 1163.43 1350.78 1102.91 1339.62 C 1078.43 1335.11 1048.42 1337.34 1022.81 1336.18 C 940.359 1332.45 874.055 1295.17 817.597 1237.12 C 787.391 1236.64 746.443 1239.4 717.221 1237.27 C 678.787 1238.43 635.898 1237.54 597.028 1237.51 L 384.697 1237.58 C 307.733 1172.08 274.293 1079.61 286.49 979.968 C 296.383 905.19 335.519 837.383 395.321 791.412 z" fill="rgb(34,19,145)" transform="translate(0,0)"></path>
<path d="M 717.221 1237.27 L 718.175 1236.61 C 658.774 1230.52 596.1 1216.8 541.447 1192.51 C 468.87 1160.25 412.169 1086.55 420.611 1004.49 C 425.194 959.941 445.354 921.088 480.339 892.761 C 513.256 865.717 555.707 853.128 598.046 857.854 C 640.399 862.629 679.113 884.054 705.651 917.406 C 752.291 977.007 734.133 1022.53 745.184 1088.88 C 755.315 1149.7 780.169 1190.62 817.597 1237.12 C 787.391 1236.64 746.443 1239.4 717.221 1237.27 z" fill="rgb(246,120,38)" transform="translate(0,0)"></path>
<path d="M 1401.3 815.358 C 1463.58 842.487 1491.35 845.048 1556.8 844.966 C 1580.18 844.817 1603.55 844.922 1626.93 845.282 L 1626.88 1198.06 L 1560.59 1197.97 C 1528 1197.9 1500.53 1198.72 1469.97 1185.47 C 1430.25 1168.24 1404.41 1142.22 1386.46 1103.45 C 1364.75 1056.56 1377.64 1012.97 1370.15 963.975 C 1361.17 905.015 1339.89 861.45 1302.53 815.922 C 1334.19 814.008 1370.51 817.263 1401.3 815.358 z" fill="rgb(255,255,255)" transform="translate(0,0)"></path>
<path d="M 1040.89 420.999 L 1236.36 421.112 C 1236.6 452.941 1236.67 484.77 1236.55 516.6 C 1236.54 545.816 1235.54 577.797 1240.89 606.505 C 1255.33 684.082 1304.57 756.79 1371.69 798.403 C 1380.75 804.019 1393.23 809.425 1401.3 815.358 C 1370.51 817.263 1334.19 814.008 1302.53 815.922 C 1299.77 813.255 1296.3 809.352 1293.75 806.477 C 1249.02 756.19 1185.74 722.062 1119.51 710.664 C 1094.26 706.319 1067.23 706.35 1041.05 706.244 C 1040.51 611.163 1040.46 516.08 1040.89 420.999 z" fill="rgb(254,185,19)" transform="translate(0,0)"></path>
<path d="M 561.593 411.404 C 565.54 410.901 576.505 410.762 580.84 410.803 C 653.949 411.997 716.691 463.193 732.529 534.576 C 736.736 552.96 736.436 565.361 738.143 583.6 C 739.834 600.601 743.064 617.414 747.792 633.832 C 761.394 681.014 786.654 724.013 821.243 758.867 C 869.95 807.949 934.55 838.074 1003.46 843.838 C 1070.29 849.578 1106.91 832.429 1168.44 876.065 C 1187.64 889.567 1203.68 907.088 1215.43 927.411 C 1242.03 974.141 1235.47 1004.88 1237.22 1054.88 C 1237.83 1073.11 1240.22 1091.22 1244.35 1108.98 C 1256.82 1161.38 1283.44 1209.35 1321.3 1247.66 C 1368.99 1296.41 1432.05 1327.19 1499.81 1334.81 C 1534.88 1338.67 1590.22 1337.41 1626.97 1337.75 L 1627.13 1509.07 C 1627.17 1543.57 1625.03 1565.88 1598.95 1592.2 C 1567.91 1623.52 1531.11 1618.37 1490.5 1618.23 L 1373.78 1618.02 L 1373.24 1535.64 C 1373.17 1512.83 1373.73 1489.62 1371.12 1466.99 C 1355.85 1336.74 1258.76 1230.98 1130.29 1204.64 C 1057.7 1189.79 1001.76 1214.47 938.739 1162.89 C 901.841 1132.69 881.027 1094.17 878.619 1046.34 C 877.549 1025.1 878.514 1006.27 876.117 984.934 C 861.432 860.667 771.571 758.359 650.236 727.767 C 633.625 723.637 616.727 720.764 599.684 719.171 C 586.809 718.042 573.833 718.256 561.005 717.119 C 531.058 714.454 502.561 703.022 479.076 684.251 C 447.72 659.307 427.668 622.837 423.407 582.997 C 419.035 539.779 430.437 499.858 458.301 466.427 C 484.181 435.247 521.278 415.486 561.593 411.404 z" fill="rgb(255,255,255)" transform="translate(0,0)"></path>
<path d="M 1374.09 420.918 L 1485 420.929 C 1527.11 420.961 1566.12 414.743 1598.8 447.012 C 1611.02 459.074 1619.66 474.281 1623.76 490.951 C 1628.58 511.049 1626.94 554.447 1626.93 576.788 L 1626.84 706.11 L 1588.41 706.081 C 1522.71 706.022 1469 711.296 1418.1 659.486 C 1371.6 612.145 1374.07 568.601 1374.05 508.575 L 1374.09 420.918 z" fill="rgb(254,185,19)" transform="translate(0,0)"></path>
<path d="M 499.729 1441.12 C 549.034 1433.5 595.102 1467.52 602.32 1516.89 C 609.538 1566.25 575.141 1612.04 525.718 1618.86 C 476.862 1625.59 431.712 1591.68 424.577 1542.88 C 417.441 1494.08 450.99 1448.65 499.729 1441.12 z" fill="rgb(254,185,19)" transform="translate(0,0)"></path>
<path d="M 808.512 286.218 C 803.085 283.792 801.217 282.948 808.393 282.61 L 808.512 286.218 z" fill="rgb(56,29,175)" transform="translate(0,0)"></path>
<metadata><recraft-signature>{"signed_by": "recraft", "signature_b64": "KeFF9eoCkcEtbRc6WUMFMEEy7NuZ1WRmoD8BKOGrEmwPkFO25xuQEH5MsMdYLDKJ4tNJvR5JB4nHhY7HXoC3Cg==", "signing_algo": "Ed25519", "generation_timestamp": 1772774590, "identifier": "ea4fdc46-b9d3-4ebb-9225-bfe74c19bd07"}</recraft-signature></metadata></svg>