<svg xmlns="http://www.w3.org/2000/svg" height="1024" preserveAspectRatio="none" style="display: block;" version="1.1" viewBox="0 0 2048 2048" width="1024">
<path d="M 0 0 L 2048 0 L 2048 2048 L 0 2048 L 0 0 z" fill="rgb(255,255,255)" transform="translate(0,0)"></path>
<path d="M 599.937 284.425 C 620.469 283.011 643.789 284.001 664.598 284.009 L 778.391 284.026 L 1138.37 283.993 L 1348.15 283.957 C 1391.9 283.884 1455.16 281.281 1495.99 289.16 C 1556.07 300.599 1611.85 328.298 1657.27 369.242 C 1722.82 428.656 1762.09 511.676 1766.43 600.04 C 1767.29 618.437 1766.87 639.076 1766.89 657.647 L 1766.91 754.014 L 1766.67 1073.32 L 1766.88 1322.81 C 1766.87 1365.7 1767.4 1409.78 1765.49 1452.55 C 1762.22 1525.89 1731.63 1602.63 1681.93 1657.25 C 1622.45 1723.06 1539.33 1762.64 1450.75 1767.32 C 1431.16 1768.43 1406.76 1767.75 1386.75 1767.74 L 1274.33 1767.57 L 968.27 1767.75 L 720.248 1767.32 C 670.335 1767.26 602.328 1770.68 555.032 1761.82 C 496.66 1751.21 442.262 1724.95 397.642 1685.85 C 330.216 1626.37 289.545 1542.28 284.783 1452.49 C 283.502 1430.57 284.131 1404.82 284.132 1382.54 L 284.115 1266.33 L 284.132 901.656 L 284.121 697.092 C 284.093 654.216 281.76 596.39 289.336 555.245 C 300.154 495.899 327.07 440.666 367.144 395.577 C 426.555 328.62 510.516 288.531 599.937 284.425 z" fill="rgb(52,16,199)" transform="translate(0,0)"></path>
<path d="M 1025.25 310.91 L 1026.87 322.711 C 1030.59 328.1 1046.79 393.32 1049.89 404.381 C 1074.04 493.141 1097.55 582.077 1120.4 671.181 C 1146.19 769.976 1160.42 860.034 1239.23 933.006 C 1219.76 946.62 1194.54 960.418 1173.8 973.86 C 1159.11 963.678 1148.19 956.121 1134.74 944.624 C 1076.81 895.111 1048.19 824.746 1036.06 751.126 C 1034.52 741.751 1030.47 721.724 1029.93 712.645 L 1025.06 711.598 C 1005.9 879.619 926.57 986.712 753.016 1016.01 C 735.035 1019.04 718.651 1022.65 700.188 1023.2 C 718.446 1010.64 740.4 998.793 759.182 986.256 C 789.46 965.939 818.564 940.874 841.022 911.969 C 891.4 847.128 906.582 762.191 927.698 684.878 L 980.467 485.682 C 995.03 428.506 1009.52 367.713 1025.25 310.91 z" fill="rgb(255,255,255)" transform="translate(0,0)"></path>
<path d="M 1026.87 322.711 C 1030.59 328.1 1046.79 393.32 1049.89 404.381 C 1074.04 493.141 1097.55 582.077 1120.4 671.181 C 1146.19 769.976 1160.42 860.034 1239.23 933.006 C 1219.76 946.62 1194.54 960.418 1173.8 973.86 C 1159.11 963.678 1148.19 956.121 1134.74 944.624 C 1076.81 895.111 1048.19 824.746 1036.06 751.126 C 1034.52 741.751 1030.47 721.724 1029.93 712.645 L 1025.06 711.598 C 1025.22 707.789 1025.74 704.589 1026.15 700.839 C 1027.59 670.36 1026.89 637.39 1026.84 606.648 L 1026.13 412.749 C 1026.27 390.347 1024.73 342.757 1026.87 322.711 z" fill="rgb(59,83,240)" transform="translate(0,0)"></path>
<path d="M 1026.15 700.839 C 1029.51 705.104 1029.61 706.878 1029.93 712.645 L 1025.06 711.598 C 1025.22 707.789 1025.74 704.589 1026.15 700.839 z" fill="rgb(49,39,228)" transform="translate(0,0)"></path>
<path d="M 696.258 1025.57 C 798.837 1032.47 902.444 1069.17 963.533 1155.26 C 1004.92 1213.59 1019.37 1271.66 1029.24 1340.97 C 1033.57 1334.64 1037.2 1303.65 1038.75 1294.3 C 1051.18 1219.17 1090.17 1134.3 1157.1 1092.92 C 1175.56 1104.09 1206.04 1120.73 1222.68 1132.52 C 1195.02 1165.79 1171.48 1200.61 1157.49 1241.83 C 1140.16 1292.93 1127.88 1346.45 1114.41 1398.61 L 1050.73 1640.78 C 1047.47 1653.37 1031.21 1725.45 1026.66 1732.38 C 1026.24 1731.52 1025.97 1731.18 1025.34 1730.21 L 1025.01 1728.73 C 1024.18 1729.53 1023.38 1730.29 1022.58 1731.11 C 1018.13 1716.14 1014.07 1698.76 1010.01 1683.5 C 1000.74 1649.74 991.85 1615.87 983.345 1581.91 L 939.563 1414.72 C 925.218 1359.44 911.819 1305.75 895.872 1250.9 C 862.074 1134.64 797.705 1081.1 696.258 1025.57 z" fill="rgb(255,255,255)" transform="translate(0,0)"></path>
<path d="M 1157.1 1092.92 C 1175.56 1104.09 1206.04 1120.73 1222.68 1132.52 C 1195.02 1165.79 1171.48 1200.61 1157.49 1241.83 C 1140.16 1292.93 1127.88 1346.45 1114.41 1398.61 L 1050.73 1640.78 C 1047.47 1653.37 1031.21 1725.45 1026.66 1732.38 C 1026.24 1731.52 1025.97 1731.18 1025.34 1730.21 L 1025.01 1728.73 C 1026.01 1706.79 1025.26 1680.15 1025.48 1657.61 L 1027.17 1504 L 1028.96 1412.45 C 1029.62 1386.18 1030.94 1367.6 1029.24 1340.97 C 1033.57 1334.64 1037.2 1303.65 1038.75 1294.3 C 1051.18 1219.17 1090.17 1134.3 1157.1 1092.92 z" fill="rgb(59,83,240)" transform="translate(0,0)"></path>
<path d="M 1449.24 522.775 C 1460.23 565.344 1471.66 607.8 1483.51 650.137 C 1510 745.811 1535.24 841.826 1559.23 938.157 C 1617.01 971.237 1677.88 1003.56 1735.22 1036.88 C 1650.68 1035.82 1569.6 1040.5 1506.11 975.163 C 1482.86 950.915 1466.49 920.897 1458.72 888.209 C 1456.94 880.876 1451.73 847.618 1448 844.616 C 1442.37 887.319 1430.69 925.741 1403.55 959.675 C 1358.86 1015.57 1304.44 1029.04 1236.47 1034.01 C 1221.87 1035.07 1205.47 1035.68 1191.08 1037.37 C 1197.39 1032.81 1205.38 1027.71 1212.07 1023.7 C 1250.88 1000.39 1289.57 971.086 1328.61 948.744 C 1336.09 917.461 1346.59 883.966 1355.48 852.804 L 1401.45 690.644 L 1432.23 581.012 C 1436.9 564.398 1443.23 538.356 1449.24 522.775 z" fill="rgb(59,83,240)" transform="translate(0,0)"></path>
<path d="M 1449.24 522.775 C 1448.81 606.213 1448.92 689.652 1449.55 773.088 C 1449.61 788.712 1449.44 804.336 1449.04 819.954 C 1448.84 826.665 1447.85 838.619 1448 844.616 C 1442.37 887.319 1430.69 925.741 1403.55 959.675 C 1358.86 1015.57 1304.44 1029.04 1236.47 1034.01 C 1221.87 1035.07 1205.47 1035.68 1191.08 1037.37 C 1197.39 1032.81 1205.38 1027.71 1212.07 1023.7 C 1250.88 1000.39 1289.57 971.086 1328.61 948.744 C 1336.09 917.461 1346.59 883.966 1355.48 852.804 L 1401.45 690.644 L 1432.23 581.012 C 1436.9 564.398 1443.23 538.356 1449.24 522.775 z" fill="rgb(255,255,255)" transform="translate(0,0)"></path>
<path d="M 489.701 936.449 C 496.917 912.53 503 888.622 509.754 864.636 C 530.354 791.721 550.111 718.57 569.022 645.198 L 590.451 563.641 C 592.502 555.828 598.205 531.821 600.733 526.135 L 601.659 526.274 L 602.335 530.217 C 607.95 542.469 616.164 570.893 620.154 584.223 L 650.75 689.15 L 692.423 827.914 C 703.296 863.249 715.819 901.21 724.802 936.876 C 706.494 949.487 682.616 961.848 663.102 974.173 C 633.996 942.905 618.611 917.943 608.038 875.029 C 606.563 869.041 604.288 849.052 600.19 847.09 C 592.276 905.258 572.79 956.978 524.366 993.654 C 467.745 1036.54 408.893 1034.69 342.168 1037.22 C 333.878 1037.44 322.265 1038.9 314.947 1038.84 C 323.879 1031.81 348.622 1018.03 359.319 1011.79 L 435.723 967.991 C 452.976 958.259 473.431 947.29 489.701 936.449 z" fill="rgb(255,255,255)" transform="translate(0,0)"></path>
<path d="M 602.335 530.217 C 607.95 542.469 616.164 570.893 620.154 584.223 L 650.75 689.15 L 692.423 827.914 C 703.296 863.249 715.819 901.21 724.802 936.876 C 706.494 949.487 682.616 961.848 663.102 974.173 C 633.996 942.905 618.611 917.943 608.038 875.029 C 606.563 869.041 604.288 849.052 600.19 847.09 C 600.01 843.273 600.51 838.106 600.774 834.208 C 602.377 810.486 602.125 786.831 602.114 763.054 C 601.749 685.442 601.822 607.829 602.335 530.217 z" fill="rgb(59,83,240)" transform="translate(0,0)"></path>
<path d="M 316.131 1041.85 C 325.363 1041.91 344.576 1042.86 352.698 1042.05 C 363.716 1042.83 376.502 1043.49 387.499 1043.43 C 502.542 1042.75 587.303 1114.15 600.169 1231.31 C 604.076 1226.81 606.658 1205.72 608.583 1198.34 C 620.224 1154.43 645.312 1115.25 680.333 1086.3 C 695.594 1095.1 716.445 1109.41 731.004 1116.79 C 718.452 1153.06 707.878 1189.64 696.362 1226.19 L 644.11 1390.98 L 620.616 1466.34 C 614.63 1485.43 608.691 1505.43 601.126 1523.9 L 600.945 1520.75 L 597.861 1516.68 C 596.717 1514.42 590.691 1493.03 589.535 1489.03 L 567.589 1411.13 C 541.287 1321 515.52 1230.71 490.29 1140.28 C 452.627 1119.71 414.177 1097.4 376.696 1076.39 C 364.076 1069.32 325.895 1049.4 316.131 1041.85 z" fill="rgb(255,255,255)" transform="translate(0,0)"></path>
<path d="M 680.333 1086.3 C 695.594 1095.1 716.445 1109.41 731.004 1116.79 C 718.452 1153.06 707.878 1189.64 696.362 1226.19 L 644.11 1390.98 L 620.616 1466.34 C 614.63 1485.43 608.691 1505.43 601.126 1523.9 L 600.945 1520.75 C 601.504 1505.73 601.714 1490.91 601.701 1475.88 C 601.641 1406.43 602.36 1336.97 601.87 1267.53 C 601.784 1255.44 600.559 1243.38 600.169 1231.31 C 604.076 1226.81 606.658 1205.72 608.583 1198.34 C 620.224 1154.43 645.312 1115.25 680.333 1086.3 z" fill="rgb(59,83,240)" transform="translate(0,0)"></path>
<path d="M 1448.13 1229.42 C 1453.31 1223.89 1456.48 1195.13 1459.34 1186.25 C 1491.63 1086.33 1566.1 1045.52 1667.02 1042.23 C 1689.84 1041.49 1713.57 1043.53 1736.2 1041.22 C 1711.39 1057.12 1684.58 1071.15 1658.73 1085.47 L 1559.64 1141.23 C 1553.32 1169.35 1541.08 1207.69 1532.98 1236.45 L 1475.76 1435.88 C 1471.04 1451.93 1456.15 1511.47 1450.13 1522.25 C 1449.58 1528 1448.31 1526 1447.58 1521.84 C 1449.79 1517.8 1448.08 1482.55 1449.16 1473.61 C 1449.87 1467.3 1449.42 1451.37 1449.38 1444.67 L 1449.41 1396.3 C 1449.49 1341.42 1450.35 1283.96 1448.13 1229.42 z" fill="rgb(59,83,240)" transform="translate(0,0)"></path>
<path d="M 1449.16 1473.61 C 1450.53 1488.33 1449.19 1506.66 1450.13 1522.25 C 1449.58 1528 1448.31 1526 1447.58 1521.84 C 1449.79 1517.8 1448.08 1482.55 1449.16 1473.61 z" fill="rgb(236,239,254)" transform="translate(0,0)"></path>
<path d="M 1188.75 1041.06 C 1207.94 1043.59 1230.04 1044.06 1249.53 1045.45 C 1362 1053.46 1431.46 1118.33 1448.13 1229.42 C 1450.35 1283.96 1449.49 1341.42 1449.41 1396.3 L 1449.38 1444.67 C 1449.42 1451.37 1449.87 1467.3 1449.16 1473.61 C 1448.08 1482.55 1449.79 1517.8 1447.58 1521.84 L 1375.58 1289.15 C 1359.36 1235.53 1343.91 1178.19 1326.27 1125.32 C 1314.08 1116.29 1293.03 1104.22 1279.54 1095.98 C 1249.38 1077.5 1219.11 1059.19 1188.75 1041.06 z" fill="rgb(255,255,255)" transform="translate(0,0)"></path>
<path d="M 903.78 548.177 C 904.643 548.724 904.078 548.282 904.981 549.963 C 903.862 556.647 899.883 567.129 897.823 574.444 L 880.511 635.85 C 870.728 670.892 860.76 705.881 850.605 740.817 C 843.127 767.272 834.678 801.345 823.398 825.808 C 810.758 852.604 793.683 877.073 772.893 898.182 C 768.435 885.957 764.748 873.584 760.913 861.152 C 747.717 816.578 732.635 768.862 720.679 724.158 C 724.258 712.664 729.099 701.602 735.113 691.173 C 770.456 628.905 833.661 567.528 903.78 548.177 z" fill="rgb(59,83,240)" transform="translate(0,0)"></path>
<path d="M 776.686 1157.57 C 791.318 1168.49 819.967 1218.34 826.291 1234.8 C 839.817 1270.02 849.322 1308.39 859.846 1344.83 C 875.517 1399.11 893.559 1453.52 908.211 1507.93 C 894.727 1502.91 883.848 1498.14 870.658 1492.28 C 806.769 1461.88 749.952 1400.78 721.845 1335.9 C 726.168 1316.27 735.854 1288.33 742.174 1268.19 L 776.686 1157.57 z" fill="rgb(59,83,240)" transform="translate(0,0)"></path>
<path d="M 1273.42 1166.69 C 1275.61 1169.29 1323.81 1319.2 1329.16 1335.07 C 1293.1 1403.67 1258.77 1451.72 1186.64 1487.63 C 1173.51 1494.68 1158.28 1500.59 1144.08 1504.99 C 1155.81 1459.34 1169.53 1414.26 1182.05 1368.82 C 1202.29 1295.37 1215.42 1221.85 1273.42 1166.69 z" fill="rgb(59,83,240)" transform="translate(0,0)"></path>
<path d="M 1145.51 546.15 C 1146.43 546.366 1147.24 546.534 1148.5 546.946 C 1207.17 566.104 1255.87 603.733 1291.65 653.631 C 1306.14 673.835 1317.49 695.817 1329.01 717.412 C 1324.94 732.341 1318.23 751.063 1313.29 766.286 L 1288.45 843.781 C 1284.72 856.513 1280.02 872.412 1275.09 884.567 C 1222.82 827.501 1211.87 788.973 1192.06 716.892 C 1182.94 684.293 1174.09 651.616 1165.52 618.864 C 1159.7 597.13 1149.34 567.384 1145.51 546.15 z" fill="rgb(59,83,240)" transform="translate(0,0)"></path>
<path d="M 1014.48 969.055 C 1045.75 962.473 1076.4 982.62 1082.76 1013.94 C 1089.12 1045.26 1068.75 1075.76 1037.39 1081.9 C 1006.34 1087.97 976.208 1067.86 969.912 1036.85 C 963.616 1005.85 983.518 975.57 1014.48 969.055 z" fill="rgb(255,255,255)" transform="translate(0,0)"></path>
<path d="M 1442.94 1013.72 C 1459.72 1010.29 1476.1 1021.1 1479.54 1037.87 C 1482.98 1054.64 1472.17 1071.03 1455.39 1074.47 C 1438.62 1077.91 1422.23 1067.1 1418.79 1050.32 C 1415.35 1033.55 1426.17 1017.16 1442.94 1013.72 z" fill="rgb(255,255,255)" transform="translate(0,0)"></path>
<path d="M 599.013 1013.65 C 615.906 1011.34 631.478 1023.15 633.819 1040.04 C 636.159 1056.93 624.383 1072.52 607.499 1074.89 C 590.57 1077.27 574.926 1065.46 572.58 1048.52 C 570.234 1031.59 582.076 1015.97 599.013 1013.65 z" fill="rgb(255,255,255)" transform="translate(0,0)"></path>
<path d="M 1022.58 1731.11 C 1023.38 1730.29 1024.18 1729.53 1025.01 1728.73 L 1025.34 1730.21 C 1025.97 1731.18 1026.24 1731.52 1026.66 1732.38 C 1026.56 1732.98 1026.24 1740.68 1024.58 1739.94 C 1023.84 1739.61 1023.57 1736.7 1023.47 1735.91 C 1023.16 1734.31 1022.87 1732.71 1022.58 1731.11 z" fill="rgb(148,160,235)" transform="translate(0,0)"></path>
<path d="M 1022.58 1731.11 C 1023.38 1730.29 1024.18 1729.53 1025.01 1728.73 L 1025.34 1730.21 C 1024.99 1733.46 1025.12 1733.29 1023.47 1735.91 C 1023.16 1734.31 1022.87 1732.71 1022.58 1731.11 z" fill="rgb(236,239,254)" transform="translate(0,0)"></path>
<path d="M 597.861 1516.68 L 600.945 1520.75 L 601.126 1523.9 C 598.778 1525.39 598.259 1518.31 597.861 1516.68 z" fill="rgb(236,239,254)" transform="translate(0,0)"></path>
<metadata><recraft-signature>{"signed_by": "recraft", "signature_b64": "vgoHGxSbz+eKz8NbbHRZOM2OjDZoF4qjmgy8SEO1J3T3TKp9uhOc+U+I/xZZVmMPdWkTmekYiPlbwYRnEE/QAg==", "signing_algo": "Ed25519", "generation_timestamp": 1772774611, "identifier": "8c9225d3-c182-46c1-b7e7-eb751cc0b40e"}</recraft-signature></metadata></svg>