<svg xmlns="http://www.w3.org/2000/svg" height="1024" preserveAspectRatio="none" style="display: block;" version="1.1" viewBox="0 0 2048 2048" width="1024">
<path d="M 0 0 L 2048 0 L 2048 2048 L 0 2048 L 0 0 z" fill="rgb(255,255,255)" transform="translate(0,0)"></path>
<path d="M 1024.89 231.577 C 1027.83 233.143 1046.01 252.381 1049.96 256.365 L 1158.41 367.468 L 1506.68 721.166 C 1434.06 722.639 1355.85 720.9 1282.71 721.074 C 1281.79 856.425 1281.57 991.781 1282.07 1127.13 C 1313.35 1139.07 1344.76 1150.66 1376.3 1161.92 C 1391.42 1167.3 1416.41 1175.22 1430.4 1181.66 C 1431.14 1265.75 1431.14 1349.84 1430.42 1433.93 C 1473.36 1452.99 1519.4 1471.29 1563.04 1490.08 C 1563.34 1526.2 1563.34 1562.31 1563.04 1598.42 C 1511.3 1658.56 1381.89 1741.21 1309.34 1769.41 C 1289.73 1760.62 1265.37 1751.71 1245.16 1743.63 L 1132.09 1697.43 C 1097.93 1683.84 1059.33 1669.65 1026.12 1654.23 C 1013.92 1658.25 1001.82 1664.3 989.8 1668.96 C 906.042 1701.36 823.193 1738.11 739.282 1769.9 C 660.426 1736.31 583.588 1686.21 518.816 1630.29 C 510.005 1622.68 491.781 1607.05 486.224 1597.75 L 485.979 1490.26 C 528.711 1471.65 579.181 1451 622.797 1434.1 L 622.956 1182.27 C 644.712 1173.17 668.649 1165.35 690.827 1157.16 C 717.363 1147.36 743.941 1137.34 770.613 1127.95 C 772.15 1041.7 770.07 954.788 770.786 868.485 C 771.192 819.58 771.236 770.073 770.558 721.175 C 749.703 720.566 725.544 721.276 704.383 721.315 C 651.729 721.546 599.074 721.41 546.422 720.906 C 559.052 710.391 583.12 682.921 596.237 669.108 L 699.024 561.601 L 1024.89 231.577 z" fill="rgb(43,35,115)" transform="translate(0,0)"></path>
<path d="M 1025.11 1409.28 C 1036.37 1413.07 1055.26 1421.47 1066.9 1426.13 L 1155.01 1461.45 C 1247.22 1499.11 1339.64 1536.25 1432.26 1572.86 C 1432.68 1608.75 1432.57 1646.07 1432.24 1681.95 C 1421.55 1679.03 1401.52 1670.07 1390.82 1665.63 L 1320.54 1636.57 C 1258.86 1611.03 1195.31 1586.7 1134.19 1560.45 C 1108.39 1549.34 1082.39 1538.7 1056.21 1528.54 C 1049.28 1525.79 1031.84 1518.32 1025.73 1517.03 C 1009.52 1522.07 982.859 1533.46 966.974 1540.04 L 894.048 1569.8 L 617.923 1683.04 C 617.951 1646.73 617.538 1609.31 618.386 1573.09 C 638.414 1564.29 660.044 1556.13 680.436 1547.95 L 785.537 1505.95 L 1025.11 1409.28 z" fill="rgb(255,255,255)" transform="translate(0,0)"></path>
<path d="M 1025.38 1166.91 C 1033.87 1167.22 1121.05 1202.84 1133.23 1207.43 C 1171.26 1221.35 1209.18 1235.57 1247 1250.08 C 1264.96 1256.85 1286.63 1264.21 1303.98 1271.86 C 1304.36 1309 1304.39 1346.14 1304.06 1383.27 C 1288.6 1376.22 1270.85 1369.92 1254.87 1363.62 L 1189.24 1337.19 L 1027.26 1271.44 C 1022.76 1269.45 937.084 1306.21 925.579 1310.94 L 748.553 1382.57 C 747.371 1346.9 747.792 1307.57 748.249 1271.78 C 840.389 1236.2 932.769 1201.24 1025.38 1166.91 z" fill="rgb(255,255,255)" transform="translate(0,0)"></path>
<path d="M 1025.36 684.98 C 1033.26 687.178 1041.23 689.532 1049 692.159 C 1083.65 703.877 1119.29 713.846 1153.81 725.807 C 1154.16 762.281 1153.92 799.993 1153.57 836.466 C 1113.5 822.983 1065.14 807.163 1025.96 792.059 C 1014.46 796.904 996.63 802.207 984.172 806.426 C 955.138 816.284 926.051 825.984 896.911 835.524 C 896.124 798.975 895.896 762.415 896.227 725.859 C 937.907 713.35 984.278 699.134 1025.36 684.98 z" fill="rgb(255,255,255)" transform="translate(0,0)"></path>
<path d="M 1023.81 414.61 C 1026.68 415.602 1029.35 417.914 1031.46 420.109 C 1094.59 485.87 1161.8 548.058 1225.07 613.635 C 1181.06 598.329 1134.73 585.16 1090.44 570.346 C 1069.75 563.427 1047.7 557.252 1027.46 549.329 C 1012.28 552.96 982.576 563.283 967.034 568.447 C 919.469 584.252 873.161 599.724 825.263 614.617 C 832.611 605.085 846.38 592.658 855.38 583.764 L 906.39 533.086 C 945.833 494.094 984.318 452.972 1023.81 414.61 z" fill="rgb(255,255,255)" transform="translate(0,0)"></path>
<path d="M 1023.77 928.177 C 1030.64 926.842 1137.69 964.194 1153.51 969.342 C 1153.64 1003.34 1154.82 1045.08 1153.15 1078.7 L 1077.7 1048.81 C 1061.45 1042.4 1042.53 1035.7 1027.13 1028.24 C 1009.82 1033.59 985.328 1044.72 968.008 1051.49 C 944.326 1060.74 920.38 1070.04 896.779 1079.45 C 896.099 1044.17 895.513 1003.37 896.789 968.189 C 938.261 955.43 983.015 939.898 1023.77 928.177 z" fill="rgb(255,255,255)" transform="translate(0,0)"></path>
<path d="M 1187.2 298.684 C 1185.85 297.373 1180.69 292.991 1180.38 291.577 C 1180.32 291.304 1180.41 291.022 1180.6 290.822 C 1181.25 290.162 1186.63 291.288 1187.36 291.392 C 1403.65 340.871 1565.76 454.57 1684.13 642.923 C 1790.49 815.811 1824.43 1023.65 1778.59 1221.39 C 1753.2 1331.41 1702.93 1429.49 1634.26 1518.55 C 1634.12 1494.52 1633.78 1470.5 1633.26 1446.49 C 1616.28 1438.7 1599.21 1431.12 1582.05 1423.74 C 1572.81 1419.81 1560.49 1415.2 1551.92 1410.97 C 1574.56 1375.86 1589.2 1354.36 1607.73 1315.44 C 1666.45 1190.06 1682.75 1048.96 1654.17 913.493 C 1629.66 797.27 1573.12 690.225 1490.94 604.469 C 1457.39 569.848 1421.54 540.906 1386.89 505.648 L 1187.2 298.684 z" fill="rgb(43,35,115)" transform="translate(0,0)"></path>
<path d="M 1187.2 298.684 C 1185.85 297.373 1180.69 292.991 1180.38 291.577 C 1180.32 291.304 1180.41 291.022 1180.6 290.822 C 1181.25 290.162 1186.63 291.288 1187.36 291.392 L 1187.2 298.684 z" fill="rgb(59,52,131)" transform="translate(0,0)"></path>
<path d="M 410.709 1511.94 C 337.211 1408.84 292.674 1315.03 267.923 1189.64 C 230.109 989.221 272.979 781.977 387.204 613.008 C 500.639 444.89 676.063 328.565 875.072 289.499 C 867.173 298.582 856.968 308.359 848.478 317.289 C 827.742 339.252 806.812 361.031 785.692 382.624 C 736.006 434.115 685.997 485.293 635.668 536.155 C 612.947 558.717 587.757 577.702 563.823 602.361 C 472.887 696.049 417.826 810.397 394.591 938.536 C 365.688 1103.7 403.111 1273.59 498.732 1411.32 C 472.814 1423.88 441.89 1433.86 414.976 1445.58 L 415.013 1503.01 C 414.991 1509.83 417.461 1520.71 410.709 1511.94 z" fill="rgb(43,35,115)" transform="translate(0,0)"></path>
<path d="M 410.709 1511.94 C 413.187 1508.59 413.75 1506.83 415.013 1503.01 C 414.991 1509.83 417.461 1520.71 410.709 1511.94 z" fill="rgb(59,52,131)" transform="translate(0,0)"></path>
<metadata><recraft-signature>{"signed_by": "recraft", "signature_b64": "iE+QbjnKRuD8TrKkOVn3ZY4FFsVP2grd11Vl2nHEVRTGthJpQOCyOgGsLo+4n11L/4PcNH6sjyN0Dlect+L0DQ==", "signing_algo": "Ed25519", "generation_timestamp": 1772774714, "identifier": "2d7626e3-4bf1-4c81-bf56-f6e163f4273a"}</recraft-signature></metadata></svg>