<svg xmlns="http://www.w3.org/2000/svg" height="1024" preserveAspectRatio="none" style="display: block;" version="1.1" viewBox="0 0 2048 2048" width="1024">
<path d="M 0 0 L 2048 0 L 2048 2048 L 0 2048 L 0 0 z" fill="rgb(255,255,255)" transform="translate(0,0)"></path>
<path d="M 814.788 295.178 L 816.356 295.372 C 817.7 298.154 817.222 407.172 817.237 419.217 C 713.515 459.363 645.548 499.409 566.213 579.232 C 468.945 679.049 407.048 807.979 389.989 946.304 C 387.711 965.152 385.277 989.176 385.327 1008.08 C 461.091 975.456 537.214 935.164 613.584 902.912 C 612.091 915.854 612.98 952.384 612.996 966.428 L 613.097 1091.54 L 613.036 1518.29 C 634.763 1535.2 654.366 1549.32 676.94 1565.11 L 677.659 680.811 C 691.399 673.609 714.116 664.202 728.941 657.489 L 826.697 612.657 L 945.329 557.722 C 969.955 546.28 1001.74 530.676 1026.69 521.153 C 1051.17 533.222 1080.64 545.335 1105.92 556.93 L 1261.03 629.051 C 1296.76 645.556 1335.07 662.243 1370.23 679.74 L 1370.98 1563.6 C 1393.04 1550.02 1413.22 1536.12 1434.41 1521.34 L 1434.51 902.85 C 1456.94 911.91 1478.9 923.478 1500.91 932.951 C 1556.4 956.843 1611.5 984.89 1666.99 1008.45 C 1666.52 913.605 1636.21 812.109 1592.85 728.47 L 1592.11 727.003 C 1520.94 586.651 1382.42 468.866 1233 419.854 L 1233.08 295.306 C 1285.73 310.328 1336.59 331.037 1384.76 357.069 C 1557.27 450.357 1696.68 615.645 1752.87 804.193 C 1812.92 998.999 1791.38 1209.83 1693.17 1388.47 C 1594.49 1567.48 1429.49 1700.6 1233.67 1759.2 C 1076.32 1805.09 908.26 1798.05 755.307 1739.15 C 721.383 1726.05 692.433 1711.71 660.417 1694.37 C 484.508 1597.9 353.742 1435.95 296.506 1243.67 C 238.784 1050.63 260.2 842.555 356.033 665.319 C 453.486 485.709 618.636 352.459 814.788 295.178 z" fill="rgb(37,29,125)" transform="translate(0,0)"></path>
<path d="M 1080.83 1243.51 C 1104.07 1250.79 1128.3 1260.21 1151.43 1268.31 C 1170.08 1275.24 1189.88 1281.17 1207.7 1289.91 C 1230.11 1300.9 1250.34 1332.52 1254.9 1356.5 C 1259.24 1379.41 1257.67 1410.2 1257.53 1433.89 L 1257.04 1547.78 C 1253.12 1548.25 1097.32 1493.08 1080.97 1487.94 L 1080.83 1243.51 z" fill="rgb(255,255,255)" transform="translate(0,0)"></path>
<path d="M 967.669 1243.02 C 968.05 1243.51 968.43 1243.99 968.811 1244.48 C 969.429 1308.92 968.796 1428.26 968.555 1489.19 C 950.791 1494.36 926.397 1503.66 908.524 1509.93 C 870.858 1523.28 833.094 1536.35 795.234 1549.14 C 793.876 1543.2 794.531 1489.06 794.546 1478.35 L 794.555 1409.71 C 794.563 1396.68 794.15 1380.07 795.278 1367.41 C 796.2 1357.21 798.717 1347.21 802.738 1337.79 C 821.229 1293.46 851.883 1286.72 892.816 1271.39 C 917.246 1262.24 943.586 1252.94 967.669 1243.02 z" fill="rgb(255,255,255)" transform="translate(0,0)"></path>
<path d="M 1081.06 672.213 C 1108.83 684.888 1137.52 696.8 1165.33 709.453 C 1178.73 715.548 1199.47 723.581 1211.72 730.891 C 1217.89 734.563 1223.55 739.026 1228.57 744.165 C 1260.26 776.506 1257.89 814.149 1257.74 855.017 L 1257.47 918.541 C 1249.05 917.89 1099.16 849.93 1080.98 841.711 L 1081.06 672.213 z" fill="rgb(255,255,255)" transform="translate(0,0)"></path>
<path d="M 967.463 673.965 L 968.323 674.135 C 969.925 678.082 968.954 825.147 968.957 841.44 L 796.268 919.297 L 794.747 917.497 C 793.885 905.017 794.012 882.413 794.31 869.303 C 795.489 840.296 790.634 811.29 799.98 783.285 C 815.205 737.667 846.656 726.457 887.229 709.264 C 913.205 698.257 942.045 686.39 967.463 673.965 z" fill="rgb(255,255,255)" transform="translate(0,0)"></path>
<path d="M 1081.01 962.435 C 1106.55 971.756 1131.98 981.377 1157.29 991.298 C 1171.89 996.884 1195.59 1005.26 1208.57 1012.34 C 1216.11 1016.42 1223.01 1021.58 1229.05 1027.67 C 1259.96 1059 1257.88 1096.16 1257.85 1136.09 L 1257.64 1195.99 C 1253.54 1194.94 1249.04 1192.92 1245.14 1191.23 C 1198.8 1171.22 1152.15 1151.88 1105.73 1132.03 C 1097.73 1128.62 1089.28 1124.65 1081.01 1122.19 L 1081.01 962.435 z" fill="rgb(255,255,255)" transform="translate(0,0)"></path>
<path d="M 968.029 962.166 C 969.866 964.376 968.967 1106.91 968.953 1120.54 L 795.307 1198.83 C 794.149 1189.41 794.177 1162.2 794.258 1151.73 C 794.406 1132.77 793.287 1104.66 795.461 1086.66 C 796.525 1078.11 798.651 1069.73 801.789 1061.7 C 818.469 1018.64 846.602 1010.87 885.915 995.185 C 912.841 984.446 941.706 973.946 968.029 962.166 z" fill="rgb(255,255,255)" transform="translate(0,0)"></path>
<path d="M 1549.91 1074.14 L 1658.37 1123.74 C 1651.78 1186.84 1621.42 1274.73 1590.67 1330.56 C 1580.12 1351.01 1562.68 1379.41 1550.06 1398.58 C 1549.14 1358.3 1549.85 1316.11 1549.91 1275.72 L 1549.91 1074.14 z" fill="rgb(255,255,255)" transform="translate(0,0)"></path>
<path d="M 500.191 1073.16 C 502.036 1075.31 501.188 1367.22 501.191 1395.61 C 486.016 1372.68 474.571 1354.21 461.111 1330.06 C 433.867 1279.17 413.664 1224.82 401.056 1168.5 C 397.833 1154.59 393.738 1136.69 392.657 1122.57 C 425.905 1108.68 467.303 1089.37 500.191 1073.16 z" fill="rgb(255,255,255)" transform="translate(0,0)"></path>
<path d="M 978.824 185.014 L 1072.57 184.855 C 1071.92 214.54 1072.21 245.13 1072.3 274.835 C 1101.64 275.761 1134.22 275.122 1163.7 275.098 C 1163.54 306.175 1163.66 337.253 1164.05 368.328 C 1133.96 367.954 1102.47 367.477 1072.49 368.224 C 1072.05 397.25 1072.67 427.963 1072.77 457.078 L 978.58 456.886 L 978.287 368.85 C 947.505 368.878 916.808 368.198 886.021 368.525 L 886.063 275.245 C 916.672 275.638 948.199 275.173 978.877 275.088 L 978.824 185.014 z" fill="rgb(37,29,125)" transform="translate(0,0)"></path>
<metadata><recraft-signature>{"signed_by": "recraft", "signature_b64": "DS7H9HXpCwjLBdXeP7+r1R0yfJOnG45H+mIdC1b1Bq0qVBmyXmE/hf8uOmgvlA/IYPEPcHnclKY3XfYEfJ38DQ==", "signing_algo": "Ed25519", "generation_timestamp": 1772774756, "identifier": "f2735500-5406-43be-aa6c-bf5972b061ce"}</recraft-signature></metadata></svg>