<svg xmlns="http://www.w3.org/2000/svg" height="1024" preserveAspectRatio="none" style="display: block;" version="1.1" viewBox="0 0 2048 2048" width="1024">
<path d="M 0 0 L 2048 0 L 2048 2048 L 0 2048 L 0 0 z" fill="rgb(255,255,255)" transform="translate(0,0)"></path>
<path d="M 999.067 464.688 C 1308.11 450.701 1569.96 689.941 1583.85 998.989 C 1597.75 1308.04 1358.43 1569.81 1049.38 1583.62 C 740.456 1597.42 478.812 1358.22 464.921 1049.3 C 451.03 740.382 690.15 478.668 999.067 464.688 z" fill="rgb(248,13,44)" transform="translate(0,0)"></path>
<path d="M 1001.96 529.417 C 1073.13 521.918 1155.65 547.281 1212.99 589.73 C 1279.09 638.752 1322.93 712.099 1334.8 793.534 C 1346.43 874.341 1325.58 956.466 1276.82 1021.94 C 1246.08 1063.08 1190.81 1111.26 1138.98 1118.88 C 1123.75 1110.05 1112.83 1090.83 1109 1074.07 C 1105.99 1060.93 1106.88 1041.15 1106.89 1027.29 L 1107.04 931.838 C 1107.07 919.197 1107.83 893.863 1106.53 882.079 C 1105.56 872.732 1103.02 863.614 1099.01 855.112 C 1087.92 831.601 1070.65 819.02 1046.79 810.603 C 1028.11 806.482 1007.83 806.476 990.8 815.676 C 940.073 843.082 943.388 879.594 943.605 927.322 L 943.959 999.256 C 944.121 1038.25 951.472 1098.59 908.637 1119.26 C 874.398 1110.09 845.691 1093.54 818.517 1070.81 C 757.706 1019.45 719.708 946.104 712.836 866.807 C 705.658 784.394 731.127 702.458 783.761 638.638 C 840.482 571.042 914.855 536.984 1001.96 529.417 z" fill="rgb(255,255,255)" transform="translate(0,0)"></path>
<path d="M 1022.17 637.029 C 1051.49 635.417 1076.53 657.954 1078 687.279 C 1079.47 716.605 1056.81 741.536 1027.48 742.867 C 998.346 744.189 973.621 721.719 972.159 692.591 C 970.697 663.464 993.049 638.631 1022.17 637.029 z" fill="rgb(248,13,44)" transform="translate(0,0)"></path>
<path d="M 720.27 1366.38 C 709.656 1359.29 698.785 1350.12 688.934 1341.96 C 524.31 1205.67 485.182 967.5 580.671 779.863 C 636.525 668.493 734.465 583.978 852.811 545.026 L 853.875 546.831 C 757.81 580.967 673.25 656.905 622.744 744.912 C 501.86 955.555 569.236 1233.87 785.549 1352.95 C 762.854 1361.51 744.532 1364.54 720.27 1366.38 z" fill="rgb(255,255,255)" transform="translate(0,0)"></path>
<path d="M 1193.68 544.01 C 1312.47 582.018 1411.18 665.875 1467.88 776.965 C 1558.01 950.46 1529.4 1168.95 1393.93 1310.34 C 1374.94 1330.17 1351.03 1351.65 1328.19 1366.85 C 1302.49 1363.34 1288.25 1360.22 1263.44 1352.88 C 1357.74 1304.32 1433.08 1208.19 1465.26 1107.73 C 1501.75 993.772 1491.44 869.984 1436.61 763.631 C 1385.69 664.641 1298.01 582.336 1192.12 545.791 L 1193.68 544.01 z" fill="rgb(255,255,255)" transform="translate(0,0)"></path>
<path d="M 1159.92 545.284 C 1179.7 552.698 1195.59 558.618 1214.43 568.192 C 1294.91 609.109 1359.05 676.226 1396.28 758.481 C 1438.36 850.857 1445.33 959.789 1409.35 1055.86 C 1394.88 1094.49 1359.12 1160.74 1321.71 1183.57 C 1307.22 1192.42 1274.17 1188.84 1257.2 1186.93 C 1269.63 1178.82 1279.67 1169.38 1290.56 1159.35 C 1343.91 1110.17 1377.87 1043.27 1393.06 972.594 C 1429.41 803.442 1332.57 618.172 1172.19 552.746 C 1167.71 550.917 1162.38 548.378 1157.81 547.077 L 1159.92 545.284 z" fill="rgb(255,255,255)" transform="translate(0,0)"></path>
<path d="M 792.85 1187.53 C 769.767 1189.56 746.54 1191.91 724.528 1182.23 C 714.736 1177.93 706.604 1167.86 699.809 1159.65 C 673.926 1128.09 653.684 1092.3 639.973 1053.85 C 604.999 957.763 611.917 848.157 655.012 755.83 C 700.472 658.071 783.366 582.723 885.007 546.772 L 885 549.364 C 876.826 551.486 857.419 561.134 850.002 565.153 C 802.614 590.366 761.213 625.491 728.618 668.139 C 667.375 749.05 640.424 850.807 653.588 951.424 C 663.562 1025.2 696.351 1095.28 747.9 1149.53 C 761.391 1163.73 777.312 1175.66 792.85 1187.53 z" fill="rgb(255,255,255)" transform="translate(0,0)"></path>
<path d="M 939.802 1241.07 L 943.015 1242.18 C 942.703 1273.38 935.023 1304.07 920.6 1331.73 C 898.841 1374.47 860.668 1406.54 814.822 1420.61 C 746.122 1441.91 678.615 1425.96 616.702 1393.69 C 692.101 1393.37 772.054 1382.88 838.962 1345.54 C 880.029 1322.63 921.611 1285.32 939.802 1241.07 z" fill="rgb(255,255,255)" transform="translate(0,0)"></path>
<path d="M 1106.24 1236.9 L 1108.54 1234.27 C 1108.89 1235.59 1109.16 1236.7 1109.46 1238.02 C 1119.68 1264.47 1132.39 1281.68 1152.19 1301.82 C 1222.28 1373.17 1336.67 1395.02 1434.08 1393.92 C 1348.16 1440.56 1236.62 1448.83 1162.03 1376.58 C 1125.86 1341.55 1107.67 1288.44 1106.98 1238.83 L 1106.24 1236.9 z" fill="rgb(255,255,255)" transform="translate(0,0)"></path>
<path d="M 1106.24 1236.9 L 1108.54 1234.27 C 1108.89 1235.59 1109.16 1236.7 1109.46 1238.02 L 1106.98 1238.83 L 1106.24 1236.9 z" fill="rgb(254,238,248)" transform="translate(0,0)"></path>
<path d="M 941.672 1102 C 941.766 1101.37 941.859 1100.74 941.953 1100.12 L 942.768 1098.93 L 943.131 1099.64 L 942.736 1098.78 C 945.533 1098.07 943.308 1114.77 944.038 1117.2 C 944.068 1117.29 943.881 1120.95 943.865 1121.31 C 944.781 1165.62 951.094 1214.07 918.272 1249.77 C 911.4 1257.24 902.092 1260.9 892.02 1260.44 C 835.453 1257.83 778.999 1230.29 736.281 1194.93 L 739.729 1192.34 C 806.346 1213.81 894.029 1178.94 931.363 1120.79 C 935.323 1114.63 938.505 1108.59 941.672 1102 z" fill="rgb(255,255,255)" transform="translate(0,0)"></path>
<path d="M 941.672 1102 C 941.766 1101.37 941.859 1100.74 941.953 1100.12 L 942.768 1098.93 L 943.131 1099.64 L 942.736 1098.78 C 945.533 1098.07 943.308 1114.77 944.038 1117.2 C 944.068 1117.29 943.881 1120.95 943.865 1121.31 C 942.67 1114.28 944.02 1106.53 941.672 1102 z" fill="rgb(250,164,185)" transform="translate(0,0)"></path>
<path d="M 1106.97 1106.51 L 1109.91 1104.79 C 1113.35 1111.93 1116.69 1118.32 1121.03 1124.98 C 1157.7 1181.33 1258.25 1217.7 1320.81 1188.17 C 1309.54 1197.86 1295.35 1210.18 1282.29 1218.53 C 1247.07 1241.06 1195.96 1260.6 1153.76 1261.01 C 1144.4 1261.1 1134.42 1254.51 1128.82 1247.59 C 1105.57 1218.86 1106.87 1187.77 1106.89 1154.01 L 1106.97 1106.51 z" fill="rgb(255,255,255)" transform="translate(0,0)"></path>
<path d="M 898.476 542.393 C 899.697 542.037 900.806 541.675 902.013 541.305 C 904.515 540.559 907.032 539.862 909.562 539.215 C 911.863 538.616 925.38 534.743 926.574 535.813 C 926.538 536.704 922.028 537.575 921.525 537.709 C 913.643 539.808 905.917 542.816 898.026 544.831 L 898.476 542.393 z" fill="rgb(248,80,109)" transform="translate(0,0)"></path>
<path d="M 1138.01 538.175 C 1144.64 540.724 1152.98 543.073 1159.92 545.284 L 1157.81 547.077 C 1151.47 544.584 1142.6 541.551 1136.04 539.897 L 1138.01 538.175 z" fill="rgb(250,164,185)" transform="translate(0,0)"></path>
<path d="M 1180.83 541.955 C 1178.03 541.122 1158.18 535.643 1157.61 534.682 C 1160.23 533.679 1178.74 538.896 1181.9 540.464 L 1180.83 541.955 z" fill="rgb(248,80,109)" transform="translate(0,0)"></path>
<path d="M 868.147 540.186 C 871.523 539.273 885.206 535.612 888.298 535.923 C 888.72 537.876 879.977 539.153 877.972 539.751 L 873.972 540.849 C 872.839 541.159 871.895 541.307 870.736 541.528 L 870.03 541.668 L 868.147 540.186 z" fill="rgb(248,80,109)" transform="translate(0,0)"></path>
<path d="M 868.147 540.186 L 870.03 541.668 C 868.769 542.07 867.501 542.453 866.228 542.816 C 862.032 544.047 858.116 545.634 853.875 546.831 L 852.811 545.026 C 857.289 543.458 860.316 542.641 864.707 541.255 C 865.85 540.886 866.996 540.529 868.147 540.186 z" fill="rgb(250,164,185)" transform="translate(0,0)"></path>
<path d="M 1136.04 539.897 C 1134.55 539.516 1133.03 539.271 1131.55 538.869 L 1127.54 537.799 C 1125.37 537.215 1121.79 536.617 1120 535.503 C 1122.78 534.218 1134.57 537.348 1138.01 538.175 L 1136.04 539.897 z" fill="rgb(248,80,109)" transform="translate(0,0)"></path>
<path d="M 898.476 542.393 L 898.026 544.831 C 893.694 546.365 889.355 547.776 885 549.364 L 885.007 546.772 C 888.665 545.743 894.976 543.726 898.476 542.393 z" fill="rgb(250,164,185)" transform="translate(0,0)"></path>
<path d="M 941.484 1236.15 C 941.84 1234.77 942.221 1232.71 943.213 1231.64 L 943.447 1231.57 C 944.508 1232.21 943.742 1239.35 943.705 1240.29 L 943.015 1242.18 L 939.802 1241.07 C 940.377 1239.44 940.938 1237.8 941.484 1236.15 z" fill="rgb(250,164,185)" transform="translate(0,0)"></path>
<path d="M 941.484 1236.15 C 942.236 1237.52 942.976 1238.9 943.705 1240.29 L 943.015 1242.18 L 939.802 1241.07 C 940.377 1239.44 940.938 1237.8 941.484 1236.15 z" fill="rgb(254,238,248)" transform="translate(0,0)"></path>
<path d="M 1181.9 540.464 C 1186.34 541.66 1189.37 542.509 1193.68 544.01 L 1192.12 545.791 C 1188.28 544.755 1184.59 543.233 1180.83 541.955 L 1181.9 540.464 z" fill="rgb(250,164,185)" transform="translate(0,0)"></path>
<path d="M 736.281 1194.93 C 731.395 1190.36 730.264 1188.58 738.435 1191.84 L 739.729 1192.34 L 736.281 1194.93 z" fill="rgb(254,238,248)" transform="translate(0,0)"></path>
<path d="M 1106.97 1106.51 C 1106.91 1104.9 1106.26 1098.72 1106.81 1097.71 C 1107.1 1097.63 1106.94 1097.63 1107.27 1097.73 L 1107.09 1097.94 L 1108.3 1099.64 L 1108.15 1099.21 C 1108.84 1101.08 1109.42 1102.85 1109.91 1104.79 L 1106.97 1106.51 z" fill="rgb(254,238,248)" transform="translate(0,0)"></path>
<path d="M 1106.24 1236.9 C 1106.18 1235.75 1105.52 1229.53 1106.6 1228.8 C 1107.94 1229.26 1108.34 1233.22 1108.54 1234.27 L 1106.24 1236.9 z" fill="rgb(250,164,185)" transform="translate(0,0)"></path>
<metadata><recraft-signature>{"signed_by": "recraft", "signature_b64": "76HsE65t3PbzuhyWY4DFKIEffhYzHqbXEMmQN1xSCcLaQkvJs/CnM8RoxXOWVhyCzuwAVdNsC6WlgQ2kBWrPCA==", "signing_algo": "Ed25519", "generation_timestamp": 1772774796, "identifier": "46c57a11-6356-4835-a707-6803b1a404eb"}</recraft-signature></metadata></svg>