<svg xmlns="http://www.w3.org/2000/svg" height="1024" preserveAspectRatio="none" style="display: block;" version="1.1" viewBox="0 0 2048 2048" width="1024">
<path d="M 1004.53 249.107 C 1433.24 237.963 1789.86 576.379 1801.17 1005.09 C 1812.48 1433.79 1474.2 1790.54 1045.5 1802.02 C 616.561 1813.51 259.572 1475 248.255 1046.06 C 236.938 617.115 575.581 260.257 1004.53 249.107 z" fill="rgb(21,21,21)" transform="translate(0,0)"></path>
<path d="M 860.584 482.407 C 869.37 481.012 892.4 482.221 901.329 483.601 C 955.454 491.965 991.546 514.151 1024.07 556.782 C 1041.02 536.294 1053.46 522.848 1076.54 508.809 C 1119.33 482.941 1170.63 475.118 1219.18 487.058 C 1257.68 496.54 1295.57 519.059 1320.06 550.401 C 1326.01 556.297 1336.97 577.36 1343.15 581.2 C 1390.34 610.516 1421.17 636.006 1449.48 685.03 C 1486.49 749.121 1499.66 816.164 1481.55 889.122 C 1494.08 908.19 1507.01 926.514 1518.55 946.222 C 1556.18 1010.52 1568.61 1087.49 1548.61 1159.91 C 1530.09 1226.28 1490.2 1284.71 1435.13 1326.13 C 1417.22 1339.59 1401.43 1348.7 1381.96 1359.65 C 1345.31 1438.89 1293.81 1498.28 1217.47 1541.92 C 1213.01 1544.44 1208.49 1546.85 1203.91 1549.14 C 1110.75 1596.08 1002.82 1604.28 903.64 1571.97 C 814.493 1542.87 746.754 1491.23 694.742 1412.23 C 684.388 1396.5 675.021 1376.15 666.337 1359.06 C 645.106 1347.07 625.075 1335.67 605.853 1320.49 C 542.878 1270.73 501.635 1198.14 492.963 1117.94 C 486.135 1052.76 501.543 987.186 536.684 931.868 C 546.373 916.513 556.075 904.67 567.412 890.563 C 564.462 878.1 562.333 865.457 561.037 852.716 C 552.04 763.341 585.759 682.675 652.428 623.396 C 660.413 616.425 668.824 609.957 677.611 604.029 C 682.295 600.905 701.857 588.84 704.06 585.357 C 741.266 526.519 786.941 489.597 860.584 482.407 z" fill="rgb(227,175,87)" transform="translate(0,0)"></path>
<path d="M 1074.87 794.173 L 1074.75 729.829 C 1074.71 703.409 1073 683.957 1079.32 657.013 C 1099.12 572.583 1199.17 543.494 1252.49 616.031 C 1259.31 625.315 1264.07 637.113 1269.93 647.361 C 1382.02 701.315 1423.39 801.111 1380.9 918.377 C 1413.11 946.965 1435.96 970.495 1452.91 1012.03 C 1472.74 1060.61 1470.88 1119.08 1450.39 1167.31 C 1432.1 1210.37 1393.33 1250.03 1353.94 1274.83 C 1339.7 1283.79 1320 1291.76 1304.11 1298 C 1301.75 1306.77 1293.37 1327.54 1289.48 1336.06 C 1258.14 1402.99 1201.77 1454.93 1132.51 1480.7 C 1054.95 1509.35 976.352 1507.11 900.473 1472.91 C 848.637 1449.54 802.36 1409.42 773.128 1360.42 C 761.6 1341.09 752.837 1318.47 745.108 1297.29 C 699.039 1280.53 670.818 1263.46 637.603 1227.07 C 599.565 1186.07 579.932 1131.32 583.257 1075.49 C 586.936 1005.18 617.857 962.994 668.031 918.004 C 635.824 830.344 650.413 742.253 725.125 681.947 C 743.259 667.31 759.471 658.202 779.671 647.017 C 797.735 605.738 820.987 580.35 867.798 575.406 C 925.099 570.498 967.454 620.874 972.381 674.553 C 973.842 690.47 973.237 707.178 973.23 723.202 L 973.145 794.002 C 955.636 798.032 938.537 805.035 922.441 812.902 C 757.584 893.473 746.353 1113.62 895.707 1218.11 C 894.468 1288.79 896.086 1363.84 895.881 1435.14 L 998.867 1434.96 C 998.381 1343.18 998.413 1251.41 998.964 1159.63 C 983.11 1156.61 967.926 1151.63 953.946 1143.47 C 922.507 1125.36 899.509 1095.54 889.973 1060.53 C 880.288 1023.52 884.364 984.029 903.903 950.876 C 922.641 919.148 953.248 896.193 988.954 887.087 C 1064.52 867.544 1141.92 912.35 1160.19 988.708 C 1169.04 1025.5 1162.9 1064.29 1143.11 1096.55 C 1121.36 1131.65 1089.39 1150.92 1049.95 1160.09 L 1050.34 1435.01 C 1084.39 1435.15 1118.44 1435.08 1152.48 1434.81 C 1151.19 1364.33 1152.69 1288.35 1152.88 1217.56 C 1169.52 1206.5 1184.61 1193.28 1197.78 1178.25 C 1240.71 1130.65 1262.35 1067.58 1257.68 1003.65 C 1253.53 941.254 1223.41 886.326 1176.81 845.469 C 1143.64 819.467 1116.65 804.278 1074.87 794.173 z" fill="rgb(21,21,21)" transform="translate(0,0)"></path>
<path d="M 987.071 320.5 C 1074.39 313.517 1204.24 332.441 1283.13 372.743 C 1295.98 379.307 1305.74 389.469 1309.49 403.884 C 1312.75 416.206 1310.79 429.324 1304.09 440.162 C 1290.1 463.051 1265.65 465.944 1242.5 455.356 C 1135.22 406.296 1005.94 398.787 892.219 425.049 C 732.099 462.452 593.152 561.412 505.46 700.508 C 487.545 731.241 473.764 755.264 459.755 788.344 C 453.449 803.367 447.655 818.6 442.384 834.017 C 436.996 850.145 433.708 867.772 427.294 883.448 C 409.054 928.02 343.198 916.981 340.09 868.99 C 339.338 857.373 348.481 831.738 352.176 819.648 C 382.11 721.488 433.324 631.137 502.169 555.032 C 626.374 415.736 800.759 331.391 987.071 320.5 z" fill="rgb(227,175,87)" transform="translate(0,0)"></path>
<path d="M 360.22 982.206 C 369.28 981.483 378.361 983.325 386.423 987.523 C 412.379 1000.74 411.119 1023.49 411.909 1048.3 C 413.647 1102.83 424.125 1155.3 440.213 1207.32 C 492.811 1377.52 616.872 1516.42 780.084 1587.82 C 804.372 1598.61 829.379 1607.71 854.924 1615.04 C 866.978 1618.54 900.38 1624.2 908.229 1629.47 C 945.757 1654.65 936.371 1704.13 892.228 1713.9 C 877.432 1715.15 860.301 1710.36 845.834 1706.69 C 779.482 1689.61 716.074 1662.64 657.735 1626.71 C 497.029 1528.4 382.583 1369.62 340.129 1186.07 C 331.572 1150.1 308.287 1032.79 328.53 1001.52 C 335.983 990.015 347.447 985.147 360.22 982.206 z" fill="rgb(227,175,87)" transform="translate(0,0)"></path>
<path d="M 1660.13 1124.3 C 1673.16 1123.63 1687.15 1125.88 1696.96 1135.02 C 1723.36 1159.6 1705.18 1202.14 1696.78 1230.25 C 1666.79 1330.59 1616.39 1419.32 1546.59 1497.14 C 1420.35 1637.7 1242.95 1721.67 1054.21 1730.21 C 1042.32 1731.07 1034.17 1730.56 1023.43 1723.98 C 1012.45 1717.35 1004.64 1706.54 1001.81 1694.03 C 999.171 1682.03 1001.66 1669.47 1008.68 1659.4 C 1026.01 1634.47 1059.08 1637.97 1086.25 1635.69 C 1105.36 1634.26 1124.39 1631.77 1143.23 1628.24 C 1338.45 1591.88 1500.97 1454.68 1582.67 1275.71 C 1591.9 1255.49 1599.86 1234.71 1606.51 1213.5 C 1617.85 1178.13 1617.51 1131.97 1660.13 1124.3 z" fill="rgb(227,175,87)" transform="translate(0,0)"></path>
<path d="M 1402.08 447.228 C 1414.08 446.013 1426.1 447.659 1435.88 454.826 C 1454.96 468.79 1475.68 486.17 1493.17 501.763 C 1600.46 596.609 1675.85 722.275 1709.02 861.585 C 1717.71 899.155 1723.57 937.325 1726.53 975.773 C 1729.41 1009.54 1733.42 1044.2 1690.24 1052.81 C 1678.23 1053.48 1668.24 1052.29 1657.86 1045.31 C 1649.06 1039.38 1642.67 1030.49 1639.86 1020.26 C 1637.02 1009.94 1637.21 994.199 1636.43 983.239 C 1630.52 899.792 1607.97 826.27 1571.37 751.385 C 1548.97 705.805 1520.7 663.35 1487.29 625.099 C 1466.08 601.029 1443.07 578.604 1418.45 558.017 C 1408.05 549.446 1382.36 531.491 1374.44 522.166 C 1352.28 496.074 1365.92 454.11 1402.08 447.228 z" fill="rgb(227,175,87)" transform="translate(0,0)"></path>
<metadata><recraft-signature>{"signed_by": "recraft", "signature_b64": "Yry4uY7YghGO8lxsYwm/eJLCaNTu5RghAz/dPKqJGdfkLLZxq0FJSuDuFjDTVOGOEemk+NkiTdoEEb8aKxdLCw==", "signing_algo": "Ed25519", "generation_timestamp": 1772775231, "identifier": "54b5ee62-6de5-4947-a3a8-bfe52bf52655"}</recraft-signature></metadata></svg>