<svg xmlns="http://www.w3.org/2000/svg" height="1024" preserveAspectRatio="none" style="display: block;" version="1.1" viewBox="0 0 2048 2048" width="1024">
<defs>
	<linearGradient gradientUnits="userSpaceOnUse" id="Gradient1" x1="1284.25" x2="1288.69" y1="1423.27" y2="1430.2">
		<stop class="stop0" offset="0" stop-color="rgb(255,255,254)" stop-opacity="0.392157"></stop>
		<stop class="stop1" offset="1" stop-color="rgb(255,255,254)" stop-opacity="0.427451"></stop>
	</linearGradient>
	<linearGradient gradientUnits="userSpaceOnUse" id="Gradient2" x1="1271.52" x2="1255.84" y1="1444.73" y2="1435.64">
		<stop class="stop0" offset="0" stop-color="rgb(255,255,255)" stop-opacity="0.482353"></stop>
		<stop class="stop1" offset="1" stop-color="rgb(255,254,253)" stop-opacity="0.545098"></stop>
	</linearGradient>
	<linearGradient gradientUnits="userSpaceOnUse" id="Gradient3" x1="1026.26" x2="1037.6" y1="1501.6" y2="1515.59">
		<stop class="stop0" offset="0" stop-color="rgb(255,255,255)" stop-opacity="0"></stop>
		<stop class="stop1" offset="1" stop-color="rgb(255,255,255)" stop-opacity="0.12549"></stop>
	</linearGradient>
	<linearGradient gradientUnits="userSpaceOnUse" id="Gradient4" x1="1425.18" x2="1008.13" y1="1123.45" y2="1289.41">
		<stop class="stop0" offset="0" stop-color="rgb(255,255,255)" stop-opacity="0"></stop>
		<stop class="stop1" offset="1" stop-color="rgb(255,255,254)" stop-opacity="0.482353"></stop>
	</linearGradient>
	<linearGradient gradientUnits="userSpaceOnUse" id="Gradient5" x1="1278.31" x2="1226.33" y1="1371.28" y2="1737.7">
		<stop class="stop0" offset="0" stop-color="rgb(255,254,254)" stop-opacity="0.427451"></stop>
		<stop class="stop1" offset="1" stop-color="rgb(255,255,255)" stop-opacity="0.92549"></stop>
	</linearGradient>
</defs>
<path d="M 1459.48 835.657 C 1471.9 844.089 1486.47 851.956 1499.71 859.145 C 1543.24 882.785 1586.19 906.959 1629 931.876 C 1654.33 946.622 1681.44 959.502 1706.54 974.947 C 1730.49 989.669 1762.67 1004.57 1785.64 1019.62 C 1785.15 1036.34 1785.29 1054.39 1784.33 1070.83 C 1782.39 1100.15 1778.41 1129.29 1772.44 1158.06 C 1768.53 1177.2 1757.85 1209.03 1755.97 1224.04 C 1754.36 1282.16 1756.67 1341.6 1755.79 1399.77 C 1755.34 1429.59 1756.9 1469.51 1754 1498.44 C 1746.58 1566.61 1714.87 1629.82 1664.68 1676.53 C 1616.9 1721.38 1555.54 1749.03 1490.29 1755.12 C 1466.03 1757.25 1428.15 1756.2 1402.84 1756.21 L 1289.68 1756.07 C 1266.16 1756.02 1240.57 1755.52 1217.27 1756.66 C 1209.43 1757.99 1201.1 1760.29 1193.31 1762.23 C 1086.85 1788.66 976.537 1790.36 869.821 1764.39 C 858.169 1761.56 844.376 1757.95 832.661 1756.29 L 831.275 1756.1 L 660.507 1756.21 C 627.991 1756.17 589.487 1757.87 557.59 1754.87 C 421.453 1742.05 310.444 1630.39 297.168 1494.53 C 294.356 1465.76 296.752 1435.44 295.828 1406.47 C 294.836 1348.26 297.548 1289.27 294.806 1231.1 C 291.667 1212.15 285.836 1192.8 282.413 1174.31 C 274.445 1131.27 264.923 1065.58 267.664 1022.37 C 272.812 1023.27 333.938 1059.43 344.562 1065.41 L 582.948 1199.01 C 558.984 1141.29 548.922 1084.05 547.532 1021.96 L 547.938 1021.02 C 583.891 1021.09 622.018 1020.81 657.83 1022.16 L 658.935 1022.03 C 659.629 1122.71 692.849 1208 762.168 1281.41 C 789.531 1253.62 817.143 1226.08 845.001 1198.79 C 847.292 1196.11 850.499 1193.14 853.067 1190.61 C 897.099 1234.83 935.324 1250.67 995.734 1260.39 C 1002.48 1261.05 1009.82 1261.91 1016.54 1262.1 C 1022.33 1290.42 1021.21 1324.07 1025.89 1349.51 C 1025.86 1352.24 1025.98 1354.81 1026.14 1357.53 C 1026.78 1361.38 1026.7 1371.01 1027.65 1372.36 C 1027.99 1372.41 1028.26 1372.17 1028.64 1371.97 C 1028.69 1374.7 1028.25 1376.94 1028.18 1379.84 C 1029.15 1380.17 1029.76 1380.3 1030.56 1380.72 C 1029.72 1385.15 1028.9 1390.15 1027.4 1394.36 C 1033.97 1392.5 1049.51 1391.88 1057 1391.06 C 1069.11 1389.74 1079.59 1388 1091.5 1385.89 L 1097 1384.86 C 1097.88 1384.71 1098.76 1384.56 1099.65 1384.41 C 1122.56 1378.94 1161.8 1366.52 1182.03 1354.6 C 1206.49 1345.55 1255.39 1307.62 1274.4 1289.27 C 1276.12 1287.18 1290.24 1272.78 1292.4 1270.87 C 1318.93 1296.05 1344.21 1322.68 1370.73 1347.26 C 1366.89 1352.03 1357.88 1361.92 1353.23 1365.72 C 1345.64 1372.69 1337.92 1379.95 1330.22 1386.77 C 1328.98 1387.59 1328.21 1388.23 1327.02 1389.16 C 1325.01 1391.37 1322.22 1393.31 1319.83 1395.26 C 1316.61 1397.64 1312.77 1400.9 1309.44 1403.46 L 1308.23 1404.36 C 1305.37 1406.55 1302.36 1408.55 1299.5 1410.76 L 1292.94 1415.5 C 1292.47 1415.85 1292.01 1416.2 1291.54 1416.55 C 1286.61 1420.04 1280.72 1423.48 1276.07 1426.93 C 1273.48 1428.39 1266.27 1432.54 1264.13 1434.22 C 1260.34 1436.1 1256.81 1438.29 1253.13 1440.35 C 1251.69 1441.14 1250.26 1441.96 1248.85 1442.81 C 1240.87 1447.23 1233.17 1451.04 1225.01 1455.07 L 1214.48 1459.85 C 1210.84 1461.41 1205.63 1463.64 1202.05 1464.94 L 1192.31 1468.77 C 1190.16 1469.62 1188.43 1470.13 1186.34 1471.13 L 1180.2 1473.36 C 1161.68 1479.15 1143.71 1484.68 1124.73 1488.73 C 1121.33 1489.46 1105.18 1492.67 1103.23 1493.69 C 1092.63 1494.55 1081.68 1497.1 1071 1497.85 C 1064.13 1498.34 1057.48 1497.97 1050.54 1498.74 C 1041.74 1498.86 1032.93 1499.29 1024.16 1500.04 C 1023.95 1507.96 1024.04 1515.46 1024.04 1523.36 C 1024.05 1525.3 1024.12 1526.96 1024.22 1528.9 C 1023.73 1544.69 1023.66 1560.79 1023.79 1576.59 C 1024.17 1621.06 1023.26 1665.73 1023.95 1710.17 C 1046.5 1709.53 1064.53 1708.79 1086.77 1706.22 C 1091.26 1705.85 1094.72 1705.24 1099.12 1704.67 C 1184.19 1695.97 1279.63 1664.71 1353.69 1622.9 C 1372.58 1612.22 1395.57 1599.49 1412.89 1586.5 C 1415.41 1585.19 1417.34 1583.55 1419.59 1581.84 C 1422.09 1580.15 1422.9 1579.47 1425.1 1577.52 C 1427.02 1576.61 1433.12 1572.28 1434.08 1570.65 C 1436.81 1568.99 1437.75 1568.38 1440.24 1566.38 C 1445.34 1562.62 1450.15 1558.69 1455.07 1554.72 C 1463.16 1548.76 1478.5 1535.77 1485.71 1528.46 L 1486.66 1527.84 C 1488.5 1525.97 1494.2 1521.07 1495.16 1519.68 C 1499.32 1516.08 1503.42 1511.94 1507.4 1508.1 C 1468.72 1475.29 1432.21 1435.89 1395.09 1401.53 L 1391.1 1397.86 L 1390.84 1397.18 C 1495.88 1293.66 1550.66 1168.38 1552.81 1020.99 C 1538.09 1019.78 1515.85 1020.81 1500.84 1021.29 C 1499.62 949.468 1487.32 901.092 1459.48 835.657 z" fill="rgb(214,174,90)" transform="translate(0,0)"></path>
<path d="M 853.067 1190.61 C 897.099 1234.83 935.324 1250.67 995.734 1260.39 C 1002.48 1261.05 1009.82 1261.91 1016.54 1262.1 C 1022.33 1290.42 1021.21 1324.07 1025.89 1349.51 C 1025.86 1352.24 1025.98 1354.81 1026.14 1357.53 C 1026.78 1361.38 1026.7 1371.01 1027.65 1372.36 C 1027.99 1372.41 1028.26 1372.17 1028.64 1371.97 C 1028.69 1374.7 1028.25 1376.94 1028.18 1379.84 C 1029.15 1380.17 1029.76 1380.3 1030.56 1380.72 C 1029.72 1385.15 1028.9 1390.15 1027.4 1394.36 C 1033.97 1392.5 1049.51 1391.88 1057 1391.06 C 1069.11 1389.74 1079.59 1388 1091.5 1385.89 L 1097 1384.86 C 1097.88 1384.71 1098.76 1384.56 1099.65 1384.41 C 1122.56 1378.94 1161.8 1366.52 1182.03 1354.6 C 1206.49 1345.55 1255.39 1307.62 1274.4 1289.27 C 1276.12 1287.18 1290.24 1272.78 1292.4 1270.87 C 1318.93 1296.05 1344.21 1322.68 1370.73 1347.26 C 1366.89 1352.03 1357.88 1361.92 1353.23 1365.72 C 1345.64 1372.69 1337.92 1379.95 1330.22 1386.77 C 1328.98 1387.59 1328.21 1388.23 1327.02 1389.16 C 1325.01 1391.37 1322.22 1393.31 1319.83 1395.26 C 1316.61 1397.64 1312.77 1400.9 1309.44 1403.46 L 1308.23 1404.36 C 1305.37 1406.55 1302.36 1408.55 1299.5 1410.76 L 1292.94 1415.5 C 1292.47 1415.85 1292.01 1416.2 1291.54 1416.55 C 1286.61 1420.04 1280.72 1423.48 1276.07 1426.93 C 1273.48 1428.39 1266.27 1432.54 1264.13 1434.22 C 1260.34 1436.1 1256.81 1438.29 1253.13 1440.35 C 1251.69 1441.14 1250.26 1441.96 1248.85 1442.81 C 1240.87 1447.23 1233.17 1451.04 1225.01 1455.07 L 1214.48 1459.85 C 1210.84 1461.41 1205.63 1463.64 1202.05 1464.94 L 1192.31 1468.77 C 1190.16 1469.62 1188.43 1470.13 1186.34 1471.13 L 1180.2 1473.36 C 1161.68 1479.15 1143.71 1484.68 1124.73 1488.73 C 1121.33 1489.46 1105.18 1492.67 1103.23 1493.69 C 1092.63 1494.55 1081.68 1497.1 1071 1497.85 C 1064.13 1498.34 1057.48 1497.97 1050.54 1498.74 C 1041.74 1498.86 1032.93 1499.29 1024.16 1500.04 C 1023.95 1507.96 1024.04 1515.46 1024.04 1523.36 C 1024.05 1525.3 1024.12 1526.96 1024.22 1528.9 C 1023.73 1544.69 1023.66 1560.79 1023.79 1576.59 C 1024.17 1621.06 1023.26 1665.73 1023.95 1710.17 C 1023.94 1726.76 1022.98 1760.21 1024.28 1775.06 L 1021.4 1776.84 C 1008.44 1745.27 993.42 1719.58 978.31 1689.21 C 942.62 1617.47 904.355 1546.15 869.069 1474.34 C 919.218 1490.08 971.378 1498.48 1023.93 1499.29 L 1023.91 1399.18 L 1022.25 1399.16 C 918.561 1396.76 833.193 1355.25 762.168 1281.41 C 789.531 1253.62 817.143 1226.08 845.001 1198.79 C 847.292 1196.11 850.499 1193.14 853.067 1190.61 z" fill="rgb(5,4,4)" transform="translate(0,0)"></path>
<path d="M 1274.4 1289.27 C 1276.12 1287.18 1290.24 1272.78 1292.4 1270.87 C 1318.93 1296.05 1344.21 1322.68 1370.73 1347.26 C 1366.89 1352.03 1357.88 1361.92 1353.23 1365.72 C 1331.73 1345.01 1310.3 1324.18 1288.62 1303.68 C 1283.67 1298.99 1279.08 1293.38 1274.4 1289.27 z" fill="rgb(214,174,90)" transform="translate(0,0)"></path>
<path d="M 995.734 1260.39 C 1002.48 1261.05 1009.82 1261.91 1016.54 1262.1 C 1022.33 1290.42 1021.21 1324.07 1025.89 1349.51 C 1025.86 1352.24 1025.98 1354.81 1026.14 1357.53 C 1026.78 1361.38 1026.7 1371.01 1027.65 1372.36 C 1027.99 1372.41 1028.26 1372.17 1028.64 1371.97 C 1028.69 1374.7 1028.25 1376.94 1028.18 1379.84 C 1029.15 1380.17 1029.76 1380.3 1030.56 1380.72 C 1029.72 1385.15 1028.9 1390.15 1027.4 1394.36 L 1026.02 1394.56 C 1025.5 1394.28 1024.98 1394 1024.47 1393.72 C 1017.37 1362.76 1009.44 1329 1002.4 1298.34 C 1000.11 1288.4 997.748 1275.17 996.126 1271.46 L 995.734 1260.39 z" fill="rgb(210,160,73)" transform="translate(0,0)"></path>
<path d="M 1026.14 1357.53 C 1026.78 1361.38 1026.7 1371.01 1027.65 1372.36 C 1027.99 1372.41 1028.26 1372.17 1028.64 1371.97 C 1028.69 1374.7 1028.25 1376.94 1028.18 1379.84 C 1025.28 1392.5 1026.21 1355.84 1026.14 1357.53 z" fill="rgb(117,79,34)" transform="translate(0,0)"></path>
<path d="M 853.067 1190.61 C 897.099 1234.83 935.324 1250.67 995.734 1260.39 L 996.126 1271.46 C 929.689 1261.16 894.36 1242.95 845.001 1198.79 C 847.292 1196.11 850.499 1193.14 853.067 1190.61 z" fill="rgb(214,174,90)" transform="translate(0,0)"></path>
<path d="M 1552.81 1020.99 L 1718.79 1021.02 C 1717.66 1060.25 1715.81 1095.32 1708.98 1134.32 C 1686.02 1265.32 1613.24 1408.19 1516.2 1500.02 C 1513.3 1502.75 1510.36 1505.44 1507.4 1508.1 C 1468.72 1475.29 1432.21 1435.89 1395.09 1401.53 L 1391.1 1397.86 L 1390.84 1397.18 C 1495.88 1293.66 1550.66 1168.38 1552.81 1020.99 z" fill="rgb(5,4,4)" transform="translate(0,0)"></path>
<path d="M 1755.97 1224.04 C 1754.36 1282.16 1756.67 1341.6 1755.79 1399.77 C 1755.34 1429.59 1756.9 1469.51 1754 1498.44 C 1746.58 1566.61 1714.87 1629.82 1664.68 1676.53 C 1616.9 1721.38 1555.54 1749.03 1490.29 1755.12 C 1466.03 1757.25 1428.15 1756.2 1402.84 1756.21 L 1289.68 1756.07 C 1266.16 1756.02 1240.57 1755.52 1217.27 1756.66 C 1235.85 1749.55 1260 1743.93 1281.27 1735.8 C 1463.6 1668.16 1613.79 1534.36 1701.94 1361.01 C 1716.17 1332.44 1728.22 1303.24 1739.47 1273.41 C 1745.22 1258.17 1749.24 1238.34 1755.97 1224.04 z" fill="rgb(5,4,4)" transform="translate(0,0)"></path>
<path d="M 294.806 1231.1 C 295.099 1231.71 295.393 1232.31 295.686 1232.91 C 363.416 1463.44 534.975 1648.41 762.025 1733.48 C 784.728 1742.14 807.839 1749.69 831.275 1756.1 L 660.507 1756.21 C 627.991 1756.17 589.487 1757.87 557.59 1754.87 C 421.453 1742.05 310.444 1630.39 297.168 1494.53 C 294.356 1465.76 296.752 1435.44 295.828 1406.47 C 294.836 1348.26 297.548 1289.27 294.806 1231.1 z" fill="rgb(5,4,4)" transform="translate(0,0)"></path>
<path d="M 1024.28 1775.06 C 1024.22 1776.01 1024.3 1779.7 1023.49 1780.31 C 1022.57 1780.16 1021.7 1777.5 1021.4 1776.84 L 1024.28 1775.06 z" fill="rgb(25,15,7)" transform="translate(0,0)"></path>
<path d="M 824.258 295.753 C 937.637 269.035 1028.7 258.142 1145.62 278.614 C 1173.66 283.523 1200.45 291.079 1226.89 296.004 L 1228.61 296.781 C 1233.6 298.987 1250.43 303.644 1256.82 305.591 C 1272.15 310.186 1287.27 315.442 1302.14 321.342 C 1399.94 360.694 1489.56 415.815 1564.41 490.662 C 1541.87 515.853 1511.73 544.804 1487.44 568.712 C 1460.18 595.487 1433.15 622.486 1406.33 649.705 C 1391.23 664.781 1371.06 682.852 1357.5 698.533 C 1350.86 704.259 1343.79 711.243 1337.78 717.644 C 1320.48 736.049 1300.9 753.513 1283.89 772.099 C 1274.66 761.794 1266.02 753.891 1255.53 744.942 C 1202.29 699.996 1137.39 671.063 1068.38 661.497 C 1054.61 659.513 1040.65 657.105 1026.76 658.195 L 1024.09 657.094 C 1015.03 657.731 1005.14 657.878 996.002 658.194 C 992.806 647.692 990.037 662.899 981.283 657.122 C 977.689 654.751 975.222 657.76 973.108 659.976 C 964.522 660.603 967.947 656.31 960.959 663.562 C 892.786 674.256 823.161 711.834 773.101 758.763 C 755.501 737.794 720.16 706.632 699.412 686.078 C 710.798 673.56 729.279 658.981 742.717 648.531 C 814.665 592.582 906.649 556.897 997.851 552.362 C 1006.59 551.928 1015.52 551.992 1024.16 551.544 C 1025.11 536.776 1025.21 514.136 1024.78 499.04 C 991.068 498.65 962.743 502.562 929.911 508.982 C 821.589 530.164 732.046 580.651 653.544 657.261 C 556.335 752.34 500.475 881.874 498.054 1017.83 C 498.044 1018.88 498.044 1019.93 498.055 1020.98 C 513.396 1022.59 532.165 1022.3 547.532 1021.96 C 548.922 1084.05 558.984 1141.29 582.948 1199.01 L 344.562 1065.41 C 333.938 1059.43 272.812 1023.27 267.664 1022.37 L 267.943 1021.47 C 266.202 1009.95 268.442 988.689 269.041 976.51 C 271.726 921.958 283.092 871.269 295.065 818.164 C 295.265 815.54 295.42 812.913 295.529 810.283 C 297.632 756.928 294.736 699.283 295.176 645.693 C 295.424 615.412 294.148 579.266 297.636 549.378 C 305.223 488.935 331.821 432.466 373.59 388.122 C 422.395 336.372 488.379 304.171 559.203 297.541 C 586.175 295.059 619.22 296.793 647.037 296.247 C 705.407 295.103 766.059 297.687 824.258 295.753 z" fill="rgb(214,174,90)" transform="translate(0,0)"></path>
<path d="M 1025.8 270.828 C 1037.98 298.491 1054.55 328.611 1068.49 355.764 L 1145.56 506.483 C 1157.26 529.467 1171.87 556.325 1182.59 579.366 C 1131.96 560.36 1078.21 551.02 1024.13 551.828 C 1023.93 585.391 1023.22 623.669 1024.09 657.094 C 1015.03 657.731 1005.14 657.878 996.002 658.194 C 992.806 647.692 990.037 662.899 981.283 657.122 C 977.689 654.751 975.222 657.76 973.108 659.976 C 964.522 660.603 967.947 656.31 960.959 663.562 C 892.786 674.256 823.161 711.834 773.101 758.763 C 755.501 737.794 720.16 706.632 699.412 686.078 C 710.798 673.56 729.279 658.981 742.717 648.531 C 814.665 592.582 906.649 556.897 997.851 552.362 C 1006.59 551.928 1015.52 551.992 1024.16 551.544 C 1025.11 536.776 1025.21 514.136 1024.78 499.04 C 991.068 498.65 962.743 502.562 929.911 508.982 C 821.589 530.164 732.046 580.651 653.544 657.261 C 556.335 752.34 500.475 881.874 498.054 1017.83 C 498.044 1018.88 498.044 1019.93 498.055 1020.98 C 513.396 1022.59 532.165 1022.3 547.532 1021.96 C 548.922 1084.05 558.984 1141.29 582.948 1199.01 L 344.562 1065.41 C 333.938 1059.43 272.812 1023.27 267.664 1022.37 L 267.943 1021.47 C 274.125 1020.01 322.138 1021.81 330.964 1022.08 C 337.235 855.832 389.475 714.024 497.295 586.176 C 604.197 459.767 751.793 374.544 914.715 345.156 C 950.891 338.439 987.719 336.115 1024.24 332.992 L 1024.08 280.222 C 1024.67 277.037 1025.14 274.02 1025.8 270.828 z" fill="rgb(5,4,4)" transform="translate(0,0)"></path>
<path d="M 295.529 810.283 C 297.632 756.928 294.736 699.283 295.176 645.693 C 295.424 615.412 294.148 579.266 297.636 549.378 C 305.223 488.935 331.821 432.466 373.59 388.122 C 422.395 336.372 488.379 304.171 559.203 297.541 C 586.175 295.059 619.22 296.793 647.037 296.247 C 705.407 295.103 766.059 297.687 824.258 295.753 L 823.233 296.183 C 810.692 301.298 794.493 304.813 781.428 309.589 C 756.332 318.765 731.336 329.216 707.247 340.741 C 534.172 422.333 397.242 564.852 322.636 741.05 C 317.006 754.049 312.049 767.329 307.785 780.838 C 305.957 786.564 301.199 803.064 299.141 807.822 C 298.485 808.755 297.41 810.948 296.509 811.279 C 295.952 811.135 295.991 810.93 295.529 810.283 z" fill="rgb(5,4,4)" transform="translate(0,0)"></path>
<path d="M 295.529 810.283 C 295.991 810.93 295.952 811.135 296.509 811.279 C 297.41 810.948 298.485 808.755 299.141 807.822 C 297.978 811.717 297.2 814.754 295.065 818.164 C 295.265 815.54 295.42 812.913 295.529 810.283 z" fill="rgb(25,15,7)" transform="translate(0,0)"></path>
<path d="M 1024.08 280.222 C 1024.07 280.101 1024.67 261.588 1025.8 270.828 C 1025.14 274.02 1024.67 277.037 1024.08 280.222 z" fill="rgb(25,15,7)" transform="translate(0,0)"></path>
<path d="M 1024.34 672.793 C 1024.59 672.323 1024.84 671.853 1025.09 671.383 C 1025.77 671.721 1027.79 694.395 1028.23 697.294 C 1028.71 694.145 1028.29 689.868 1028.69 687.985 L 1028.97 686.596 C 1030.92 685.503 1032.91 698.978 1034.38 700.948 C 1034.75 701.096 1035.02 700.922 1035.51 700.778 C 1039.49 710.421 1042.83 728.85 1045.17 739.484 L 1046.31 744.46 C 1048.48 754.245 1054.5 778.668 1055.47 786.874 C 1111.73 796.086 1151.9 813.048 1191.78 854.409 C 1207.49 841.506 1222.18 827.106 1237.64 814.525 C 1226.11 828.889 1209.46 846.63 1199.23 860.646 C 1234.39 896.311 1253.39 943.568 1261.43 992.325 C 1290.37 998.363 1329.55 1007.76 1357.7 1016.41 C 1356.86 1017.1 1357.09 1016.84 1356.82 1017.24 C 1357.64 1019.03 1366.52 1019.37 1366.62 1020.88 C 1365.18 1021.74 1362.33 1022.53 1360.65 1022.77 L 1359.26 1022.98 C 1361.68 1023.28 1367.72 1023.77 1369.65 1024.55 C 1369.76 1024.73 1369.86 1024.92 1369.97 1025.1 C 1369.74 1025.86 1363.95 1026.71 1362.92 1026.97 C 1357.36 1027.56 1350.08 1029.1 1344.5 1030.16 C 1329.23 1033.08 1311.51 1033.58 1296.51 1036.95 C 1292.07 1037.01 1288.9 1037.64 1284.5 1038.12 L 1265.03 1040.45 C 1260.49 1041.58 1261.81 1049.73 1261.13 1054.56 L 1261.07 1055.03 C 1258.32 1078.27 1249.26 1112.4 1237.51 1132.83 C 1235.94 1129.79 1226.48 1126.2 1234.2 1119.22 C 1236.74 1116.92 1240.42 1112.09 1239.95 1108.54 C 1239.19 1102.81 1241.86 1097.54 1236 1102.71 C 1235.65 1103.26 1235.8 1103.15 1235.56 1103.25 C 1234.87 1102.28 1235.58 1100.73 1234.79 1099.77 C 1233.78 1099.52 1229.3 1104.17 1227.79 1105.3 C 1227.14 1106.42 1227.23 1106.24 1226.78 1107.42 C 1222.1 1119.61 1216.82 1129.59 1210.12 1140.66 C 1206.7 1145.48 1203.66 1150.21 1200.09 1155.1 L 1200.86 1161.33 C 1201.07 1166.78 1206.36 1163.36 1208.91 1161.5 C 1214.46 1157.44 1221.89 1154.89 1212.51 1149.4 C 1212.33 1148.35 1212.17 1147.99 1212.35 1146.98 C 1213.6 1146.83 1223.61 1145.86 1217.01 1143.01 C 1215.9 1142.53 1213.54 1143.61 1213.25 1141.34 C 1217.2 1137.08 1220.44 1135.1 1221.68 1128.33 C 1221.68 1126.13 1223.79 1122.64 1225.85 1125.55 C 1227.24 1127.81 1229.08 1129.64 1228.77 1130.01 C 1226 1133.29 1220.32 1135.24 1220.57 1143.71 C 1221.89 1144.41 1222.58 1144.78 1223.89 1145.56 L 1224.65 1146.49 C 1230.52 1152.36 1216.15 1147.35 1223.38 1156.93 C 1215.58 1168.49 1206.65 1179.26 1196.72 1189.06 C 1207.46 1201.36 1218.13 1213.71 1228.75 1226.12 L 1226.67 1227.15 C 1216.23 1216.54 1202.55 1204.9 1191.28 1195.18 C 1184.84 1201.51 1176.55 1209.82 1168.76 1214.41 C 1161.54 1214.57 1158.54 1221.17 1153.97 1222.98 C 1153.56 1222.92 1153.7 1223.01 1153.5 1222.77 C 1153.31 1221.29 1154.51 1217.44 1155.82 1216.11 C 1156.28 1215.66 1156.93 1215.46 1157.56 1215.59 C 1163.36 1216.83 1162.58 1209.18 1166.54 1206.49 C 1168.68 1205.03 1171.3 1200.14 1167.39 1199.68 C 1161.79 1199.01 1162 1202.99 1154.71 1200.65 C 1152.46 1201.77 1144.36 1207.85 1141.06 1209.87 C 1130.26 1216.61 1118.86 1222.34 1107.02 1227 C 1093.57 1232.3 1076.28 1236.84 1061.93 1238.57 C 1061.01 1239.83 1058.22 1256.12 1057.3 1259.58 C 1055.9 1264.88 1054.43 1270.13 1053.35 1275.5 L 1052.78 1277.88 C 1052 1280.47 1049.65 1290.71 1049.39 1293.22 C 1048.84 1295.59 1047.32 1301.29 1047.31 1303.46 C 1044.42 1312.76 1042.98 1322.8 1040.48 1332.26 C 1040.03 1328.86 1041.14 1324.21 1037.83 1323.24 L 1036.55 1322.84 C 1034.71 1334.56 1032.97 1348.36 1030.66 1359.83 C 1030 1363.9 1029.16 1367.9 1028.64 1371.97 C 1028.26 1372.17 1027.99 1372.41 1027.65 1372.36 C 1026.7 1371.01 1026.78 1361.38 1026.14 1357.53 C 1025.98 1354.81 1025.86 1352.24 1025.89 1349.51 C 1021.21 1324.07 1022.33 1290.42 1016.54 1262.1 C 1009.82 1261.91 1002.48 1261.05 995.734 1260.39 C 935.324 1250.67 897.099 1234.83 853.067 1190.61 C 814.039 1146.11 797.959 1113.39 789.102 1055.62 C 764.068 1049.87 730.898 1040.8 706.215 1033.89 C 709.541 1033.31 709.788 1033.34 712.542 1031.43 C 706.761 1030.11 688.483 1026.27 683.615 1026.2 C 681.782 1025.69 681.507 1025.8 680.097 1024.78 L 680.653 1021.16 C 714.936 1013.74 752.49 1001.96 788.473 993.788 C 795.768 951.787 806.032 918.375 831.768 883.268 C 837.987 874.786 844.724 865.703 852.558 858.62 L 818.829 820.493 C 825.221 824.287 849.304 846.182 858.487 853.024 C 898.228 811.71 941.545 795.866 996.376 786.86 C 1000.57 770.915 1003.59 754.512 1007.42 738.345 C 1009.52 732.918 1010.37 724.414 1012.04 718.503 C 1016.16 703.87 1017.64 686.701 1022.32 672.371 L 1024.34 672.793 z" fill="rgb(5,4,4)" transform="translate(0,0)"></path>
<path d="M 1144.12 1155.96 C 1155.09 1163.82 1165.84 1173.78 1175.74 1183 C 1168.4 1189.66 1162.46 1194.53 1154.71 1200.65 C 1152.46 1201.77 1144.36 1207.85 1141.06 1209.87 C 1130.26 1216.61 1118.86 1222.34 1107.02 1227 C 1093.57 1232.3 1076.28 1236.84 1061.93 1238.57 C 1064.19 1224.01 1066.77 1209.27 1068.62 1194.68 C 1099.24 1188.24 1120.9 1177.09 1144.12 1155.96 z" fill="rgb(214,174,90)" transform="translate(0,0)"></path>
<path d="M 810.299 1061.76 L 812.009 1060.3 C 824.128 1061.94 840.586 1064.41 852.233 1067.35 C 858.702 1089.27 874.051 1126.91 891.942 1141.83 C 882.912 1152.4 874.136 1163.18 865.621 1174.17 C 833.3 1135.87 820.724 1110.82 810.299 1061.76 z" fill="rgb(214,174,90)" transform="translate(0,0)"></path>
<path d="M 1197.31 1071.94 C 1201.97 1070.2 1209.08 1068.24 1214.02 1067.19 L 1218.52 1066.2 L 1223.02 1065.23 C 1227.66 1064.27 1235.6 1061.79 1239.66 1063.02 C 1236.35 1078.74 1233.08 1090.11 1227.79 1105.3 C 1227.14 1106.42 1227.23 1106.24 1226.78 1107.42 C 1222.1 1119.61 1216.82 1129.59 1210.12 1140.66 C 1206.7 1145.48 1203.66 1150.21 1200.09 1155.1 C 1194.28 1162.79 1189.9 1167.89 1183.33 1174.91 C 1174.73 1164.27 1166.22 1153.57 1157.78 1142.81 C 1177.6 1122.1 1188.5 1098.74 1197.31 1071.94 z" fill="rgb(214,174,90)" transform="translate(0,0)"></path>
<path d="M 712.542 1031.43 C 725.103 1032.36 743.185 1035.5 755.947 1037.38 L 848.281 1051.33 C 849.572 1056.58 850.849 1062.15 852.233 1067.35 C 840.586 1064.41 824.128 1061.94 812.009 1060.3 L 810.299 1061.76 L 809.526 1059.75 C 805.593 1058.01 794.142 1056.53 789.102 1055.62 C 764.068 1049.87 730.898 1040.8 706.215 1033.89 C 709.541 1033.31 709.788 1033.34 712.542 1031.43 z" fill="rgb(210,160,73)" transform="translate(0,0)"></path>
<path d="M 1053.77 1197.24 L 1068.62 1194.68 C 1066.77 1209.27 1064.19 1224.01 1061.93 1238.57 C 1061.01 1239.83 1058.22 1256.12 1057.3 1259.58 C 1055.9 1264.88 1054.43 1270.13 1053.35 1275.5 L 1052.78 1277.88 C 1052 1280.47 1049.65 1290.71 1049.39 1293.22 C 1048.84 1295.59 1047.32 1301.29 1047.31 1303.46 C 1044.42 1312.76 1042.98 1322.8 1040.48 1332.26 C 1040.03 1328.86 1041.14 1324.21 1037.83 1323.24 L 1036.55 1322.84 C 1041.49 1281.36 1048.88 1239.95 1053.77 1197.24 z" fill="rgb(210,160,73)" transform="translate(0,0)"></path>
<path d="M 1261.43 992.325 C 1290.37 998.363 1329.55 1007.76 1357.7 1016.41 C 1356.86 1017.1 1357.09 1016.84 1356.82 1017.24 C 1357.64 1019.03 1366.52 1019.37 1366.62 1020.88 C 1365.18 1021.74 1362.33 1022.53 1360.65 1022.77 L 1359.26 1022.98 C 1326.9 1018.85 1294.5 1015.06 1262.06 1011.62 C 1262.06 1004.88 1261.81 999.06 1261.43 992.325 z" fill="rgb(210,160,73)" transform="translate(0,0)"></path>
<path d="M 1028.23 697.294 C 1028.71 694.145 1028.29 689.868 1028.69 687.985 L 1028.97 686.596 C 1030.92 685.503 1032.91 698.978 1034.38 700.948 C 1034.75 701.096 1035.02 700.922 1035.51 700.778 C 1039.49 710.421 1042.83 728.85 1045.17 739.484 L 1046.31 744.46 C 1048.48 754.245 1054.5 778.668 1055.47 786.874 C 1049.77 786.815 1043.77 786.123 1037.9 785.875 C 1035.65 768.051 1034.19 749.446 1031.92 731.498 C 1031.16 725.545 1028.07 701.999 1028.23 697.294 z" fill="rgb(210,160,73)" transform="translate(0,0)"></path>
<path d="M 788.473 993.788 L 786.707 1009.9 C 755.633 1012.75 715.655 1018.38 684.799 1024.04 L 683.615 1026.2 C 681.782 1025.69 681.507 1025.8 680.097 1024.78 L 680.653 1021.16 C 714.936 1013.74 752.49 1001.96 788.473 993.788 z" fill="rgb(210,160,73)" transform="translate(0,0)"></path>
<path d="M 680.097 1024.78 C 681.569 1024.51 683.328 1024.12 684.799 1024.04 L 683.615 1026.2 C 681.782 1025.69 681.507 1025.8 680.097 1024.78 z" fill="rgb(117,79,34)" transform="translate(0,0)"></path>
<path d="M 1022.32 672.371 L 1024.34 672.793 C 1022.22 683.112 1020.44 694.536 1018.85 704.992 L 1017.81 711.492 C 1015.03 729.913 1012.31 753.765 1008.02 771.53 C 1007.76 784.508 1007.88 787.72 996.376 786.86 C 1000.57 770.915 1003.59 754.512 1007.42 738.345 C 1009.52 732.918 1010.37 724.414 1012.04 718.503 C 1016.16 703.87 1017.64 686.701 1022.32 672.371 z" fill="rgb(204,152,67)" transform="translate(0,0)"></path>
<path d="M 1007.42 738.345 C 1008.11 749.666 1007.21 762.932 1008.02 771.53 C 1007.76 784.508 1007.88 787.72 996.376 786.86 C 1000.57 770.915 1003.59 754.512 1007.42 738.345 z" fill="rgb(210,160,73)" transform="translate(0,0)"></path>
<path d="M 1201.58 1051.99 C 1214.76 1051.79 1228.37 1051.17 1241.44 1051.41 C 1240.92 1056.04 1240.75 1058.28 1239.66 1063.02 C 1235.6 1061.79 1227.66 1064.27 1223.02 1065.23 L 1218.52 1066.2 L 1214.02 1067.19 C 1209.08 1068.24 1201.97 1070.2 1197.31 1071.94 C 1197.4 1071.59 1197.48 1071.24 1197.57 1070.89 L 1198.77 1065.98 C 1199.99 1060.87 1200.7 1057.09 1201.58 1051.99 z" fill="rgb(204,152,67)" transform="translate(0,0)"></path>
<path d="M 1025.89 1349.51 C 1025.98 1348.56 1026.32 1341.88 1026.51 1341.65 C 1026.6 1341.7 1026.68 1341.76 1026.77 1341.81 C 1026.35 1348.35 1027.21 1354.14 1030.66 1359.83 C 1030 1363.9 1029.16 1367.9 1028.64 1371.97 C 1028.26 1372.17 1027.99 1372.41 1027.65 1372.36 C 1026.7 1371.01 1026.78 1361.38 1026.14 1357.53 C 1025.98 1354.81 1025.86 1352.24 1025.89 1349.51 z" fill="rgb(25,15,7)" transform="translate(0,0)"></path>
<path d="M 1021.04 982.435 C 1036.52 980.877 1051.64 987.753 1060.64 1000.44 C 1069.64 1013.13 1071.13 1029.68 1064.54 1043.77 C 1057.96 1057.86 1044.31 1067.33 1028.8 1068.57 C 1005.17 1070.44 984.428 1052.95 982.301 1029.34 C 980.174 1005.73 997.451 984.81 1021.04 982.435 z" fill="rgb(210,160,73)" transform="translate(0,0)"></path>
<path d="M 905.546 1156.22 C 933.01 1177.03 944.754 1185 978.672 1194.7 C 986.436 1197 996.274 1198.39 1004.35 1199.36 L 1002.97 1240.18 C 998.913 1239.71 986.146 1238.54 983.209 1237.56 C 935.07 1230.75 908.347 1211.73 872.839 1181.29 C 883.633 1172.8 894.536 1164.44 905.546 1156.22 z" fill="rgb(214,174,90)" transform="translate(0,0)"></path>
<path d="M 978.672 1194.7 C 986.436 1197 996.274 1198.39 1004.35 1199.36 L 1002.97 1240.18 C 998.913 1239.71 986.146 1238.54 983.209 1237.56 C 986.461 1234.82 983.741 1228.18 983.167 1223.99 C 981.823 1214.17 979.805 1204.59 978.672 1194.7 z" fill="rgb(210,160,73)" transform="translate(0,0)"></path>
<path d="M 988.282 808.338 C 993.518 806.981 998.979 806.802 1004.33 806.235 C 1003 820.205 1001.17 834.824 999.368 848.77 C 994.253 849.298 989.553 850.157 984.539 851.277 C 948.877 859.567 932.339 870.693 903.767 892.457 C 894.908 885.797 880.514 874.386 872.657 866.994 C 902.914 834.444 946.059 817.837 988.282 808.338 z" fill="rgb(214,174,90)" transform="translate(0,0)"></path>
<path d="M 988.282 808.338 C 993.518 806.981 998.979 806.802 1004.33 806.235 C 1003 820.205 1001.17 834.824 999.368 848.77 C 994.253 849.298 989.553 850.157 984.539 851.277 C 985.856 843.722 991.644 813.534 988.282 808.338 z" fill="rgb(204,152,67)" transform="translate(0,0)"></path>
<path d="M 1048.19 806.86 C 1052.17 807.231 1056.14 807.711 1060.1 808.3 C 1112.24 818.374 1138.54 831.923 1177.95 866.84 C 1167.17 875.522 1155.7 883.437 1144.42 891.462 C 1120.04 871.884 1099.53 859.773 1068.78 851.651 L 1067.56 851.333 C 1061.66 849.759 1056.15 849.218 1050.1 848.695 C 1048.99 834.775 1048.36 820.822 1048.19 806.86 z" fill="rgb(214,174,90)" transform="translate(0,0)"></path>
<path d="M 1048.19 806.86 C 1052.17 807.231 1056.14 807.711 1060.1 808.3 C 1062.67 821.915 1065 838.47 1068.78 851.651 L 1067.56 851.333 C 1061.66 849.759 1056.15 849.218 1050.1 848.695 C 1048.99 834.775 1048.36 820.822 1048.19 806.86 z" fill="rgb(204,152,67)" transform="translate(0,0)"></path>
<path d="M 1185.42 874.772 C 1212.8 903.398 1232.88 944.049 1238.58 983.27 C 1239.85 988.087 1240.65 997.982 1241.19 1003.16 C 1227.59 1002.35 1214.21 1000.46 1200.59 999.694 C 1199.78 992.401 1198.9 985.318 1197.13 978.167 C 1187.45 947.569 1179.4 931.481 1159.35 906.354 C 1168.03 895.871 1176.88 885.345 1185.42 874.772 z" fill="rgb(214,174,90)" transform="translate(0,0)"></path>
<path d="M 1197.13 978.167 C 1203.51 979.854 1233.6 985.511 1238.58 983.27 C 1239.85 988.087 1240.65 997.982 1241.19 1003.16 C 1227.59 1002.35 1214.21 1000.46 1200.59 999.694 C 1199.78 992.401 1198.9 985.318 1197.13 978.167 z" fill="rgb(204,152,67)" transform="translate(0,0)"></path>
<path d="M 866.292 874.565 C 873.912 881.979 884.842 895.26 892.155 903.683 C 871.356 929.223 861.779 946.11 852.758 977.597 C 851.396 983.849 850.233 990.143 848.823 996.401 C 835.781 996.517 822.738 996.5 809.696 996.349 C 809.931 994.765 811.07 986.25 811.347 985.242 C 819.072 940.814 833.82 907.1 866.292 874.565 z" fill="rgb(214,174,90)" transform="translate(0,0)"></path>
<path d="M 811.347 985.242 C 819.496 988.394 843.869 979.005 852.758 977.597 C 851.396 983.849 850.233 990.143 848.823 996.401 C 835.781 996.517 822.738 996.5 809.696 996.349 C 809.931 994.765 811.07 986.25 811.347 985.242 z" fill="rgb(204,152,67)" transform="translate(0,0)"></path>
<path d="M 1007.01 1083.04 C 1008.42 1084.53 1007.93 1086.53 1007.8 1088.49 C 1005.81 1118.44 1004.67 1148.46 1003.84 1178.47 C 982.852 1175.32 965.436 1170.57 946.691 1160.55 L 945.128 1159.73 C 936.62 1154.68 929.922 1149.98 922.338 1143.7 C 950.522 1124.67 979.186 1102.85 1007.01 1083.04 z" fill="rgb(214,174,90)" transform="translate(0,0)"></path>
<path d="M 1113.22 1052.46 C 1134.99 1051.86 1157.82 1051.95 1179.65 1052.02 C 1179.18 1053.97 1178.57 1056.09 1178.17 1058.02 L 1177.19 1062.52 C 1171.75 1087.36 1160.09 1107.91 1144.28 1127.57 C 1137.71 1124.8 1083.32 1062.99 1078.39 1054.79 L 1077.39 1053.18 C 1089.35 1052.76 1101.22 1052.84 1113.22 1052.46 z" fill="rgb(214,174,90)" transform="translate(0,0)"></path>
<path d="M 907.517 918.73 C 918.703 931.124 929.439 944.237 940.492 956.804 C 951.548 969.374 964.158 981.55 974.264 994.777 C 961.893 995.225 948.599 995.066 936.141 995.112 C 914.118 995.222 893.288 995.771 871.361 996.188 C 876.237 964.564 887.645 943.079 907.517 918.73 z" fill="rgb(214,174,90)" transform="translate(0,0)"></path>
<path d="M 1051.1 869.812 C 1056.87 870.956 1064.85 873.317 1070.22 874.103 C 1094.9 883.335 1106.18 887.981 1127.64 905.314 C 1113.84 915.862 1096.1 930.158 1082.12 939.716 C 1076.93 945.09 1053.83 960.892 1046.93 965.734 C 1047.43 934.353 1050.43 901.486 1051.1 869.812 z" fill="rgb(210,160,73)" transform="translate(0,0)"></path>
<path d="M 1070.22 874.103 C 1094.9 883.335 1106.18 887.981 1127.64 905.314 C 1113.84 915.862 1096.1 930.158 1082.12 939.716 C 1078.58 937.974 1078.82 937.737 1078.16 933.002 C 1076.48 920.852 1075.37 908.676 1073.77 896.51 C 1072.86 889.637 1070.35 880.722 1070.22 874.103 z" fill="rgb(214,174,90)" transform="translate(0,0)"></path>
<path d="M 980.172 874.229 C 985.739 872.618 991.466 871.441 997.154 870.32 C 996.607 883.62 995.05 898.015 994.21 911.501 C 993.05 930.126 992.129 949.409 990.124 967.918 C 984.173 963.392 978.386 958.682 972.646 953.895 C 955.267 938.673 937.432 922.229 919.842 907.502 C 935.475 892.637 959.445 879.945 980.172 874.229 z" fill="rgb(214,174,90)" transform="translate(0,0)"></path>
<path d="M 980.172 874.229 C 985.739 872.618 991.466 871.441 997.154 870.32 C 996.607 883.62 995.05 898.015 994.21 911.501 C 993.05 930.126 992.129 949.409 990.124 967.918 C 984.173 963.392 978.386 958.682 972.646 953.895 C 973.201 953.323 975.479 951.174 975.557 950.236 C 977.294 928.841 978.167 907.309 980.802 885.994 C 981.366 881.427 983.631 876.619 980.172 874.229 z" fill="rgb(210,160,73)" transform="translate(0,0)"></path>
<path d="M 1145.62 923.858 C 1159.6 938.096 1171.6 963.154 1175.77 982.515 L 1176.18 984.488 C 1177.43 990.32 1178.53 996.206 1179.46 1002.1 C 1163.9 1001.67 1144.29 1000.86 1128.75 999.636 C 1116.59 998.637 1103.06 998.334 1090.62 997.467 L 1091.23 996.624 L 1124.18 952.071 L 1145.62 923.858 z" fill="rgb(214,174,90)" transform="translate(0,0)"></path>
<path d="M 869.035 1048.15 C 899.215 1049.6 930.091 1051.84 960.421 1053.56 C 950.121 1065.78 938.932 1080.96 929.128 1093.81 L 904.22 1127.06 C 886.817 1103.79 875.503 1080.19 869.727 1051.52 L 869.035 1048.15 z" fill="rgb(214,174,90)" transform="translate(0,0)"></path>
<path d="M 1062.03 1083.57 C 1066.9 1086.86 1074.37 1093.23 1078.92 1097.15 C 1095.62 1111.48 1113.61 1126.12 1129.63 1141.12 C 1121.27 1149.35 1115.87 1152.8 1106.01 1158.93 C 1086.18 1169.41 1078.41 1172.19 1055.84 1177.81 C 1056.88 1149.26 1059.95 1112.76 1062.03 1083.57 z" fill="rgb(214,174,90)" transform="translate(0,0)"></path>
<path d="M 1357.35 1385.4 L 1359.11 1385.4 C 1363.76 1385.37 1368.22 1383.82 1373.5 1385.66 C 1373.43 1387.51 1368.75 1386.31 1369.31 1388.02 C 1369.86 1389.73 1372.51 1388.91 1373.55 1390.55 L 1373.56 1390.78 C 1373.11 1391.13 1372.52 1391.06 1371.95 1391.08 C 1369.94 1391.12 1368.76 1388.52 1366.69 1389.04 C 1366.06 1389.2 1366.19 1390.28 1366.46 1390.69 C 1367.35 1391.78 1368.52 1392.59 1369.55 1393.56 C 1371.92 1395.8 1375.39 1396.21 1378.47 1396.63 C 1380.22 1396.87 1381.84 1397.51 1383.61 1397.61 C 1384.62 1397.66 1385.54 1398.19 1386.51 1398.42 C 1388.54 1398.89 1389.26 1398.53 1391.1 1397.86 L 1395.09 1401.53 C 1393.44 1405.95 1392.89 1408.23 1391.87 1412.86 C 1402.05 1423.93 1413.85 1430.36 1424.36 1440.05 C 1435.21 1450.06 1446.36 1462.06 1456.76 1472.63 C 1465.96 1481.97 1490.8 1500.02 1491.61 1511.76 L 1491.76 1513.67 C 1491.79 1514.13 1491.82 1514.59 1491.85 1515.05 L 1490 1514.39 C 1488.8 1513.96 1487.71 1513.31 1486.56 1512.77 C 1482.07 1514.55 1486.1 1520.8 1485.44 1523.68 C 1483.6 1523.08 1482.01 1522.63 1480.08 1523.18 L 1479.89 1523.45 C 1480.78 1525.43 1484.67 1527.15 1486.66 1527.84 L 1485.71 1528.46 C 1479.25 1529.7 1477.97 1528.3 1474.3 1533.55 C 1473.1 1535.25 1464.69 1543.91 1462.46 1543.56 C 1461.8 1543.03 1461.85 1542.05 1461.47 1541.35 C 1457.81 1540.52 1455.44 1552.58 1455.07 1554.72 C 1450.15 1558.69 1445.34 1562.62 1440.24 1566.38 C 1433.97 1566.52 1423.56 1566.98 1420.78 1573.2 C 1419.14 1575.17 1417.11 1576.78 1414.89 1578.05 L 1413.84 1578.65 C 1411.36 1578.59 1405.36 1579.97 1402.61 1580.47 C 1402.14 1581.05 1401.67 1581.64 1401.2 1582.22 C 1399.4 1582.4 1395.83 1582.93 1396.01 1585.54 C 1396.87 1586.69 1398.8 1586.53 1399.99 1586.29 C 1402.88 1585.71 1403.31 1588.13 1404.94 1588.55 C 1408.67 1587.56 1404.81 1586.73 1412.89 1586.5 C 1395.57 1599.49 1372.58 1612.22 1353.69 1622.9 C 1279.63 1664.71 1184.19 1695.97 1099.12 1704.67 C 1096.75 1703.24 1088.63 1701.16 1087.56 1703.57 C 1087.88 1703.94 1088.2 1704.32 1088.52 1704.69 C 1088.52 1704.55 1088.51 1704.42 1088.51 1704.29 C 1088.65 1705.3 1087.46 1705.74 1086.77 1706.22 C 1064.53 1708.79 1046.5 1709.53 1023.95 1710.17 C 1023.26 1665.73 1024.17 1621.06 1023.79 1576.59 C 1023.66 1560.79 1023.73 1544.69 1024.22 1528.9 C 1024.36 1529.97 1024.5 1530.96 1024.59 1532.03 C 1026.23 1538.31 1030.18 1544.1 1030.28 1551.03 L 1030.67 1550.77 L 1030.94 1543.08 C 1032.72 1540.12 1031.54 1541.18 1034.51 1539.65 L 1035.08 1541.65 C 1036.49 1542.41 1035.66 1542.14 1037.64 1542.36 L 1038.06 1545.32 C 1042.78 1533.57 1041.56 1533.84 1052.62 1529.71 C 1054.94 1528.84 1054.99 1526.77 1055.25 1524.88 C 1054.35 1523.6 1053.38 1522.5 1052.26 1521.42 C 1057.84 1510.22 1089.5 1513.86 1101.25 1509.55 C 1114.5 1504.68 1124.86 1499.27 1139.26 1502.65 C 1144.5 1503.88 1163.66 1493.32 1167.82 1489.95 C 1167.43 1487.31 1166.91 1485.33 1166.27 1482.77 C 1168.23 1476.11 1173.21 1476.99 1179.21 1477.22 L 1178.4 1477.54 L 1179.73 1477.8 L 1180.78 1476.87 L 1178.65 1476.78 L 1181.32 1475.95 L 1181.57 1474.9 L 1180.2 1473.36 L 1186.34 1471.13 C 1186.55 1472.2 1186.59 1472.57 1186.79 1473.23 C 1187.07 1474.11 1187.72 1474.82 1188.58 1475.17 C 1192.17 1476.63 1196.42 1474.7 1192.31 1468.77 L 1202.05 1464.94 C 1202.73 1465.66 1203.73 1466.24 1203.62 1467.28 C 1203.67 1466.9 1203.19 1469.45 1203.56 1469.36 C 1208.85 1468.07 1215.09 1469.11 1217.52 1462.77 C 1217.71 1462.36 1216.25 1461.97 1216.64 1461.82 C 1216.41 1461.91 1214.16 1459.53 1214.48 1459.85 L 1225.01 1455.07 C 1233.17 1451.04 1240.87 1447.23 1248.85 1442.81 C 1249.88 1445.78 1250.03 1450.29 1251.6 1450.86 C 1256.24 1452.55 1263.5 1448.25 1267.22 1445.18 C 1270.84 1442.19 1278.49 1440.69 1283.03 1439.21 C 1289.98 1438.36 1285.71 1433.79 1290.84 1433.16 C 1298.5 1430.18 1296.66 1425.22 1305.52 1422.25 C 1312.29 1419.97 1319.43 1413.04 1324.92 1408.55 C 1336.86 1401.15 1346.51 1394.34 1357.35 1385.4 z" fill="url(#Gradient5)" transform="translate(0,0)"></path>
<path d="M 1283.89 772.099 C 1300.9 753.513 1320.48 736.049 1337.78 717.644 C 1343.79 711.243 1350.86 704.259 1357.5 698.533 C 1386.56 722.09 1417.42 763.717 1437.04 796.017 C 1444.51 808.305 1451.86 824.285 1459.48 835.657 C 1487.32 901.092 1499.62 949.468 1500.84 1021.29 C 1499.96 1032.2 1499.76 1043.23 1499.13 1054.18 C 1492.77 1165.36 1445.75 1266.02 1370.73 1347.26 C 1344.21 1322.68 1318.93 1296.05 1292.4 1270.87 C 1299.62 1263.26 1313.17 1245.19 1319.4 1236.47 C 1356.57 1184.56 1379.23 1123.69 1385.06 1060.11 C 1386 1049.61 1387.79 1034.29 1386.11 1024.14 L 1386.35 1023.16 C 1386.47 1021.84 1386.63 1020.34 1386.62 1019 C 1386.3 937.964 1354.45 856.317 1303.41 793.774 C 1297.3 786.286 1290.51 779.138 1283.89 772.099 z" fill="rgb(5,4,4)" transform="translate(0,0)"></path>
<path d="M 1226.89 296.004 C 1283.49 297.619 1342.64 295.298 1399.49 296.163 C 1428.98 296.611 1463.44 294.777 1492.57 297.543 C 1563.36 304.187 1629.25 336.584 1677.74 388.588 C 1688.95 400.519 1715.76 433.186 1720.46 447.75 C 1719.96 452.807 1739.21 493.232 1741.85 503.862 C 1747.62 527.183 1751.91 548.83 1752.6 573.171 C 1753.57 634.446 1751.29 695.979 1752.43 757.219 C 1752.54 763.576 1754.15 785.707 1752.44 789.945 C 1745.8 773.592 1740.83 757.302 1733.36 739.836 C 1690.51 639.668 1639.43 568.053 1564.41 490.662 C 1489.56 415.815 1399.94 360.694 1302.14 321.342 C 1287.27 315.442 1272.15 310.186 1256.82 305.591 C 1250.43 303.644 1233.6 298.987 1228.61 296.781 L 1226.89 296.004 z" fill="rgb(5,4,4)" transform="translate(0,0)"></path>
<path d="M 1371.01 1027.71 C 1375.81 1025.87 1380.93 1026.04 1386.11 1024.14 C 1387.79 1034.29 1386 1049.61 1385.06 1060.11 C 1379.23 1123.69 1356.57 1184.56 1319.4 1236.47 C 1313.17 1245.19 1299.62 1263.26 1292.4 1270.87 C 1290.24 1272.78 1276.12 1287.18 1274.4 1289.27 C 1255.39 1307.62 1206.49 1345.55 1182.03 1354.6 C 1175.46 1355.46 1150.69 1367.92 1148.33 1366.04 C 1148.27 1365.2 1149.18 1364.62 1149.6 1363.95 L 1149.5 1363.7 C 1145.15 1363.17 1146.57 1366.48 1140.78 1362.82 C 1139.53 1362.59 1129.44 1365.32 1126.43 1365.11 C 1125.07 1365.01 1120.88 1366.9 1119.68 1365.66 C 1118.13 1364.69 1117.47 1365.52 1116.93 1366.89 C 1113.57 1367.37 1103.66 1366.83 1102.57 1368.44 C 1102.66 1369.02 1103.14 1369.32 1103.03 1369.94 C 1101.16 1371.33 1098.55 1369.89 1096.71 1370.64 C 1090.99 1378.06 1076.1 1371.84 1069 1373.52 C 1064.27 1374.63 1051.88 1373.82 1049.42 1375.18 C 1039.92 1380.44 1039.4 1369.17 1041.5 1362.98 C 1042.16 1360.97 1042.72 1358.71 1041.15 1357.75 C 1042.89 1352.25 1043.41 1346.08 1044.74 1340.52 C 1045.9 1335.68 1051.82 1314.53 1049.29 1310.58 C 1048.75 1311.9 1049.26 1312.39 1047.95 1312.77 L 1047.52 1312.45 C 1046.95 1309.55 1048.14 1307.89 1047.31 1303.46 C 1047.32 1301.29 1048.84 1295.59 1049.39 1293.22 C 1059.2 1295.92 1053.57 1283.14 1053.32 1280.52 L 1053.19 1279.1 C 1057.69 1277.53 1056.11 1279.5 1059.5 1281.73 C 1059.9 1282 1062.25 1279.63 1062.65 1279.14 C 1063.47 1278.12 1066.2 1278.71 1067.24 1279.21 C 1069.65 1281.31 1071.99 1279.52 1074.51 1279.29 C 1080.88 1278.71 1084.28 1275.34 1089.13 1272.57 C 1092.39 1270.72 1098.39 1268.32 1101.99 1267.02 C 1108.57 1264.65 1115.78 1263.11 1122.57 1261.17 C 1130.85 1255.2 1135.88 1256.18 1143.26 1250.32 C 1149.28 1245.53 1138.45 1250 1137.36 1250.44 C 1120.42 1257.22 1119.03 1258.9 1100.81 1258.36 C 1104.13 1256.67 1117.18 1252.45 1121.19 1251.24 C 1148.01 1243.16 1163.89 1232.92 1185.3 1215.37 C 1205.69 1220.85 1212.98 1229.34 1232.81 1233.52 C 1235.16 1235.32 1235.42 1235.75 1236.86 1238.31 C 1234.99 1238.5 1216.15 1230.56 1214.85 1233.21 C 1215.13 1236.87 1222.76 1235.36 1224.16 1236.67 C 1228.75 1240.98 1226.58 1240.17 1228.85 1237.6 C 1230.25 1237.21 1238.73 1245.74 1239.94 1245.37 C 1240.28 1244.75 1240.41 1244.08 1240.57 1243.38 C 1240.64 1243.36 1240.71 1243.34 1240.79 1243.31 C 1241.7 1243.7 1249 1245.49 1249.47 1244.53 C 1248.67 1241.25 1240.71 1244.05 1238.87 1238.83 L 1238.27 1237.08 C 1235.08 1233.38 1232.07 1229.7 1228.75 1226.12 C 1218.13 1213.71 1207.46 1201.36 1196.72 1189.06 C 1206.65 1179.26 1215.58 1168.49 1223.38 1156.93 C 1226.72 1152.32 1231.32 1145.41 1233.63 1140.29 C 1235.1 1137.8 1236.2 1135.39 1237.51 1132.83 C 1249.26 1112.4 1258.32 1078.27 1261.07 1055.03 C 1264.16 1054.37 1269.89 1053.52 1272.68 1052.57 C 1285.59 1050.06 1297.36 1046.56 1310.01 1043.36 L 1314.51 1042.23 L 1320.99 1040.58 C 1337.07 1036.02 1355.15 1032.65 1371.01 1027.71 z" fill="url(#Gradient4)" transform="translate(0,0)"></path>
<path d="M 699.412 686.078 C 720.16 706.632 755.501 737.794 773.101 758.763 C 768.562 764.046 761.565 770.846 756.505 776.133 C 718.304 819.924 694.564 855.864 676.633 912.053 C 672.946 923.606 667.839 939.975 665.89 951.727 C 660.953 955.341 661.521 958.428 660.551 964.49 C 660.237 966.45 659.958 967.118 658.638 968.598 C 657.46 975.203 659.237 978.889 656.195 986.002 C 655.913 986.661 657.634 993.329 657.654 995.01 C 657.718 1000.65 655.617 1007.97 657.262 1013.31 C 658.067 1015.93 657.749 1019.44 657.83 1022.16 C 622.018 1020.81 583.891 1021.09 547.938 1021.02 C 550.297 906.742 600.799 785.428 681.38 704.079 C 684.143 699.368 695.055 689.794 699.412 686.078 z" fill="rgb(5,4,4)" transform="translate(0,0)"></path>
<path d="M 699.412 686.078 C 720.16 706.632 755.501 737.794 773.101 758.763 C 768.562 764.046 761.565 770.846 756.505 776.133 C 751.671 771.316 746.227 767.342 741.389 762.68 C 721.923 743.92 702.42 725.177 683.548 705.828 C 683.331 705.656 683.114 705.485 682.897 705.313 L 681.38 704.079 C 684.143 699.368 695.055 689.794 699.412 686.078 z" fill="rgb(214,174,90)" transform="translate(0,0)"></path>
<path d="M 1103.23 1493.69 C 1105.18 1492.67 1121.33 1489.46 1124.73 1488.73 C 1143.71 1484.68 1161.68 1479.15 1180.2 1473.36 L 1181.57 1474.9 L 1181.32 1475.95 L 1178.65 1476.78 L 1180.78 1476.87 L 1179.73 1477.8 L 1178.4 1477.54 L 1179.21 1477.22 C 1173.21 1476.99 1168.23 1476.11 1166.27 1482.77 C 1166.91 1485.33 1167.43 1487.31 1167.82 1489.95 C 1163.66 1493.32 1144.5 1503.88 1139.26 1502.65 C 1124.86 1499.27 1114.5 1504.68 1101.25 1509.55 C 1089.5 1513.86 1057.84 1510.22 1052.26 1521.42 C 1053.38 1522.5 1054.35 1523.6 1055.25 1524.88 C 1054.99 1526.77 1054.94 1528.84 1052.62 1529.71 C 1041.56 1533.84 1042.78 1533.57 1038.06 1545.32 L 1037.64 1542.36 C 1035.66 1542.14 1036.49 1542.41 1035.08 1541.65 L 1034.51 1539.65 C 1031.54 1541.18 1032.72 1540.12 1030.94 1543.08 L 1030.67 1550.77 L 1030.28 1551.03 C 1030.18 1544.1 1026.23 1538.31 1024.59 1532.03 C 1025.48 1532.49 1031.92 1536.32 1031.57 1536.28 C 1034.96 1534.43 1039.2 1527.23 1039.59 1524.55 C 1041.1 1518.11 1035.5 1506.96 1045.5 1510.58 C 1050.59 1509.46 1056.05 1505.83 1061.46 1505.25 C 1072.26 1504.09 1080.86 1505.25 1091.02 1502.6 C 1102.39 1499.63 1100.31 1495.32 1104.42 1494.43 C 1104.02 1494.19 1103.63 1493.94 1103.23 1493.69 z" fill="rgb(254,254,254)" fill-opacity="0.305882" transform="translate(0,0)"></path>
<path d="M 1395.09 1401.53 C 1432.21 1435.89 1468.72 1475.29 1507.4 1508.1 C 1503.42 1511.94 1499.32 1516.08 1495.16 1519.68 C 1490.49 1519.23 1493.62 1518.98 1491.85 1515.05 C 1491.82 1514.59 1491.79 1514.13 1491.76 1513.67 L 1491.61 1511.76 C 1490.8 1500.02 1465.96 1481.97 1456.76 1472.63 C 1446.36 1462.06 1435.21 1450.06 1424.36 1440.05 C 1413.85 1430.36 1402.05 1423.93 1391.87 1412.86 C 1392.89 1408.23 1393.44 1405.95 1395.09 1401.53 z" fill="rgb(254,254,254)" fill-opacity="0.0156863" transform="translate(0,0)"></path>
<path d="M 1720.46 447.75 C 1733.87 469.607 1746.62 507.61 1750.85 532.827 C 1756.77 568.078 1755.74 607.905 1755.73 643.794 L 1755.11 775.821 C 1754.6 783.305 1755.33 790.185 1754.75 797.171 L 1752.44 789.945 C 1754.15 785.707 1752.54 763.576 1752.43 757.219 C 1751.29 695.979 1753.57 634.446 1752.6 573.171 C 1751.91 548.83 1747.62 527.183 1741.85 503.862 C 1739.21 493.232 1719.96 452.807 1720.46 447.75 z" fill="rgb(5,4,4)" fill-opacity="0.905882" transform="translate(0,0)"></path>
<path d="M 1039.24 1337.61 C 1041.07 1347.57 1033.93 1387.3 1046.94 1380.25 C 1052.74 1377.11 1088.65 1380.39 1089.99 1379.69 C 1090.85 1382.85 1092.33 1380.49 1094.81 1382.86 C 1094.64 1382.92 1094.48 1382.99 1094.32 1383.06 L 1094.25 1383.13 C 1095.51 1384.33 1098.02 1384.21 1099.65 1384.41 C 1098.76 1384.56 1097.88 1384.71 1097 1384.86 L 1091.5 1385.89 C 1079.59 1388 1069.11 1389.74 1057 1391.06 C 1049.51 1391.88 1033.97 1392.5 1027.4 1394.36 C 1028.9 1390.15 1029.72 1385.15 1030.56 1380.72 C 1031.16 1378.8 1031.52 1376.05 1031.88 1374 C 1034.01 1361.94 1036.47 1349.55 1039.24 1337.61 z" fill="rgb(254,254,254)" fill-opacity="0.0941176" transform="translate(0,0)"></path>
<path d="M 1330.22 1386.77 C 1334.21 1394.25 1337.82 1384.26 1344.35 1381.17 C 1349.05 1378.95 1351.74 1376 1357.39 1374.12 L 1359.04 1373.56 C 1365.52 1371.45 1368.26 1372.04 1374.57 1375.19 L 1375.6 1375.69 C 1378.97 1377.41 1385.23 1378.82 1386.09 1382.97 C 1387.05 1387.56 1386.35 1393.77 1390.84 1397.18 L 1391.1 1397.86 C 1389.26 1398.53 1388.54 1398.89 1386.51 1398.42 C 1385.54 1398.19 1384.62 1397.66 1383.61 1397.61 C 1381.84 1397.51 1380.22 1396.87 1378.47 1396.63 C 1375.39 1396.21 1371.92 1395.8 1369.55 1393.56 C 1368.52 1392.59 1367.35 1391.78 1366.46 1390.69 C 1366.19 1390.28 1366.06 1389.2 1366.69 1389.04 C 1368.76 1388.52 1369.94 1391.12 1371.95 1391.08 C 1372.52 1391.06 1373.11 1391.13 1373.56 1390.78 L 1373.55 1390.55 C 1372.51 1388.91 1369.86 1389.73 1369.31 1388.02 C 1368.75 1386.31 1373.43 1387.51 1373.5 1385.66 C 1368.22 1383.82 1363.76 1385.37 1359.11 1385.4 L 1357.35 1385.4 C 1346.68 1385.74 1331.08 1399.32 1320.68 1403.69 C 1318.72 1404.51 1316.03 1408.61 1312.87 1407.16 C 1311.28 1406.33 1311.53 1405.09 1309.44 1403.46 C 1312.77 1400.9 1316.61 1397.64 1319.83 1395.26 C 1319.98 1395.41 1321.22 1396.51 1321.24 1396.61 C 1322.09 1400.63 1335.13 1390.84 1334.86 1391.3 L 1334.83 1391.22 C 1330.17 1390.95 1330.93 1393.9 1327.02 1389.16 C 1328.21 1388.23 1328.98 1387.59 1330.22 1386.77 z" fill="rgb(254,254,254)" fill-opacity="0.184314" transform="translate(0,0)"></path>
<path d="M 1107.02 1227 L 1116.96 1227 C 1116.41 1227.35 1115.85 1227.7 1115.3 1228.06 C 1110.09 1235.28 1102.62 1232.8 1098.43 1234.41 C 1088.56 1238.2 1087.94 1240.13 1075.97 1242.06 C 1065.01 1242.45 1067.95 1247.19 1077.67 1245.62 C 1087.75 1246.18 1094.58 1251.5 1094.9 1241.66 C 1094.99 1238.78 1107.42 1238.46 1109.78 1238.56 C 1113.46 1243.14 1115 1240.3 1115.02 1245.49 C 1102.92 1249.93 1089.69 1254.05 1077 1256.24 L 1057.3 1259.58 C 1058.22 1256.12 1061.01 1239.83 1061.93 1238.57 C 1076.28 1236.84 1093.57 1232.3 1107.02 1227 z" fill="rgb(5,4,4)" fill-opacity="0.984314" transform="translate(0,0)"></path>
<path d="M 1154.71 1200.65 C 1162 1202.99 1161.79 1199.01 1167.39 1199.68 C 1171.3 1200.14 1168.68 1205.03 1166.54 1206.49 C 1162.58 1209.18 1163.36 1216.83 1157.56 1215.59 C 1156.93 1215.46 1156.28 1215.66 1155.82 1216.11 C 1154.51 1217.44 1153.31 1221.29 1153.5 1222.77 C 1153.7 1223.01 1153.56 1222.92 1153.97 1222.98 C 1158.54 1221.17 1161.54 1214.57 1168.76 1214.41 C 1157.96 1223.52 1137.6 1235.74 1124.5 1241.31 C 1122.1 1238.16 1121.39 1235.28 1120.52 1231.37 C 1122.98 1231.2 1123.25 1231.21 1125.65 1230.62 L 1128.71 1229.8 C 1130.24 1229.25 1132.72 1228.19 1133.32 1226.58 C 1135.69 1220.23 1145.63 1223.34 1148.28 1218.56 C 1151.16 1213.35 1155.8 1214.69 1158.52 1209.65 C 1159.35 1208.12 1160.2 1206.12 1158.11 1205.31 C 1158.82 1205.19 1126.03 1224.63 1124.36 1225.8 L 1122.8 1226.08 C 1120.85 1226.34 1118.9 1226.64 1116.96 1227 L 1107.02 1227 C 1118.86 1222.34 1130.26 1216.61 1141.06 1209.87 C 1144.36 1207.85 1152.46 1201.77 1154.71 1200.65 z" fill="rgb(5,4,4)" fill-opacity="0.972549" transform="translate(0,0)"></path>
<path d="M 1100.81 1258.36 C 1119.03 1258.9 1120.42 1257.22 1137.36 1250.44 C 1138.45 1250 1149.28 1245.53 1143.26 1250.32 C 1135.88 1256.18 1130.85 1255.2 1122.57 1261.17 C 1115.78 1263.11 1108.57 1264.65 1101.99 1267.02 C 1098.39 1268.32 1092.39 1270.72 1089.13 1272.57 C 1084.28 1275.34 1080.88 1278.71 1074.51 1279.29 C 1071.99 1279.52 1069.65 1281.31 1067.24 1279.21 C 1066.2 1278.71 1063.47 1278.12 1062.65 1279.14 C 1062.25 1279.63 1059.9 1282 1059.5 1281.73 C 1056.11 1279.5 1057.69 1277.53 1053.19 1279.1 L 1052.78 1277.88 L 1053.35 1275.5 C 1065.65 1264.58 1061.45 1268.57 1078.49 1266.97 C 1080.14 1266.81 1098.61 1259.43 1100.81 1258.36 z" fill="rgb(254,254,254)" fill-opacity="0.247059" transform="translate(0,0)"></path>
<path d="M 1047.31 1303.46 C 1048.14 1307.89 1046.95 1309.55 1047.52 1312.45 L 1047.95 1312.77 C 1049.26 1312.39 1048.75 1311.9 1049.29 1310.58 C 1051.82 1314.53 1045.9 1335.68 1044.74 1340.52 C 1043.41 1346.08 1042.89 1352.25 1041.15 1357.75 C 1042.72 1358.71 1042.16 1360.97 1041.5 1362.98 C 1039.4 1369.17 1039.92 1380.44 1049.42 1375.18 C 1051.88 1373.82 1064.27 1374.63 1069 1373.52 C 1076.1 1371.84 1090.99 1378.06 1096.71 1370.64 C 1098.55 1369.89 1101.16 1371.33 1103.03 1369.94 C 1103.14 1369.32 1102.66 1369.02 1102.57 1368.44 C 1103.66 1366.83 1113.57 1367.37 1116.93 1366.89 C 1116.52 1368.4 1114.99 1370.74 1113.47 1371.11 C 1112.8 1370.68 1113.13 1369.54 1112.54 1369.53 C 1110.11 1369.49 1107.2 1372.32 1104.6 1372.69 C 1103.81 1372.8 1101.06 1374.38 1100.41 1374.69 L 1098.97 1375.43 C 1095.78 1376.96 1093.34 1378.56 1089.99 1379.69 C 1088.65 1380.39 1052.74 1377.11 1046.94 1380.25 C 1033.93 1387.3 1041.07 1347.57 1039.24 1337.61 C 1039.44 1335.69 1039.92 1334.11 1040.48 1332.26 C 1042.98 1322.8 1044.42 1312.76 1047.31 1303.46 z" fill="rgb(254,254,254)" fill-opacity="0.305882" transform="translate(0,0)"></path>
<path d="M 1140.78 1362.82 C 1146.57 1366.48 1145.15 1363.17 1149.5 1363.7 L 1149.6 1363.95 C 1149.18 1364.62 1148.27 1365.2 1148.33 1366.04 C 1150.69 1367.92 1175.46 1355.46 1182.03 1354.6 C 1161.8 1366.52 1122.56 1378.94 1099.65 1384.41 C 1098.02 1384.21 1095.51 1384.33 1094.25 1383.13 L 1094.32 1383.06 C 1094.48 1382.99 1094.64 1382.92 1094.81 1382.86 C 1092.33 1380.49 1090.85 1382.85 1089.99 1379.69 C 1093.34 1378.56 1095.78 1376.96 1098.97 1375.43 L 1100.41 1374.69 C 1101.06 1374.38 1103.81 1372.8 1104.6 1372.69 C 1107.2 1372.32 1110.11 1369.49 1112.54 1369.53 C 1113.13 1369.54 1112.8 1370.68 1113.47 1371.11 C 1114.99 1370.74 1116.52 1368.4 1116.93 1366.89 C 1117.47 1365.52 1118.13 1364.69 1119.68 1365.66 C 1120.88 1366.9 1125.07 1365.01 1126.43 1365.11 C 1129.44 1365.32 1139.53 1362.59 1140.78 1362.82 z" fill="rgb(254,254,254)" fill-opacity="0.121569" transform="translate(0,0)"></path>
<path d="M 1050.54 1498.74 C 1057.48 1497.97 1064.13 1498.34 1071 1497.85 C 1081.68 1497.1 1092.63 1494.55 1103.23 1493.69 C 1103.63 1493.94 1104.02 1494.19 1104.42 1494.43 C 1100.31 1495.32 1102.39 1499.63 1091.02 1502.6 C 1080.86 1505.25 1072.26 1504.09 1061.46 1505.25 C 1056.05 1505.83 1050.59 1509.46 1045.5 1510.58 C 1035.5 1506.96 1041.1 1518.11 1039.59 1524.55 C 1039.2 1527.23 1034.96 1534.43 1031.57 1536.28 C 1031.92 1536.32 1025.48 1532.49 1024.59 1532.03 C 1024.5 1530.96 1024.36 1529.97 1024.22 1528.9 C 1024.12 1526.96 1024.05 1525.3 1024.04 1523.36 C 1024.28 1524.07 1025.23 1527.95 1025.68 1528.24 C 1027.02 1527.67 1030.14 1528.24 1031.6 1528.57 C 1034.23 1525.84 1030.11 1512.04 1036.02 1507.78 C 1037.4 1506.78 1037.99 1508.38 1039.38 1507.77 C 1040.19 1506.53 1039.61 1504.7 1040.48 1503.37 C 1040.69 1503.28 1047.11 1505.5 1051.64 1502.52 L 1051.61 1502.44 C 1050.35 1501.91 1048.5 1501.98 1047.56 1500.79 L 1047.57 1500.72 C 1048.23 1500.07 1057.73 1501.08 1060.53 1499.65 L 1060.56 1499.54 L 1060.48 1499.43 C 1059.45 1499 1052.18 1498.86 1050.54 1498.74 z" fill="rgb(254,254,254)" fill-opacity="0.160784" transform="translate(0,0)"></path>
<path d="M 1265.03 1040.45 L 1284.5 1038.12 C 1288.9 1037.64 1292.07 1037.01 1296.51 1036.95 C 1299 1037.24 1308.51 1037.26 1308.66 1037.32 C 1302.15 1038.86 1306.12 1041.21 1308.31 1040.14 C 1309.11 1039.75 1311.17 1036.98 1312.7 1038.28 C 1313.01 1041.91 1317.48 1040.48 1320.99 1040.58 L 1314.51 1042.23 L 1310.01 1043.36 C 1297.36 1046.56 1285.59 1050.06 1272.68 1052.57 C 1269.08 1043.55 1276.52 1048.34 1265.03 1040.45 z" fill="rgb(210,160,73)" fill-opacity="0.988235" transform="translate(0,0)"></path>
<path d="M 1024.16 1500.04 C 1032.93 1499.29 1041.74 1498.86 1050.54 1498.74 C 1052.18 1498.86 1059.45 1499 1060.48 1499.43 L 1060.56 1499.54 L 1060.53 1499.65 C 1057.73 1501.08 1048.23 1500.07 1047.57 1500.72 L 1047.56 1500.79 C 1048.5 1501.98 1050.35 1501.91 1051.61 1502.44 L 1051.64 1502.52 C 1047.11 1505.5 1040.69 1503.28 1040.48 1503.37 C 1039.61 1504.7 1040.19 1506.53 1039.38 1507.77 C 1037.99 1508.38 1037.4 1506.78 1036.02 1507.78 C 1030.11 1512.04 1034.23 1525.84 1031.6 1528.57 C 1030.14 1528.24 1027.02 1527.67 1025.68 1528.24 C 1025.23 1527.95 1024.28 1524.07 1024.04 1523.36 C 1024.04 1515.46 1023.95 1507.96 1024.16 1500.04 z" fill="url(#Gradient3)" transform="translate(0,0)"></path>
<path d="M 1227.79 1105.3 C 1229.3 1104.17 1233.78 1099.52 1234.79 1099.77 C 1235.58 1100.73 1234.87 1102.28 1235.56 1103.25 C 1235.8 1103.15 1235.65 1103.26 1236 1102.71 C 1234.92 1100.12 1237.37 1106.13 1236.91 1104.86 C 1240.22 1114 1229.25 1115.63 1227.84 1123.69 C 1227.34 1126.58 1234.93 1131.46 1227.43 1133.72 C 1223.73 1134.56 1222.15 1140.52 1220.57 1143.71 C 1220.32 1135.24 1226 1133.29 1228.77 1130.01 C 1229.08 1129.64 1227.24 1127.81 1225.85 1125.55 C 1223.79 1122.64 1221.68 1126.13 1221.68 1128.33 C 1220.44 1135.1 1217.2 1137.08 1213.25 1141.34 C 1213.54 1143.61 1215.9 1142.53 1217.01 1143.01 C 1223.61 1145.86 1213.6 1146.83 1212.35 1146.98 C 1211.57 1144.73 1210.83 1142.95 1210.12 1140.66 C 1216.82 1129.59 1222.1 1119.61 1226.78 1107.42 C 1227.23 1106.24 1227.14 1106.42 1227.79 1105.3 z" fill="rgb(5,4,4)" fill-opacity="0.87451" transform="translate(0,0)"></path>
<path d="M 1276.07 1426.93 C 1277.18 1430.13 1275.87 1435.17 1280 1434.9 C 1283.95 1434.64 1286.63 1431.2 1289.72 1429.96 L 1290.84 1433.16 C 1285.71 1433.79 1289.98 1438.36 1283.03 1439.21 C 1278.49 1440.69 1270.84 1442.19 1267.22 1445.18 C 1263.5 1448.25 1256.24 1452.55 1251.6 1450.86 C 1250.03 1450.29 1249.88 1445.78 1248.85 1442.81 C 1250.26 1441.96 1251.69 1441.14 1253.13 1440.35 C 1260.64 1443.86 1264.12 1444.6 1264.13 1434.22 C 1266.27 1432.54 1273.48 1428.39 1276.07 1426.93 z" fill="url(#Gradient2)" transform="translate(0,0)"></path>
<path d="M 1309.44 1403.46 C 1311.53 1405.09 1311.28 1406.33 1312.87 1407.16 C 1316.03 1408.61 1318.72 1404.51 1320.68 1403.69 C 1331.08 1399.32 1346.68 1385.74 1357.35 1385.4 C 1346.51 1394.34 1336.86 1401.15 1324.92 1408.55 C 1316.51 1410.44 1311.05 1415.83 1302.87 1416.34 C 1302.4 1416.37 1300.01 1411.57 1299.5 1410.76 C 1302.36 1408.55 1305.37 1406.55 1308.23 1404.36 L 1309.44 1403.46 z" fill="rgb(254,254,254)" fill-opacity="0.341176" transform="translate(0,0)"></path>
<path d="M 1296.51 1036.95 C 1311.51 1033.58 1329.23 1033.08 1344.5 1030.16 C 1350.08 1029.1 1357.36 1027.56 1362.92 1026.97 C 1365.72 1027.28 1368.19 1027.53 1371.01 1027.71 C 1355.15 1032.65 1337.07 1036.02 1320.99 1040.58 C 1317.48 1040.48 1313.01 1041.91 1312.7 1038.28 C 1311.17 1036.98 1309.11 1039.75 1308.31 1040.14 C 1306.12 1041.21 1302.15 1038.86 1308.66 1037.32 C 1308.51 1037.26 1299 1037.24 1296.51 1036.95 z" fill="rgb(204,152,67)" fill-opacity="0.988235" transform="translate(0,0)"></path>
<path d="M 1116.96 1227 C 1118.9 1226.64 1120.85 1226.34 1122.8 1226.08 C 1117.51 1229.43 1122.52 1229.94 1125.65 1230.62 C 1123.25 1231.21 1122.98 1231.2 1120.52 1231.37 C 1113.69 1233.65 1118.72 1238.43 1109.78 1238.56 C 1107.42 1238.46 1094.99 1238.78 1094.9 1241.66 C 1094.58 1251.5 1087.75 1246.18 1077.67 1245.62 L 1078.22 1245.46 C 1079.74 1245.03 1082.27 1244.5 1083.25 1243.24 C 1083.25 1243.12 1083.25 1243.01 1083.25 1242.89 C 1082.53 1242.28 1077 1242.16 1075.97 1242.06 C 1087.94 1240.13 1088.56 1238.2 1098.43 1234.41 C 1102.62 1232.8 1110.09 1235.28 1115.3 1228.06 C 1115.85 1227.7 1116.41 1227.35 1116.96 1227 z" fill="rgb(5,4,4)" fill-opacity="0.796078" transform="translate(0,0)"></path>
<path d="M 1036.55 1322.84 L 1037.83 1323.24 C 1041.14 1324.21 1040.03 1328.86 1040.48 1332.26 C 1039.92 1334.11 1039.44 1335.69 1039.24 1337.61 C 1036.47 1349.55 1034.01 1361.94 1031.88 1374 C 1031.52 1376.05 1031.16 1378.8 1030.56 1380.72 C 1029.76 1380.3 1029.15 1380.17 1028.18 1379.84 C 1028.25 1376.94 1028.69 1374.7 1028.64 1371.97 C 1029.16 1367.9 1030 1363.9 1030.66 1359.83 C 1032.97 1348.36 1034.71 1334.56 1036.55 1322.84 z" fill="rgb(210,160,73)" fill-opacity="0.988235" transform="translate(0,0)"></path>
<path d="M 1299.5 1410.76 C 1300.01 1411.57 1302.4 1416.37 1302.87 1416.34 C 1311.05 1415.83 1316.51 1410.44 1324.92 1408.55 C 1319.43 1413.04 1312.29 1419.97 1305.52 1422.25 C 1296.66 1425.22 1298.5 1430.18 1290.84 1433.16 L 1289.72 1429.96 C 1298.05 1423.2 1298.53 1422.26 1291.54 1416.55 C 1292.01 1416.2 1292.47 1415.85 1292.94 1415.5 L 1299.5 1410.76 z" fill="rgb(254,254,254)" fill-opacity="0.447059" transform="translate(0,0)"></path>
<path d="M 1276.07 1426.93 C 1280.72 1423.48 1286.61 1420.04 1291.54 1416.55 C 1298.53 1422.26 1298.05 1423.2 1289.72 1429.96 C 1286.63 1431.2 1283.95 1434.64 1280 1434.9 C 1275.87 1435.17 1277.18 1430.13 1276.07 1426.93 z" fill="url(#Gradient1)" transform="translate(0,0)"></path>
<path d="M 1124.36 1225.8 C 1126.03 1224.63 1158.82 1205.19 1158.11 1205.31 C 1160.2 1206.12 1159.35 1208.12 1158.52 1209.65 C 1155.8 1214.69 1151.16 1213.35 1148.28 1218.56 C 1145.63 1223.34 1135.69 1220.23 1133.32 1226.58 C 1132.72 1228.19 1130.24 1229.25 1128.71 1229.8 C 1130.18 1225.9 1128.63 1226.54 1124.36 1225.8 z" fill="rgb(5,4,4)" fill-opacity="0.603922" transform="translate(0,0)"></path>
<path d="M 657.83 1022.16 C 657.749 1019.44 658.067 1015.93 657.262 1013.31 C 655.617 1007.97 657.718 1000.65 657.654 995.01 C 657.634 993.329 655.913 986.661 656.195 986.002 C 659.237 978.889 657.46 975.203 658.638 968.598 C 659.958 967.118 660.237 966.45 660.551 964.49 C 661.521 958.428 660.953 955.341 665.89 951.727 C 660.195 975.844 659.173 997.334 658.935 1022.03 L 657.83 1022.16 z" fill="rgb(5,4,4)" fill-opacity="0.960784" transform="translate(0,0)"></path>
<path d="M 1236 1102.71 C 1241.86 1097.54 1239.19 1102.81 1239.95 1108.54 C 1240.42 1112.09 1236.74 1116.92 1234.2 1119.22 C 1226.48 1126.2 1235.94 1129.79 1237.51 1132.83 C 1236.2 1135.39 1235.1 1137.8 1233.63 1140.29 C 1227.47 1135.62 1224.47 1132.85 1223.89 1145.56 C 1222.58 1144.78 1221.89 1144.41 1220.57 1143.71 C 1222.15 1140.52 1223.73 1134.56 1227.43 1133.72 C 1234.93 1131.46 1227.34 1126.58 1227.84 1123.69 C 1229.25 1115.63 1240.22 1114 1236.91 1104.86 C 1237.37 1106.13 1234.92 1100.12 1236 1102.71 z" fill="rgb(5,4,4)" fill-opacity="0.901961" transform="translate(0,0)"></path>
<path d="M 1455.07 1554.72 C 1455.44 1552.58 1457.81 1540.52 1461.47 1541.35 C 1461.85 1542.05 1461.8 1543.03 1462.46 1543.56 C 1464.69 1543.91 1473.1 1535.25 1474.3 1533.55 C 1477.97 1528.3 1479.25 1529.7 1485.71 1528.46 C 1478.5 1535.77 1463.16 1548.76 1455.07 1554.72 z" fill="rgb(254,254,254)" fill-opacity="0.537255" transform="translate(0,0)"></path>
<path d="M 1024.24 662.615 C 1024.82 661.818 1025.41 661.026 1026 660.242 C 1029.16 673.766 1032.34 687.261 1035.51 700.778 C 1035.02 700.922 1034.75 701.096 1034.38 700.948 C 1032.91 698.978 1030.92 685.503 1028.97 686.596 L 1028.69 687.985 C 1028.29 689.868 1028.71 694.145 1028.23 697.294 C 1027.79 694.395 1025.77 671.721 1025.09 671.383 C 1024.84 671.853 1024.59 672.323 1024.34 672.793 L 1022.32 672.371 C 1023.18 669.479 1023.83 665.607 1024.24 662.615 z" fill="rgb(204,152,67)" fill-opacity="0.988235" transform="translate(0,0)"></path>
<path d="M 667.705 1023.97 C 671.94 1023.04 676.47 1022.16 680.653 1021.16 L 680.097 1024.78 C 681.507 1025.8 681.782 1025.69 683.615 1026.2 C 688.483 1026.27 706.761 1030.11 712.542 1031.43 C 709.788 1033.34 709.541 1033.31 706.215 1033.89 C 693.602 1030.42 680.955 1027.73 667.705 1023.97 z" fill="rgb(204,152,67)" fill-opacity="0.976471" transform="translate(0,0)"></path>
<path d="M 1212.51 1149.4 C 1221.89 1154.89 1214.46 1157.44 1208.91 1161.5 C 1206.36 1163.36 1201.07 1166.78 1200.86 1161.33 C 1205.38 1152.28 1203.9 1154.53 1212.51 1149.4 z" fill="rgb(5,4,4)" fill-opacity="0.862745" transform="translate(0,0)"></path>
<path d="M 1357.7 1016.41 C 1365.2 1018.14 1379.83 1020.8 1386.35 1023.16 L 1386.11 1024.14 C 1380.93 1026.04 1375.81 1025.87 1371.01 1027.71 C 1368.19 1027.53 1365.72 1027.28 1362.92 1026.97 C 1363.95 1026.71 1369.74 1025.86 1369.97 1025.1 C 1369.86 1024.92 1369.76 1024.73 1369.65 1024.55 C 1367.72 1023.77 1361.68 1023.28 1359.26 1022.98 L 1360.65 1022.77 C 1362.33 1022.53 1365.18 1021.74 1366.62 1020.88 C 1366.52 1019.37 1357.64 1019.03 1356.82 1017.24 C 1357.09 1016.84 1356.86 1017.1 1357.7 1016.41 z" fill="rgb(181,129,63)" transform="translate(0,0)"></path>
<path d="M 1261.07 1055.03 L 1261.13 1054.56 C 1261.81 1049.73 1260.49 1041.58 1265.03 1040.45 C 1276.52 1048.34 1269.08 1043.55 1272.68 1052.57 C 1269.89 1053.52 1264.16 1054.37 1261.07 1055.03 z" fill="rgb(210,160,73)" fill-opacity="0.784314" transform="translate(0,0)"></path>
<path d="M 1223.89 1145.56 C 1224.47 1132.85 1227.47 1135.62 1233.63 1140.29 C 1231.32 1145.41 1226.72 1152.32 1223.38 1156.93 C 1216.15 1147.35 1230.52 1152.36 1224.65 1146.49 L 1223.89 1145.56 z" fill="rgb(5,4,4)" fill-opacity="0.964706" transform="translate(0,0)"></path>
<path d="M 1486.66 1527.84 C 1484.67 1527.15 1480.78 1525.43 1479.89 1523.45 L 1480.08 1523.18 C 1482.01 1522.63 1483.6 1523.08 1485.44 1523.68 C 1486.1 1520.8 1482.07 1514.55 1486.56 1512.77 C 1487.71 1513.31 1488.8 1513.96 1490 1514.39 L 1491.85 1515.05 C 1493.62 1518.98 1490.49 1519.23 1495.16 1519.68 C 1494.2 1521.07 1488.5 1525.97 1486.66 1527.84 z" fill="rgb(254,254,254)" fill-opacity="0.447059" transform="translate(0,0)"></path>
<path d="M 1238.27 1237.08 L 1238.87 1238.83 C 1240.71 1244.05 1248.67 1241.25 1249.47 1244.53 C 1249 1245.49 1241.7 1243.7 1240.79 1243.31 C 1240.71 1243.34 1240.64 1243.36 1240.57 1243.38 C 1240.41 1244.08 1240.28 1244.75 1239.94 1245.37 C 1238.73 1245.74 1230.25 1237.21 1228.85 1237.6 C 1226.58 1240.17 1228.75 1240.98 1224.16 1236.67 C 1222.76 1235.36 1215.13 1236.87 1214.85 1233.21 C 1216.15 1230.56 1234.99 1238.5 1236.86 1238.31 L 1238.27 1237.08 z" fill="rgb(254,254,254)" fill-opacity="0.196078" transform="translate(0,0)"></path>
<path d="M 1109.78 1238.56 C 1118.72 1238.43 1113.69 1233.65 1120.52 1231.37 C 1121.39 1235.28 1122.1 1238.16 1124.5 1241.31 C 1121.25 1242.88 1118.27 1244.06 1115.02 1245.49 C 1115 1240.3 1113.46 1243.14 1109.78 1238.56 z" fill="rgb(5,4,4)" fill-opacity="0.929412" transform="translate(0,0)"></path>
<path d="M 1401.2 1582.22 C 1403.17 1582.34 1417.49 1582.02 1419.59 1581.84 C 1417.34 1583.55 1415.41 1585.19 1412.89 1586.5 C 1404.81 1586.73 1408.67 1587.56 1404.94 1588.55 C 1403.31 1588.13 1402.88 1585.71 1399.99 1586.29 C 1398.8 1586.53 1396.87 1586.69 1396.01 1585.54 C 1395.83 1582.93 1399.4 1582.4 1401.2 1582.22 z" fill="rgb(254,254,254)" fill-opacity="0.682353" transform="translate(0,0)"></path>
<path d="M 960.959 663.562 C 967.947 656.31 964.522 660.603 973.108 659.976 C 975.222 657.76 977.689 654.751 981.283 657.122 C 990.037 662.899 992.806 647.692 996.002 658.194 C 984.548 660.317 972.777 661.338 960.959 663.562 z" fill="rgb(5,4,4)" fill-opacity="0.956863" transform="translate(0,0)"></path>
<path d="M 1200.09 1155.1 C 1203.66 1150.21 1206.7 1145.48 1210.12 1140.66 C 1210.83 1142.95 1211.57 1144.73 1212.35 1146.98 C 1212.17 1147.99 1212.33 1148.35 1212.51 1149.4 C 1203.9 1154.53 1205.38 1152.28 1200.86 1161.33 L 1200.09 1155.1 z" fill="rgb(5,4,4)" fill-opacity="0.984314" transform="translate(0,0)"></path>
<path d="M 1214.48 1459.85 C 1214.16 1459.53 1216.41 1461.91 1216.64 1461.82 C 1216.25 1461.97 1217.71 1462.36 1217.52 1462.77 C 1215.09 1469.11 1208.85 1468.07 1203.56 1469.36 C 1203.19 1469.45 1203.67 1466.9 1203.62 1467.28 C 1203.73 1466.24 1202.73 1465.66 1202.05 1464.94 C 1205.63 1463.64 1210.84 1461.41 1214.48 1459.85 z" fill="rgb(254,254,254)" fill-opacity="0.631373" transform="translate(0,0)"></path>
<path d="M 1413.84 1578.65 C 1418.5 1578.1 1420.39 1577.49 1425.1 1577.52 C 1422.9 1579.47 1422.09 1580.15 1419.59 1581.84 C 1417.49 1582.02 1403.17 1582.34 1401.2 1582.22 C 1401.67 1581.64 1402.14 1581.05 1402.61 1580.47 C 1405.36 1579.97 1411.36 1578.59 1413.84 1578.65 z" fill="rgb(254,254,254)" fill-opacity="0.635294" transform="translate(0,0)"></path>
<path d="M 1420.78 1573.2 C 1428.62 1573.95 1428.92 1570.26 1434.08 1570.65 C 1433.12 1572.28 1427.02 1576.61 1425.1 1577.52 C 1420.39 1577.49 1418.5 1578.1 1413.84 1578.65 L 1414.89 1578.05 C 1417.11 1576.78 1419.14 1575.17 1420.78 1573.2 z" fill="rgb(254,254,254)" fill-opacity="0.623529" transform="translate(0,0)"></path>
<path d="M 1420.78 1573.2 C 1423.56 1566.98 1433.97 1566.52 1440.24 1566.38 C 1437.75 1568.38 1436.81 1568.99 1434.08 1570.65 C 1428.92 1570.26 1428.62 1573.95 1420.78 1573.2 z" fill="rgb(254,254,254)" fill-opacity="0.584314" transform="translate(0,0)"></path>
<path d="M 1052.78 1277.88 L 1053.19 1279.1 L 1053.32 1280.52 C 1053.57 1283.14 1059.2 1295.92 1049.39 1293.22 C 1049.65 1290.71 1052 1280.47 1052.78 1277.88 z" fill="rgb(254,254,254)" fill-opacity="0.564706" transform="translate(0,0)"></path>
<path d="M 1264.13 1434.22 C 1264.12 1444.6 1260.64 1443.86 1253.13 1440.35 C 1256.81 1438.29 1260.34 1436.1 1264.13 1434.22 z" fill="rgb(254,254,254)" fill-opacity="0.560784" transform="translate(0,0)"></path>
<path d="M 1327.02 1389.16 C 1330.93 1393.9 1330.17 1390.95 1334.83 1391.22 L 1334.86 1391.3 C 1335.13 1390.84 1322.09 1400.63 1321.24 1396.61 C 1321.22 1396.51 1319.98 1395.41 1319.83 1395.26 C 1322.22 1393.31 1325.01 1391.37 1327.02 1389.16 z" fill="rgb(254,254,254)" fill-opacity="0.141176" transform="translate(0,0)"></path>
<path d="M 1077.67 1245.62 C 1067.95 1247.19 1065.01 1242.45 1075.97 1242.06 C 1077 1242.16 1082.53 1242.28 1083.25 1242.89 C 1083.25 1243.01 1083.25 1243.12 1083.25 1243.24 C 1082.27 1244.5 1079.74 1245.03 1078.22 1245.46 L 1077.67 1245.62 z" fill="rgb(5,4,4)" fill-opacity="0.74902" transform="translate(0,0)"></path>
<path d="M 1186.34 1471.13 C 1188.43 1470.13 1190.16 1469.62 1192.31 1468.77 C 1196.42 1474.7 1192.17 1476.63 1188.58 1475.17 C 1187.72 1474.82 1187.07 1474.11 1186.79 1473.23 C 1186.59 1472.57 1186.55 1472.2 1186.34 1471.13 z" fill="rgb(254,254,254)" fill-opacity="0.643137" transform="translate(0,0)"></path>
<path d="M 1124.36 1225.8 C 1128.63 1226.54 1130.18 1225.9 1128.71 1229.8 L 1125.65 1230.62 C 1122.52 1229.94 1117.51 1229.43 1122.8 1226.08 L 1124.36 1225.8 z" fill="rgb(5,4,4)" fill-opacity="0.505882" transform="translate(0,0)"></path>
<path d="M 1086.77 1706.22 C 1087.46 1705.74 1088.65 1705.3 1088.51 1704.29 C 1088.51 1704.42 1088.52 1704.55 1088.52 1704.69 C 1088.2 1704.32 1087.88 1703.94 1087.56 1703.57 C 1088.63 1701.16 1096.75 1703.24 1099.12 1704.67 C 1094.72 1705.24 1091.26 1705.85 1086.77 1706.22 z" fill="rgb(254,254,254)" fill-opacity="0.905882" transform="translate(0,0)"></path>
<path d="M 1226.67 1227.15 L 1228.75 1226.12 C 1232.07 1229.7 1235.08 1233.38 1238.27 1237.08 L 1236.86 1238.31 C 1235.42 1235.75 1235.16 1235.32 1232.81 1233.52 C 1230.78 1231.35 1228.74 1229.28 1226.67 1227.15 z" fill="rgb(83,77,73)" fill-opacity="0.886275" transform="translate(0,0)"></path>
<path d="M 1755.11 775.821 C 1755.86 780.229 1755.74 784.297 1755.87 788.719 C 1755.9 789.816 1756.92 798.59 1755.05 798.405 C 1754.99 798.4 1754.81 797.987 1754.8 797.98 L 1754.92 797.783 C 1754.87 797.579 1754.81 797.375 1754.75 797.171 C 1755.33 790.185 1754.6 783.305 1755.11 775.821 z" fill="rgb(5,4,4)" fill-opacity="0.443137" transform="translate(0,0)"></path>
<path d="M 1024.09 657.094 L 1026.76 658.195 L 1026 660.242 C 1025.41 661.026 1024.82 661.818 1024.24 662.615 C 1024.15 660.725 1024.08 658.994 1024.09 657.094 z" fill="rgb(210,160,73)" fill-opacity="0.792157" transform="translate(0,0)"></path>
<metadata><recraft-signature>{"signed_by": "recraft", "signature_b64": "yhSiKQhgyp+mPo9Sg1QWCc8q9U8hfbFEDfmaNssepRLnNkVNRUvwcma1UPtQP70LDvz4aAgd/GpaaxG2FlYXBA==", "signing_algo": "Ed25519", "generation_timestamp": 1772775273, "identifier": "6b9548da-cca4-4175-9c1a-5628b6568d0f"}</recraft-signature></metadata></svg>