<svg xmlns="http://www.w3.org/2000/svg" height="1024" preserveAspectRatio="none" style="display: block;" version="1.1" viewBox="0 0 2048 2048" width="1024">
<path d="M 1011.34 252.434 C 1438.07 244.751 1790.25 584.404 1798.03 1011.13 C 1805.8 1437.85 1466.23 1790.11 1039.51 1797.98 C 612.652 1805.85 260.262 1466.15 252.484 1039.29 C 244.706 612.435 584.486 260.119 1011.34 252.434 z" fill="rgb(91,43,211)" transform="translate(0,0)"></path>
<path d="M 987.819 397.116 C 1334.53 376.249 1632.54 640.362 1653.48 987.073 C 1674.41 1333.78 1410.36 1631.84 1063.66 1652.85 C 716.849 1673.87 418.685 1409.72 397.74 1062.91 C 376.794 716.098 641.002 417.989 987.819 397.116 z" fill="rgb(0,0,0)" transform="translate(0,0)"></path>
<path d="M 919.61 1326.55 C 760.649 1275.38 626.803 1121.09 606.444 954.281 C 577.89 720.331 763.835 443.066 1001.53 405.127 C 1084 391.964 1212.09 437.015 1277.06 487.696 C 1164.75 462.251 1028.29 497.005 935.884 563.747 C 836.329 634.391 764.175 737.199 731.583 854.84 C 724.254 881.295 719.816 908.337 715.475 935.4 L 717.716 938.278 C 718.418 933.004 724.554 914.622 726.783 908.572 C 748.863 848.66 785.523 793.586 828.687 746.986 C 910.375 658.795 1012.3 606.647 1133.72 603.56 C 1273.82 599.998 1409.46 655.779 1511.38 751.501 C 1584.9 820.547 1645.45 923.068 1649.61 1025.52 C 1652.35 1093.05 1621.55 1177.28 1588.84 1235.29 C 1583.65 1244.49 1570.76 1266.4 1563.91 1273.65 C 1564.56 1270.84 1565.11 1268 1565.55 1265.15 C 1583.44 1147.12 1553.58 1026.82 1482.56 930.862 C 1408.68 829.046 1306.33 755.831 1183.06 728.279 C 1162.96 723.786 1143.09 719.771 1122.74 716.531 L 1121.47 718.433 C 1223.75 744.162 1333.67 839.059 1387.07 928.363 C 1445.3 1027.44 1461.7 1145.61 1432.67 1256.8 C 1385.52 1442.84 1226.6 1634.41 1023.73 1646.86 C 1015.75 1647.35 1003.48 1646.5 995.092 1645.62 C 932.13 1638.99 870.279 1619.72 815.278 1588.21 C 802.718 1581.01 790.001 1574.57 778.257 1566.45 C 776.213 1565.24 776.824 1565.66 775.171 1563.9 C 778.167 1563.02 779.77 1563.84 783.135 1564.48 C 1019.12 1600.77 1230.66 1445.97 1307.81 1227.76 C 1318.91 1196.38 1326.62 1165.9 1333.59 1133.45 L 1330.94 1135.07 C 1290.97 1244.55 1188.26 1356.06 1082.6 1405.7 C 843.936 1517.83 541.052 1381.24 432.233 1149.73 C 392.059 1064.26 394.481 974.87 426.731 887.327 C 440.193 850.153 465.848 801.708 489.14 770.134 C 487.969 775.394 486.735 780.733 485.698 786.013 C 465.667 888.007 495.004 1004.42 549.909 1090.95 C 622.895 1207.43 739.349 1289.97 873.43 1320.25 C 888.359 1323.55 903.312 1325.51 917.461 1328.56 L 919.61 1326.55 z" fill="rgb(91,43,211)" transform="translate(0,0)"></path>
<path d="M 919.61 1326.55 C 921.585 1327.02 923.351 1327.54 925.287 1328.11 L 923.529 1329.54 C 921.51 1329.19 919.487 1328.86 917.461 1328.56 L 919.61 1326.55 z" fill="rgb(36,18,93)" transform="translate(0,0)"></path>
<path d="M 1117.34 715.55 L 1119.13 715.724 C 1120.44 715.836 1121.55 715.983 1122.74 716.531 L 1121.47 718.433 C 1119.83 718.139 1118.19 717.861 1116.54 717.599 L 1117.34 715.55 z" fill="rgb(19,8,54)" transform="translate(0,0)"></path>
<path d="M 714.794 942.22 C 714.945 939.619 715.09 937.959 715.475 935.4 L 717.716 938.278 C 717.167 939.648 716.762 940.824 716.288 942.223 L 714.794 942.22 z" fill="rgb(19,8,54)" transform="translate(0,0)"></path>
<path d="M 1330.94 1135.07 C 1331.53 1133.37 1332.29 1129.93 1333.63 1128.69 L 1333.72 1128.75 L 1333.52 1129.06 C 1334.46 1130.91 1334.16 1131.28 1333.59 1133.45 L 1330.94 1135.07 z" fill="rgb(36,18,93)" transform="translate(0,0)"></path>
<path d="M 1116.54 717.599 C 1115.86 717.311 1112.53 716.323 1112.45 715.346 C 1113.47 714.271 1116.16 715.2 1117.34 715.55 L 1116.54 717.599 z" fill="rgb(36,18,93)" transform="translate(0,0)"></path>
<path d="M 925.287 1328.11 C 926.491 1328.31 927.69 1328.36 928.519 1329.28 C 928.752 1330.76 923.932 1329.62 923.529 1329.54 L 925.287 1328.11 z" fill="rgb(56,24,147)" transform="translate(0,0)"></path>
<path d="M 716.288 942.223 C 716.061 943.01 715.324 945.957 714.436 946.498 L 714.215 946.328 C 713.773 944.786 714.27 943.692 714.794 942.22 L 716.288 942.223 z" fill="rgb(56,24,147)" transform="translate(0,0)"></path>
<path d="M 1024.13 841.575 C 1027.57 846.064 1034.86 860.608 1037.8 866.292 C 1046.16 882.336 1054.34 898.473 1062.33 914.701 C 1066.39 922.927 1071.35 934.069 1077.08 941.04 C 1081.79 946.763 1087.87 951.212 1094.74 953.981 C 1103.74 957.643 1126.63 961.567 1137.46 963.688 C 1157.01 967.52 1181.31 973.274 1200.98 975.394 C 1186.06 991.153 1168.58 1006.27 1152.89 1021.37 C 1144.58 1029.36 1131.77 1039.83 1125.43 1049.14 C 1121.38 1054.98 1119.04 1061.83 1118.68 1068.92 C 1117.86 1083.14 1125.61 1113.51 1128.88 1128.44 C 1133.01 1147.28 1136.93 1166.17 1140.65 1185.1 C 1124.64 1174.85 1106.27 1164.63 1089.65 1155.22 C 1070.99 1144.65 1046.47 1125.97 1025.38 1124.25 C 1005.13 1126.19 991.284 1137.31 974.026 1147.2 C 952.571 1159.5 931.67 1172.79 909.849 1184.46 C 915.145 1155.79 920.154 1127.16 926.454 1098.69 C 928.219 1090.71 930.457 1081.46 930.76 1073.41 C 931.131 1065.07 928.925 1056.82 924.443 1049.78 C 916.829 1037.62 900.49 1024.8 889.67 1014.65 C 875.564 1001.42 860.819 988.702 847.497 974.6 C 880.071 970.328 916.117 962.464 948.544 956.641 C 973.075 952.235 987.077 913.255 997.739 891.958 C 1006.39 875.084 1015.18 858.29 1024.13 841.575 z" fill="rgb(0,0,0)" transform="translate(0,0)"></path>
<path d="M 1044.69 732.456 C 1048.25 732.876 1050.76 733.174 1054.28 733.912 C 1079.21 735.617 1104.56 742.829 1128.1 751.16 C 1208.28 779.543 1268.78 843.077 1300.25 921.531 C 1279.13 903.946 1265.37 904.288 1239.07 899.847 L 1177.21 889.454 C 1134.47 882.247 1131.54 874.435 1112.24 836.894 C 1103.1 818.876 1093.71 800.984 1084.07 783.225 C 1073.01 762.793 1066.21 746.906 1045.52 734.575 C 1043.96 734.422 1043.71 734.413 1042.21 733.954 C 1043.06 733.454 1043.86 733.004 1044.69 732.456 z" fill="rgb(0,0,0)" transform="translate(0,0)"></path>
<path d="M 1044.69 732.456 C 1048.25 732.876 1050.76 733.174 1054.28 733.912 C 1051.36 734.064 1048.43 734.285 1045.52 734.575 C 1043.96 734.422 1043.71 734.413 1042.21 733.954 C 1043.06 733.454 1043.86 733.004 1044.69 732.456 z" fill="rgb(5,1,15)" transform="translate(0,0)"></path>
<path d="M 1006.68 732.463 L 1006.8 733.29 C 999.496 737.332 993.649 739.289 988.017 745.964 C 974.397 762.106 963.736 785.4 953.952 804.201 C 946.031 819.247 938.003 834.237 929.869 849.169 C 910.149 885.501 907.275 884.282 867.372 890.689 C 847.937 893.847 828.53 897.166 809.151 900.648 C 784.253 905.042 773.896 905.038 752.586 919.53 C 751.907 909.598 787.31 855.431 794.787 846.032 C 852.516 773.455 917.752 743.751 1006.68 732.463 z" fill="rgb(0,0,0)" transform="translate(0,0)"></path>
<path d="M 737.161 960.601 C 740.225 966.56 741.416 979.29 746.832 987.109 C 754.023 997.491 762.378 1004.93 771.526 1013.4 L 813.859 1052.65 C 851.429 1087.85 847.857 1085.7 838.12 1136.25 C 833.118 1162.22 826.249 1194.02 822.986 1220.29 C 823.048 1225.76 823.413 1231.44 823.678 1236.93 C 748.513 1166.83 712.537 1061.42 737.161 960.601 z" fill="rgb(0,0,0)" transform="translate(0,0)"></path>
<path d="M 1311.74 960.548 C 1315.82 969.864 1319.67 1011.22 1319.49 1022.24 C 1318.09 1110.7 1289.05 1174.23 1227.8 1236 C 1227.86 1231.32 1227.71 1226.45 1227.63 1221.75 C 1226.16 1198.06 1216.58 1161.61 1211.98 1138.49 C 1202.74 1092.14 1195.46 1087.95 1233.89 1054.97 C 1256.15 1035.86 1284.34 1011.65 1302.46 988.586 C 1307.47 982.206 1310.37 968.665 1311.74 960.548 z" fill="rgb(0,0,0)" transform="translate(0,0)"></path>
<path d="M 1018.55 1218.14 C 1056.6 1213.23 1118.3 1281.13 1162.61 1282.47 C 1119.89 1306.94 1078.63 1316.67 1029.41 1317.15 C 975.927 1317.4 932.648 1305.68 885.226 1282.34 C 933.941 1277.78 973.216 1233.55 1018.55 1218.14 z" fill="rgb(0,0,0)" transform="translate(0,0)"></path>
<path d="M 1042.21 733.954 C 1041.71 733.685 1040.33 733.253 1040.36 732.413 C 1041.08 731.377 1043.76 732.09 1044.69 732.456 C 1043.86 733.004 1043.06 733.454 1042.21 733.954 z" fill="rgb(36,18,93)" transform="translate(0,0)"></path>
<metadata><recraft-signature>{"signed_by": "recraft", "signature_b64": "AzKk7sLwey2Ba7hvY1zvY6D1O7Me9bdVSZKDK6a/e+FXQra3/UMaeiTc+O+ur9uzV7QIIS7Ut+yZo+h8t1o5CA==", "signing_algo": "Ed25519", "generation_timestamp": 1772775190, "identifier": "7ece05b6-327a-4ff2-bff9-42093db83b70"}</recraft-signature></metadata></svg>