<svg xmlns="http://www.w3.org/2000/svg" height="1024" preserveAspectRatio="none" style="display: block;" version="1.1" viewBox="0 0 2048 2048" width="1024">
<path d="M 0 0 L 2048 0 L 2048 2048 L 0 2048 L 0 0 z" fill="rgb(255,255,255)" transform="translate(0,0)"></path>
<path d="M 1020.84 207.247 C 1036.86 206.239 1085.68 225.541 1103.09 231.623 L 1225.6 274.617 C 1253.84 284.478 1387.48 326.87 1400.92 337.693 C 1407.99 343.391 1413.48 354.14 1414.76 363.05 C 1416.79 377.2 1411.25 387.938 1403.08 398.866 L 1403.06 505.884 C 1423.61 516.871 1434.29 534.706 1426.06 557.691 C 1412.96 591.232 1370.36 577.928 1345.12 580.919 C 1299.01 586.383 1285.61 523.815 1323.25 510.304 L 1322.89 426.584 C 1303.47 432.699 1284.37 440.304 1264.81 445.964 L 1265 579.38 C 1340.1 599.887 1392.87 639.222 1432.55 706.193 C 1498.32 726.733 1553.67 769.282 1593.01 825.278 C 1647.38 902.674 1663.99 990.22 1648.6 1082.4 C 1674.92 1114.1 1696.56 1163.07 1706.72 1203.04 C 1731.1 1298.94 1713.65 1398.79 1662.99 1483.35 C 1611.03 1571.16 1526.47 1634.87 1427.73 1660.6 C 1410.77 1682.83 1396.93 1698.74 1374.49 1715.92 C 1309.9 1765.38 1232.58 1782.28 1153.78 1762.14 C 1098.77 1746.81 1062 1720.03 1026.54 1676.7 C 969.969 1749.57 885.784 1782.27 794.658 1766.8 C 727.298 1755.09 667.361 1717.07 628.06 1661.12 C 582.702 1647.56 545.087 1632.96 505.632 1605.93 C 419.455 1546.88 361.408 1460.71 342.398 1357.73 C 327.845 1278.84 340.167 1197.35 377.393 1126.29 C 385.777 1110.5 394.042 1098.55 404.108 1083.91 C 391.425 1015.43 399.809 944.722 428.155 881.113 C 457.425 816.085 503.842 764.833 565.231 727.8 C 581.268 718.126 600.574 710.696 618.101 704.02 C 619.294 701.607 620.554 699.228 621.878 696.885 C 645.601 654.327 686.551 615.919 730.624 595.09 C 748.983 586.414 768.074 580.526 787.529 575.014 C 789.384 537.255 787.826 486.944 787.645 448.228 C 759.647 438.792 731.712 429.17 703.841 419.365 C 681.641 411.593 648.317 405.333 642.661 380.375 C 637.821 359.017 644.713 340.65 665.85 332.196 C 683.25 325.237 700.091 319.474 717.466 313.339 L 820.74 277.131 L 930.441 238.43 C 954.554 229.659 996.695 213.384 1020.84 207.247 z" fill="rgb(0,0,0)" transform="translate(0,0)"></path>
<path d="M 777.861 1022.97 C 808.91 1004.99 826.732 986.321 843.47 955.172 C 860.52 1028.92 900.596 1106.17 951.096 1161.96 C 963.162 1175.29 971.747 1185.92 985.261 1198.36 L 985.076 1441.55 L 985.424 1510.02 C 985.512 1526.89 986.23 1547.03 983.589 1563.37 C 980.022 1585.25 971.542 1606.03 958.788 1624.16 C 936.007 1655.83 901.392 1676.95 862.806 1682.72 C 817.183 1689.98 767.323 1675.71 730.784 1648.11 C 656.565 1592.04 634.185 1479.9 690.203 1403.96 C 713.017 1372.88 746.102 1350.89 783.59 1341.88 C 806.932 1336.34 831.328 1340.31 846.768 1317.71 C 853.205 1308.3 855.366 1298.51 853.296 1287.33 C 851.117 1275.44 844.205 1264.94 834.141 1258.24 C 818.758 1247.91 805.236 1251.29 788.299 1253.62 C 646.241 1273.13 552.89 1408.54 578.935 1549.01 C 549.685 1535.19 516.684 1507.71 494.846 1483.57 C 444.771 1428.22 418.581 1350.99 422.239 1276.72 C 425.534 1209.82 452.222 1146.42 502.895 1101.83 C 540.559 1068.69 590.896 1049.52 641.356 1053.03 C 684.879 1055.38 724.845 1077.25 751.471 1111.57 C 766.424 1130.84 773.266 1155.97 802.511 1156.09 C 814.365 1156.51 825.549 1150.58 833.68 1141.96 C 857.026 1117.22 837.507 1086.98 821.017 1065.59 C 807.338 1047.86 793.76 1037.31 777.861 1022.97 z" fill="rgb(21,176,100)" transform="translate(0,0)"></path>
<path d="M 1129.33 680.424 C 1143.11 744.195 1168.66 826.831 1207.17 880.316 C 1177.55 931.234 1236.02 994.975 1274.23 1023.42 C 1246.79 1047.36 1189.09 1103.78 1224.57 1142.71 C 1231.7 1150.67 1241.74 1155.4 1252.42 1155.84 C 1285.46 1157.25 1289.93 1130.97 1305.92 1110.99 C 1369.44 1031.59 1493.86 1041.55 1560.64 1111.58 C 1582.65 1134.67 1594.17 1150.98 1607.18 1179.73 C 1669.32 1310.14 1606.54 1487.85 1476.44 1550.17 C 1478.8 1531.27 1480.52 1517.79 1480.09 1498.49 C 1478.46 1444.39 1459.75 1392.18 1426.63 1349.36 C 1412.98 1331.89 1397.15 1316.21 1379.54 1302.73 C 1373.18 1297.9 1365.89 1293.57 1360.28 1289.31 C 1334.9 1274.51 1308.3 1263.42 1279.39 1257.57 C 1245.44 1250.69 1202.14 1244.28 1194.49 1290.12 C 1161.41 1291.12 1101.3 1269.01 1071.05 1255.37 L 1071.38 943.017 L 1070.97 836.544 C 1070.92 764.138 1069.8 730.48 1129.33 680.424 z" fill="rgb(255,255,255)" transform="translate(0,0)"></path>
<path d="M 1607.18 1179.73 C 1669.32 1310.14 1606.54 1487.85 1476.44 1550.17 C 1478.8 1531.27 1480.52 1517.79 1480.09 1498.49 C 1478.46 1444.39 1459.75 1392.18 1426.63 1349.36 C 1412.98 1331.89 1397.15 1316.21 1379.54 1302.73 C 1373.18 1297.9 1365.89 1293.57 1360.28 1289.31 C 1369.78 1288.2 1387.96 1283.08 1397.58 1280.38 C 1462.32 1262.21 1554.42 1221.61 1607.18 1179.73 z" fill="rgb(21,176,100)" transform="translate(0,0)"></path>
<path d="M 1071.05 1255.37 C 1101.3 1269.01 1161.41 1291.12 1194.49 1290.12 C 1196.51 1347.72 1235.93 1334.36 1277.11 1345.48 C 1303.18 1352.72 1327.01 1366.42 1346.38 1385.31 C 1415.23 1451.82 1410.1 1562.29 1345.54 1629.09 C 1284.58 1692.16 1175.98 1708.66 1111.38 1643.9 C 1094.25 1626.57 1082.1 1604.94 1076.2 1581.3 C 1068.46 1549.15 1070.78 1479.32 1070.8 1443.14 L 1071.05 1255.37 z" fill="rgb(21,176,100)" transform="translate(0,0)"></path>
<path d="M 1129.33 680.424 C 1218.37 626.846 1312.2 667.02 1361.79 750.069 C 1375.15 772.437 1403.14 779.184 1424.98 790.113 C 1511.43 831.712 1564.22 917.511 1573.49 1011.8 C 1527.43 983.634 1474.55 968.566 1420.56 968.219 C 1389.14 968.209 1370.02 974.429 1339.23 960.589 C 1319.27 951.664 1302.2 937.327 1289.96 919.201 C 1276.77 899.639 1276.89 876.121 1251.67 868.262 C 1244.26 865.959 1236.36 865.749 1228.83 867.654 C 1220.59 869.832 1213.11 874.209 1207.17 880.316 C 1168.66 826.831 1143.11 744.195 1129.33 680.424 z" fill="rgb(21,176,100)" transform="translate(0,0)"></path>
<path d="M 843.65 656.59 C 883.681 657.461 919.368 670.126 947.564 699.472 C 965.968 718.629 978.374 742.746 983.258 768.859 C 986.661 787.039 985.737 818.151 985.692 837.613 L 985.424 933.806 L 985.29 1087.76 C 985.435 1122.25 986.215 1161.38 985.364 1195.72 C 985.337 1196.6 985.303 1197.48 985.261 1198.36 C 971.747 1185.92 963.162 1175.29 951.096 1161.96 C 900.596 1106.17 860.52 1028.92 843.47 955.172 C 858.361 919.233 868.761 878.721 818.688 865.847 C 817.484 858.177 816.998 839.231 816.956 830.983 C 816.64 767.928 825.584 716.202 843.65 656.59 z" fill="rgb(255,255,255)" transform="translate(0,0)"></path>
<path d="M 482.439 1004.01 C 495.892 904.324 550.563 824.588 644.002 784.466 C 683.532 767.492 677.761 765.775 700.736 731.807 C 733.82 682.893 784.764 657.706 843.65 656.59 C 825.584 716.202 816.64 767.928 816.956 830.983 C 816.998 839.231 817.484 858.177 818.688 865.847 C 804.913 866.484 795.194 868.907 785.231 879.645 C 775.692 889.927 773.868 904.035 768.289 916.423 C 754.302 947.122 721.061 967.958 687.873 970.622 C 672.765 971.835 658.104 969.099 643.231 968.751 C 598.278 967.698 552.445 976.868 512.466 997.753 C 507.829 1000.18 497.557 1006.03 493.016 1007.51 C 489.954 1009.38 486.343 1012.2 482.965 1012.12 C 481.124 1009.21 482.028 1008.42 482.439 1004.01 z" fill="rgb(21,176,100)" transform="translate(0,0)"></path>
<path d="M 1025.28 294.814 C 1030.76 295.535 1062.61 308.729 1070.27 311.398 L 1237.16 369.89 C 1191.9 387.187 1146.34 403.67 1100.49 419.331 C 1079.83 426.599 1044.51 440.291 1024.17 445.424 C 989.204 434.71 954.399 421.773 919.907 409.567 L 809.748 371.292 C 854.957 355.922 900.071 340.273 945.088 324.345 C 969.116 315.831 1002.66 305.102 1025.28 294.814 z" fill="rgb(21,176,100)" transform="translate(0,0)"></path>
<path d="M 1182.48 478.941 L 1184.39 479.057 C 1186.19 483.147 1185.28 563.914 1185.26 572.522 C 1180.68 572.785 1176.11 573.244 1171.57 573.898 C 1130.33 579.629 1083.64 601.925 1054.43 631.738 C 1044.04 642.345 1036.9 652.032 1028.03 663.863 C 994.576 618.638 959.705 595.284 906.226 578.954 C 893.251 575.494 884.018 573.502 870.641 572.563 L 870.963 479.251 L 950.425 507.445 C 967.358 513.551 1008.72 531.245 1025.34 531.746 C 1038.92 532.156 1159.74 486.782 1182.48 478.941 z" fill="rgb(21,176,100)" transform="translate(0,0)"></path>
<metadata><recraft-signature>{"signed_by": "recraft", "signature_b64": "neWJp247VFt96Qax4IN8ltH5EK+APSH/4iKYECp8dB0JYdhtK2prMRo9Bt9/xBuzJCk2VySvLU4X8poaNgRwAw==", "signing_algo": "Ed25519", "generation_timestamp": 1772775008, "identifier": "7746c44b-364c-4359-95ea-212bba9c2578"}</recraft-signature></metadata></svg>