<svg xmlns="http://www.w3.org/2000/svg" height="1024" preserveAspectRatio="none" style="display: block;" version="1.1" viewBox="0 0 2048 2048" width="1024">
<path d="M 0 0 L 2048 0 L 2048 2048 L 0 2048 L 0 0 z" fill="rgb(255,255,255)" transform="translate(0,0)"></path>
<path d="M 968.662 249.415 C 985.684 246.799 1031.29 249.465 1047.95 252.264 C 1126.7 265.494 1188.09 298.55 1235.36 363.34 C 1357.29 343.246 1480.31 396.203 1541.36 505.43 C 1561.86 507.303 1588.21 515.315 1608.09 521.743 C 1622.61 538.622 1637.58 555.823 1650.9 573.64 C 1712.71 656.79 1756.65 751.831 1779.95 852.784 C 1787.18 886.194 1792.49 919.989 1795.85 954.006 C 1784.79 976.6 1776.26 994.2 1761.28 1014.5 C 1777.41 1025.08 1786.94 1038.87 1799.06 1053.82 C 1794.35 1101.22 1792.23 1137.51 1782.42 1185.64 C 1757.6 1302.52 1705.4 1411.84 1630.1 1504.62 C 1598.19 1544.14 1563.3 1579.73 1523.84 1611.82 C 1506.39 1626.01 1483.2 1634.67 1463.1 1644.61 C 1449.68 1651.24 1431.21 1662.21 1416.57 1663.28 C 1376.36 1666.24 1334.84 1663.4 1294.46 1664.34 C 1293.87 1665.19 1293.26 1666.05 1292.65 1666.89 C 1240.48 1739.09 1163.44 1778.72 1076.96 1792.71 C 983.314 1806.25 897.308 1791.63 808.103 1762.67 C 776.34 1752.24 745.065 1740.38 714.374 1727.12 C 708.318 1724.51 687.447 1715.98 683.418 1712.03 C 651.784 1680.99 627.356 1635.68 607.764 1597.26 C 591.471 1602.28 579.535 1605.61 562.765 1606.25 C 522.657 1607.78 522.243 1606.09 493.936 1580.13 C 377.977 1472.72 299.041 1331.32 268.465 1176.24 C 262.406 1145.88 257.317 1114.35 255.934 1083.38 C 264.796 1068 270.291 1060.2 283.306 1048.31 C 275.153 1035.18 254.78 998.139 255.684 983.884 C 259.882 917.715 269.73 847.575 293.143 785.335 C 294.122 782.734 329.925 751.522 335.908 745.572 C 330.842 732.526 327.493 719.484 324.297 705.913 C 342.361 664.812 366.352 623.975 391.282 586.701 C 401.87 572.792 416.215 545.645 430.925 536.613 C 484.804 503.533 538.882 470.949 593.062 438.461 L 715.82 363.697 L 802.377 311.173 C 829.439 294.436 852.47 277.735 882.939 267.565 C 912.017 257.86 938.003 251.801 968.662 249.415 z" fill="rgb(22,69,244)" transform="translate(0,0)"></path>
<path d="M 1517.67 637.427 C 1562.15 632.865 1603.86 655.304 1631 689.389 C 1616.6 696.817 1592.91 712.244 1578.4 721.127 C 1544.5 741.655 1510.72 762.383 1477.07 783.312 L 1182.15 964.129 C 1159.39 978.169 1137.1 993.247 1114.53 1007.64 C 1092.23 1021.86 1072.38 1036.84 1046.86 1045.12 C 1019.76 1053.93 991.3 1051.58 963.045 1051.63 C 946.293 1051.47 929.414 1051.76 912.672 1051.37 C 886.141 1050.75 860.233 1043.81 835.984 1033.14 C 810.149 1021.78 790.052 1005.56 770.774 985.205 C 716.777 918.759 719.991 832.806 778.308 770.19 C 788.437 802.273 814.698 839.734 839.731 861.311 C 905.786 918.246 1009.92 930.701 1084.49 883.188 C 1100.39 873.062 1116.93 863.144 1133.04 853.117 C 1159.71 836.754 1186.3 820.253 1212.81 803.615 L 1398.93 690.787 C 1441.07 665.805 1467.44 641.401 1517.67 637.427 z" fill="rgb(255,255,255)" transform="translate(0,0)"></path>
<path d="M 1682.82 810.008 C 1685.63 815.362 1684.81 841.468 1684.34 847.894 C 1681.15 894.581 1659.42 938.053 1623.99 968.628 C 1604.66 985.31 1574.97 999.408 1552.15 1011.85 C 1498.08 1041.32 1447.55 1076.58 1394.79 1107.77 C 1390.04 1110.58 1346.74 1109.19 1336.95 1109.19 L 1260.06 1109.16 C 1244.98 1109.12 1226.75 1109.47 1211.91 1108.37 C 1195.56 1150.99 1178.17 1179.74 1141.55 1208.06 C 1083.06 1253.3 1024.57 1263.09 952.921 1260.6 C 932.561 1259.89 911.496 1261.55 890.766 1258.54 C 836.436 1250.64 792.417 1225.33 759.067 1182.02 C 744.315 1161.68 738.888 1148.65 731.395 1125.53 C 766.621 1149.65 791.686 1164.33 834.553 1174.67 C 872.76 1183.89 908.992 1183.81 947.92 1183.88 C 996.856 1183.96 1040.77 1185.03 1088.1 1169.44 C 1142.29 1151.6 1189.97 1116.47 1237.23 1085.02 C 1260.85 1069.59 1284.71 1054.53 1308.79 1039.84 L 1682.82 810.008 z" fill="rgb(255,255,255)" transform="translate(0,0)"></path>
<path d="M 1685.21 1306.08 L 1685.74 1306.6 C 1687.52 1311.99 1685.87 1327.06 1684.72 1332.95 C 1676.3 1375.72 1642.39 1392.49 1607.89 1411.98 C 1600.39 1416.21 1592.89 1420.79 1585.56 1425.14 L 1499.22 1476.82 C 1469.81 1494.09 1437.54 1512.42 1409.17 1531.12 C 1364.89 1531.79 1319.86 1530.8 1275.5 1531.33 C 1255.02 1531.57 1234.14 1530.64 1213.7 1531.5 C 1186.64 1614.81 1102.37 1670.68 1017.14 1677.92 C 997.283 1680.17 976.599 1678.18 956.804 1679.03 C 874.429 1682.54 807.44 1663.62 755.837 1593.95 C 743.263 1576.3 737.043 1561.48 730.027 1541.51 C 810.696 1597.07 860.8 1602.88 954.941 1602.93 C 984.682 1602.94 1014.45 1603.51 1044.06 1600.22 C 1077.61 1596.5 1111.6 1587.12 1141.82 1571.87 C 1151.62 1566.93 1160.85 1560.92 1170.43 1555.59 C 1183.14 1548.53 1196.41 1542.11 1208.67 1534.3 C 1242.07 1513.07 1269.51 1484.49 1294.05 1453.79 C 1334.44 1452.2 1384.47 1455.77 1424.88 1451.73 C 1435.27 1450.69 1470.64 1428.12 1482.98 1421.26 L 1625.37 1341.04 C 1645.49 1329.53 1664.79 1317.17 1685.21 1306.08 z" fill="rgb(255,255,255)" transform="translate(0,0)"></path>
<path d="M 1277.53 492.407 C 1278.66 492.235 1281 492.11 1282.2 492.084 C 1328.69 491.062 1367.38 506.529 1401.37 537.147 C 1373.15 546.804 1340.01 571.001 1313.72 586.928 C 1248.98 625.855 1184.85 665.802 1121.36 706.755 L 1059.46 745.905 C 1046.8 753.914 1034.53 762.24 1021.38 769.424 C 971.738 793.445 870.309 758.794 918.216 690.507 C 923.754 682.614 969.824 657.418 981.533 650.223 C 1028.18 621.31 1075.01 592.694 1122.02 564.376 C 1140.65 553.18 1159.22 541.891 1177.74 530.509 C 1214.3 508.097 1233.53 496.66 1277.53 492.407 z" fill="rgb(255,255,255)" transform="translate(0,0)"></path>
<path d="M 988.687 378.442 C 1030.58 375.971 1076.58 391.429 1109.14 417.756 L 867.839 567.439 C 838.208 585.978 809.193 605.583 779.842 624.538 C 773.773 628.457 765.904 631.723 759.247 634.538 C 726.543 648.236 692.121 652.377 665.455 623.998 C 654.698 612.542 649.015 597.232 649.689 581.532 C 650.941 553.36 664.275 548.747 685.624 536.09 C 693.143 531.631 700.968 526.774 708.466 522.221 L 798.289 467.7 L 875.74 420.722 C 917.046 395.703 937.955 381.552 988.687 378.442 z" fill="rgb(255,255,255)" transform="translate(0,0)"></path>
<path d="M 1685.88 1083 C 1686.47 1087.85 1683.97 1099.53 1682.69 1104.46 C 1673.99 1138.09 1651.07 1173.56 1620.43 1190.84 C 1546.47 1232.55 1474.29 1277.32 1400.83 1319.59 C 1398.26 1321.08 1359.34 1320.67 1353.23 1320.71 C 1307.94 1321.08 1262.64 1320.93 1217.35 1320.25 C 1217.19 1319.82 1217.02 1319.39 1216.86 1318.96 C 1252.53 1290.67 1263.56 1278.67 1291.42 1241.93 C 1322.27 1241.58 1353.27 1242.47 1384.13 1242.27 C 1393.79 1242.21 1403.82 1242.62 1413.33 1240.7 C 1420.35 1239.21 1427.13 1236.75 1433.46 1233.37 C 1451.19 1224.12 1474.07 1207.91 1492.97 1197.12 C 1540.96 1169.72 1590.14 1143.29 1637.57 1115.16 C 1654.63 1105.04 1665.98 1094.03 1685.88 1083 z" fill="rgb(255,255,255)" transform="translate(0,0)"></path>
<path d="M 1210.43 1323.99 C 1211.22 1327.63 1206 1338.61 1204.34 1342.29 C 1190.5 1372.64 1169.3 1399.05 1142.67 1419.15 C 1109.94 1444.28 1063.51 1463.25 1022.27 1466.98 C 1001.01 1469.52 978.855 1467.37 957.655 1468.28 C 874.741 1471.83 809.151 1456.26 756.132 1386.4 C 742.303 1367.14 737.818 1354.85 729.754 1333.22 C 817.652 1401.5 924.402 1396.42 1030.16 1392.51 C 1093.03 1390.19 1156.77 1355.36 1210.43 1323.99 z" fill="rgb(255,255,255)" transform="translate(0,0)"></path>
<path d="M 521.224 626.903 C 523.537 629.651 526.915 644.378 528.723 649.066 C 549.493 702.905 582.27 733.941 632.496 758.757 C 611.703 797.042 606.137 822.426 600.715 864.506 C 591.361 866.571 587.638 867.079 578.157 867.336 C 577.338 867.327 576.519 867.308 575.701 867.279 C 545.281 865.937 516.581 852.794 495.691 830.641 C 454.311 785.947 456.673 713.241 487.747 663.725 C 496.9 649.141 508.621 638.304 521.224 626.903 z" fill="rgb(255,255,255)" transform="translate(0,0)"></path>
<path d="M 378.35 889.516 C 381.263 891.365 395.735 912.47 399.354 917.088 C 418.268 940.766 442.055 960.098 469.099 973.774 C 510.503 994.7 566.978 1002.61 611.359 988.056 C 619.176 1007.55 625.764 1020.16 637.58 1037.26 C 630.63 1041.17 626.918 1043.52 620.467 1048.19 C 612.641 1054.04 606.055 1060.62 599.493 1067.8 C 581.966 1073.04 567.009 1074.04 548.857 1073.84 C 462.062 1072.9 385.37 1009.16 378.118 921.113 C 377.257 910.656 377.944 899.993 378.35 889.516 z" fill="rgb(255,255,255)" transform="translate(0,0)"></path>
<path d="M 375.249 1150.35 C 382.469 1153.72 391.264 1161.75 398.291 1166.22 C 420.271 1180.18 450.457 1193.39 475.546 1199.24 C 513.464 1208.08 571.018 1212.14 607.703 1198.5 C 615.543 1212.75 622.761 1229.38 631.149 1242.89 C 626.335 1245.9 621.295 1249.74 616.655 1253.09 C 609.754 1258.49 600.196 1267.3 591.744 1269.58 C 555.824 1279.28 504.205 1273.3 471.388 1257.3 C 421.175 1232.82 393.775 1201.37 375.249 1150.35 z" fill="rgb(255,255,255)" transform="translate(0,0)"></path>
<path d="M 374.303 1353.48 C 382.422 1357.47 394.157 1367.82 402.629 1372.98 C 454.292 1404.41 552.049 1425.43 608.388 1400.75 C 614.493 1414.81 621.224 1426.53 629.419 1439.36 L 615.823 1450.15 C 610.788 1454.16 602.333 1464.11 597.637 1465.75 C 564.748 1477.26 516.42 1471.29 485.308 1459.63 C 428.51 1438.34 399.024 1406.03 374.303 1353.48 z" fill="rgb(255,255,255)" transform="translate(0,0)"></path>
<metadata><recraft-signature>{"signed_by": "recraft", "signature_b64": "r1T6xGmQ4PsHxhJMlNkXnVmi660HledYKbVzoFfImEQS+BmbkyDN+zYu+zv39152OTM/e4/TFq2Hdm2M4GgXBg==", "signing_algo": "Ed25519", "generation_timestamp": 1772774857, "identifier": "5833c05c-ef04-49dc-a056-69c4467ba542"}</recraft-signature></metadata></svg>