<svg xmlns="http://www.w3.org/2000/svg" height="1024" preserveAspectRatio="none" style="display: block;" version="1.1" viewBox="0 0 2048 2048" width="1024">
<path d="M 0 0 L 2048 0 L 2048 2048 L 0 2048 L 0 0 z" fill="rgb(255,255,255)" transform="translate(0,0)"></path>
<path d="M 1206.03 274.467 C 1230.49 273.953 1254.91 276.901 1278.55 283.223 C 1336.34 298.67 1387.47 332.666 1424.07 379.989 C 1435.76 395.299 1444.32 410.189 1453.75 426.837 C 1461.57 427.88 1469.66 429.008 1477.39 430.524 C 1546.82 443.66 1608.08 484.103 1647.44 542.791 C 1680.89 593.312 1696.33 653.632 1691.28 714.01 C 1689.69 732.164 1684.47 755.775 1680.9 774.106 C 1833.62 864.752 1857.87 1087.91 1745.27 1219.42 C 1725.66 1242.32 1706.4 1258.27 1681.67 1275.31 C 1684.89 1290.54 1687.77 1304.47 1689.75 1319.92 C 1709.25 1471.64 1604.31 1603.66 1453.22 1621.53 C 1442.53 1640.62 1433.88 1656.34 1419.64 1673.33 C 1373.07 1729.83 1305.85 1765.37 1232.94 1772.05 C 1151.64 1778.72 1086.04 1755.64 1024.58 1703.38 C 973.65 1750.24 912.338 1772.47 843.383 1773.19 C 733.407 1772.74 649.945 1716.01 597.643 1621.71 C 506.916 1607.04 440.61 1569.18 393.728 1486.61 C 354.179 1416.95 351.086 1350.87 371.902 1274.95 C 335.193 1252.08 304.288 1221 281.615 1184.17 C 199.676 1050.2 234.443 857.849 372.018 774.201 C 369.411 764.935 367.161 755.572 365.273 746.132 C 350.32 670.198 362.755 604.47 406.139 540.248 C 438.544 492.278 488.656 454.919 543.922 437.326 C 562.174 431.515 578.663 429.164 597.263 425.594 C 609.324 404.134 621.683 385.338 638.037 366.723 C 685.759 312.835 752.796 279.926 824.617 275.13 C 901.451 270.675 968.627 292.321 1026.33 343.937 C 1076.94 297.381 1138.38 276.907 1206.03 274.467 z" fill="rgb(28,35,247)" transform="translate(0,0)"></path>
<path d="M 616.496 564.42 L 625.819 564.198 C 656.943 593.904 686.825 624.365 717.42 654.613 C 719.13 688.281 718.083 730.667 718.041 765.003 L 717.742 957.077 L 494.584 957.44 L 494.338 1088.05 C 568.321 1087.36 643.89 1087.8 717.889 1088.24 L 718.045 1390.78 C 708.108 1402.55 693.175 1416.69 682.145 1427.49 C 663.548 1445.7 645.271 1463.18 627.232 1481.99 C 579.97 1481.58 547.077 1464.73 518.412 1427.51 C 492.855 1390.84 491.388 1359.81 503.897 1318.13 C 539.982 1317.36 578.092 1317.92 614.339 1317.87 L 614.414 1188.02 L 553.054 1188.3 C 540.255 1188.36 525.656 1189.19 513.145 1187.27 C 377.643 1166.54 329.304 1003.29 422.359 906.537 C 477.421 849.284 541.826 859.495 613.109 859.694 L 613.703 727.252 C 576.802 727.584 539.466 727.175 502.533 727.046 C 500.077 716.803 496.152 700.936 495.373 690.849 C 493.309 664.151 507.114 631.675 524.383 611.814 C 550.117 582.217 577.668 567.433 616.496 564.42 z" fill="rgb(255,255,255)" transform="translate(0,0)"></path>
<path d="M 1422.39 564.346 C 1461.22 565.106 1492.14 574.985 1519.21 603.577 C 1555.9 642.34 1563.81 677.564 1549.06 727.383 C 1511.22 727.469 1468.7 728.503 1431.22 727.042 L 1431.63 859.828 L 1492.68 859.856 C 1505.98 859.875 1522.04 859.474 1535.02 860.76 C 1570.72 864.349 1604.09 880.147 1629.5 905.489 C 1661.23 937.332 1678.77 980.639 1678.14 1025.59 C 1677.95 1070.56 1659.78 1113.59 1627.69 1145.1 C 1609.1 1163.28 1586.71 1175.67 1562.01 1183.62 C 1558.49 1175.06 1562.19 984.616 1560.63 957.048 L 1328.4 956.964 L 1327.65 848.953 L 1197.95 848.978 L 1197.93 1075.79 C 1164.53 1075.84 1126.07 1076.72 1093.03 1075.53 L 1093.11 743.12 L 1327.71 743.037 L 1327.99 657.797 C 1340.01 644.128 1357.59 627.678 1370.84 614.488 C 1385.4 599.995 1406.65 576.853 1422.39 564.346 z" fill="rgb(255,255,255)" transform="translate(0,0)"></path>
<path d="M 1327.94 1089.01 C 1362.69 1088.6 1396.31 1088.03 1431.05 1088.95 L 1431.27 1317.45 L 1548.13 1317.72 C 1552.99 1334.37 1557.7 1350.32 1556.07 1367.93 C 1550.99 1422.72 1504.1 1471.81 1449.59 1479.4 C 1439.67 1480.78 1430.63 1481.29 1420.58 1481.2 C 1390.81 1454.65 1357.88 1418.57 1328.77 1390.32 C 1328.05 1363.14 1327.81 1335.95 1328.03 1308.77 L 1197.96 1308.94 C 1197.98 1355.9 1197.15 1406.02 1198.24 1452.73 C 1203.19 1459.47 1212.36 1467.97 1218.47 1474.08 L 1250.4 1506.1 C 1266.67 1522.38 1283.07 1538.52 1299.59 1554.54 C 1305.37 1560.22 1313.96 1569.85 1319.72 1574.68 C 1297.27 1606 1269.19 1625.45 1230.53 1632 C 1194.26 1638.39 1156.95 1629.76 1127.17 1608.08 C 1111.78 1596.93 1103.2 1587.24 1092.48 1571.98 C 1093.45 1567.35 1093.1 1542.52 1093.1 1536.23 L 1093.12 1456.62 L 1093.07 1289.77 C 1093.04 1269.77 1094.21 1226.03 1092.39 1207.37 L 1327.55 1206.97 C 1328.06 1167.68 1327.33 1128.15 1327.94 1089.01 z" fill="rgb(255,255,255)" transform="translate(0,0)"></path>
<path d="M 834.619 413.41 C 841.448 412.454 855.244 413.382 862.029 414.523 C 901.975 421.242 932.621 438.631 956.553 470.937 C 958.306 592.01 957.056 715.668 957.023 836.979 L 854.766 836.912 C 853.411 836.75 854.23 836.951 852.449 835.899 C 851.408 831.192 851.957 779.788 851.952 771.459 C 852.092 711.642 851.93 651.823 851.466 592.007 C 846.931 587.651 842.191 583.218 837.812 578.728 C 802.932 542.96 766.069 509.314 731.702 473.056 C 757.909 435.156 789.016 417.763 834.619 413.41 z" fill="rgb(255,255,255)" transform="translate(0,0)"></path>
<path d="M 851.926 1321.03 C 886.924 1320.91 921.923 1321.02 956.92 1321.34 L 956.797 1574.95 C 928.425 1617.44 884.495 1634.53 834.811 1634.01 C 829.942 1633.56 825.091 1632.93 820.266 1632.14 C 779.493 1625.73 753.674 1606.26 730.155 1573.89 C 741.904 1557.64 759.45 1542.95 773.543 1528.61 C 798.521 1503.21 827.201 1477.87 851.179 1452.01 C 852.884 1410.79 851.85 1362.67 851.926 1321.03 z" fill="rgb(255,255,255)" transform="translate(0,0)"></path>
<path d="M 1198.2 413.404 C 1231.94 408.227 1277.28 426.061 1301.43 449.112 C 1308.9 456.234 1315.31 464.425 1321.68 472.523 L 1198.63 594.644 C 1196.21 599.32 1196.93 605.267 1197 610.666 C 1162.53 610.164 1127.25 611.237 1093 610.323 L 1093.26 474.778 C 1095.89 470.93 1098.7 467.2 1101.66 463.597 C 1127.3 432.316 1158.46 417.261 1198.2 413.404 z" fill="rgb(255,255,255)" transform="translate(0,0)"></path>
<path d="M 886.532 968.477 C 909.976 968.304 933.421 968.261 956.866 968.35 L 956.948 1190.82 L 924.5 1190.9 L 851.862 1191 C 850.992 1117.73 851.893 1042.41 851.888 968.956 L 886.532 968.477 z" fill="rgb(255,255,255)" transform="translate(0,0)"></path>
<metadata><recraft-signature>{"signed_by": "recraft", "signature_b64": "qHwWGnK+Qi6foB7aZTo6nwkZl5DXKpND1oxixD2M7clTR3an6fRPQL8cwMhkZRsn+ObOt5N3OIEkkRySy6ocDA==", "signing_algo": "Ed25519", "generation_timestamp": 1772774877, "identifier": "e3c414e5-bb21-437d-af91-5ddaf51bfce9"}</recraft-signature></metadata></svg>