<svg xmlns="http://www.w3.org/2000/svg" height="1024" preserveAspectRatio="none" style="display: block;" version="1.1" viewBox="0 0 2048 2048" width="1024">
<path d="M 0 0 L 2048 0 L 2048 2048 L 0 2048 L 0 0 z" fill="rgb(255,255,255)" transform="translate(0,0)"></path>
<path d="M 1011.17 281.408 C 1090.65 273.597 1165.94 306.602 1222.38 360.749 C 1265.3 352.362 1309.61 354.56 1351.49 367.154 C 1422.73 388.743 1482.27 438.136 1516.64 504.17 C 1520.31 511.225 1538.99 558.357 1540.65 559.973 C 1572.52 591.021 1592.63 619.678 1613.82 658.676 C 1626.32 664.952 1639.42 671.337 1651.03 679.116 C 1716.27 723.339 1758.85 793.87 1768.14 871.976 C 1774.7 927.06 1763.07 961.641 1745.56 1011.94 C 1775.17 1070.03 1790.43 1111.87 1787.72 1179.1 C 1785.63 1234.75 1766.26 1288.37 1732.31 1332.52 C 1723.37 1344.33 1713.55 1352.72 1705.13 1363.76 C 1703.96 1365.29 1696.26 1385.06 1694.98 1388.22 C 1689.34 1402.38 1683.1 1416.29 1676.27 1429.91 C 1639.52 1502.68 1590.12 1568.33 1530.38 1623.8 C 1489.77 1583.24 1448.71 1543.11 1408.25 1502.39 C 1396.18 1490.24 1383.69 1478.25 1372.08 1465.68 C 1399.27 1395.02 1403.32 1317.54 1383.63 1244.43 C 1358.49 1152.08 1297.7 1073.51 1214.63 1025.99 C 1131.95 978.842 1034.05 966.119 942.069 990.566 C 850.259 1015.81 772.077 1076.19 724.435 1158.63 C 677.11 1241.28 664.764 1339.42 690.141 1431.22 C 717.358 1540.32 806.187 1636.93 910.863 1676.51 C 1007.03 1712.87 1097.05 1705.68 1189.34 1663.72 C 1225.35 1700.24 1263.07 1736.1 1299.51 1772.3 C 1279.12 1782.03 1238.58 1795.87 1216.79 1802.23 C 1040 1852.6 850.441 1830.76 689.73 1741.52 C 558.971 1669.47 437.871 1551.12 376.855 1412.85 C 369.749 1396.74 363.802 1379.37 355.664 1363.77 C 350.19 1353.29 337.121 1342.64 329.909 1333.01 C 309.523 1308.63 294.147 1277.08 285.447 1246.71 C 261.776 1164.09 273.611 1087.39 315.302 1012.71 C 311.981 1005 308.832 997.218 305.856 989.368 C 281.966 924.844 284.666 853.475 313.364 790.94 C 335.234 742.453 371.101 701.613 416.357 673.664 C 424.887 668.41 435.768 662.038 444.957 658.573 C 464.62 618.716 489.991 589.448 519.939 557.657 C 522.535 554.902 531.806 526.954 534.949 520.053 C 554.852 475.342 585.942 436.514 625.22 407.318 C 667.105 376.132 724.843 356.068 777.21 355.385 C 798.577 355.106 816.644 357.174 837.62 360.192 C 888.556 312.252 940.822 287.728 1011.17 281.408 z" fill="rgb(17,181,146)" transform="translate(0,0)"></path>
<path d="M 769.714 486.365 C 810.992 481.626 864.43 497.374 892.589 528.235 C 907.833 544.943 928.513 574.821 941.519 593.999 C 970.02 636.026 965.913 687.212 966.013 735.715 L 966.009 852.749 C 753.047 890.4 588.49 1049.29 551.964 1264.59 C 548.347 1285.91 547.004 1306.16 544.849 1327.6 C 468.03 1314.73 422.546 1271.03 405.837 1195.23 C 401.054 1167.01 403.01 1148.32 407.527 1120.54 C 444.603 1143.56 495.798 1177.96 538.856 1148.77 C 579.237 1122.35 574.181 1065.41 532.081 1044.12 C 516.837 1036.41 501.456 1032.13 486.334 1023.08 C 398.145 970.271 400.922 830.499 486.135 776.476 C 524.443 752.19 571.791 742.031 616.326 752.838 C 632.093 756.884 646.75 762.676 662.711 766.224 C 701.137 774.767 739.641 756.94 747.106 715.54 C 749.967 698.83 746.078 681.667 736.293 667.822 C 715.305 637.733 660.331 627.546 625.218 621.516 C 633.411 597.713 653.656 562.796 669.064 542.371 C 693.266 510.288 730.296 491.765 769.714 486.365 z" fill="rgb(255,255,255)" transform="translate(0,0)"></path>
<path d="M 1268.99 486.422 C 1286.42 485.534 1310.79 490.326 1326.87 496.955 C 1388.63 522.425 1406.65 565.37 1431.21 621.819 C 1388.68 626.031 1316.9 644.494 1310.98 695.887 C 1305.2 746.053 1353.7 779.349 1399.17 765.345 C 1434.64 754.422 1458.26 744.315 1496.85 749.936 C 1542.37 756.568 1580.86 775.968 1609.19 813.058 C 1632.84 844.149 1643.15 883.362 1637.86 922.06 C 1631.47 967.077 1603.03 1007.86 1561.73 1027.68 C 1548.65 1033.96 1532.22 1037.45 1520.91 1046.06 C 1507.64 1056.16 1496.85 1071.55 1495.19 1088.47 C 1493.57 1105.01 1496.2 1122.84 1506.89 1136.15 C 1518.12 1150.14 1533.22 1157.61 1550.81 1159.5 C 1583.06 1162.96 1629.14 1139.34 1653.49 1119.41 C 1657.81 1142.77 1659.37 1155.62 1657.89 1179.25 C 1650.23 1255.21 1600.25 1311.56 1525.08 1326.18 C 1524.35 1236.28 1486.63 1126.1 1433.32 1054.22 C 1345.79 936.207 1235.21 874.017 1092.67 851.062 L 1092.3 745.335 C 1092.33 709.511 1089.66 667.321 1099.49 632.944 C 1108.83 600.276 1136.79 563.865 1158.24 536.984 C 1184.18 504.483 1227.99 488.936 1268.99 486.422 z" fill="rgb(255,255,255)" transform="translate(0,0)"></path>
<path d="M 1013.03 413.388 C 1042.04 409.518 1069.7 416.866 1095.72 429.065 C 1076.45 441.358 1052.2 471.819 1038.16 490.437 L 1029.5 502.906 C 1007.97 469.494 992.904 454.806 964.078 427.786 C 979.956 419.296 995.335 415.396 1013.03 413.388 z" fill="rgb(255,255,255)" transform="translate(0,0)"></path>
<path d="M 539.732 1443.47 C 546.11 1443.78 552.492 1443.86 558.892 1444.11 C 560.236 1458.33 561.248 1461.69 565.123 1475.43 C 561.54 1473.08 541.955 1448 539.732 1443.47 z" fill="rgb(255,255,255)" transform="translate(0,0)"></path>
<path d="M 1512.41 1443.09 C 1516.7 1443.12 1520.99 1443.07 1525.27 1442.91 C 1521.53 1447.84 1518.01 1452.8 1514.33 1457.69 C 1512.27 1460.3 1510.29 1462.97 1508.2 1465.53 C 1509.93 1458.11 1511.34 1450.62 1512.41 1443.09 z" fill="rgb(255,255,255)" transform="translate(0,0)"></path>
<path d="M 1035.78 1045.44 C 1078.69 1043.87 1128.06 1057.64 1166.18 1076.95 C 1236.36 1112.5 1289.53 1174.48 1314.01 1249.25 C 1339.99 1329.81 1330.41 1405.47 1292.13 1479.76 L 1455.81 1641.44 L 1492.76 1678.27 C 1512.24 1697.58 1523.91 1703.84 1526.13 1735.11 C 1529.5 1782.59 1475.38 1820.02 1433.34 1797.53 C 1417.1 1788.84 1389.55 1758.39 1374.6 1743.35 C 1358.92 1727.68 1343.12 1712.14 1327.17 1696.75 L 1203.61 1572.92 C 1162.28 1606.54 1100.79 1625.6 1048.1 1628.23 C 972.495 1632.3 898.45 1605.67 842.757 1554.37 C 784.483 1501.82 749.974 1427.92 747.1 1349.5 C 743.116 1273.21 769.88 1198.51 821.402 1142.11 C 878.762 1079.74 951.693 1049.15 1035.78 1045.44 z" fill="rgb(17,181,146)" transform="translate(0,0)"></path>
<path d="M 1029.51 1176.44 C 1117.89 1171.71 1193.35 1239.54 1198.05 1327.92 C 1202.74 1416.3 1134.88 1491.75 1046.5 1496.41 C 958.162 1501.07 882.762 1433.26 878.071 1344.92 C 873.379 1256.58 941.171 1181.16 1029.51 1176.44 z" fill="rgb(255,255,255)" transform="translate(0,0)"></path>
<metadata><recraft-signature>{"signed_by": "recraft", "signature_b64": "2PZrnph51xLh+7kCTONl4EbHprpRypaV9anGkf3FRFlV54JUoHiZmTK3+phPlDfOElnEMxHJaUjbU3sUMfx5Bg==", "signing_algo": "Ed25519", "generation_timestamp": 1772774939, "identifier": "bec4a85c-323d-4bca-ad8c-c8afda3a5bb1"}</recraft-signature></metadata></svg>