<svg xmlns="http://www.w3.org/2000/svg" height="1024" preserveAspectRatio="none" style="display: block;" version="1.1" viewBox="0 0 2048 2048" width="1024">
<path d="M 0 0 L 991.524 0 L 1055.88 0 L 2048 0 L 2048 981.297 L 2048 1060.89 L 2048 2048 L 1062.66 2048 L 984.363 2048 L 0 2048 L 0 1065.74 L 0 977.267 L 0 0 z" fill="rgb(78,177,180)" transform="translate(0,0)"></path>
<path d="M 0 1065.74 L 0.175135 1066.81 C 2.86633 1084.3 2.23413 1106.12 4.35607 1124.09 C 8.6288 1160.3 13.8298 1199.28 21.439 1234.86 C 74.2339 1481.4 215.576 1700.02 418.712 1849.36 C 546.079 1942.26 692.914 2004.98 848.101 2032.75 C 887.986 2039.59 927.763 2044.61 968.148 2046.48 C 973.16 2046.71 979.497 2047.05 984.363 2048 L 0 2048 L 0 1065.74 z" fill="rgb(248,249,249)" transform="translate(0,0)"></path>
<path d="M 1055.88 0 L 2048 0 L 2048 981.297 C 2046.71 975.248 2044.87 941.393 2043.97 931.88 C 2041.18 902.304 2037.1 872.863 2031.77 843.639 C 2002.59 679.214 1933.51 524.46 1830.59 392.954 C 1684.66 207.643 1479.65 77.9207 1249.7 25.392 C 1207.23 16.428 1164.31 9.76301 1121.12 5.42615 C 1100.09 3.31667 1076.2 2.55687 1055.88 0 z" fill="rgb(248,249,249)" transform="translate(0,0)"></path>
<path d="M 2048 1060.89 L 2048 2048 L 1062.66 2048 C 1069.6 2046.58 1101.28 2045.34 1110.42 2044.63 C 1139.15 2042.33 1167.76 2038.77 1196.18 2033.96 C 1362.03 2004.71 1518.28 1935.58 1651.46 1832.52 C 1846.51 1681.52 1980.47 1465.17 2028.72 1223.27 C 2035.6 1188.08 2040.71 1152.57 2044.03 1116.87 C 2045.53 1099.88 2045.85 1077.66 2047.86 1061.94 L 2048 1060.89 z" fill="rgb(248,249,249)" transform="translate(0,0)"></path>
<path d="M 0 0 L 991.524 0 L 990.336 0.160112 C 972.274 2.48161 952.278 2.47853 934.003 4.44222 C 896.141 8.51056 856.471 13.1931 819.17 20.8052 C 580.292 70.1819 366.613 202.544 216.01 394.429 C 114.986 524.73 46.4752 677.235 16.1582 839.301 C 10.8879 869.036 7.60519 898.757 4.14978 928.683 C 2.85266 939.917 1.87186 967.832 0 977.267 L 0 0 z" fill="rgb(248,249,249)" transform="translate(0,0)"></path>
<path d="M 983.403 69.4518 C 1510.6 46.9204 1956.2 456.106 1978.59 983.305 C 2000.98 1510.5 1591.68 1956 1064.47 1978.25 C 537.467 2000.49 92.1762 1591.38 69.7934 1064.38 C 47.4106 537.374 456.408 91.9747 983.403 69.4518 z" fill="rgb(1,0,28)" transform="translate(0,0)"></path>
<path d="M 773.535 205.411 C 787.091 203.696 816.036 205.838 828.852 207.502 C 908.374 217.828 975.389 260.636 1023.67 323.894 C 1107.27 219.243 1235.94 176.931 1363.24 224.676 C 1459.66 260.834 1519.44 320.16 1563.5 412.251 C 1578.23 417.052 1594.48 425.419 1607.7 433.412 C 1690.09 483.2 1737.7 575.081 1744.03 669.301 C 1752.41 675.403 1764.27 687.838 1772.27 695.72 C 1857.26 779.53 1905.23 914.835 1898.88 1033.08 C 1896.27 1081.69 1868.51 1149.11 1841.73 1188.55 C 1851.23 1276.28 1839.21 1344.73 1801.19 1424.53 C 1761.95 1506.9 1698.25 1574.99 1615.96 1615.56 C 1600.48 1623.19 1582.3 1629.11 1565.81 1634.73 C 1550.78 1665.12 1539.5 1685.14 1517.58 1711.46 C 1457.09 1784.09 1371.1 1833.58 1276.5 1842.49 C 1204.81 1851.82 1122.52 1818.86 1069.53 1771.51 C 1053.18 1756.9 1039.63 1740.25 1024.33 1724.67 C 989.502 1765.55 953.504 1798.02 903.719 1820.13 C 832.359 1851.81 752.946 1849.69 680.915 1821.86 C 593.672 1788.35 523.49 1721.29 486.054 1635.67 C 400.866 1609.66 339.643 1562.02 287.689 1490.53 C 238.061 1422.77 209.09 1342.11 204.266 1258.26 C 203.113 1239 203.204 1210.17 206.194 1191.12 C 162.873 1128.23 144.838 1063.77 149.306 987.55 C 155.229 886.497 193.452 787.616 260.393 711.226 C 273.703 696.037 289.275 682.376 304.465 669.04 C 305.602 633.637 313.464 598.774 327.631 566.309 C 360.694 490.959 408.634 442.318 485.671 412.288 C 501.799 378.012 516.062 355.544 540.53 326.53 C 598.598 256.277 682.672 212.574 773.535 205.411 z" fill="rgb(78,177,180)" transform="translate(0,0)"></path>
<path d="M 1073.12 798.844 L 1073.34 576.285 C 1073.34 535.783 1069.59 474.294 1078.52 437.015 C 1097.25 358.866 1177.4 296.162 1258.29 300.461 C 1340.25 302.526 1399.54 339.65 1447.33 404.336 C 1426.63 409.269 1409.92 413.295 1390.15 421.844 C 1322.38 451.149 1270.68 506.091 1233.2 568.448 C 1208.16 610.107 1184.08 670.286 1179.49 718.47 C 1203.97 701.574 1226.48 686 1252.15 670.58 C 1268.72 660.628 1292.53 648.677 1307.54 637.914 C 1312.15 634.605 1328.84 604.525 1334.34 596.904 C 1378.41 535.876 1437 485.77 1517.07 498.895 C 1552.22 504.906 1584.29 528.745 1603.88 557.788 C 1635.84 606.043 1649.41 664.156 1639.1 721.327 C 1619.33 830.951 1518.67 901.474 1412.51 912.301 C 1397.8 913.802 1378.87 912.681 1365.41 918.405 C 1350.64 924.69 1339.77 940.775 1336.88 956.222 C 1331.27 982.73 1350.25 1010.3 1377.01 1014.57 C 1389.45 1016.56 1403.75 1014.52 1416.33 1013.34 C 1484.26 1005.04 1556.2 975.735 1610.96 934.936 C 1661.01 897.647 1698.54 845.74 1722.18 788.385 C 1731.68 799.314 1741.07 810.527 1748.58 822.923 C 1784.37 882 1800.44 956.395 1798.32 1024.87 C 1793.2 1189.74 1601.92 1277.32 1458.41 1233.09 C 1377.83 1208.29 1274.61 1228.08 1211.63 1284.74 C 1182.39 1311.04 1129.7 1362.52 1163.42 1404.54 C 1180.59 1425.44 1217.52 1426.92 1237.09 1408.97 C 1247.37 1399.74 1251.53 1384.65 1260.95 1374.38 C 1294.76 1335.61 1342.8 1319.63 1393.12 1320.82 C 1430 1321.69 1443.69 1334.79 1478.5 1339.9 C 1553.63 1350.93 1628.91 1338.8 1698.17 1308.29 C 1717.04 1299.97 1729.18 1291.91 1746.41 1283.28 C 1742.24 1301.28 1738.5 1318.85 1732.89 1336.48 C 1688.31 1476.45 1562.4 1576.86 1410.81 1541.94 C 1390.53 1537.38 1370.94 1530.2 1352.52 1520.57 C 1324.9 1506.35 1300.32 1479.45 1267.37 1500.62 C 1256.04 1507.91 1248.28 1519.6 1245.95 1532.87 C 1243.66 1546.41 1247.05 1560.29 1255.32 1571.25 C 1275.72 1598.8 1358.31 1629.48 1393.19 1636.25 C 1400.61 1637.7 1432.07 1643.13 1436.16 1644.63 C 1448.89 1645.6 1448.13 1644.28 1439.35 1654.81 C 1401.63 1705.83 1321.74 1746.91 1258.51 1747.33 C 1209.89 1748.12 1163.01 1729.3 1128.44 1695.11 C 1062.82 1630.07 1073.56 1561.72 1073.36 1477.72 L 1073.01 1325.44 C 1046.94 1371.02 1026.27 1394.33 975.978 1411.27 L 976.372 1513.57 C 976.431 1537.3 977.461 1566.65 973.854 1589.64 C 966.308 1640.08 938.564 1685.29 897.002 1714.86 C 856.368 1744.02 812.999 1752.17 763.733 1744.52 C 705.537 1735.48 635.594 1693.02 601.355 1645.12 C 616.261 1643.18 631.074 1640.59 645.751 1637.35 C 690.501 1627.74 727.84 1616.48 767.286 1592.53 C 779.254 1585.29 787.953 1581.44 795.895 1569.27 C 820.618 1531.37 788.434 1485.31 744.512 1494.08 C 730.709 1496.83 717.94 1510.08 705.42 1516.57 C 683.729 1527.8 660.661 1537.25 636.791 1542.93 C 572.761 1558.11 505.325 1547.39 449.162 1513.09 C 368.767 1463.07 324.916 1386.4 303.819 1296.35 L 301.1 1283.02 C 305.653 1285.55 309.83 1287.62 314.293 1290.41 C 325.897 1296.38 339.197 1303.88 351.132 1308.82 C 427.34 1340.33 515.646 1354.86 596.565 1334.05 C 606.927 1331.39 617.668 1326.95 628.088 1324.72 C 683.883 1312.84 749.511 1326.28 790.228 1368 C 799.605 1377.61 803.034 1388.42 810.273 1398.9 C 828.626 1425.47 859.106 1427.12 884.445 1411.11 C 831.139 1386.33 822.731 1369.84 788.908 1323.95 L 743.96 1263.44 C 734.799 1250.98 723.686 1234.96 714.202 1223.15 C 686.413 1221.88 638.626 1218.76 613.491 1227.54 C 507.12 1264.72 383.523 1241.02 304.517 1158.27 C 265.78 1117.7 244.141 1052.59 247.811 995.988 C 249.692 929.367 281.883 837.445 326.906 787.204 C 333.464 806.19 343.206 824.201 353.474 841.403 C 408.806 934.098 501.725 988.626 604.794 1011.58 C 617.108 964.263 636.98 937.002 683.107 917.567 C 668.602 917.297 651.752 917.337 637.539 915.64 C 572.562 907.879 515.376 883.268 469.813 835.49 C 428.302 793.368 402.424 740.46 404.759 680.374 C 406.786 628.213 426.521 570.942 465.205 534.253 C 533.109 469.85 627.535 495.21 686.083 558.27 C 723.049 598.587 749.352 647.505 762.598 700.577 C 766.285 715.905 768.813 741.51 776.65 754.117 C 802.503 795.703 870.363 778.649 869.332 727.957 C 869.04 713.591 865.119 699.796 862.417 685.782 C 845.042 609.498 804.842 535.834 748.126 481.863 C 711.835 447.328 648.729 408.94 598.711 405.318 C 651.284 335.337 736.354 288.44 825.687 303.238 C 855.106 308.111 878.14 318.058 901.867 336.138 C 941.47 366.509 967.488 411.282 974.267 460.728 C 976.793 479.541 976.244 499.443 976.191 518.478 L 976.06 590.317 L 976.123 780.955 C 976.098 815.903 975.517 852.239 976.181 887.054 C 1003.18 859.603 1041.59 820.655 1073.12 798.844 z" fill="rgb(1,0,28)" transform="translate(0,0)"></path>
<path d="M 301.1 1283.02 C 305.653 1285.55 309.83 1287.62 314.293 1290.41 C 308.415 1292.33 309.21 1291.63 304.586 1295.69 L 303.819 1296.35 L 301.1 1283.02 z" fill="rgb(0,0,15)" transform="translate(0,0)"></path>
<path d="M 1436.16 1644.63 C 1448.89 1645.6 1448.13 1644.28 1439.35 1654.81 C 1439.19 1654.18 1439.04 1653.54 1438.9 1652.9 C 1438.02 1648.79 1434.44 1648.08 1436.16 1644.63 z" fill="rgb(0,0,15)" transform="translate(0,0)"></path>
<path d="M 1578.55 615.323 L 1578.56 615.853 C 1577.58 617.372 1556.43 631.09 1553.68 632.971 C 1530.25 649.107 1507.35 666.002 1485.01 683.632 C 1418.24 736.34 1356.25 794.849 1299.78 858.475 C 1239.94 925.589 1184.51 996.517 1133.86 1070.81 C 1108.29 1107.84 1081.09 1149.08 1056.5 1186.93 L 1010.84 1257.52 C 1004.66 1267.11 997.531 1277.79 991.831 1287.42 C 976.881 1312.69 961.042 1333.05 928.015 1328.52 C 905.32 1325.41 894.405 1309.29 881.652 1292.01 C 852.038 1251.89 821.03 1212.8 791.234 1172.83 L 740.469 1105.35 C 723.584 1083.25 683.299 1045.79 701.559 1015.18 C 723.806 977.875 786.931 1005.84 818.707 1015.92 C 847.995 1026.05 873.518 1040.7 899.454 1057.27 C 926.691 1074.67 946.714 1038.98 961.853 1021.79 C 971.831 1010.59 981.992 999.544 992.334 988.673 C 1020.49 958.612 1049.86 929.708 1080.37 902.033 C 1224.13 772.088 1393.98 674.339 1578.55 615.323 z" fill="rgb(78,177,180)" transform="translate(0,0)"></path>
<metadata><recraft-signature>{"signed_by": "recraft", "signature_b64": "HtoHST8cGLVz1uEwx7BtcrW+rn1lNSaW7Sh2xtvL/lkuUpAyY7HjeWH27nx6fdbnifzbDxMtjcRiqOZJSYqnBQ==", "signing_algo": "Ed25519", "generation_timestamp": 1772774897, "identifier": "aa5729ad-2a7f-4b3d-8f90-e984aa9e11bb"}</recraft-signature></metadata></svg>