<svg xmlns="http://www.w3.org/2000/svg" height="1024" preserveAspectRatio="none" style="display: block;" version="1.1" viewBox="0 0 2048 2048" width="1024">
<path d="M 0 0 L 2048 0 L 2048 2048 L 0 2048 L 0 0 z" fill="rgb(255,255,255)" transform="translate(0,0)"></path>
<path d="M 1016.02 254.452 C 1441.86 249.028 1791.39 590.016 1796.49 1015.86 C 1801.6 1441.71 1460.35 1790.98 1034.5 1795.77 C 609.095 1800.55 260.276 1459.74 255.176 1034.34 C 250.076 608.945 590.624 259.871 1016.02 254.452 z" fill="rgb(22,175,151)" transform="translate(0,0)"></path>
<path d="M 1019.14 814.442 C 1067.62 813 1115.8 822.53 1160.07 842.319 C 1243.63 879.047 1300.87 943.401 1333.78 1027.92 C 1318.98 1062.03 1298.74 1093.51 1273.86 1121.13 C 1208.78 1192.72 1130.94 1230.1 1034.33 1234.82 C 983.833 1234.76 933.955 1223.68 888.18 1202.35 C 814.141 1167.85 746.16 1101.91 717.979 1024.52 C 725.697 993.148 759.462 946.406 782.055 922.342 C 846.801 853.38 925.013 817.635 1019.14 814.442 z" fill="rgb(255,255,255)" transform="translate(0,0)"></path>
<path d="M 1011.78 861.887 C 1100.93 854.911 1178.88 921.471 1185.96 1010.62 C 1193.04 1099.76 1126.57 1177.79 1037.43 1184.97 C 948.151 1192.16 869.969 1125.56 862.879 1036.27 C 855.789 946.98 922.481 868.874 1011.78 861.887 z" fill="rgb(22,175,151)" transform="translate(0,0)"></path>
<path d="M 1013.24 921.63 C 1069.83 914.534 1121.48 954.567 1128.73 1011.13 C 1135.97 1067.7 1096.07 1119.45 1039.53 1126.85 C 982.773 1134.27 930.778 1094.19 923.506 1037.42 C 916.235 980.641 956.45 928.752 1013.24 921.63 z" fill="rgb(0,0,0)" transform="translate(0,0)"></path>
<path d="M 1472.28 699.216 C 1582.97 780.752 1653.83 906.033 1674.3 1041.28 C 1699.21 1202.33 1659.5 1366.71 1563.81 1498.62 C 1478.68 1613.61 1364.48 1690.76 1227.62 1731.18 C 1213.43 1735.47 1199.02 1738.97 1184.44 1741.67 C 1173.85 1743.56 1156.11 1745.93 1146.14 1748.58 L 1141.8 1746.4 C 1342.42 1686.57 1518.26 1509.45 1563.83 1304.36 C 1578.31 1239.22 1577.7 1175.98 1576.83 1109.76 C 1577.21 1021.69 1578.54 941.922 1552.48 856.45 C 1536.66 804.584 1505.7 742.044 1472.28 699.216 z" fill="rgb(255,255,255)" transform="translate(0,0)"></path>
<path d="M 574.371 1343.59 C 569.215 1338.57 559.02 1330.82 553.15 1325.91 C 541.998 1316.62 531.337 1306.76 521.209 1296.36 C 449 1221.35 400.574 1126.67 382.017 1024.21 C 353.44 869.98 384.962 700.288 474.286 570.516 C 556.437 449.23 678.408 360.484 819.087 319.637 C 845.447 311.954 875.001 306.443 902.001 301.455 L 902.882 304.199 C 869.173 314.703 837.264 329.905 805.505 346.11 C 629.907 435.71 495.504 611.888 477.308 810.77 C 472.864 859.343 476.771 910.81 475.224 959.61 C 474.227 1040.45 474.946 1116.81 500.647 1194.42 C 514.361 1235.84 531.162 1272.68 554.697 1309.64 C 561.413 1320.18 568.545 1332.9 576.548 1342.56 L 574.371 1343.59 z" fill="rgb(255,255,255)" transform="translate(0,0)"></path>
<path d="M 677.832 604.259 C 679.804 601.197 681.481 598.979 683.607 596.106 C 768.839 480.929 906.777 398.274 1049.72 379.304 C 1218.68 356.63 1389.69 402.551 1524.56 506.816 C 1652.96 605.484 1727.61 748.783 1748.48 908.142 L 1746.17 908.854 C 1725.43 836.394 1685.3 761.425 1638.71 703.031 C 1540.57 580.046 1391.08 490.197 1233.25 474.999 C 1191.74 471.002 1142.16 473.028 1099.43 472.788 C 1065.73 472.598 1023.71 471.376 990.788 473.946 C 869.51 483.416 771.134 528.456 677.832 604.259 z" fill="rgb(255,255,255)" transform="translate(0,0)"></path>
<path d="M 298.485 1129.55 L 300.537 1127.23 C 346.889 1289.59 456.996 1426.27 605.768 1506.12 C 678.075 1546.08 758.393 1569.39 840.859 1574.34 C 879.762 1576.6 921.454 1574.69 960.425 1575.31 C 1038.44 1576.56 1101.46 1575.43 1177.08 1552.95 C 1258.75 1528.67 1307.72 1496.97 1372.3 1444.38 C 1360.87 1462.17 1348.64 1476.73 1334.81 1492.63 C 1260.27 1578.33 1153.62 1636.31 1043.27 1660.94 C 886.537 1695.93 709.374 1661 574.447 1574.43 C 439.117 1487.54 344.065 1350.22 310.384 1192.96 C 306.669 1175.95 302.398 1143.3 298.485 1129.55 z" fill="rgb(255,255,255)" transform="translate(0,0)"></path>
<path d="M 1110.68 680.425 C 1144.62 676.295 1205.67 687.014 1238.15 697.913 C 1337.22 731.167 1413.28 799.562 1460.76 891.662 C 1510.49 987.816 1519.68 1099.87 1486.29 1202.84 C 1451.83 1309.97 1382.92 1395.77 1282.38 1447.32 C 1276.62 1450.03 1257.63 1459.96 1252.13 1458.57 C 1252.72 1454.37 1285.14 1423.41 1290.81 1417.22 C 1300.81 1406.39 1310.28 1395.08 1319.19 1383.33 C 1349.82 1342.53 1373.56 1296.99 1389.46 1248.52 C 1398.06 1221.79 1401.96 1198.3 1405.42 1170.59 C 1415.89 1086.65 1401.22 1000.41 1361.94 925.098 C 1312.56 830.408 1229.51 760.504 1130.12 722.526 C 1108.48 714.254 1086.93 709.696 1064.71 703.742 C 1059.96 702.471 1059.33 701.121 1057.34 697.108 C 1057.33 681.961 1098.45 681.38 1110.68 680.425 z" fill="rgb(255,255,255)" transform="translate(0,0)"></path>
<path d="M 1062.55 540.449 C 1063.35 540.413 1064.15 540.383 1064.95 540.359 C 1228.81 535.318 1399.74 635.571 1466.18 788.425 C 1469.22 795.41 1476.01 808.52 1476.24 815.705 L 1474.81 816.247 C 1468.38 813.434 1455.08 794.872 1449.62 788.44 C 1437.41 774.166 1424.21 760.766 1410.12 748.339 C 1380.54 722.238 1347.56 700.253 1312.09 682.978 C 1203.44 629.902 1094.12 623.482 980.277 662.734 C 875.664 702.578 789.062 779.027 736.548 877.889 C 729.164 891.544 722.643 905.649 717.025 920.121 C 712.31 932.035 707.725 946.614 701.585 957.611 C 700.166 959.35 698.781 962.099 696.264 962.054 C 686.18 961.875 685.328 949.383 684.981 941.556 C 680.539 841.535 715.194 742.06 783.759 668.653 C 855.883 590.465 956.242 544.314 1062.55 540.449 z" fill="rgb(255,255,255)" transform="translate(0,0)"></path>
<path d="M 1350.8 1091.04 C 1352.68 1090.85 1354.71 1090.55 1356.6 1090.64 C 1359.19 1090.78 1361.21 1092.15 1362.75 1094.17 C 1371.77 1105.96 1362.75 1186 1359.1 1202.88 C 1337.61 1302.1 1277.54 1388.69 1192.13 1443.56 C 1098.39 1503.63 990.78 1520.11 882.447 1496.41 C 789.727 1476.03 706.296 1425.69 645.036 1353.17 C 632.057 1337.5 621.812 1321.6 610.87 1304.52 C 594.427 1276.74 582.277 1257.01 572.702 1225.43 C 579.626 1230.4 584.137 1235.97 589.334 1242.6 C 623.851 1286.62 667.808 1322.02 715.968 1350.58 C 811.713 1407.3 926.029 1423.78 1033.9 1396.42 C 1148.66 1366.94 1252.31 1285.59 1309.43 1182.19 C 1319.49 1164.62 1327.81 1146.29 1336.26 1127.92 C 1341.15 1117.29 1344.82 1100.4 1350.8 1091.04 z" fill="rgb(255,255,255)" transform="translate(0,0)"></path>
<path d="M 803.01 582.831 C 804.081 589.405 790.859 599.558 785.565 604.356 C 759.741 627.762 739.232 652.907 719.535 681.653 C 653.081 778.92 628.204 898.69 650.427 1014.37 C 680.616 1174.45 808.125 1297.64 963.387 1339.05 C 971.3 1341.16 990.864 1343.87 992.251 1352.86 C 987.537 1367.99 913.364 1366.61 898.056 1365.32 C 864.173 1362.7 830.821 1355.36 798.965 1343.52 C 583.666 1263.54 496.216 1028.96 575.067 819.89 C 606.474 736.993 663.363 666.193 737.553 617.673 C 758.74 603.881 780.08 593.232 803.01 582.831 z" fill="rgb(255,255,255)" transform="translate(0,0)"></path>
<path d="M 1146.14 1748.58 C 1143.76 1748.99 1140.36 1749.61 1137.99 1749.97 L 1130.5 1751.13 C 1128.76 1751.38 1125.36 1752.11 1123.66 1751.42 L 1123.65 1751.3 C 1124.97 1750.15 1139.48 1746.82 1141.8 1746.4 L 1146.14 1748.58 z" fill="rgb(160,233,227)" transform="translate(0,0)"></path>
<path d="M 902.001 301.455 C 905.92 300.185 912.897 299.588 917.318 298.934 C 912.257 300.891 908.001 302.427 902.882 304.199 L 902.001 301.455 z" fill="rgb(160,233,227)" transform="translate(0,0)"></path>
<path d="M 298.485 1129.55 C 298.025 1127.22 296.44 1119.08 297.445 1116.88 C 297.671 1116.72 297.542 1116.76 297.837 1116.8 C 298.667 1117.78 300.275 1125.46 300.537 1127.23 L 298.485 1129.55 z" fill="rgb(160,233,227)" transform="translate(0,0)"></path>
<path d="M 1748.48 908.142 C 1748.98 909.662 1749.49 914.749 1748.64 915.626 C 1747.55 915.564 1746.37 909.599 1746.17 908.854 L 1748.48 908.142 z" fill="rgb(160,233,227)" transform="translate(0,0)"></path>
<path d="M 576.548 1342.56 C 576.72 1342.78 579.575 1345.67 578.42 1346.33 C 577.188 1346.17 575.334 1344.37 574.371 1343.59 L 576.548 1342.56 z" fill="rgb(160,233,227)" transform="translate(0,0)"></path>
<metadata><recraft-signature>{"signed_by": "recraft", "signature_b64": "LiadpraKU2rGs2pullB1/DJ1hgMTFEjNHyCpdULj075JuJ7/0z5v0PE5bkegAZ0WL8AIDpxgSP2284W+Cw9uBQ==", "signing_algo": "Ed25519", "generation_timestamp": 1772774917, "identifier": "8b194853-9d0c-4032-a539-4ca43b3f6218"}</recraft-signature></metadata></svg>