<svg xmlns="http://www.w3.org/2000/svg" height="1024" preserveAspectRatio="none" style="display: block;" version="1.1" viewBox="0 0 2048 2048" width="1024">
<path d="M 1018.96 259.336 C 1442.79 255.297 1789.65 595.621 1793.66 1019.45 C 1797.67 1443.29 1457.33 1790.12 1033.49 1794.1 C 609.698 1798.09 262.904 1457.78 258.891 1033.99 C 254.878 610.189 595.166 263.374 1018.96 259.336 z M 1434.44 1423.96 C 1429.8 1419.53 1414.92 1408.6 1409.04 1403.96 L 1352.08 1359.2 C 1330.9 1342.26 1309.42 1326.83 1287.99 1309.34 C 1261.86 1291.18 1232.91 1266.96 1206.58 1247.4 C 1182.98 1229.9 1165.61 1217.38 1140.59 1201.45 C 1121.04 1188 1099.58 1183.1 1076.72 1179.28 C 1068.47 1207.32 1058.63 1237.41 1037.66 1259.13 C 1063.3 1270.43 1082.31 1279.12 1102.19 1300.11 C 1105.95 1304.08 1111.24 1309.32 1114.08 1313.91 C 1114.1 1314.39 1114.11 1314.87 1114.12 1315.34 C 1119.16 1325.84 1128.28 1338.53 1132.77 1349.49 C 1137.42 1360.12 1138.09 1372.26 1142.01 1383.06 C 1144.16 1388.17 1141.98 1394.99 1142.5 1400.26 C 1145.05 1425.65 1140.11 1450.3 1129.58 1473.44 C 1127.73 1477.48 1124.3 1483.36 1122.68 1487.03 C 1120.03 1493.04 1105.17 1510.26 1105.33 1514.88 C 1095.71 1530.09 1064.77 1550.28 1048.75 1557.71 C 969.061 1594.7 872.454 1572.36 816.679 1504.64 C 811.637 1498.52 805.334 1491.25 802.082 1483.81 C 784.079 1482.09 768.587 1481.73 750.217 1478.67 C 698.38 1470.24 650.692 1445.17 614.351 1407.25 C 579.633 1370.96 557.782 1324.27 552.148 1274.36 C 550.489 1258.92 550.958 1245.62 551.279 1230.17 C 489.311 1180.31 454.401 1120.14 449.74 1040 C 444.554 950.821 482.167 875.242 551.606 821.419 C 551.116 806.075 550.422 790.684 552.25 775.382 C 557.983 727.391 577.933 682.318 610.373 646.59 C 648.298 604.82 703.848 577.16 759.406 569.443 C 772.229 567.661 792.206 567.15 805.585 566.492 C 823.05 536.687 858.629 509.321 889.973 495.86 C 936.547 475.602 989.3 474.873 1036.42 493.835 C 1080.2 510.987 1115.35 544.863 1134.11 587.982 C 1148.26 621.398 1151.02 667.901 1136.33 701.4 C 1114.87 750.365 1083.57 771.907 1036.85 791.493 C 1053.7 818.669 1068.34 843.106 1075.52 874.938 C 1093.39 875.708 1128.7 868.469 1143.97 859.095 C 1155.51 851.937 1165.42 845.916 1176.43 837.943 C 1186.16 830.899 1199.17 818.898 1208.9 813.272 C 1219.65 809.005 1278.44 760.885 1290.09 751.624 C 1295.77 745.468 1309.47 734.99 1316.29 729.632 C 1329.32 719.411 1342.9 708.329 1356.29 698.672 C 1368.63 689.363 1430.33 641.655 1437.2 633.139 C 1451.72 611.973 1473.85 595.657 1499.77 592.802 C 1493.33 582.03 1468.01 558.482 1458.14 549.386 C 1382.11 478.319 1289.42 427.508 1188.62 401.625 C 1019.85 357.501 840.427 383.227 690.859 472.992 C 539.794 563.034 431.607 710.387 390.941 881.485 C 384.836 906.249 380.472 928.147 377.796 953.491 C 367.775 965.599 370.86 1120.67 381.349 1129.32 C 384.465 1138.4 386.369 1155.37 388.631 1165.76 C 427.648 1344.88 543.292 1497.22 703.806 1588.22 C 852.874 1673.45 1029.68 1696.02 1195.38 1650.98 C 1294.83 1623.78 1386.08 1572.57 1461.11 1501.86 C 1473.48 1490.03 1489.15 1475.16 1499.21 1461.3 C 1477.02 1460.94 1451.81 1437.49 1434.44 1423.96 z" fill="rgb(0,0,0)" transform="translate(0,0)"></path>
<path d="M 805.585 566.492 C 823.05 536.687 858.629 509.321 889.973 495.86 C 936.547 475.602 989.3 474.873 1036.42 493.835 C 1080.2 510.987 1115.35 544.863 1134.11 587.982 C 1148.26 621.398 1151.02 667.901 1136.33 701.4 C 1114.87 750.365 1083.57 771.907 1036.85 791.493 C 1053.7 818.669 1068.34 843.106 1075.52 874.938 C 1093.39 875.708 1128.7 868.469 1143.97 859.095 C 1152.05 871.603 1158.78 881.16 1165.98 894.379 C 1198.81 954.704 1209.53 1019.72 1194.73 1087.3 C 1187.21 1121.73 1173.24 1154.43 1153.56 1183.67 C 1149.95 1189.15 1145.03 1196.92 1140.59 1201.45 C 1121.04 1188 1099.58 1183.1 1076.72 1179.28 C 1068.47 1207.32 1058.63 1237.41 1037.66 1259.13 C 1063.3 1270.43 1082.31 1279.12 1102.19 1300.11 C 1105.95 1304.08 1111.24 1309.32 1114.08 1313.91 C 1114.1 1314.39 1114.11 1314.87 1114.12 1315.34 C 1119.16 1325.84 1128.28 1338.53 1132.77 1349.49 C 1137.42 1360.12 1138.09 1372.26 1142.01 1383.06 C 1144.16 1388.17 1141.98 1394.99 1142.5 1400.26 C 1145.05 1425.65 1140.11 1450.3 1129.58 1473.44 C 1127.73 1477.48 1124.3 1483.36 1122.68 1487.03 C 1120.03 1493.04 1105.17 1510.26 1105.33 1514.88 C 1095.71 1530.09 1064.77 1550.28 1048.75 1557.71 C 969.061 1594.7 872.454 1572.36 816.679 1504.64 C 811.637 1498.52 805.334 1491.25 802.082 1483.81 C 784.079 1482.09 768.587 1481.73 750.217 1478.67 C 698.38 1470.24 650.692 1445.17 614.351 1407.25 C 579.633 1370.96 557.782 1324.27 552.148 1274.36 C 550.489 1258.92 550.958 1245.62 551.279 1230.17 C 489.311 1180.31 454.401 1120.14 449.74 1040 C 444.554 950.821 482.167 875.242 551.606 821.419 C 551.116 806.075 550.422 790.684 552.25 775.382 C 557.983 727.391 577.933 682.318 610.373 646.59 C 648.298 604.82 703.848 577.16 759.406 569.443 C 772.229 567.661 792.206 567.15 805.585 566.492 z" fill="rgb(0,0,0)" transform="translate(0,0)"></path>
<path d="M 1143.97 859.095 C 1152.05 871.603 1158.78 881.16 1165.98 894.379 C 1198.81 954.704 1209.53 1019.72 1194.73 1087.3 C 1187.21 1121.73 1173.24 1154.43 1153.56 1183.67 C 1149.95 1189.15 1145.03 1196.92 1140.59 1201.45 C 1121.04 1188 1099.58 1183.1 1076.72 1179.28 C 1011 1174.36 952.473 1190.55 898.672 1135.5 C 840.838 1076.31 841.152 978.276 900.428 919.945 C 956.261 865.002 1005.6 875.132 1075.52 874.938 C 1093.39 875.708 1128.7 868.469 1143.97 859.095 z" fill="rgb(0,0,0)" transform="translate(0,0)"></path>
<path d="M 1028.03 988.463 C 1047.53 987.734 1069.26 988.544 1088.91 988.949 C 1093.09 1017.48 1091.68 1039.64 1088.66 1067.63 C 1071.66 1068.07 1053.82 1067.9 1036.75 1068.01 C 1017.89 1068.14 1001.65 1071.21 986.459 1056.87 C 969.763 1041.11 968.186 1017.45 984.596 1000.65 C 997.521 987.41 1011.13 988.679 1028.03 988.463 z" fill="rgb(247,160,30)" transform="translate(0,0)"></path>
<path d="M 849.928 953.081 C 818.3 877.185 870.85 802.911 951.308 799.336 C 982.921 797.931 1005.99 801.114 1036.85 791.493 C 1053.7 818.669 1068.34 843.106 1075.52 874.938 C 1005.6 875.132 956.261 865.002 900.428 919.945 C 841.152 978.276 840.838 1076.31 898.672 1135.5 C 952.473 1190.55 1011 1174.36 1076.72 1179.28 C 1068.47 1207.32 1058.63 1237.41 1037.66 1259.13 C 996.246 1247.36 957.995 1258.84 917.889 1245.86 C 854.145 1225.24 827.715 1165.97 847.827 1103.83 C 827.624 1099.41 815.683 1096.66 799.103 1084.41 C 746.736 1045.75 763.737 978.605 822.05 958.258 C 832.289 954.685 839.185 954.142 849.928 953.081 z" fill="rgb(247,160,30)" transform="translate(0,0)"></path>
<path d="M 965.547 596.374 C 967.708 596.292 969.872 596.324 972.03 596.471 C 996.467 598.122 1015.85 608.208 1027.16 630.525 C 1038.32 650.458 1026.64 675.391 1005.14 681.51 C 992.389 685.141 972.59 682.955 958.583 683.116 C 901.457 683.769 845.981 701.101 801.81 738.204 C 760.041 772.857 733.781 822.709 728.826 876.754 C 723.179 881.446 717.578 886.195 712.006 890.944 C 647.248 946.123 635.047 1049.15 677.402 1121.3 C 690.674 1143.9 707.483 1159.78 728.335 1175.69 C 729.821 1192.46 735.571 1211.81 741.567 1227.28 C 770.2 1301.14 836.277 1350.44 913.277 1364.65 C 930.436 1368.43 947.413 1368.64 964.861 1368.96 C 983.167 1369.63 1003.14 1366.38 1018.07 1379.56 C 1037.35 1396.58 1032.11 1421.71 1016.28 1438.93 C 1002.06 1454.4 984.715 1458.85 964.408 1459.88 C 914.514 1455.94 890.398 1420.85 879.413 1375.47 C 855.605 1374.74 831.669 1373.01 807.868 1372.23 C 781.214 1371.36 757.352 1368.11 733.445 1355.52 C 702.624 1339.25 679.538 1311.4 669.273 1278.09 C 660.479 1249.41 662.004 1218.56 673.584 1190.88 C 677.144 1182.34 683.096 1172.01 687.556 1163.58 C 662.255 1157.43 648.21 1153.34 625.764 1138.91 C 563.95 1099.17 544.127 1016.57 585.281 954.614 C 609.838 917.643 643.144 898.938 686.767 890.705 C 654.606 840.38 654.98 770.501 696.902 724.754 C 733.574 684.737 771.2 681.386 822.277 679.449 C 841.609 678.714 860.937 677.869 880.26 676.915 C 887.081 633.351 921.605 600.43 965.547 596.374 z" fill="rgb(247,160,30)" transform="translate(0,0)"></path>
<path d="M 1499.77 592.802 C 1524.57 599.133 1532.02 609.26 1546.9 628.75 C 1666.36 785.2 1710.92 994.196 1661.87 1186.09 C 1641.05 1267.75 1605.43 1344.91 1556.77 1413.72 C 1547.42 1426.77 1534.8 1444.04 1521.52 1453.03 C 1515.74 1456.94 1506.1 1459.28 1499.21 1461.3 C 1477.02 1460.94 1451.81 1437.49 1434.44 1423.96 C 1429.8 1419.53 1414.92 1408.6 1409.04 1403.96 L 1352.08 1359.2 C 1330.9 1342.26 1309.42 1326.83 1287.99 1309.34 C 1261.86 1291.18 1232.91 1266.96 1206.58 1247.4 C 1182.98 1229.9 1165.61 1217.38 1140.59 1201.45 C 1145.03 1196.92 1149.95 1189.15 1153.56 1183.67 C 1173.24 1154.43 1187.21 1121.73 1194.73 1087.3 C 1209.53 1019.72 1198.81 954.704 1165.98 894.379 C 1158.78 881.16 1152.05 871.603 1143.97 859.095 C 1155.51 851.937 1165.42 845.916 1176.43 837.943 C 1186.16 830.899 1199.17 818.898 1208.9 813.272 C 1219.65 809.005 1278.44 760.885 1290.09 751.624 C 1295.77 745.468 1309.47 734.99 1316.29 729.632 C 1329.32 719.411 1342.9 708.329 1356.29 698.672 C 1368.63 689.363 1430.33 641.655 1437.2 633.139 C 1451.72 611.973 1473.85 595.657 1499.77 592.802 z" fill="rgb(0,0,0)" transform="translate(0,0)"></path>
<path d="M 1290.09 751.624 C 1300.53 761.886 1314.24 780.689 1322.77 793.01 C 1370.14 860.778 1395.78 941.353 1396.27 1024.03 C 1396.3 1111.61 1369.6 1197.1 1319.74 1269.09 C 1311.3 1281.31 1298.37 1298.76 1287.99 1309.34 C 1261.86 1291.18 1232.91 1266.96 1206.58 1247.4 C 1182.98 1229.9 1165.61 1217.38 1140.59 1201.45 C 1145.03 1196.92 1149.95 1189.15 1153.56 1183.67 C 1173.24 1154.43 1187.21 1121.73 1194.73 1087.3 C 1209.53 1019.72 1198.81 954.704 1165.98 894.379 C 1158.78 881.16 1152.05 871.603 1143.97 859.095 C 1155.51 851.937 1165.42 845.916 1176.43 837.943 C 1186.16 830.899 1199.17 818.898 1208.9 813.272 C 1219.65 809.005 1278.44 760.885 1290.09 751.624 z" fill="rgb(0,0,0)" transform="translate(0,0)"></path>
<path d="M 1208.9 813.272 C 1220.4 830.025 1232.07 845.817 1242.14 863.463 C 1279.66 929.225 1298.25 1006.33 1283.51 1081.4 C 1272.69 1136.51 1251.33 1187.35 1217.46 1232.07 C 1214.12 1236.49 1209.41 1242.68 1206.58 1247.4 C 1182.98 1229.9 1165.61 1217.38 1140.59 1201.45 C 1145.03 1196.92 1149.95 1189.15 1153.56 1183.67 C 1173.24 1154.43 1187.21 1121.73 1194.73 1087.3 C 1209.53 1019.72 1198.81 954.704 1165.98 894.379 C 1158.78 881.16 1152.05 871.603 1143.97 859.095 C 1155.51 851.937 1165.42 845.916 1176.43 837.943 C 1186.16 830.899 1199.17 818.898 1208.9 813.272 z" fill="rgb(247,160,30)" transform="translate(0,0)"></path>
<path d="M 1499.77 592.802 C 1524.57 599.133 1532.02 609.26 1546.9 628.75 C 1666.36 785.2 1710.92 994.196 1661.87 1186.09 C 1641.05 1267.75 1605.43 1344.91 1556.77 1413.72 C 1547.42 1426.77 1534.8 1444.04 1521.52 1453.03 C 1515.74 1456.94 1506.1 1459.28 1499.21 1461.3 C 1477.02 1460.94 1451.81 1437.49 1434.44 1423.96 C 1451.17 1401.93 1468.33 1385.19 1485.76 1360.86 C 1544.81 1277.53 1580.26 1179.8 1588.38 1077.99 C 1599.35 943.33 1563.76 808.986 1487.58 697.41 C 1471.34 673.529 1455.97 655.147 1437.2 633.139 C 1451.72 611.973 1473.85 595.657 1499.77 592.802 z" fill="rgb(247,160,30)" transform="translate(0,0)"></path>
<path d="M 1356.29 698.672 C 1362.65 703.994 1378.87 725.026 1384.49 732.524 C 1437.6 803.289 1476.26 895.839 1483.35 984.599 C 1495.02 1130.53 1443.86 1249.47 1352.08 1359.2 C 1330.9 1342.26 1309.42 1326.83 1287.99 1309.34 C 1298.37 1298.76 1311.3 1281.31 1319.74 1269.09 C 1369.6 1197.1 1396.3 1111.61 1396.27 1024.03 C 1395.78 941.353 1370.14 860.778 1322.77 793.01 C 1314.24 780.689 1300.53 761.886 1290.09 751.624 C 1295.77 745.468 1309.47 734.99 1316.29 729.632 C 1329.32 719.411 1342.9 708.329 1356.29 698.672 z" fill="rgb(247,160,30)" transform="translate(0,0)"></path>
<path d="M 1114.08 1313.91 C 1124.68 1324.09 1134.67 1346.75 1139.03 1360.67 C 1153.7 1407.4 1145.68 1460.03 1117.32 1500.02 C 1113.99 1504.71 1109.57 1511.06 1105.33 1514.88 C 1105.17 1510.26 1120.03 1493.04 1122.68 1487.03 C 1124.3 1483.36 1127.73 1477.48 1129.58 1473.44 C 1140.11 1450.3 1145.05 1425.65 1142.5 1400.26 C 1141.98 1394.99 1144.16 1388.17 1142.01 1383.06 C 1138.09 1372.26 1137.42 1360.12 1132.77 1349.49 C 1128.28 1338.53 1119.16 1325.84 1114.12 1315.34 C 1114.11 1314.87 1114.1 1314.39 1114.08 1313.91 z" fill="rgb(0,0,0)" fill-opacity="0.933333" transform="translate(0,0)"></path>
<path d="M 381.349 1129.32 C 370.86 1120.67 367.775 965.599 377.796 953.491 C 370.392 1005.97 374.304 1077.15 381.349 1129.32 z" fill="rgb(0,0,0)" fill-opacity="0.917647" transform="translate(0,0)"></path>
<metadata><recraft-signature>{"signed_by": "recraft", "signature_b64": "ajFldnZgzcE/XIPja6/4r8ikqtV9aXgMM9Jdek4d0ffGrc93x8bGh5KQcSyEpBQnDWQkjkM0eidtJ3xELKLhBQ==", "signing_algo": "Ed25519", "generation_timestamp": 1772775029, "identifier": "bcf09e7f-4806-4708-b60b-e2c4411c49a4"}</recraft-signature></metadata></svg>