<svg xmlns="http://www.w3.org/2000/svg" height="1024" preserveAspectRatio="none" style="display: block;" version="1.1" viewBox="0 0 2048 2048" width="1024">
<path d="M 0 0 L 2048 0 L 2048 2048 L 0 2048 L 0 0 z" fill="rgb(255,255,255)" transform="translate(0,0)"></path>
<path d="M 878.563 264.2 C 975.952 245.642 1075.96 245.555 1173.38 263.942 C 1223.56 273.949 1272.65 288.783 1319.98 308.237 C 1325.02 310.286 1341.62 316.906 1345.26 319.658 C 1377.99 334.013 1403.35 348.455 1433.72 367.361 C 1576.28 455.62 1686.12 588.009 1746.55 744.405 C 1819.32 934.818 1815.04 1146.09 1734.61 1333.4 C 1713.68 1380.91 1692.83 1416.11 1665.27 1459.02 C 1634.5 1504.21 1598.8 1545.83 1558.81 1583.12 C 1552.93 1588.59 1541.36 1599.85 1535.67 1604.04 C 1517.21 1621.46 1494.88 1636.38 1474.8 1651.93 C 1454.07 1667.99 1430.39 1680.15 1408.91 1694.66 C 1357.15 1726.26 1271.26 1762.25 1212.9 1777.14 C 1172.24 1787.69 1130.7 1794.49 1088.79 1797.45 C 1076.61 1801.35 978.776 1800.27 963.301 1797.43 C 923.6 1795.16 875.314 1786.49 836.84 1777.06 C 771.5 1762.15 697.834 1731.32 640.557 1696.93 C 598.167 1671.55 550.068 1638.52 513.322 1605.07 C 481.213 1579.58 403.032 1493.73 384.443 1458.27 C 354.75 1411.86 332.623 1372.71 311.465 1321.62 C 232.946 1130.24 233.504 915.538 313.016 724.568 C 376.528 573.579 486.265 446.608 626.463 361.897 C 648.257 348.749 681.345 330.092 704.755 320.44 C 707.297 318.466 722.089 312.09 725.897 310.516 C 770.668 292.004 830.678 271.748 878.563 264.2 z" fill="rgb(250,163,64)" transform="translate(0,0)"></path>
<path d="M 1345.26 319.658 C 1377.99 334.013 1403.35 348.455 1433.72 367.361 C 1576.28 455.62 1686.12 588.009 1746.55 744.405 C 1819.32 934.818 1815.04 1146.09 1734.61 1333.4 C 1713.68 1380.91 1692.83 1416.11 1665.27 1459.02 C 1663.68 1401.46 1665.84 1341.48 1665.03 1283.65 C 1664.48 1244.65 1666.78 1213.89 1660.62 1174.75 C 1655.86 1145.37 1647.12 1116.77 1634.65 1089.74 C 1604.59 1024.62 1544.43 959.418 1478.91 930.55 C 1438.99 912.962 1388.86 897.13 1346.96 881.757 C 1352.87 877.941 1358.61 873.864 1364.16 869.537 C 1414.98 830.116 1453.31 761.281 1459.79 697.506 C 1462.33 672.424 1461.3 642.092 1461.4 616.37 C 1461.49 594.135 1462.09 566.825 1460.71 544.869 C 1457.23 486.577 1437.11 430.505 1402.73 383.298 C 1391.55 367.702 1378.97 353.415 1365.93 339.357 C 1360.04 333.007 1350.18 326.324 1345.26 319.658 z" fill="rgb(0,0,0)" transform="translate(0,0)"></path>
<path d="M 704.755 320.44 C 695.369 329.875 685.96 338.593 677.02 348.402 C 627.712 402.505 595.826 466.051 590.003 539.771 C 587.303 573.959 588.989 609.381 588.281 643.635 C 586.63 723.531 607.216 793.365 665.68 851.211 C 677.099 862.689 689.728 872.896 703.347 881.652 L 628.131 908.298 C 612.238 913.921 594.979 919.411 579.702 926.278 C 508.424 958.238 450.83 1014.5 417.209 1085.01 C 398.301 1124.71 385.779 1172.54 384.891 1216.7 C 384.482 1237 384.885 1257.87 384.91 1278.21 L 384.993 1389.95 C 384.982 1400.29 385.625 1451.17 384.443 1458.27 C 354.75 1411.86 332.623 1372.71 311.465 1321.62 C 232.946 1130.24 233.504 915.538 313.016 724.568 C 376.528 573.579 486.265 446.608 626.463 361.897 C 648.257 348.749 681.345 330.092 704.755 320.44 z" fill="rgb(0,0,0)" transform="translate(0,0)"></path>
<path d="M 1215.85 965.2 C 1236.25 973.238 1261.32 981.351 1282.29 988.684 L 1352.5 1014.01 C 1376.41 1022.46 1404.74 1030.94 1426.83 1043.3 C 1477.25 1071.52 1525.09 1126.63 1533.25 1185.49 C 1538.31 1221.99 1536.43 1265.23 1536.48 1302.55 C 1536.78 1371.3 1536.63 1440.06 1536.05 1508.81 C 1535.9 1527.69 1535.98 1546.56 1536.3 1565.44 C 1536.43 1575.35 1537.25 1595.1 1535.67 1604.04 C 1517.21 1621.46 1494.88 1636.38 1474.8 1651.93 C 1454.07 1667.99 1430.39 1680.15 1408.91 1694.66 L 1408.98 1464.84 L 1408.86 1401.26 C 1408.84 1393.18 1408.36 1371.78 1409.65 1364.87 C 1412.48 1349.75 1419.07 1330.04 1423.7 1314.97 C 1434.1 1281.18 1444.86 1247.5 1455.97 1213.94 C 1416.85 1213.32 1376.43 1213.91 1337.19 1213.95 L 1119.58 1213.65 C 1087.95 1213.51 1054.92 1214.23 1023.54 1213.3 C 1036.78 1197.98 1046.03 1185.04 1058.22 1169.1 L 1104.77 1109.19 C 1141 1062.49 1181.16 1012.67 1215.85 965.2 z" fill="rgb(0,0,0)" transform="translate(0,0)"></path>
<path d="M 513.322 1605.07 L 513.73 1367.45 L 513.419 1274.39 C 513.362 1241.01 511.816 1207.56 519.387 1174.91 C 527.718 1138.81 546.19 1105.85 572.626 1079.9 C 586.896 1065.69 603.145 1053.62 620.869 1044.07 C 637.977 1034.97 660.085 1027.15 678.573 1020.75 C 729.668 1003.08 780.858 983.253 832.081 966.243 C 874.286 1019.57 916.061 1073.24 957.4 1127.24 C 978.578 1154.82 1002.1 1186.8 1024.33 1213.25 C 986.675 1214.29 946.328 1213.53 908.393 1213.69 L 594.892 1214.01 L 624.857 1311.94 C 629.366 1326.68 636.646 1348.81 639.809 1363.49 C 641.55 1371.58 640.923 1399.68 640.911 1409.43 L 640.951 1486.89 L 640.964 1623.17 C 640.956 1645.85 641.788 1674.82 640.557 1696.93 C 598.167 1671.55 550.068 1638.52 513.322 1605.07 z" fill="rgb(0,0,0)" transform="translate(0,0)"></path>
<path d="M 1084.83 1341.29 C 1126.71 1342.34 1170.5 1341.45 1212.59 1341.61 C 1213.49 1390.11 1212.83 1440.78 1212.86 1489.46 L 1212.9 1777.14 C 1172.24 1787.69 1130.7 1794.49 1088.79 1797.45 L 1086.15 1796.94 C 1083.78 1792.6 1084.94 1750.01 1084.95 1741.68 L 1084.98 1638.68 L 1084.83 1341.29 z" fill="rgb(0,0,0)" transform="translate(0,0)"></path>
<path d="M 836.789 1341.78 L 964.239 1341.11 L 964.104 1654.3 L 964.216 1744.93 C 964.248 1751.99 965.208 1794.04 963.301 1797.43 C 923.6 1795.16 875.314 1786.49 836.84 1777.06 L 836.472 1501 C 836.448 1448.42 835.642 1394.25 836.789 1341.78 z" fill="rgb(0,0,0)" transform="translate(0,0)"></path>
<path d="M 878.563 264.2 C 975.952 245.642 1075.96 245.555 1173.38 263.942 C 1164.62 266.58 1144.75 269.363 1134.68 271.551 C 1089.41 281.395 1061.25 295.66 1024.5 322.984 C 991.219 298.211 960.721 281.219 919.768 272.054 C 906.698 269.129 890.905 268.005 878.563 264.2 z" fill="rgb(0,0,0)" transform="translate(0,0)"></path>
<path d="M 1334.54 563.968 L 1335.32 564.051 C 1337.92 567.773 1336.16 633.169 1336.83 645.367 C 1339.23 688.947 1331.75 731.777 1301.5 765.007 C 1278.04 790.674 1245.32 805.935 1210.58 807.416 C 1176.67 808.84 1145.51 798.358 1120.49 775.378 L 1119.79 774.689 C 1076.06 730.892 1083.73 685.468 1083.59 628.119 C 1109.05 625.554 1135.39 622.943 1160.53 618.406 C 1220.44 607.596 1278.4 587.122 1334.54 563.968 z" fill="rgb(0,0,0)" transform="translate(0,0)"></path>
<path d="M 714.173 564.32 C 731.716 569.199 759.823 582.008 779.102 588.639 C 837.084 608.583 903.459 623.211 964.94 627.352 C 965.156 684.68 972.973 729.595 930.384 773.102 C 906.189 795.666 877.078 807.515 843.82 807.652 C 809.793 807.808 777.107 794.399 752.993 770.392 C 713.989 731.491 714.533 689.249 714.258 639.113 L 714.173 564.32 z" fill="rgb(0,0,0)" transform="translate(0,0)"></path>
<path d="M 1179.68 387.436 C 1186.77 387.118 1193.88 387.411 1200.92 388.312 C 1241.43 393.4 1274.71 416.162 1299.2 448.022 C 1260.4 465.642 1227.15 475.826 1186.75 487.322 C 1153.1 496.406 1119.05 503.321 1084.21 505.363 C 1084 480.382 1083.97 455.399 1084.12 430.418 C 1112.38 403.407 1140.16 390.122 1179.68 387.436 z" fill="rgb(0,0,0)" transform="translate(0,0)"></path>
<path d="M 853.323 387.377 C 896.096 381.925 933.334 400.574 964.039 428.416 L 964.05 505.367 C 936.621 502.53 903.885 494.979 876.661 489.309 C 838.515 480.012 784.642 464.481 748.531 448.293 C 774.422 412.706 809.818 392.459 853.323 387.377 z" fill="rgb(0,0,0)" transform="translate(0,0)"></path>
<path d="M 1024.24 853.788 C 1026.74 854.799 1037.96 864.793 1041.23 867.284 C 1061.26 882.548 1083 893.593 1105.38 904.874 L 1055.82 969.31 C 1046.48 981.468 1034.46 998.085 1024.44 1009.27 C 1013.87 998.729 993.671 970.733 984.297 958.163 C 970.52 939.971 956.559 921.921 942.414 904.015 C 978.023 888.399 994.283 877.371 1024.24 853.788 z" fill="rgb(0,0,0)" transform="translate(0,0)"></path>
<metadata><recraft-signature>{"signed_by": "recraft", "signature_b64": "khg0H/WTK+KpazbGM1gGUqMXkKHYhwXFX6mYyR9i6A0/bEfU/mBAMUIIWCnH3Ci3cd9fqsj+XVESTC30BrF7Cw==", "signing_algo": "Ed25519", "generation_timestamp": 1772775050, "identifier": "f387130a-4ce3-426e-b3f1-3571d4dd3b53"}</recraft-signature></metadata></svg>