<svg xmlns="http://www.w3.org/2000/svg" height="1024" preserveAspectRatio="none" style="display: block;" version="1.1" viewBox="0 0 2048 2048" width="1024">
<path d="M 0 0 L 2048 0 L 2048 2048 L 0 2048 L 0 0 z" fill="rgb(255,255,255)" transform="translate(0,0)"></path>
<path d="M 1424.1 419.261 C 1450.28 417.208 1485.87 446.228 1508.7 457.793 C 1534.52 470.87 1544.8 478.282 1550.28 507.163 C 1552.38 518.268 1605.32 549.645 1615.23 553.735 C 1624.64 549.165 1631.37 545.425 1641.63 543.309 C 1655.42 540.465 1681.49 559.248 1692.94 566.967 C 1719.37 584.768 1742.95 622.253 1746.39 654.007 C 1747.93 668.23 1750.11 701.81 1739.72 712.692 C 1734.76 717.893 1729.28 722.638 1722.14 724.131 C 1694.01 730.011 1655.76 723.838 1627.74 727.491 C 1592.03 732.147 1559.56 758.608 1546.78 792.094 C 1541.84 803.497 1540.42 814.95 1534.3 825.879 C 1527.5 838.024 1517.36 839.665 1509.32 850.845 C 1508.62 865.406 1507.69 904.243 1510.58 919.28 C 1511.68 925.004 1533.35 937.84 1534.85 949.023 C 1539.35 984.337 1536.52 1021.8 1536.56 1057.48 C 1536.59 1084.39 1516.76 1087.94 1506.27 1106 C 1505.68 1119.48 1503.91 1169.32 1509.98 1178.06 C 1515.5 1186.01 1525.41 1190.82 1531.45 1198.87 C 1536.3 1205.34 1538.35 1212.72 1539.67 1220.58 C 1541.91 1233.95 1542.19 1295.09 1540.2 1307.52 C 1537.48 1324.11 1528.3 1338.95 1514.68 1348.81 C 1507.23 1354.05 1498.77 1357.7 1489.84 1359.52 C 1469.38 1363.8 1422.94 1360.86 1401.96 1357.17 C 1374.39 1368.42 1333.55 1397.35 1327.77 1427.11 C 1320.61 1464.02 1318.02 1458.95 1293.39 1482.66 C 1289.53 1486.38 1289.81 1541.52 1293.79 1548.24 C 1297.82 1555.02 1315.75 1567.57 1316.37 1579.44 C 1319.71 1610.2 1318.13 1642.67 1317.68 1673.66 C 1317.32 1698.6 1290.36 1709.06 1271.95 1719.65 L 1213.3 1753.25 C 1191.97 1765.41 1170.41 1777.89 1148.81 1789.72 C 1138.3 1795.48 1110.98 1814.48 1100.67 1816.08 C 1079.41 1818.49 1057.93 1816.64 1036.33 1816.84 C 1013.36 1816.23 989.882 1818.88 967 1816.81 C 937.187 1813.98 943.351 1774.87 927.621 1760.02 C 913.515 1746.71 879.195 1721.42 858.627 1730.36 C 851.365 1733.52 844.756 1736.94 837.036 1738.75 C 818.756 1743.2 800.65 1727.25 785.682 1718.25 C 768.83 1708.12 734.622 1693.86 733.146 1672.05 C 731.302 1644.82 732.42 1615.72 732.628 1588.41 C 732.781 1568.28 749.24 1562.31 757.932 1548.43 C 759.051 1535.97 757.067 1517.59 758.026 1506.98 C 760.793 1476.37 746.566 1478.74 733.797 1459.08 C 728.442 1445.12 725.027 1433.24 718.069 1419.73 C 705.671 1395.65 671.131 1368.12 644.91 1360.53 C 614.646 1368.16 574.602 1364.7 542.949 1363.86 C 526.231 1363.42 521.251 1369.94 506.897 1378.02 C 480.285 1393.01 457.319 1416.43 446.86 1445.52 C 441.709 1459.85 441.034 1476.42 428.43 1487.6 C 420.056 1495.02 407.983 1500.24 396.848 1499.03 C 375.03 1496.65 346.678 1472.71 333.384 1456.82 C 313.41 1432.94 303.559 1405.24 304.03 1374.32 C 304.275 1367.63 303.276 1360.2 304.195 1353.57 C 308.871 1319.87 330.672 1316.76 358.558 1316.85 C 388.912 1316.96 420.819 1319.59 448.724 1307.31 C 476.288 1295.17 498.405 1268.4 504.951 1239.02 C 507.843 1225.93 506.579 1214.39 514.918 1202.49 C 522.165 1192.15 531.325 1189.1 540.815 1181.38 L 541.682 1180.66 C 542.679 1158.96 542.551 1127.71 541.71 1105.91 C 532.644 1093.64 518.228 1090.16 512.849 1072.95 C 507.879 1057.06 508.11 999.626 510.182 984.433 C 511.102 977.358 513.188 970.485 516.354 964.092 C 530.496 935.668 559.044 928.1 588.268 929.657 C 605.722 930.586 617.752 926.846 634.645 936.135 C 647.835 943.435 657.436 955.847 661.188 970.448 C 664.726 983.753 664.838 1051.23 662.641 1064.33 C 661.848 1069 660.208 1073.49 657.801 1077.57 C 651.953 1087.6 634.672 1098.97 633.647 1103.66 C 630.372 1118.66 630.91 1161.39 633.773 1177.9 C 634.581 1182.55 648.975 1187.64 653.932 1189.7 C 663.748 1185.2 668.656 1180.85 677.233 1174.71 C 700.668 1157.95 719.759 1135.92 728.604 1108.1 C 731.987 1097.46 732.064 1086.2 735.679 1075.68 C 740.903 1061.82 751.682 1053.51 764.67 1047.49 C 777.383 1043.37 828.37 1043.1 841.385 1047.54 C 882.226 1061.47 874.992 1092.74 889.752 1122.22 C 905.123 1150.18 935.863 1167.48 964.739 1178.57 C 970.39 1180.74 973.344 1180.42 979.072 1179.27 C 987.747 1176.84 997.09 1176.89 1005.57 1175.84 C 1026.77 1173.23 1054.44 1178.06 1074.11 1177.57 C 1108.38 1176.72 1157.45 1139.24 1166.44 1105.49 C 1170.99 1088.42 1173.75 1072.12 1187.01 1059.46 C 1208.39 1039.49 1238.45 1045.88 1264.93 1044.65 C 1285.82 1042.31 1313.83 1060.34 1317.57 1081.62 C 1322.89 1114.04 1333.1 1136.77 1360.81 1156.19 C 1372.19 1164.17 1413.87 1195.94 1418.97 1164.33 C 1420.07 1157.57 1419.97 1107.73 1417.07 1101.5 C 1411.75 1090.07 1387.88 1079.23 1390.81 1058.26 C 1390.96 1038.89 1390.58 1019.97 1391.14 1000.53 C 1392.07 981.667 1387.95 963.781 1394.24 945.633 C 1398.37 933.711 1416.1 926.088 1416.79 916.713 C 1418.27 896.67 1418.58 869.765 1416.78 849.932 C 1409.95 840.279 1401.4 837.744 1394.71 828.163 C 1391.24 823.123 1388.84 817.422 1387.66 811.415 C 1385.03 798.203 1385.69 743.091 1388.26 730.278 C 1401.42 664.643 1467.53 678.562 1516.79 677.158 C 1525.33 676.914 1553.89 657.165 1562.52 652.255 C 1567.23 649.581 1572.94 644.317 1574 638.599 C 1571.69 628.348 1540.61 614.38 1532.21 606.361 C 1513.28 588.277 1501.26 598.546 1481.16 598.902 C 1466.52 599.162 1444.96 599.963 1431.06 598.856 C 1405.28 596.803 1397.27 595.59 1374.66 611.578 C 1351.39 626.101 1334.9 642.545 1328.21 670.404 C 1325.96 679.801 1322.83 690.581 1317.77 698.91 C 1309.77 711.739 1299.37 711.684 1290.2 725.222 C 1288.5 739.434 1289.05 774.774 1289.38 789.999 C 1297.3 803.059 1315.73 808.236 1316.74 833.892 C 1317.46 852.115 1317.21 873.323 1316.98 891.603 C 1316.81 904.638 1317.94 933.851 1316.04 944.893 C 1314.97 951.524 1312.05 957.721 1307.63 962.773 C 1294.01 978.476 1262.81 974.289 1243.85 974.844 C 1220.42 975.529 1189.13 974.837 1177.08 950.431 C 1166.45 928.91 1155.66 913.357 1136.94 897.414 C 1102.48 867.925 1057.59 853.562 1012.41 857.567 C 962.353 862.051 914.366 885.472 885.37 927.668 C 877.121 939.672 875.231 951.648 866.648 962.5 C 859.908 971.022 845.294 974.737 834.107 974.601 C 810.102 974.311 781.597 976.747 758.003 972.946 C 753.718 971.858 749.161 968.952 746.052 965.91 C 730.755 950.94 736.196 919.174 735.64 899.16 C 734.889 872.127 732.557 845.225 752.227 824.353 C 777.088 797.974 812.664 805.826 845.045 804.399 C 885.493 802.773 923.54 775.108 943.191 740.562 C 950.476 727.755 951.673 715.793 962.431 704.074 C 976.533 688.714 999.039 695.023 1018.7 693.879 C 1057.42 691.626 1085.21 695.348 1101.82 734.753 C 1108.27 752.165 1111.48 757.082 1123.65 771.33 C 1133.39 782.73 1184.66 808.469 1196.76 798.242 C 1202.37 793.5 1200.62 735.146 1198.78 724.826 L 1198.53 723.464 C 1191.07 715.699 1179.46 710.472 1173.16 700.464 C 1168.61 693.225 1165.93 686.475 1163.98 678.405 C 1159.27 658.975 1148.12 645.918 1131.44 635.279 C 1119.7 627.787 1104.93 616.629 1089.98 620.415 C 1086.31 621.346 1074.12 626.013 1071.26 626.197 C 1046.57 627.783 1017 628.429 992.483 625.985 C 984.55 624.528 976.242 621.199 969.753 616.656 C 947.251 600.902 948.035 578.194 948.343 554.064 C 948.64 530.741 945.478 507.464 960.387 487.297 C 970.894 473.083 986.272 464.663 1003.48 461.81 C 1014.36 459.928 1022.9 461.099 1032.58 460.408 C 1061.13 458.372 1089.74 464.599 1104.13 492.052 C 1112.81 508.618 1111.49 521.847 1131.01 535.077 C 1142.71 543 1159.74 551.567 1174.02 554.113 C 1187.28 556.477 1199.74 545.785 1213.45 545.78 C 1231.69 545.772 1250.53 545.755 1268.77 545.929 C 1275.97 546.146 1288.63 551.13 1295.56 548.571 C 1328.48 536.42 1364.8 512.753 1377.45 478.39 C 1382.93 463.488 1382.91 449.27 1391.53 436.784 C 1399.14 425.754 1411.81 421.467 1424.1 419.261 z" fill="rgb(9,190,99)" transform="translate(0,0)"></path>
<path d="M 1292.62 1224.22 C 1303.4 1222.44 1319.19 1235.28 1328.24 1241.41 C 1333.95 1245.07 1367.63 1265.75 1355.01 1274.01 C 1347.98 1278.62 1317.37 1304.19 1312.61 1305.49 C 1271 1316.76 1220.95 1291.38 1187.78 1330.18 C 1169.86 1351.14 1171.46 1374.76 1171.75 1401.38 C 1171.91 1417.99 1170.41 1435.58 1174.5 1452.01 C 1178.78 1470.65 1200.77 1470.59 1199.96 1491.94 C 1199.44 1505.67 1202.54 1534.94 1199.01 1547.64 C 1196.57 1556.42 1177.47 1561.62 1173.43 1575.59 C 1168.4 1598.03 1165.46 1606.2 1152.7 1624.3 C 1141.76 1639.82 1084.1 1672.39 1069.65 1658.58 C 1067 1650.71 1068.7 1595.8 1069.1 1584.4 C 1074.02 1575.69 1081.21 1571.42 1088.33 1564.47 C 1099.6 1553.44 1103.07 1534.66 1101.99 1519 C 1099.96 1489.43 1108.39 1450.69 1084.46 1428.17 C 1065.27 1410.11 1041.51 1414.22 1017.74 1413.87 C 997.649 1413.5 977.894 1414.96 962.824 1430.87 C 939.522 1455.47 951.551 1501.55 948.53 1532.66 C 946.303 1555.59 966.265 1567.53 980.742 1581.27 C 982.409 1590.92 983.572 1651.57 979.745 1659.12 C 974.498 1662.73 969.684 1661.42 963.372 1660.74 C 932.484 1656.17 893.993 1636.91 883.57 1604.91 C 880.479 1595.42 880.792 1581.98 875.591 1573.2 C 870.292 1564.25 860.622 1557.85 853.063 1549.42 C 852.053 1530.85 852.782 1502.28 853.117 1483.39 C 858.999 1472.97 869.81 1466.12 874.54 1455.05 C 879.734 1442.9 878.805 1377.86 877.018 1363.16 C 876.278 1356.9 874.707 1350.77 872.349 1344.92 C 854.015 1300.11 805.124 1307.84 765.867 1308.24 C 755.15 1308.34 744.666 1309.03 734.614 1304.52 C 725.804 1300.57 696.841 1284.72 694.063 1276.24 C 693.197 1273.6 693.589 1270.87 694.938 1268.47 C 699.204 1260.86 742.819 1230.05 752.064 1227.85 C 761.077 1225.71 771.746 1227.81 780.972 1228.1 C 791.468 1228.42 801.99 1228.3 812.49 1228.34 C 825.391 1228.39 847.632 1225.29 859.263 1227.68 C 868.65 1229.61 878.939 1237.83 887.342 1242.59 C 900.369 1249.97 913.997 1256.63 924.674 1267.36 C 945.191 1287.99 945.294 1319.26 968.931 1333.74 C 975.362 1337.68 982.645 1340.19 990.055 1341.48 C 1006.6 1344.34 1048.8 1344.21 1065.03 1340.3 C 1100.81 1331.69 1101.08 1307.89 1117.49 1281.84 C 1127.98 1265.19 1141.45 1255.84 1158.19 1246.18 C 1168.22 1240.38 1179.92 1231.91 1190.86 1228.33 C 1198.7 1225.76 1208.82 1226.97 1217.02 1226.99 C 1241.68 1227.04 1268.56 1229.54 1292.62 1224.22 z" fill="rgb(255,255,255)" transform="translate(0,0)"></path>
<path d="M 617.05 419.12 C 627.636 418.088 637.936 419.553 647.012 425.461 C 655.437 430.944 659.876 438.206 661.852 447.936 C 665.033 463.604 665.656 568.261 660.118 581.372 C 655.1 593.25 643.842 598.958 637.087 609.286 C 636.921 609.541 636.765 609.802 636.604 610.06 C 635.349 627.033 635.513 664.24 637.16 681.222 C 641.298 684.774 645.849 688.028 649.826 691.727 C 660.109 701.291 664.71 713.475 665.015 727.401 C 665.313 740.992 664.894 754.658 664.884 768.256 C 664.867 793.388 668.125 819.756 648.808 839.467 C 626.72 862.006 590.136 856.005 561.62 856.249 C 531.452 856.508 504.386 864.655 481.241 884.551 C 404.332 950.663 457.262 1036 426.202 1065.92 C 412.381 1079.23 367.496 1074.83 347.75 1074.75 C 338.967 1074.91 329.704 1074.56 321.722 1070.53 C 314.728 1066.99 308.715 1060.33 306.42 1052.8 C 301.355 1036.19 304.119 961.289 304.08 939.402 L 303.958 879.055 C 303.93 863.115 301.927 835.027 309.646 821.227 C 320.349 802.092 345.893 803.226 364.805 803.642 C 386.467 804.118 410.049 804.318 431.059 798.103 C 462.689 788.876 496.25 768.062 508.233 735.849 C 512.203 724.944 512.654 714.282 518.69 702.791 C 522.291 695.937 536.917 687.2 538.189 682.143 C 541.415 669.315 541.309 620.221 537.66 608.875 C 530.605 596.884 516.362 591.584 512.228 577.185 C 509.163 566.514 509.512 555.847 509.745 544.699 C 510.262 529.32 508.207 513.517 510.119 498.224 C 511.594 486.428 518.13 475.369 527.74 468.444 C 541.518 458.724 556.71 450.868 571.31 442.444 C 586.792 433.511 599.649 424.032 617.05 419.12 z" fill="rgb(9,190,99)" transform="translate(0,0)"></path>
<path d="M 968.685 232.417 C 991.587 232.137 1014.49 232.019 1037.39 232.063 C 1061.77 232.028 1093.51 229.557 1115.36 241.184 C 1150.91 260.095 1185.67 280.567 1220.9 300.106 L 1264.49 324.229 C 1276.61 330.82 1291.83 338.107 1302.19 346.57 C 1310.97 353.733 1316.59 366.761 1316.64 378.132 C 1316.75 404.849 1318.98 430.012 1299.76 451.146 C 1287.59 464.518 1269.19 471.497 1251.85 471.28 C 1227.79 470.979 1195.57 475.901 1178.83 455.228 C 1170.38 444.794 1166 437.452 1155.86 428.521 C 1112.7 390.516 1060.95 378.297 1005.08 380.923 C 945.817 384.493 885.139 416.341 877.858 480.178 C 875.614 499.85 880.832 522.475 868.283 538.828 C 861.671 547.445 851.034 551.531 840.111 552.38 C 807.317 550.94 738.16 565.71 737.155 514.317 C 736.22 466.5 736.87 420.596 737.294 372.98 C 737.441 356.463 746.053 348.719 759.066 340.642 C 789.34 322.645 820.809 306.462 851.496 289.112 L 907.172 257.92 C 928.959 245.553 943.045 234.293 968.685 232.417 z" fill="rgb(9,190,99)" transform="translate(0,0)"></path>
<path d="M 1654.6 1317.38 C 1669.38 1316.06 1704.55 1316.3 1719.33 1318.7 C 1727.68 1320.06 1737.76 1327.52 1742.14 1335.05 C 1750.7 1349.76 1747.56 1393.88 1743.21 1409.71 C 1733.44 1445.42 1710.14 1470.53 1679.63 1489.33 C 1652.88 1505.82 1656.38 1505.06 1627.29 1498.55 C 1615.77 1495.98 1578.78 1515.22 1567.7 1521.63 C 1551.02 1531.28 1548.53 1555.42 1537.85 1569.67 C 1524.12 1583.4 1486.52 1603.27 1468.73 1613.36 C 1458.87 1619.64 1449.47 1626.1 1437.64 1628.27 C 1414.89 1632.44 1387.54 1614.16 1386.06 1590.28 C 1384.86 1571.02 1385.78 1550.65 1385.48 1531.21 C 1385.29 1518.75 1384.55 1501.29 1386.94 1489.22 C 1388.75 1479.82 1392.69 1470.96 1398.46 1463.33 C 1426.81 1426.47 1472.99 1442.59 1513.04 1436.79 C 1544.78 1433.84 1583.78 1409.11 1593.93 1377.11 C 1604.46 1343.94 1614.42 1321.51 1654.6 1317.38 z" fill="rgb(9,190,99)" transform="translate(0,0)"></path>
<path d="M 1703.28 800.487 C 1704.83 800.458 1706.39 800.439 1707.94 800.43 C 1718.89 800.376 1729.79 801.794 1737.78 810.193 C 1748.18 821.122 1747.16 833.648 1747.18 847.478 C 1747.19 856.776 1747.3 866.135 1747.35 875.443 L 1747.67 987.063 C 1747.99 1081.6 1748.63 1073.06 1654.09 1072.61 C 1638.82 1072.28 1625.15 1071.5 1615.9 1057.38 C 1608.61 1046.24 1609.56 1038.37 1609.49 1025.59 L 1609.32 912.296 C 1609.28 878.994 1603.36 844.443 1628.74 819.669 C 1651 797.943 1674.75 800.568 1703.28 800.487 z" fill="rgb(9,190,99)" transform="translate(0,0)"></path>
<path d="M 566.504 1444.3 C 576.553 1443.29 601.321 1443.87 611.484 1444.64 C 626.461 1445.79 642.088 1455.11 651.241 1467.5 C 656.775 1475.05 660.551 1483.73 662.294 1492.93 C 667.421 1518.8 663.044 1568.55 662.688 1596.33 C 662.357 1622.09 633.629 1631.53 610.838 1627.05 C 595.094 1621.8 545.337 1588.76 528.086 1578.59 C 517.976 1571.21 510.512 1561.26 509.554 1548.79 C 505.896 1501.17 507.894 1452.54 566.504 1444.3 z" fill="rgb(9,190,99)" transform="translate(0,0)"></path>
<path d="M 395.645 547.209 C 397.908 547.029 400.176 546.907 402.445 546.843 C 412.559 546.617 422.905 550.262 430.155 557.43 C 435.073 562.35 438.54 568.531 440.174 575.293 C 443.917 590.149 440.374 638.882 441.407 657.024 C 442.538 676.894 437.426 699.533 422.307 713.756 C 400.796 733.992 378.866 732.005 351.5 731.834 C 312.539 732.796 304.322 717.787 303.845 682.141 C 303.343 644.686 313.049 609.831 340.383 582.779 C 354.773 568.537 376.697 553.416 395.645 547.209 z" fill="rgb(9,190,99)" transform="translate(0,0)"></path>
<path d="M 1015.12 943.306 C 1058.19 937.704 1097.66 968.063 1103.29 1011.13 C 1108.93 1054.2 1078.6 1093.69 1035.53 1099.36 C 992.42 1105.03 952.878 1074.67 947.237 1031.55 C 941.596 988.433 971.995 948.914 1015.12 943.306 z" fill="rgb(9,190,99)" transform="translate(0,0)"></path>
<path d="M 801.41 605.738 C 837.351 602.404 869.192 628.834 872.532 664.775 C 875.872 700.716 849.448 732.561 813.508 735.908 C 777.558 739.256 745.703 712.824 742.362 676.873 C 739.02 640.923 765.459 609.072 801.41 605.738 z" fill="rgb(9,190,99)" transform="translate(0,0)"></path>
<path d="M 361.686 1128.67 C 397.395 1124.52 429.722 1150.06 433.951 1185.76 C 438.18 1221.46 412.713 1253.85 377.024 1258.15 C 341.221 1262.48 308.711 1236.91 304.469 1201.1 C 300.227 1165.29 325.865 1132.84 361.686 1128.67 z" fill="rgb(9,190,99)" transform="translate(0,0)"></path>
<path d="M 1671.36 1129.45 C 1706.86 1123.45 1740.47 1147.46 1746.31 1182.99 C 1752.15 1218.51 1727.99 1252.02 1692.44 1257.7 C 1657.11 1263.35 1623.86 1239.38 1618.05 1204.07 C 1612.25 1168.76 1636.08 1135.41 1671.36 1129.45 z" fill="rgb(9,190,99)" transform="translate(0,0)"></path>
<metadata><recraft-signature>{"signed_by": "recraft", "signature_b64": "+vzKqdJzAtuQVd4iA3y+/ZqmBIzu/bwtRdsfbGoyg1KdlsJJveBVcISCNhy72y0ogvtUIObo7VcbQqrnnYG5Ag==", "signing_algo": "Ed25519", "generation_timestamp": 1772775506, "identifier": "2269b6c6-0b23-4a69-84bb-57e85c364d33"}</recraft-signature></metadata></svg>