<svg xmlns="http://www.w3.org/2000/svg" height="1024" preserveAspectRatio="none" style="display: block;" version="1.1" viewBox="0 0 2048 2048" width="1024">
<path d="M 0 0 L 2048 0 L 2048 2048 L 0 2048 L 0 0 z" fill="rgb(251,251,251)" transform="translate(0,0)"></path>
<path d="M 688.703 470.548 C 703.463 442.631 726.31 410.472 743.978 383.509 C 761.227 357.184 782.413 322.311 801.687 298.153 C 835.241 256.098 888.216 224.391 939.316 208.45 C 1013.03 185.964 1092.65 193.487 1160.85 229.384 C 1190.42 245.12 1217.13 265.73 1239.86 290.348 C 1258.58 310.825 1274.59 336.143 1289.5 359.679 C 1312.77 396.408 1336.86 432.946 1359.47 470.042 C 1369.64 471.332 1382.04 470.734 1392.45 470.671 L 1447.26 470.255 C 1475.52 470.022 1510.11 469.23 1538.21 472.629 C 1612.3 481.378 1680.09 518.625 1727.2 576.482 C 1777.95 639.355 1798.41 710.871 1790.14 791.349 C 1782.44 866.287 1745.82 910.827 1709.46 973.384 C 1704.27 982.328 1683.48 1017.74 1678.88 1023.32 L 1678.77 1024.34 C 1680.53 1029.92 1702.01 1063.65 1706.71 1071.82 C 1723.74 1101.95 1745.22 1130.27 1760.97 1161.02 C 1822.44 1281.02 1790.65 1424.23 1688.29 1509.73 C 1642.78 1548.26 1586.5 1571.83 1527.11 1577.24 C 1481.18 1580.99 1430.46 1576.31 1384.07 1578.04 C 1376.91 1578.31 1368.25 1577.82 1361.11 1577.17 C 1349.17 1594.52 1339.09 1612 1327.67 1629.46 C 1313.36 1653.12 1294.46 1676.02 1280.36 1699.6 C 1253.94 1743.81 1224.91 1778.62 1180.77 1806.79 C 1114.99 1848.11 1035.64 1861.98 959.743 1845.42 C 898.354 1831.52 840.879 1796.18 800.776 1747.5 C 786.7 1730.41 771.991 1705.74 759.346 1686.99 C 735.02 1651.1 711.337 1614.79 688.308 1578.05 C 574.637 1575.52 482.81 1595.52 381.873 1527.22 C 318.031 1483.41 274.109 1416.12 259.691 1340.04 C 247.264 1273.51 260.727 1200.68 296.993 1143.52 C 321.572 1104.78 344.061 1063.94 370.08 1026.14 C 352.202 993.101 331.245 958.239 310.77 926.719 C 275.408 872.28 254.294 820.502 255.021 754.06 C 256.449 677.924 287.994 605.458 342.747 552.535 C 391.048 505.567 454.168 476.843 521.31 471.276 C 543.14 469.285 569.65 469.907 592.086 469.927 L 688.703 470.548 z" fill="rgb(0,0,0)" transform="translate(0,0)"></path>
<path d="M 370.08 1026.14 C 352.202 993.101 331.245 958.239 310.77 926.719 C 275.408 872.28 254.294 820.502 255.021 754.06 C 256.449 677.924 287.994 605.458 342.747 552.535 C 391.048 505.567 454.168 476.843 521.31 471.276 C 543.14 469.285 569.65 469.907 592.086 469.927 L 688.703 470.548 L 687.654 471.238 C 670.894 482.133 649.776 492.714 632.089 502.894 C 592.364 526.101 552.454 548.99 512.364 571.559 C 495.86 580.868 478.573 591.085 462.191 599.911 C 408.498 628.837 371.284 681.971 370.156 743.988 C 369.622 773.326 369.865 803.114 369.864 832.648 L 369.811 1025.49 L 370.069 1216.44 C 370.091 1234.98 370.369 1254.52 370.118 1273.13 C 369.619 1310.28 370.552 1337.01 386.75 1370.97 C 411.918 1423.75 447.52 1439.86 495.725 1466.66 C 524.923 1482.95 554.039 1499.39 583.071 1515.98 L 821.082 1652.1 L 910.873 1703.43 C 936.117 1717.57 968.017 1737.45 996.018 1743.24 C 1022.16 1748.42 1049.24 1746.11 1074.12 1736.57 C 1096.94 1727.89 1137.01 1703.02 1159.69 1690.11 L 1315.51 1601.31 L 1413.48 1546.1 C 1436.26 1533.05 1458.75 1519.22 1481.67 1506.45 C 1510.2 1490.87 1538.53 1474.92 1566.66 1458.62 C 1578.73 1451.64 1593.56 1443.49 1604.89 1435.99 C 1640.13 1412.66 1666.57 1371.63 1674.1 1330.02 C 1679.39 1300.85 1677.91 1260.52 1677.97 1229.75 L 1678.26 1082.76 C 1678.28 1073.73 1677.52 1029.47 1678.77 1024.34 C 1680.53 1029.92 1702.01 1063.65 1706.71 1071.82 C 1723.74 1101.95 1745.22 1130.27 1760.97 1161.02 C 1822.44 1281.02 1790.65 1424.23 1688.29 1509.73 C 1642.78 1548.26 1586.5 1571.83 1527.11 1577.24 C 1481.18 1580.99 1430.46 1576.31 1384.07 1578.04 C 1376.91 1578.31 1368.25 1577.82 1361.11 1577.17 C 1349.17 1594.52 1339.09 1612 1327.67 1629.46 C 1313.36 1653.12 1294.46 1676.02 1280.36 1699.6 C 1253.94 1743.81 1224.91 1778.62 1180.77 1806.79 C 1114.99 1848.11 1035.64 1861.98 959.743 1845.42 C 898.354 1831.52 840.879 1796.18 800.776 1747.5 C 786.7 1730.41 771.991 1705.74 759.346 1686.99 C 735.02 1651.1 711.337 1614.79 688.308 1578.05 C 574.637 1575.52 482.81 1595.52 381.873 1527.22 C 318.031 1483.41 274.109 1416.12 259.691 1340.04 C 247.264 1273.51 260.727 1200.68 296.993 1143.52 C 321.572 1104.78 344.061 1063.94 370.08 1026.14 z" fill="rgb(252,51,10)" transform="translate(0,0)"></path>
<path d="M 688.703 470.548 C 703.463 442.631 726.31 410.472 743.978 383.509 C 761.227 357.184 782.413 322.311 801.687 298.153 C 835.241 256.098 888.216 224.391 939.316 208.45 C 1013.03 185.964 1092.65 193.487 1160.85 229.384 C 1190.42 245.12 1217.13 265.73 1239.86 290.348 C 1258.58 310.825 1274.59 336.143 1289.5 359.679 C 1312.77 396.408 1336.86 432.946 1359.47 470.042 C 1369.64 471.332 1382.04 470.734 1392.45 470.671 L 1447.26 470.255 C 1475.52 470.022 1510.11 469.23 1538.21 472.629 C 1612.3 481.378 1680.09 518.625 1727.2 576.482 C 1777.95 639.355 1798.41 710.871 1790.14 791.349 C 1782.44 866.287 1745.82 910.827 1709.46 973.384 C 1704.27 982.328 1683.48 1017.74 1678.88 1023.32 C 1677.53 1018.86 1678.17 976.284 1678.14 968.704 L 1678.17 818.988 C 1678.19 765.512 1683.24 710.805 1654.2 663.169 C 1631.11 625.304 1605.73 612.137 1568.84 591.154 L 1499.82 552.125 L 1289 432.198 L 1137.65 346.563 C 1115.36 334.151 1094.92 320.33 1071.08 310.754 C 1005.05 284.232 954.628 320.046 899.654 351.335 L 751.52 435.179 C 735.784 444.027 705.075 463.438 690.564 469.757 L 688.703 470.548 z" fill="rgb(252,51,10)" transform="translate(0,0)"></path>
<path d="M 1021.86 686.048 C 1039.93 697.618 1062.34 709.72 1081.09 720.377 L 1169.85 771.231 L 1273.98 831.138 C 1291.79 841.318 1309.63 852.195 1327.85 861.539 L 1328.11 1191.48 L 1484.81 931.983 C 1512.4 885.703 1543.05 831.712 1572.13 786.731 L 1575 782.631 L 1576.25 782.519 C 1576.74 784.966 1576.87 785.784 1577 788.265 C 1576.38 801.255 1576.88 817.649 1576.89 830.932 L 1576.96 912.397 L 1577.07 1158.47 L 1577.13 1246.49 C 1577.14 1276.37 1581.79 1330.81 1552.49 1349.05 C 1526.2 1365.42 1496.97 1380.27 1469.92 1395.77 L 1279.65 1504.36 L 1147.69 1579.6 C 1127.71 1591.17 1088.25 1615.54 1068.65 1624.16 C 1071.69 1618.66 1074.92 1613.16 1078.26 1607.83 C 1098.43 1575.64 1117.48 1542.83 1136.92 1510.21 L 1325.6 1195.42 C 1318.41 1191.69 1306.92 1183.9 1299.29 1179.29 C 1283.17 1169.74 1266.97 1160.31 1250.69 1151.02 L 1024.88 1021.07 L 1024.11 1363.56 C 985.419 1340.21 944.544 1317.65 905.322 1295.11 L 718.782 1187.33 C 718.406 1248.25 718.43 1309.17 718.856 1370.09 C 783.09 1370.7 847.329 1370.75 911.565 1370.23 C 947.355 1370.07 989.028 1370.95 1024.18 1369.09 L 1024.72 1520.07 C 1024.75 1541.95 1027.72 1607.06 1017.82 1622.85 C 1004.73 1631.73 983.949 1628.22 970.897 1620.83 C 947.672 1607.67 924.552 1594.32 901.339 1581.13 L 745.392 1492.17 L 584.011 1399.62 C 556.474 1383.88 528.396 1368.63 501.108 1352.48 C 496.852 1349.96 492.279 1345.58 489.218 1341.62 C 484.252 1335.2 482.28 1333.3 483.089 1325.46 C 490.24 1314.66 551.006 1282.28 565.835 1273.75 L 718.492 1186.19 C 719.515 1147.32 718.95 1106.06 718.948 1067.02 L 718.988 859.921 C 747.732 841.504 781.376 824.427 811.217 807.036 C 881.18 766.269 951.397 725.939 1021.86 686.048 z" fill="rgb(252,51,10)" transform="translate(0,0)"></path>
<path d="M 1015.1 407.275 C 1021.99 406.708 1033.07 406.654 1039.16 409.373 C 1065.87 421.294 1094.43 438.469 1119.84 453.28 C 1169.66 482.328 1221.65 509.808 1270.98 539.231 C 1257.69 550.035 1030.35 679.597 1021.13 681.356 C 1012.87 682.932 1003.49 682.307 995.076 682.408 C 976.918 682.649 958.759 682.682 940.601 682.509 L 793.5 681.995 L 535.11 682.257 C 552.191 664.626 557.194 663.244 578.102 651.275 L 630.385 621.282 L 772.781 539.96 L 919.527 456.389 C 943.08 442.981 990.632 412.287 1015.1 407.275 z" fill="rgb(252,51,10)" transform="translate(0,0)"></path>
<path d="M 481.745 724.492 C 490.727 729.3 500.139 734.963 508.924 740.224 C 576.853 780.902 647.368 817.741 715.161 858.514 C 708.168 868.729 701.393 882.389 694.977 893.357 C 651.68 967.382 603.805 1040.21 561.241 1114.56 C 532.676 1161.45 502.06 1215.02 471.99 1259.95 L 472.424 925.328 L 472.307 818.894 C 472.264 784.533 469.035 757.087 481.745 724.492 z" fill="rgb(252,51,10)" transform="translate(0,0)"></path>
<path d="M 1328.83 572.159 C 1339.03 576.092 1353.23 584.717 1362.96 590.328 L 1414.06 619.814 L 1486.02 660.542 C 1502.27 669.655 1518.85 678.424 1534.53 688.482 C 1543.3 694.102 1552.56 700.849 1559.53 708.642 C 1561.5 710.851 1565.18 715.284 1564.51 718.536 C 1561.97 731.006 1492.63 767.252 1478.43 775.429 L 1328.11 860.972 L 1328.83 572.159 z" fill="rgb(252,51,10)" transform="translate(0,0)"></path>
<metadata><recraft-signature>{"signed_by": "recraft", "signature_b64": "BfTGzNnohFv6gkL2AarmsUzO7bomxEdK8DKBQCtY/ThH3R7WKXzRFHJTQxkUt4Fp+u1Kf0YOsNaPDn4PacTdAA==", "signing_algo": "Ed25519", "generation_timestamp": 1772776085, "identifier": "f3a6f0ad-5580-45f0-b927-981367055392"}</recraft-signature></metadata></svg>