<svg xmlns="http://www.w3.org/2000/svg" viewBox="0 0 100 100" width="100" height="100">
  <defs>
    <linearGradient id="branchGradient" x1="0%" y1="100%" x2="0%" y2="0%">
      <stop offset="0%" style="stop-color:#234E52"/>
      <stop offset="100%" style="stop-color:#D4A574"/>
    </linearGradient>
  </defs>
  
  <!-- Background -->
  <rect width="100" height="100" fill="#0D1B2A" rx="10"/>
  
  <!-- Main trunk -->
  <line x1="50" y1="85" x2="50" y2="25" stroke="url(#branchGradient)" stroke-width="3" stroke-linecap="round"/>
  
  <!-- Upper branches -->
  <line x1="50" y1="25" x2="30" y2="15" stroke="#D4A574" stroke-width="2" stroke-linecap="round"/>
  <line x1="50" y1="25" x2="70" y2="15" stroke="#D4A574" stroke-width="2" stroke-linecap="round"/>
  
  <!-- Middle branches -->
  <line x1="50" y1="45" x2="25" y2="35" stroke="#38B2AC" stroke-width="2" stroke-linecap="round"/>
  <line x1="50" y1="45" x2="75" y2="35" stroke="#38B2AC" stroke-width="2" stroke-linecap="round"/>
  
  <!-- Lower foundation -->
  <line x1="50" y1="85" x2="30" y2="85" stroke="#234E52" stroke-width="2" stroke-linecap="round"/>
  <line x1="50" y1="85" x2="70" y2="85" stroke="#234E52" stroke-width="2" stroke-linecap="round"/>
  <line x1="30" y1="85" x2="20" y2="75" stroke="#234E52" stroke-width="2" stroke-linecap="round"/>
  <line x1="70" y1="85" x2="80" y2="75" stroke="#234E52" stroke-width="2" stroke-linecap="round"/>
  
  <!-- Nodes -->
  <circle cx="50" cy="25" r="5" fill="#D4A574"/>
  <circle cx="30" cy="15" r="4" fill="#D4A574"/>
  <circle cx="70" cy="15" r="4" fill="#D4A574"/>
  <circle cx="25" cy="35" r="4" fill="#38B2AC"/>
  <circle cx="75" cy="35" r="4" fill="#38B2AC"/>
  <circle cx="50" cy="85" r="5" fill="#234E52"/>
  <circle cx="30" cy="85" r="4" fill="#234E52"/>
  <circle cx="70" cy="85" r="4" fill="#234E52"/>
  <circle cx="20" cy="75" r="3" fill="#234E52"/>
  <circle cx="80" cy="75" r="3" fill="#234E52"/>
</svg>
