<svg xmlns="http://www.w3.org/2000/svg" height="1024" preserveAspectRatio="none" style="display: block;" version="1.1" viewBox="0 0 2048 2048" width="1024">
<path d="M 0 0 L 2048 0 L 2048 2048 L 0 2048 L 0 0 z" fill="rgb(255,255,255)" transform="translate(0,0)"></path>
<path d="M 369.201 615.41 C 510.331 389.405 757.892 251.998 1024.34 251.777 C 1290.79 251.556 1538.58 388.553 1680.09 614.324 C 1868.24 914.532 1828.27 1304.22 1583.07 1559.97 C 1308.88 1845.96 862.87 1878.4 550.185 1635.09 C 237.499 1391.78 159.349 951.468 369.201 615.41 z" fill="rgb(13,1,48)" transform="translate(0,0)"></path>
<path d="M 369.201 615.41 C 510.331 389.405 757.892 251.998 1024.34 251.777 C 1290.79 251.556 1538.58 388.553 1680.09 614.324 C 1664.22 625.767 1660.93 626.127 1643.92 632.544 C 1631.75 637.136 1585.29 634.902 1581.26 638.08 C 1603.21 671.624 1626 708.108 1643.43 744.294 C 1651.75 761.551 1659.61 784.022 1666.09 802.027 C 1621.09 782.774 1594.68 783.55 1547.3 786.328 C 1500.11 687.916 1427.01 604.212 1335.85 544.199 C 1316.27 531.05 1277.4 508.545 1255.33 500.617 C 1233.52 491.097 1191.13 475.185 1167.96 470.779 C 1074.87 446.505 977.156 446.168 883.904 469.8 C 852.952 478.162 824.246 487.259 794.764 500.111 C 789.63 452.106 799.458 423.34 814.166 380.313 C 708.686 413.471 603.664 484.167 528.303 564.32 C 512.735 580.995 497.944 598.379 483.976 616.416 C 483.101 617.526 467.971 637.956 468.883 637.195 C 465.916 635.894 455.679 635.825 452.297 635.961 C 414.97 637.463 400.41 636.64 369.201 615.41 z" fill="rgb(60,41,187)" transform="translate(0,0)"></path>
<path d="M 1236.43 380.419 C 1381.57 431.836 1490.11 514.728 1581.26 638.08 C 1603.21 671.624 1626 708.108 1643.43 744.294 C 1651.75 761.551 1659.61 784.022 1666.09 802.027 C 1621.09 782.774 1594.68 783.55 1547.3 786.328 C 1500.11 687.916 1427.01 604.212 1335.85 544.199 C 1316.27 531.05 1277.4 508.545 1255.33 500.617 C 1257.69 455.84 1252.98 422.359 1236.43 380.419 z" fill="rgb(255,255,255)" transform="translate(0,0)"></path>
<path d="M 883.904 469.8 C 879.819 457.498 890.912 428.363 896.497 417.392 C 912.475 385.698 940.464 361.71 974.23 350.77 C 1008.89 339.535 1064.97 342.131 1097.34 359.452 C 1143.2 383.986 1163.08 420.357 1167.96 470.779 C 1074.87 446.505 977.156 446.168 883.904 469.8 z" fill="rgb(86,65,208)" transform="translate(0,0)"></path>
<path d="M 1581.26 638.08 C 1585.29 634.902 1631.75 637.136 1643.92 632.544 C 1660.93 626.127 1664.22 625.767 1680.09 614.324 C 1868.24 914.532 1828.27 1304.22 1583.07 1559.97 C 1578.51 1554.55 1554.16 1555.67 1546.4 1555.47 C 1524.95 1554.84 1503.49 1554.49 1482.02 1554.41 C 1470.94 1554.4 1455.96 1555.28 1445.33 1554.36 C 1452.83 1548.24 1459.43 1542.99 1466.33 1536.14 C 1441.38 1513.9 1416.08 1487.66 1391.46 1464.27 C 1393.56 1461.18 1414.02 1442.28 1417.71 1439.45 C 1431.92 1428.56 1445.4 1408.25 1458.34 1398.37 C 1488.76 1361.89 1531.29 1305.38 1548.28 1260.77 C 1562.51 1227.07 1569.39 1207.77 1579.66 1172.55 C 1584.51 1160.11 1590.02 1132.87 1592.24 1119.53 C 1605.5 1038.37 1601.38 955.318 1580.15 875.867 C 1573.08 845.357 1558.9 815.063 1547.3 786.328 C 1594.68 783.55 1621.09 782.774 1666.09 802.027 C 1659.61 784.022 1651.75 761.551 1643.43 744.294 C 1626 708.108 1603.21 671.624 1581.26 638.08 z" fill="rgb(24,8,148)" transform="translate(0,0)"></path>
<path d="M 1580.15 875.867 C 1612.45 875.385 1644.71 891.503 1667.75 913.452 C 1723.78 966.834 1723.72 1077.87 1669.5 1132.19 C 1644.75 1157 1614.13 1169.28 1579.66 1172.55 C 1584.51 1160.11 1590.02 1132.87 1592.24 1119.53 C 1605.5 1038.37 1601.38 955.318 1580.15 875.867 z" fill="rgb(60,41,187)" transform="translate(0,0)"></path>
<path d="M 1548.28 1260.77 C 1593.12 1264.32 1625.28 1260.02 1667.79 1242.9 C 1642.03 1317.31 1587.53 1414.29 1532.4 1471.05 C 1510.44 1450.76 1478.73 1420.22 1458.34 1398.37 C 1488.76 1361.89 1531.29 1305.38 1548.28 1260.77 z" fill="rgb(255,255,255)" transform="translate(0,0)"></path>
<path d="M 468.883 637.195 C 467.971 637.956 483.101 617.526 483.976 616.416 C 497.944 598.379 512.735 580.995 528.303 564.32 C 603.664 484.167 708.686 413.471 814.166 380.313 C 799.458 423.34 789.63 452.106 794.764 500.111 C 691.303 546.095 603.248 620.863 541.097 715.501 C 524.39 741.02 515.288 759.491 501.031 785.914 C 448.848 783.046 431.995 785.109 382.836 802.143 C 386.896 789.053 393.05 776.622 398.261 763.978 C 417.173 718.088 439.93 677.486 468.883 637.195 z" fill="rgb(255,255,255)" transform="translate(0,0)"></path>
<path d="M 1391.46 1464.27 C 1416.08 1487.66 1441.38 1513.9 1466.33 1536.14 C 1459.43 1542.99 1452.83 1548.24 1445.33 1554.36 C 1429.33 1565.46 1413.7 1577.99 1397.55 1589.15 C 1353.28 1619.76 1288.88 1653.58 1237.08 1668.16 C 1253.95 1630.09 1257.19 1589.55 1257.79 1548.73 C 1303.86 1526.23 1353.24 1498.88 1391.46 1464.27 z" fill="rgb(255,255,255)" transform="translate(0,0)"></path>
<path d="M 629.239 752.058 C 657.757 708.244 712.891 656.438 756.085 627.057 C 859.89 556.655 987.157 529.753 1110.57 552.124 C 1220.63 572.908 1320.18 630.918 1392.53 716.416 C 1401.2 726.669 1412.31 739.802 1419.78 750.82 C 1436.33 772.041 1458.62 814.245 1469.53 839.258 C 1475.2 855.784 1481.59 871.139 1486.45 888.017 C 1511.55 975.168 1514.72 1053.91 1491.26 1141.85 C 1486.63 1159.22 1479.69 1174 1475.44 1188.85 C 1463.99 1215.17 1453.66 1240.82 1438.44 1265.3 C 1437.05 1267.53 1432.38 1275.62 1430.91 1277.27 C 1398.66 1333.94 1334.21 1393.24 1279.89 1428.78 C 1053.91 1576.57 759.156 1504.58 616.303 1276.5 C 607.283 1268.64 576.942 1203.49 571.383 1189.55 C 527.573 1070.01 533.902 955.884 580.674 838.896 C 593.743 809.572 610.322 777.962 629.239 752.058 z" fill="rgb(255,255,255)" transform="translate(0,0)"></path>
<path d="M 1222.59 1122.06 C 1215.28 1120.91 1208.04 1119.31 1200.92 1117.26 C 1159.74 1105.26 1125.03 1077.38 1104.42 1039.77 C 1083.21 1000.88 1078.27 955.175 1090.68 912.654 C 1111.88 842.389 1178.86 793.202 1252.11 794.581 C 1263.34 794.793 1276.84 796.043 1287.61 799.313 C 1314.05 805.783 1338.26 819.24 1357.72 838.276 C 1362.04 842.473 1370.73 852.633 1374.04 855.561 C 1399.78 840.252 1440.13 838.88 1469.53 839.258 C 1475.2 855.784 1481.59 871.139 1486.45 888.017 C 1511.55 975.168 1514.72 1053.91 1491.26 1141.85 C 1486.63 1159.22 1479.69 1174 1475.44 1188.85 C 1463.24 1189.04 1450.53 1188.71 1438.36 1187.77 C 1388.52 1183.94 1339.71 1152.04 1315.03 1108.76 C 1276.36 1124.42 1264.63 1125.86 1222.59 1122.06 z" fill="rgb(13,1,48)" transform="translate(0,0)"></path>
<path d="M 1469.53 839.258 C 1475.2 855.784 1481.59 871.139 1486.45 888.017 C 1511.55 975.168 1514.72 1053.91 1491.26 1141.85 C 1486.63 1159.22 1479.69 1174 1475.44 1188.85 C 1463.24 1189.04 1450.53 1188.71 1438.36 1187.77 C 1388.52 1183.94 1339.71 1152.04 1315.03 1108.76 C 1323.39 1104.79 1331.4 1100.14 1339 1094.86 C 1371.94 1071.65 1398.89 1030.37 1405.57 990.507 C 1413.8 943.109 1402.42 894.402 1374.04 855.561 C 1399.78 840.252 1440.13 838.88 1469.53 839.258 z" fill="rgb(60,41,187)" transform="translate(0,0)"></path>
<path d="M 1236.55 887.503 C 1276.58 881.281 1314.04 908.771 1320.11 948.818 C 1326.18 988.866 1298.54 1026.22 1258.47 1032.14 C 1218.62 1038.02 1181.51 1010.57 1175.47 970.738 C 1169.44 930.906 1196.74 893.692 1236.55 887.503 z" fill="rgb(255,255,255)" transform="translate(0,0)"></path>
<path d="M 761.54 799.407 C 796.604 788.309 841.799 795.433 874.274 812.116 C 913.238 831.824 942.623 866.395 955.796 908.026 C 986.816 1006.05 929.409 1104.39 827.173 1121.95 C 792.248 1127.77 765.632 1121.61 733.343 1109.05 C 709.478 1147.78 674.54 1174.35 630.01 1184.84 C 609.429 1189.69 592.258 1189.28 571.383 1189.55 C 527.573 1070.01 533.902 955.884 580.674 838.896 C 611.939 839.097 646.771 840.943 674.033 858.424 C 677.824 854.927 685.959 844.6 691.179 839.412 C 709.327 821.373 731.604 808.275 756.278 801.408 C 759.164 800.604 758.595 801.436 761.54 799.407 z" fill="rgb(13,1,48)" transform="translate(0,0)"></path>
<path d="M 580.674 838.896 C 611.939 839.097 646.771 840.943 674.033 858.424 C 647.035 896.925 636.419 944.566 644.516 990.888 C 652.994 1040.97 686.837 1087.72 733.343 1109.05 C 709.478 1147.78 674.54 1174.35 630.01 1184.84 C 609.429 1189.69 592.258 1189.28 571.383 1189.55 C 527.573 1070.01 533.902 955.884 580.674 838.896 z" fill="rgb(60,41,187)" transform="translate(0,0)"></path>
<path d="M 789.935 887.624 C 829.841 881.329 867.283 908.612 873.516 948.529 C 879.748 988.445 852.406 1025.84 812.479 1032.01 C 772.642 1038.17 735.344 1010.9 729.126 971.074 C 722.907 931.246 750.117 893.905 789.935 887.624 z" fill="rgb(255,255,255)" transform="translate(0,0)"></path>
<path d="M 629.239 752.058 C 657.757 708.244 712.891 656.438 756.085 627.057 C 859.89 556.655 987.157 529.753 1110.57 552.124 C 1220.63 572.908 1320.18 630.918 1392.53 716.416 C 1401.2 726.669 1412.31 739.802 1419.78 750.82 C 1436.33 772.041 1458.62 814.245 1469.53 839.258 C 1440.13 838.88 1399.78 840.252 1374.04 855.561 C 1370.73 852.633 1362.04 842.473 1357.72 838.276 C 1338.26 819.24 1314.05 805.783 1287.61 799.313 C 1303.09 789.097 1318.16 780.016 1335.03 772.197 C 1269.82 690.66 1174.75 638.551 1070.94 627.454 C 965.758 614.393 859.721 643.933 776.442 709.495 C 750.517 730.114 734.624 747.227 713.822 772.604 C 729.446 778.331 747.255 790.165 761.54 799.407 C 758.595 801.436 759.164 800.604 756.278 801.408 C 731.604 808.275 709.327 821.373 691.179 839.412 C 685.959 844.6 677.824 854.927 674.033 858.424 C 646.771 840.943 611.939 839.097 580.674 838.896 C 593.743 809.572 610.322 777.962 629.239 752.058 z" fill="rgb(24,8,148)" transform="translate(0,0)"></path>
<path d="M 733.343 1109.05 C 765.632 1121.61 792.248 1127.77 827.173 1121.95 C 805.604 1177.61 749.72 1233.4 695.277 1256.54 C 667.306 1268.43 646.583 1273.38 616.303 1276.5 C 607.283 1268.64 576.942 1203.49 571.383 1189.55 C 592.258 1189.28 609.429 1189.69 630.01 1184.84 C 674.54 1174.35 709.478 1147.78 733.343 1109.05 z" fill="rgb(24,8,148)" transform="translate(0,0)"></path>
<path d="M 1315.03 1108.76 C 1339.71 1152.04 1388.52 1183.94 1438.36 1187.77 C 1450.53 1188.71 1463.24 1189.04 1475.44 1188.85 C 1463.99 1215.17 1453.66 1240.82 1438.44 1265.3 C 1437.05 1267.53 1432.38 1275.62 1430.91 1277.27 C 1426.71 1275.29 1407.26 1272.76 1401.39 1271.6 C 1332.27 1258.01 1272.58 1210.23 1236.46 1150.75 C 1231.61 1142.76 1224.74 1131.18 1222.59 1122.06 C 1264.63 1125.86 1276.36 1124.42 1315.03 1108.76 z" fill="rgb(24,8,148)" transform="translate(0,0)"></path>
<path d="M 1019.22 1178.13 C 1083.48 1174.89 1138.23 1224.27 1141.62 1288.52 C 1145.01 1352.76 1095.77 1407.63 1031.53 1411.18 C 967.073 1414.75 911.971 1365.29 908.566 1300.83 C 905.161 1236.36 954.747 1181.38 1019.22 1178.13 z" fill="rgb(13,1,48)" transform="translate(0,0)"></path>
<path d="M 1016.97 1255.2 C 1036.59 1253.2 1051.15 1258.95 1062.55 1275.43 C 1069.27 1285.14 1069.38 1296.39 1069.97 1307.77 L 1033.5 1307.72 C 1015.5 1307.74 997.12 1307.41 979.181 1307.74 C 979.886 1294.33 979.455 1286.06 987.301 1274.61 C 995.593 1262.51 1002.77 1258.06 1016.97 1255.2 z" fill="rgb(24,8,148)" transform="translate(0,0)"></path>
<path d="M 589.48 1398.23 L 590.08 1398.82 C 598.033 1406.74 606.784 1418.33 615.369 1427.13 C 624.031 1436.02 650.643 1456.28 656.067 1463.45 C 684.86 1493.56 756.471 1534.32 795.023 1551.1 C 789.852 1587.93 796.28 1633.94 811.221 1667.95 C 748.371 1647.37 689.13 1617.08 635.649 1578.18 C 624.543 1570.13 613.704 1561.72 603.15 1552.97 C 598.129 1548.87 587.802 1540.04 582.639 1536.9 C 572.533 1531.77 525.289 1482.81 516.743 1470.65 C 540.001 1450.08 567.025 1420.86 589.48 1398.23 z" fill="rgb(255,255,255)" transform="translate(0,0)"></path>
<path d="M 589.48 1398.23 L 590.08 1398.82 C 598.033 1406.74 606.784 1418.33 615.369 1427.13 C 624.031 1436.02 650.643 1456.28 656.067 1463.45 C 646.603 1471.21 634.691 1484.29 625.883 1493.33 C 611.557 1507.94 597.142 1522.46 582.639 1536.9 C 572.533 1531.77 525.289 1482.81 516.743 1470.65 C 540.001 1450.08 567.025 1420.86 589.48 1398.23 z" fill="rgb(24,8,148)" transform="translate(0,0)"></path>
<path d="M 464.698 875.295 L 467.667 875.603 C 468.775 878.944 463.768 898.983 462.613 903.86 C 440.717 996.337 445.895 1081.05 467.757 1172.44 C 440.874 1169.67 415.218 1159.77 393.433 1143.78 C 368.212 1124.19 348.271 1090.99 343.804 1059.04 C 330.986 967.334 365.75 890.541 464.698 875.295 z" fill="rgb(24,8,148)" transform="translate(0,0)"></path>
<path d="M 1166.76 1580.2 L 1168.28 1580.26 C 1169.54 1581.67 1169.36 1580.93 1169.27 1582.59 C 1167.3 1616.71 1150.78 1650.59 1125.19 1673.2 C 1091.28 1703.17 1053.64 1710.73 1009.72 1708.11 C 972.24 1705.88 938.203 1690.62 913.3 1662.3 C 891.967 1639.07 883.744 1612.17 881.089 1581.6 C 981.057 1605.81 1067 1608.11 1166.76 1580.2 z" fill="rgb(24,8,148)" transform="translate(0,0)"></path>
<path d="M 382.891 1243.31 C 425.08 1259.8 455.39 1262.7 500.189 1261.04 C 523.627 1310.59 553.663 1356.74 589.48 1398.23 C 567.025 1420.86 540.001 1450.08 516.743 1470.65 C 453.724 1398.6 413.724 1334.14 382.891 1243.31 z" fill="rgb(255,255,255)" transform="translate(0,0)"></path>
<metadata><recraft-signature>{"signed_by": "recraft", "signature_b64": "4GWax4ZGSifD87xV1sxHlNOhIeTjY/yrXe2ktSQrFInnUBNKGfGE3z2/sjbM+GQpaMmXiqc+oNUGNxP2Yb8mCg==", "signing_algo": "Ed25519", "generation_timestamp": 1772777279, "identifier": "6c53c3eb-315e-4fcc-b765-4f50f4c69e7f"}</recraft-signature></metadata></svg>