<svg xmlns="http://www.w3.org/2000/svg" height="1024" preserveAspectRatio="none" style="display: block;" version="1.1" viewBox="0 0 2048 2048" width="1024">
<path d="M 0 0 L 2048 0 L 2048 2048 L 0 2048 L 0 0 z" fill="rgb(255,255,255)" transform="translate(0,0)"></path>
<path d="M 1020.9 254.359 C 1446.46 252.004 1793.36 595.069 1795.74 1020.63 C 1798.11 1446.19 1455.06 1793.11 1029.5 1795.51 C 603.912 1797.9 256.966 1454.83 254.59 1029.23 C 252.214 603.644 595.308 256.715 1020.9 254.359 z" fill="rgb(44,44,189)" transform="translate(0,0)"></path>
<path d="M 1010.82 764.826 C 1154.18 756.289 1277.24 865.764 1285.45 1009.14 C 1293.66 1152.52 1183.9 1275.33 1040.5 1283.2 C 897.568 1291.06 775.25 1181.73 767.069 1038.82 C 758.888 895.905 867.93 773.336 1010.82 764.826 z" fill="rgb(255,255,255)" transform="translate(0,0)"></path>
<path d="M 1014.73 847.29 C 1112.52 841.405 1196.53 915.99 1202.28 1013.79 C 1208.02 1111.6 1133.31 1195.5 1035.5 1201.1 C 937.892 1206.69 854.195 1132.17 848.464 1034.57 C 842.732 936.968 917.131 853.163 1014.73 847.29 z" fill="rgb(44,44,189)" transform="translate(0,0)"></path>
<path d="M 1015.69 960.964 C 1038.59 957.507 1061.59 966.623 1075.9 984.833 C 1090.21 1003.04 1093.63 1027.54 1084.85 1048.97 C 1076.08 1070.41 1056.46 1085.47 1033.49 1088.42 C 998.516 1092.91 966.44 1068.42 961.563 1033.5 C 956.686 998.572 980.824 966.227 1015.69 960.964 z" fill="rgb(255,255,255)" transform="translate(0,0)"></path>
<path d="M 1395.91 530.39 C 1441.48 523.948 1474.87 549.837 1504.31 580.522 C 1688.24 772.221 1733.33 1061.99 1619.4 1301.36 C 1541.88 1461.6 1404.71 1585.11 1237.24 1645.44 C 1228.32 1648.61 1222.02 1650.56 1212.85 1652.89 C 1218.72 1640.42 1225.45 1628.26 1230.8 1615.48 C 1240.19 1593.05 1246.7 1569.58 1252.98 1546.13 C 1336.4 1513.05 1421.26 1444.86 1476.29 1374.05 C 1572.75 1249.93 1611.34 1098.9 1590.27 943.042 C 1571.84 811.585 1508.59 690.522 1411.21 600.32 C 1385.9 576.816 1368.07 565.127 1341.43 544.815 C 1359.91 537.742 1376.24 532.72 1395.91 530.39 z" fill="rgb(255,255,255)" transform="translate(0,0)"></path>
<path d="M 474.303 881.014 C 476.297 882.904 469.432 906.746 468.51 911.396 C 456.874 968.384 453.931 1026.8 459.781 1084.67 C 475.426 1235.68 551.109 1374.05 669.813 1468.69 C 771.072 1550.12 897.197 1594.36 1027.14 1594.03 C 1063.92 1593.91 1085.26 1590.4 1120.52 1586.59 C 1102.37 1627.84 1076.89 1655.83 1034.22 1671.25 C 1013.21 1677.7 997.725 1679.31 975.641 1677.75 C 913.633 1673.38 852.109 1659.03 794.182 1636.99 C 631.123 1573.24 499.213 1448.62 426.296 1289.45 C 391.107 1212.27 371.882 1128.77 369.776 1043.96 C 368.099 953.626 392.151 917.47 474.303 881.014 z" fill="rgb(255,255,255)" transform="translate(0,0)"></path>
<path d="M 1012.6 370.477 C 1113.01 368.671 1221.86 390.946 1312.59 434.783 C 1272.53 448.505 1249.74 462.254 1214.38 484.086 C 1140.51 457.965 1063.78 449.335 985.657 454.429 C 837.451 464.502 699.361 533.194 601.919 645.318 C 567.159 683.394 554.525 707.196 527.923 748.641 C 494.497 754.692 446.208 774.616 414.288 786.805 C 445.28 709.098 490.697 637.957 548.14 577.137 C 668.691 448.342 836.222 373.799 1012.6 370.477 z" fill="rgb(255,255,255)" transform="translate(0,0)"></path>
<path d="M 670.776 896.304 C 672.915 895.97 672.47 896.112 674.706 896.432 C 675.583 902.135 669.922 913.888 668.26 919.816 C 643.466 1008.24 649.375 1104.66 689.345 1187.79 C 701.447 1212.96 718.739 1238.4 735.498 1261.31 C 728.417 1302.07 728.666 1328.51 729.214 1369.19 C 715.986 1357.55 704.922 1347.29 692.871 1334.5 C 635.485 1272.67 596.214 1196.25 579.354 1113.59 C 560.607 1025.37 561.299 918.47 670.776 896.304 z" fill="rgb(255,255,255)" transform="translate(0,0)"></path>
<path d="M 1009.66 567.443 C 1023.81 566.798 1037.98 567.014 1052.11 568.091 C 1022.81 597.733 1005.46 616.065 983.665 651.893 C 981.246 652.15 978.83 652.434 976.417 652.744 C 886.069 664.398 794.569 713.29 738.741 785.878 C 717.356 784.616 697.615 784.452 676.259 786.398 C 662.596 787.822 648.979 789.655 635.426 791.897 C 647.844 768.927 669.187 742.68 686.517 722.85 C 771.905 625.138 880.154 574.929 1009.66 567.443 z" fill="rgb(255,255,255)" transform="translate(0,0)"></path>
<path d="M 1477.08 958.97 C 1479.04 961.952 1479.62 972.708 1479.96 976.668 C 1483.61 1013.95 1482.9 1051.53 1477.87 1088.65 C 1460.95 1209 1393.03 1317.56 1296.37 1390.28 L 1294.42 1391.45 L 1293.42 1390.64 C 1302.8 1343.59 1307.83 1317.46 1309.06 1267.66 C 1374.06 1191.45 1398.89 1113.06 1398.88 1014.07 C 1419.54 1005.01 1460.71 974.648 1477.08 958.97 z" fill="rgb(255,255,255)" transform="translate(0,0)"></path>
<path d="M 1190.7 618.341 C 1260.52 605.154 1352.42 694.794 1391.05 747.002 C 1408.58 770.703 1431.53 803.52 1426.25 834.705 C 1421.3 863.907 1399.63 880.705 1377.17 897.329 L 1371.03 881.353 C 1365.74 867.756 1357.26 850.268 1350.12 837.612 C 1308.29 763.069 1241.67 705.538 1161.83 675.022 C 1146.65 669.199 1132.63 665.664 1117.07 661.314 C 1137.93 636.956 1158.09 623.044 1190.7 618.341 z" fill="rgb(255,255,255)" transform="translate(0,0)"></path>
<path d="M 839.265 1346.53 C 856.213 1357.22 881.043 1367.54 900.054 1374.83 C 965.84 1400.07 1044.97 1404.23 1113.46 1387.6 C 1139.28 1381.33 1161.75 1372.46 1185.85 1361.62 C 1181.09 1381.84 1174.47 1402.8 1164.61 1421.05 C 1152.37 1440.87 1135.71 1458.49 1113.59 1466.41 C 1037.62 1493.62 924.986 1474.41 853.432 1444.31 C 843.708 1416.58 840.212 1375.68 839.265 1346.53 z" fill="rgb(255,255,255)" transform="translate(0,0)"></path>
<metadata><recraft-signature>{"signed_by": "recraft", "signature_b64": "a5xiUy1ciao3Wlo0T7D3FiZZIkPbz2wgM6LRC5GDFyTn5oEn2YGER9k97lYlz+tI4OmiF9JmB5gD5KQatmKgDg==", "signing_algo": "Ed25519", "generation_timestamp": 1772777239, "identifier": "4612b58b-58d9-4f64-81ba-1caaedbac03f"}</recraft-signature></metadata></svg>