<svg xmlns="http://www.w3.org/2000/svg" height="1024" preserveAspectRatio="none" style="display: block;" version="1.1" viewBox="0 0 2048 2048" width="1024">
<path d="M 0 0 L 2048 0 L 2048 2048 L 0 2048 L 0 0 z" fill="rgb(255,255,255)" transform="translate(0,0)"></path>
<path d="M 993.539 252.439 C 1003.91 251.891 1015.27 252.104 1025.72 252.094 C 1013.34 348.663 985.182 427.76 928.762 508.51 C 910.3 534.933 890.473 552.997 869.88 576.919 C 817.983 637.206 790.061 703.576 782.616 782.62 C 772.491 882.871 802.761 983.021 866.72 1060.88 C 865.269 1051.85 863.931 1042.8 862.705 1033.74 C 850.608 937.814 883.45 842.918 938.103 764.822 C 960.629 732.634 987.018 703.222 1011.25 672.581 C 1085.1 579.203 1126.17 468.1 1123.94 348.57 C 1123.33 315.947 1119.8 289.168 1115.65 256.769 C 1144.35 260.052 1172.82 265.074 1200.91 271.805 C 1400.27 319.176 1572.53 444.037 1679.57 618.758 C 1672.25 623.679 1655.46 632.289 1647.38 636.434 C 1569.43 675.863 1481.84 692.194 1394.93 683.502 C 1352.67 679.286 1313.32 668.093 1270.95 665.574 C 1213.76 662.174 1156.97 669.893 1104.46 693.478 C 1032.49 726.418 973.399 782.185 936.348 852.129 C 924.428 875.077 917.31 896.221 908.187 920.224 C 998.302 829.227 1123.38 805.893 1245.83 824.254 C 1270.39 827.937 1292.78 833.146 1316.8 837.201 C 1345.34 842.126 1374.32 844.102 1403.27 843.097 C 1526.54 838.529 1635.11 779.739 1717.94 690.473 C 1728.66 709.42 1746.47 755.197 1753.92 776.408 C 1793.97 889.686 1805.83 1011.01 1788.5 1129.9 C 1775.38 1225.86 1748.87 1296.47 1707.21 1383.2 C 1693.88 1376.34 1679.55 1366.87 1666.86 1358.66 C 1594.53 1311.86 1538.31 1249.82 1501.6 1171.66 C 1484.98 1136.29 1476.65 1102.19 1462.6 1066.92 C 1433.57 994.453 1379.69 934.692 1310.61 898.338 C 1244.83 864.249 1170.01 851.664 1096.7 862.356 C 1084.53 864.059 1067.65 866.503 1056.11 870.095 C 1078.85 877.98 1090.83 879.597 1114.34 891.22 C 1215.02 941.01 1267.44 1029.67 1304.43 1131.54 C 1317.87 1168.56 1335.09 1216.74 1355.06 1249.6 C 1426.87 1367.79 1533.64 1422.77 1663.49 1455.38 C 1644.51 1487.43 1606.75 1533.2 1581.14 1559.84 C 1442.2 1706.03 1251.1 1791.36 1049.5 1797.24 L 1022.37 1797.78 C 1023.15 1784.64 1025.32 1772.58 1027.62 1759.78 C 1047 1651.9 1097.32 1554 1173.23 1474.97 C 1223.17 1422.97 1254.95 1351.85 1265.2 1280.52 C 1278.21 1194.28 1260.3 1106.21 1214.62 1031.9 C 1205.44 1016.84 1193.01 1000.54 1182.37 986.382 C 1184.56 1014.21 1189.54 1028.76 1189.16 1060.24 C 1188.17 1140.44 1153.86 1225.61 1106.44 1289.48 C 1075.6 1331.01 1038.77 1369.76 1009.4 1413.07 C 934.76 1524.38 907.698 1660.9 934.237 1792.27 C 903.451 1789.31 863.588 1781.48 833.83 1774.01 C 640.533 1724.61 474.283 1601.44 370.722 1430.92 C 452.94 1382.76 555.099 1355.63 650.396 1364.54 C 688.65 1368.12 714.973 1375.8 751.195 1381.16 C 820.275 1390.94 890.706 1380.09 953.636 1349.96 C 1028.19 1313.46 1088.18 1252.79 1123.84 1177.84 C 1130.68 1163.49 1136.83 1144.87 1142.07 1129.8 C 1048.9 1220.7 935.137 1240.18 808.859 1224.46 C 784.617 1221.43 760.951 1215.08 736.947 1210.89 C 580.453 1183.6 437.432 1245.82 331.306 1359.9 C 325.542 1346.56 318.617 1333.21 313.023 1319.76 C 297.767 1282.27 285.178 1243.74 275.349 1204.47 C 240.151 1060.14 246.558 914.423 295.932 774.566 C 308.301 739.528 325.295 696.069 344.485 664.463 C 433.038 713.239 509.032 787.807 549.491 880.874 C 559.628 904.193 567.987 928.147 575.492 952.361 C 602.598 1039.81 660.748 1110.2 742.962 1151.69 C 815.917 1188.5 913.745 1202.99 992.695 1177.06 C 963.508 1167.31 936.814 1158.9 909.856 1143.03 C 835.661 1099.36 782.666 1020.67 753.739 941.023 C 735.551 890.948 724.279 845.341 696.658 799.692 C 625.046 681.341 516.561 625.142 387.148 591.959 C 405.262 563.583 436.946 524.128 459.747 499.3 C 597.902 349.483 789.912 260.685 993.539 252.439 z" fill="rgb(15,17,149)" transform="translate(0,0)"></path>
<metadata><recraft-signature>{"signed_by": "recraft", "signature_b64": "SLPNGs5Hqn/lxZ/lPYKl4kdZTnIfSAACJjdnFEDM8GaOiwja8E0wWkx3kIL8j9h4sa+L1p4Lv242dKbjuE31DA==", "signing_algo": "Ed25519", "generation_timestamp": 1772777259, "identifier": "0fd1b0cd-744d-4829-8327-6e28d6280d7b"}</recraft-signature></metadata></svg>