<svg xmlns="http://www.w3.org/2000/svg" viewBox="0 0 192 192" width="192" height="192">
  <defs>
    <linearGradient id="phoenixGrad1" x1="0%" y1="100%" x2="100%" y2="0%">
      <stop offset="0%" style="stop-color:#E65100"/>
      <stop offset="50%" style="stop-color:#FF6D00"/>
      <stop offset="100%" style="stop-color:#FFD600"/>
    </linearGradient>
    <linearGradient id="phoenixGrad2" x1="0%" y1="0%" x2="100%" y2="100%">
      <stop offset="0%" style="stop-color:#FF6D00"/>
      <stop offset="100%" style="stop-color:#D84315"/>
    </linearGradient>
  </defs>
  
  <!-- Background -->
  <circle cx="96" cy="96" r="90" fill="#1A1A2E"/>
  
  <!-- Flame tail feathers -->
  <path d="M 50 170 Q 30 140, 55 110 Q 45 130, 60 115 Q 50 135, 70 120" 
        fill="url(#phoenixGrad1)" opacity="0.7"/>
  <path d="M 142 170 Q 162 140, 137 110 Q 147 130, 132 115 Q 142 135, 122 120" 
        fill="url(#phoenixGrad1)" opacity="0.7"/>
  
  <!-- Main body -->
  <ellipse cx="96" cy="110" rx="35" ry="45" fill="url(#phoenixGrad2)"/>
  
  <!-- Wings spread -->
  <path d="M 60 90 Q 20 70, 25 40 Q 35 55, 40 45 Q 45 60, 55 50 Q 55 70, 70 80 Z" 
        fill="url(#phoenixGrad1)"/>
  <path d="M 132 90 Q 172 70, 167 40 Q 157 55, 152 45 Q 147 60, 137 50 Q 137 70, 122 80 Z" 
        fill="url(#phoenixGrad1)"/>
  
  <!-- Head -->
  <circle cx="96" cy="55" r="25" fill="url(#phoenixGrad2)"/>
  
  <!-- Crest/flame on head -->
  <path d="M 85 40 Q 80 20, 90 25 Q 85 10, 96 20 Q 107 10, 102 25 Q 112 20, 107 40" 
        fill="#FFD600"/>
  
  <!-- Eye -->
  <circle cx="96" cy="52" r="8" fill="#1A1A2E"/>
  <circle cx="98" cy="50" r="3" fill="#FFD600"/>
  
  <!-- Beak -->
  <polygon points="96,62 90,72 96,78 102,72" fill="#FFD600"/>
  
  <!-- Chest pattern -->
  <path d="M 80 100 Q 96 85, 112 100 Q 96 90, 80 100" fill="#FFD600" opacity="0.5"/>
  <path d="M 82 115 Q 96 100, 110 115 Q 96 105, 82 115" fill="#FFD600" opacity="0.5"/>
</svg>
