<svg xmlns="http://www.w3.org/2000/svg" viewBox="0 0 192 192" width="192" height="192">
  <defs>
    <linearGradient id="liquidGrad" x1="0%" y1="0%" x2="100%" y2="100%">
      <stop offset="0%" style="stop-color:#06B6D4"/>
      <stop offset="100%" style="stop-color:#8B5CF6"/>
    </linearGradient>
  </defs>
  
  <!-- Background -->
  <circle cx="96" cy="96" r="90" fill="#FEF3C7"/>
  
  <!-- Liquid Bridge trend - soft, connected, no sharp points -->
  
  <!-- Main blob shape - friendly, rounded "A" concept -->
  <path d="
    M 96 30
    Q 75 30, 60 65
    Q 45 100, 50 135
    Q 55 155, 70 155
    Q 80 155, 85 140
    Q 90 130, 96 130
    Q 102 130, 107 140
    Q 112 155, 122 155
    Q 137 155, 142 135
    Q 147 100, 132 65
    Q 117 30, 96 30
    Z
  " fill="url(#liquidGrad)"/>
  
  <!-- Inner negative space (the A hole) - also rounded -->
  <ellipse cx="96" cy="105" rx="20" ry="18" fill="#FEF3C7"/>
  
  <!-- Soft crossbar suggestion -->
  <ellipse cx="96" cy="95" rx="25" ry="8" fill="#FEF3C7"/>
  
  <!-- Friendly eyes (Smiley trend) -->
  <circle cx="82" cy="70" r="8" fill="#FEF3C7"/>
  <circle cx="110" cy="70" r="8" fill="#FEF3C7"/>
  <circle cx="84" cy="70" r="4" fill="#1E293B"/>
  <circle cx="112" cy="70" r="4" fill="#1E293B"/>
  
  <!-- Subtle smile -->
  <path d="M 85 82 Q 96 90, 107 82" stroke="#1E293B" stroke-width="3" fill="none" stroke-linecap="round"/>
</svg>
