<svg xmlns="http://www.w3.org/2000/svg" height="1024" preserveAspectRatio="none" style="display: block;" version="1.1" viewBox="0 0 2048 2048" width="1024">
<path d="M 0 0 L 840.474 0 L 903.81 0 L 1144.8 0 L 1207.7 0 L 2048 0 L 2048 600.312 L 2048 1802.74 L 2048 2048 L 1794.62 2048 L 611.189 2048 L 529.976 2048 L 252.169 2048 L 0 2048 L 0 1796.5 L 0 599.26 L 0 0 z" fill="rgb(244,244,243)" transform="translate(0,0)"></path>
<path d="M 611.189 2048 C 610.782 2025.77 611.428 2001.94 611.435 1979.53 L 611.431 1849.58 C 611.119 1510.52 747.736 1185.7 990.297 948.797 C 1123.6 816.877 1285.82 717.845 1464.08 659.563 C 1560.67 629.789 1660.33 611.06 1761.15 603.733 C 1812.28 599.765 1859.52 599.909 1910.64 599.938 L 2048 600.312 L 2048 1802.74 L 2048 2048 L 1794.62 2048 L 611.189 2048 z" fill="rgb(16,66,115)" transform="translate(0,0)"></path>
<path d="M 2048 1802.74 L 2048 2048 L 1794.62 2048 C 1806.57 2045.67 1819.63 2045.62 1831.88 2043.03 C 1931.31 2022.03 2011.43 1948.48 2038.66 1850.19 C 2042.97 1834.63 2045.48 1818.77 2048 1802.74 z" fill="rgb(244,244,243)" transform="translate(0,0)"></path>
<path d="M 1752.08 892.415 C 1755.9 891.984 1762.36 891.945 1766.39 891.788 L 1765.54 1765.71 L 1548.51 1766.06 C 1547.62 1745.85 1548.39 1722.61 1548.36 1702.3 C 1548.31 1661.81 1549.11 1620.64 1548.04 1580.22 C 1544.15 1432.91 1518.73 1291.05 1464.8 1153.6 C 1454.36 1127 1441.85 1099.35 1430.35 1072.94 C 1414.65 1079.26 1386.83 1097.2 1372.72 1106.5 C 1276.17 1170.51 1193.93 1253.82 1131.17 1351.19 C 1104.56 1392.55 1090.47 1422.91 1067.8 1464.78 C 1106.51 1567.63 1131.82 1653.89 1138.43 1765.87 C 1063.47 1767.56 981.532 1766.22 906.288 1765.92 C 918.869 1567.82 1008.42 1365.66 1135.9 1214.58 C 1291.04 1030.71 1510.49 910.337 1752.08 892.415 z" fill="rgb(244,244,243)" transform="translate(0,0)"></path>
<path d="M 0 599.26 C 41.5608 599.646 83.9819 600.462 125.242 599.877 C 295.27 597.463 466.737 616.437 627.099 675.379 C 655.486 685.812 687.527 697.432 715.053 710.547 L 714.944 637.653 C 741.228 632.618 766.992 626.656 793.432 622.029 C 961.299 592.658 1145.19 593.669 1310.85 635.228 C 1271.71 652.305 1222.76 678.822 1186.48 700.355 C 1055.78 777.176 939.715 876.539 843.669 993.84 C 828.244 1012.32 813.363 1031.24 799.044 1050.59 C 792.976 1058.72 782.124 1072.88 777.616 1081.57 C 764.666 1073.09 752.894 1063.29 740.145 1054.47 C 629.605 978.04 503.698 921.956 369.848 903.731 C 340.04 899.672 311.29 895.194 281.408 894.669 C 283.123 1003.89 281.589 1115.66 281.548 1225.03 L 281.718 1765.79 C 355.095 1766.18 428.473 1766.2 501.849 1765.85 C 501.915 1678.05 499.933 1582.83 506.404 1495.96 C 515.791 1383.73 540.111 1273.25 578.721 1167.45 C 590.975 1133.78 602.267 1104.69 618.766 1072.65 C 654.105 1090.22 701.881 1121.75 731.974 1147.81 C 643.338 1292.35 589.535 1422.16 555.915 1589.68 C 545.173 1640.87 537.872 1692.73 534.063 1744.89 C 527.248 1845.53 531.146 1947.09 529.976 2048 L 252.169 2048 L 0 2048 L 0 1796.5 L 0 599.26 z" fill="rgb(16,66,115)" transform="translate(0,0)"></path>
<path d="M 0 1796.5 C 2.02302 1809.94 3.5608 1824.08 6.733 1837.22 C 22.8073 1903.81 58.6092 1957.05 113.376 1997.57 C 143.95 2019.79 179 2035.1 216.087 2042.4 C 224.879 2044.1 245.615 2046.25 252.169 2048 L 0 2048 L 0 1796.5 z" fill="rgb(244,244,243)" transform="translate(0,0)"></path>
<path d="M 840.474 0 L 903.81 0 L 903.864 284.385 C 890.171 283.149 876.451 282.139 862.81 281.136 C 741.302 271.78 633.165 361.345 619.45 482.358 C 615.755 514.967 617.531 554.032 617.288 587.382 C 523.88 558.16 427.569 539.188 330.056 530.801 C 333.153 423.277 368.142 319.1 430.579 231.505 C 505.522 127.286 614.078 52.0641 737.978 18.4974 C 763.014 11.821 789.298 6.2141 815.06 3.32676 C 823.585 2.37143 832.012 1.39495 840.474 0 z" fill="rgb(16,66,115)" transform="translate(0,0)"></path>
<path d="M 1144.8 0 L 1207.7 0 C 1213.19 1.34207 1229.38 2.87748 1235.88 3.79073 C 1252.29 6.08062 1268.6 9.0063 1284.78 12.5612 C 1379.45 33.1592 1467.09 78.1163 1539.05 142.985 C 1620.46 215.509 1677.91 311.063 1703.78 416.979 C 1713.14 456.877 1716.51 490.119 1718.59 530.644 C 1693.52 534.186 1666.45 535.662 1640.97 539.517 C 1576.97 549.198 1495 563.126 1434.79 584.785 C 1434.81 552.513 1436.22 516.13 1432.77 484.426 C 1421.23 378.289 1331.69 290.087 1225.29 280.339 C 1196.64 277.713 1173.03 280.216 1144.91 283.331 L 1144.8 0 z" fill="rgb(16,66,115)" transform="translate(0,0)"></path>
<metadata><recraft-signature>{"signed_by": "recraft", "signature_b64": "LqZrw9ru5gZGzNQ4sOL41obRjLKbuzV00v2OHn0En5af36CEVM2O4uRC48f6Y5lnVWWuLmnj61pMPNZcT08SCQ==", "signing_algo": "Ed25519", "generation_timestamp": 1772776680, "identifier": "53cc200e-902c-4f4f-b504-e6586b569a2e"}</recraft-signature></metadata></svg>