<svg xmlns="http://www.w3.org/2000/svg" height="1024" preserveAspectRatio="none" style="display: block;" version="1.1" viewBox="0 0 2048 2048" width="1024">
<path d="M 0 0 L 2048 0 L 2048 2048 L 0 2048 L 0 0 z" fill="rgb(255,255,255)" transform="translate(0,0)"></path>
<path d="M 1025.54 465.794 C 1046.03 448.888 1063.75 430.564 1085.84 413.846 C 1183.84 338.848 1301.18 293.33 1424.12 282.627 C 1519.35 273.844 1596.96 282.649 1674.58 346.857 C 1727.75 390.837 1762 458.877 1768.7 527.448 C 1770.89 549.849 1770.02 584.453 1770.06 607.65 L 1769.76 743.046 L 1770.04 1083.3 L 1769.76 1383.34 L 1769.42 1471.08 C 1769.29 1494.07 1769.94 1517.31 1766.38 1540.02 C 1758.59 1589.87 1736.98 1636.53 1703.99 1674.7 C 1652.92 1734.68 1584.1 1764.01 1506.76 1770.3 C 1503.93 1770.54 1501.09 1770.73 1498.26 1770.86 C 1458.3 1772.62 1408.51 1766.01 1369.18 1758.68 C 1231.39 1732.99 1125.76 1675.49 1022.95 1581.76 C 944.273 1656.16 868.868 1702.75 765.695 1736.5 C 718.693 1752.18 670.073 1762.49 620.757 1767.26 C 528.718 1775.98 451.854 1767.13 377.579 1705.15 C 322.757 1658.89 288.3 1592.94 281.63 1521.52 C 279.438 1496.11 280.299 1466.24 280.321 1440.37 L 280.387 1314.74 L 280.366 916.402 L 280.31 651.517 L 280.211 579.787 C 280.149 555.74 279.503 533.298 283.308 509.393 C 291.246 460.918 312.35 415.555 344.315 378.258 C 394.33 318.902 464.469 286.914 541.053 280.403 C 557.872 278.791 581.161 280.05 597.999 280.921 C 711.126 286.825 820.907 321.325 917.075 381.194 C 957.77 407.044 989.462 434.445 1025.54 465.794 z" fill="rgb(37,37,241)" transform="translate(0,0)"></path>
<path d="M 499.441 518.907 C 525.025 518.449 539.672 516.428 566.491 518.201 C 673.101 525.001 773.911 569.124 851.236 642.83 C 951.822 739.654 996.229 874.329 997.503 1011.47 C 997.758 1038.83 997.483 1068.67 998.583 1095.61 C 1001.59 1169.3 1018.02 1247.03 1050.72 1313.46 C 1059.86 1332.03 1074.21 1360.1 1086.79 1376.64 C 1064.64 1417.34 1054.01 1437.06 1026.3 1473.57 C 951.585 1383.71 906.662 1272.84 897.751 1156.32 C 893.355 1104.63 898.476 1055.96 896.652 1004.51 C 889.119 792.045 742.184 603.741 542.275 535.754 C 527.893 530.86 509.729 523.969 494.894 521.142 C 496.456 520.399 497.903 519.712 499.441 518.907 z" fill="rgb(255,255,255)" transform="translate(0,0)"></path>
<path d="M 551.265 350.424 C 609.204 346.689 703.304 364.057 757.908 383.054 C 875.226 423.064 976.557 499.762 1046.92 601.81 C 1063.03 624.674 1077.32 648.77 1089.66 673.875 C 1068.81 713.992 1046.68 758.553 1032.85 801.408 C 1025.66 785.344 1019.37 768.298 1012.08 752.058 C 1001.94 729.838 990.232 708.371 977.039 687.819 C 967.033 671.547 954.576 655.507 942.529 640.745 C 886.786 571.139 813.828 517.301 730.88 484.562 C 607.818 436.327 486.225 432.414 363.972 485.752 C 393.102 404.537 466.426 355.851 551.265 350.424 z" fill="rgb(255,255,255)" transform="translate(0,0)"></path>
<path d="M 353.747 567.487 C 454.79 565.677 569.846 608.877 649.704 670.63 C 743.623 743.582 807.713 850.927 823.747 968.901 C 858.662 1225.8 656.247 1446.05 406.435 1476.64 C 394.122 1479.23 364.248 1479.9 351.587 1480.12 C 351.397 1460.17 351.499 1440.23 351.893 1420.29 C 379.344 1419.48 399.458 1419.05 426.665 1414.8 C 508.427 1401.71 584.375 1364.38 644.672 1307.63 C 804.137 1154.67 807.312 912.441 654.388 754.422 C 591.484 690.25 509.709 647.874 421.008 633.483 C 395.71 629.528 377.287 628.993 351.816 628.563 C 351.753 615.574 350.838 579.06 352.289 568.583 L 353.747 567.487 z" fill="rgb(255,255,255)" transform="translate(0,0)"></path>
<path d="M 1674.24 570.425 C 1682.15 569.897 1691.09 570.138 1699.1 570.173 L 1698.79 629.04 L 1697.21 629.028 C 1677.39 628.88 1659.26 629.17 1639.5 631.598 C 1549.96 643.429 1466.8 684.376 1402.83 748.129 C 1328.82 820.684 1286.95 919.858 1286.57 1023.5 C 1285.72 1126.64 1326.32 1225.8 1399.25 1298.73 C 1480.95 1380.94 1583.67 1419.89 1698.75 1420.19 L 1698.81 1481 C 1687.26 1481.15 1676.22 1480.46 1664.7 1479.85 C 1557.86 1468.65 1461.15 1433.05 1379.46 1361.29 C 1288.71 1282.72 1233.59 1170.78 1226.65 1050.94 C 1210.26 794.641 1425.08 585.889 1674.24 570.425 z" fill="rgb(255,255,255)" transform="translate(0,0)"></path>
<path d="M 915.966 1443.7 C 918.541 1445.76 922.7 1453.49 924.654 1456.76 C 940.146 1482.7 959.186 1505.79 977.736 1529.57 C 947.746 1554.53 922.137 1579.35 888.283 1601.12 C 811.675 1650.39 725.653 1681.85 635.605 1693.83 C 557.001 1704.29 493.517 1704.15 427.642 1653.97 C 396.989 1628.48 372.025 1595.86 361.785 1556.91 C 512.711 1629.81 697.784 1599.99 834.766 1510.16 C 864.689 1490.53 890.187 1468.42 915.966 1443.7 z" fill="rgb(255,255,255)" transform="translate(0,0)"></path>
<path d="M 1134.54 1439.65 C 1270.56 1588.07 1501.98 1642.84 1687.69 1561.14 C 1673.77 1601.74 1655.23 1629 1621.34 1655.87 C 1556.67 1704.39 1490 1704.53 1413.44 1693.99 C 1328.51 1682.29 1248.17 1654.55 1174.85 1609.92 C 1137.46 1587.16 1105.51 1560.73 1072.01 1532.88 C 1082.5 1519.29 1093.62 1505.02 1102.95 1490.61 C 1113.8 1473.83 1123.69 1456.49 1134.54 1439.65 z" fill="rgb(255,255,255)" transform="translate(0,0)"></path>
<path d="M 1478.99 350.452 C 1569.98 347.411 1657.8 397.755 1686.83 486.534 C 1660.58 475.27 1633.42 466.232 1605.66 459.516 C 1477.84 429.735 1348.64 456.794 1237.94 525.436 C 1198.23 551.133 1170.21 574.677 1136.26 607.97 C 1122.89 585.696 1108.49 563.357 1092.3 542.998 C 1085.63 534.597 1078.95 526.228 1072.51 517.64 C 1096.17 493.096 1115.97 478.527 1143.38 458.901 C 1241.44 388.671 1358.67 353.916 1478.99 350.452 z" fill="rgb(255,255,255)" transform="translate(0,0)"></path>
<path d="M 352.307 697.825 C 427.844 696.677 501.666 720.378 562.417 765.282 C 705.419 869.041 742.266 1063.48 637.722 1209.89 C 582.154 1287.71 504.012 1333 409.501 1347.84 C 390.377 1350.3 371.099 1351.38 351.82 1351.05 L 352.144 1291.05 C 427.277 1291.73 497.546 1270.45 552.61 1217.22 C 604.308 1167.73 633.98 1099.56 634.971 1028 C 636.509 925.127 574.161 828.78 481.174 785.548 C 438.154 765.547 399.131 758.689 352.175 758.441 C 352.003 738.236 352.047 718.029 352.307 697.825 z" fill="rgb(255,255,255)" transform="translate(0,0)"></path>
<path d="M 1680.33 698.431 C 1686.56 698.07 1692.58 698.428 1698.81 698.679 L 1698.74 758.61 C 1622.59 758.855 1556.03 780.824 1499.96 833.673 C 1448.04 881.904 1417.92 949.149 1416.51 1020 C 1414.79 1089.21 1440.81 1156.23 1488.78 1206.15 C 1543.97 1263.62 1619.69 1290.01 1698.24 1291.37 C 1698.63 1311.23 1698.72 1331.1 1698.52 1350.97 C 1685.6 1351.02 1672.69 1350.31 1659.85 1348.84 C 1652.21 1348.78 1631.81 1344.49 1623.62 1342.84 C 1563.07 1330.84 1510.06 1304.4 1463.78 1264.02 C 1330.16 1147.42 1319.14 939.523 1441.22 810.368 C 1504.55 743.371 1587.8 703.091 1680.33 698.431 z" fill="rgb(255,255,255)" transform="translate(0,0)"></path>
<path d="M 1125.05 759.547 C 1125.59 760.301 1126.86 762.059 1127.14 762.97 C 1142.33 814.737 1155.83 876.564 1156.16 930.711 C 1156.49 984.383 1149.39 1035.78 1158.71 1089.86 C 1160.9 1102.54 1155.6 1140.59 1153.25 1154.71 C 1145.67 1200.22 1135.15 1250.03 1118.79 1293.37 L 1112.72 1281.35 C 1052.61 1147.66 1053.47 961.014 1100.09 822.83 C 1106.36 804.25 1115.81 776.502 1125.05 759.547 z" fill="rgb(255,255,255)" transform="translate(0,0)"></path>
<path d="M 352.106 827.114 C 395.254 827.496 427.28 832.794 465.645 854.649 C 512.178 881.387 546.231 925.462 560.359 977.237 C 586.92 1074.38 527.463 1177.61 433.751 1210.07 C 425.103 1213.07 417.049 1215.38 408.227 1217.71 C 387.206 1222.3 372.707 1222.29 351.672 1222.09 L 351.831 1160.69 C 352.924 1160.71 354.018 1160.72 355.111 1160.72 C 369.27 1160.74 380.558 1160.43 394.28 1157.83 C 519.085 1134.16 546.498 971.516 436.321 907.816 C 405.056 889.74 386.894 888.528 352.02 888.899 L 352.106 827.114 z" fill="rgb(255,255,255)" transform="translate(0,0)"></path>
<path d="M 1669.66 828.4 C 1675.7 827.276 1691.94 827.682 1698.68 827.837 C 1697.73 846.619 1698.5 869.812 1698.67 888.797 C 1653.47 888.651 1623.97 895.48 1589.92 926.38 C 1517.48 992.118 1539.42 1110.7 1627.73 1149.79 C 1651.09 1160.13 1673.57 1160.25 1698.32 1161.02 C 1698.9 1181.35 1698.97 1201.68 1698.52 1222.01 C 1689.99 1222.05 1681.75 1221.62 1673.25 1221.23 C 1632.75 1220.52 1589.11 1200.18 1557.88 1175.27 C 1517.72 1143.43 1492.23 1096.65 1487.25 1045.65 C 1481.9 994.792 1497.1 943.904 1529.47 904.309 C 1564.44 861.612 1614.79 834.353 1669.66 828.4 z" fill="rgb(255,255,255)" transform="translate(0,0)"></path>
<path d="M 1484.19 518.5 C 1507.19 516.79 1531.62 518.401 1554.52 520.641 C 1551.18 521.274 1547.87 522.032 1544.59 522.913 C 1521.81 529.072 1490.68 541.478 1469.01 551.028 C 1359.5 599.291 1280.24 675.194 1220.86 778.489 L 1210.98 796.544 C 1200.95 752.767 1187.19 716.039 1170.09 675.046 C 1173.07 671.596 1176.07 668.176 1179.12 664.785 C 1257.75 577.98 1367.27 525.461 1484.19 518.5 z" fill="rgb(255,255,255)" transform="translate(0,0)"></path>
<path d="M 1207.01 1247.77 C 1210.43 1255.81 1215.45 1265.54 1219.79 1273.24 C 1292.69 1402.58 1402.81 1485.81 1543.99 1526.61 C 1545.47 1526.91 1547.53 1527.18 1548.68 1528.15 C 1548.68 1528.91 1546.12 1528.81 1545.88 1528.83 C 1512.58 1530.75 1487.67 1530.91 1454.59 1526.76 C 1368.59 1516.07 1287.5 1480.78 1221.06 1425.13 C 1203.83 1410.87 1182.34 1390.48 1168.7 1372.89 C 1185.41 1325.79 1196.01 1298.2 1207.01 1247.77 z" fill="rgb(255,255,255)" transform="translate(0,0)"></path>
<path d="M 1543.99 1526.61 C 1545.47 1526.91 1547.53 1527.18 1548.68 1528.15 C 1548.68 1528.91 1546.12 1528.81 1545.88 1528.83 C 1544.61 1527.82 1544.47 1527.93 1543.99 1526.61 z" fill="rgb(243,243,254)" transform="translate(0,0)"></path>
<path d="M 508.225 1526.32 C 541.804 1515.15 575.561 1503.56 607.162 1487.44 C 705.2 1437.43 788.809 1359.13 838.272 1260.16 C 839.124 1258.46 839.935 1256.73 840.705 1254.99 C 851.476 1299.79 861.89 1333.87 881.461 1375.69 C 785.22 1481 656.424 1536.76 513.54 1529.81 C 511.255 1528.08 510.702 1527.61 508.225 1526.32 z" fill="rgb(255,255,255)" transform="translate(0,0)"></path>
<path d="M 351.879 957.959 C 375.071 957.679 392.201 957.676 410.996 973.53 C 424.859 985.337 433.451 1002.18 434.875 1020.33 C 436.549 1041.4 428.787 1056.31 415.555 1071.75 C 394.587 1090.82 378.578 1091.71 351.915 1090.95 C 351.361 1046.62 351.349 1002.29 351.879 957.959 z" fill="rgb(255,255,255)" transform="translate(0,0)"></path>
<path d="M 1678.55 958.406 C 1685.52 957.808 1691.65 958.208 1698.62 958.498 C 1698.22 1002.56 1699.3 1047.96 1698.03 1091.76 C 1675.51 1091.62 1668.01 1092.11 1647.89 1081.94 C 1629.75 1070.98 1617.93 1052.22 1615.91 1031.11 C 1614.4 1013.53 1619.8 996.057 1630.96 982.397 C 1643.91 966.871 1658.73 960.099 1678.55 958.406 z" fill="rgb(255,255,255)" transform="translate(0,0)"></path>
<path d="M 513.54 1529.81 C 511.577 1529.72 503.218 1529.58 501.924 1528.58 L 501.92 1528.51 C 503.418 1527.3 506.308 1526.79 508.225 1526.32 C 510.702 1527.61 511.255 1528.08 513.54 1529.81 z" fill="rgb(243,243,254)" transform="translate(0,0)"></path>
<path d="M 494.894 521.142 C 487.302 518.966 498.544 518.928 499.441 518.907 C 497.903 519.712 496.456 520.399 494.894 521.142 z" fill="rgb(186,178,237)" transform="translate(0,0)"></path>
<metadata><recraft-signature>{"signed_by": "recraft", "signature_b64": "/JAHnlL7CzY3p/OKqfCAH0/Z2QZwlcWtswHwgdk3/YpJZRcej7E7+W93uL9RFR+NUY7BIFV1jH9N2zSqNSIuAA==", "signing_algo": "Ed25519", "generation_timestamp": 1772776721, "identifier": "667e4608-c0de-4f54-b13d-05b39baf213e"}</recraft-signature></metadata></svg>