<svg xmlns="http://www.w3.org/2000/svg" height="1024" preserveAspectRatio="none" style="display: block;" version="1.1" viewBox="0 0 2048 2048" width="1024">
<path d="M 0 0 L 2048 0 L 2048 2048 L 0 2048 L 0 0 z" fill="rgb(255,255,255)" transform="translate(0,0)"></path>
<path d="M 1134.73 280.492 L 1135.82 280.484 L 1258.51 280.785 C 1293.99 280.761 1333.74 279.756 1368.77 283.058 C 1470.67 292.194 1566.01 337.225 1637.8 410.12 C 1711.61 483.434 1757.06 580.536 1766.07 684.184 C 1769.11 716.384 1768.26 755.606 1768.3 788.419 L 1768.04 933.728 L 1768.21 1291.32 C 1768.19 1319.43 1768.45 1345.57 1765.42 1373.58 C 1754.93 1474.99 1709.7 1569.65 1637.4 1641.53 C 1561.85 1716.6 1461.98 1762.24 1355.77 1770.21 C 1331.56 1772.03 1306.74 1771.45 1282.45 1771.29 L 1193.15 1771.01 L 919.5 1771.02 L 783.199 1771.03 C 757.337 1771.05 731.338 1771.37 705.499 1770.33 C 599.524 1766.05 492.324 1718.84 416.592 1644.31 C 349.97 1578.87 305.496 1494.23 289.405 1402.24 C 284.697 1374.02 283.571 1349.17 283.281 1320.63 L 283.069 939.418 L 283.131 794.19 C 283.175 726.319 280.116 678.366 297.283 611.8 C 316.691 536.564 355.848 467.879 410.705 412.852 C 483.996 337.904 581.639 291.587 686.05 282.242 C 709.755 280.238 735.413 280.707 759.354 280.772 L 851.816 280.857 L 1134.73 280.492 z" fill="rgb(38,122,230)" transform="translate(0,0)"></path>
<path d="M 1014.07 755.567 C 1162.78 749.379 1288.34 864.902 1294.54 1013.6 C 1300.75 1162.31 1185.23 1287.88 1036.53 1294.1 C 887.812 1300.31 762.216 1184.78 756.014 1036.06 C 749.811 887.343 865.352 761.756 1014.07 755.567 z" fill="rgb(255,255,255)" transform="translate(0,0)"></path>
<path d="M 1007.66 847.373 C 1105.79 837.716 1193.12 909.596 1202.5 1007.76 C 1211.88 1105.92 1139.76 1193.05 1041.57 1202.15 C 943.764 1211.23 857.062 1139.45 847.717 1041.67 C 838.371 943.895 909.906 856.993 1007.66 847.373 z" fill="rgb(38,122,230)" transform="translate(0,0)"></path>
<path d="M 1017.66 913.796 C 1078.82 909.513 1131.9 955.573 1136.28 1016.73 C 1140.66 1077.89 1094.69 1131.04 1033.54 1135.52 C 972.245 1140.01 918.945 1093.91 914.555 1032.61 C 910.165 971.314 956.351 918.087 1017.66 913.796 z" fill="rgb(255,255,255)" transform="translate(0,0)"></path>
<path d="M 516.592 553.587 L 518.335 555.428 C 503.342 576.182 487.815 603.989 476.056 626.742 C 433.39 709.289 406.517 798.19 403.854 891.498 C 399.406 1042.93 455.672 1189.87 560.132 1299.6 C 656.216 1401.24 791.674 1465.72 932.052 1469.7 C 1048.29 1473.76 1161.39 1431.54 1246.53 1352.29 C 1405.67 1201.74 1433.45 958.905 1277.97 795.118 C 1298.08 805.382 1318.97 821.998 1335.49 837.264 C 1397.21 894.282 1428.23 981.041 1430.18 1063.95 C 1432.89 1179.6 1384.98 1283.93 1306.35 1366.64 C 1216.44 1461.21 1093.77 1514.74 963.604 1517.83 C 891.472 1519.54 841.131 1511.18 773.075 1489.52 C 677.443 1459.92 589.999 1408.5 517.649 1339.31 C 411.999 1241.71 350.22 1105.6 346.315 961.827 C 342.91 845.614 383.038 725.235 450.404 630.933 C 470.345 603.019 493.169 578.464 516.592 553.587 z" fill="rgb(255,255,255)" transform="translate(0,0)"></path>
<path d="M 841.292 742.694 C 1003.42 570.031 1266.28 613.76 1426.38 764.711 C 1525.22 856.477 1583.39 983.862 1588.01 1118.65 C 1592.16 1275.67 1533.37 1427.84 1424.73 1541.29 C 1322.12 1649.74 1183.36 1708.34 1034.9 1712.36 C 975.296 1714.3 915.727 1707.59 858.047 1692.45 C 838.421 1687.3 816.183 1678.78 798.22 1674.43 L 799.106 1671.32 C 955.153 1707.03 1106.48 1683.2 1243.83 1598.94 C 1374.56 1518.75 1470.05 1394.59 1504.15 1243.62 C 1531.95 1119.83 1509.72 990.073 1442.29 882.601 C 1377.3 779.426 1273.94 706.326 1155.01 679.408 C 1055.86 657.311 947.436 674.916 861.278 729.294 C 854.4 733.635 847.94 738.443 841.292 742.694 z" fill="rgb(255,255,255)" transform="translate(0,0)"></path>
<path d="M 1218.71 1301.31 C 1193.45 1328.26 1169.46 1349.01 1137.16 1367.15 C 918.71 1489.84 652.158 1372.78 531.652 1168.49 C 367.292 889.862 507.287 517.502 794.917 387.162 C 918.653 330.932 1055.78 330.246 1186.94 359.22 C 1206.22 363.479 1224.54 369.377 1243.56 374.488 L 1241.59 376.42 C 1236.81 374.515 1230.13 373.401 1224.95 372.371 C 922.404 312.259 599.5 513.404 540.079 821.171 C 516.909 944.019 543.655 1071.04 614.398 1174.11 C 681.782 1275.4 786.916 1345.49 906.328 1368.73 C 988.477 1384.49 1083.26 1375.17 1158.24 1337.82 C 1181.59 1326.19 1197.12 1315.96 1218.71 1301.31 z" fill="rgb(255,255,255)" transform="translate(0,0)"></path>
<path d="M 769.231 1252.98 C 707.609 1219.18 655.938 1144.41 637.327 1077.12 C 609.84 977.744 627.844 872.277 676.728 783.17 C 738.928 669.336 844.29 585.295 969.104 549.962 C 1255.15 467.161 1600.92 665.509 1682.52 950.6 C 1721 1088.23 1704.1 1235.46 1635.44 1360.79 C 1600.79 1423.07 1570.66 1459.44 1520.39 1509.19 L 1520.41 1506.15 C 1624.09 1359.97 1666.91 1214.94 1635.6 1035.01 C 1586.81 754.559 1313.86 535.154 1026.63 584.908 C 907.965 605.462 810.969 672.237 741.739 770.745 C 680.765 857.284 656.609 964.475 674.57 1068.8 C 686.353 1135.84 720.592 1205.05 769.231 1252.98 z" fill="rgb(255,255,255)" transform="translate(0,0)"></path>
<path d="M 595.973 828.544 C 600.432 811.273 605.096 793.282 611.066 776.482 C 657.055 647.057 762.705 528.166 886.99 469.412 C 1026.16 402.864 1186.29 395.243 1331.15 448.274 C 1452.33 491.497 1554.91 575.189 1621.57 685.237 C 1642.35 718.842 1657.1 749.763 1673.74 785.156 L 1671.56 786.479 C 1654.22 755.559 1623.59 719.13 1598.97 693.642 C 1510.15 600.666 1397.79 533.497 1273.83 499.278 C 1162.2 467.764 1055.18 466.725 943.968 499.515 C 906.705 510.201 870.749 525.008 836.766 543.661 C 741.857 595.793 665.699 676.392 619.024 774.101 C 612.848 787.307 600.137 815.264 597.318 828.931 L 595.973 828.544 z" fill="rgb(255,255,255)" transform="translate(0,0)"></path>
<path d="M 1435.4 1278.61 C 1428.6 1297.17 1420.94 1315.41 1412.43 1333.25 C 1352.52 1458.25 1234.66 1558.72 1104.42 1604.54 C 961.396 1653.65 804.803 1644.61 668.379 1579.37 C 530.433 1513.57 424.009 1396.01 372.211 1252.22 C 455.994 1379.9 564.188 1466.48 705.293 1525.44 C 847.399 1584.83 1013.03 1591.93 1156.85 1534.6 C 1272.72 1488.4 1385.1 1393.85 1434.02 1276.94 L 1435.4 1278.61 z" fill="rgb(255,255,255)" transform="translate(0,0)"></path>
<path d="M 526.94 542.519 C 523.954 547.738 522.258 550.71 518.335 555.428 L 516.592 553.587 C 519.368 549.9 523.627 545.864 526.94 542.519 z" fill="rgb(191,224,251)" transform="translate(0,0)"></path>
<path d="M 798.22 1674.43 C 796.686 1673.82 789.927 1671.66 789.638 1670.37 L 789.766 1670.19 C 791.977 1669.43 796.799 1670.81 799.106 1671.32 L 798.22 1674.43 z" fill="rgb(191,224,251)" transform="translate(0,0)"></path>
<path d="M 1520.39 1509.19 C 1520.4 1509.18 1513.58 1516.51 1513.67 1514.06 C 1513.75 1512.16 1518.87 1507.57 1520.41 1506.15 L 1520.39 1509.19 z" fill="rgb(191,224,251)" transform="translate(0,0)"></path>
<path d="M 1243.56 374.488 C 1245.84 375.273 1248.88 376.282 1251.09 377.191 L 1251.47 378.098 L 1251.68 377.491 L 1252.01 378.129 L 1252.3 377.977 L 1252.43 378.329 C 1251.88 379.494 1243.04 376.752 1241.59 376.42 L 1243.56 374.488 z" fill="rgb(152,198,246)" transform="translate(0,0)"></path>
<path d="M 1434.02 1276.94 C 1434.41 1275.67 1435.47 1270.52 1437.18 1270.62 C 1437.99 1271.85 1435.85 1277.12 1435.4 1278.61 L 1434.02 1276.94 z" fill="rgb(152,198,246)" transform="translate(0,0)"></path>
<path d="M 595.973 828.544 L 597.318 828.931 C 597.151 829.654 596.316 835.208 594.834 834.437 C 594.298 833.209 595.562 829.741 595.973 828.544 z" fill="rgb(152,198,246)" transform="translate(0,0)"></path>
<path d="M 1673.74 785.156 C 1676.15 790.72 1674.92 791.058 1671.56 786.479 L 1673.74 785.156 z" fill="rgb(191,224,251)" transform="translate(0,0)"></path>
<metadata><recraft-signature>{"signed_by": "recraft", "signature_b64": "zwCjcUQpEjsYmoUS4mmp6lMZYV93f2FSHJ6hk+qGvPdyn4a9YH+JDSz6vloWau9nq9eSjheYn4K4z/B2COeNDA==", "signing_algo": "Ed25519", "generation_timestamp": 1772777179, "identifier": "a92873a9-dc18-4d8e-8c75-36046bd1072b"}</recraft-signature></metadata></svg>