<svg xmlns="http://www.w3.org/2000/svg" height="1024" preserveAspectRatio="none" style="display: block;" version="1.1" viewBox="0 0 2048 2048" width="1024">
<path d="M 0 0 L 2048 0 L 2048 2048 L 0 2048 L 0 0 z" fill="rgb(255,255,255)" transform="translate(0,0)"></path>
<path d="M 603.856 401.032 C 608.226 293.947 661.076 193.5 738.85 121.013 C 825.376 40.3693 930.389 4.61214 1048.04 9.23136 C 1259.33 17.5268 1433.75 189.997 1445.77 401.079 L 1636.4 400.91 C 1704.45 400.883 1772.23 390.885 1823.14 445.374 C 1842.61 466.216 1858.1 492.124 1862.43 521.293 C 1865.73 554.401 1864.29 595.157 1864.3 629.111 L 1864.24 834.879 L 1863.95 1476.53 C 1862.8 1617.68 1768.25 1735.2 1630.67 1766.19 C 1593 1774.67 1563.09 1773.78 1525.06 1773.77 L 1452.24 1773.91 L 1183.1 1773.06 L 1172.37 1772.92 L 1167.56 1773.03 C 1166.22 1773.04 1161.61 1773.27 1160.72 1772.41 L 1160.75 1772.2 C 1161.47 1771.33 1163.08 1771.02 1164.12 1770.75 C 1255.08 1738.92 1329.22 1686.25 1387.03 1609.09 C 1438.66 1610.05 1491.21 1608.77 1542.76 1609.49 C 1592.4 1610.18 1628.16 1606.09 1665.41 1568.34 C 1684.52 1548.85 1696.96 1523.8 1700.94 1496.8 C 1703.95 1476.16 1702.79 1422.22 1702.85 1398.32 L 1703.07 1204.65 L 1702.28 562.072 C 1623.59 562.081 1544.85 561.898 1466.17 562.182 C 1454.9 562.223 1446.45 564.056 1435.49 565.298 C 1428.72 566.066 1419.06 565.813 1412.08 565.814 L 620.102 565.809 C 610.232 565.754 600.779 562.134 591.832 562.138 C 509.902 562.181 427.883 562.04 345.963 561.985 L 345.897 564.525 C 344.369 647.375 345.339 733.777 345.503 816.85 L 345.673 1191.54 L 345.464 1390.7 L 345.515 1452.05 C 345.59 1466.36 345.255 1482.32 347.268 1496.43 C 354.784 1546.56 393.085 1589.66 441.553 1603.88 C 459.277 1609.63 476.322 1609.09 494.602 1609.4 C 550.578 1610.36 606.83 1608.82 662.768 1609.55 C 722.762 1687.94 791.901 1736.08 883.839 1770.08 L 888.148 1772.17 C 886.667 1773.59 884.748 1773.15 882.055 1773.32 L 631.873 1773.89 L 531.851 1773.93 C 507.345 1773.91 479.314 1774.52 455.102 1772.17 C 384.314 1765.54 318.083 1734.32 267.913 1683.94 C 228.078 1644.02 200.964 1593.19 189.992 1537.87 C 182.019 1496.95 184.168 1435.81 184.149 1392.74 L 184.369 1189.44 L 184.09 556.394 C 184.353 510.038 191.812 477.957 226.021 444.478 C 260.933 410.311 297.731 400.274 345.652 400.952 C 370.953 401.31 397.647 400.916 423.206 400.924 L 603.856 401.032 z" fill="rgb(37,86,203)" transform="translate(0,0)"></path>
<path d="M 1164.12 1770.75 C 1167.35 1772.66 1168.57 1772.23 1172.37 1772.92 L 1167.56 1773.03 C 1166.22 1773.04 1161.61 1773.27 1160.72 1772.41 L 1160.75 1772.2 C 1161.47 1771.33 1163.08 1771.02 1164.12 1770.75 z" fill="rgb(60,108,210)" transform="translate(0,0)"></path>
<path d="M 1009.69 168.439 L 1010.78 168.363 C 1079.45 164.37 1146.9 187.838 1198.26 233.598 C 1245.14 275.572 1279.94 339.566 1283.24 402.804 L 1165.18 402.41 C 1157.74 408.013 1145.89 421.356 1138.82 428.416 C 1124.5 442.444 1110.31 456.612 1096.26 470.917 C 1077.24 490.158 1056.79 512.68 1033.63 526.351 C 1017.66 534.202 1001.42 536.64 985.742 526.689 C 964.375 512.302 942.66 492.951 925.01 473.938 C 903.694 450.975 874.804 426.658 855.734 402.38 L 764.785 402.028 C 776.541 274.318 882.868 176.706 1009.69 168.439 z" fill="rgb(255,255,255)" transform="translate(0,0)"></path>
<path d="M 1142.1 259.266 C 1177.05 257.85 1193.93 296.464 1178.47 324.543 C 1170.32 339.338 1147.54 357.459 1135.43 370.42 C 1106.24 401.675 1074.01 430.848 1044.46 461.8 C 1031.87 477.587 1010.22 492.334 990.475 477.159 C 972.171 463.092 951.725 440.334 935.022 423.427 C 919.242 407.444 891.976 387.481 891.053 364.809 C 890.684 354.511 894.497 344.501 901.623 337.057 C 908.998 329.316 919.238 324.958 929.93 325.008 C 936.353 325.025 942.664 326.699 948.253 329.867 C 957.281 335.057 993.166 373.026 1002.99 382.936 C 1044.65 345 1082.05 303.154 1123.41 265.104 C 1126.75 262.026 1137.3 260.047 1142.1 259.266 z" fill="rgb(37,86,203)" transform="translate(0,0)"></path>
<path d="M 621.059 608.007 L 781.128 607.952 L 781.797 1138.28 L 781.72 1273.72 C 781.572 1323.28 778.386 1371.9 794.324 1419.6 C 805.971 1454.46 825.171 1486.62 850.912 1512.75 C 897.01 1559.31 959.783 1585.54 1025.3 1585.63 C 1090.07 1585.39 1152.08 1559.42 1197.69 1513.43 C 1232.23 1478.76 1254.6 1435.7 1263.69 1387.71 C 1270.3 1352.87 1268.51 1310.63 1268.55 1274.52 L 1268.67 1132.03 L 1268.19 608.215 L 1429.65 608.169 C 1430.68 661.65 1429.83 716.162 1430.55 769.936 L 1430.56 771.249 L 1430.5 1202.46 C 1430.15 1235.49 1430 1268.51 1430.06 1301.54 C 1430.03 1351.33 1431.06 1393.15 1419.2 1441.95 C 1402.11 1512.82 1365.77 1577.59 1314.18 1629.1 C 1237.82 1705.16 1134.65 1748.18 1026.87 1748.89 C 841.63 1749.74 677.229 1626.11 633.041 1445.5 C 617.79 1383.16 620.796 1329.21 620.853 1265.75 L 620.992 1111.48 L 621.059 608.007 z" fill="rgb(37,86,203)" transform="translate(0,0)"></path>
<path d="M 1669.48 1803.73 C 1658.43 1811.96 1647.67 1822.36 1636.25 1830.79 C 1608.13 1851.53 1577.88 1872.87 1548.13 1891.25 C 1379.21 1993.79 1183.86 2044.39 986.394 2036.77 C 793.954 2030.12 607.564 1967.84 449.783 1857.47 C 429.915 1843.56 410.431 1829.85 391.704 1814.4 C 385.423 1809.22 376.533 1802.82 371.232 1797.11 C 417.014 1815.57 461.76 1814.93 509.913 1814.93 L 610.735 1814.88 L 944.526 1814.02 L 1366.29 1814.85 L 1501.32 1814.75 C 1537.68 1814.67 1575.08 1815.34 1611.34 1812.51 C 1629.52 1811.09 1649.41 1806.03 1667.03 1801.26 L 1669.48 1803.73 z" fill="rgb(37,86,203)" transform="translate(0,0)"></path>
<path d="M 142.495 534.71 C 143.798 541.455 143.046 598.973 143.068 609.572 L 143.766 798.561 L 142.96 1517.23 C 131.991 1500.81 109.91 1453.5 101.019 1434.41 C 85.2852 1401.94 64.5798 1342.59 54.5804 1307.93 C -20.8257 1048.82 10.8434 770.283 142.495 534.71 z" fill="rgb(37,86,203)" transform="translate(0,0)"></path>
<path d="M 1905.43 540.1 C 1906.45 539.432 1907.47 538.755 1908.48 538.067 C 1930.54 579.376 1950.27 619.447 1967.06 663.35 C 2046.87 874.342 2054.79 1105.78 1989.59 1321.74 C 1975.7 1366.91 1958.64 1411.04 1938.54 1453.81 C 1930.06 1471.6 1915.51 1496.43 1908.54 1512.89 C 1908.18 1513.63 1907.51 1515.73 1906.37 1515.58 C 1905.71 1515.04 1905.71 1513.96 1905.64 1513.19 L 1905.44 1511.42 C 1906.46 1504.51 1906.05 1482.13 1906.05 1474.14 L 1906 1398.03 L 1906 1136.99 L 1906.05 734.706 L 1906.13 610.184 C 1906.14 590.679 1907.03 558.708 1905.43 540.1 z" fill="rgb(37,86,203)" transform="translate(0,0)"></path>
<path d="M 1905.44 1511.42 C 1906.37 1511.84 1907.69 1512.37 1908.54 1512.89 C 1908.18 1513.63 1907.51 1515.73 1906.37 1515.58 C 1905.71 1515.04 1905.71 1513.96 1905.64 1513.19 L 1905.44 1511.42 z" fill="rgb(60,108,210)" transform="translate(0,0)"></path>
<path d="M 1667.03 1801.26 C 1668.18 1800.69 1673.3 1798.18 1674.48 1798.64 C 1676.53 1799.45 1669.48 1803.73 1669.48 1803.73 L 1667.03 1801.26 z" fill="rgb(60,108,210)" transform="translate(0,0)"></path>
<path d="M 1905.43 540.1 C 1905.46 539.286 1905.2 534.967 1906.39 534.731 C 1907.38 535.177 1908.07 537.141 1908.48 538.067 C 1907.47 538.755 1906.45 539.432 1905.43 540.1 z" fill="rgb(60,108,210)" transform="translate(0,0)"></path>
<metadata><recraft-signature>{"signed_by": "recraft", "signature_b64": "X9GHTdeNr5auBKMf1e2AjtRpwh4Q7hY00BcYveU0ErmD+PVPbltM6JcDPA8GJlbpEsXhos6qG2lJnmg10mVGDw==", "signing_algo": "Ed25519", "generation_timestamp": 1772777219, "identifier": "1b29d439-c11a-4c4c-ba65-ad376f9b660e"}</recraft-signature></metadata></svg>