<svg xmlns="http://www.w3.org/2000/svg" height="1024" preserveAspectRatio="none" style="display: block;" version="1.1" viewBox="0 0 2048 2048" width="1024">
<path d="M 0 0 L 2048 0 L 2048 2048 L 0 2048 L 0 0 z" fill="rgb(253,252,252)" transform="translate(0,0)"></path>
<path d="M 610.198 192.446 C 669.062 190.412 735.338 192.576 795.005 192.413 L 1198.59 192.528 C 1251.77 192.829 1304.94 192.833 1358.11 192.541 C 1410.86 192.391 1466.61 189.993 1518.09 201.302 C 1601.39 219.603 1666.91 253.001 1730.06 310.298 C 1817.53 390.493 1869.74 502.028 1875.29 620.57 C 1875.87 632.958 1876.29 645.593 1876.16 657.999 C 1875.35 733.544 1877.58 809.167 1874.68 884.672 C 1873.77 908.344 1872.92 932.043 1872.34 955.709 C 1871.86 986.1 1871.7 1016.49 1871.88 1046.89 C 1871.95 1095.27 1873.98 1143.25 1875.02 1191.55 C 1875.88 1236.39 1876.26 1281.23 1876.16 1326.08 C 1876.37 1385.52 1879.47 1441.18 1866.75 1499.56 C 1849.46 1579.1 1811.17 1652.55 1755.85 1712.25 C 1675.69 1799.02 1564.45 1850.55 1446.43 1855.57 C 1429.73 1857.01 1408.55 1856.02 1391.43 1856.02 L 1294.13 1855.99 L 1000.93 1856.03 L 740.495 1856 L 655.454 1856.04 C 603.117 1856.06 581.934 1857.5 530.064 1846.38 C 449.926 1829.49 375.916 1791.06 316.007 1735.22 C 233.059 1658.51 178.353 1545.67 174.211 1432.42 C 172.52 1386.19 173.967 1330.61 173.921 1283.41 L 174.547 943.185 C 173.993 873.771 173.808 804.355 173.993 734.939 C 173.808 671.221 170.069 606.613 183.774 544.209 C 200.732 466.327 238.326 394.439 292.617 336.08 C 376.947 245.558 487.084 196.93 610.198 192.446 z" fill="rgb(64,26,230)" transform="translate(0,0)"></path>
<path d="M 1435.86 826.009 C 1440.14 825.778 1450.29 825.822 1454.78 825.899 C 1463.57 826.341 1470.63 825.233 1479.49 826.871 C 1629.03 832.559 1772.74 914.601 1868 1027.41 C 1834.37 1063.74 1799.91 1098.44 1759.27 1127.1 C 1683.39 1180.62 1592.16 1213.87 1499.96 1223.83 C 1494.08 1224.47 1486.02 1225.29 1480.28 1225.1 C 1473.53 1226.13 1467.08 1225.93 1460.24 1226.24 C 1457.31 1227.15 1455.2 1226.88 1452.04 1227 C 1445.46 1226.69 1441.59 1226.9 1435.08 1226.07 C 1431.59 1225.97 1424.56 1225.99 1421.33 1225.35 C 1297.53 1221.14 1180.03 1168.11 1087.59 1086.86 C 1064.3 1066.4 1049.57 1048.96 1028.42 1026.66 C 1036.15 1017.49 1044.17 1008.57 1052.47 999.915 C 1127.24 922.438 1212.17 869.499 1316.97 842.046 C 1344.2 834.915 1377.53 828.412 1405.66 827.89 C 1412.9 826.738 1419.47 827.116 1426.76 826.724 C 1429.73 825.81 1432.7 826.063 1435.86 826.009 z" fill="rgb(64,26,230)" transform="translate(0,0)"></path>
<path d="M 1454.78 825.899 C 1463.57 826.341 1470.63 825.233 1479.49 826.871 C 1629.03 832.559 1772.74 914.601 1868 1027.41 C 1834.37 1063.74 1799.91 1098.44 1759.27 1127.1 C 1683.39 1180.62 1592.16 1213.87 1499.96 1223.83 C 1494.08 1224.47 1486.02 1225.29 1480.28 1225.1 C 1473.53 1226.13 1467.08 1225.93 1460.24 1226.24 C 1459.73 1225.37 1459.52 1225.22 1459.92 1224.29 C 1462.73 1223.9 1465.51 1223.34 1468.34 1223.18 C 1478.65 1219.93 1489.8 1215.36 1498.7 1209.26 C 1597.07 1141.69 1608.16 983.706 1544.71 889.222 C 1526.07 861.476 1498.2 835.134 1465.01 828.545 C 1460.87 828.445 1459.81 827.928 1454.99 828.118 L 1454.78 825.899 z" fill="rgb(253,252,252)" transform="translate(0,0)"></path>
<path d="M 1454.78 825.899 C 1463.57 826.341 1470.63 825.233 1479.49 826.871 C 1473.55 827.162 1469.38 826.004 1465.01 828.545 C 1460.87 828.445 1459.81 827.928 1454.99 828.118 L 1454.78 825.899 z" fill="rgb(170,137,233)" transform="translate(0,0)"></path>
<path d="M 1459.92 1224.29 C 1462.73 1223.9 1465.51 1223.34 1468.34 1223.18 C 1468.63 1225.51 1477.05 1224.7 1480.28 1225.1 C 1473.53 1226.13 1467.08 1225.93 1460.24 1226.24 C 1459.73 1225.37 1459.52 1225.22 1459.92 1224.29 z" fill="rgb(244,236,247)" transform="translate(0,0)"></path>
<path d="M 1405.66 827.89 C 1412.9 826.738 1419.47 827.116 1426.76 826.724 L 1426.08 828.875 C 1424.51 829.173 1423.59 829.342 1422.05 829.525 C 1296.86 873.618 1276.18 1073.88 1351.14 1169.65 C 1365.73 1188.28 1382.7 1204.58 1404.22 1214.82 C 1410.67 1217.86 1417.33 1220.43 1424.15 1222.53 C 1423.14 1223.66 1422.56 1224.45 1421.33 1225.35 C 1297.53 1221.14 1180.03 1168.11 1087.59 1086.86 C 1064.3 1066.4 1049.57 1048.96 1028.42 1026.66 C 1036.15 1017.49 1044.17 1008.57 1052.47 999.915 C 1127.24 922.438 1212.17 869.499 1316.97 842.046 C 1344.2 834.915 1377.53 828.412 1405.66 827.89 z" fill="rgb(253,252,252)" transform="translate(0,0)"></path>
<path d="M 1405.66 827.89 C 1412.9 826.738 1419.47 827.116 1426.76 826.724 L 1426.08 828.875 C 1424.51 829.173 1423.59 829.342 1422.05 829.525 C 1418.08 826.872 1411.33 828.497 1405.66 827.89 z" fill="rgb(244,236,247)" transform="translate(0,0)"></path>
<path d="M 1435.86 826.009 C 1440.14 825.778 1450.29 825.822 1454.78 825.899 L 1454.99 828.118 C 1450.69 828.186 1445.97 827.028 1442 827.415 C 1439.25 827.683 1438.08 828.07 1435.09 828.078 L 1435.86 826.009 z" fill="rgb(105,63,231)" transform="translate(0,0)"></path>
<path d="M 1424.15 1222.53 C 1427.92 1223.19 1431.69 1224.02 1435.43 1224.85 L 1435.08 1226.07 C 1431.59 1225.97 1424.56 1225.99 1421.33 1225.35 C 1422.56 1224.45 1423.14 1223.66 1424.15 1222.53 z" fill="rgb(244,236,247)" transform="translate(0,0)"></path>
<path d="M 1435.43 1224.85 C 1440.32 1224.6 1446.29 1225.3 1451.92 1225.21 L 1452.04 1227 C 1445.46 1226.69 1441.59 1226.9 1435.08 1226.07 L 1435.43 1224.85 z" fill="rgb(105,63,231)" transform="translate(0,0)"></path>
<path d="M 1426.76 826.724 C 1429.73 825.81 1432.7 826.063 1435.86 826.009 L 1435.09 828.078 C 1431.09 828.117 1430.06 828.392 1426.08 828.875 L 1426.76 826.724 z" fill="rgb(143,110,230)" transform="translate(0,0)"></path>
<path d="M 1451.92 1225.21 C 1454.59 1224.88 1457.26 1224.61 1459.92 1224.29 C 1459.52 1225.22 1459.73 1225.37 1460.24 1226.24 C 1457.31 1227.15 1455.2 1226.88 1452.04 1227 L 1451.92 1225.21 z" fill="rgb(143,110,230)" transform="translate(0,0)"></path>
<path d="M 1018.47 1101.07 C 1018.63 1100.28 1019.01 1098.48 1019.02 1097.96 C 1019.04 1097.31 1019.73 1095.74 1019.99 1095.75 C 1022.28 1095.89 1020.43 1109.05 1020.24 1110.38 C 1015.58 1173.85 1008.75 1242.7 995.357 1305.61 C 963.61 1454.75 895.436 1626.9 779.356 1730.69 C 724.297 1779.91 657.786 1804.27 584.408 1799.16 C 498.363 1793.06 423.625 1741.88 368.947 1677.91 C 270.833 1563.13 223.673 1415.59 201.761 1268.4 C 194.438 1219.21 187.221 1167.72 183.78 1118.06 L 186.438 1115.98 C 205.245 1173.38 231.356 1238.4 261.337 1290.56 C 319.129 1390.63 409.949 1490.02 525.682 1518.86 C 748.158 1574.3 917.819 1371.9 989.218 1186.52 C 1000.68 1156.77 1010.48 1132.17 1018.47 1101.07 z" fill="rgb(253,252,252)" transform="translate(0,0)"></path>
<path d="M 1018.47 1101.07 C 1018.63 1100.28 1019.01 1098.48 1019.02 1097.96 C 1019.04 1097.31 1019.73 1095.74 1019.99 1095.75 C 1022.28 1095.89 1020.43 1109.05 1020.24 1110.38 C 1020.12 1109.22 1020.02 1108.05 1019.95 1106.88 C 1019.77 1103.6 1020.02 1103.77 1018.47 1101.07 z" fill="rgb(207,187,242)" transform="translate(0,0)"></path>
<path d="M 1027.94 1103.83 L 1030.6 1102.94 C 1072.71 1250.3 1160.44 1410.88 1298.18 1488.2 C 1370.51 1528.79 1451.79 1538.88 1531.47 1515.65 C 1650.19 1481.04 1739.36 1377.87 1796.79 1272.85 C 1824.87 1221.52 1842.68 1167.85 1861.39 1112.97 C 1861.87 1110.59 1862.31 1108.26 1862.82 1105.89 L 1864.31 1111.11 C 1863.94 1113.8 1863.83 1116.26 1863.44 1118.94 C 1848.71 1275.59 1829.37 1425.45 1752.92 1566.37 C 1690.24 1681.92 1596.79 1790.99 1455.79 1799.19 C 1332.53 1806.36 1244.33 1723.7 1180.98 1628.05 C 1080.24 1475.95 1036.38 1284.37 1027.94 1103.83 z" fill="rgb(253,252,252)" transform="translate(0,0)"></path>
<path d="M 1862.82 1105.89 L 1864.31 1111.11 C 1863.94 1113.8 1863.83 1116.26 1863.44 1118.94 C 1862.75 1115.94 1862.75 1115.71 1861.39 1112.97 C 1861.87 1110.59 1862.31 1108.26 1862.82 1105.89 z" fill="rgb(244,236,247)" transform="translate(0,0)"></path>
<path d="M 185.918 923.663 C 187.856 879.675 193.626 839.363 199.49 796.159 C 222.504 626.593 281.781 444.88 410.892 326.149 C 465.182 276.223 540.245 244.885 614.479 249.201 C 668.853 252.363 702.545 263.928 748.583 291.462 C 741.142 296.131 733.571 300.807 726.411 305.888 C 658.984 353.733 620.042 432.116 601.915 510.959 C 600.928 515.199 600.046 519.462 599.269 523.745 C 439.299 529.388 333.953 634.671 257.78 766.608 C 226.805 820.258 207.021 874.623 187.649 933.316 C 185.739 929.588 186.353 927.903 185.918 923.663 z" fill="rgb(253,252,252)" transform="translate(0,0)"></path>
<path d="M 1029.91 928.797 C 1030.86 896.21 1036 850.331 1040.78 817.372 C 1065.64 645.961 1127.24 451.928 1253.17 327.746 C 1307.33 274.339 1376.58 245.76 1452.02 249.103 C 1505.36 251.467 1539.75 263.532 1585.04 289.359 C 1568.32 300.302 1552.07 311.436 1537.72 325.449 C 1483.48 378.383 1452.83 448.721 1437.6 521.87 L 1436.99 524.847 C 1347.93 525.964 1257.77 576.771 1197.67 639.962 C 1114.07 727.856 1066.98 827.881 1031.49 941.77 C 1031.23 942.935 1031.03 943.996 1030.82 945.166 L 1028.72 945.672 C 1029.1 939.502 1028.84 934.935 1029.91 928.797 z" fill="rgb(253,252,252)" transform="translate(0,0)"></path>
<path d="M 1029.91 928.797 C 1030.44 933.106 1029.75 938.368 1031.49 941.77 C 1031.23 942.935 1031.03 943.996 1030.82 945.166 L 1028.72 945.672 C 1029.1 939.502 1028.84 934.935 1029.91 928.797 z" fill="rgb(244,236,247)" transform="translate(0,0)"></path>
<path d="M 179.501 1026.85 C 192.43 1011.72 205.98 997.135 220.117 983.13 C 293.86 910.047 386.99 859.611 488.494 837.788 C 515.706 831.799 548.003 826.847 575.92 827.004 L 576.254 829.284 C 471.458 867.022 442.483 1019.53 477.962 1113.25 C 493.379 1153.97 521.162 1197.39 562.024 1215.96 C 570.765 1219.99 580.006 1222.83 589.5 1224.4 L 591.221 1224.15 C 592.256 1224 595.504 1223.97 595.964 1225.22 C 595.375 1227.4 574.936 1225.56 572.467 1225.14 C 429.329 1223.95 268.342 1137.31 179.501 1026.85 z" fill="rgb(253,252,252)" transform="translate(0,0)"></path>
<path d="M 589.5 1224.4 L 591.221 1224.15 C 592.256 1224 595.504 1223.97 595.964 1225.22 C 595.375 1227.4 574.936 1225.56 572.467 1225.14 C 578.275 1224.89 583.779 1225.22 589.5 1224.4 z" fill="rgb(143,110,230)" transform="translate(0,0)"></path>
<path d="M 628.092 826.839 C 747.42 833.668 861.085 879.999 951.186 958.534 C 978.657 982.12 994.68 1001.31 1019.43 1025.87 C 992.246 1055.34 968.305 1080.94 936.214 1106.52 C 851.974 1173.66 744.642 1218.52 636.687 1225.16 C 635.525 1225.23 635.225 1225.19 633.511 1225.12 C 625.732 1226.21 619.146 1225.57 611.577 1226.46 L 612.124 1224.21 C 614.885 1224.02 617.596 1223.54 620.12 1223.44 C 700.208 1204.24 738.995 1107.1 739.868 1032.51 C 740.782 954.407 707.064 856.408 626.482 829.691 L 626.71 827.293 L 628.092 826.839 z" fill="rgb(253,252,252)" transform="translate(0,0)"></path>
<path d="M 612.124 1224.21 C 614.885 1224.02 617.596 1223.54 620.12 1223.44 C 623.732 1225.29 628.439 1224.56 633.511 1225.12 C 625.732 1226.21 619.146 1225.57 611.577 1226.46 L 612.124 1224.21 z" fill="rgb(244,236,247)" transform="translate(0,0)"></path>
<path d="M 1606.93 571.812 C 1667.71 556.518 1715.42 527.634 1759.81 483.885 C 1767.7 501.061 1776.16 518.806 1783.17 536.289 C 1819.72 627.42 1840.61 722.632 1852.86 819.78 C 1857.68 858.035 1860.74 898.656 1864.46 937.266 C 1863.75 938.267 1863.17 938.92 1862.38 939.844 C 1834.85 836.303 1771.41 717.529 1695.12 641.933 C 1667.42 614.482 1639.31 593.284 1606.93 571.812 z" fill="rgb(253,252,252)" transform="translate(0,0)"></path>
<path d="M 768.383 572.835 C 823.378 565.63 875.975 533.657 916.215 496.86 C 928.254 518.824 940.251 549.827 949.083 573.065 C 992.841 688.204 1014.4 815.391 1020.42 938.28 C 1019.86 940.205 1019.75 940.16 1018.45 941.891 C 1011.45 915.445 1002.7 892.811 992.911 867.868 C 951.343 761.989 887.843 662.151 795.834 593.282 C 787.403 586.972 776.86 580.316 769.021 573.409 L 768.383 572.835 z" fill="rgb(253,252,252)" transform="translate(0,0)"></path>
<path d="M 183.801 949.35 C 183.28 944.76 185.034 928.246 185.918 923.663 C 186.353 927.903 185.739 929.588 187.649 933.316 C 187.232 937.372 184.951 945.176 183.801 949.35 z" fill="rgb(244,236,247)" transform="translate(0,0)"></path>
<path d="M 614.138 826.042 C 619.184 825.991 623.178 825.673 628.092 826.839 L 626.71 827.293 L 626.482 829.691 C 624.755 829.35 623.033 828.98 621.318 828.583 C 618.964 828.246 617.263 828.11 614.907 827.974 L 614.138 826.042 z" fill="rgb(170,137,233)" transform="translate(0,0)"></path>
<path d="M 621.318 828.583 C 621.763 826.223 624.71 827.147 626.71 827.293 L 626.482 829.691 C 624.755 829.35 623.033 828.98 621.318 828.583 z" fill="rgb(244,236,247)" transform="translate(0,0)"></path>
<path d="M 575.92 827.004 C 580.483 825.576 582.65 826.312 587.415 825.652 L 586.996 828.101 C 583.43 828.067 581.344 828.451 577.887 828.616 L 576.254 829.284 L 575.92 827.004 z" fill="rgb(207,187,242)" transform="translate(0,0)"></path>
<path d="M 575.92 827.004 C 577.373 827.199 577.469 827.257 577.887 828.616 L 576.254 829.284 L 575.92 827.004 z" fill="rgb(244,236,247)" transform="translate(0,0)"></path>
<path d="M 1027.31 1102.58 C 1027.25 1101.37 1026.42 1093.3 1027.57 1092.66 C 1028.67 1092.97 1028.99 1095.81 1029.14 1096.72 L 1029.43 1098.18 C 1029.89 1099.84 1030.25 1101.24 1030.6 1102.94 L 1027.94 1103.83 L 1027.31 1102.58 z" fill="rgb(207,187,242)" transform="translate(0,0)"></path>
<path d="M 1027.31 1102.58 C 1028.02 1101.08 1028.69 1099.66 1029.43 1098.18 C 1029.89 1099.84 1030.25 1101.24 1030.6 1102.94 L 1027.94 1103.83 L 1027.31 1102.58 z" fill="rgb(244,236,247)" transform="translate(0,0)"></path>
<path d="M 1862.82 1105.89 C 1862.94 1103.41 1862.97 1101.72 1864.02 1099.47 L 1863.65 1100.34 C 1863.87 1100.01 1864.1 1099.68 1864.32 1099.35 L 1864.37 1099.33 C 1865.89 1100.16 1864.63 1109.27 1864.31 1111.11 L 1862.82 1105.89 z" fill="rgb(170,137,233)" transform="translate(0,0)"></path>
<path d="M 1020.42 938.28 C 1021.3 941.005 1021.01 947.463 1021.02 950.61 C 1019.7 946.63 1019.35 945.985 1018.45 941.891 C 1019.75 940.16 1019.86 940.205 1020.42 938.28 z" fill="rgb(207,187,242)" transform="translate(0,0)"></path>
<path d="M 182.631 1110.09 L 184.592 1110.02 C 185.304 1112.13 185.871 1113.81 186.438 1115.98 L 183.78 1118.06 C 183.324 1115.35 182.986 1112.8 182.631 1110.09 z" fill="rgb(244,236,247)" transform="translate(0,0)"></path>
<path d="M 1864.46 937.266 C 1865.13 939.442 1865.35 944.615 1864.63 946.478 L 1864.51 946.57 C 1863.53 946.153 1862.7 941.049 1862.38 939.844 C 1863.17 938.92 1863.75 938.267 1864.46 937.266 z" fill="rgb(207,187,242)" transform="translate(0,0)"></path>
<path d="M 1030.82 945.166 C 1030.52 946.336 1030.02 950.917 1028.56 951.192 C 1028.28 951.018 1028.46 951.174 1027.97 950.514 C 1027.71 948.485 1027.96 947.541 1028.72 945.672 L 1030.82 945.166 z" fill="rgb(170,137,233)" transform="translate(0,0)"></path>
<path d="M 614.907 827.974 C 606.915 827.972 605.676 825.776 614.138 826.042 L 614.907 827.974 z" fill="rgb(105,63,231)" transform="translate(0,0)"></path>
<path d="M 181.299 1105.84 L 182.701 1102.12 C 183.344 1104.87 184.026 1107.22 184.592 1110.02 L 182.631 1110.09 C 182.16 1108.68 181.716 1107.27 181.299 1105.84 z" fill="rgb(170,137,233)" transform="translate(0,0)"></path>
<path d="M 587.415 825.652 L 590.971 825.861 C 591.756 825.907 592.798 825.963 593.433 826.445 L 593.522 826.659 C 592.775 828.246 588.263 828.038 586.996 828.101 L 587.415 825.652 z" fill="rgb(105,63,231)" transform="translate(0,0)"></path>
<path d="M 181.299 1105.84 C 181.235 1105.32 179.998 1099.25 181.721 1099.33 C 182.631 1100.33 182.508 1100.65 182.701 1102.12 L 181.299 1105.84 z" fill="rgb(105,63,231)" transform="translate(0,0)"></path>
<path d="M 611.577 1226.46 C 610.59 1226.31 608.52 1226.35 607.694 1225.54 C 607.636 1225.32 607.629 1225.45 607.792 1225.15 C 609.175 1224.28 610.516 1224.31 612.124 1224.21 L 611.577 1226.46 z" fill="rgb(143,110,230)" transform="translate(0,0)"></path>
<metadata><recraft-signature>{"signed_by": "recraft", "signature_b64": "FjfWXAK8mVBYbUtGukk3NHbhjfdt+56oamSHxz5yW3vdEceDYvXZp0/T2P+7Cw1oMp3gIPBlPEOI9qRHKbsZDg==", "signing_algo": "Ed25519", "generation_timestamp": 1772776596, "identifier": "1d479d4d-1181-4c7f-a3d3-0d4dbc8c2406"}</recraft-signature></metadata></svg>