<svg xmlns="http://www.w3.org/2000/svg" height="1024" preserveAspectRatio="none" style="display: block;" version="1.1" viewBox="0 0 2048 2048" width="1024">
<path d="M 0 0 L 2048 0 L 2048 2048 L 0 2048 L 0 0 z" fill="rgb(255,255,255)" transform="translate(0,0)"></path>
<path d="M 1088.23 629.707 C 1232.74 542.237 1373.37 515.32 1540.51 513.964 C 1650.38 513.073 1736.47 505.066 1842.05 474.803 C 1829.42 511.865 1818.8 542.714 1802.41 578.487 C 1782.34 621.339 1759.24 662.705 1733.28 702.268 C 1629.94 861.321 1494.22 976.951 1306.03 1017.82 C 1282.5 1022.93 1259.71 1026.41 1235.95 1030.05 C 1249.39 1033.75 1267.71 1036.09 1281.61 1038.09 C 1355.98 1048.77 1437.57 1046.4 1510.54 1028.3 C 1424.81 1148.17 1325.99 1241.29 1187.88 1297.38 C 1148.49 1313.38 1114.01 1325.68 1071.54 1332.74 C 1066.82 1333.51 1062.09 1334.24 1057.36 1334.91 C 1117.53 1351.41 1201.07 1355.07 1263.03 1350.73 C 1242.99 1364.16 1220.92 1378.97 1200.06 1390.75 C 1119.76 1436.1 1032.54 1464.24 941.494 1477.91 C 904.929 1483.4 872.995 1486.02 835.875 1486.41 C 805.764 1486.72 777.422 1486.48 747.516 1489.77 C 562.462 1510.18 428.693 1610.14 348.903 1776.63 L 346.392 1775.88 C 351.701 1749.91 355.088 1721.79 361.537 1695.8 C 375.16 1640.92 394.355 1584 417.612 1532.48 C 522.853 1299.35 708.386 1088.61 925.719 954.699 C 990.343 914.99 1058.59 881.496 1129.53 854.669 L 1129.5 857.268 C 1121.63 860.705 1105.58 869.981 1098.02 874.266 C 1072.87 888.365 1048.3 903.461 1024.35 919.518 C 863.594 1025.44 727.983 1165.27 627.048 1329.21 C 605.11 1364.97 583.16 1403.01 566.35 1441.49 C 583.925 1431.14 608.465 1421.98 627.332 1414.37 C 668.252 1397.86 711.554 1387.09 755.549 1383.1 C 789.618 1380.01 825.542 1381.65 860.018 1380.95 C 900.319 1379.88 940.463 1375.48 980.037 1367.79 C 974.738 1366.3 968.205 1365.37 962.74 1364.53 C 905.941 1355.81 851.934 1335.44 809.501 1295.39 C 801.722 1288.05 794.179 1279.16 786.976 1271.12 C 919.975 1262.47 1029.16 1237.94 1145.4 1169.26 C 1161.89 1159.51 1200.48 1135.68 1213.61 1122.65 C 1163.07 1128.36 1077.89 1125.77 1028.09 1117.75 C 1029.34 1115.3 1030.63 1112.87 1031.97 1110.47 C 1125.59 942.321 1295.41 804.174 1481.02 751.568 C 1480.36 750.484 1479.81 749.571 1479.07 748.529 C 1460.64 745.925 1442.6 742.772 1423.99 740.323 C 1228.21 714.573 1019.66 757.867 861.897 880.866 C 861.11 806.661 900.13 747.786 943.826 692.396 C 787.69 777.087 657.16 934.978 639.659 1116.2 C 590.911 1083.27 575.638 1035.65 569.61 980.192 C 537.152 1058.56 521.421 1142.85 523.426 1227.66 C 523.697 1237.17 524.467 1262.26 526.785 1270.6 C 517.17 1282.75 509.649 1296.38 500.481 1308.09 C 482.048 1331.65 467.677 1358.35 450.45 1382.32 C 438.878 1346.79 431.999 1304.29 428.331 1267.38 C 411.192 1094.95 457.868 930.81 559.041 790.712 C 574.686 769.046 593.077 746.784 610.477 726.061 L 612.389 730.559 C 594.031 790.394 589.254 832.522 590.836 894.367 L 594.215 893.278 C 663.373 734.181 817.094 608.907 975.913 546.318 C 1049.85 517.022 1127.66 498.611 1206.88 491.662 C 1162.12 533.528 1120.2 576.804 1088.23 629.707 z" fill="rgb(71,31,215)" transform="translate(0,0)"></path>
<path d="M 1479.07 748.529 C 1482.24 749.174 1486.5 749.579 1481.02 751.568 C 1480.36 750.484 1479.81 749.571 1479.07 748.529 z" fill="rgb(250,240,254)" transform="translate(0,0)"></path>
<path d="M 590.836 894.367 L 594.215 893.278 C 593.866 894.185 592.705 898.235 591.557 898.644 C 590.636 898.091 590.859 895.188 590.836 894.367 z" fill="rgb(250,240,254)" transform="translate(0,0)"></path>
<path d="M 1782.89 826.776 C 1784.05 832.582 1783.29 869.734 1783.25 877.944 L 1783.5 982.44 L 1783.72 1144.58 C 1783.76 1171.47 1783.79 1198.27 1783.53 1225.16 C 1782.59 1324.75 1750.88 1423.72 1698.42 1508.02 C 1615.23 1641.34 1482.54 1736.21 1329.48 1771.8 C 1299.81 1778.49 1269.67 1782.9 1239.32 1784.97 C 1212.76 1786.77 1185.47 1786.15 1158.8 1786.1 L 1049.01 1786.07 L 909.378 1786.09 C 843.277 1785.99 793.991 1787.54 728.562 1773.14 C 652.574 1756.41 597.859 1731.84 532.422 1690.86 C 566.81 1662.76 587.073 1648.56 627.335 1628.92 C 685.765 1602.05 736.215 1590.46 800.773 1588.48 C 826.787 1587.68 852.572 1588.21 878.621 1587.16 C 1112.25 1578.11 1332.68 1476.5 1491.3 1304.75 C 1459.18 1304.81 1403.39 1313.27 1370.3 1317.68 C 1459.46 1258.62 1538.77 1185.89 1605.3 1102.15 C 1638.2 1060.2 1664.11 1020.57 1693.08 976.392 C 1659 984.982 1622.06 992.082 1587.38 1000.32 C 1606.48 985.872 1628.66 972.178 1648.34 957.442 C 1698.69 919.932 1743.92 876.005 1782.89 826.776 z" fill="rgb(71,31,215)" transform="translate(0,0)"></path>
<path d="M 821.049 264.425 C 845.386 262.291 878.067 264 902.903 264.022 L 1049.74 264.037 L 1157.64 264.123 C 1188.35 264.063 1220.3 263.361 1250.8 266.17 C 1372.41 277.372 1490.99 329.62 1582.4 410.085 C 1462.16 408.92 1376.85 419.642 1261.26 450.303 C 1289.5 427.578 1331.28 398.213 1365.08 385.236 C 1334.92 384.969 1304.72 382.392 1273.25 382.374 C 1227.09 382.666 1181.01 386.417 1135.41 393.594 C 939.125 422.889 784.996 504.247 645.593 643.857 C 656.462 610.502 672.471 572.155 687.045 540.586 C 672.699 549.383 655.079 562.738 641.175 572.735 C 583.66 614.085 537.705 657.272 493.108 712.5 C 446.984 768.328 409.25 830.585 381.1 897.307 C 321.88 1038.43 305.554 1193.87 334.161 1344.22 C 340.2 1376.94 351.191 1424.19 363.924 1455.02 C 362.02 1468.37 355.984 1496.73 352.402 1509.75 C 301.713 1430.4 272.236 1339.38 266.793 1245.38 C 265.17 1216.68 265.9 1183.21 265.858 1154.21 L 265.888 997.189 L 266.046 878.209 C 266.069 849.218 265.333 821.55 267.74 792.619 C 279.088 668.742 330.441 551.923 414.041 459.807 C 518.273 343.071 664.772 272.745 821.049 264.425 z" fill="rgb(71,31,215)" transform="translate(0,0)"></path>
<path d="M 610.477 726.061 C 617.876 716.664 613.5 727.118 612.389 730.559 L 610.477 726.061 z" fill="rgb(84,47,223)" transform="translate(0,0)"></path>
<path d="M 1129.53 854.669 C 1133.36 852.888 1137.16 851.569 1141.12 850.116 C 1137.16 852.662 1133.74 855.197 1129.5 857.268 L 1129.53 854.669 z" fill="rgb(140,108,230)" transform="translate(0,0)"></path>
<path d="M 346.392 1775.88 L 348.903 1776.63 C 348.539 1777.61 347.056 1782.34 345.646 1782.3 C 344.799 1781.2 346.11 1777.12 346.392 1775.88 z" fill="rgb(140,108,230)" transform="translate(0,0)"></path>
<metadata><recraft-signature>{"signed_by": "recraft", "signature_b64": "yMGuT1mkrhtj2kyyiB/KdkwPQckKpGnr2DRfTM0NR8PS0LCkFPOdsBARp90etPFvllg+t+KG7UDDmzqTgwFcCQ==", "signing_algo": "Ed25519", "generation_timestamp": 1772776556, "identifier": "e5fe6bc8-8e9f-4fd1-b8d0-8be871bda396"}</recraft-signature></metadata></svg>