<svg xmlns="http://www.w3.org/2000/svg" height="1024" preserveAspectRatio="none" style="display: block;" version="1.1" viewBox="0 0 2048 2048" width="1024">
<path d="M 0 0 L 2048 0 L 2048 2048 L 0 2048 L 0 0 z" fill="rgb(255,255,255)" transform="translate(0,0)"></path>
<path d="M 299.205 701.266 C 298.858 657.265 298.257 610.38 299.032 566.46 C 299.958 494.521 329.715 425.964 381.632 376.158 C 425.295 334.258 483.631 304.03 544.077 298.335 C 566.118 296.258 590.365 296.736 612.68 296.653 C 643.793 296.408 674.908 296.542 706.018 297.052 C 774.562 296.791 843.107 297.009 911.648 297.705 C 923.333 297.887 969.455 297.387 978.17 298.895 C 1005.76 297.67 1033 297.939 1060.59 298.196 C 1126.68 296.504 1198.21 297.731 1264.63 297.474 L 1338.96 297.156 C 1349.63 297.118 1370.55 296.582 1380.51 297.761 L 1449.85 297.748 C 1468.04 297.704 1488.31 297.168 1506.27 299.02 C 1571.61 305.756 1627.49 333.05 1673.64 379.36 C 1723.16 428.659 1751.07 495.612 1751.23 565.488 C 1752.62 581.925 1751.97 605.217 1751.97 622.223 C 1752.13 656.473 1751.94 690.723 1751.38 724.968 C 1750.5 796.929 1751.24 869.932 1750.94 942.03 C 1751.18 954.801 1751.14 967.576 1750.82 980.346 C 1751.53 1010.41 1751.52 1040.48 1750.79 1070.55 L 1751.66 1338.98 L 1751.92 1437.99 C 1751.93 1450.04 1752.57 1478.3 1751.2 1489.13 C 1748.3 1562.09 1716.59 1630.92 1663.02 1680.54 C 1620.1 1720.95 1565.1 1746.12 1506.46 1752.19 C 1489.34 1753.88 1471.9 1754.07 1454.71 1753.88 C 1421.59 1753.51 1388.26 1754.38 1355.17 1753.81 L 1166.91 1752.89 L 1111.12 1752.99 C 1100.97 1753.03 1085.02 1753.5 1075.47 1752.03 C 1043.49 1753.21 1011.48 1753.21 979.508 1752.02 C 968.671 1753.66 945.277 1753.1 933.554 1753.09 L 855.939 1753.01 L 757.002 1752.97 C 744.153 1752.96 720.337 1753.77 708.275 1752.9 C 666.463 1754.8 622.353 1753.28 580.321 1753.78 C 566.306 1753.59 551.347 1753.45 537.509 1751.71 C 408.819 1735.52 308.686 1629.82 299.929 1499.97 C 298.562 1479.7 298.944 1459.16 298.934 1438.53 L 299.14 1344.1 C 298.402 1328.4 299.022 1307.61 299.053 1291.5 L 299.267 1192.33 L 299.484 1113.99 C 299.498 1099.24 298.85 1082 299.951 1067.62 C 300.05 1063.02 299.899 1058.04 299.745 1053.43 C 298.929 1028.95 299.555 1004.67 300.183 980.19 C 299.121 957.258 300.132 925.777 299.925 902.017 C 299.069 835.104 298.829 768.184 299.205 701.266 z" fill="rgb(0,0,0)" transform="translate(0,0)"></path>
<path d="M 299.951 1067.62 C 302.719 1075.46 302.798 1090.26 303.606 1098.93 C 307.268 1138.29 315.181 1178.61 326.013 1216.63 C 383.119 1410.48 516.465 1572.86 695.516 1666.57 C 756.743 1698.94 826.534 1725.27 894.686 1738.33 C 912.3 1741.67 929.991 1744.58 947.743 1747.08 C 955.733 1748.21 972.459 1749.85 979.508 1752.02 C 968.671 1753.66 945.277 1753.1 933.554 1753.09 L 855.939 1753.01 L 757.002 1752.97 C 744.153 1752.96 720.337 1753.77 708.275 1752.9 C 666.463 1754.8 622.353 1753.28 580.321 1753.78 C 566.306 1753.59 551.347 1753.45 537.509 1751.71 C 408.819 1735.52 308.686 1629.82 299.929 1499.97 C 298.562 1479.7 298.944 1459.16 298.934 1438.53 L 299.14 1344.1 C 298.402 1328.4 299.022 1307.61 299.053 1291.5 L 299.267 1192.33 L 299.484 1113.99 C 299.498 1099.24 298.85 1082 299.951 1067.62 z" fill="rgb(25,151,203)" transform="translate(0,0)"></path>
<path d="M 299.14 1344.1 C 304.58 1354.38 309.722 1365.7 314.678 1376.21 C 389.216 1534.35 521.079 1662.95 678.275 1738.41 C 687.006 1742.6 700.325 1748.11 708.275 1752.9 C 666.463 1754.8 622.353 1753.28 580.321 1753.78 C 566.306 1753.59 551.347 1753.45 537.509 1751.71 C 408.819 1735.52 308.686 1629.82 299.929 1499.97 C 298.562 1479.7 298.944 1459.16 298.934 1438.53 L 299.14 1344.1 z" fill="rgb(0,0,0)" transform="translate(0,0)"></path>
<path d="M 1060.59 298.196 C 1126.68 296.504 1198.21 297.731 1264.63 297.474 L 1338.96 297.156 C 1349.63 297.118 1370.55 296.582 1380.51 297.761 L 1449.85 297.748 C 1468.04 297.704 1488.31 297.168 1506.27 299.02 C 1571.61 305.756 1627.49 333.05 1673.64 379.36 C 1723.16 428.659 1751.07 495.612 1751.23 565.488 C 1752.62 581.925 1751.97 605.217 1751.97 622.223 C 1752.13 656.473 1751.94 690.723 1751.38 724.968 C 1750.5 796.929 1751.24 869.932 1750.94 942.03 L 1750.1 943.089 C 1748.93 945.127 1749.26 945.474 1747.05 945.872 C 1746.22 941.669 1745.77 936.905 1745.17 932.61 C 1741.65 907.436 1736.56 882.474 1730.57 857.752 C 1703.8 747.197 1651.02 644.629 1576.64 558.567 C 1445.91 406.844 1260.31 313.2 1060.59 298.196 z" fill="rgb(25,151,203)" transform="translate(0,0)"></path>
<path d="M 1380.51 297.761 L 1449.85 297.748 C 1468.04 297.704 1488.31 297.168 1506.27 299.02 C 1571.61 305.756 1627.49 333.05 1673.64 379.36 C 1723.16 428.659 1751.07 495.612 1751.23 565.488 C 1749.88 610.779 1751.88 658.388 1750.93 704.233 C 1733.3 669.784 1721.83 642.197 1700.72 607.413 C 1643.76 515.226 1568.5 435.705 1479.58 373.768 C 1440.42 346.95 1386.36 317.851 1343.51 298.014 C 1355.74 297.736 1368.13 298.033 1380.51 297.761 z" fill="rgb(0,0,0)" transform="translate(0,0)"></path>
<path d="M 1075.47 1752.03 C 1085.66 1749.47 1103.8 1748.81 1115.03 1747.22 C 1133.19 1744.65 1150.67 1741.49 1168.63 1737.65 C 1279.06 1714.27 1382.47 1665.28 1470.51 1594.63 C 1604.16 1489.14 1697.38 1340.83 1734.49 1174.66 C 1742.76 1138.06 1746.61 1107.83 1750.79 1070.55 L 1751.66 1338.98 L 1751.92 1437.99 C 1751.93 1450.04 1752.57 1478.3 1751.2 1489.13 C 1748.3 1562.09 1716.59 1630.92 1663.02 1680.54 C 1620.1 1720.95 1565.1 1746.12 1506.46 1752.19 C 1489.34 1753.88 1471.9 1754.07 1454.71 1753.88 C 1421.59 1753.51 1388.26 1754.38 1355.17 1753.81 L 1166.91 1752.89 L 1111.12 1752.99 C 1100.97 1753.03 1085.02 1753.5 1075.47 1752.03 z" fill="rgb(25,151,203)" transform="translate(0,0)"></path>
<path d="M 1751.21 1343.28 L 1751.2 1489.13 C 1748.3 1562.09 1716.59 1630.92 1663.02 1680.54 C 1620.1 1720.95 1565.1 1746.12 1506.46 1752.19 C 1489.34 1753.88 1471.9 1754.07 1454.71 1753.88 C 1421.59 1753.51 1388.26 1754.38 1355.17 1753.81 C 1352.05 1753.54 1351.05 1753.5 1347.95 1752.74 C 1347.99 1749.85 1365.55 1742.59 1369.06 1740.92 C 1543.41 1658.18 1672.05 1518.38 1751.21 1343.28 z" fill="rgb(0,0,0)" transform="translate(0,0)"></path>
<path d="M 299.205 701.266 C 298.858 657.265 298.257 610.38 299.032 566.46 C 299.958 494.521 329.715 425.964 381.632 376.158 C 425.295 334.258 483.631 304.03 544.077 298.335 C 566.118 296.258 590.365 296.736 612.68 296.653 C 643.793 296.408 674.908 296.542 706.018 297.052 C 774.562 296.791 843.107 297.009 911.648 297.705 C 923.333 297.887 969.455 297.387 978.17 298.895 L 976.964 299.127 C 964.509 301.412 950.163 301.848 937.382 303.628 C 910.208 307.592 883.236 312.829 856.553 319.321 C 683.163 363.22 531.461 468.262 429.361 615.119 C 370.124 699.502 329.594 795.565 310.483 896.878 C 307.482 913.26 305.125 929.754 303.419 946.321 C 302.421 956.128 301.573 970.832 300.183 980.19 C 299.121 957.258 300.132 925.777 299.925 902.017 C 299.069 835.104 298.829 768.184 299.205 701.266 z" fill="rgb(25,151,203)" transform="translate(0,0)"></path>
<path d="M 299.205 701.266 C 298.858 657.265 298.257 610.38 299.032 566.46 C 299.958 494.521 329.715 425.964 381.632 376.158 C 425.295 334.258 483.631 304.03 544.077 298.335 C 566.118 296.258 590.365 296.736 612.68 296.653 C 643.793 296.408 674.908 296.542 706.018 297.052 C 680.466 311.372 652.905 323.173 625.757 338.94 C 510.679 405.771 430.144 484.103 357.663 594.811 C 343.649 616.224 330.818 638.388 319.227 661.203 C 314.68 670.149 303.737 694.93 299.205 701.266 z" fill="rgb(0,0,0)" transform="translate(0,0)"></path>
<path d="M 1750.94 942.03 C 1751.18 954.801 1751.14 967.576 1750.82 980.346 C 1749.85 974.618 1747.08 950.981 1747.05 945.872 C 1749.26 945.474 1748.93 945.127 1750.1 943.089 L 1750.94 942.03 z" fill="rgb(28,145,192)" transform="translate(0,0)"></path>
<path d="M 1048.71 527.417 C 1055.16 526.465 1073.22 526.666 1080.41 526.919 C 1143.21 529.655 1203.74 551.247 1254.09 588.88 C 1326.7 642.934 1375.23 723.301 1389.26 812.731 C 1392.27 814.914 1395.24 817.134 1398.19 819.389 C 1463.08 868.839 1510.76 949.408 1521.52 1030.44 C 1532.15 1112.3 1509.5 1195 1458.63 1260.01 C 1407.13 1327.46 1331 1371.74 1246.91 1383.18 C 1234.69 1403.1 1211.07 1426.18 1192.9 1441.64 C 1141.76 1485.16 1071.12 1516.46 1003.76 1521.27 C 938.289 1528.39 863.4 1507.84 809.519 1470.4 C 728.207 1413.9 680.638 1330.81 662.52 1234.66 C 659.474 1232.48 656.5 1230.21 653.603 1227.84 C 584.9 1170.84 539.828 1091.33 531.01 1002.09 C 523.017 920.75 548.106 839.617 600.619 776.987 C 642.002 727.345 696.698 690.551 758.277 670.931 C 773.17 666.126 789.009 661.739 804.566 660.236 C 816.038 649.632 828.966 631.564 843.91 617.655 C 900.121 565.455 972.251 533.673 1048.71 527.417 z" fill="rgb(25,151,203)" transform="translate(0,0)"></path>
<path d="M 992.642 603.415 C 992.836 603.387 993.03 603.36 993.224 603.332 C 1103.45 596.55 1210.88 633.947 1294.35 704.238 C 1378.24 775.577 1430.25 877.406 1438.86 987.193 C 1448.12 1101.21 1411.82 1214.25 1337.92 1301.56 C 1315.71 1327.8 1298.81 1342.38 1271.98 1362.66 C 1206.74 1411.98 1141.75 1435.54 1060.76 1442.33 C 1050.27 1443.62 1036.71 1443.28 1026.01 1443.26 C 930.52 1443.09 831.456 1403.09 758.474 1342.4 C 674.38 1272.64 621.61 1172.2 611.877 1063.37 C 602.596 949.353 638.702 836.277 712.345 748.734 C 782.874 665.121 883.665 612.866 992.642 603.415 z" fill="rgb(0,0,0)" transform="translate(0,0)"></path>
<path d="M 1023.37 889.826 C 1097.3 888.581 1158.29 947.417 1159.71 1021.35 C 1161.12 1095.28 1102.42 1156.4 1028.5 1157.98 C 954.329 1159.57 892.965 1100.64 891.546 1026.47 C 890.128 952.305 949.195 891.075 1023.37 889.826 z" fill="rgb(25,151,203)" transform="translate(0,0)"></path>
<path d="M 1302.5 1078.79 C 1306.21 1082.64 1307.34 1101.48 1307.77 1107.4 C 1320.44 1282.15 1153.72 1400.15 993.806 1319.08 C 985.077 1314.24 975.044 1307.32 966.556 1301.78 C 1038.2 1314.63 1098.25 1307.54 1162.63 1271.55 C 1217.21 1241.12 1259.94 1193.18 1283.9 1135.46 C 1291.65 1116.9 1296.97 1098.09 1302.5 1078.79 z" fill="rgb(25,151,203)" transform="translate(0,0)"></path>
<path d="M 749.026 970 C 748.659 968.548 748.317 967.09 748 965.626 C 736 908.095 746.899 848.153 778.382 798.528 C 808.72 751.682 856.264 718.647 910.749 706.553 C 967.732 694.217 1026.17 708.273 1074.73 739.481 C 1090.11 745.198 1065.3 741.439 1063.61 741.1 C 1052.45 740.57 1040.8 739.396 1029.72 739.371 C 977.647 738.777 926.451 752.794 881.944 779.831 C 828.257 812.202 786.743 861.373 763.832 919.727 C 757.006 937.295 753.445 951.876 749.026 970 z" fill="rgb(25,151,203)" transform="translate(0,0)"></path>
<path d="M 1074.73 739.481 C 1090.11 745.198 1065.3 741.439 1063.61 741.1 C 1067.39 740.696 1071.41 741.037 1074.73 739.481 z" fill="rgb(28,145,192)" transform="translate(0,0)"></path>
<path d="M 747.642 969.652 C 748.313 970.282 749.061 971.389 748.894 972.35 C 729.288 1085.52 776.741 1203.63 876.075 1264.53 C 905.376 1282.49 934.861 1293.83 968.465 1302.31 C 956.961 1304.54 943.553 1304.97 931.805 1305.13 C 887.004 1305.58 845.607 1296.27 807.772 1271.79 C 698.814 1201.3 683.17 1074.91 747.642 969.652 z" fill="rgb(25,151,203)" transform="translate(0,0)"></path>
<path d="M 1113.18 742.436 C 1156.65 740.717 1203.67 753.186 1241.1 775.08 C 1287.45 802.341 1321.15 846.818 1334.84 898.818 C 1350.93 960.781 1339.79 1016.96 1307.42 1071.61 C 1306.61 1072.94 1305.58 1074.2 1304.64 1075.46 L 1303.43 1075.09 C 1303.1 1072.44 1306.75 1041.65 1306.99 1034.5 C 1308.97 984.768 1298.2 935.354 1275.7 890.958 C 1264.1 868.486 1249.34 847.797 1231.86 829.522 C 1186.29 780.943 1146.64 764.002 1085.82 743.9 C 1094.5 743.043 1104.39 742.826 1113.18 742.436 z" fill="rgb(25,151,203)" transform="translate(0,0)"></path>
<path d="M 470.544 848.262 C 472.542 820.105 475.416 791.983 481.552 764.391 C 532.56 535.006 732.645 380.977 967.464 398.313 C 1035.72 403.883 1102.27 422.556 1163.46 453.313 C 1173.6 458.353 1194.46 469.346 1203.24 475.941 C 1186.44 473.326 1170.13 469.337 1153.4 466.608 C 1127.94 462.641 1102.26 460.198 1076.51 459.293 C 939.233 453.712 795.998 501.915 685.737 582.82 C 586.861 655.37 522.978 741.19 472.562 851.789 C 469.577 859.958 469.617 851.476 470.544 848.262 z" fill="rgb(25,151,203)" transform="translate(0,0)"></path>
<path d="M 470.544 848.262 C 471.291 850.138 471.32 850.042 472.562 851.789 C 469.577 859.958 469.617 851.476 470.544 848.262 z" fill="rgb(25,107,158)" transform="translate(0,0)"></path>
<path d="M 1575.92 1204 L 1579.05 1203.96 C 1574.92 1295.26 1544.72 1383.46 1492.02 1458.12 C 1480.51 1474.69 1469.13 1487.45 1455.87 1502.35 C 1389.64 1576.82 1299.29 1629.08 1200.94 1646.59 C 1114.33 1662 1028.63 1652.47 946.425 1621.67 C 908.343 1607.4 882.263 1595.82 848.684 1572.37 C 969.369 1599.36 1078.6 1596.18 1195.93 1555.45 C 1325.53 1510.39 1437.41 1425.24 1515.37 1312.34 C 1539.34 1277.18 1557.45 1242.15 1575.92 1204 z" fill="rgb(25,151,203)" transform="translate(0,0)"></path>
<path d="M 465.543 865.967 C 465.988 864.743 466.758 861.881 468.243 861.588 C 469.761 862.511 467.482 873.53 467.055 875.391 C 465.998 890.143 462.759 905.765 461.481 920.545 C 459.441 944.142 458.795 967.812 459.141 991.485 C 462.664 1143.85 519.382 1290.17 619.465 1405.11 C 681.558 1476.75 748.437 1529.88 835.017 1568.4 C 832.46 1569.73 832.339 1569.74 829.498 1570.48 C 468.679 1531.75 293.017 1182.97 465.543 865.967 z" fill="rgb(25,151,203)" transform="translate(0,0)"></path>
<path d="M 465.543 865.967 C 465.988 864.743 466.758 861.881 468.243 861.588 C 469.761 862.511 467.482 873.53 467.055 875.391 C 466.777 871.291 467.805 869.226 465.543 865.967 z" fill="rgb(28,145,192)" transform="translate(0,0)"></path>
<path d="M 1221.75 477.446 C 1558.34 513.703 1743.99 825.59 1608.99 1137.78 C 1600.99 1156.27 1593.6 1173.45 1582.6 1190.61 L 1580.49 1186.62 C 1585.15 1161.93 1589.41 1138.49 1591.78 1113.44 C 1599.16 1030.65 1589.36 947.222 1562.98 868.397 C 1516.99 728.216 1424.93 607.711 1301.78 526.466 C 1273.89 508.362 1247.69 495.731 1218.01 480.876 C 1219.28 479.683 1220.44 478.607 1221.75 477.446 z" fill="rgb(25,151,203)" transform="translate(0,0)"></path>
<path d="M 1578.34 1198.54 C 1578.52 1196.41 1578.45 1194.16 1579.32 1192.19 L 1580.62 1194.26 C 1579.77 1197.75 1580.56 1199.47 1579.41 1203.12 L 1579.05 1203.96 L 1575.92 1204 C 1576.77 1202.2 1577.58 1200.38 1578.34 1198.54 z" fill="rgb(14,45,64)" transform="translate(0,0)"></path>
<path d="M 1578.34 1198.54 C 1578.67 1200.09 1579.04 1201.58 1579.41 1203.12 L 1579.05 1203.96 L 1575.92 1204 C 1576.77 1202.2 1577.58 1200.38 1578.34 1198.54 z" fill="rgb(28,145,192)" transform="translate(0,0)"></path>
<path d="M 1218.01 480.876 C 1216.89 480.37 1212.43 478.8 1211.88 477.537 C 1213.13 476.349 1220.03 477.14 1221.75 477.446 C 1220.44 478.607 1219.28 479.683 1218.01 480.876 z" fill="rgb(28,145,192)" transform="translate(0,0)"></path>
<path d="M 835.017 1568.4 C 836.434 1568.85 839.97 1569.8 840.166 1571.28 C 839.191 1571.85 830.787 1570.72 829.498 1570.48 C 832.339 1569.74 832.46 1569.73 835.017 1568.4 z" fill="rgb(28,145,192)" transform="translate(0,0)"></path>
<path d="M 1580.49 1186.62 L 1582.6 1190.61 C 1581.94 1191.9 1581.33 1193 1580.62 1194.26 L 1579.32 1192.19 C 1579.73 1190.31 1580.14 1188.51 1580.49 1186.62 z" fill="rgb(28,145,192)" transform="translate(0,0)"></path>
<metadata><recraft-signature>{"signed_by": "recraft", "signature_b64": "KyvsUoG5qoMi2Dyc6p4TsiozYgp6CBfd7/IZ+uf30bg5ERwr8ZjhWhplyMyCLxqBnMPQ38blRi8IutGMEOpnDg==", "signing_algo": "Ed25519", "generation_timestamp": 1772776473, "identifier": "ab99e9de-a9e3-494f-aa84-32c5281e1317"}</recraft-signature></metadata></svg>