<svg xmlns="http://www.w3.org/2000/svg" height="1024" preserveAspectRatio="none" style="display: block;" version="1.1" viewBox="0 0 2048 2048" width="1024">
<path d="M 0 0 L 2048 0 L 2048 2048 L 0 2048 L 0 0 z" fill="rgb(255,255,255)" transform="translate(0,0)"></path>
<path d="M 289.007 817.568 C 288.53 798.685 290.246 780.904 292.123 762.143 C 304.719 642.991 356.852 531.489 440.208 445.422 C 534.459 347.149 663.354 289.556 799.44 284.909 C 892.904 282.561 992.72 284.283 1086.7 284.444 L 1199.29 284.65 C 1232.05 284.712 1261.4 284.146 1294.11 287.229 C 1415.96 298.71 1520.38 350.33 1608.27 434.348 C 1705.74 529.046 1762.24 658.149 1765.67 793.999 C 1766.84 847.012 1765.22 902.653 1765.13 955.987 L 1765.13 1280.17 C 1764.79 1304.45 1761.31 1323.61 1757.01 1347.22 C 1738.2 1450.5 1684.25 1544.41 1609.13 1617.38 C 1571.63 1653.57 1528.92 1683.95 1482.43 1707.5 C 1412.46 1743.09 1344.47 1760.53 1265.84 1763.62 C 1244.61 1764.45 1222.32 1763.99 1201.01 1763.97 L 1083.78 1763.92 C 1048.98 1765.75 1002.21 1763.9 966.005 1764.25 C 903.947 1762.74 831.944 1766.6 771.162 1762.12 C 645.437 1752.25 527.396 1697.71 438.388 1608.37 C 353.886 1523.69 301.829 1412 291.312 1292.83 C 288.691 1263.22 288.979 1236.54 288.954 1206.82 L 288.932 1110.64 L 288.92 831.935 C 288.671 827.273 288.87 822.255 289.007 817.568 z" fill="rgb(0,0,0)" transform="translate(0,0)"></path>
<path d="M 289.007 817.568 C 288.53 798.685 290.246 780.904 292.123 762.143 C 304.719 642.991 356.852 531.489 440.208 445.422 C 534.459 347.149 663.354 289.556 799.44 284.909 C 892.904 282.561 992.72 284.283 1086.7 284.444 L 1199.29 284.65 C 1232.05 284.712 1261.4 284.146 1294.11 287.229 C 1415.96 298.71 1520.38 350.33 1608.27 434.348 C 1705.74 529.046 1762.24 658.149 1765.67 793.999 C 1766.84 847.012 1765.22 902.653 1765.13 955.987 L 1765.13 1280.17 C 1734.33 1280.59 1703.52 1280.77 1672.72 1280.72 C 1653.62 1280.77 1634.29 1281.5 1615.22 1280.65 C 1594.21 1279.72 1575.47 1269.3 1567.75 1248.75 C 1560.87 1230.46 1564.12 1131.05 1564.15 1102.93 C 1564.17 1089.21 1565.45 1073.99 1562.04 1060.62 C 1559.98 1052.56 1555.86 1045.17 1550.09 1039.16 C 1532.11 1020.22 1509.36 1023.06 1485.48 1023.1 L 1431.36 1023.23 L 1285.62 1023.39 C 1257.25 1023.52 1229.04 1024.05 1200.46 1023.82 C 1179.63 1024.27 1158.8 1014.79 1150.27 994.543 C 1142.86 976.955 1145.12 948.924 1145.16 929.708 L 1145.35 846.222 C 1145.39 822.76 1148.67 797.381 1130.57 780.112 C 1124.06 773.907 1118.8 770.185 1109.98 767.914 C 1091.8 763.234 1072.78 765.718 1054.21 765.255 C 1028.57 765.216 1002.88 765.99 977.227 765.903 C 957.397 765.835 939.673 760.901 929.314 742.312 C 926.092 736.428 924.006 729.989 923.167 723.333 C 921.583 711.521 922.14 687.342 922.148 674.701 L 922.402 585.572 C 922.473 562.147 925.786 536.958 907.537 519.151 C 893.51 505.463 876.506 506.159 858.508 506.108 L 794.724 506.256 C 782.265 506.31 759.677 505.609 748.513 508.235 C 739.714 510.225 731.685 514.733 725.404 521.209 C 706.446 540.395 708.707 558.945 708.853 583.336 L 708.901 625.337 L 708.519 767.837 L 708.772 1284.91 C 609.135 1275.66 508.808 1225.84 437.473 1156.13 C 366.641 1087.72 318.503 999.216 299.558 902.576 C 295.973 884.868 291.164 857.487 290.96 839.363 C 290.15 836.722 289.561 834.612 288.92 831.935 C 288.671 827.273 288.87 822.255 289.007 817.568 z" fill="rgb(12,166,235)" transform="translate(0,0)"></path>
<path d="M 289.007 817.568 C 290.843 825.064 291.311 831.676 290.96 839.363 C 290.15 836.722 289.561 834.612 288.92 831.935 C 288.671 827.273 288.87 822.255 289.007 817.568 z" fill="rgb(8,111,177)" transform="translate(0,0)"></path>
<path d="M 966.005 1764.25 C 919.764 1747.49 921.66 1720.86 922.006 1677.86 C 922.202 1653.48 922.008 1627.69 921.98 1603.21 L 921.88 1396.04 L 921.898 1186.54 C 921.919 1150.57 921.787 1114.59 922.175 1078.62 C 922.403 1057.51 932.33 1040.54 952.247 1032.32 C 957.694 1030.11 963.433 1028.7 969.284 1028.14 C 984.494 1026.6 1016.75 1027.22 1032.8 1027.25 C 1049.49 1027.28 1078.01 1026.24 1093.11 1027.46 C 1099.11 1027.95 1105 1029.44 1110.52 1031.85 C 1123.32 1037.44 1133.34 1047.93 1138.32 1060.97 C 1145.16 1079.01 1142.45 1159.96 1142.43 1183.98 L 1142.44 1380 L 1142.39 1597.08 C 1142.35 1632.07 1142.46 1667.02 1142.26 1702.05 C 1142.1 1731.62 1124.75 1750.32 1097.86 1759.88 C 1093.74 1761.34 1087.16 1762.18 1083.78 1763.92 C 1048.98 1765.75 1002.21 1763.9 966.005 1764.25 z" fill="rgb(12,166,235)" transform="translate(0,0)"></path>
<path d="M 1439.29 1297.01 C 1502.09 1289.29 1559.21 1334.06 1566.74 1396.88 C 1574.27 1459.7 1529.34 1516.69 1466.5 1524.03 C 1403.92 1531.35 1347.21 1486.65 1339.71 1424.08 C 1332.21 1361.52 1376.75 1304.68 1439.29 1297.01 z" fill="rgb(12,166,235)" transform="translate(0,0)"></path>
<metadata><recraft-signature>{"signed_by": "recraft", "signature_b64": "lvsvBb0Rp4QeSFNeW2ztvtnEj915u0F9GveqoAFMkG3GQkRLL517mmHkABYpHfqevhlsqJpJwYtBb9VIxUGLDQ==", "signing_algo": "Ed25519", "generation_timestamp": 1772776432, "identifier": "bba4537e-636d-4b48-8d56-62b7aa4ffeff"}</recraft-signature></metadata></svg>