<svg xmlns="http://www.w3.org/2000/svg" height="1024" preserveAspectRatio="none" style="display: block;" version="1.1" viewBox="0 0 2048 2048" width="1024">
<path d="M 0 0 L 2048 0 L 2048 2048 L 0 2048 L 0 0 z" fill="rgb(0,0,0)" transform="translate(0,0)"></path>
<path d="M 900.777 243.177 C 991.549 241.936 1084.33 242.865 1175.17 243.033 L 1282.5 242.962 C 1305.03 242.931 1330.72 242.252 1352.98 243.996 C 1454.68 251.796 1550.44 294.977 1623.63 366.038 C 1676.24 417.115 1721.91 490.077 1738.6 562.104 C 1749.43 604.683 1753.81 648.649 1751.58 692.528 C 1751.05 733.744 1751.33 775.727 1751.36 816.991 L 1751.18 822.701 C 1752.26 831.568 1751.71 851.649 1751.67 861.143 L 1751.39 930.871 C 1751.23 996.724 1752.58 1063.98 1751.69 1129.5 L 1751.93 1177.23 C 1751.95 1183.42 1752.2 1198.07 1751.29 1203.73 C 1752.3 1229.27 1751.78 1262.58 1751.52 1288.5 C 1750.96 1345.12 1754.63 1403.5 1744.98 1459.2 C 1744.48 1462.13 1742.28 1474.57 1741.29 1476.75 C 1726.21 1541.56 1695.85 1601.83 1652.76 1652.53 C 1646.87 1659.41 1632.57 1675.32 1625.67 1680.47 C 1556.06 1755.72 1435.65 1807.29 1333.75 1807.87 C 1266.05 1808.26 1192.71 1810.38 1125.39 1808.08 C 1048.95 1809.37 969.209 1808.55 892.444 1808.72 L 780.647 1808.85 C 755.262 1808.84 726.332 1809.36 701.168 1807.58 C 637.057 1802.8 574.742 1784.19 518.509 1753.03 C 417.223 1697.45 342.664 1603.34 311.738 1492.03 C 310.02 1487.4 307.202 1474.62 305.973 1469.54 C 296.984 1432.45 296.744 1397.43 297.252 1359.58 L 297.172 1207.7 C 296.549 1200.09 297.006 1184.77 297.001 1176.72 L 296.953 1113.06 L 296.963 910.414 L 296.975 774.91 C 295.969 743.021 297.688 710.313 296.934 678.371 C 296.117 643.789 299.231 611.006 306.594 577.265 C 321.383 502.692 367.282 420.018 422.194 367.555 C 486.879 302.016 583.547 257.971 674.384 246.269 C 714.606 242.331 755.654 242.871 796.063 243.198 C 830.66 243.477 866.32 242.147 900.777 243.177 z" fill="rgb(16,167,225)" transform="translate(0,0)"></path>
<path d="M 716.087 1411.84 C 833.672 1466.16 990.321 1514.91 1117.51 1537.92 C 1273.31 1566.11 1518.64 1585.35 1666.45 1522.69 C 1685.42 1514.66 1703.47 1504.6 1720.27 1492.66 C 1727.21 1487.68 1733.58 1482.09 1740.5 1477.29 L 1741.29 1476.75 C 1726.21 1541.56 1695.85 1601.83 1652.76 1652.53 C 1646.87 1659.41 1632.57 1675.32 1625.67 1680.47 C 1622.48 1680.51 1600.29 1688.15 1595.52 1689.55 C 1582.52 1693.3 1569.45 1696.76 1556.3 1699.92 C 1523.95 1707.73 1485.99 1712.79 1452.66 1714.7 C 1260.8 1725.63 1065.65 1689.62 881.981 1636.3 C 822.329 1618.98 626.278 1558.7 607.676 1498.14 C 605.076 1489.8 605.927 1480.77 610.037 1473.06 C 624.454 1445.93 687.317 1420.38 716.087 1411.84 z" fill="rgb(240,241,240)" transform="translate(0,0)"></path>
<path d="M 422.194 367.555 C 474.458 352.282 539.492 344.076 593.836 341.427 C 802.983 331.234 1013.26 369.603 1212.74 430.405 C 1318.8 462.887 1593.89 549.449 1337.81 638.822 C 1306.29 626.369 1275.04 612.671 1243.28 600.986 C 1194.48 583.142 1145 567.675 1094.74 554.519 C 905.726 505.039 708.099 472.798 512.664 496.556 C 434.674 506.037 367.371 525.133 306.594 577.265 C 321.383 502.692 367.282 420.018 422.194 367.555 z" fill="rgb(240,241,240)" transform="translate(0,0)"></path>
<path d="M 311.738 1492.03 C 333.345 1511.44 356.098 1526.42 380.53 1542.03 C 552.081 1651.67 743.574 1719.64 940.546 1768.33 C 977.899 1777.75 1015.46 1786.33 1053.2 1794.05 C 1065.74 1796.53 1117.47 1804.86 1125.39 1808.08 C 1048.95 1809.37 969.209 1808.55 892.444 1808.72 L 780.647 1808.85 C 755.262 1808.84 726.332 1809.36 701.168 1807.58 C 637.057 1802.8 574.742 1784.19 518.509 1753.03 C 417.223 1697.45 342.664 1603.34 311.738 1492.03 z" fill="rgb(240,241,240)" transform="translate(0,0)"></path>
<path d="M 900.777 243.177 C 991.549 241.936 1084.33 242.865 1175.17 243.033 L 1282.5 242.962 C 1305.03 242.931 1330.72 242.252 1352.98 243.996 C 1454.68 251.796 1550.44 294.977 1623.63 366.038 C 1676.24 417.115 1721.91 490.077 1738.6 562.104 C 1731.87 556.884 1725.37 549.481 1718.53 543.912 C 1585.63 435.762 1415.56 372.139 1253.15 323.658 C 1193.26 305.868 1132.85 289.868 1072.01 275.682 C 1037.69 268.217 1003.26 261.269 968.728 254.839 C 958.183 252.915 906.45 246.234 900.777 243.177 z" fill="rgb(240,241,240)" transform="translate(0,0)"></path>
<path d="M 1639.25 1175.7 C 1664.89 1161.64 1707.13 1121.63 1724.1 1097.86 C 1734.08 1083.89 1744.45 1062.79 1751.05 1046.82 C 1751.6 1074.34 1750.88 1102.05 1751.69 1129.5 L 1751.93 1177.23 C 1751.95 1183.42 1752.2 1198.07 1751.29 1203.73 C 1742.88 1214.4 1736.04 1228.27 1726.16 1240.04 C 1715.34 1232.83 1701.17 1218.75 1690.21 1210.12 C 1673.49 1196.94 1657.49 1186.59 1639.25 1175.7 z" fill="rgb(240,241,240)" transform="translate(0,0)"></path>
<path d="M 296.975 774.91 C 319.457 804.935 339.964 827.465 371.158 849.727 C 382.394 857.745 394.962 864.709 405.555 872.349 C 370.994 899.967 358.206 912.952 332.254 948.628 C 320.097 936.134 309.015 922.975 296.963 910.414 L 296.975 774.91 z" fill="rgb(240,241,240)" transform="translate(0,0)"></path>
<path d="M 297.172 1207.7 C 301.658 1215.09 307.879 1233.59 312.152 1242.83 C 323.006 1266.29 334.814 1282.2 350.107 1302.34 C 343.788 1340.21 344.234 1366.28 349.955 1403.9 C 327.963 1388.23 316.495 1378.21 297.252 1359.58 L 297.172 1207.7 z" fill="rgb(240,241,240)" transform="translate(0,0)"></path>
<path d="M 1700.22 645.274 C 1722.55 663.19 1732.03 671.194 1751.58 692.528 C 1751.05 733.744 1751.33 775.727 1751.36 816.991 L 1748.18 818.098 C 1740.75 797.694 1714.59 759.482 1699.58 743.647 C 1704.6 703.611 1703.83 685.617 1700.22 645.274 z" fill="rgb(240,241,240)" transform="translate(0,0)"></path>
<path d="M 1748.18 818.098 L 1751.36 816.991 L 1751.18 822.701 C 1750.14 821.661 1749.31 820.794 1748.75 819.426 L 1748.18 818.098 z" fill="rgb(234,249,249)" transform="translate(0,0)"></path>
<path d="M 1653.19 846.616 C 1662.61 857.144 1660.75 937.604 1660.7 956.153 C 1660.62 988.268 1651.79 1014.86 1632.24 1040.6 C 1548.73 1150.52 1290.68 1202.38 1159.19 1223.32 C 1080.12 1235.91 1000.41 1241.63 921.083 1252.01 C 861.473 1259.5 802.427 1270.95 744.338 1286.28 C 694.437 1299.44 647.131 1315.08 601.723 1340.13 C 557.782 1364.37 513.249 1396.51 501.895 1448.59 C 498.655 1463.46 498.696 1476.12 498.776 1491.12 C 492.817 1483.3 487.86 1476.6 482.875 1468.09 C 472.991 1450.19 465.387 1431.12 460.238 1411.32 C 388.573 1127.85 927.036 1100.97 1099.97 1078.23 C 1168.41 1069.52 1236.31 1057.04 1303.38 1040.86 C 1410.78 1014.54 1543.26 972.505 1621.97 889.766 C 1634.09 877.026 1644.09 861.625 1653.19 846.616 z" fill="rgb(240,241,240)" transform="translate(0,0)"></path>
<path d="M 1552.78 582.351 C 1553.04 576.573 1553.28 570.603 1553.27 564.811 C 1553.33 564.494 1553.41 563.528 1553.86 563.432 C 1555.05 563.177 1555.95 565.326 1556.31 565.934 C 1586.42 609.387 1605.36 668.639 1594.84 721.008 C 1571.24 838.506 1407.4 895.243 1307.87 921.36 C 1234.74 940.34 1160.45 954.523 1085.47 963.818 C 1014.48 973.296 940.755 979.019 870.305 990.319 C 722.339 1014.05 481.482 1060.97 397.967 1200.49 C 390.431 1174.6 388.524 1152.38 389.113 1125.54 C 389.513 1107.29 387.887 1089.32 391.211 1071.19 C 393.793 1057.42 398.503 1044.13 405.17 1031.8 C 450.928 948.315 577.663 904.442 664.249 879.692 C 734.006 859.753 806.748 846.171 878.598 836.08 C 944.082 826.883 1010 821.675 1075.49 812.668 C 1197.85 795.839 1470.84 751.389 1536.13 634.973 C 1543.07 622.593 1547.39 609.394 1550.4 595.572 C 1551.3 591.455 1551.42 586.227 1552.78 582.351 z" fill="rgb(240,241,240)" transform="translate(0,0)"></path>
<path d="M 1552.78 582.351 C 1553.04 576.573 1553.28 570.603 1553.27 564.811 C 1553.33 564.494 1553.41 563.528 1553.86 563.432 C 1555.05 563.177 1555.95 565.326 1556.31 565.934 C 1553.89 572.062 1556.56 573.121 1552.78 582.351 z" fill="rgb(234,249,249)" transform="translate(0,0)"></path>
<path d="M 1532.47 1241.08 C 1572.87 1260.85 1650.47 1299.74 1665.74 1343.87 C 1670.5 1357.55 1669.53 1372.58 1663.04 1385.53 C 1639.39 1432.04 1529.85 1445.89 1482.05 1450.29 C 1341.67 1463.23 1202.5 1440.61 1065.79 1410.64 C 1030.71 1402.89 995.839 1394.24 961.211 1384.69 C 946.593 1380.77 926.226 1375.89 912.194 1371.19 C 910.916 1370.72 909.592 1370.25 908.315 1369.84 C 907.692 1369.64 906.962 1368.72 907.541 1368.52 C 910.75 1367.38 917.053 1367.18 920.368 1367.04 C 1080.31 1350.49 1221.16 1335.36 1377.88 1294.8 C 1418.02 1284.77 1457.42 1272.04 1495.84 1256.69 C 1506.42 1252.48 1522.4 1246.23 1532.47 1241.08 z" fill="rgb(240,241,240)" transform="translate(0,0)"></path>
<path d="M 912.194 1371.19 C 910.916 1370.72 909.592 1370.25 908.315 1369.84 C 907.692 1369.64 906.962 1368.72 907.541 1368.52 C 910.75 1367.38 917.053 1367.18 920.368 1367.04 C 916.212 1369.83 914.695 1367.93 912.194 1371.19 z" fill="rgb(234,249,249)" transform="translate(0,0)"></path>
<path d="M 604.672 601.442 C 746.909 594.532 912.297 627.787 1050.72 660.701 C 1081.29 667.971 1120.37 677.399 1149.65 686.715 C 1120.21 691.426 1085.76 694.697 1055.82 698.288 C 984.493 706.327 913.273 715.26 842.174 725.085 C 731.891 739.826 623.765 767.701 520.1 808.116 C 485.173 791.782 425.272 761.506 402.561 732.426 C 311.347 615.631 549.243 604.02 604.672 601.442 z" fill="rgb(240,241,240)" transform="translate(0,0)"></path>
<metadata><recraft-signature>{"signed_by": "recraft", "signature_b64": "98Ospbn+K5a1uuVV+D3eVOaHCp+n9R+NblE+A7OjLxUeCer7JU5xmkxVmKxpJoeFDH34HI6JHNnKZRNqx2eeAQ==", "signing_algo": "Ed25519", "generation_timestamp": 1772776452, "identifier": "fdec6cb7-7df7-4b33-b519-a5b5e4224879"}</recraft-signature></metadata></svg>