<svg xmlns="http://www.w3.org/2000/svg" height="1024" preserveAspectRatio="none" style="display: block;" version="1.1" viewBox="0 0 2048 2048" width="1024">
<path d="M 0 0 L 2048 0 L 2048 2048 L 0 2048 L 0 0 z" fill="rgb(253,253,252)" transform="translate(0,0)"></path>
<path d="M 865.094 273.509 C 896.016 273.024 923.331 271.776 947.497 295.505 C 957.712 305.425 964.882 318.057 968.164 331.913 C 972.081 348.924 970.772 395.737 970.759 415.04 L 971.08 548.061 C 1006.9 548.829 1042.73 549.09 1078.55 548.845 C 1079.44 494.499 1078.08 439.827 1078.38 385.455 C 1078.47 369.031 1077.2 349.749 1080.52 333.791 C 1083.23 320.111 1089.71 307.46 1099.23 297.27 C 1114.38 281.163 1136.37 273.837 1158.14 273.864 C 1197.88 273.914 1237.62 274.092 1277.36 273.898 C 1293.46 273.819 1309.27 274.407 1325.3 276.016 C 1438.56 287.689 1544.56 337.281 1626.11 416.75 C 1718.67 507.696 1771.77 631.387 1773.95 761.134 C 1774.34 785.706 1774.09 811.043 1774.13 835.789 C 1773.63 858.475 1776.11 883.601 1772.15 905.765 C 1766.97 934.705 1739.01 961.76 1709.62 965.181 C 1687.97 967.7 1658.81 966.753 1636.01 966.744 L 1498.92 966.752 L 1498.9 1081.1 C 1545.79 1081.7 1593.05 1080.75 1640.02 1081.12 C 1662.89 1083.14 1693.84 1077.46 1715.72 1083.43 C 1765.77 1097.07 1775.3 1137.52 1774.31 1181.68 C 1773.05 1237.49 1776.79 1288.16 1770.28 1342.77 C 1756.5 1451.16 1707.3 1551.96 1630.33 1629.51 C 1548.78 1712.17 1440.71 1763.45 1325.11 1774.35 C 1281.59 1778.4 1225.91 1776.91 1181.58 1776.93 C 1150.21 1777.2 1126.19 1778.26 1101.11 1754.76 C 1091.82 1746.05 1082.25 1728.13 1080.58 1715.78 C 1077.56 1693.41 1078.91 1664.39 1078.92 1641.34 L 1078.63 1500.13 C 1042.72 1499.95 1006.81 1499.97 970.902 1500.21 L 970.696 1638.92 C 970.511 1686.44 979.168 1749.9 923.125 1770.49 C 889.747 1782.76 843.307 1775.04 807.157 1776.83 C 782.519 1778.04 749.528 1777.17 724.856 1774.88 C 609.577 1764.16 501.646 1713.57 419.658 1631.82 C 324.381 1538.17 275.51 1412.69 274.314 1280.1 L 274.246 1211.65 C 274.168 1189.33 272.402 1158.72 276.961 1138.31 C 283.093 1110.86 310.416 1085.26 338.571 1082.45 C 361 1080.21 389.092 1081.15 412.409 1081.16 L 548.974 1081.08 L 549.21 966.591 C 501.919 965.79 454.393 966.83 407.084 966.378 C 388.185 966.421 369.42 966.555 350.516 966.189 C 330.188 965.794 311.956 958.292 297.256 944.127 C 281.12 928.579 273.964 907.455 274.086 885.319 C 274.213 862.378 274.319 839.216 274.418 816.257 C 274.455 777.344 273.666 738.256 278.888 699.567 C 293.015 594.914 341.308 497.918 415.251 423.067 C 497.683 339.438 606.845 287.381 723.715 275.968 C 763.173 272.241 823.535 273.767 865.094 273.509 z" fill="rgb(77,36,204)" transform="translate(0,0)"></path>
<path d="M 1054.12 689.5 L 1205.19 689.498 C 1230.94 689.548 1265.17 688.217 1290.01 692.222 C 1307.01 695.918 1321.21 704.875 1333.29 716.589 C 1362.85 745.251 1361.17 775.67 1361.46 814.004 L 1361.79 874.666 L 1361.77 1081.48 C 1313.35 1081.11 1264.78 1081.73 1216.39 1081.08 L 1219.53 1065.22 C 1236.57 997.787 1250.71 928.515 1267.21 860.852 L 1229.01 821.527 C 1220.22 812.623 1209.05 802.098 1201.38 792.735 L 970.661 822.994 C 970.295 778.662 970.333 734.328 970.773 689.998 L 1054.12 689.5 z" fill="rgb(253,253,252)" transform="translate(0,0)"></path>
<path d="M 686.651 966.903 C 734.096 966.75 784.464 965.811 831.671 966.796 C 817.323 1039.59 796.504 1112.96 781.169 1185.56 C 792.083 1197.86 804.466 1209.07 816.042 1220.78 C 826.72 1231.58 837.002 1242.52 847.779 1253.24 C 872.924 1248.56 910.484 1245.06 936.584 1241.95 C 983.968 1235.95 1031.38 1230.21 1078.83 1224.71 L 1078.66 1279.5 L 1078.4 1356.77 L 804.991 1357 C 768.3 1357.01 742.274 1357.04 713.782 1328.18 C 701.11 1315.49 692.424 1299.37 688.793 1281.81 C 685.676 1266.95 686.297 1246.42 686.306 1230.81 L 686.413 1169.51 L 686.651 966.903 z" fill="rgb(253,253,252)" transform="translate(0,0)"></path>
<path d="M 1222.48 419.904 C 1240.37 419.741 1258.26 419.679 1276.15 419.719 C 1295.28 419.86 1314.22 420.504 1333.18 423.32 C 1407.13 434.77 1475.47 469.638 1528.14 522.801 C 1585.61 580.946 1620.96 657.338 1628.09 738.779 C 1630.49 765.097 1629.74 796.111 1629.42 822.766 L 1498.92 822.926 C 1499.11 760.275 1500.42 715.382 1465.88 659.762 C 1456.37 644.17 1445.11 629.718 1432.31 616.69 C 1394.14 578.029 1343.44 554.235 1289.31 549.576 C 1270.5 548.037 1242.07 548.826 1222.37 548.813 C 1222.07 505.844 1222.11 462.873 1222.48 419.904 z" fill="rgb(253,253,252)" transform="translate(0,0)"></path>
<path d="M 511.379 1224.51 C 523.939 1224.39 536.5 1224.39 549.06 1224.5 C 548.988 1247.62 547.985 1272.85 549.991 1295.81 C 559.081 1399.85 646.221 1488.49 750.357 1498.25 C 775.42 1500.6 801.042 1499.91 826.084 1499.97 L 825.923 1630.02 C 797.569 1630.03 761.663 1631.03 734.243 1628.19 C 654.019 1620.21 579.068 1584.58 522.238 1527.39 C 465.938 1471.99 430.321 1398.96 421.317 1320.48 C 417.98 1289.54 418.883 1256.28 418.862 1224.94 C 449.702 1225.03 480.541 1224.88 511.379 1224.51 z" fill="rgb(253,253,252)" transform="translate(0,0)"></path>
<path d="M 803.199 419.5 L 825.954 419.39 L 825.792 548.569 C 802.33 548.64 773.164 548.007 750.416 550.431 C 698.477 555.964 650.186 581.345 613.648 618.334 C 577.619 654.685 555.122 702.278 549.901 753.192 C 547.993 773.451 548.886 801.818 548.971 822.702 L 441.505 822.843 L 418.87 822.795 C 418.766 792.045 417.885 755.405 421.542 725.393 C 430.892 648.668 466.255 576.646 520.71 521.824 C 572.837 469.346 645.236 432.956 718.531 423.013 C 746.865 419.169 774.765 419.675 803.199 419.5 z" fill="rgb(253,253,252)" transform="translate(0,0)"></path>
<path d="M 1498.92 1224.97 C 1542.5 1224.56 1586.08 1224.47 1629.66 1224.69 C 1630.8 1313.2 1625.25 1386.04 1576.39 1463.47 C 1522.12 1549.48 1445.4 1600.84 1347.03 1623.36 C 1300.52 1631.69 1269.79 1630.11 1222.55 1630.11 L 1222.61 1499.96 C 1240.1 1499.94 1257.6 1499.71 1275.08 1499.73 C 1332.35 1499.79 1390.42 1475.05 1431.05 1434.81 C 1468.51 1398.1 1491.95 1349.44 1497.29 1297.26 C 1499.5 1275.32 1498.87 1247.41 1498.92 1224.97 z" fill="rgb(253,253,252)" transform="translate(0,0)"></path>
<path d="M 773.793 690.411 C 787.42 689.384 811.46 690.52 825.852 690.828 C 826.116 734.751 825.982 778.676 825.448 822.596 L 741.605 822.711 L 687.067 822.657 C 686.765 785.73 682.823 754.175 708.494 723.504 C 725.748 702.89 747.393 692.854 773.793 690.411 z" fill="rgb(253,253,252)" transform="translate(0,0)"></path>
<path d="M 1101.77 951.533 L 1102.33 952.106 C 1101.33 961.108 1094.28 988.301 1091.89 998.438 L 1072.44 1081.4 C 1033.28 1084.61 983.804 1091.96 944.399 1097.34 L 943.978 1096.77 C 942.947 1092.37 969.443 980.815 972.541 967.052 C 1011.96 961.306 1062.11 955.419 1101.77 951.533 z" fill="rgb(253,253,252)" transform="translate(0,0)"></path>
<path d="M 1346.56 1224.5 L 1361.69 1224.51 C 1361.75 1228.34 1361.77 1232.17 1361.77 1236 C 1361.75 1272.33 1360.67 1302.24 1332.76 1329.79 C 1304.15 1358.03 1273.51 1356.85 1236.75 1356.54 L 1222.17 1356.35 L 1222.3 1224.82 L 1346.56 1224.5 z" fill="rgb(253,253,252)" transform="translate(0,0)"></path>
<metadata><recraft-signature>{"signed_by": "recraft", "signature_b64": "b2bggr0+1pnNwCx9VvxRKyF1Z9LLFiM+FFTyYfmzGTU5GQzPHODNQVmGdbQc+MAggN150nozNqZZjAABhijyDQ==", "signing_algo": "Ed25519", "generation_timestamp": 1772776535, "identifier": "0c483a00-d629-42c8-9c4e-6cf476ea282c"}</recraft-signature></metadata></svg>