<svg xmlns="http://www.w3.org/2000/svg" height="1024" preserveAspectRatio="none" style="display: block;" version="1.1" viewBox="0 0 2048 2048" width="1024">
<path d="M 0 0 L 468.138 0 L 1001.54 0 L 1019.31 0 L 1579.61 0 L 2048 0 L 2048 480.102 L 2048 692.163 L 2048 1277 L 2048 1570.58 L 2048 2048 L 1576.78 2048 L 1436 2048 L 606.913 2048 L 471.572 2048 L 0 2048 L 0 1565.5 L 0 1148.46 L 0 1064.04 L 0 479.335 L 0 0 z" fill="rgb(255,255,255)" transform="translate(0,0)"></path>
<path d="M 230.005 788.446 L 230.005 785.788 C 230.084 670.26 267.249 575.477 349.739 493.299 C 415.732 428.272 502.182 388.067 594.432 379.497 C 623.409 376.784 662.858 377.949 692.947 378.045 C 581.846 452.517 525.064 561.607 524.888 694.714 L 523.427 694.844 C 514.27 695.729 499.64 699.263 490.437 701.635 C 426.836 717.992 370.111 754.21 328.509 805.023 C 241.986 910.788 246.175 1070.68 353.03 1161.66 C 357.584 1165.54 362.255 1169.3 366.9 1173.07 C 361.685 1181.92 356.961 1191.05 352.75 1200.42 C 319.734 1274.3 317.287 1358.24 345.943 1433.93 C 374.361 1508.22 433.791 1564.64 505.706 1596.87 C 525.362 1679.6 589.637 1757.65 680.286 1763.59 C 706.679 1765.32 729.903 1744.38 733.205 1718.14 C 734.335 1709.47 732.993 1700.66 729.334 1692.72 C 718.947 1670.59 698.59 1667.55 679.485 1656.74 C 645.737 1637.83 622.164 1604.85 610.242 1568.51 C 606.233 1554.96 606.03 1540.68 604.563 1526.77 C 601.967 1502.14 579.972 1505.26 561.771 1499.97 C 475.477 1474.89 429.226 1388.98 439.867 1302.18 C 446.166 1253.9 471.381 1210.1 509.968 1180.41 C 555.29 1145.21 601.5 1136.99 656.874 1144.04 C 641.847 1237.63 657.53 1330.3 709.749 1410.53 C 756.313 1482.04 825.663 1535.73 906.557 1562.89 C 926.481 1569.65 945.398 1573.75 965.943 1578.06 C 967.462 1609.17 966.531 1644.29 966.711 1675.72 C 966.857 1701.23 967.444 1732.76 965.518 1757.63 C 961.245 1811.63 943.098 1863.6 912.835 1908.51 C 868.722 1973.38 809.242 2013.91 734.259 2035.81 C 719.789 2040.04 700.553 2043.25 685.598 2046.11 C 723.9 2047.43 763.762 2046.91 802.166 2046.91 L 984.692 2046.9 L 1212.61 2046.99 C 1262.39 2047.26 1312.17 2047.06 1361.95 2046.4 C 1345.46 2041.99 1327.71 2039.87 1310.66 2034.81 C 1258.85 2019.43 1213.68 1995.84 1175.24 1957.61 C 1123.63 1906.28 1091.27 1841.08 1084.21 1768.55 C 1082.05 1746.39 1082.82 1717.43 1082.77 1694.7 L 1082.82 1579.32 C 1166.72 1566.35 1246.47 1520.21 1302.6 1456.93 C 1358.98 1393.63 1392.17 1313.03 1396.72 1228.38 C 1397.59 1211.2 1396.6 1195.06 1395.59 1177.94 C 1472.62 1189.49 1546.65 1164.12 1605.64 1115.02 C 1656 1163.94 1654.3 1243.33 1613.83 1296.46 C 1605.6 1307.27 1590.94 1317.03 1585.95 1329.44 C 1582.95 1336.87 1586.19 1352.74 1585.98 1361.73 C 1585.71 1373.78 1584.09 1385.76 1581.14 1397.44 C 1568.62 1445.01 1532.7 1482.9 1485.88 1497.93 C 1473.73 1501.95 1457.91 1503.07 1446.87 1509.94 C 1443.76 1512.82 1442.28 1525.23 1442.12 1529 C 1440.39 1579.08 1413.15 1630.9 1368.61 1655.58 C 1345.45 1668.41 1322.51 1667.03 1315.73 1701.11 C 1312.89 1714.76 1315.65 1728.99 1323.39 1740.6 C 1331.02 1751.76 1342.76 1759.45 1356.04 1761.99 C 1387.22 1768.1 1429.7 1750.72 1454.99 1733.1 C 1503.12 1699.58 1530.34 1651.84 1540.94 1595.03 C 1626.92 1563.97 1697.18 1465.71 1699.17 1374.1 C 1710.67 1358.66 1719.93 1344.85 1728.58 1327.48 C 1779.3 1225.59 1751.31 1104.56 1673.11 1025.16 C 1676.05 1018.09 1678.82 1010.96 1681.41 1003.75 C 1701.46 947.18 1696.23 871.753 1669.33 818.463 C 1636.42 753.256 1588.71 711.223 1520.92 687.072 C 1522.56 544.573 1468.27 466.009 1360.2 378.992 C 1381.3 378.616 1402.41 378.555 1423.51 378.808 C 1651.26 382.469 1822.66 561.06 1818.84 788.685 C 1942.62 831.01 2020.31 923.568 2043.41 1051.94 C 2048.09 1044.85 2044.01 1035.09 2046.8 1024.41 C 2047.58 985.077 2046.89 943.944 2046.84 904.501 L 2046.87 692.462 L 2048 692.163 L 2048 1277 L 2048 1570.58 L 2048 2048 L 1576.78 2048 L 1436 2048 L 606.913 2048 L 471.572 2048 L 0 2048 L 0 1565.5 L 0 1148.46 L 0 1064.04 L 1.36965 1064.28 C 1.52037 1066.67 1.84917 1068.65 2.18922 1071.01 C 2.96178 1069.48 8.41512 1034.71 9.6841 1029.17 C 36.2831 913.044 115.555 825.936 230.005 788.446 z" fill="rgb(5,199,70)" transform="translate(0,0)"></path>
<path d="M 2.29789 1127.96 C 5.48966 1142.79 7.34042 1157.68 10.71 1172.41 C 20.5453 1214.95 38.7158 1255.11 64.1708 1290.58 C 73.0316 1302.8 82.812 1311.92 90.8485 1322.58 C 47.8355 1391.49 30.8083 1474.52 49.5202 1554.13 C 67.8614 1632.57 116.927 1700.36 185.707 1742.29 C 232.441 1770.84 289.344 1786.42 343.755 1788.08 C 348.931 1788.23 354.412 1788.55 359.569 1789.03 C 381.57 1918.53 474.877 2011.39 601.381 2039.95 C 611.816 2042.31 622.82 2043.84 633.375 2045.68 C 623.834 2046.37 616.259 2046.8 606.658 2046.77 L 606.913 2048 L 471.572 2048 L 0 2048 L 0 1565.5 L 0 1148.46 L 1.27732 1148.12 C 1.43662 1141.18 1.4933 1134.86 2.29789 1127.96 z" fill="rgb(255,255,255)" transform="translate(0,0)"></path>
<path d="M 0 1148.46 L 1.27732 1148.12 C 2.4922 1159.84 1.6556 1176.19 1.51623 1188.5 L 1.19856 1252.28 L 1.32489 1440.6 C 1.38231 1512.86 -0.688708 1562.39 10.5087 1634.63 L 9.43279 1637.79 C 7.02904 1624.72 5.17409 1611.56 3.87284 1598.35 C 2.873 1588.28 2.17382 1575.12 0 1565.5 L 0 1148.46 z" fill="rgb(139,139,141)" transform="translate(0,0)"></path>
<path d="M 9.43279 1637.79 L 10.5087 1634.63 C 29.274 1718.76 54.2868 1779.36 107.139 1849.02 C 116.295 1861.09 126.15 1871.76 136.279 1883.01 C 140.323 1887.51 150.165 1897.28 153.079 1901.82 C 151.391 1900.77 149.193 1898.94 147.615 1898.19 C 134.606 1882.83 122.557 1871.65 109.27 1854.41 C 55.629 1784.8 27.9299 1722.61 9.43279 1637.79 z" fill="rgb(139,139,141)" transform="translate(0,0)"></path>
<path d="M 395.872 2034.49 C 426.879 2040.68 455.217 2044.67 486.834 2046.28 C 525.892 2048.28 568.024 2044.34 606.658 2046.77 L 606.913 2048 L 471.572 2048 C 464.755 2046.08 444.456 2044.32 436.538 2043.28 C 421.814 2041.33 409.44 2038.98 394.853 2035.97 L 395.872 2034.49 z" fill="rgb(139,139,141)" transform="translate(0,0)"></path>
<path d="M 394.853 2035.97 C 354.118 2027.83 298.998 2007 263.42 1985.81 L 263.693 1984.81 C 268.904 1985.82 286.026 1995.69 292.077 1998.73 C 325.434 2015.47 359.72 2025.73 395.872 2034.49 L 394.853 2035.97 z" fill="rgb(139,139,141)" transform="translate(0,0)"></path>
<path d="M 185.777 1931.13 C 190.43 1934.7 236.848 1969.59 236.394 1968.42 C 235.214 1970.18 232.738 1968.26 231.371 1967.33 C 220.429 1959.91 209.753 1952.05 199.164 1944.17 C 195.079 1941.14 191.158 1937.8 187.284 1934.53 C 185.414 1932.95 184.873 1932.88 182.925 1930.95 L 185.777 1931.13 z" fill="rgb(179,178,180)" transform="translate(0,0)"></path>
<path d="M 167.469 1914.83 C 171.794 1918.64 176.142 1922.48 180.338 1926.43 L 179.672 1928.25 C 176.425 1926.16 167.736 1917.84 165.102 1914.98 L 167.469 1914.83 z" fill="rgb(179,178,180)" transform="translate(0,0)"></path>
<path d="M 154.455 1903.23 C 159.345 1906.67 163.08 1910.76 167.469 1914.83 L 165.102 1914.98 C 162.74 1912.57 160.477 1910.55 158.001 1908.28 C 156.639 1906.39 155.672 1905.27 154.455 1903.23 z" fill="rgb(115,115,114)" transform="translate(0,0)"></path>
<path d="M 147.615 1898.19 C 149.193 1898.94 151.391 1900.77 153.079 1901.82 C 154.088 1902.29 154.049 1902.19 154.455 1903.23 C 155.672 1905.27 156.639 1906.39 158.001 1908.28 C 156.332 1907.99 148.029 1899.63 147.615 1898.19 z" fill="rgb(179,178,180)" transform="translate(0,0)"></path>
<path d="M 180.338 1926.43 C 182.32 1928.05 183.896 1929.36 185.777 1931.13 L 182.925 1930.95 C 181.672 1929.82 181.033 1929.21 179.672 1928.25 L 180.338 1926.43 z" fill="rgb(139,139,141)" transform="translate(0,0)"></path>
<path d="M 250.15 1977.36 L 252.018 1977.84 C 255.359 1978.58 260.623 1982.09 263.109 1984.55 C 255.641 1982.98 255.63 1982.38 250.15 1977.36 z" fill="rgb(179,178,180)" transform="translate(0,0)"></path>
<path d="M 244 1974 C 247.594 1974.43 247.896 1974.44 250.15 1977.36 C 246.227 1977.6 246.891 1976.89 244 1974 z" fill="rgb(179,178,180)" transform="translate(0,0)"></path>
<path d="M 236.91 1969.35 C 241.428 1970.85 241.676 1970.07 244 1974 C 240.5 1973.32 239.254 1972 236.91 1969.35 z" fill="rgb(179,178,180)" transform="translate(0,0)"></path>
<path d="M 1958.22 1322.09 C 2011.47 1267.76 2034.67 1200.66 2046.16 1127.55 C 2047.6 1145.7 2047.03 1168.3 2047 1186.72 L 2046.74 1277 L 2048 1277 L 2048 1570.58 L 2048 2048 L 1576.78 2048 L 1436 2048 L 1436 2046.69 C 1429.38 2046.83 1421.64 2046.54 1414.93 2046.46 C 1431.11 2042.84 1447.78 2040.56 1463.76 2036.08 C 1582.62 2002.68 1667.45 1910.51 1689.21 1788.71 C 1750.66 1787.63 1792.54 1780.29 1847.58 1750.71 C 1918.86 1712.14 1971.87 1646.8 1994.93 1569.1 C 2021.58 1479.03 2001.4 1401.36 1958.22 1322.09 z" fill="rgb(255,255,255)" transform="translate(0,0)"></path>
<path d="M 2018.27 1712.22 C 2029.87 1676.03 2039.56 1640.56 2043.38 1602.68 C 2044.42 1592.4 2045.38 1580.45 2048 1570.58 L 2048 2048 L 1576.78 2048 C 1585.61 2045.8 1611.99 2043.71 1623.15 2042.28 C 1672.87 2033.14 1706.93 2022.31 1753.2 2002.18 C 1806.78 1975.67 1847.78 1949.24 1891.23 1907.33 C 1898.91 1899.93 1912.99 1887.26 1917.91 1878.09 C 1917.8 1875.79 1925.89 1867.52 1927.92 1865.15 C 1967.14 1819.39 1995.11 1768.06 2016.53 1711.85 L 2018.27 1712.22 z" fill="rgb(255,255,255)" transform="translate(0,0)"></path>
<path d="M 2016.53 1711.85 L 2018.27 1712.22 C 1998.96 1765.14 1971.1 1814.54 1935.8 1858.44 C 1932.65 1862.41 1922.25 1876.52 1917.91 1878.09 C 1917.8 1875.79 1925.89 1867.52 1927.92 1865.15 C 1967.14 1819.39 1995.11 1768.06 2016.53 1711.85 z" fill="rgb(139,139,141)" transform="translate(0,0)"></path>
<path d="M 2046.74 1277 L 2048 1277 L 2048 1570.58 C 2045.38 1580.45 2044.42 1592.4 2043.38 1602.68 C 2039.56 1640.56 2029.87 1676.03 2018.27 1712.22 L 2016.53 1711.85 C 2048.52 1613.62 2046.61 1552.23 2046.6 1450.68 L 2046.74 1277 z" fill="rgb(139,139,141)" transform="translate(0,0)"></path>
<path d="M 1752.74 2000.38 C 1753.88 1999.25 1786.9 1982.33 1791.3 1979.84 C 1804.62 1972.19 1817.59 1963.96 1830.18 1955.17 C 1852.22 1939.2 1873.15 1921.74 1892.81 1902.91 C 1899.99 1896.12 1911.4 1882.87 1917.91 1878.09 C 1912.99 1887.26 1898.91 1899.93 1891.23 1907.33 C 1847.78 1949.24 1806.78 1975.67 1753.2 2002.18 L 1752.74 2000.38 z" fill="rgb(179,178,180)" transform="translate(0,0)"></path>
<path d="M 1622.53 2040.51 L 1623.15 2042.28 C 1611.99 2043.71 1585.61 2045.8 1576.78 2048 L 1436 2048 L 1436 2046.69 C 1478.66 2045.45 1523.57 2047.91 1566.42 2046.2 C 1584.37 2045.48 1604.68 2042.85 1622.53 2040.51 z" fill="rgb(139,139,141)" transform="translate(0,0)"></path>
<path d="M 1752.74 2000.38 L 1753.2 2002.18 C 1706.93 2022.31 1672.87 2033.14 1623.15 2042.28 L 1622.53 2040.51 C 1631.27 2038 1651.66 2034.84 1662.62 2032.13 C 1693.59 2024.4 1723.76 2013.76 1752.74 2000.38 z" fill="rgb(139,139,141)" transform="translate(0,0)"></path>
<path d="M 2043.41 1051.94 C 2048.09 1044.85 2044.01 1035.09 2046.8 1024.41 C 2047.05 1032.97 2047.36 1066.03 2046.05 1072.85 C 2045.19 1066.06 2043.96 1058.64 2043.41 1051.94 z" fill="rgb(233,255,246)" transform="translate(0,0)"></path>
<path d="M 0 0 L 468.138 0 L 466.872 0.247777 C 454.451 2.57889 441.313 3.04975 428.776 5.02716 C 397.711 9.9265 363.909 17.508 334.579 29.005 C 209.969 73.6376 109.647 166.694 50.6889 285.703 C 43.2783 300.662 29.3194 331.99 25.2643 348.248 C 16.5697 376.044 9.91858 404.438 5.3641 433.204 C 3.30054 447.061 2.9642 467.051 0 479.335 L 0 0 z" fill="rgb(255,255,255)" transform="translate(0,0)"></path>
<path d="M 1311.03 1.85109 L 1325.56 2.21376 C 1335.45 6.74761 1343.05 12.3199 1347.98 22.4354 C 1351.67 30.0249 1353.39 40.5999 1350.04 48.6269 C 1348.02 53.4462 1343.77 58.3073 1340.12 62.0315 C 1328.85 73.5422 1251.8 140.473 1241.14 144.288 C 1233.18 147.135 1222.41 145.458 1215.07 141.592 C 1206.44 137.002 1200.16 128.987 1197.75 119.517 C 1195.37 110.502 1196.63 100.299 1201.38 92.2527 C 1207.73 81.4873 1283.13 18.5851 1296.34 9.27473 C 1301.01 5.9793 1305.48 3.44779 1311.03 1.85109 z" fill="rgb(5,199,70)" transform="translate(0,0)"></path>
<path d="M 1001.54 0 L 1019.31 0 C 1020.69 0.890858 1035.18 1.49802 1037.27 1.37614 C 1041.36 4.86992 1045.34 6.78259 1048.43 11.2435 C 1075.68 50.5528 1021.23 88.0421 994.186 49.4075 C 988.519 41.3106 989.617 29.716 991.283 20.5698 C 993.311 9.43313 1006.21 6.09154 1009.05 2.44381 L 1008.96 2.14845 C 1007.57 0.967217 1003.84 1.29812 1001.91 1.27113 L 1001.54 0 z" fill="rgb(5,199,70)" transform="translate(0,0)"></path>
<path d="M 25.2643 348.248 L 26.586 350.613 C 15.3941 378.198 5.94238 435.256 3.67648 465.425 C 2.91162 466.398 3.0764 466.375 3.11279 467.805 C -0.288233 528.799 1.18061 592.827 1.18244 654.323 L 1.21265 946.415 C 1.24172 984.062 2.74021 1027.19 1.36965 1064.28 L 0 1064.04 L 0 479.335 C 2.9642 467.051 3.30054 447.061 5.3641 433.204 C 9.91858 404.438 16.5697 376.044 25.2643 348.248 z" fill="rgb(139,139,141)" transform="translate(0,0)"></path>
<path d="M 1019.31 0 L 1579.61 0 C 1593.32 3.34753 1610.25 3.24813 1624.51 5.72591 C 1656.76 11.3295 1687.55 19.7107 1718.32 30.6906 L 1715.45 31.5538 C 1682.49 18.718 1628.97 6.28764 1593.89 3.65582 C 1592.69 2.96445 1592.76 3.05405 1591.32 3.1802 C 1527.77 -0.209349 1464.77 1.4544 1401.05 1.13717 C 1389.81 1.08119 1333.48 0.510983 1325.56 2.21376 L 1311.03 1.85109 C 1303.92 0.962564 1288.12 1.2332 1280.36 1.21456 L 1223.61 1.17047 L 1037.27 1.37614 C 1035.18 1.49802 1020.69 0.890858 1019.31 0 z" fill="rgb(139,139,141)" transform="translate(0,0)"></path>
<path d="M 468.138 0 L 1001.54 0 L 1001.91 1.27113 L 717.339 1.42054 L 574.5 1.16019 C 481.929 1.16411 425.109 -1.4971 335.251 30.3656 L 334.579 29.005 C 363.909 17.508 397.711 9.9265 428.776 5.02716 C 441.313 3.04975 454.451 2.57889 466.872 0.247777 L 468.138 0 z" fill="rgb(139,139,141)" transform="translate(0,0)"></path>
<path d="M 25.2643 348.248 C 29.3194 331.99 43.2783 300.662 50.6889 285.703 C 109.647 166.694 209.969 73.6376 334.579 29.005 L 335.251 30.3656 C 304.563 42.4958 282.449 52.1268 253.544 68.9322 C 158.549 125.037 84.0127 210.083 40.8494 311.615 C 36.705 321.169 28.6146 341.019 26.586 350.613 L 25.2643 348.248 z" fill="rgb(179,178,180)" transform="translate(0,0)"></path>
<path d="M 1921.29 171.526 C 1979.84 238.118 2020.1 318.764 2038.15 405.58 C 2040.42 416.793 2045.2 444.573 2045.16 455.51 L 2043.81 455.926 C 2043.07 452.56 2041.9 441.087 2041.36 437.154 C 2039.59 423.289 2037.21 409.508 2034.23 395.851 C 2015.27 311.383 1976.55 238.665 1920.52 173.326 L 1921.29 171.526 z" fill="rgb(139,139,141)" transform="translate(0,0)"></path>
<path d="M 2043.81 455.926 L 2045.16 455.51 C 2046.83 464.008 2046.05 472.187 2048 480.102 L 2048 692.163 L 2046.87 692.462 C 2045.43 674.89 2046.35 635.372 2046.53 616.35 C 2047.03 564.624 2046.53 517.339 2044.79 465.873 C 2044.11 464.716 2044.21 464.736 2044.3 463.358 L 2043.81 455.926 z" fill="rgb(139,139,141)" transform="translate(0,0)"></path>
<path d="M 2044.3 463.358 C 2045.06 464.399 2044.88 464.379 2044.79 465.873 C 2044.11 464.716 2044.21 464.736 2044.3 463.358 z" fill="rgb(179,178,180)" transform="translate(0,0)"></path>
<path d="M 1718.32 30.6906 C 1746.75 41.3941 1773.76 54.7837 1799.82 70.2307 C 1801.43 71.1858 1809.44 75.2421 1808.98 76.9719 L 1808.39 77.2807 C 1809.04 77.3568 1766.36 54.166 1762.22 52.0822 C 1748.74 45.1493 1734.89 38.9834 1720.72 33.614 C 1718.95 32.9541 1717.19 32.2729 1715.45 31.5538 L 1718.32 30.6906 z" fill="rgb(179,178,180)" transform="translate(0,0)"></path>
<path d="M 1861.26 113.556 C 1873.35 121.436 1912.95 159.455 1921.29 171.526 L 1920.52 173.326 C 1915.74 169.504 1903.88 155.399 1898.8 149.807 C 1886.54 136.291 1871.73 126.031 1858.94 114.046 L 1861.26 113.556 z" fill="rgb(179,178,180)" transform="translate(0,0)"></path>
<path d="M 1849.63 106.661 C 1847.17 104.981 1830.46 93.1834 1829.79 91.5113 C 1830.61 88.9613 1849.72 104.133 1851.51 105.644 L 1849.63 106.661 z" fill="rgb(179,178,180)" transform="translate(0,0)"></path>
<path d="M 1851.51 105.644 L 1852.36 106.445 C 1853.4 107.491 1854.79 108.047 1856.16 109.321 L 1856.15 111.421 C 1853.77 110.072 1851.48 108.665 1849.63 106.661 L 1851.51 105.644 z" fill="rgb(179,178,180)" transform="translate(0,0)"></path>
<path d="M 1856.16 109.321 C 1857.89 110.749 1859.57 112.072 1861.26 113.556 L 1858.94 114.046 C 1858.08 113.213 1857.08 112.185 1856.15 111.421 L 1856.16 109.321 z" fill="rgb(115,115,114)" transform="translate(0,0)"></path>
<path d="M 1591.32 3.1802 C 1592.76 3.05405 1592.69 2.96445 1593.89 3.65582 C 1592.37 3.75616 1592.4 3.93091 1591.32 3.1802 z" fill="rgb(179,178,180)" transform="translate(0,0)"></path>
<path d="M 3.67648 465.425 C 3.78284 466.814 3.89124 466.757 3.11279 467.805 C 3.0764 466.375 2.91162 466.398 3.67648 465.425 z" fill="rgb(179,178,180)" transform="translate(0,0)"></path>
<path d="M 1011.52 953.184 C 1154.72 946.248 1276.42 1056.73 1283.32 1199.93 C 1290.22 1343.13 1179.71 1464.8 1036.51 1471.67 C 893.354 1478.53 771.731 1368.07 764.832 1224.92 C 757.932 1081.77 868.368 960.118 1011.52 953.184 z" fill="rgb(5,199,70)" transform="translate(0,0)"></path>
<path d="M 834.535 443.372 C 837.602 442.872 848.53 442.673 851.847 442.692 C 882.373 442.864 911.573 455.187 932.993 476.937 C 958.23 502.51 966.93 530.157 966.787 565.489 C 966.685 590.628 966.875 615.964 966.882 641.117 L 966.413 844.572 C 952.557 847.388 940.319 849.102 926.483 852.906 C 823.008 881.351 746.258 945.165 692.931 1036.84 C 689.667 1035.67 686.364 1034.61 683.029 1033.67 C 625.553 1017.01 558.209 1026.23 505.977 1054.94 C 490.616 1064.12 475.29 1073.72 457.116 1075.79 C 441.691 1077.55 426.607 1073.93 414.464 1063.98 C 393.979 1047.2 383.393 1017.71 380.963 992.047 C 376.874 948.863 393.113 906.176 420.545 873.164 C 452.5 834.711 503.823 806.786 554.264 804.853 C 574.999 804.059 597.18 806.943 617.66 804.512 C 625.055 803.634 632.468 799.564 635.438 792.42 C 642.474 775.503 638.609 694.843 639.026 670.812 C 639.263 657.792 640.393 644.803 642.409 631.938 C 658.087 537.16 737.971 454.632 834.535 443.372 z" fill="rgb(5,199,70)" transform="translate(0,0)"></path>
<path d="M 1187.63 443.348 C 1189.23 443.12 1188.39 443.201 1190.04 443.129 C 1246.68 440.646 1294.25 462.872 1335.23 501.101 C 1384.67 547.232 1409.8 606.246 1412.2 673.469 C 1406.85 674.267 1401.52 675.16 1396.2 676.148 C 1322.87 690.104 1268.42 728.223 1226.76 789.265 C 1207.79 819.906 1200.68 837.74 1192.41 872.588 C 1150.08 856.845 1127.45 849.607 1083.05 843.601 L 1082.91 637.488 L 1082.9 581.149 C 1082.9 566.56 1082.26 549.128 1084.8 535.029 C 1088.12 517.264 1095.62 500.545 1106.68 486.252 C 1126.98 459.834 1155.28 447.765 1187.63 443.348 z" fill="rgb(5,199,70)" transform="translate(0,0)"></path>
<path d="M 1010.51 112.427 C 1011.71 112.353 1012.9 112.291 1014.1 112.239 C 1131.67 107.157 1227.51 190.157 1234.2 308.064 C 1234.48 313.053 1234.7 318.031 1234.89 323.026 L 1038.5 323.633 L 815.041 323.299 C 811.689 207.712 896.292 120.013 1010.51 112.427 z" fill="rgb(5,199,70)" transform="translate(0,0)"></path>
<path d="M 1431.7 784.151 C 1509.28 779.743 1575.8 838.933 1580.44 916.498 C 1585.08 994.063 1526.09 1060.76 1448.53 1065.63 C 1370.66 1070.52 1303.62 1011.22 1298.96 933.332 C 1294.3 855.44 1353.8 788.578 1431.7 784.151 z" fill="rgb(5,199,70)" transform="translate(0,0)"></path>
<path d="M 1433.79 863.905 C 1467.91 860.663 1498.2 885.697 1501.44 919.817 C 1504.68 953.938 1479.64 984.221 1445.52 987.454 C 1411.4 990.686 1381.13 965.654 1377.89 931.54 C 1374.65 897.426 1399.68 867.146 1433.79 863.905 z" fill="rgb(255,255,255)" transform="translate(0,0)"></path>
<path d="M 729.137 2.12237 C 735.068 1.63372 741.246 2.96497 745.998 6.42022 C 776.218 28.3925 804.699 54.9746 833.489 78.445 C 862.375 101.994 856.776 135.708 821.749 145.049 C 814.707 145.245 805.722 145.234 800.046 140.974 C 785.314 129.918 770.634 116.59 756.497 104.61 L 722.51 75.6599 C 703.949 59.7602 685.611 46.537 703.377 17.4947 C 708.917 8.43907 718.811 3.99424 729.137 2.12237 z" fill="rgb(5,199,70)" transform="translate(0,0)"></path>
<metadata><recraft-signature>{"signed_by": "recraft", "signature_b64": "5b0xvEa7BxaPatfIoaV73Vs/xV5cI9ehGWVuaHFaX/UJkhigjI/FRTg8I8MK7JTkuZTi4FZiUg6t8777EAEXAw==", "signing_algo": "Ed25519", "generation_timestamp": 1772776970, "identifier": "a5e99d80-0acc-4386-9d20-6cacea0b15e1"}</recraft-signature></metadata></svg>