<svg xmlns="http://www.w3.org/2000/svg" height="1024" preserveAspectRatio="none" style="display: block;" version="1.1" viewBox="0 0 2048 2048" width="1024">
<path d="M 0 0 L 2048 0 L 2048 2048 L 0 2048 L 0 0 z" fill="rgb(255,255,255)" transform="translate(0,0)"></path>
<path d="M 247.104 997.557 C 248.755 992.749 249.044 950.747 249.293 943.576 C 250.116 924.213 251.224 904.863 252.617 885.533 C 256.387 837.929 263.978 786.315 271.945 738.993 C 290.474 628.925 318.301 509.259 395.546 424.282 C 412.031 406.148 439.607 381.894 459.695 368.526 C 591.583 280.757 800.546 252.7 957.779 247.587 C 1155.62 241.154 1478.17 262.42 1631.44 401.709 C 1737.27 497.894 1772.01 672.356 1788.65 807.599 C 1795.99 866.684 1800.83 926.053 1803.15 985.547 C 1805.51 1000.08 1803.55 1056.18 1802.92 1073.4 C 1797.99 1207.74 1783.43 1351.34 1737.82 1478.23 C 1733.11 1491.33 1719.46 1524.86 1711.96 1536.14 C 1691.83 1583.4 1653.36 1628.42 1613.34 1659.7 C 1608.11 1663.78 1601.98 1668.17 1597.07 1672.42 C 1558.35 1701.01 1495.41 1726.92 1449.85 1741.71 C 1436.34 1746.09 1417.6 1752.51 1403.76 1755.22 C 1391.21 1757.32 1367.41 1764.13 1354.02 1767.27 C 1325.05 1773.95 1295.86 1779.6 1266.5 1784.24 C 1071.63 1813.67 835.57 1807.79 645.016 1754.99 C 588.422 1741.95 499.132 1707.45 452.055 1672.78 C 409.745 1642.37 380.153 1613.43 352.653 1568.24 C 346.76 1558.56 338.921 1545.93 334.916 1535.52 C 331.291 1529.03 323.974 1512.56 321.04 1505.36 C 266.223 1370.94 252.308 1212.78 246.771 1068.55 C 245.954 1047.28 245.758 1017.98 247.104 997.557 z" fill="rgb(0,0,0)" transform="translate(0,0)"></path>
<path d="M 452.055 1672.78 C 453.947 1667.73 454.384 1645.88 455.071 1638.71 C 456.302 1625.61 458.285 1612.59 461.01 1599.71 C 480.63 1506.03 542.885 1427.05 627.599 1383.71 C 674.754 1359.58 732.341 1341.64 784.942 1335.91 C 840.805 1402.35 910.565 1457.81 1000.66 1466.62 C 1079.51 1474.34 1149.17 1443.78 1208.3 1393.67 C 1233.76 1372.09 1242.67 1359.41 1264.23 1336.04 C 1363.05 1346.49 1465.71 1391.52 1528.68 1470.38 C 1578.44 1532.68 1593.22 1594.99 1597.07 1672.42 C 1558.35 1701.01 1495.41 1726.92 1449.85 1741.71 C 1436.34 1746.09 1417.6 1752.51 1403.76 1755.22 C 1391.21 1757.32 1367.41 1764.13 1354.02 1767.27 C 1325.05 1773.95 1295.86 1779.6 1266.5 1784.24 C 1071.63 1813.67 835.57 1807.79 645.016 1754.99 C 588.422 1741.95 499.132 1707.45 452.055 1672.78 z" fill="rgb(83,212,140)" transform="translate(0,0)"></path>
<path d="M 645.016 1754.99 C 650.028 1742.65 654.844 1730.23 661.433 1718.62 C 682.695 1681.16 718.293 1654.22 757.546 1637.8 C 877.069 1587.79 1167.76 1586.49 1288.78 1636.46 C 1339.21 1657.28 1376.65 1689.77 1397.77 1740.55 C 1399.79 1745.42 1401.58 1750.44 1403.76 1755.22 C 1391.21 1757.32 1367.41 1764.13 1354.02 1767.27 C 1325.05 1773.95 1295.86 1779.6 1266.5 1784.24 C 1071.63 1813.67 835.57 1807.79 645.016 1754.99 z" fill="rgb(0,0,0)" transform="translate(0,0)"></path>
<path d="M 1803.15 985.547 C 1805.51 1000.08 1803.55 1056.18 1802.92 1073.4 C 1797.99 1207.74 1783.43 1351.34 1737.82 1478.23 C 1733.11 1491.33 1719.46 1524.86 1711.96 1536.14 C 1706.8 1517.4 1683.57 1467.12 1673.41 1449.76 C 1628.13 1372.12 1559.43 1310.82 1477.16 1274.62 C 1431.03 1254.34 1392.43 1243.96 1344.45 1231.35 C 1387.42 1217.52 1431.26 1203.96 1474.17 1186.29 C 1590.27 1138.5 1702.11 1073.64 1801.88 997.402 C 1803.74 995.975 1803.18 988.002 1803.15 985.547 z" fill="rgb(83,212,140)" transform="translate(0,0)"></path>
<path d="M 247.104 997.557 C 271.51 1013.67 295.163 1032.28 319.937 1048.85 C 442.909 1131.12 563.511 1190.33 705.704 1231.02 C 668.857 1242.63 636.974 1249.09 599.224 1263.22 C 496.843 1300.57 412.266 1375.09 362.309 1471.94 C 351.465 1492.8 343.012 1513.48 334.916 1535.52 C 331.291 1529.03 323.974 1512.56 321.04 1505.36 C 266.223 1370.94 252.308 1212.78 246.771 1068.55 C 245.954 1047.28 245.758 1017.98 247.104 997.557 z" fill="rgb(83,212,140)" transform="translate(0,0)"></path>
<path d="M 1022.81 404.952 C 1039.13 404.605 1464.7 609.391 1513.87 632.698 C 1490.32 644.389 1465.36 654.563 1441.42 665.675 C 1378.2 695.147 1314.82 724.286 1251.29 753.093 C 1176.75 786.982 1101.18 824.11 1026.12 856.297 C 946.434 820.964 867.082 784.883 788.075 748.058 L 570.291 647.478 L 569.798 827.341 C 582.767 833.661 591.676 841.861 597.128 855.648 C 602.598 869.689 602.045 885.363 595.599 898.983 C 590.216 910.648 580.307 919.61 568.162 923.798 C 559.576 926.817 550.888 927.373 541.925 926.242 C 487.592 919.39 479.357 841.417 533.86 826.368 C 533.452 761.33 533.553 696.291 534.163 631.255 C 585.12 608.791 637.02 583.139 687.669 559.442 C 798.967 507.046 910.686 455.548 1022.81 404.952 z" fill="rgb(83,212,140)" transform="translate(0,0)"></path>
<path d="M 736.937 971.576 C 758.076 984.815 779.952 999.56 802.607 1009.81 C 831.57 1022.91 864.22 1034.84 895.115 1042.28 C 1014.19 1071.11 1139.51 1059.03 1250.88 1007.98 C 1273.4 997.494 1292.13 986.126 1313.29 973.144 C 1307.83 1058.98 1288.46 1124.6 1244.89 1197.81 C 1228.24 1226.29 1209.34 1248.14 1186.36 1271.48 C 1142.44 1316.1 1087.53 1347.79 1023.55 1347.99 C 959.674 1348.19 901.932 1312.83 858.685 1268.44 C 797.736 1205.89 755.874 1122.27 743.364 1035.71 C 740.267 1014.28 736.769 993.481 736.937 971.576 z" fill="rgb(83,212,140)" transform="translate(0,0)"></path>
<path d="M 1025.58 912.323 C 1034.51 908.99 1048.33 902.201 1057.25 898.097 L 1115.11 871.399 C 1180.6 841.1 1248.91 808.514 1314.85 779.691 L 1314.81 872.5 L 1314.64 902.955 C 1252.91 960.047 1163 991.05 1080.2 1000.22 C 981.983 1011.1 875.257 992.547 789.213 942.825 C 769.472 931.417 752.704 918.079 735.008 903.764 C 735.034 863.934 734.164 819.221 736.201 779.659 C 802.561 809.128 868.576 839.368 934.232 870.375 C 951.831 878.531 969.502 886.529 987.243 894.37 C 999.12 899.618 1014.58 905.871 1025.58 912.323 z" fill="rgb(83,212,140)" transform="translate(0,0)"></path>
<metadata><recraft-signature>{"signed_by": "recraft", "signature_b64": "wwdl4awAUI3MizE7r4zn3bos+9I6Rz2OhBf1Ml5PP2z1zcW6gJ0Eg9ZpZh763H4f62aeXzHn/h3bv+RoCNG+CQ==", "signing_algo": "Ed25519", "generation_timestamp": 1772776928, "identifier": "7a90f27d-fbed-45e8-a189-b214a8eeb976"}</recraft-signature></metadata></svg>