<svg xmlns="http://www.w3.org/2000/svg" height="1024" preserveAspectRatio="none" style="display: block;" version="1.1" viewBox="0 0 2048 2048" width="1024">
<path d="M 0 0 L 2048 0 L 2048 2048 L 0 2048 L 0 0 z" fill="rgb(255,255,255)" transform="translate(0,0)"></path>
<path d="M 990.677 270.418 C 1002.07 269.049 1027.61 269.432 1039.48 269.749 C 1133.32 272.451 1224.92 299.066 1305.61 347.073 C 1419.76 415.592 1507.26 520.867 1553.73 645.635 C 1563.79 672.339 1571.13 700.053 1578.16 727.677 C 1614.88 724.575 1648.33 733.502 1677.87 755.876 C 1706.62 777.411 1725.34 809.735 1729.72 845.386 C 1731.88 862.093 1731.33 897.791 1731.08 915.779 C 1730.31 969.904 1738.99 1018.55 1702.59 1063.87 C 1675.28 1097.87 1645.49 1111.39 1603.21 1116.43 C 1589.34 1173.15 1567.42 1230.8 1538.87 1281.78 C 1534.11 1290.28 1529.35 1299.55 1523.29 1307.17 C 1517.5 1314.44 1455.78 1351.55 1442.58 1360.58 C 1409.61 1383.09 1377.24 1406.49 1345.53 1430.76 C 1233.74 1516.79 1131.86 1614.99 1041.76 1723.53 C 1035.81 1730.64 1029.97 1737.85 1024.24 1745.15 C 934.605 1630.04 807.029 1507.64 690.426 1420.32 C 657.785 1395.92 624.497 1372.39 590.597 1349.77 C 576.787 1340.46 533.917 1316.68 526.21 1307.41 C 519.433 1299.27 514.441 1289.03 509.403 1279.73 C 481.587 1228.38 461.094 1172.25 444.974 1116.23 C 409.886 1113.1 377.187 1097.13 353.139 1071.38 C 313.341 1028.68 318.249 983.405 318.223 929.744 C 318.194 868.38 310.139 810.379 361.205 764.272 C 393.383 735.219 427.628 726.089 470.418 728.249 C 497.469 627.265 535.588 546.444 603.72 465.906 C 701.722 352.063 840.89 281.756 990.677 270.418 z" fill="rgb(43,51,216)" transform="translate(0,0)"></path>
<path d="M 1006.66 431.435 C 1137.6 425.726 1271.34 480.69 1369.51 565.704 C 1473.27 656.752 1536.41 785.432 1544.94 923.21 C 1554.94 1063.15 1502.21 1206.3 1410.58 1311.6 C 1317.68 1417.96 1186.18 1482.86 1045.25 1491.9 C 912.204 1495.74 782.79 1448.19 683.885 1359.12 C 576.465 1263.85 511.3 1129.8 502.732 986.482 C 494.53 847.877 542.379 711.792 635.522 608.821 C 731.359 503.543 864.544 439.887 1006.66 431.435 z" fill="rgb(255,255,255)" transform="translate(0,0)"></path>
<path d="M 1015.52 514.429 C 1034.73 514.045 1053.14 515.055 1072.14 516.576 C 1099.33 518.752 1099.68 528.029 1105.57 550.769 C 1110.5 569.83 1115.4 591.52 1121.85 610.016 C 1154.12 618.996 1170.81 627.562 1199.68 643.374 C 1221.66 630.022 1250.48 610.301 1272.19 598.893 C 1275.42 599.538 1278.78 600.156 1281.73 601.666 C 1302.61 612.347 1373.57 679.694 1380.02 701.387 C 1380.83 704.115 1380.92 706.678 1380.06 709.403 C 1377.05 718.953 1371.02 728.235 1366.25 736.995 C 1357.4 752.891 1348.7 768.864 1340.13 784.914 C 1356.53 814.202 1363.09 830.385 1373.51 862.285 C 1396.74 871.371 1421.37 877.381 1444.31 886.968 C 1450.11 889.394 1453.96 891.663 1456.21 897.726 C 1462.74 915.298 1463.11 1006.55 1454.86 1023.3 C 1452.6 1027.89 1448.76 1030.45 1444.32 1032.81 C 1427.47 1041.75 1392.67 1050.86 1373.09 1057.81 C 1365.82 1089.12 1353.99 1112.25 1339.42 1140.2 C 1347.19 1155.43 1357.28 1170.34 1366.33 1184.89 C 1370.81 1192.1 1376.38 1199.71 1379.32 1207.69 C 1381.15 1212.68 1380.61 1216.34 1378.4 1221.12 C 1368.63 1242.29 1300.66 1313.82 1278.59 1320.15 C 1274.42 1321.35 1269.78 1320.26 1265.82 1318.74 C 1249.18 1312.35 1217.39 1289.97 1200.28 1279.71 C 1172.58 1294.78 1152.76 1302.5 1122.81 1311.99 C 1113.43 1335.92 1108.59 1377.02 1095.7 1396.98 C 1090.55 1404.96 1049.33 1405.01 1037.75 1405.41 C 1022.13 1405.86 969.035 1405.82 957.644 1398.62 C 949.206 1393.28 929.453 1322.7 926.583 1311.29 C 896.653 1301.26 878.482 1295.48 850.937 1278.7 C 828.677 1290.84 808.202 1307.78 785.366 1318.57 C 780.102 1321.06 776.3 1321.54 770.826 1319.37 C 748.128 1310.38 679.014 1240.54 670.576 1218.87 C 669.316 1215.64 668.781 1212.62 669.647 1209.21 C 673.696 1193.27 699.428 1155.71 707.753 1136.41 L 708.36 1134.98 C 692.347 1105.05 685.577 1089.66 676.461 1056.54 C 655.831 1048.5 634.219 1042.94 613.362 1035.51 C 606.298 1032.99 599.427 1030.6 596.242 1023.31 C 587.911 1004.25 587.158 915.243 595.11 896.057 C 596.458 892.804 598.207 890.744 601.205 888.894 C 609.607 883.709 620.364 880.999 629.671 877.822 C 645.349 872.47 661.084 867.315 676.504 861.243 C 687.368 827.762 694.189 813.692 710.164 782.479 C 700.912 767.092 674.063 724.153 669.416 709.6 C 667.791 704.511 668.885 700.915 671.372 696.345 C 683.995 673.148 747.256 607.09 772.703 600.013 C 776.734 598.892 780.167 599.578 784.016 601.017 C 800.955 607.351 834.871 629.916 852.245 640.261 C 878.226 626.377 897.92 618.757 926.009 610.632 C 931.634 594.635 948.12 530.322 955.93 522.269 C 963.406 514.56 1003.85 514.956 1015.52 514.429 z" fill="rgb(43,51,216)" transform="translate(0,0)"></path>
<path d="M 1008.45 739.436 C 1130.85 730.258 1237.5 822.061 1246.64 944.461 C 1255.78 1066.86 1163.94 1173.48 1041.54 1182.58 C 919.191 1191.67 812.63 1099.89 803.496 977.543 C 794.363 855.201 886.115 748.609 1008.45 739.436 z" fill="rgb(255,255,255)" transform="translate(0,0)"></path>
<path d="M 1010.07 812.269 C 1092.39 804.042 1165.78 864.16 1173.92 946.494 C 1182.06 1028.83 1121.86 1102.15 1039.52 1110.2 C 957.3 1118.24 884.113 1058.15 875.986 975.944 C 867.86 893.735 927.867 820.484 1010.07 812.269 z" fill="rgb(43,51,216)" transform="translate(0,0)"></path>
<path d="M 1019.58 875.334 C 1066.84 872.237 1107.69 907.957 1110.94 955.206 C 1114.18 1002.46 1078.59 1043.42 1031.35 1046.81 C 983.901 1050.22 942.713 1014.43 939.456 966.977 C 936.198 919.52 972.11 878.444 1019.58 875.334 z" fill="rgb(255,255,255)" transform="translate(0,0)"></path>
<path d="M 1772.04 1266.94 L 1773.47 1267 C 1773.85 1267.46 1774.24 1267.92 1774.63 1268.38 C 1774.08 1298.11 1774.37 1343.76 1774.76 1371.99 C 1740.95 1385.55 1694.44 1411.69 1662.23 1430.29 C 1534.67 1502.94 1416.23 1590.55 1309.42 1691.25 C 1279.65 1719.52 1252.31 1746.15 1225.89 1777.59 C 1185.17 1778.71 1140.83 1777.87 1099.75 1777.93 C 1097.76 1777.91 1098.84 1778.08 1096.56 1777.15 C 1097.87 1771.01 1163.78 1698.33 1172.25 1689.38 C 1303.03 1550.36 1454.6 1432.47 1621.54 1339.94 C 1670.16 1312.53 1720.42 1288.15 1772.04 1266.94 z" fill="rgb(43,51,216)" transform="translate(0,0)"></path>
<path d="M 274.214 1265.91 C 296.973 1273.24 343.625 1295.81 365.198 1306.69 C 476.055 1362.63 580.864 1429.83 677.974 1507.21 C 768.145 1579.17 851.572 1659.19 927.219 1746.29 C 931.19 1750.88 950.993 1773.78 951.438 1777.78 C 908.666 1777.28 865.889 1777.31 823.117 1777.88 C 696.356 1634.62 521.886 1502.5 353.441 1411.87 C 328.011 1398.19 300.858 1383.31 274.5 1371.89 C 272.558 1344.28 274.13 1295.3 274.214 1265.91 z" fill="rgb(43,51,216)" transform="translate(0,0)"></path>
<path d="M 274.54 747.038 C 274.311 709.859 272.424 662.324 276.349 626.303 C 285.942 538.285 328.221 452.692 390.217 389.954 C 463.68 314.842 564.409 272.651 669.473 272.986 C 687.48 272.911 705.724 273.262 723.678 273.06 C 705.613 283.571 689.269 292.825 671.891 304.693 C 571.524 373.238 492.078 468.214 442.343 579.112 C 430.509 605.194 421.876 629.158 412.485 656.279 C 358.433 667.895 313.159 696.137 282.831 742.792 C 280.885 745.776 279.087 748.853 277.444 752.013 C 273.701 763.07 274.424 749.397 274.54 747.038 z" fill="rgb(43,51,216)" transform="translate(0,0)"></path>
<path d="M 277.444 752.013 C 273.701 763.07 274.424 749.397 274.54 747.038 C 275.503 749.665 275.454 750.102 277.444 752.013 z" fill="rgb(53,60,203)" transform="translate(0,0)"></path>
<path d="M 1327.03 273.021 C 1346.57 273.315 1366.34 272.666 1385.88 272.989 C 1494.74 274.79 1588.17 317.223 1663.87 394.016 C 1726.43 458.505 1764.95 542.513 1773 631.995 C 1775.15 653.894 1774.87 674.276 1774.69 696.288 C 1774.74 704.641 1775.39 749.593 1774.42 755.863 C 1772.42 754.027 1772.56 753.749 1771.5 751.182 C 1735.7 698.11 1701.2 670.938 1637.46 656.287 C 1629.57 633.229 1621.03 607.175 1611.34 585.12 C 1571 493.388 1511.89 413.3 1435.17 348.672 C 1404.78 323.068 1362.27 290.944 1327.03 273.021 z" fill="rgb(43,51,216)" transform="translate(0,0)"></path>
<path d="M 1763.72 1462.02 L 1764.57 1462.87 C 1764.28 1470.92 1757.99 1491.65 1755.28 1500.18 C 1734.78 1564.83 1698.32 1623.28 1649.28 1670.13 C 1590.59 1727.05 1507.21 1766.28 1426.01 1775.53 C 1396.81 1778.86 1362.51 1777.81 1332.91 1777.44 L 1331.5 1776.63 C 1334.25 1772.33 1363.82 1743.89 1369.49 1738.55 C 1441.26 1670.96 1521.28 1609.5 1603.67 1555.47 C 1654.18 1522.36 1709.18 1487.68 1763.72 1462.02 z" fill="rgb(43,51,216)" transform="translate(0,0)"></path>
<path d="M 283.12 1461.1 C 310.542 1473.16 346.891 1494.66 372.715 1509.97 C 477.915 1571.79 576.283 1644.56 666.178 1727.07 C 679.57 1739.44 702.945 1760.05 714.108 1773.58 C 716.449 1775.72 717.792 1776 715.163 1777.76 C 617.2 1780.6 541.474 1769.02 457.491 1715.18 C 365.01 1655.89 307.527 1566.77 283.12 1461.1 z" fill="rgb(43,51,216)" transform="translate(0,0)"></path>
<path d="M 715.163 1777.76 C 711.945 1776.37 711.409 1777.01 713.018 1774.68 L 714.108 1773.58 C 716.449 1775.72 717.792 1776 715.163 1777.76 z" fill="rgb(53,60,203)" transform="translate(0,0)"></path>
<path d="M 274.267 1084.78 C 276.175 1086.58 282.354 1097.31 284.27 1100.41 C 307.811 1138.52 343.866 1162.72 384.42 1179.84 C 391.378 1201.05 399.155 1221.97 407.735 1242.57 C 394.282 1236.59 379.572 1228.97 365.855 1222.66 C 335.74 1208.54 305.175 1195.39 274.21 1183.25 C 273.797 1150.88 274.118 1117.18 274.267 1084.78 z" fill="rgb(43,51,216)" transform="translate(0,0)"></path>
<path d="M 1773.56 1085.66 C 1774.91 1090.87 1774.54 1112.09 1774.58 1118.72 L 1774.94 1183.16 C 1730.4 1200.33 1686.2 1221.66 1642.8 1241.62 L 1641.99 1240.53 C 1644.4 1233.87 1648.01 1226.59 1650.75 1219.76 C 1656 1206.57 1660.92 1193.26 1665.51 1179.83 C 1710.55 1163.2 1750.42 1127.57 1773.56 1085.66 z" fill="rgb(43,51,216)" transform="translate(0,0)"></path>
<metadata><recraft-signature>{"signed_by": "recraft", "signature_b64": "TuLP09UyCGegbba6g+lyTvKoa2NbA5qFr/Jxrf9rWgcfv5O+XwUhcCWCOVU6k8mixkQrbzc9K2FNCIfIq5F8BQ==", "signing_algo": "Ed25519", "generation_timestamp": 1772776299, "identifier": "4d698968-68d7-41da-ae78-fd4f9463b075"}</recraft-signature></metadata></svg>