<svg xmlns="http://www.w3.org/2000/svg" height="1024" preserveAspectRatio="none" style="display: block;" version="1.1" viewBox="0 0 2048 2048" width="1024">
<path d="M 0 0 L 2048 0 L 2048 2048 L 0 2048 L 0 0 z" fill="rgb(255,255,255)" transform="translate(0,0)"></path>
<path d="M 561.044 297.417 C 577.192 296.37 598.433 296.851 614.962 296.85 L 705.192 296.888 L 776.361 296.968 C 793.279 297.005 818.171 296.87 834.671 299.373 C 833.372 300.25 832.088 301.148 830.82 302.069 C 753.919 358.102 704.788 435.227 689.75 529.323 C 709.584 530.118 737.242 529.839 757.264 529.612 C 764.387 489.458 779.689 451.197 802.218 417.206 C 840.78 359.772 904.419 315.586 972.639 302.354 C 1043.48 288.69 1116.84 303.941 1176.36 344.704 C 1241.55 388.898 1281.02 452.242 1295.89 529.029 C 1317.76 529.887 1341.32 530.004 1363.17 530.002 C 1363.12 529.266 1363.05 528.023 1362.89 526.999 C 1352.32 458.502 1318.09 394.42 1270.64 344.387 C 1253.94 326.779 1237.33 313.641 1218.74 299.176 L 1377.89 299.026 C 1413.81 298.975 1452.44 298.02 1488.12 298.81 C 1559.15 301.222 1625.97 331.377 1675.21 382.8 C 1716.28 425.688 1745.28 484.32 1750.93 543.942 C 1754.62 582.842 1752.93 626.581 1752.91 665.886 C 1753.39 721.351 1753.04 776.821 1751.84 832.275 C 1750.15 829.642 1748.39 827.056 1746.55 824.521 C 1694.52 752.746 1607.18 703.513 1520.61 689.455 C 1519.88 711.207 1520.71 735.537 1521.02 757.456 C 1566.27 765.884 1599.74 778.399 1638.1 805.323 C 1695.14 845.352 1738.48 910.011 1750.18 978.99 C 1762.54 1049.79 1745.88 1122.59 1703.95 1180.96 C 1659.8 1243.02 1595.49 1280.39 1520.98 1292.92 L 1521.03 1360.24 C 1619.59 1340.52 1690.73 1299.23 1752.59 1218.44 C 1754.05 1290.23 1752.28 1362.61 1752.91 1434.46 C 1753.21 1468.32 1753.17 1505.22 1745.32 1538.17 C 1734.18 1583.26 1712.29 1624.99 1681.52 1659.79 C 1631.31 1715.79 1565.69 1748.77 1490.25 1752.96 C 1437.59 1754.26 1382.2 1752.71 1329.18 1753.13 L 1264.71 1753.88 C 1249.02 1754.05 1231.92 1754.83 1216.52 1752.56 C 1300.53 1688.24 1343.44 1624.29 1361.11 1518.6 C 1340.72 1517.22 1313.82 1517.15 1293.47 1517.27 C 1286.03 1560.64 1272.85 1597.51 1248.36 1634.35 C 1208.07 1693.7 1146.08 1734.86 1075.75 1748.95 C 1008.42 1762.02 930.271 1745.54 873.912 1706.62 C 801.371 1656.52 771.691 1601.68 755.58 1516.99 L 689.684 1517.19 C 689.91 1521.89 690.715 1528.61 691.559 1533.21 C 707.973 1622.82 761.107 1699.83 834.452 1751.98 C 773.332 1752.92 712.205 1753.27 651.078 1753.01 C 617.74 1752.98 577.844 1753.96 544.983 1751.34 C 476.906 1745.92 409.486 1708.11 365.734 1655.9 C 330.165 1613.45 308.164 1565.12 301.383 1509.82 C 298.651 1487.54 299.266 1460.8 299.343 1438.19 L 299.398 1356.01 L 299.148 1274.21 C 299.092 1255.84 298.521 1235.5 300.171 1217.36 C 307.738 1227.33 317.137 1240.09 325.643 1249.06 C 359.831 1285.09 403.746 1316.95 449.951 1335.34 C 476.282 1345.82 502.764 1352.81 529.954 1359.8 C 531.148 1339.35 530.474 1314.24 530.411 1293.49 C 412.243 1271.32 325.051 1191.63 302.683 1071.52 C 290.086 1001.8 305.684 929.936 346.049 871.716 C 389.06 810.113 454.911 768.259 528.947 755.471 C 529.638 734.714 529.073 710.501 529.032 689.468 C 424.206 710.422 365.54 749.594 299.218 832.422 C 297.809 783.472 299.242 729.268 299.174 679.925 L 298.98 601.309 C 298.934 583.242 298.142 563.623 300.145 545.756 C 315.405 409.63 423.947 305.884 561.044 297.417 z" fill="rgb(43,64,198)" transform="translate(0,0)"></path>
<path d="M 687.905 604.113 C 710.568 603.718 733.238 603.989 755.885 604.927 C 758.836 884.258 759.432 1163.61 757.671 1442.95 C 733.744 1443.23 709.814 1443.25 685.886 1443 C 672.648 1405.26 641.643 1377.97 605.008 1363.77 L 604.974 1293.07 C 638.548 1287.82 664.946 1278.43 694.561 1261.58 C 695.398 1250.52 695.093 1234.57 695.185 1223.16 C 695.477 1203.37 695.528 1183.57 695.341 1163.78 C 679.005 1177.75 670.299 1184.19 651.283 1193.95 C 579.303 1227.73 500.025 1220.23 440.273 1165.72 C 402.495 1131.45 379.872 1083.57 377.374 1032.63 C 375.532 981.77 393.693 932.217 427.964 894.597 C 460.805 858.332 506.841 836.783 555.726 834.794 C 609.239 832.728 657.225 852.997 696.122 889.144 C 696.394 856.766 696.426 824.386 696.218 792.007 C 672.363 775.759 631.415 763.07 602.965 756.719 C 602.776 733.444 602.899 710.167 603.336 686.894 C 646.398 674.564 672.472 644.659 687.905 604.113 z" fill="rgb(255,255,255)" transform="translate(0,0)"></path>
<path d="M 564.536 903.283 C 632.195 901.67 688.433 955.047 690.352 1022.7 C 692.271 1090.35 639.149 1146.83 571.507 1149.05 C 503.432 1151.29 446.511 1097.75 444.58 1029.67 C 442.649 961.584 496.443 904.907 564.536 903.283 z" fill="rgb(43,64,198)" transform="translate(0,0)"></path>
<path d="M 559.397 983.764 C 582.548 979.313 604.967 994.327 609.665 1017.43 C 614.363 1040.53 599.588 1063.11 576.538 1068.05 C 561.407 1071.3 545.699 1066.17 535.404 1054.61 C 525.11 1043.06 521.816 1026.86 526.78 1012.2 C 531.744 997.546 544.2 986.685 559.397 983.764 z" fill="rgb(255,255,255)" transform="translate(0,0)"></path>
<path d="M 1009.26 375.398 C 1014.88 374.488 1025.47 374.436 1031.39 374.636 C 1178.67 379.623 1263.97 543.46 1186.62 666.981 C 1156.07 715.67 1105.54 748.339 1048.6 756.202 C 1035.6 757.984 1021.24 757.833 1008.02 758.896 C 992.269 760.161 979.102 763.043 963.901 766.568 C 912.462 781.985 873.606 805.36 835.867 843.464 C 835.426 835.698 835.328 828.221 835.246 820.463 C 834.475 746.78 832.567 673.228 832.714 599.522 C 832.763 574.503 831.207 556.3 836.416 530.859 C 842.66 500.24 856.168 471.568 875.804 447.258 C 908.798 406.072 957.151 381.341 1009.26 375.398 z" fill="rgb(255,255,255)" transform="translate(0,0)"></path>
<path d="M 1013.51 445.513 C 1081.25 439.319 1141.16 489.275 1147.24 557.024 C 1153.32 624.774 1103.26 684.598 1035.5 690.565 C 967.904 696.517 908.252 646.606 902.186 579.016 C 896.121 511.427 945.932 451.692 1013.51 445.513 z" fill="rgb(43,64,198)" transform="translate(0,0)"></path>
<path d="M 1018.82 525.568 C 1042.28 522.211 1064 538.575 1067.24 562.051 C 1070.48 585.528 1054.01 607.163 1030.52 610.287 C 1007.19 613.389 985.737 597.058 982.519 573.746 C 979.301 550.433 995.525 528.902 1018.82 525.568 z" fill="rgb(255,255,255)" transform="translate(0,0)"></path>
<path d="M 1016.32 839.414 C 1051.53 836.953 1086.68 844.913 1117.39 862.3 C 1160.72 886.529 1192.66 926.955 1206.21 974.708 C 1219.66 1021.83 1213.48 1072.39 1189.08 1114.88 C 1159.7 1167.63 1107.45 1203.71 1047.72 1212.49 C 1033.41 1214.6 1018.8 1214.65 1004.39 1216.1 C 988.667 1217.68 974.45 1220.69 959.29 1224.89 C 904.615 1241.55 877.469 1261.35 835.839 1298.39 L 836.267 1115.76 C 836.257 1087.55 835.777 1059.3 836.229 1031.09 C 837.863 929.113 915.118 847.493 1016.32 839.414 z" fill="rgb(255,255,255)" transform="translate(0,0)"></path>
<path d="M 1021.4 906.539 C 1087.72 904.07 1143.57 955.661 1146.35 1021.97 C 1149.14 1088.28 1097.81 1144.37 1031.52 1147.47 C 964.778 1150.6 908.222 1098.85 905.418 1032.09 C 902.614 965.333 954.63 909.025 1021.4 906.539 z" fill="rgb(43,64,198)" transform="translate(0,0)"></path>
<path d="M 1019.75 986.746 C 1042.85 983.339 1064.3 999.386 1067.56 1022.51 C 1070.83 1045.63 1054.64 1066.98 1031.5 1070.1 C 1008.57 1073.18 987.443 1057.18 984.212 1034.26 C 980.98 1011.35 996.854 990.122 1019.75 986.746 z" fill="rgb(255,255,255)" transform="translate(0,0)"></path>
<path d="M 1482.11 835.32 C 1586.99 834.842 1672.45 919.382 1673.11 1024.26 C 1673.77 1129.14 1589.37 1214.74 1484.5 1215.58 C 1379.36 1216.42 1293.51 1131.78 1292.85 1026.64 C 1292.19 921.509 1376.98 835.798 1482.11 835.32 z" fill="rgb(255,255,255)" transform="translate(0,0)"></path>
<path d="M 1471.98 903.343 C 1539.73 897.189 1599.67 947.083 1605.9 1014.83 C 1612.13 1082.58 1562.31 1142.57 1494.57 1148.88 C 1426.71 1155.21 1366.6 1105.28 1360.36 1037.42 C 1354.12 969.561 1404.11 909.507 1471.98 903.343 z" fill="rgb(43,64,198)" transform="translate(0,0)"></path>
<path d="M 1472.75 983.685 C 1487.87 980.107 1503.76 984.947 1514.32 996.354 C 1524.88 1007.76 1528.49 1023.97 1523.76 1038.78 C 1519.03 1053.59 1506.7 1064.7 1491.48 1067.88 C 1468.38 1072.7 1445.7 1058.06 1440.57 1035.02 C 1435.45 1011.99 1449.78 989.115 1472.75 983.685 z" fill="rgb(255,255,255)" transform="translate(0,0)"></path>
<path d="M 1013.6 1295.68 C 1118.42 1289.63 1208.3 1369.7 1214.35 1474.52 C 1220.4 1579.34 1140.33 1669.22 1035.51 1675.27 C 930.686 1681.32 840.805 1601.25 834.755 1496.43 C 828.705 1391.61 908.777 1301.73 1013.6 1295.68 z" fill="rgb(255,255,255)" transform="translate(0,0)"></path>
<path d="M 1016.76 1361.21 C 1084.68 1356.37 1143.62 1407.62 1148.26 1475.55 C 1152.91 1543.49 1101.48 1602.28 1033.53 1606.72 C 965.864 1611.15 907.374 1559.98 902.751 1492.33 C 898.128 1424.68 949.115 1366.04 1016.76 1361.21 z" fill="rgb(43,64,198)" transform="translate(0,0)"></path>
<path d="M 1020.82 1441.91 C 1044.66 1439.17 1066.21 1456.32 1068.88 1480.17 C 1071.55 1504.03 1054.34 1525.52 1030.48 1528.12 C 1006.71 1530.71 985.33 1513.59 982.668 1489.83 C 980.006 1466.07 997.068 1444.64 1020.82 1441.91 z" fill="rgb(255,255,255)" transform="translate(0,0)"></path>
<path d="M 1294.43 604.478 C 1316.72 603.481 1341.63 604.03 1364.11 604.058 C 1365.78 609.273 1367.78 614.378 1370.09 619.342 C 1385.23 651.933 1411.73 673.634 1445.03 685.864 L 1444.87 757.534 C 1371.73 773.583 1325.25 797.422 1276.18 855.574 C 1267.58 866.169 1259.33 879.614 1252.06 891.226 C 1229.46 850.707 1198.41 823.987 1159.81 799.928 C 1238.54 751.379 1279.38 696.254 1294.43 604.478 z" fill="rgb(255,255,255)" transform="translate(0,0)"></path>
<path d="M 1674.03 1387.43 C 1676.84 1393.71 1673.72 1487.52 1672.3 1499.33 C 1661.63 1588.07 1591.64 1662.41 1501.79 1672.59 C 1484.81 1674.51 1468.13 1674.02 1451.02 1674.02 L 1388.84 1674.31 C 1392.4 1668.67 1395.36 1662.61 1398.42 1656.67 C 1410.72 1631.02 1416.45 1616.91 1425.78 1590.1 C 1459.85 1605.19 1489.46 1609.35 1525.29 1596 C 1555.07 1585.08 1579.19 1562.6 1592.19 1533.67 C 1610.67 1492.58 1603.54 1461.85 1588.39 1422.58 C 1622.08 1411.84 1642.44 1404.56 1674.03 1387.43 z" fill="rgb(255,255,255)" transform="translate(0,0)"></path>
<path d="M 376.537 1387 C 405.983 1401.7 431.543 1410.08 462.805 1419.21 C 403.853 1524.86 512.657 1644.29 625.846 1590.57 C 632.269 1614.73 640.853 1632.03 651.602 1654.34 L 661.997 1675 C 575.425 1673.21 502.609 1684.16 434.188 1614.33 C 366.687 1545.44 375.646 1474.92 376.537 1387 z" fill="rgb(255,255,255)" transform="translate(0,0)"></path>
<path d="M 574.73 377.453 C 604.145 377.399 633.56 377.679 662.969 378.294 C 649.925 399.223 633.143 436.135 626.203 459.494 C 532.82 412.736 428.65 494.865 452.35 596.726 C 453.589 602.055 461.45 621.678 461.659 623.875 L 459.756 625.047 C 431.56 634.196 404.244 645.864 378.14 659.911 C 377.226 576.83 370.058 506.954 431.873 440.052 C 470.511 398.234 518.421 379.522 574.73 377.453 z" fill="rgb(255,255,255)" transform="translate(0,0)"></path>
<path d="M 1389.45 377.747 C 1476.3 379.546 1550.23 367.217 1618.06 437.522 C 1682.13 503.938 1675.83 576.908 1674.46 661.796 L 1655.46 651.809 C 1634.7 641.286 1613.17 632.385 1591.04 625.183 C 1606.02 589.207 1611.55 561.109 1596.56 523.259 C 1575.38 469.772 1519.93 438.902 1463.35 447.593 C 1450.03 449.639 1438.09 454.599 1425.78 459.752 C 1414.95 427.25 1405.54 408.073 1389.45 377.747 z" fill="rgb(255,255,255)" transform="translate(0,0)"></path>
<path d="M 1350.26 1262.74 C 1384.51 1278.51 1409.04 1287.07 1446.87 1292.44 L 1446.87 1363.08 C 1412.68 1372.47 1381.1 1400.47 1367.13 1432.91 C 1365.38 1436.97 1363.76 1443.39 1360.18 1445.21 C 1336.68 1443.11 1315.95 1442.97 1292.42 1442.89 C 1289.78 1410.9 1274.99 1378.1 1260.66 1349.82 C 1271.61 1340.91 1287.64 1324.79 1298.01 1314.68 C 1315.73 1297.68 1333.15 1280.36 1350.26 1262.74 z" fill="rgb(255,255,255)" transform="translate(0,0)"></path>
<path d="M 1250.67 1163.55 C 1254.33 1166.19 1281.91 1204.8 1288.66 1212.58 C 1263.3 1238.43 1237.43 1263.77 1211.05 1288.58 L 1205.42 1283.7 C 1193.5 1272.54 1174.79 1262.09 1160.56 1253.8 C 1201.35 1226.86 1224.85 1206.38 1250.67 1163.55 z" fill="rgb(255,255,255)" transform="translate(0,0)"></path>
<path d="M 1474.45 1440.98 C 1497.65 1436.36 1520.23 1451.32 1525.01 1474.48 C 1529.8 1497.65 1515 1520.33 1491.87 1525.28 C 1468.51 1530.29 1445.55 1515.3 1440.71 1491.91 C 1435.87 1468.51 1451.02 1445.65 1474.45 1440.98 z" fill="rgb(255,255,255)" transform="translate(0,0)"></path>
<path d="M 1478.88 525.498 C 1502.19 523.503 1522.73 540.725 1524.83 564.025 C 1526.92 587.326 1509.79 607.94 1486.5 610.143 C 1463.06 612.36 1442.29 595.098 1440.18 571.649 C 1438.07 548.201 1455.42 527.504 1478.88 525.498 z" fill="rgb(255,255,255)" transform="translate(0,0)"></path>
<path d="M 564.854 525.584 C 588.291 523.564 608.885 541.029 610.72 564.481 C 612.555 587.933 594.928 608.388 571.462 610.038 C 548.257 611.669 528.079 594.28 526.264 571.089 C 524.449 547.897 541.678 527.582 564.854 525.584 z" fill="rgb(255,255,255)" transform="translate(0,0)"></path>
<path d="M 564.252 1440.49 C 587.29 1437.95 608.077 1454.43 610.867 1477.44 C 613.656 1500.45 597.409 1521.42 574.433 1524.46 C 559.344 1526.46 544.345 1520.19 535.159 1508.06 C 525.973 1495.92 524.016 1479.78 530.036 1465.8 C 536.056 1451.82 549.123 1442.16 564.252 1440.49 z" fill="rgb(255,255,255)" transform="translate(0,0)"></path>
<metadata><recraft-signature>{"signed_by": "recraft", "signature_b64": "SlMxi6wWqNmgozDEV+r6dEcvwAeWW9MaUUu+IY6tZIwlrYD+ElWtKff7z4ne7kEsrfkGFFhbA70j3h1HubksAg==", "signing_algo": "Ed25519", "generation_timestamp": 1772776342, "identifier": "c29b8f56-761a-4feb-8d6d-7de963f80c06"}</recraft-signature></metadata></svg>