<svg xmlns="http://www.w3.org/2000/svg" height="1024" preserveAspectRatio="none" style="display: block;" version="1.1" viewBox="0 0 2048 2048" width="1024">
<path d="M 0 0 L 2048 0 L 2048 2048 L 0 2048 L 0 0 z" fill="rgb(255,255,255)" transform="translate(0,0)"></path>
<path d="M 1058.2 290.925 C 1076.47 287.834 1309.66 289.433 1317.75 292.543 C 1363.45 297.261 1434.66 312.658 1475.66 334.783 C 1487.45 338.577 1511.2 352.142 1522.19 358.591 C 1600.26 404.282 1663.57 471.436 1704.57 552.065 C 1707.07 556.949 1710.8 564.077 1712.69 568.972 C 1736.6 612.391 1753.23 684.371 1757.36 733.332 C 1760.73 744.93 1760.08 794.04 1760.04 807.819 L 1759.81 903.993 L 1759.84 958.202 C 1759.84 966.066 1760.28 982.965 1759 990.039 C 1759.51 1013.63 1759.46 1037.23 1758.86 1060.83 C 1760.35 1070.32 1760 1086.96 1760.06 1097.21 L 1760.11 1160.5 L 1760.06 1250.35 C 1760.06 1266.3 1759.95 1305.11 1757.09 1320.03 C 1751.95 1371.76 1739.71 1419.9 1718.82 1467.48 C 1715.44 1475.17 1708.33 1492.07 1703.74 1498.23 C 1699.19 1508.19 1688.97 1524.83 1683.03 1534.4 C 1641.43 1601.47 1583.57 1656.95 1514.82 1695.7 C 1501.32 1703.45 1484.91 1712.47 1470.28 1717.9 C 1469.49 1718.2 1468.69 1718.48 1467.89 1718.76 C 1459.84 1724.13 1449.09 1727.34 1440.03 1730.81 C 1399.47 1746.36 1358.21 1754.09 1314.88 1757.37 C 1303.09 1760.35 1257.6 1760.03 1243.94 1760.03 L 1145.88 1760.04 L 1089.17 1759.95 C 1081.19 1759.92 1065.12 1760.28 1057.75 1758.99 C 1042.35 1759.76 1026.93 1760.02 1011.51 1759.78 L 828.733 1760.03 C 808.781 1760.04 749.872 1761.07 732.283 1757.2 C 695.957 1753.54 600.395 1732.73 570.792 1712.85 C 562.273 1710.35 542.38 1698.67 534.271 1694.21 C 450.056 1646.78 382.621 1574.41 341.259 1487.06 C 314.913 1441.73 299.634 1367.23 293.012 1315.99 C 289.026 1297.82 290.208 1238.21 290.338 1217.72 L 291.148 1072.94 C 288.811 1032.48 288.589 1005.39 291.119 965.056 L 290.399 827.95 C 290.312 805.984 289.498 739.283 294.62 719.239 C 297.826 677.43 327.135 575.869 351.252 541.845 C 356.64 529.326 368.273 511.847 376.056 500.4 C 417.825 438.971 473.289 388.082 538.076 351.74 C 549.8 345.103 567.361 335.644 580 331.17 C 586.189 327.344 601.029 322.023 608.286 319.503 C 650.879 304.614 695.216 295.291 740.198 291.764 C 760.535 289.407 788.832 289.71 809.38 289.716 L 897.6 289.755 L 956.28 289.816 C 968.516 289.835 985.433 289.371 997.195 291.203 C 1017.8 290.03 1037.63 290.48 1058.2 290.925 z" fill="rgb(54,207,137)" transform="translate(0,0)"></path>
<path d="M 1058.2 290.925 C 1076.47 287.834 1309.66 289.433 1317.75 292.543 C 1363.45 297.261 1434.66 312.658 1475.66 334.783 C 1487.45 338.577 1511.2 352.142 1522.19 358.591 C 1600.26 404.282 1663.57 471.436 1704.57 552.065 C 1707.07 556.949 1710.8 564.077 1712.69 568.972 C 1736.6 612.391 1753.23 684.371 1757.36 733.332 C 1760.73 744.93 1760.08 794.04 1760.04 807.819 L 1759.81 903.993 L 1759.84 958.202 C 1759.84 966.066 1760.28 982.965 1759 990.039 C 1759.51 1013.63 1759.46 1037.23 1758.86 1060.83 C 1757.71 1066.42 1757.04 1074.28 1756.45 1080.09 C 1752.24 1121.7 1742.19 1159.65 1727.1 1198.71 C 1697.61 1277.01 1645.53 1344.79 1577.45 1393.43 C 1557 1408.12 1541.88 1418.04 1518.45 1428.39 C 1527.91 1395.55 1534.21 1361.88 1537.26 1327.84 C 1544.93 1320.88 1552.87 1314.06 1560.42 1306.94 C 1633.63 1237.05 1674.44 1139.07 1678.38 1039.08 C 1686.33 837.568 1527.06 676.115 1329.36 663.945 C 1294.46 661.797 1261.68 662.358 1226.89 661.602 C 1137.73 503.267 917.545 497.499 832.124 660.702 C 807.85 659.663 781.548 659.743 757.118 659.443 C 758.943 652.942 761.467 646.774 763.919 640.601 C 842.839 441.875 1081.63 401.381 1234.65 540.583 C 1248.91 553.554 1260.1 566.81 1272.67 581.248 C 1295.82 580.632 1337.05 580.766 1360.05 584.356 C 1346.26 549.422 1311.61 505.788 1284.55 480.105 C 1207.97 406.854 1117.57 371.46 1011.54 374.922 C 824.329 381.037 680.435 533.112 665.467 716.361 C 662.625 751.155 663.546 782.451 664.523 817.23 C 619.427 840.781 583.115 878.232 560.969 924.035 C 522.19 1004.87 533.037 1100.49 593.903 1166.8 C 612.934 1187.54 637.934 1207.13 663.347 1219.18 C 664.304 1245.21 663.98 1272.23 663.997 1298.34 C 537.826 1258.11 452.213 1151.7 455.497 1016.47 C 457.98 914.219 501.002 835.017 580.644 772.363 C 579.657 658.178 606.377 557.79 675.79 465.876 C 737.311 384.942 824.698 327.522 923.402 303.177 C 949.682 296.753 970.483 294.928 997.195 291.203 C 1017.8 290.03 1037.63 290.48 1058.2 290.925 z" fill="rgb(29,24,71)" transform="translate(0,0)"></path>
<path d="M 1058.2 290.925 C 1076.47 287.834 1309.66 289.433 1317.75 292.543 C 1363.45 297.261 1434.66 312.658 1475.66 334.783 C 1487.45 338.577 1511.2 352.142 1522.19 358.591 C 1600.26 404.282 1663.57 471.436 1704.57 552.065 C 1707.07 556.949 1710.8 564.077 1712.69 568.972 C 1736.6 612.391 1753.23 684.371 1757.36 733.332 C 1760.73 744.93 1760.08 794.04 1760.04 807.819 L 1759.81 903.993 L 1759.84 958.202 C 1759.84 966.066 1760.28 982.965 1759 990.039 C 1757.4 984.023 1754.78 957.457 1753.15 947.998 C 1747.63 916.5 1738.63 885.713 1726.32 856.201 C 1686.92 759.931 1610.64 682.899 1520.24 632.604 C 1500.59 621.671 1473.2 611.295 1452.01 602.414 C 1447.12 591.279 1443.27 578.914 1438.76 567.434 C 1388.5 439.667 1277 341.857 1143.01 306.088 C 1126.06 301.596 1108.88 298.053 1091.54 295.476 C 1080.62 293.921 1068.83 293.543 1058.2 290.925 z" fill="rgb(54,207,137)" transform="translate(0,0)"></path>
<path d="M 1317.75 292.543 C 1363.45 297.261 1434.66 312.658 1475.66 334.783 C 1487.45 338.577 1511.2 352.142 1522.19 358.591 C 1600.26 404.282 1663.57 471.436 1704.57 552.065 C 1707.07 556.949 1710.8 564.077 1712.69 568.972 C 1736.6 612.391 1753.23 684.371 1757.36 733.332 C 1752.06 729.381 1739.19 709.895 1734.44 703.466 C 1728.05 694.813 1721.31 686.421 1714.24 678.312 C 1658.7 616.422 1589.78 568.018 1512.71 536.784 C 1478.22 454.5 1440.76 393.544 1371.29 334.901 C 1360.17 325.539 1348.77 316.518 1337.11 307.852 C 1330.42 302.943 1323.16 298.679 1316.82 293.504 L 1317.75 292.543 z" fill="rgb(29,24,71)" transform="translate(0,0)"></path>
<path d="M 1475.66 334.783 C 1487.45 338.577 1511.2 352.142 1522.19 358.591 C 1600.26 404.282 1663.57 471.436 1704.57 552.065 C 1707.07 556.949 1710.8 564.077 1712.69 568.972 C 1708.57 565.793 1704.29 561.711 1700.2 558.281 C 1661.66 525.969 1620.55 501.943 1575.22 480.411 C 1568.57 469.05 1562.2 453.212 1555.22 440.729 C 1532.52 400.15 1507.88 367.924 1475.66 334.783 z" fill="rgb(54,207,137)" transform="translate(0,0)"></path>
<path d="M 291.119 965.056 C 296.391 930.523 301.976 899.913 312.954 866.396 C 341.206 782.734 394.639 709.856 465.93 657.75 C 488.381 641.252 505.98 630.052 531.487 618.399 C 522.93 647.872 513.001 691.043 510.829 721.7 C 493.208 738.215 475.717 754.514 460.148 773.034 C 405.925 838.111 375.293 919.607 373.226 1004.29 C 366.014 1220.02 529.719 1382.49 742.395 1389.01 C 769.425 1389.84 796.745 1389.17 823.795 1389.01 C 880.365 1497.34 1015 1545.12 1124.52 1487.59 C 1165.86 1465.85 1199.42 1431.78 1220.51 1390.09 C 1245.02 1389.68 1269.53 1389.65 1294.03 1390.02 C 1243.48 1546.48 1100.36 1625.56 940.9 1581.36 C 874.375 1562.93 821.924 1524.54 781.017 1469.3 C 754.038 1471.12 720.067 1469.61 693.361 1465.9 C 704.909 1489.89 716.796 1511.69 732.49 1533.29 C 830.004 1667.54 1026 1716.36 1175.51 1644.5 C 1262.43 1602.78 1329.08 1528.05 1360.63 1436.93 C 1386.6 1362.51 1388.46 1310.03 1386.93 1232.69 C 1442.77 1204 1484.53 1153.81 1502.58 1093.69 C 1520.25 1037.4 1514.44 976.364 1486.47 924.421 C 1463.54 881.795 1429.06 852.492 1387.09 829.746 C 1387.68 803.88 1387.56 777.93 1388.03 752.018 C 1456.03 771.218 1523.94 824.571 1558.42 886.264 C 1595.94 954.824 1605.03 1035.37 1583.74 1110.57 C 1568.97 1163.44 1540.58 1211.5 1501.43 1249.97 C 1491.08 1260.13 1480.14 1268.21 1470.03 1277.72 C 1468.47 1310.48 1468.43 1336.49 1463.62 1369.41 C 1448.61 1475.87 1397.2 1573.84 1318.12 1646.67 C 1262.09 1697.07 1194.09 1732.26 1120.59 1748.88 C 1106.96 1751.91 1094.75 1753.92 1080.94 1755.66 C 1076.61 1756.21 1061.24 1757.96 1057.75 1758.99 C 1042.35 1759.76 1026.93 1760.02 1011.51 1759.78 L 828.733 1760.03 C 808.781 1760.04 749.872 1761.07 732.283 1757.2 C 695.957 1753.54 600.395 1732.73 570.792 1712.85 C 562.273 1710.35 542.38 1698.67 534.271 1694.21 C 450.056 1646.78 382.621 1574.41 341.259 1487.06 C 314.913 1441.73 299.634 1367.23 293.012 1315.99 C 289.026 1297.82 290.208 1238.21 290.338 1217.72 L 291.148 1072.94 C 288.811 1032.48 288.589 1005.39 291.119 965.056 z" fill="rgb(29,24,71)" transform="translate(0,0)"></path>
<path d="M 291.148 1072.94 C 294.936 1094.89 298.22 1115.48 304.094 1137.03 C 330.716 1237.83 392.053 1325.99 477.303 1386 C 519.326 1415.61 550.414 1430.59 598.352 1446.83 C 608.965 1474.44 619.983 1503.56 634.028 1529.55 C 680.515 1613.87 753.154 1680.79 840.993 1720.22 C 901.662 1747.29 946.483 1754.6 1011.51 1759.78 L 828.733 1760.03 C 808.781 1760.04 749.872 1761.07 732.283 1757.2 C 695.957 1753.54 600.395 1732.73 570.792 1712.85 C 562.273 1710.35 542.38 1698.67 534.271 1694.21 C 450.056 1646.78 382.621 1574.41 341.259 1487.06 C 314.913 1441.73 299.634 1367.23 293.012 1315.99 C 289.026 1297.82 290.208 1238.21 290.338 1217.72 L 291.148 1072.94 z" fill="rgb(54,207,137)" transform="translate(0,0)"></path>
<path d="M 293.012 1315.99 C 305.264 1332.01 315.086 1346.6 328.364 1362.27 C 381.858 1425.38 457.287 1481.04 535.206 1510.24 C 563.998 1585.99 610.481 1653.75 670.779 1707.89 C 690.592 1725.7 711.258 1740.91 732.283 1757.2 C 695.957 1753.54 600.395 1732.73 570.792 1712.85 C 562.273 1710.35 542.38 1698.67 534.271 1694.21 C 450.056 1646.78 382.621 1574.41 341.259 1487.06 C 314.913 1441.73 299.634 1367.23 293.012 1315.99 z" fill="rgb(29,24,71)" transform="translate(0,0)"></path>
<path d="M 341.259 1487.06 L 342.067 1487.59 C 354.339 1495.81 367.014 1507.03 379.418 1515.7 C 410.007 1537.18 442.747 1555.41 477.109 1570.11 C 495.625 1611.57 512.18 1641.36 540.373 1677.3 C 548.377 1687.5 564.385 1703.51 570.792 1712.85 C 562.273 1710.35 542.38 1698.67 534.271 1694.21 C 450.056 1646.78 382.621 1574.41 341.259 1487.06 z" fill="rgb(54,207,137)" transform="translate(0,0)"></path>
<path d="M 1757.09 1320.03 C 1751.95 1371.76 1739.71 1419.9 1718.82 1467.48 C 1715.44 1475.17 1708.33 1492.07 1703.74 1498.23 C 1699.19 1508.19 1688.97 1524.83 1683.03 1534.4 C 1641.43 1601.47 1583.57 1656.95 1514.82 1695.7 C 1501.32 1703.45 1484.91 1712.47 1470.28 1717.9 C 1469.49 1718.2 1468.69 1718.48 1467.89 1718.76 C 1459.84 1724.13 1449.09 1727.34 1440.03 1730.81 C 1399.47 1746.36 1358.21 1754.09 1314.88 1757.37 C 1314.35 1754.57 1314.14 1755.69 1316.7 1753.95 C 1406.1 1693.4 1460.83 1616.89 1506.3 1520.62 C 1595.49 1486.2 1660.3 1445.87 1721.85 1370.21 C 1734.58 1354.57 1745.76 1336.79 1757.09 1320.03 z" fill="rgb(29,24,71)" transform="translate(0,0)"></path>
<path d="M 1703.74 1498.23 C 1699.19 1508.19 1688.97 1524.83 1683.03 1534.4 C 1641.43 1601.47 1583.57 1656.95 1514.82 1695.7 C 1501.32 1703.45 1484.91 1712.47 1470.28 1717.9 C 1469.49 1718.2 1468.69 1718.48 1467.89 1718.76 C 1471.68 1712.96 1495.18 1689.1 1502.51 1680.5 C 1531.07 1647.03 1547.88 1618.45 1567.41 1579.27 C 1620.48 1557.36 1659.1 1535.91 1703.74 1498.23 z" fill="rgb(54,207,137)" transform="translate(0,0)"></path>
<path d="M 580 331.17 C 586.189 327.344 601.029 322.023 608.286 319.503 C 650.879 304.614 695.216 295.291 740.198 291.764 C 732.281 298.343 723.749 303.941 715.634 310.111 C 649.095 360.704 595.425 426.496 561 502.797 C 558.465 508.416 555.9 514.739 553.123 520.215 C 534.477 528.015 516.553 533.426 497.402 541.989 C 437.477 569.359 384.119 609.262 340.928 659.008 C 331.13 670.274 321.797 681.936 312.953 693.965 C 308.745 699.786 298.963 714.836 294.62 719.239 C 297.826 677.43 327.135 575.869 351.252 541.845 C 356.64 529.326 368.273 511.847 376.056 500.4 C 417.825 438.971 473.289 388.082 538.076 351.74 C 549.8 345.103 567.361 335.644 580 331.17 z" fill="rgb(29,24,71)" transform="translate(0,0)"></path>
<path d="M 351.252 541.845 C 356.64 529.326 368.273 511.847 376.056 500.4 C 417.825 438.971 473.289 388.082 538.076 351.74 C 549.8 345.103 567.361 335.644 580 331.17 L 578.738 332.746 C 573.144 339.659 566.305 347.05 560.366 353.894 C 530.841 387.916 509.823 423.186 489.307 463.183 C 444.417 478.635 402.907 503.658 365.041 531.932 C 360.821 535.084 355.792 539.344 351.252 541.845 z" fill="rgb(54,207,137)" transform="translate(0,0)"></path>
<path d="M 1014.84 624.416 C 1076.76 618.464 1136.02 659.797 1158.7 716.186 C 1162.49 725.605 1165.42 735.126 1168.43 744.806 C 1212.29 745.962 1260.52 745.098 1304.72 745.136 C 1305.71 790.502 1304.97 837.95 1305.26 883.552 C 1325.38 888.051 1344.54 896.073 1361.85 907.248 C 1393.94 927.572 1418.66 959.871 1426.88 997.222 C 1435.09 1034.21 1428.04 1072.94 1407.34 1104.67 C 1382.97 1142.72 1348.38 1162.69 1305.03 1172.09 L 1305.31 1307.01 L 1168.74 1306.9 C 1149.51 1373.98 1106.86 1420.2 1035.58 1428.82 C 1002.05 1429.85 978.753 1424.56 949.638 1406.42 C 914.82 1384.74 889.093 1345.04 880.464 1305.09 C 835.956 1305.96 791.442 1306.55 746.926 1306.86 C 747.129 1260.74 746.833 1214.63 746.038 1168.52 C 723.531 1161.97 702.735 1155.05 683.272 1141.64 C 653.675 1121.24 629.659 1088.32 623.545 1052.48 C 616.326 1010.17 623.12 972.843 647.926 937.717 C 671.442 904.812 707.104 882.637 747.017 876.101 L 746.879 744.222 C 792.003 744.635 837.13 744.511 882.251 743.85 C 890.096 719.611 899.598 697.084 916.168 677.5 C 941.523 647.531 975.624 628.095 1014.84 624.416 z" fill="rgb(29,24,71)" transform="translate(0,0)"></path>
<path d="M 1023.59 707.379 C 1050.06 706.971 1071.35 721.614 1080.44 746.373 C 1084.13 756.441 1086.04 767.413 1090.27 777.195 C 1094.72 787.233 1101.03 796.339 1108.87 804.03 C 1140.13 835.335 1180.61 827.866 1222.92 827.846 L 1223.06 881.982 C 1223.29 916.547 1243.35 952.902 1276.74 961.979 C 1312.41 969.622 1347.32 984.473 1346.14 1028.3 C 1344.38 1093.67 1280.29 1077.01 1246.88 1110.71 C 1215.61 1142.25 1222.84 1182.21 1222.79 1223.19 C 1206.89 1223.07 1170.89 1221.88 1156.43 1223.66 C 1125.74 1227.6 1099.83 1248.35 1089.27 1277.43 C 1083.16 1293.89 1083.58 1306.67 1070.89 1322 C 1058.67 1336.77 1045.8 1342.4 1027.24 1344.67 C 1018.43 1345.48 1006.4 1342.12 998.535 1338.28 C 959.717 1318.6 969.589 1274.88 939.99 1246.07 C 907.44 1214.38 870.923 1222.04 828.336 1221.69 C 828.118 1204.3 827.756 1185.25 827.864 1167.98 C 831.687 1138.71 804.169 1092.18 771.855 1086.27 C 724.094 1077.54 684.12 1044.03 713.409 989.949 C 731.364 956.799 777.112 968.387 804.763 938.891 C 835.866 905.714 828.595 871.223 828.94 828.078 C 849.7 828.103 874.97 828.894 895.123 827.148 C 923.491 825.509 954.442 801.997 961.994 773.961 C 971.399 739.045 981.469 711.943 1023.59 707.379 z" fill="rgb(255,255,255)" transform="translate(0,0)"></path>
<metadata><recraft-signature>{"signed_by": "recraft", "signature_b64": "wK3bbfeGdm0A8VkvcIA1Z1qfq8ZFKZi6n9opI1Tsy3989tJ2tHhnYy7dhs5s8y/q3zxmmZHu2QgYyAZv2BBhBA==", "signing_algo": "Ed25519", "generation_timestamp": 1772776742, "identifier": "930f3f29-c8af-476d-969e-b34682e314b1"}</recraft-signature></metadata></svg>