<svg xmlns="http://www.w3.org/2000/svg" height="1024" preserveAspectRatio="none" style="display: block;" version="1.1" viewBox="0 0 2048 2048" width="1024">
<path d="M 557.431 0 L 1493.72 0 C 1507.43 2.4132 1521.5 3.33819 1535.37 5.32427 C 1560.61 9.07911 1585.64 14.1073 1610.38 20.3896 C 1745.9 55.9781 1864.28 138.765 1944.2 253.854 C 2000.69 334.531 2035.28 432.588 2044.92 530.531 C 2045.66 537.984 2046.44 545.963 2048 553.245 L 2048 1501.8 L 2047.63 1503.38 C 2044.31 1518.01 2043.88 1534.45 2041.47 1549.21 C 2038.51 1567.37 2034.39 1587.66 2029.75 1605.47 C 1993.19 1749.29 1902.97 1873.65 1777.6 1953.03 C 1712.5 1994.77 1646.42 2021 1570.97 2036.67 C 1562.12 2038.51 1514.8 2044.61 1510.09 2048 L 556.39 2048 C 538.254 2044.13 506.235 2041.4 485.417 2037.82 C 428.56 2027.53 373.512 2008.98 322.017 1982.78 C 179.536 1911.61 72.4775 1785.12 25.8324 1632.84 C 18.3576 1608.48 12.5594 1583.65 8.47865 1558.5 C 6.21175 1544.58 4.98359 1530.27 2.27921 1516.48 C 1.92032 1514.65 1.72922 1515.04 0 1514.25 L 0 530.014 C 0.666642 529.677 1.33328 529.341 1.99993 529.004 C 5.55098 515.059 8.16636 490.036 10.7401 476.634 C 26.5048 393.444 60.0135 314.628 108.984 245.555 C 190.73 132.167 310.15 51.5596 445.882 18.1517 C 468.771 12.6828 491.907 8.30412 515.212 5.0306 C 529.439 3.133 543.221 2.42773 557.431 0 z M 173.497 1023.43 C 158.922 1059.99 147.037 1089.16 136.077 1127.14 C 50.2396 1424.57 206.947 1740 496.218 1851.91 C 660.409 1915.43 844.684 1897.45 1005.17 1828.08 L 1023.41 1820.11 C 1044.38 1827.58 1064.62 1836.89 1085.63 1844.48 C 1172.09 1875.71 1265.32 1894 1357.54 1890.68 C 1528.9 1882.47 1667.6 1817.87 1783.54 1690.05 C 1886.62 1576.01 1940.89 1426.09 1934.69 1272.49 C 1929.9 1177.35 1910.9 1110.01 1874.27 1022.65 C 1889.56 987.093 1901.16 957.826 1911.64 920.004 C 1947.83 792.094 1941.36 655.875 1893.22 531.97 C 1834.35 385.146 1720.12 267.351 1575.17 204.002 C 1413.6 134.91 1228.42 143.172 1067.03 208.144 L 1023.98 225.888 C 932.56 180.833 791.96 150.59 690.013 155.472 C 521.853 163.303 377.919 229.818 264.297 354.59 C 160.911 470.402 106.818 621.998 113.534 777.098 C 118.214 872.73 136.432 936.477 173.497 1023.43 z" fill="rgb(244,25,37)" transform="translate(0,0)"></path>
<path d="M 679.491 255.583 C 717.639 251.972 757.887 255.673 795.658 261.315 C 1054.5 299.983 1344.27 475.743 1522.42 665.891 C 1547.1 692.238 1571.02 719.081 1592.51 748.134 C 1593.2 819.652 1545.49 944.223 1506.76 1002.7 C 1500.22 993.666 1494.61 982.201 1488.96 972.447 C 1386.96 796.418 1221.84 656.104 1041.99 560.825 C 942.225 508.282 835.227 470.253 722.095 460.38 C 612.628 450.826 512.609 516.064 457.866 607.951 C 435.909 644.808 423.258 690.054 419.834 732.964 C 413.705 742.151 404.391 752.917 397.242 761.551 C 340.334 830.279 296.409 903.405 255.116 982.597 C 233.089 933.078 215.09 839.531 212.499 785.619 C 205.917 648.638 246.119 522.606 337.805 420.276 C 425.259 322.114 548.223 262.845 679.491 255.583 z" fill="rgb(244,25,37)" transform="translate(0,0)"></path>
<path d="M 542.822 1042.91 C 548.395 1050.52 564.551 1081.6 570.344 1091.63 C 586.42 1119.16 604.207 1145.65 623.602 1170.96 C 779.001 1374.72 1045.66 1545.24 1301.08 1583.66 C 1380.18 1595.56 1446.09 1576.95 1510.02 1528.01 C 1565.62 1485.8 1605.06 1425.79 1621.76 1358.01 C 1625.7 1341.43 1626.63 1328.14 1628.81 1311.63 C 1640.48 1296.07 1656.99 1278.92 1669.66 1262.38 C 1692.27 1232.85 1713.39 1202.46 1733.34 1171.08 C 1745.06 1152.49 1756.16 1133.51 1766.62 1114.19 C 1775.44 1097.53 1783.38 1080.34 1793.22 1064.29 C 1827.33 1145.65 1843.22 1263.08 1833.38 1350.54 C 1829.99 1371.63 1828.09 1389.69 1822.95 1411.07 C 1791.93 1540.24 1707.83 1648.88 1596.12 1718.43 C 1467.31 1798.64 1324.82 1804.74 1180.08 1770 C 1037.91 1735.87 898.726 1668.62 776.692 1588.97 C 756.305 1575.66 735.209 1562.41 715.636 1548.1 C 651.827 1501.39 592.271 1449.12 537.664 1391.92 C 515.206 1368.25 473.064 1321.95 455.882 1294.22 C 455.723 1283.51 458.126 1269.04 459.805 1258.29 C 468.495 1202.65 488.147 1150.42 512.33 1099.78 C 522.058 1079.42 530.363 1061.84 542.822 1042.91 z" fill="rgb(244,25,37)" transform="translate(0,0)"></path>
<path d="M 1309.82 255.405 C 1345.14 251.757 1403.93 257.231 1438.68 264.314 C 1569.76 291.598 1684.54 370.042 1757.58 482.256 C 1832.06 595.146 1852.67 734.423 1825.53 865.976 C 1778.16 1095.61 1588.23 1338.95 1410.53 1486.47 C 1382.46 1509.77 1354.31 1532.34 1323.79 1552.41 C 1251.19 1545.86 1158.59 1516.72 1092.4 1489 C 1081.57 1484.45 1069.08 1479.04 1058.82 1473.56 C 1110.23 1441.14 1160.35 1412.87 1210.03 1376.56 C 1370.99 1258.93 1505.97 1098.93 1586.62 915.973 C 1621.17 835.075 1644.83 730.356 1609.06 646.941 C 1566.47 547.657 1477.71 472.849 1369.23 460.219 C 1360.31 459.181 1334.27 459.526 1328.47 455.358 C 1246.65 396.61 1162.42 347.802 1069.45 308.672 C 1137.04 280.719 1237.19 260.191 1309.82 255.405 z" fill="rgb(244,25,37)" transform="translate(0,0)"></path>
<path d="M 724.1 493.906 C 730.552 493.271 755.127 497.207 762.844 498.57 C 836.775 511.626 921.373 538.798 988.824 572.71 C 963.218 589.986 934.482 605.496 908.129 622.557 C 833.005 671.191 762.931 723.954 699.33 787.103 C 579.363 906.216 420.734 1128.73 420.772 1304.28 C 420.788 1377 453.922 1446.43 505.015 1497.34 C 563.008 1555.14 633.124 1588.39 715.676 1588.12 C 727.233 1595.16 739.177 1605.19 750.563 1613.08 C 814.854 1657.64 882.489 1696.72 954.841 1726.74 C 962.116 1729.76 969.645 1732.83 976.654 1736.38 L 977.801 1736.97 L 978.414 1737.55 C 974.7 1741.32 935.296 1752.57 927.878 1754.85 C 819.609 1788.13 700.202 1803.12 589.056 1775.86 C 464.796 1745.73 350.566 1660.86 283.667 1551.55 C 75.1517 1210.87 353.475 818.732 603.196 590.099 C 638.058 558.181 684.517 518.506 724.1 493.906 z" fill="rgb(244,25,37)" transform="translate(0,0)"></path>
<path d="M 1015.24 654.333 C 1018.48 653.891 1022.3 653.864 1025.59 653.861 C 1053.2 653.896 1079.64 665.032 1098.95 684.763 C 1135.85 721.806 1128.33 764.762 1128.36 812.709 L 1128.47 919.705 L 1240.24 919.562 C 1261.66 919.496 1302.77 918.011 1322.26 922.55 C 1339.8 926.466 1355.92 935.137 1368.85 947.611 C 1389.59 967.856 1401.37 995.557 1401.55 1024.54 C 1401.91 1051.55 1391.55 1077.6 1372.73 1096.98 C 1334.4 1136.22 1288.33 1128 1238.2 1128.12 L 1128.64 1128.94 C 1127.32 1166.87 1129.06 1207.54 1128.22 1245.73 C 1127.73 1267.62 1130.03 1295.14 1125.15 1316.21 C 1121.55 1331.79 1114.25 1346.27 1103.85 1358.43 C 1085.63 1379.94 1061.31 1392.82 1033.26 1395.25 C 1030.84 1395.45 1028.42 1395.56 1026 1395.6 C 997.608 1395.95 970.266 1384.91 950.076 1364.95 C 911.879 1327.61 920.422 1274.98 920.533 1225.71 L 920.136 1128.83 C 872.073 1127.52 823.563 1128.85 775.461 1128.3 C 758.322 1128.11 741.031 1129.38 724.245 1125.24 C 706.364 1120.67 690.021 1111.42 676.893 1098.45 C 657.157 1078.58 646.169 1051.66 646.365 1023.65 C 646.242 995.69 657.345 968.845 677.185 949.137 C 690.543 935.837 707.378 926.569 725.76 922.394 C 745.09 917.889 786.601 919.556 807.927 919.621 L 919.967 919.625 C 920.674 886.059 920.81 852.484 920.374 818.914 C 920.137 795.457 918.532 755.909 922.786 734.639 C 925.693 720.055 931.876 706.322 940.869 694.478 C 959.793 669.695 984.967 658.294 1015.24 654.333 z" fill="rgb(244,25,37)" transform="translate(0,0)"></path>
<metadata><recraft-signature>{"signed_by": "recraft", "signature_b64": "m6AZpGWOknb7T3fb/+WBbdLNUD/1Akx6tRS+XCjPyizj/+IIQ08j78ZDdO0vwRNQdXm0NmahBps8WGW6OJCcAg==", "signing_algo": "Ed25519", "generation_timestamp": 1772776991, "identifier": "aea84f96-3608-474d-8f09-4c71a9815219"}</recraft-signature></metadata></svg>