<svg xmlns="http://www.w3.org/2000/svg" height="1024" preserveAspectRatio="none" style="display: block;" version="1.1" viewBox="0 0 2048 2048" width="1024">
<path d="M 0 0 L 2048 0 L 2048 2048 L 0 2048 L 0 0 z" fill="rgb(254,254,254)" transform="translate(0,0)"></path>
<path d="M 467.177 1644.34 C 442.093 1625.01 415.358 1595.98 395.762 1571.06 C 336.474 1496.98 299.558 1407.51 289.349 1313.18 C 284.847 1274.05 285.779 1236.53 285.839 1197.29 L 286.075 1049.89 L 285.838 873.699 C 285.81 835.988 284.859 793.169 287.888 756.105 C 296.055 653.736 334.755 556.172 398.98 476.039 C 481.281 371.849 601.555 304.567 733.408 288.956 C 774.945 284.351 815.859 285.261 857.554 285.236 L 1010.42 285.161 L 1185.35 285.334 C 1221.54 285.33 1259.3 284.101 1295.19 286.763 C 1395.68 293.712 1491.64 331.25 1570.18 394.335 C 1578.3 399.238 1597.5 416.719 1604.82 423.779 C 1675.8 492.181 1726.02 576.002 1749.68 671.731 C 1766.28 738.903 1765.35 785.026 1765.19 852.399 L 1764.9 961.308 C 1764.13 1025.97 1764.85 1089.36 1764.89 1153.96 C 1765.11 1197.39 1766.75 1253.1 1763.22 1295.58 C 1754.25 1414.27 1703.27 1525.88 1619.42 1610.37 C 1527.07 1704.86 1400.95 1758.77 1268.83 1760.23 L 932.171 1760.08 L 825.584 1760.1 C 778.933 1760.11 737.78 1760.65 691.311 1751.6 C 619.327 1737.59 522.039 1693.27 467.177 1644.34 z" fill="rgb(254,254,254)" transform="translate(0,0)"></path>
<path d="M 852.211 680.205 C 842.36 672.535 831.499 670.332 821.231 659.368 C 765.074 599.403 795.657 498.559 877.96 484.737 C 892.983 482.214 909.974 482.977 925.266 483.105 C 937.932 483.158 951.494 482.758 964.018 484.441 C 1016.31 491.468 1049.86 533.487 1048.98 585.537 C 1048.58 613.327 1036.98 639.781 1016.81 658.904 C 1004.7 670.511 998.603 672.388 984.529 680.146 C 1062.84 687.104 1133.26 704.274 1199.13 749.321 C 1212.74 758.627 1228.39 770.457 1239.75 782.142 C 1226.72 793.018 1216.51 801.72 1204.5 813.912 C 1161.7 857.383 1127.35 921.804 1115.26 981.927 C 1165.32 986.657 1214.63 990.33 1265.04 995.369 L 1265.56 1082.04 C 1265.62 1090.19 1266.32 1117.57 1265.32 1124.77 C 1213.2 1131.48 1158.86 1132.96 1106.6 1139.31 C 1130.11 1238.16 1163.04 1293.82 1241.85 1358.75 C 1182.58 1420.39 1080.88 1455.89 997.178 1463.3 C 992.796 1463.95 989.172 1464.06 984.791 1464.4 C 978.675 1466.01 971.536 1464.76 965.463 1466.15 C 912.41 1478.22 868.89 1477.32 816.422 1462.36 C 750.793 1443.64 682.409 1418.69 628.981 1374.74 C 624.194 1370.28 622.836 1364.16 627.311 1358.66 C 642.259 1340.29 655.07 1321.75 668.107 1302.02 C 677.867 1284.59 687.949 1264.53 694.837 1245.85 C 705.555 1255.83 719.28 1265.24 731.528 1273.37 C 775.165 1302.33 819.841 1320.79 872.065 1327.76 C 952.307 1338.32 1033.45 1316.49 1097.56 1267.1 C 1088.98 1251.43 1081.25 1234.76 1073.25 1218.69 C 1022.7 1257.17 960.006 1276.2 896.595 1272.31 C 826.836 1267.47 761.87 1235.07 716.036 1182.26 C 731.664 1117.88 734.851 1045.06 719.643 980.328 C 728.119 970.311 736.301 961.492 745.936 952.54 C 825.57 878.549 959.211 875.978 1048.4 933.97 C 1056.85 939.463 1064.95 945.204 1073.63 950.381 C 1079.05 930.079 1086.23 911.734 1094.63 892.5 C 1086.66 886.187 1075.31 879.973 1066.38 874.764 C 1024.87 850.547 981.378 836.803 933.309 832.994 C 842.276 825.781 767.861 854.795 699.762 913.062 C 691.192 891.474 684.105 876.864 673.257 856.285 C 663.678 839.01 654.586 823.765 642.379 808.335 C 638.671 803.648 621.742 787.27 624.936 782.702 C 638.346 763.523 675.55 739.713 696.09 730.352 C 703.296 726.195 710.683 722.358 718.228 718.851 C 762.233 699.244 804.357 686.486 852.211 680.205 z" fill="rgb(0,0,0)" transform="translate(0,0)"></path>
<path d="M 852.211 680.205 C 842.36 672.535 831.499 670.332 821.231 659.368 C 765.074 599.403 795.657 498.559 877.96 484.737 C 892.983 482.214 909.974 482.977 925.266 483.105 L 919.789 483.855 L 919.846 486.192 C 975.355 501.973 1007.91 554.199 993.753 611.581 C 985.081 646.734 953.49 678.698 917.506 686.394 L 917.991 688.166 C 1001.99 690.357 1112.76 721.401 1171.44 784.896 C 1156.46 802.912 1137.8 821.231 1124.98 840.856 C 1104.98 827.94 1086.06 815.739 1064.42 805.663 C 994.359 773.03 906.598 762.812 830.98 779.124 C 772.949 791.739 718.834 818.213 673.257 856.285 C 663.678 839.01 654.586 823.765 642.379 808.335 C 638.671 803.648 621.742 787.27 624.936 782.702 C 638.346 763.523 675.55 739.713 696.09 730.352 C 703.296 726.195 710.683 722.358 718.228 718.851 C 762.233 699.244 804.357 686.486 852.211 680.205 z" fill="rgb(245,179,94)" transform="translate(0,0)"></path>
<path d="M 852.211 680.205 C 859.366 682.707 864.985 684.491 872.295 686.467 L 868.606 688.983 C 823.321 690.059 762.25 703.325 720.265 720.275 L 718.228 718.851 C 762.233 699.244 804.357 686.486 852.211 680.205 z" fill="rgb(0,0,0)" transform="translate(0,0)"></path>
<path d="M 718.228 718.851 L 720.265 720.275 C 715.675 722.57 700.623 729.851 696.09 730.352 C 703.296 726.195 710.683 722.358 718.228 718.851 z" fill="rgb(42,29,21)" transform="translate(0,0)"></path>
<path d="M 872.295 686.467 C 875.208 686.833 876.479 686.626 879.069 687.882 L 879.063 687.981 L 879.197 687.993 L 879.356 688.23 C 878.733 689.518 870.358 689.027 868.606 688.983 L 872.295 686.467 z" fill="rgb(89,53,24)" transform="translate(0,0)"></path>
<path d="M 919.846 486.192 C 919.301 486.054 913.171 484.605 912.825 484.338 L 912.858 484.272 L 914.043 484.819 L 913.004 484.07 C 915.528 483.399 917.143 483.599 919.789 483.855 L 919.846 486.192 z" fill="rgb(42,29,21)" transform="translate(0,0)"></path>
<path d="M 917.506 686.394 L 917.991 688.166 C 917.014 688.143 912.513 688.337 911.889 687.545 C 912.887 686.988 916.201 686.631 917.506 686.394 z" fill="rgb(89,53,24)" transform="translate(0,0)"></path>
<path d="M 895.948 528.666 C 927.12 526.816 953.945 550.465 956.016 581.623 C 958.088 612.782 934.629 639.773 903.486 642.065 C 872.03 644.379 844.707 620.633 842.615 589.161 C 840.523 557.69 864.462 530.536 895.948 528.666 z" fill="rgb(0,0,0)" transform="translate(0,0)"></path>
<path d="M 984.791 1464.4 C 978.675 1466.01 971.536 1464.76 965.463 1466.15 C 912.41 1478.22 868.89 1477.32 816.422 1462.36 C 750.793 1443.64 682.409 1418.69 628.981 1374.74 C 624.194 1370.28 622.836 1364.16 627.311 1358.66 C 642.259 1340.29 655.07 1321.75 668.107 1302.02 C 676.02 1309.67 694.978 1321.93 704.406 1328.11 C 769.287 1370.64 841.749 1392.88 919.561 1391.23 C 995.845 1389.63 1073.23 1364.13 1134 1317.56 C 1148.75 1333.72 1167.06 1352.21 1183.89 1366.26 C 1132.01 1411.83 1064.8 1449.67 995.982 1461.04 L 997.178 1463.3 C 992.796 1463.95 989.172 1464.06 984.791 1464.4 z" fill="rgb(245,179,94)" transform="translate(0,0)"></path>
<path d="M 984.791 1464.4 C 984.011 1464.24 983.299 1464.22 982.711 1463.73 L 982.725 1463.65 C 984.047 1462.84 994.01 1461.35 995.982 1461.04 L 997.178 1463.3 C 992.796 1463.95 989.172 1464.06 984.791 1464.4 z" fill="rgb(42,29,21)" transform="translate(0,0)"></path>
<path d="M 1764.89 1153.96 C 1765.11 1197.39 1766.75 1253.1 1763.22 1295.58 C 1754.25 1414.27 1703.27 1525.88 1619.42 1610.37 C 1527.07 1704.86 1400.95 1758.77 1268.83 1760.23 L 932.171 1760.08 L 825.584 1760.1 C 778.933 1760.11 737.78 1760.65 691.311 1751.6 C 619.327 1737.59 522.039 1693.27 467.177 1644.34 C 499.68 1640.37 532.036 1633.67 564.847 1629.5 L 580.559 1626.56 C 593.574 1615.25 607.402 1601.77 619.855 1589.77 C 595.937 1590.26 574.416 1592.36 555.384 1574.49 C 532.377 1552.88 532.739 1516.73 554.905 1494.53 C 567.241 1482.17 579.991 1478.98 596.94 1478.9 C 638.507 1478.56 680.291 1479 721.838 1478.9 L 1023.5 1478.46 L 1171.46 1478.65 C 1200.21 1478.51 1231.01 1477.18 1259.55 1479.07 C 1306.4 1482.18 1322.84 1543.3 1290.84 1574.24 C 1269.1 1595.26 1244.69 1590.79 1217.05 1590.11 C 1230.42 1601.89 1245.82 1614.58 1259.62 1625.9 C 1311.93 1626.78 1345.88 1636.42 1373.78 1683.05 C 1448.86 1663.75 1517.22 1624.25 1571.44 1568.83 C 1644.44 1492.95 1689.28 1394.36 1698.49 1289.47 C 1701.9 1253.08 1700.87 1210.08 1700.3 1173.12 C 1727.68 1181.95 1747.07 1177.45 1764.89 1153.96 z" fill="rgb(0,0,0)" transform="translate(0,0)"></path>
<path d="M 467.177 1644.34 C 442.093 1625.01 415.358 1595.98 395.762 1571.06 C 336.474 1496.98 299.558 1407.51 289.349 1313.18 C 284.847 1274.05 285.779 1236.53 285.839 1197.29 L 286.075 1049.89 L 285.838 873.699 C 285.81 835.988 284.859 793.169 287.888 756.105 C 296.055 653.736 334.755 556.172 398.98 476.039 C 481.281 371.849 601.555 304.567 733.408 288.956 C 774.945 284.351 815.859 285.261 857.554 285.236 L 1010.42 285.161 L 1185.35 285.334 C 1221.54 285.33 1259.3 284.101 1295.19 286.763 C 1395.68 293.712 1491.64 331.25 1570.18 394.335 C 1540.43 391.973 1509.98 388.062 1480.26 385.119 C 1471.49 384.251 1445.83 379.927 1438.74 380.486 C 1399.81 367.919 1361.69 354.845 1320.6 350.082 C 1280.56 345.441 1238.05 346.916 1197.61 346.944 L 1023.13 346.932 L 857.659 346.954 C 817.809 346.963 773.618 345.689 734.499 350.974 C 687.616 357.37 642.11 371.464 599.819 392.688 C 488.764 449.535 411.577 538.382 373.159 657.771 C 362.673 690.035 355.969 723.407 353.181 757.218 C 350.22 792.84 351.145 833.452 351.109 869.626 L 351.043 1038.25 L 351.123 1196.78 C 351.182 1239.95 350.397 1287.22 356.209 1329.74 C 362.892 1376.54 377.353 1421.89 398.996 1463.91 C 426.362 1516.89 467.085 1564.99 515.271 1600.76 C 531.428 1612.75 548.028 1619.75 564.847 1629.5 C 532.036 1633.67 499.68 1640.37 467.177 1644.34 z" fill="rgb(245,179,94)" transform="translate(0,0)"></path>
<path d="M 1438.74 380.486 C 1445.83 379.927 1471.49 384.251 1480.26 385.119 C 1509.98 388.062 1540.43 391.973 1570.18 394.335 C 1578.3 399.238 1597.5 416.719 1604.82 423.779 C 1675.8 492.181 1726.02 576.002 1749.68 671.731 C 1766.28 738.903 1765.35 785.026 1765.19 852.399 L 1764.9 961.308 C 1746.57 938.36 1728.24 932.92 1700.26 942.855 C 1701.44 912.573 1700.64 878.54 1700.51 848.027 C 1699.96 820.375 1700.9 792.241 1699.25 764.648 C 1689.81 606.158 1584.67 445.543 1438.74 380.486 z" fill="rgb(0,0,0)" transform="translate(0,0)"></path>
<path d="M 1510.18 981.951 C 1509.24 1014.69 1508.96 1047.44 1509.34 1080.18 C 1509.43 1099.08 1510.15 1122.59 1509.15 1141.04 C 1450.63 1135.65 1388.82 1132.28 1330.97 1125.84 C 1329.42 1085.04 1330.73 1036.74 1330.8 995.152 C 1348.99 992.48 1377.92 991.143 1396.9 989.794 L 1510.18 981.951 z" fill="rgb(0,0,0)" transform="translate(0,0)"></path>
<path d="M 1700.26 942.855 C 1728.24 932.92 1746.57 938.36 1764.9 961.308 C 1764.13 1025.97 1764.85 1089.36 1764.89 1153.96 C 1747.07 1177.45 1727.68 1181.95 1700.3 1173.12 C 1692.46 1168.47 1685.06 1159.18 1679.59 1152.16 C 1676.05 1152.14 1675.78 1152.24 1672.21 1151.35 C 1675.22 1151.46 1676.81 1151.88 1679.26 1150.2 C 1675.6 1133.77 1675.73 1131.16 1675.8 1114.68 L 1675.87 1073.14 L 1675.66 1014.93 C 1675.61 1000.28 1674.98 984.12 1677.26 969.79 C 1682.15 958.184 1689.4 949.281 1700.26 942.855 z" fill="rgb(245,179,94)" transform="translate(0,0)"></path>
<path d="M 1677.26 969.79 C 1674.98 984.12 1675.61 1000.28 1675.66 1014.93 L 1675.87 1073.14 L 1675.8 1114.68 C 1675.73 1131.16 1675.6 1133.77 1679.26 1150.2 C 1676.81 1151.88 1675.22 1151.46 1672.21 1151.35 C 1639.78 1150.31 1606.82 1145.91 1574.55 1144.78 C 1576.16 1090.86 1573.39 1032.15 1574.49 977.267 C 1607.13 976.223 1643.69 971.394 1677.26 969.79 z" fill="rgb(0,0,0)" transform="translate(0,0)"></path>
<path d="M 1510.18 981.951 C 1511.11 969.888 1510.82 960.17 1519.41 950.302 C 1524.56 944.283 1531.96 940.651 1539.87 940.261 C 1548.79 939.877 1557.49 943.122 1563.98 949.258 C 1573.08 957.771 1574.33 965.839 1574.49 977.267 C 1573.39 1032.15 1576.16 1090.86 1574.55 1144.78 C 1573.59 1154.09 1571.68 1161.69 1565.13 1168.84 C 1559.23 1175.22 1550.97 1178.92 1542.28 1179.07 C 1520.07 1179.64 1508.42 1161.61 1509.15 1141.04 C 1510.15 1122.59 1509.43 1099.08 1509.34 1080.18 C 1508.96 1047.44 1509.24 1014.69 1510.18 981.951 z" fill="rgb(245,179,94)" transform="translate(0,0)"></path>
<path d="M 1265.04 995.369 C 1265.02 981.848 1264.6 968.841 1274.8 958.147 C 1280.7 951.912 1288.91 948.384 1297.5 948.392 C 1306.19 948.455 1314.76 952.324 1320.73 958.595 C 1331.08 969.486 1330.86 981.403 1330.8 995.152 C 1330.73 1036.74 1329.42 1085.04 1330.97 1125.84 C 1331.02 1127.81 1331.05 1129.78 1331.06 1131.76 C 1331.06 1165 1300.07 1181.3 1273.6 1158.73 C 1265.12 1151.51 1264.83 1135.58 1265.32 1124.77 C 1266.32 1117.57 1265.62 1090.19 1265.56 1082.04 L 1265.04 995.369 z" fill="rgb(245,179,94)" transform="translate(0,0)"></path>
<path d="M 716.075 966.484 C 718.035 966.371 717.631 966.836 717.582 968.598 C 716.673 968.816 716.636 968.963 716.128 968.663 C 716.023 967.933 716.051 967.246 716.075 966.484 z" fill="rgb(239,233,234)" transform="translate(0,0)"></path>
<metadata><recraft-signature>{"signed_by": "recraft", "signature_b64": "lwn2GKpTK2iFStsD92P3B80mmAdg9mUA46WXmSwLmz1/0cblPhCz9C9k7srXlUISPsWA0n0pOIZ3xVEvT81rCw==", "signing_algo": "Ed25519", "generation_timestamp": 1772777076, "identifier": "608b3ca2-0ac2-482e-aa62-d43f4bead4d6"}</recraft-signature></metadata></svg>