<svg xmlns="http://www.w3.org/2000/svg" height="1024" preserveAspectRatio="none" style="display: block;" version="1.1" viewBox="0 0 2048 2048" width="1024">
<path d="M 0 0 L 2048 0 L 2048 2048 L 0 2048 L 0 0 z" fill="rgb(255,255,255)" transform="translate(0,0)"></path>
<path d="M 656.846 276.421 C 671.511 275.355 690.454 275.846 705.409 275.875 L 784.174 276.029 L 1023.98 275.983 L 1023.9 357.85 C 1099.05 325.869 1187.23 330.353 1258.47 369.558 C 1312.31 399.184 1359.79 449.039 1383.01 506.085 C 1418.7 504.888 1447.11 505.288 1481.63 517.031 C 1540.64 536.878 1589.22 579.542 1616.53 635.482 C 1643.79 691.197 1646.11 754.664 1626.33 813.121 C 1632.9 819.057 1639.73 824.588 1646.4 830.411 C 1693.58 871.213 1722.36 929.287 1726.25 991.544 C 1729.9 1055 1708.27 1117.33 1666.11 1164.89 C 1621.87 1214.85 1567.93 1240.05 1501.85 1244.15 C 1494.51 1286.52 1483.85 1317.36 1460.24 1354.01 C 1427.33 1405.14 1378.79 1444.27 1321.84 1465.59 C 1304.88 1471.75 1288.19 1475.25 1270.65 1479.07 C 1276.34 1536.06 1265.87 1582.93 1235.9 1631.92 C 1188.13 1708.14 1112.2 1743.07 1024.53 1746.78 L 1024.13 1774.43 L 796.284 1774.07 L 716.143 1774.07 C 694.264 1774.19 671.813 1774.85 650.044 1773.01 C 565.805 1765.09 486.086 1731.27 421.847 1676.21 C 336.846 1602.36 286.901 1506.62 278.714 1393.5 C 275.872 1354.22 277.441 1300.57 277.458 1259.84 L 277.71 1024.5 L 277.627 792.452 C 277.61 724.763 272.771 655.841 288.437 590.092 C 304.82 521.328 334.955 466.07 381.07 413.196 C 451.684 333.441 550.62 284.372 656.846 276.421 z" fill="rgb(0,0,0)" transform="translate(0,0)"></path>
<path d="M 669.508 514.173 C 732.789 371.98 875.808 300.698 1024.05 363.782 C 1025.07 444.566 1024.14 527.268 1024.04 608.186 C 1011.62 612.825 998.824 617.668 986.587 622.766 C 869.819 671.408 750.073 716.217 635.363 769.582 C 631.624 795.525 632.921 824.492 634.45 850.719 C 639.334 948.098 662.57 1043.68 702.933 1132.43 C 718.817 1168.23 744.983 1209.53 768.665 1240.71 C 837.294 1331.07 918.326 1385.74 1023.38 1426.41 L 1024.13 1427.35 C 1023.18 1461.55 1024.14 1501.12 1024.18 1535.73 L 1024.24 1746.31 C 1019.06 1746.26 1013.87 1746.07 1008.69 1745.74 C 918.607 1739.55 834.32 1676.22 802.601 1592.07 C 786.8 1550.15 785.997 1516.9 789.217 1473.29 C 734.755 1463.97 694.696 1450.87 650.434 1414.49 C 608.45 1379.97 579.784 1334.45 566.8 1281.5 C 563.385 1267.58 562.229 1251.44 560.892 1237.08 C 481.892 1232.3 417.576 1198.4 372.639 1131.85 C 338.1 1080.7 329.707 1018.24 342.09 958.511 C 352.927 906.24 387.315 851.042 432.532 821.731 C 421.304 792.077 416.317 760.425 417.885 728.755 C 421.04 668.707 447.61 612.289 491.892 571.61 C 528.014 539.007 573.632 518.835 622.057 514.051 C 638.998 512.539 652.579 513.399 669.508 514.173 z" fill="rgb(255,255,255)" transform="translate(0,0)"></path>
<path d="M 1024.1 609.29 C 1154.86 662.307 1284.55 717.932 1413.08 776.132 C 1417.3 1030.89 1314.59 1284.96 1078.33 1402.83 C 1062.1 1410.92 1041.15 1421.74 1024.13 1427.35 L 1023.38 1426.41 C 1024.67 1420.14 1024.22 1402.35 1024.18 1395.28 L 1023.82 1342.98 C 903.761 1298.51 825.422 1227.84 771.055 1110.57 C 725.804 1012.96 709.834 922.919 709.154 815.821 C 743.87 799.538 788.362 782.253 824.383 767.182 C 891.194 739.588 957.712 711.291 1023.93 682.295 C 1024.13 657.96 1024.19 633.625 1024.1 609.29 z" fill="rgb(249,166,16)" transform="translate(0,0)"></path>
<path d="M 1027.33 813.249 C 1035.63 816.15 1047.81 821.63 1056.41 825.08 L 1119.44 850.211 C 1151.41 862.966 1188.19 876.07 1219.2 889.917 C 1212.92 936.246 1210.54 970.477 1195.78 1016.65 C 1167.36 1105.55 1117.69 1173.49 1034.73 1217.24 C 1033.43 1217.92 1029.59 1219.72 1028.48 1219.45 C 1003.96 1213.63 967.135 1183.84 951.179 1168.45 C 870.283 1090.38 846.714 998.815 844.349 890.333 C 861.174 883.721 878.763 875.248 895.624 868.183 C 939.237 849.907 983.186 830.045 1027.33 813.249 z" fill="rgb(0,0,0)" transform="translate(0,0)"></path>
<path d="M 1772.57 1224.64 C 1775.41 1233.35 1773.83 1348.93 1773.81 1363.14 C 1774.49 1472.81 1730.73 1578.09 1652.51 1654.97 C 1584.92 1722.15 1496.17 1763.89 1401.32 1773.12 C 1381.72 1774.84 1363.26 1774.32 1343.64 1774.23 L 1276.38 1774.1 L 1275.8 1773.66 C 1276.15 1772.74 1304.14 1743.46 1307.56 1739.5 C 1343.29 1697.99 1367.68 1652.11 1383.43 1599.7 C 1386.04 1591.01 1392.02 1573.53 1392.45 1564.88 C 1468.2 1527.08 1526.4 1478.93 1571.86 1406.85 C 1585.05 1385.93 1593.2 1365.99 1604.97 1346.34 C 1610.7 1343.87 1617.89 1341.52 1623.85 1339.4 C 1685.44 1317.51 1736.41 1279.62 1772.57 1224.64 z" fill="rgb(0,0,0)" transform="translate(0,0)"></path>
<path d="M 1327.67 276.364 C 1330.06 276.241 1332.46 276.139 1334.85 276.056 C 1359.64 275.241 1388.05 275.146 1412.63 277.971 C 1500.45 288.913 1582.55 327.386 1647.16 387.874 C 1721.55 457.381 1769.64 557.392 1773.18 659.465 C 1775.27 672.523 1775.26 772.347 1773.18 785.638 C 1773.9 782.271 1772.64 788.817 1772.7 783.483 C 1772.87 769.165 1770.71 747.597 1771.11 734.275 C 1770.92 723.609 1768.96 710.692 1767.32 700.061 C 1741.74 534.822 1625.49 406.971 1456.75 384.382 C 1450.54 377.999 1443.18 368.042 1436.59 360.578 C 1413.3 334.232 1385.23 305.338 1355.56 286.264 C 1349.46 282.343 1334.31 278.212 1327.67 276.364 z" fill="rgb(0,0,0)" transform="translate(0,0)"></path>
<path d="M 1773.18 659.465 C 1775.27 672.523 1775.26 772.347 1773.18 785.638 C 1773.9 782.271 1772.64 788.817 1772.7 783.483 C 1772.87 769.165 1770.71 747.597 1771.11 734.275 L 1772.09 734.747 C 1775.36 731.386 1772.96 669.624 1773.18 659.465 z" fill="rgb(109,106,110)" transform="translate(0,0)"></path>
<metadata><recraft-signature>{"signed_by": "recraft", "signature_b64": "VwsKNzZx3rA9YRcWzDKCYC/djFoBw2ru8y2lQWEPk/KlruW0bdyN3wXCjh+7s5y4l/kdpxxqHLhL8sO9cdb+CQ==", "signing_algo": "Ed25519", "generation_timestamp": 1772777096, "identifier": "3c94c78a-1ce3-470b-8b98-d0f1280e7506"}</recraft-signature></metadata></svg>