<svg xmlns="http://www.w3.org/2000/svg" height="1024" preserveAspectRatio="none" style="display: block;" version="1.1" viewBox="0 0 2048 2048" width="1024">
<path d="M 0 0 L 30.9205 0 L 64.0664 0 L 93.8786 0 L 126.1 0 L 156.745 0 L 252.095 0 L 281.872 0 L 315.138 0 L 345.958 0 L 536.11 0 L 1507.7 0 L 1587.97 0 L 1616.52 0 L 1646.91 0 L 1680.08 0 L 1709.91 0 L 1743.13 0 L 1772.82 0 L 1804.6 0 L 1835.59 0 L 1868.02 0 L 1897.96 0 L 1930.6 0 L 1960.04 0 L 1994.19 0 L 2024.06 0 L 2048 0 L 2048 32.2708 L 2048 64.0072 L 2048 96.51 L 2048 127.444 L 2048 159.165 L 2048 191.146 L 2048 223.677 L 2048 255.357 L 2048 286.961 L 2048 317.909 L 2048 534.198 L 2048 1509.83 L 2048 2048 L 1509.51 2048 L 539.1 2048 L 383.773 2048 L 352.13 2048 L 258.836 2048 L 229.158 2048 L 196.924 2048 L 166.278 2048 L 133.51 2048 L 104.028 2048 L 70.9282 2048 L 40.4312 2048 L 0 2048 L 0 1507.46 L 0 537.253 L 0 413.688 L 0 382.876 L 0 350.225 L 0 317.878 L 0 286.054 L 0 255.57 L 0 221.745 L 0 192.415 L 0 157.744 L 0 129.771 L 0 95.8412 L 0 65.3332 L 0 31.9432 L 0 0 z" fill="rgb(0,0,0)" transform="translate(0,0)"></path>
<path d="M 2048 1509.83 L 2048 2048 L 1509.51 2048 C 1515.17 2046.59 1532.64 2045.05 1539.24 2044.27 C 1553.35 2042.6 1567.38 2040.27 1581.26 2037.26 C 1665.47 2019.23 1744.92 1983.65 1814.45 1932.84 C 1937.36 1843.09 2021.13 1704.59 2043.11 1554.15 C 2045.25 1539.52 2045.71 1524.41 2048 1509.83 z" fill="rgb(246,246,245)" transform="translate(0,0)"></path>
<path d="M 0 1507.46 C 1.89433 1520.49 2.46507 1533.94 4.06118 1547.06 C 22.4558 1698.16 101.316 1829.76 219.663 1923.64 C 222.253 1925.61 224.799 1927.52 227.341 1929.56 C 298.422 1982.56 380.256 2019.35 467.083 2037.32 C 481.715 2040.35 496.473 2042.72 511.315 2044.43 C 517.8 2045.21 533.473 2046.64 539.1 2048 L 383.773 2048 L 352.13 2048 L 258.836 2048 L 229.158 2048 L 196.924 2048 L 166.278 2048 L 133.51 2048 L 104.028 2048 L 70.9282 2048 L 40.4312 2048 L 0 2048 L 0 1507.46 z" fill="rgb(246,246,245)" transform="translate(0,0)"></path>
<path d="M 259.202 1988.22 C 269.44 1988.11 279.679 1988.06 289.918 1988.06 C 290.076 1999.05 289.986 2008.58 289.851 2019.58 C 280.23 2019.78 268.177 2019.38 258.926 2020.01 C 259.454 2011.16 259.13 1997.46 259.202 1988.22 z" fill="rgb(254,254,254)" transform="translate(0,0)"></path>
<path d="M 197.391 1925 C 207.625 1924.64 209.803 1924.78 219.663 1923.64 C 222.253 1925.61 224.799 1927.52 227.341 1929.56 C 227.129 1938.03 227.068 1946.5 227.159 1954.97 C 216.735 1954.9 208.539 1955.46 197.782 1954.9 C 196.919 1944.99 197.389 1934.98 197.391 1925 z" fill="rgb(254,254,254)" transform="translate(0,0)"></path>
<path d="M 352.378 2021.2 C 362.509 2021.42 372.643 2021.28 382.772 2021.19 C 383.398 2030.72 383.678 2038.49 383.773 2048 L 352.13 2048 L 352.378 2021.2 z" fill="rgb(254,254,254)" transform="translate(0,0)"></path>
<path d="M 166.13 2020.3 L 195.715 2020.14 C 195.991 2029.43 196.394 2038.72 196.924 2048 L 166.278 2048 C 166.376 2038.77 166.326 2029.53 166.13 2020.3 z" fill="rgb(254,254,254)" transform="translate(0,0)"></path>
<path d="M 40.1737 2021.06 L 55.0002 2021.01 C 60.52 2020.94 65.8728 2020.88 71.3942 2020.94 C 70.9433 2030.18 70.9452 2038.75 70.9282 2048 L 40.4312 2048 L 40.1737 2021.06 z" fill="rgb(254,254,254)" transform="translate(0,0)"></path>
<path d="M 258.926 2020.01 C 258.346 2027.41 258.81 2040.1 258.836 2048 L 229.158 2048 L 229.006 2020.47 L 251.502 2020.31 C 254.505 2020.31 255.936 2020.3 258.926 2020.01 z" fill="rgb(254,254,254)" transform="translate(0,0)"></path>
<path d="M 103.93 2020.59 C 113.918 2020.53 123.602 2020.93 133.522 2020.99 L 133.51 2048 L 104.028 2048 C 103.695 2038.97 104.03 2029.71 103.93 2020.59 z" fill="rgb(254,254,254)" transform="translate(0,0)"></path>
<path d="M 121.139 1892.49 C 126.05 1892.43 129.257 1892.62 134.11 1892.86 C 133.843 1903.12 133.723 1913.38 133.75 1923.65 C 128.916 1923.61 124.083 1923.62 119.25 1923.67 C 113.879 1923.73 108.507 1923.74 103.136 1923.7 L 103.117 1893.06 C 109.126 1892.93 115.133 1892.74 121.139 1892.49 z" fill="rgb(254,254,254)" transform="translate(0,0)"></path>
<path d="M 40.3364 1956.96 C 50.745 1956.97 60.3652 1956.67 70.8189 1956.95 C 70.8267 1966.5 71.0095 1978 70.6486 1987.45 C 60.7871 1987.67 50.9232 1987.75 41.0595 1987.7 C 40.7833 1977.63 40.4353 1967 40.3364 1956.96 z" fill="rgb(254,254,254)" transform="translate(0,0)"></path>
<path d="M 135.146 1988.47 L 164.716 1988.19 C 164.719 1998.36 165.017 2009.46 164.637 2019.51 L 135.048 2019.81 C 135.039 2011 134.582 1996.71 135.146 1988.47 z" fill="rgb(254,254,254)" transform="translate(0,0)"></path>
<path d="M 228.267 1957.21 C 238.647 1957.25 249.028 1957.21 259.408 1957.09 C 259.92 1967.38 259.457 1976.52 258.873 1986.78 C 248.634 1986.77 238.759 1986.63 228.484 1986.8 C 228.26 1977.2 228.305 1966.87 228.267 1957.21 z" fill="rgb(254,254,254)" transform="translate(0,0)"></path>
<path d="M 75.6557 1924.52 L 101.848 1924.15 C 101.616 1929.25 102.605 1954.59 98.826 1955.55 L 72.9567 1955.8 C 73.0702 1945.68 72.8481 1935.55 72.5755 1925.46 C 72.5608 1924.92 75.4625 1924.55 75.6557 1924.52 z" fill="rgb(254,254,254)" transform="translate(0,0)"></path>
<path d="M 72.2731 1861.51 C 82.1359 1861.29 92.0007 1861.18 101.866 1861.17 L 101.501 1891.58 C 91.7285 1891.53 81.9553 1891.6 72.1841 1891.79 C 72.1468 1882.78 71.9533 1870.32 72.2731 1861.51 z" fill="rgb(254,254,254)" transform="translate(0,0)"></path>
<path d="M 40.7017 1766.2 L 70.1769 1766.19 C 71.1803 1775.76 70.8218 1786.1 70.7981 1795.8 C 60.9182 1795.79 51.114 1795.99 41.2031 1795.93 C 41.0568 1786.06 41.1477 1776.05 40.7017 1766.2 z" fill="rgb(254,254,254)" transform="translate(0,0)"></path>
<path d="M 85.5916 1988.5 C 91.1176 1988.41 96.5289 1988.47 102.044 1988.46 C 102.066 1998.53 102.008 2008.59 101.87 2018.66 C 97.833 2018.8 93.7542 2018.81 89.709 2018.88 C 84.2338 2018.97 78.7578 2019.01 73.2819 2018.99 C 73.1841 2008.96 73.3837 1999.02 73.3891 1989.01 C 77.5371 1988.85 81.4284 1988.74 85.5916 1988.5 z" fill="rgb(254,254,254)" transform="translate(0,0)"></path>
<path d="M 135.163 1925.07 C 144.888 1925.14 154.613 1925.05 164.335 1924.78 C 164.14 1934.49 163.594 1945.11 164.472 1954.76 L 135.187 1954.89 L 135.163 1925.07 z" fill="rgb(254,254,254)" transform="translate(0,0)"></path>
<path d="M 166.692 1957.06 C 176.432 1956.99 186.173 1956.97 195.913 1957 L 195.765 1986.52 C 186.15 1986.75 176.534 1986.64 166.924 1986.77 C 167.087 1976.24 167.039 1967.56 166.692 1957.06 z" fill="rgb(254,254,254)" transform="translate(0,0)"></path>
<path d="M 41.2385 1893.37 C 50.8599 1893.09 60.6166 1893.21 70.2705 1893.06 C 69.9274 1903.18 70.092 1912.75 69.8491 1922.73 L 41.266 1922.93 L 41.2385 1893.37 z" fill="rgb(254,254,254)" transform="translate(0,0)"></path>
<path d="M 198.258 1988.45 C 207.575 1988.54 217.465 1988.4 226.841 1988.32 C 226.62 1998.26 226.742 2008.07 226.752 2018 L 198.545 2018.16 C 199.002 2006.37 198.587 1999.89 198.258 1988.45 z" fill="rgb(254,254,254)" transform="translate(0,0)"></path>
<path d="M 1646.91 0 L 1680.08 0 L 1709.91 0 L 1743.13 0 L 1772.82 0 L 1804.6 0 L 1835.59 0 L 1868.02 0 L 1897.96 0 L 1930.6 0 L 1960.04 0 L 1994.19 0 L 2024.06 0 L 2048 0 L 2048 32.2708 L 2048 64.0072 L 2048 96.51 L 2048 127.444 L 2048 159.165 L 2048 191.146 L 2048 223.677 L 2048 255.357 L 2048 286.961 L 2048 317.909 L 2048 534.198 C 2046.62 528.742 2045.94 518.875 2045.26 512.978 C 2031.36 392.801 1981.14 282.624 1900.96 192.129 C 1899.91 190.898 1898.84 189.682 1897.75 188.482 C 1826.6 109.968 1744.43 60.7366 1644.95 26.9387 C 1647.4 20.0053 1646.93 7.58242 1646.91 0 z" fill="rgb(246,246,245)" transform="translate(0,0)"></path>
<path d="M 1743.13 0 L 1772.82 0 C 1773.1 10.962 1772.93 21.5458 1772.84 32.4913 L 1802.96 32.3505 L 1802.96 64.1966 C 1792.11 64.6089 1783.93 64.417 1773.06 64.0617 L 1773.12 31.9179 C 1762.94 31.9066 1752.74 32.132 1742.58 32.0247 C 1742.95 21.099 1742.38 10.937 1743.13 0 z" fill="rgb(254,254,254)" transform="translate(0,0)"></path>
<path d="M 1930.6 0 L 1960.04 0 C 1960.24 9.62248 1959.9 22.7992 1960.55 31.8416 C 1950.48 31.7263 1940.41 31.7536 1930.34 31.9233 C 1930.32 21.1421 1930.07 10.7955 1930.6 0 z" fill="rgb(254,254,254)" transform="translate(0,0)"></path>
<path d="M 1994.19 0 L 2024.06 0 C 2024.27 10.6264 2024.08 21.2051 2024.06 31.8314 L 1994.06 31.8897 C 1994.06 21.4653 1993.86 10.3585 1994.19 0 z" fill="rgb(254,254,254)" transform="translate(0,0)"></path>
<path d="M 1804.6 0 L 1835.59 0 L 1835.39 30.859 C 1825.23 30.7325 1815.06 30.7585 1804.89 30.9369 L 1804.6 0 z" fill="rgb(254,254,254)" transform="translate(0,0)"></path>
<path d="M 1868.02 0 L 1897.96 0 L 1897.89 31.0376 C 1887.96 31.106 1878.03 31.1239 1868.09 31.0913 C 1867.75 20.7307 1867.73 10.3621 1868.02 -1.77636e-15 z" fill="rgb(254,254,254)" transform="translate(0,0)"></path>
<path d="M 1680.08 0 L 1709.91 0 L 1709.98 31.0149 C 1699.99 31.0101 1690.02 30.812 1680.03 30.8736 C 1679.91 20.597 1680.15 10.3035 1680.08 0 z" fill="rgb(254,254,254)" transform="translate(0,0)"></path>
<path d="M 1900 160.135 C 1909.7 160.064 1918.99 160.025 1928.68 159.793 C 1928.74 170.427 1928.5 180.783 1928.47 191.346 C 1917.64 190.815 1911.5 190.217 1900.96 192.129 C 1899.91 190.898 1898.84 189.682 1897.75 188.482 L 1898.42 186.796 C 1901.01 181.272 1900.01 166.924 1900 160.135 z" fill="rgb(254,254,254)" transform="translate(0,0)"></path>
<path d="M 2024.04 223.836 C 2032.06 223.74 2039.99 223.728 2048 223.677 L 2048 255.357 C 2039.65 255.476 2032.56 255.317 2024.2 255.138 C 2024.16 244.627 2024.22 234.359 2024.04 223.836 z" fill="rgb(254,254,254)" transform="translate(0,0)"></path>
<path d="M 2048 159.165 L 2048 191.146 L 2024.29 190.93 L 2024.06 159.142 C 2032.04 159.056 2040.02 159.064 2048 159.165 z" fill="rgb(254,254,254)" transform="translate(0,0)"></path>
<path d="M 2024.03 286.752 C 2032.24 286.754 2039.78 286.689 2048 286.961 L 2048 317.909 L 2024.39 317.906 L 2024.03 286.752 z" fill="rgb(254,254,254)" transform="translate(0,0)"></path>
<path d="M 2024.15 96.7806 C 2032.18 96.7046 2039.93 96.5066 2048 96.51 L 2048 127.444 C 2040 127.727 2032.33 127.551 2024.34 127.479 L 2024.15 96.7806 z" fill="rgb(254,254,254)" transform="translate(0,0)"></path>
<path d="M 2048 32.2708 L 2048 64.0072 C 2040.36 64.1509 2032.72 64.1403 2025.07 63.9752 C 2025.2 53.59 2025.2 43.2035 2025.07 32.8183 C 2033.4 32.3662 2039.65 32.1737 2048 32.2708 z" fill="rgb(254,254,254)" transform="translate(0,0)"></path>
<path d="M 1964.26 159.366 C 1973.62 159.222 1982.96 159.25 1992.3 159.049 C 1992.09 164.458 1993.37 189.871 1990.02 191.045 C 1980.62 190.961 1971.21 191.003 1961.81 191.173 C 1961.68 183.474 1961.71 168.856 1961.73 160.615 C 1961.73 159.885 1963.63 159.533 1964.26 159.366 z" fill="rgb(254,254,254)" transform="translate(0,0)"></path>
<path d="M 1808.24 64.6014 C 1818.01 63.9912 1825.97 64.1223 1835.74 64.2918 C 1835.49 69.2828 1836.47 93.9719 1833.02 95.1321 C 1822.6 94.7397 1814.45 94.8178 1803.99 93.9118 C 1803.95 89.7696 1803.51 70.305 1804.58 65.3568 C 1804.74 64.6295 1807.31 64.6239 1808.24 64.6014 z" fill="rgb(254,254,254)" transform="translate(0,0)"></path>
<path d="M 1993.19 65.4449 C 2003.4 65.0196 2013.71 65.203 2023.97 65.0136 C 2023.67 75.816 2023.49 85.2777 2023.49 96.0801 C 2013.16 96.1918 2003.46 96.3184 1993.09 96.1971 C 1993.07 86.6748 1992.8 74.8807 1993.19 65.4449 z" fill="rgb(254,254,254)" transform="translate(0,0)"></path>
<path d="M 1836.24 96.5252 C 1846.42 96.2744 1856.62 96.1271 1866.81 96.0833 C 1866.72 106.441 1866.35 116.601 1866.07 126.932 C 1855.71 126.881 1845.71 126.68 1835.35 127.012 C 1835.91 117.271 1835.12 105.706 1836.24 96.5252 z" fill="rgb(254,254,254)" transform="translate(0,0)"></path>
<path d="M 1899.09 33.2705 C 1908.99 32.9439 1918.97 33.0616 1928.91 32.9147 L 1928.88 64.2099 C 1918.64 64.2781 1909.16 64.4676 1898.85 64.1567 C 1898.96 54.4414 1898.66 42.7175 1899.09 33.2705 z" fill="rgb(254,254,254)" transform="translate(0,0)"></path>
<path d="M 1963.65 33.5313 C 1973.31 33.0387 1982.38 33.2036 1992 33.0188 C 1991.96 37.9302 1992.7 61.6661 1990.79 64.2906 C 1981.2 64.0969 1971.54 64.1899 1961.95 64.3004 C 1961.98 59.3873 1960.77 35.1962 1963.65 33.5313 z" fill="rgb(254,254,254)" transform="translate(0,0)"></path>
<path d="M 1898.41 96.1948 L 1929.76 96.0893 C 1929.25 106.621 1929.15 116.221 1929.09 126.786 L 1898.89 126.894 C 1898.84 117.058 1898.97 108.027 1898.49 98.1748 L 1898.41 96.1948 z" fill="rgb(254,254,254)" transform="translate(0,0)"></path>
<path d="M 1961.09 224.176 C 1971.25 224.144 1981.87 224.196 1991.98 224.012 C 1991.85 234.069 1991.93 244.507 1991.74 254.445 L 1961.41 254.471 C 1960.89 244.197 1961.03 234.456 1961.09 224.176 z" fill="rgb(254,254,254)" transform="translate(0,0)"></path>
<path d="M 1992.89 128.212 C 2003.02 127.951 2013.15 127.875 2023.28 127.983 C 2022.84 138.482 2022.97 148.404 2022.95 158.878 C 2012.81 158.934 2003.15 159.045 1992.98 158.878 L 1992.89 128.212 z" fill="rgb(254,254,254)" transform="translate(0,0)"></path>
<path d="M 1962.24 96.5636 C 1973.01 96.3801 1981.14 96.2824 1991.96 96.558 C 1991.92 106.723 1991.78 116.887 1991.53 127.049 C 1981.62 127.195 1971.95 127.131 1962.06 127.145 C 1962.03 119.75 1961.58 103.06 1962.24 96.5636 z" fill="rgb(254,254,254)" transform="translate(0,0)"></path>
<path d="M 1930.11 128.051 C 1940.23 127.953 1950.34 127.925 1960.46 127.966 C 1960.3 139.057 1960.2 147.349 1960.79 158.488 C 1950.46 158.437 1940.45 158.353 1930.11 158.448 L 1930.11 128.051 z" fill="rgb(254,254,254)" transform="translate(0,0)"></path>
<path d="M 1870.24 64.5217 C 1879.82 64.4714 1888.34 64.4136 1897.94 64.5304 C 1897.91 68.9088 1898.29 92.5064 1896.7 94.8978 L 1867.79 95.1236 C 1867.77 87.7446 1867.61 73.4261 1868.01 65.6351 C 1868.04 65.141 1870.05 64.5849 1870.24 64.5217 z" fill="rgb(254,254,254)" transform="translate(0,0)"></path>
<path d="M 1993.07 192.065 C 2003.43 191.787 2012.51 191.606 2022.92 191.875 C 2022.84 202.095 2022.48 211.896 2022.49 222.193 C 2012.73 222.501 2002.97 222.589 1993.2 222.456 C 1993.06 212.278 1993.24 202.205 1993.07 192.065 z" fill="rgb(254,254,254)" transform="translate(0,0)"></path>
<path d="M 1992.92 256.116 C 2003 255.986 2013.07 255.972 2023.15 256.075 C 2022.98 266.028 2022.94 275.983 2023 285.937 C 2013.04 285.924 2003.07 286.006 1993.1 286.184 C 1993.08 276.288 1993.22 265.968 1992.92 256.116 z" fill="rgb(254,254,254)" transform="translate(0,0)"></path>
<path d="M 1930.19 65.5161 C 1940.36 65.1798 1949.97 65.1931 1960.12 65.0413 C 1960.02 75.2944 1960.13 84.8077 1960.6 95.0123 C 1950.68 95.2836 1940.76 95.4584 1930.83 95.5368 L 1930.73 94.0235 C 1930.32 88.4776 1929.99 70.8989 1930.19 65.5161 z" fill="rgb(254,254,254)" transform="translate(0,0)"></path>
<path d="M 1854.75 32.4993 C 1858.7 32.478 1861.94 32.6349 1865.95 32.4772 C 1865.88 42.9156 1865.87 53.3544 1865.92 63.793 L 1851.87 63.938 C 1846.92 63.9531 1841.98 63.9385 1837.03 63.8943 L 1837.08 32.84 C 1843.09 32.7181 1848.68 32.7852 1854.75 32.4993 z" fill="rgb(254,254,254)" transform="translate(0,0)"></path>
<path d="M 0 0 L 30.9205 0 L 64.0664 0 L 93.8786 0 L 126.1 0 L 156.745 0 L 252.095 0 L 281.872 0 L 315.138 0 L 345.958 0 L 536.11 0 C 522.638 2.49057 508.461 3.36542 494.889 5.39884 C 474.641 8.43235 453.274 12.2722 433.481 17.4703 C 297.866 53.1705 179.293 135.781 98.8221 250.63 C 68.5046 294.747 49.2199 333.834 30.8341 383.903 C 28.7402 390.496 24.1589 403.104 22.8107 409.416 L 11.826 411.494 C 7.95825 412.265 3.92966 412.906 0 413.688 L 0 382.876 L 0 350.225 L 0 317.878 L 0 286.054 L 0 255.57 L 0 221.745 L 0 192.415 L 0 157.744 L 0 129.771 L 0 95.8412 L 0 65.3332 L 0 31.9432 L 0 0 z" fill="rgb(246,246,245)" transform="translate(0,0)"></path>
<path d="M 0 255.57 L 32.035 255.096 C 32.0367 264.675 32.1663 274.412 31.9251 283.987 C 31.7881 289.423 37.7726 285.492 40.2092 286.775 C 41.1641 289.521 33.4898 286.83 33.3254 288.825 C 32.6273 297.297 33.0158 306.405 33 315 C 38.0281 315 48.8115 314.704 53.3405 315.172 C 53.4353 315.32 53.5301 315.467 53.6249 315.615 L 53.5436 315.745 C 48.5739 315.264 37.5853 316.12 32.0674 316.368 C 31.9401 306.423 31.9625 296.477 32.1347 286.533 C 21.0819 286.8 11.0135 287.004 0 286.054 L 0 255.57 z" fill="rgb(254,254,254)" transform="translate(0,0)"></path>
<path d="M 315.138 0 L 345.958 0 C 345.921 11.0862 346.075 21.7011 345.852 32.8554 C 335.708 32.56 325.318 32.6736 315.091 32.5067 L 315.138 0 z" fill="rgb(254,254,254)" transform="translate(0,0)"></path>
<path d="M 0 317.878 C 10.724 317.525 20.8162 317.673 31.495 317.749 C 31.0352 328.374 31.1283 339.132 30.9337 349.833 C 20.5985 349.87 10.3057 350.265 0 350.225 L 0 317.878 z" fill="rgb(254,254,254)" transform="translate(0,0)"></path>
<path d="M 0 0 L 30.9205 0 L 30.89 27.0001 C 30.8782 28.5524 30.9351 30.1792 30.9349 31.753 C 20.6448 31.8079 10.276 31.9878 0 31.9432 L 0 0 z" fill="rgb(254,254,254)" transform="translate(0,0)"></path>
<path d="M 126.1 0 L 156.745 0 L 156.789 31.8733 C 146.737 31.9719 136.684 31.9952 126.632 31.9434 C 126.261 21.2997 126.084 10.6501 126.1 0 z" fill="rgb(254,254,254)" transform="translate(0,0)"></path>
<path d="M 252.095 0 L 281.872 0 L 281.957 32.5138 C 271.765 32.9519 262.387 32.8295 252.216 32.7144 C 252.359 21.8097 252.319 10.9033 252.095 -3.55271e-15 z" fill="rgb(254,254,254)" transform="translate(0,0)"></path>
<path d="M 0 192.415 C 9.3039 191.653 22.2147 192.056 31.8757 192.028 L 31.7522 222.527 C 20.8117 222.621 10.8844 222.566 0 221.745 L 0 192.415 z" fill="rgb(254,254,254)" transform="translate(0,0)"></path>
<path d="M 64.0664 0 L 93.8786 0 L 93.872 31.7918 C 83.9028 31.7748 73.9337 31.8448 63.9657 32.0019 L 64.0664 0 z" fill="rgb(254,254,254)" transform="translate(0,0)"></path>
<path d="M 0 65.3332 C 10.3883 64.9532 20.5477 65.1298 30.9324 65.1884 L 30.826 95.8286 C 20.6601 95.8135 10.1076 96.0298 0 95.8412 L 0 65.3332 z" fill="rgb(254,254,254)" transform="translate(0,0)"></path>
<path d="M 0 129.771 C 9.6633 128.633 21.6312 129.24 31.8187 128.934 C 30.5328 139.132 31.0361 148.545 30.9548 158.834 C 22.2436 158.812 7.83487 159.408 0 157.744 L 0 129.771 z" fill="rgb(254,254,254)" transform="translate(0,0)"></path>
<path d="M 0 382.876 C 5.50165 382.028 26.6525 380.402 30.8341 383.903 C 28.7402 390.496 24.1589 403.104 22.8107 409.416 L 11.826 411.494 C 7.95825 412.265 3.92966 412.906 0 413.688 L 0 382.876 z" fill="rgb(254,254,254)" transform="translate(0,0)"></path>
<path d="M 126.231 128.235 L 157.702 128.046 C 157.16 138.189 157.11 148.392 156.746 158.593 L 126.331 159.113 L 126.231 128.235 z" fill="rgb(254,254,254)" transform="translate(0,0)"></path>
<path d="M 32.2197 160.167 L 63.7328 160.041 C 63.4026 170.058 63.5153 180.688 63.501 190.736 C 53.3039 190.94 43.1651 190.806 32.9794 190.926 C 32.878 180.25 32.7508 170.843 32.2197 160.167 z" fill="rgb(254,254,254)" transform="translate(0,0)"></path>
<path d="M 133.135 64.4592 C 141.111 64.1764 148.93 64.2033 156.909 64.2004 C 156.952 73.4924 156.928 82.7847 156.836 92.0764 C 156.762 95.8253 155.761 95.8953 152.249 95.7182 C 143.823 95.8297 135.397 95.8708 126.97 95.8414 C 126.978 86.8072 126.561 74.5506 127.325 65.4935 C 127.396 64.646 132.718 64.4885 133.135 64.4592 z" fill="rgb(254,254,254)" transform="translate(0,0)"></path>
<path d="M 32.9725 33.1663 C 42.9569 33.244 52.942 33.1966 62.9253 33.0243 C 62.7759 43.3283 62.9572 53.6128 62.803 63.8321 C 52.4611 64.6469 43.2642 64.7437 32.9336 64.7536 C 33.0153 54.2247 33.0283 43.6954 32.9725 33.1663 z" fill="rgb(254,254,254)" transform="translate(0,0)"></path>
<path d="M 69.2357 64.5441 C 78.1028 64.3849 85.1222 64.5813 93.9824 64.7665 C 93.9263 73.6332 94.3107 86.2389 93.2187 95.1046 C 93.1442 95.7092 91.2142 95.7391 90.7484 95.7307 L 89.25 95.7477 L 63.9976 95.9277 C 63.965 87.4453 63.7892 78.9081 63.7167 70.4816 C 63.6916 67.5622 62.7128 64.7043 66.4857 64.6922 C 67.4024 64.6428 68.3191 64.5935 69.2357 64.5441 z" fill="rgb(254,254,254)" transform="translate(0,0)"></path>
<path d="M 95.1566 33.2394 L 125.539 33.1628 C 125.216 43.5033 125.46 53.73 125.066 63.8243 C 115.084 64.2442 105.092 64.3527 95.1032 64.1497 C 95.0541 53.8462 95.0719 43.5426 95.1566 33.2394 z" fill="rgb(254,254,254)" transform="translate(0,0)"></path>
<path d="M 32.3361 224.115 C 42.7937 224.143 53.2514 224.111 63.7088 224.022 C 62.9586 233.991 63.1803 243.939 63.5253 253.929 C 53.3442 253.986 43.1628 253.989 32.9816 253.937 C 32.7721 243.883 32.3898 234.266 32.3361 224.115 z" fill="rgb(254,254,254)" transform="translate(0,0)"></path>
<path d="M 189.171 64.3138 C 199.09 64.0792 209.012 64.0292 218.933 64.1637 C 218.875 73.9148 219.236 85.7705 218.737 95.3128 L 199.5 95.3873 C 195.831 95.3845 192.781 95.4219 189.126 95.5615 L 189.171 64.3138 z" fill="rgb(254,254,254)" transform="translate(0,0)"></path>
<path d="M 220.649 32.5141 C 230.713 32.4222 240.778 32.4758 250.841 32.6748 L 250.791 62.9274 C 240.822 62.8442 230.852 62.8569 220.883 62.9657 C 220.693 52.8163 220.615 42.6652 220.649 32.5141 z" fill="rgb(254,254,254)" transform="translate(0,0)"></path>
<path d="M 175.648 96.5579 C 179.668 96.4652 183.902 96.256 187.906 96.2867 L 187.721 127.021 C 181.648 126.946 175.574 126.917 169.5 126.934 C 165.721 126.91 161.942 126.912 158.163 126.94 C 157.947 116.9 157.88 106.857 157.961 96.8147 L 175.648 96.5579 z" fill="rgb(254,254,254)" transform="translate(0,0)"></path>
<path d="M 95.2862 96.9018 C 105.328 96.9963 115.37 96.9738 125.41 96.8343 C 124.97 107.152 125.006 116.733 124.837 127.031 C 115.051 127.045 105.265 127.156 95.4805 127.365 C 95.3189 117.244 95.6541 106.908 95.2862 96.9018 z" fill="rgb(254,254,254)" transform="translate(0,0)"></path>
<path d="M 97.7246 160.589 C 107.113 160.16 115.485 160.201 124.883 160.195 C 124.834 165.438 125.779 187.879 122.721 190.837 C 113.235 191.119 104.874 191.211 95.3712 191.158 C 95.491 186.393 94.7065 162.101 97.7246 160.589 z" fill="rgb(254,254,254)" transform="translate(0,0)"></path>
<path d="M 64.235 128.491 L 93.9229 128.49 C 93.5131 138.81 93.1133 148.342 93.6249 158.699 C 83.9077 159.096 74.0629 158.916 64.3318 158.871 C 64.0969 150.544 63.762 136.673 64.235 128.491 z" fill="rgb(254,254,254)" transform="translate(0,0)"></path>
<path d="M 179.15 33.5106 C 180.264 33.5086 181.378 33.4924 182.492 33.4623 C 183.91 33.4175 187.446 33.2884 187.455 34.3007 C 187.506 40.3783 187.604 58.4086 187.765 63.5686 C 181.928 63.715 176.089 63.7887 170.25 63.7897 C 167.849 63.8021 158.741 64.6649 158.53 62.6876 C 157.718 55.0461 158.208 41.5681 158.126 34.0856 L 179.15 33.5106 z" fill="rgb(254,254,254)" transform="translate(0,0)"></path>
<path d="M 32.859 97.1974 L 62.9241 97.1184 C 62.7669 106.988 62.8261 116.97 62.7608 126.856 C 52.872 126.822 42.9831 126.842 33.0946 126.917 C 33.1183 117.01 33.0397 107.103 32.859 97.1974 z" fill="rgb(254,254,254)" transform="translate(0,0)"></path>
<path d="M 64.2158 192.191 L 93.9057 192.133 C 93.7283 202.095 93.403 212.553 93.3913 222.446 L 64.5293 222.79 C 64.431 212.625 64.045 202.354 64.2158 192.191 z" fill="rgb(254,254,254)" transform="translate(0,0)"></path>
<path d="M 0 413.688 C 3.92966 412.906 7.95825 412.265 11.826 411.494 L 22.8107 409.416 C 14.9521 436.203 9.00629 461.821 4.91924 489.468 C 2.8647 503.366 2.60447 524.885 0 537.253 L 0 413.688 z" fill="rgb(246,246,245)" transform="translate(0,0)"></path>
<path d="M 1616.52 0 L 1646.91 0 C 1646.93 7.58242 1647.4 20.0053 1644.95 26.9387 C 1636.99 24.2229 1624.11 20.0015 1616.01 18.2969 C 1616.84 11.1378 1616.65 7.17402 1616.52 0 z" fill="rgb(254,254,254)" transform="translate(0,0)"></path>
<path d="M 1587.97 0 L 1616.52 0 C 1616.65 7.17402 1616.84 11.1378 1616.01 18.2969 C 1614.87 17.9468 1613.63 17.5492 1612.47 17.2579 L 1608.47 16.2779 C 1607.03 15.9323 1605.43 15.5314 1603.99 15.2049 L 1599.99 14.2954 C 1594.74 13.1217 1588.27 11.6129 1583.04 10.7615 C 1584.47 8.39074 1586.76 2.81129 1587.97 0 z" fill="rgb(246,246,245)" transform="translate(0,0)"></path>
<path d="M 1507.7 0 L 1587.97 0 C 1586.76 2.81129 1584.47 8.39074 1583.04 10.7615 C 1567.03 7.62846 1551.75 4.9109 1535.5 3.09912 C 1526.93 2.14336 1515.83 1.89601 1507.7 0 z" fill="rgb(254,254,254)" transform="translate(0,0)"></path>
<path d="M 298.379 1068.86 C 374.266 1106.21 427.157 1128.68 512.462 1142.12 C 556.622 1179.77 575.263 1247.16 571.185 1303.03 C 571.11 1314.1 564.813 1342.05 570.387 1351.96 C 594.486 1394.78 626.283 1438.25 651.555 1480.09 C 616.959 1492.4 595.657 1489.18 597.568 1533.55 C 597.932 1542.01 597.144 1554.26 596.988 1563.07 C 564.238 1574.95 527.3 1572.73 494.078 1564.08 C 504.113 1605.24 534.445 1634.38 573.858 1648.22 C 543.88 1696.99 555.303 1700.7 550.778 1754.86 C 541.09 1769.73 531.989 1765.52 516.913 1761.83 C 504.037 1758.68 491.185 1754.62 478.343 1751.44 C 455.447 1745.79 432.165 1737.21 408.433 1736.78 C 383.537 1736.55 358.559 1743.57 339.088 1759.48 C 300.243 1791.24 299.176 1835.48 294.357 1881.3 C 283.656 1872.71 272.241 1864.55 261.548 1855.99 C 118.042 1741.19 53.9032 1557.65 90.8917 1377.69 C 115.758 1256.71 193.785 1137.72 298.379 1068.86 z" fill="rgb(242,53,124)" transform="translate(0,0)"></path>
<path d="M 1747.45 1067.76 C 1751.94 1068.65 1765.22 1080.29 1769.67 1083.68 C 1916.36 1195.47 1995.55 1384.17 1959.11 1567.09 C 1934.78 1689.22 1862.12 1804.83 1756.84 1874.88 C 1748.3 1800.84 1721.39 1736.82 1636.53 1736.85 C 1616.29 1736.8 1593.41 1746.5 1573.78 1751.41 C 1554.06 1756.35 1531.75 1765.7 1511.7 1767.89 C 1507.28 1765.79 1502.19 1763.05 1500.67 1758.13 C 1493.78 1735.87 1500.02 1707.84 1495.61 1685.2 C 1493.6 1674.9 1480.92 1657.17 1475.03 1648.05 C 1517.27 1634.63 1542.15 1606.53 1555.39 1564.67 C 1520.99 1575.36 1487.79 1575.69 1453.65 1564.43 C 1452.15 1547.9 1453.38 1521.69 1447.93 1506.88 C 1442.42 1491.95 1413.26 1486.12 1397.78 1480.6 L 1449.17 1399.27 C 1457.74 1385.67 1466.76 1372.19 1474.72 1358.25 C 1483.35 1343.13 1478.05 1325.93 1477 1309.61 C 1474.46 1270.22 1480.55 1231.61 1498.3 1196.08 C 1507.56 1177.52 1522.31 1155.79 1538.45 1142.4 C 1615.74 1130.45 1679.02 1104.81 1747.45 1067.76 z" fill="rgb(242,53,124)" transform="translate(0,0)"></path>
<path d="M 494.826 88.3401 C 500.689 89.5433 521.716 112.622 526.112 117.668 C 563.213 160.259 576.051 216.187 570.7 271.561 C 570.212 281.687 564.25 302.129 569.129 311.482 C 584.475 340.898 607.401 369.668 624.45 398.266 C 633.987 414.262 643.753 427.628 652.416 443.053 C 589.212 463.11 598.739 465.481 597.403 527.5 C 562.712 541.243 528.28 538.864 492.867 530.041 C 507.338 575.137 529.544 599.156 573.358 616.732 C 568.115 624.121 557.821 638.068 554.872 648.049 C 548.429 672.111 558.887 709.213 546.624 730.73 C 541.063 740.488 510.258 730.174 501.614 727.674 C 443.538 710.881 384.251 686.785 333.971 736.362 C 291.523 778.218 290.209 851.086 289.479 907.335 C 289.438 929.276 291.361 953.759 293.188 975.662 C 290.62 974.125 288.094 972.519 285.613 970.846 C 255.732 950.592 228.873 924.484 204.805 897.704 C 57.5521 733.867 38.4982 483.017 162.563 299.755 C 223.875 208.795 313.735 140.846 417.959 106.635 C 443.082 98.5301 468.95 93.3637 494.826 88.3401 z" fill="rgb(242,53,124)" transform="translate(0,0)"></path>
<path d="M 1551.71 88.8544 C 1552.98 89.0321 1554.25 89.2099 1555.53 89.3877 C 1683.72 110.507 1798.4 181.362 1874.65 286.556 C 1950.29 389.06 1981.92 517.493 1962.55 643.398 C 1941.4 775.821 1867.99 894.214 1758.77 972.024 C 1758.79 951.263 1760.43 927.487 1760.88 906.238 C 1761.52 854.236 1759.64 794.674 1729.31 751.666 C 1679.94 681.645 1610.13 710.6 1543.48 729.406 C 1506.41 740.927 1497.1 739.071 1498.1 697.721 C 1499.05 658.183 1497.51 648.261 1475.49 616.207 C 1480.9 614.29 1486.23 612.142 1491.46 609.767 C 1528.19 592.879 1543.99 565.599 1557.25 529.568 C 1519.86 540.19 1490.27 540.473 1453.52 528.566 C 1452.6 511.997 1453.99 482.363 1446.88 467.92 C 1439.88 453.694 1412.28 447.651 1397.09 442.89 C 1413.41 419.157 1428.35 394.435 1444.01 370.23 C 1454.82 353.042 1466.32 336.426 1476.29 318.714 C 1485.61 302.157 1479.02 283.851 1477.63 266.268 C 1476.57 252.998 1476.75 239.633 1478.12 226.45 C 1483.21 172.573 1509.72 122.996 1551.71 88.8544 z" fill="rgb(242,53,124)" transform="translate(0,0)"></path>
<path d="M 863.896 1069.81 C 867.709 1071.25 881.291 1082.54 885.221 1085.57 C 922.81 1114.54 947.799 1142.66 978.7 1177.75 C 947.587 1232.93 927.781 1274.99 913.012 1337.5 C 878.025 1485.57 899.389 1624.84 980.04 1754.05 C 934.137 1815.34 863.862 1876.01 795.254 1909.97 C 671.4 1971.26 547.525 1982.74 416.26 1939.45 C 400.032 1933.69 381.238 1926.86 366.564 1918.21 C 369.371 1901.99 372.033 1885.74 374.549 1869.48 C 381.629 1821.03 380.77 1806.71 435.433 1823.42 C 454.579 1829.27 476.79 1833.49 495.726 1839.31 C 533.126 1850.8 572.442 1849.01 601.194 1819.66 C 632.52 1788.53 632.754 1749.37 633.014 1707.9 C 649.853 1679.1 677.476 1656.8 656.794 1622.32 C 672.917 1600.82 674.017 1581.5 675.878 1555.63 C 690.456 1550.07 708.22 1548.42 721.703 1540.71 C 733.964 1533.71 744.28 1519.91 747.518 1506.2 C 749.663 1496.85 748.976 1487.07 745.545 1478.1 C 740.414 1464.3 722.067 1438.63 713.381 1425.05 C 692.245 1392.01 669.832 1359.52 648.792 1326.37 C 659.383 1266.2 644.127 1200.89 616.063 1147.27 C 636.022 1144.59 655.718 1143.69 675.95 1140.04 C 737.326 1128.97 811.19 1103.66 863.896 1069.81 z" fill="rgb(242,53,124)" transform="translate(0,0)"></path>
<path d="M 1184.77 1070.13 C 1262.01 1115.2 1345.65 1139.97 1434.38 1148.35 C 1400.83 1197 1391.21 1269.71 1399.4 1327.66 C 1370.5 1376.19 1338.15 1423.26 1308.5 1471.35 C 1299.11 1486.57 1298.64 1502.15 1306.69 1518.34 C 1320.23 1545.59 1347.87 1549.31 1373.85 1557.9 C 1374.16 1575.23 1376.02 1594.07 1383.62 1610.01 C 1385.41 1613.77 1389.63 1619.34 1392.13 1624.05 C 1391.19 1629.2 1386.82 1635.09 1385.76 1639.49 C 1379.85 1664.15 1404.32 1685.69 1416.32 1706.04 L 1417.05 1707.29 C 1417.22 1726 1416.9 1748.13 1420.14 1766.41 C 1424.94 1793.19 1440.26 1816.94 1462.68 1832.36 C 1516.74 1869.27 1576.95 1827.28 1633.01 1817.72 C 1647.16 1815.31 1662.21 1817.99 1666.85 1833.69 C 1674.71 1860.27 1679.84 1889.31 1684.72 1916.69 C 1670.12 1923.82 1653.49 1930.3 1638.3 1936.02 C 1566.12 1962.9 1488.26 1970.86 1412.14 1959.13 C 1275.5 1938.71 1152.5 1865 1070.08 1754.12 C 1094.62 1713.56 1114.08 1670.12 1128.01 1624.8 C 1167.73 1497.82 1157.49 1359.26 1101.92 1238.23 C 1092.64 1218.02 1082.53 1197.33 1072.22 1177.63 C 1101.53 1139.11 1144.02 1096.64 1184.77 1070.13 z" fill="rgb(242,53,124)" transform="translate(0,0)"></path>
<path d="M 1438.34 88.4089 C 1440.69 87.9611 1440.58 88.012 1442.96 88.3769 L 1443.02 90.3117 C 1442.3 91.3458 1441.6 92.3949 1440.92 93.4585 C 1405.47 148.534 1387.42 224.317 1401.41 288.781 C 1393.83 302.605 1383.19 318.139 1374.48 331.599 L 1331.75 397.927 C 1315.09 423.817 1292.61 447.967 1307.15 479.902 C 1319.78 507.631 1347.95 511.548 1373.58 521.174 C 1375.14 548.969 1376.31 568.823 1394.5 591.076 C 1373.6 631.921 1395.86 644.281 1418.38 676.789 C 1417.88 716.86 1416.59 753.823 1445.57 786.296 C 1463.68 806.588 1496.29 819.2 1523.24 816.569 C 1536.53 815.271 1551.56 810.304 1564.61 806.578 L 1609.89 794.001 C 1621.02 790.936 1634.18 786.367 1645.61 786.706 C 1652.97 786.925 1658.6 791.415 1662.88 796.985 C 1684.69 825.315 1683.15 909.121 1679.75 943.108 C 1578.84 901.985 1501.87 887.2 1392.76 903.359 C 1316.88 914.481 1249.52 940.996 1183.16 979.075 C 1137.33 945.743 1105.68 915.412 1070.52 871.38 C 1097.99 824.059 1119.03 773.281 1133.07 720.393 C 1163.14 603.484 1159.28 478.646 1109.3 368.093 C 1097.62 342.271 1084.73 319.154 1070.29 294.726 C 1073.88 290.054 1077.54 285.428 1081.25 280.848 C 1173.63 166.349 1292.84 103.905 1438.34 88.4089 z" fill="rgb(242,53,124)" transform="translate(0,0)"></path>
<path d="M 604.626 87.6566 C 611.038 88.2202 617.445 88.839 623.847 89.5129 C 704.154 97.9385 786.616 129.231 853.431 174.257 C 900.059 205.679 944.452 250.551 979.756 294.154 C 952.97 339.813 931.926 381.026 917.087 432.513 C 887.888 536.734 890.439 647.296 924.412 750.06 C 939.268 793.996 956.718 828.71 978.981 868.964 C 950.075 909.86 906.813 948.493 866.804 978.19 C 848.593 968.845 829.391 957.816 811.07 949.196 C 764.68 927.488 715.55 912.2 665.034 903.752 C 562.277 888.984 464.192 900.137 369.72 944.765 C 369.17 939.295 369.116 933.757 369.026 928.261 C 368.587 901.437 369.507 811.111 388.422 792.865 C 393.025 788.425 399.645 786.893 405.867 786.994 C 415.196 787.146 425.028 790.456 434.071 792.669 C 448.863 796.228 463.611 799.97 478.311 803.895 C 521.673 815.556 562.517 827.269 600.29 791.152 C 635.449 757.533 631.548 719.712 632.63 675.244 C 652.156 643.604 679.84 630.791 655.652 589.129 C 674.95 564.133 675.042 548.442 676.843 518.296 C 707.087 508.98 739.977 509.359 747.743 469.772 C 749.571 460.504 748.816 450.912 745.56 442.044 C 739.031 424.418 714.042 388.901 703.184 372.254 C 685.257 344.769 666.988 316.448 648.68 289.217 C 649.396 274.194 651.874 261.51 651.625 245.617 C 650.699 186.416 634.392 137.845 604.626 87.6566 z" fill="rgb(242,53,124)" transform="translate(0,0)"></path>
<path d="M 1025.43 375.718 C 1031.48 383.066 1039.87 406.334 1043.44 415.977 C 1088.16 536.748 1081.61 671.398 1025.47 788.044 C 1015.19 766.05 1007.2 748.134 999.475 725.033 C 961.927 609.703 971.251 484.232 1025.43 375.718 z" fill="rgb(246,246,245)" transform="translate(0,0)"></path>
<path d="M 1013.65 479.911 C 1024.21 479.591 1034.79 479.461 1045.36 479.522 C 1045.44 490.022 1045.64 500.49 1045.37 510.995 C 1034.84 511.031 1024.3 510.999 1013.76 510.9 C 1013.69 500.696 1013.98 490.029 1013.65 479.911 z" fill="rgb(254,254,254)" transform="translate(0,0)"></path>
<path d="M 1013.62 608.006 C 1024.31 607.798 1035 607.693 1045.69 607.689 C 1045.18 618.052 1045.24 627.567 1044.95 637.87 C 1034.39 637.787 1024.41 637.874 1013.87 637.282 C 1013.76 627.707 1013.99 617.461 1013.62 608.006 z" fill="rgb(254,254,254)" transform="translate(0,0)"></path>
<path d="M 1014.72 670.18 C 1025.17 670.001 1035.61 669.966 1046.06 670.076 C 1045.49 680.257 1045.48 689.701 1045.49 699.893 L 1014.6 699.879 C 1014.81 690.371 1014.95 679.657 1014.72 670.18 z" fill="rgb(254,254,254)" transform="translate(0,0)"></path>
<path d="M 1020.5 544.164 C 1028.45 544.07 1036.41 544.035 1044.36 544.059 C 1044.39 550.021 1044.97 566.723 1044 572.97 C 1043.86 573.86 1041.14 573.935 1040.25 573.97 L 1014.57 573.941 C 1014.55 565.661 1014.12 553.556 1015.09 545.25 C 1015.17 544.578 1020.08 544.211 1020.5 544.164 z" fill="rgb(254,254,254)" transform="translate(0,0)"></path>
<path d="M 1025.16 1259.97 C 1066.18 1342.61 1082.63 1454.96 1065.64 1545.85 C 1064.47 1554.13 1062.36 1563.41 1060.18 1571.5 C 1053.6 1597.46 1048.57 1615.93 1038.74 1640.99 C 1034.45 1651.44 1031.34 1659.75 1025.67 1669.63 L 1024.71 1671.32 C 1019.77 1661.82 1015.47 1651.36 1011.32 1641.48 C 972.5 1544.28 967.013 1436.95 995.722 1336.3 C 1003.43 1309.88 1014.46 1285.27 1025.16 1259.97 z" fill="rgb(246,246,245)" transform="translate(0,0)"></path>
<path d="M 1011.32 1641.48 C 1019.1 1640.23 1031.05 1639.31 1038.74 1640.99 C 1034.45 1651.44 1031.34 1659.75 1025.67 1669.63 L 1024.71 1671.32 C 1019.77 1661.82 1015.47 1651.36 1011.32 1641.48 z" fill="rgb(254,254,254)" transform="translate(0,0)"></path>
<path d="M 1048.08 1543.04 C 1053.03 1543.06 1065.07 1540.92 1065.64 1545.85 C 1064.47 1554.13 1062.36 1563.41 1060.18 1571.5 C 1056.1 1571.74 1052.03 1571.94 1047.95 1572.09 C 1048.12 1562.41 1048.16 1552.73 1048.08 1543.04 z" fill="rgb(254,254,254)" transform="translate(0,0)"></path>
<path d="M 1013.91 1386.45 C 1024.57 1386.13 1035.12 1386.36 1045.76 1386.3 C 1045.77 1396.14 1045.89 1406.91 1045.47 1416.68 C 1035.01 1416.71 1024.55 1416.65 1014.09 1416.48 C 1013.85 1406.36 1014.02 1396.52 1013.91 1386.45 z" fill="rgb(254,254,254)" transform="translate(0,0)"></path>
<path d="M 1015.39 1575.04 L 1045.83 1575.22 C 1045.51 1584.01 1045.41 1598.09 1044.28 1606.23 C 1036.8 1608 1024 1607.13 1015.98 1607.01 L 1015.39 1575.04 z" fill="rgb(254,254,254)" transform="translate(0,0)"></path>
<path d="M 1014.87 1512.02 C 1024.91 1511.85 1034.96 1511.83 1045 1511.97 C 1044.82 1521.86 1045.19 1531.86 1044.92 1541.72 C 1032.87 1542.55 1027.24 1542.32 1015.18 1542.04 L 1014.87 1512.02 z" fill="rgb(254,254,254)" transform="translate(0,0)"></path>
<path d="M 1014.78 1449.38 L 1044.84 1449.18 L 1044.77 1478.85 C 1034.94 1478.86 1025.09 1479.01 1015.26 1478.8 C 1015.01 1469 1014.85 1459.19 1014.78 1449.38 z" fill="rgb(254,254,254)" transform="translate(0,0)"></path>
<path d="M 1456.65 976.44 C 1526.9 973.023 1595.32 994.059 1658.91 1021.65 C 1604.84 1049.24 1534.23 1063.93 1473.88 1066.22 C 1412.69 1070.26 1325.04 1050.31 1270.11 1023.78 C 1317.32 996.571 1402.12 978.83 1456.65 976.44 z" fill="rgb(246,246,245)" transform="translate(0,0)"></path>
<path d="M 1445.38 1021.06 C 1456.07 1020.89 1465.92 1020.7 1476.63 1020.99 C 1476.57 1031.45 1476.62 1040.13 1475.88 1050.62 C 1466.1 1050.56 1455 1051.29 1445.4 1050.42 C 1445.25 1040.55 1445.49 1030.85 1445.38 1021.06 z" fill="rgb(254,254,254)" transform="translate(0,0)"></path>
<path d="M 1415.14 988.914 C 1424.48 988.681 1434.97 989.023 1444.42 989.047 C 1444.77 996.063 1444.56 1001.7 1444.64 1008.5 L 1444.66 1019.77 C 1434.75 1019.89 1424.83 1019.88 1414.92 1019.74 C 1414.75 1009.46 1414.82 999.185 1415.14 988.914 z" fill="rgb(254,254,254)" transform="translate(0,0)"></path>
<path d="M 1383.22 1021.07 C 1393.15 1020.99 1403.14 1020.84 1413.06 1020.93 C 1412.87 1031.24 1412.78 1041.54 1412.81 1051.85 C 1402.85 1051.24 1393.24 1051.2 1383.32 1050.95 C 1383.17 1040.99 1383.33 1031.05 1383.22 1021.07 z" fill="rgb(254,254,254)" transform="translate(0,0)"></path>
<path d="M 1509.04 1021.2 L 1537.85 1021.15 C 1537.9 1029.26 1538.3 1043.67 1537.57 1051.38 C 1527.73 1052.23 1519.28 1052.14 1509.39 1051.54 C 1508.94 1041.68 1509.17 1031.15 1509.04 1021.2 z" fill="rgb(254,254,254)" transform="translate(0,0)"></path>
<path d="M 390.527 1022.27 C 403.251 1016.62 418.658 1009.43 431.517 1004.71 C 531.275 966.954 641.531 967.786 740.707 1007.04 C 753.34 1011.93 765.74 1017.41 777.868 1023.44 C 726.127 1048.98 651.553 1066.23 593.541 1067.06 C 588.302 1067.14 571.312 1067.24 567.182 1066.5 C 557.101 1065.91 548.471 1065.23 538.401 1064.14 C 486.303 1056.83 438.405 1045.02 390.527 1022.27 z" fill="rgb(246,246,245)" transform="translate(0,0)"></path>
<path d="M 538.401 1064.14 C 538.607 1061.57 538.83 1059.03 538.935 1056.45 C 538.954 1055.99 539.019 1054.76 539.414 1054.46 C 540.078 1053.95 567.016 1053.7 569.014 1054.29 C 569.404 1054.41 569.533 1054.57 569.686 1054.95 C 570.559 1057.09 569.857 1060.13 570.181 1062.49 C 570.292 1063.31 570.393 1064.3 569.883 1065.01 C 569.375 1065.72 568.621 1065.9 567.845 1066.22 C 567.623 1066.31 567.403 1066.4 567.182 1066.5 C 557.101 1065.91 548.471 1065.23 538.401 1064.14 z" fill="rgb(254,254,254)" transform="translate(0,0)"></path>
<path d="M 529.532 1021.5 C 532.619 1021.41 535.71 1021.44 538.798 1021.38 L 538.346 1052.92 C 531.36 1052.94 527.769 1052.98 520.782 1053.6 C 516.805 1053.48 513.082 1053.21 509.12 1052.93 L 509.221 1021.96 L 529.532 1021.5 z" fill="rgb(254,254,254)" transform="translate(0,0)"></path>
<path d="M 637.294 1021.52 C 646.474 1021.35 655.656 1021.25 664.837 1021.22 C 664.805 1026.45 666.282 1049.52 662.772 1051.76 C 653.537 1051.74 644.301 1051.89 635.071 1052.19 C 635.042 1047.2 633.405 1022.99 637.294 1021.52 z" fill="rgb(254,254,254)" transform="translate(0,0)"></path>
<path d="M 559.282 989.517 C 563.058 989.37 566.342 989.119 570.083 988.844 L 570.756 1020.09 C 564.384 1020.11 558.15 1020.23 551.75 1020.18 C 548.258 1020.02 544.408 1020.13 540.854 1020.09 C 541.031 1010.04 541.138 999.977 541.175 989.919 C 547.434 989.523 553.014 989.514 559.282 989.517 z" fill="rgb(254,254,254)" transform="translate(0,0)"></path>
<path d="M 603.963 989.128 C 613.704 989.175 622.134 989.216 631.917 989.025 C 632.386 996.047 633.193 1012.71 632.536 1019.67 C 622.749 1019.46 612.958 1019.47 603.172 1019.69 C 603.153 1013.52 602.74 993.976 603.963 989.128 z" fill="rgb(254,254,254)" transform="translate(0,0)"></path>
<path d="M 571.891 1021.26 L 600.815 1021.18 C 600.859 1031.14 600.832 1041.11 600.734 1051.07 C 590.929 1050.87 581.731 1051.13 571.99 1051.21 C 571.923 1041.2 572.141 1031.26 571.891 1021.26 z" fill="rgb(254,254,254)" transform="translate(0,0)"></path>
<path d="M 1969.51 856.832 C 1972.38 860.213 1971.19 1160.94 1970.81 1195.47 C 1948.8 1159.5 1935.57 1140.65 1908.75 1108.9 C 1877.5 1072.08 1855.92 1055.44 1822.23 1023.92 C 1883.87 974.232 1927.41 923.422 1969.51 856.832 z" fill="rgb(242,53,124)" transform="translate(0,0)"></path>
<path d="M 77.3114 854.839 C 81.7666 858.701 106.65 898.815 113.655 908.16 C 146.075 951.287 183.715 990.231 225.714 1024.1 C 193.633 1050.47 168.095 1074.33 140.616 1105.62 C 114.855 1134.02 96.8593 1159.16 77.497 1191.96 C 76.7527 1138.8 77.6227 1084.63 77.6371 1031.42 L 77.3114 854.839 z" fill="rgb(242,53,124)" transform="translate(0,0)"></path>
<path d="M 1024.69 1824.66 C 1027.91 1827.28 1036.55 1837.87 1039.65 1841.47 C 1048.37 1851.79 1057.49 1861.75 1066.99 1871.35 C 1107.03 1911.08 1147.71 1939.53 1195.98 1967.79 C 1179.68 1968.59 1163.45 1968.1 1147.13 1968.27 C 1107 1968.63 1066.88 1968.78 1026.75 1968.72 L 856.563 1969 C 870.325 1958.28 893.663 1945.66 910.153 1933.72 C 956.704 1900.02 987.465 1867.23 1024.69 1824.66 z" fill="rgb(242,53,124)" transform="translate(0,0)"></path>
<path d="M 1188.18 81.4924 C 1190.93 81.3576 1189.75 80.9558 1192 82.0775 C 1191.51 82.7521 1138.53 117.444 1130.98 123.133 C 1091.27 153.055 1058.33 186.968 1025.49 224.059 C 995.726 190.038 977.837 172.895 942.575 143.219 C 910.167 116.832 890.954 104.352 855.458 81.923 C 882.325 81.2776 909.394 81.8972 936.299 81.8768 C 1020.26 82.5207 1104.22 82.3926 1188.18 81.4924 z" fill="rgb(242,53,124)" transform="translate(0,0)"></path>
<path d="M 1024.44 941.033 C 1054.61 975.947 1075.51 996.716 1111.18 1025.41 C 1077.28 1054.84 1055.13 1076.1 1025.17 1109.69 C 994.161 1075.02 972.755 1055.73 937.835 1025.68 C 971.816 998.226 995.922 973.167 1024.44 941.033 z" fill="rgb(242,53,124)" transform="translate(0,0)"></path>
<metadata><recraft-signature>{"signed_by": "recraft", "signature_b64": "TDICnB4gzzbtwDoQtU7GdQJBeIml2ZG/tgulo0E3MB5OWw20C08BsR3pP9DKzke2AF8WN62IhZOEmWFcDg09DA==", "signing_algo": "Ed25519", "generation_timestamp": 1772777158, "identifier": "63a24027-478e-4ddd-ba08-7c20e19524d4"}</recraft-signature></metadata></svg>