<svg xmlns="http://www.w3.org/2000/svg" height="1024" preserveAspectRatio="none" style="display: block;" version="1.1" viewBox="0 0 2048 2048" width="1024">
<path d="M 0 0 L 2048 0 L 2048 2048 L 0 2048 L 0 0 z" fill="rgb(255,255,255)" transform="translate(0,0)"></path>
<path d="M 626.532 173.417 C 629.474 173.177 633.808 173.122 636.879 173.104 C 694.265 172.754 751.752 172.908 809.137 172.956 L 1118.96 172.943 L 1311.91 172.901 C 1378.08 172.899 1436.53 169.032 1501.17 184.351 C 1577.92 202.512 1648.33 241.078 1704.96 295.97 C 1786.57 374.654 1833.99 482.25 1837 595.569 C 1838.21 656.34 1837.36 720.218 1837.45 781.229 L 1837.44 1166 C 1837.39 1255.71 1838.28 1345.32 1837.13 1435.03 C 1836.67 1470.58 1834.93 1500.44 1826.94 1535.35 C 1809.05 1613.53 1770.06 1685.31 1714.21 1742.88 C 1641.3 1818.54 1529.21 1873.09 1423.48 1875.12 C 1381 1876.81 1330.47 1875.27 1286.94 1875.54 L 934.842 1875.85 L 737.427 1875.61 C 674.676 1875.52 617.428 1879.05 555.813 1865.78 C 483.579 1850.26 416.547 1816.43 361.151 1767.54 C 274.511 1691.66 221.356 1584.62 213.257 1469.73 C 210.44 1423.18 212.303 1362.08 212.309 1314.26 L 212.359 1018.18 L 212.674 710.14 C 213.009 650.337 208.429 584.5 220.02 526.104 C 259.865 325.355 424.243 185.953 626.532 173.417 z" fill="rgb(250,104,146)" transform="translate(0,0)"></path>
<path d="M 1000.66 423.432 C 1020.46 421.782 1058.03 423.603 1077.88 425.838 C 1215.35 441.314 1333.49 509.818 1420.21 616.298 C 1501.66 716.526 1540.13 844.911 1527.23 973.411 C 1581.92 1010.82 1603.06 1061.43 1588 1127.35 C 1580.43 1160.5 1562.32 1188.85 1549.58 1219.78 C 1535.02 1255.12 1527.06 1293.8 1503.18 1324.81 C 1487.79 1344.93 1475.09 1351.93 1453.95 1364.67 C 1443 1446.79 1408.73 1524.04 1355.2 1587.28 C 1340.25 1605.2 1325.99 1618.17 1311.08 1634.65 L 1311.15 1768.65 L 1052.5 1768.98 L 736.168 1768.67 C 736.432 1726.55 737.404 1674.05 735.464 1632.25 C 722.612 1622.23 709.869 1605.78 699.058 1593.55 C 658.136 1547.29 628.2 1495.06 610.064 1435.96 C 602.363 1410.85 596.141 1388.42 594.677 1361.73 C 526.866 1336.45 522.127 1274.97 499.315 1216.8 C 488.33 1188.78 472.606 1172.02 464.873 1138.79 C 447.432 1063.87 461.495 1017.2 522.842 972.214 C 522.146 967.131 521.641 961.41 521.307 956.27 C 511.917 825.691 555.571 696.84 642.396 598.857 C 733.37 494.588 862.507 431.355 1000.66 423.432 z" fill="rgb(0,0,0)" transform="translate(0,0)"></path>
<path d="M 1010.5 477.443 C 1040.2 475.97 1081.83 480.304 1110.92 486.479 C 1353.87 538.065 1514.68 766.607 1466.28 1011.73 C 1481.87 1014.33 1493.19 1017.65 1506.31 1027.08 C 1523.29 1039.05 1534.56 1057.51 1537.46 1078.07 C 1543.86 1120.37 1516 1160.14 1500.05 1196.65 C 1475.58 1252.64 1477.41 1309.51 1403.96 1319.02 C 1402.82 1340.94 1401.25 1364.65 1396.37 1386.35 C 1384.04 1441.22 1356.62 1497.89 1321.79 1542.01 C 1309.68 1557.35 1289.26 1578.32 1275.08 1592.08 C 1226.36 1639.32 1169.75 1696.46 1100.89 1709.5 C 1082.89 1712.91 1057.5 1712.12 1038.75 1712.07 C 1016.19 1712.21 978.822 1713.45 957.063 1710.96 C 884.319 1702.64 828.08 1642.13 776.522 1595.23 C 758.748 1579.06 738.432 1557.55 723.659 1538.66 C 674.835 1476.19 647.704 1399.51 646.375 1320.23 C 630.942 1317.16 619.431 1314.58 605.849 1305.87 C 595.229 1299.06 586.403 1289.8 580.117 1278.86 C 567.258 1256.66 560.684 1224.2 550.201 1200.7 C 536.75 1170.63 517.768 1144.44 511.31 1111.44 C 501.579 1061.71 531.079 1021.66 579.556 1011.51 C 575.433 990.622 572.84 969.458 571.795 948.189 C 566.168 831.998 606.947 718.334 685.153 632.219 C 770.781 536.611 882.873 484.349 1010.5 477.443 z" fill="rgb(250,104,146)" transform="translate(0,0)"></path>
<path d="M 1002.65 563.424 C 1010.42 562.63 1026.91 562.786 1034.93 562.999 C 1113.28 565.77 1188.75 593.27 1250.51 641.56 C 1326.78 702.057 1379.03 791.572 1390.04 888.723 C 1393.09 916.226 1392.84 943.995 1389.29 971.438 C 1379.32 1045.2 1338.27 1144.58 1290.79 1202.3 C 1247.39 1255.06 1187.51 1306.22 1122.07 1328.74 C 1096.48 1337.54 1072.77 1341.96 1046.23 1344.89 C 958.514 1349.03 881.693 1319.68 815.575 1262.71 C 793.462 1243.55 773.369 1222.18 755.611 1198.92 C 707.84 1135.35 663.187 1034.49 657.425 954.968 C 650.681 859.723 682.006 765.694 744.525 693.524 C 809.511 617.134 902.59 570.221 1002.65 563.424 z" fill="rgb(0,0,0)" transform="translate(0,0)"></path>
<path d="M 804.92 1070.09 C 804.382 1067.11 803.241 1057.79 804.356 1054.53 C 804.401 1054.4 804.496 1054.43 804.628 1054.44 C 805.723 1055.3 805.987 1056.93 806.323 1058.28 C 812.676 1071.94 818.46 1084.98 827.611 1098.19 C 929.214 1244.82 1168.52 1228.21 1240.37 1061.92 C 1240.48 1061.6 1240.58 1061.29 1240.69 1060.98 L 1244.23 1061.92 C 1241.09 1123.4 1216.3 1182.62 1170.06 1224.19 C 1126.76 1263.08 1069.86 1283.32 1011.73 1280.5 C 954.182 1277.23 900.315 1251.13 862.076 1207.99 C 830.82 1173.03 804.035 1117.28 804.92 1070.09 z" fill="rgb(250,104,146)" transform="translate(0,0)"></path>
<path d="M 804.92 1070.09 C 804.382 1067.11 803.241 1057.79 804.356 1054.53 C 804.401 1054.4 804.496 1054.43 804.628 1054.44 C 805.723 1055.3 805.987 1056.93 806.323 1058.28 C 804.843 1061.72 805.367 1066.07 804.92 1070.09 z" fill="rgb(221,88,125)" transform="translate(0,0)"></path>
<path d="M 804.958 997.717 C 806.571 969.847 819.244 933.217 832.461 908.291 C 873.231 831.406 953.204 788.842 1039.06 793.912 C 1096.52 797.406 1150.14 823.954 1187.76 867.537 C 1220.47 904.867 1239.64 954.409 1243.46 1003.69 C 1243.74 1005.36 1244.64 1012.01 1243.52 1013.32 C 1242.44 1013.23 1241.74 1009.74 1241.55 1008.88 C 1214.02 950.429 1168.76 908.302 1107.74 886.275 C 1046.44 864.628 979.107 867.842 920.15 895.227 C 868.397 919.806 828.904 957.884 806.407 1010.69 C 806.075 1011.91 805.828 1013.69 804.539 1014.3 C 802.716 1013.16 804.425 1000.19 804.958 997.717 z" fill="rgb(250,104,146)" transform="translate(0,0)"></path>
<path d="M 804.958 997.717 C 805.42 1002.47 804.777 1006.86 806.407 1010.69 C 806.075 1011.91 805.828 1013.69 804.539 1014.3 C 802.716 1013.16 804.425 1000.19 804.958 997.717 z" fill="rgb(221,88,125)" transform="translate(0,0)"></path>
<path d="M 1243.46 1003.69 C 1243.74 1005.36 1244.64 1012.01 1243.52 1013.32 C 1242.44 1013.23 1241.74 1009.74 1241.55 1008.88 C 1242.77 1006.4 1242.78 1006.31 1243.46 1003.69 z" fill="rgb(158,49,84)" transform="translate(0,0)"></path>
<path d="M 1012.16 965.781 C 1049.02 958.961 1084.41 983.369 1091.12 1020.24 C 1097.84 1057.12 1073.33 1092.44 1036.44 1099.05 C 999.693 1105.64 964.543 1081.25 957.852 1044.52 C 951.161 1007.79 975.452 972.574 1012.16 965.781 z" fill="rgb(250,104,146)" transform="translate(0,0)"></path>
<path d="M 1240.69 1060.98 C 1241.22 1059.69 1242.75 1055.36 1243.55 1054.56 C 1243.71 1055.1 1243.86 1055.64 1244.02 1056.18 L 1243.96 1055.62 C 1244.2 1057.7 1244.2 1059.82 1244.23 1061.92 L 1240.69 1060.98 z" fill="rgb(221,88,125)" transform="translate(0,0)"></path>
<path d="M 995.101 287.427 C 995.463 287.404 995.825 287.381 996.186 287.358 C 1168.39 280.216 1336.32 342.18 1462.61 459.469 C 1564.18 554.183 1631.51 679.876 1654.07 816.906 C 1659.22 848.757 1660.8 878.912 1661.96 910.973 C 1697.19 950.973 1720.75 1006.94 1725.15 1059.95 C 1727.31 1084.47 1725.77 1109.18 1720.58 1133.24 C 1715.43 1157.21 1706.03 1180.56 1698.55 1203.88 C 1690.37 1229.38 1679.18 1253.76 1669.54 1278.7 C 1664.06 1292.87 1660.14 1307.85 1655.24 1322.25 C 1647.46 1344.88 1637.34 1366.64 1625.03 1387.16 C 1616.3 1401.5 1606.23 1413.51 1595.03 1425.98 C 1586.98 1434.94 1573.65 1445.06 1568.11 1454.93 C 1564.46 1462.57 1562.19 1471.94 1559.84 1479.99 C 1536.54 1559.72 1494.3 1629.94 1441.17 1692.7 C 1440.99 1717.18 1441 1741.67 1441.19 1766.15 C 1422.21 1767.86 1408.14 1769.05 1389.08 1768.46 L 1389.14 1669.86 C 1393.02 1664.29 1398.76 1657.96 1403.4 1652.82 C 1465.15 1584.37 1503.81 1503.13 1526.31 1415.22 C 1548.72 1395.34 1566.31 1380.19 1582.26 1353.65 C 1592.19 1337.13 1599.5 1322.54 1605.61 1304.03 C 1609.07 1293.57 1612.11 1279.86 1616.17 1270.02 C 1638.99 1214.71 1670.76 1162.6 1675.08 1101.66 C 1678.79 1052.19 1665.24 1002.96 1636.74 962.352 C 1628.74 950.804 1619.4 940.375 1610.21 929.758 C 1610.32 840.773 1596.27 758.965 1558.27 678.168 C 1464.63 479.026 1275.79 355.222 1058.25 340.12 C 1047.66 339.541 1037.06 339.201 1026.45 339.102 C 870.201 338.319 720.107 399.961 609.509 510.337 C 492.646 626.877 438.405 766.196 438.052 930.184 C 436.184 932.266 434.327 934.357 432.481 936.46 C 390.596 984.199 371.204 1035.82 375.266 1099.11 C 379.382 1163.24 408.603 1212.71 433.89 1269.69 C 437.726 1278.33 440.615 1292.99 443.473 1302.56 C 449.132 1320.96 457.082 1338.58 467.137 1355 C 484.163 1382.3 499.694 1395.18 523.418 1415.63 C 543.574 1499.46 575.068 1567.54 629.533 1635.12 C 639.364 1647.32 649.09 1657.06 659.049 1668.74 C 660.321 1699.82 659.26 1737.05 659.117 1768.58 C 641.263 1769.18 625.7 1767.61 608.071 1765.71 C 608.044 1742.09 608.559 1715.22 607.425 1691.93 C 562.03 1639.98 526.096 1580.47 501.257 1516.1 C 493.35 1495.49 488.146 1472.32 480.013 1452.51 C 479.008 1450.07 456.922 1427.8 453.003 1423.53 C 442.234 1411.95 432.61 1399.37 424.263 1385.94 C 404.084 1353.02 395.062 1318.94 382.854 1283.13 C 378.499 1270.35 369.232 1252.98 364.179 1239.63 C 349.271 1200.24 330.992 1150.94 324.346 1109.83 C 316.306 1060.1 328.923 1000.59 353.993 957.417 C 363.567 940.928 374.44 926.504 385.836 911.088 C 386.633 606.744 622.359 340.586 920.723 295.038 C 946.362 291.124 969.215 288.946 995.101 287.427 z" fill="rgb(0,0,0)" transform="translate(0,0)"></path>
<path d="M 317.842 632.58 C 318.884 534.57 346.105 448.59 417.914 378.461 C 482.582 315.646 569.343 280.755 659.496 281.309 C 674.159 281.508 686.928 281.868 701.6 281.251 C 677.965 293.464 651.303 307.008 628.993 321.725 C 497.347 408.567 391.743 536.549 341.928 687.046 C 334.871 708.369 322.962 749.114 319.67 770.677 C 319.356 775.328 319.294 776.053 317.99 780.475 C 316.461 778.381 316.857 645.12 317.842 632.58 z" fill="rgb(0,0,0)" transform="translate(0,0)"></path>
<path d="M 319.67 770.677 C 319.356 775.328 319.294 776.053 317.99 780.475 C 316.461 778.381 316.857 645.12 317.842 632.58 C 318.879 664.958 317.585 698.491 318.058 730.927 C 318.149 737.161 317.43 766.265 318.801 770.514 L 319.67 770.677 z" fill="rgb(158,49,84)" transform="translate(0,0)"></path>
<path d="M 1346.72 280.895 C 1374.39 281.984 1405.18 280.767 1432.05 283.66 C 1508.16 292.535 1579.02 326.901 1633.12 381.169 C 1685.11 432.706 1718.05 500.381 1726.54 573.097 C 1729.81 601.882 1729.37 631.284 1729.35 660.273 L 1729.02 762.193 L 1726.02 761.663 C 1723.84 750.902 1721.36 740.202 1718.59 729.575 C 1674.54 557.665 1566.15 419.582 1419.68 322.138 C 1393.71 304.862 1372.26 296.001 1346.72 280.895 z" fill="rgb(0,0,0)" transform="translate(0,0)"></path>
<path d="M 1729.48 1326.02 C 1729.36 1325.06 1729.02 1323.92 1729.71 1323.11 C 1730.63 1323.09 1731.02 1323.2 1730.94 1324.5 C 1730.22 1336 1731.61 1348.75 1730.15 1360.12 C 1729.36 1439.94 1734.57 1497.43 1700.78 1572.44 C 1664.31 1652.46 1597.62 1714.77 1515.31 1745.73 L 1514.89 1727.04 C 1558.57 1672.86 1586.15 1628.17 1613.69 1563.59 C 1618.55 1552.41 1622.96 1541.03 1626.91 1529.5 C 1634.53 1507.4 1633.48 1502.33 1649.96 1485.39 C 1689.18 1445.08 1713.8 1392.99 1727.03 1338.73 C 1727.92 1334.67 1729 1330.09 1729.48 1326.02 z" fill="rgb(0,0,0)" transform="translate(0,0)"></path>
<path d="M 1729.48 1326.02 C 1729.36 1325.06 1729.02 1323.92 1729.71 1323.11 C 1730.63 1323.09 1731.02 1323.2 1730.94 1324.5 C 1730.22 1336 1731.61 1348.75 1730.15 1360.12 C 1729.81 1353.17 1729.9 1345.91 1730 1338.94 L 1727.03 1338.73 C 1727.92 1334.67 1729 1330.09 1729.48 1326.02 z" fill="rgb(158,49,84)" transform="translate(0,0)"></path>
<path d="M 1729.48 1326.02 C 1729.5 1330.4 1730.01 1334.52 1730 1338.94 L 1727.03 1338.73 C 1727.92 1334.67 1729 1330.09 1729.48 1326.02 z" fill="rgb(31,4,7)" transform="translate(0,0)"></path>
<path d="M 318.341 1323.02 C 328.517 1374.62 348.016 1419.98 379.866 1461.94 C 389.66 1474.84 403.194 1486.97 411.113 1500.08 C 413.242 1503.6 418.63 1520.83 420.252 1525.59 C 424.36 1537.46 428.728 1549.23 433.352 1560.9 C 453.622 1611.55 495.183 1687.48 532.036 1727.7 L 532.528 1745.52 C 479.195 1721.44 433.035 1691.33 395.181 1645.87 C 351.979 1594.28 325.65 1530.68 319.75 1463.65 C 316.032 1424.43 318.383 1383.42 317.488 1343.97 C 317.334 1337.15 317.729 1329.81 318.341 1323.02 z" fill="rgb(0,0,0)" transform="translate(0,0)"></path>
<path d="M 1726.9 768.907 L 1729.12 770.56 C 1729.24 771.772 1730.45 780.795 1729.34 781.248 C 1727.85 780.562 1727.04 770.772 1726.9 768.907 z" fill="rgb(158,49,84)" transform="translate(0,0)"></path>
<path d="M 1729.02 762.193 C 1729.03 764.982 1729.07 767.771 1729.12 770.56 L 1726.9 768.907 C 1726.74 765.703 1726.6 764.816 1726.02 761.663 L 1729.02 762.193 z" fill="rgb(31,4,7)" transform="translate(0,0)"></path>
<metadata><recraft-signature>{"signed_by": "recraft", "signature_b64": "0d5y9GagfzwI8Vp8vZu/eEvnmw/ikoFvgmRVr6caCQKCRvp/JTEtXngmEgoBzP76llb0DBEbXHx6n5KuwdHtDg==", "signing_algo": "Ed25519", "generation_timestamp": 1772777137, "identifier": "e76d315d-cf58-45f7-b480-f117c0cd4d8c"}</recraft-signature></metadata></svg>