<svg xmlns="http://www.w3.org/2000/svg" height="1024" preserveAspectRatio="none" style="display: block;" version="1.1" viewBox="0 0 2048 2048" width="1024">
<path d="M 0 0 L 2048 0 L 2048 2048 L 0 2048 L 0 0 z" fill="rgb(255,255,255)" transform="translate(0,0)"></path>
<path d="M 1205.92 804.751 C 1197.73 784.795 1187.51 763.438 1178.65 743.458 L 1109.24 588.245 C 1098.58 564.279 1082.05 535.695 1075.12 510.901 C 1070.07 492.836 1072.17 385.928 1075.92 365.837 C 1079.41 346.63 1086.05 328.131 1095.57 311.089 C 1117.79 272.486 1154.46 244.314 1197.49 232.791 C 1235.5 222.477 1286.12 228.352 1319.77 248.913 C 1371.1 280.28 1397.55 321.815 1412.43 378.43 C 1315.93 403.252 1270.36 480.882 1239.93 568.447 L 1242.39 567.986 C 1261.83 523.019 1311.09 477.6 1356.52 459.562 C 1398.79 442.81 1445.94 443.33 1487.83 461.009 C 1532.68 480.577 1567.8 517.33 1585.3 563.024 C 1592.91 582.783 1596.27 601.458 1598.24 622.375 C 1532.27 624.917 1485.6 645.085 1439.88 694.087 C 1421.22 714.09 1397.42 745.554 1385.01 769.958 C 1466.74 688.145 1581.09 658.99 1669.64 749.154 C 1705.7 785.647 1725.59 835.096 1724.83 886.394 C 1723.63 1008.6 1637.91 1080.2 1526.13 1105.47 C 1530.53 1108.1 1542.56 1106.35 1550.09 1107.12 C 1590.81 1108 1639.18 1096.17 1676.2 1078.96 C 1690.51 1072.31 1705.34 1063.25 1719.03 1055.2 C 1736.93 1088.58 1747.38 1125.45 1749.67 1163.26 C 1754.08 1240 1722.91 1308.92 1672.63 1365.08 C 1647.96 1279.36 1576.68 1211.03 1481.02 1218.42 C 1449.39 1220.86 1429.03 1235.22 1402.89 1250.75 C 1377.94 1265.56 1367.49 1274.62 1349.66 1297.49 C 1342.83 1253.09 1331.9 1203.83 1323.45 1159.59 C 1344.59 1136.3 1368.74 1112.25 1390.74 1089.3 L 1516.66 959.122 C 1547.13 928.241 1580.43 895.699 1609.51 863.881 L 1205.92 804.751 z" fill="rgb(253,74,16)" transform="translate(0,0)"></path>
<path d="M 1550.09 1107.12 C 1546.53 1107.64 1520.13 1108.9 1518.84 1107.41 C 1519.99 1105.97 1524.49 1105.66 1526.13 1105.47 C 1530.53 1108.1 1542.56 1106.35 1550.09 1107.12 z" fill="rgb(253,225,213)" transform="translate(0,0)"></path>
<path d="M 1239.93 568.447 L 1242.39 567.986 C 1241.78 569.23 1240.44 573.061 1238.95 573.424 C 1237.83 573.098 1239.75 568.904 1239.93 568.447 z" fill="rgb(250,180,158)" transform="translate(0,0)"></path>
<path d="M 637.103 377.8 C 651.292 326.65 682.623 277.946 729.165 250.445 C 810.676 202.282 909.182 233.325 954.903 315.466 C 963.932 331.977 970.204 349.852 973.468 368.386 C 975.036 376.829 976.105 385.356 976.67 393.924 C 977.77 411.924 978.938 496.149 975.434 507.815 C 971.745 520.096 965.229 532.066 959.852 543.717 C 952.01 560.729 944.308 577.806 936.747 594.944 C 906.664 662.79 873.841 735.688 845.744 803.939 C 765.186 813.884 676.707 828.55 596.492 840.857 L 437.513 863.721 C 459.558 889.613 495.883 925.408 520.415 950.237 L 647.938 1079.04 C 665.034 1096.23 682.018 1113.53 698.888 1130.94 C 705.38 1137.62 719.086 1151 724.467 1157.91 C 716.936 1201.47 705.175 1253.16 699.686 1295.6 C 680.643 1272.66 670.123 1264.81 644.393 1249.44 C 618.36 1233.89 596.639 1219.98 565.002 1217.94 C 519.234 1213.7 474.195 1234.2 439.621 1262.99 C 406.111 1290.88 389.381 1327.19 378.795 1368.59 C 367.474 1356.14 357.746 1345.64 347.873 1331.94 C 313.222 1284.32 295.774 1226.34 298.387 1167.5 C 300.619 1123.21 311.571 1094.65 330.251 1055.89 C 392.138 1094.32 447.857 1109.56 520.845 1107.99 L 521.885 1105.05 C 469.088 1092.02 424.047 1070.06 383.851 1031.23 C 264.639 916.083 334.729 695.063 507.598 694.13 C 557.572 693.86 621.113 725.546 656.657 762.155 L 658.656 760.988 C 604.772 678.542 556.056 626.257 450.448 622.573 C 451.422 607.516 458.928 581.136 464.239 567.11 C 481.501 520.132 516.781 481.975 562.264 461.09 C 601.926 443.375 647.042 442.331 687.481 458.193 C 735.416 476.92 786.235 521.679 807.027 569.009 L 809.062 567.397 C 780.817 492.975 747.11 424.159 669.436 389.405 C 658.951 384.766 648.145 380.888 637.103 377.8 z" fill="rgb(253,74,16)" transform="translate(0,0)"></path>
<path d="M 521.885 1105.05 C 523.796 1105.49 525.714 1105.9 527.639 1106.28 L 527.194 1108.47 C 524.869 1108.22 523.173 1108.02 520.845 1107.99 L 521.885 1105.05 z" fill="rgb(253,225,213)" transform="translate(0,0)"></path>
<path d="M 656.657 762.155 L 658.656 760.988 C 659.433 761.988 662.973 765.923 662.497 767.293 C 660.983 768.112 657.547 763.196 656.657 762.155 z" fill="rgb(253,225,213)" transform="translate(0,0)"></path>
<path d="M 809.062 567.397 C 809.527 568.682 811.644 573.175 810.545 574.44 C 809.114 574.575 807.447 569.925 807.027 569.009 L 809.062 567.397 z" fill="rgb(250,180,158)" transform="translate(0,0)"></path>
<path d="M 527.639 1106.28 C 528.339 1106.47 530.746 1107.02 531.382 1107.54 C 531.248 1108.26 528.464 1108.31 528.139 1108.35 L 527.194 1108.47 L 527.639 1106.28 z" fill="rgb(250,180,158)" transform="translate(0,0)"></path>
<path d="M 698.584 1901.94 C 569.274 1908.13 448.905 1876.97 345.9 1797.58 C 214.534 1696.33 137.693 1540.93 139.018 1375.11 C 139.255 1345.4 138.886 1315.27 138.872 1285.46 L 138.948 1051.09 L 139.008 785.655 C 138.973 712.432 134.543 637.695 148.907 566.131 C 164.92 485.312 199.982 409.479 251.181 344.928 C 336.619 235.619 462.396 165.225 600.247 149.566 C 639.971 145.377 678.742 147.837 718.468 146.391 C 718.784 146.347 719.101 146.303 719.417 146.258 L 723.087 147.319 C 722.2 149.352 719.648 149.664 716.831 150.809 C 618.784 187.745 568.597 271.989 539.751 367.279 C 525.366 373.4 511.524 379.025 498.005 386.951 C 437.953 422.161 399.858 472.005 374.231 535.494 C 360.173 570.73 351.354 607.837 348.054 645.63 C 332.835 659.763 315.452 674.527 301.825 690.089 C 256.158 743.188 229.559 810.035 226.26 879.993 C 224.584 922.633 232.601 963.497 247.427 1003.36 C 238.06 1021.72 229.571 1038.28 222.257 1057.53 C 193.745 1131.92 191.894 1213.89 217.02 1289.49 C 240.222 1361.31 278.492 1409.61 332.619 1459.72 C 344.991 1548.28 395.152 1621.88 465.574 1675.28 C 489.646 1693.53 525.738 1713.73 554.691 1723.32 C 580.403 1807.31 628.328 1857.78 703.964 1898.55 L 707.98 1900.83 L 707.579 1901.79 C 703.627 1902.23 702.578 1902.21 698.584 1901.94 z" fill="rgb(253,74,16)" transform="translate(0,0)"></path>
<path d="M 1334.9 147.013 C 1371.61 146.874 1410.58 145.678 1446.86 149.288 C 1563.98 161.045 1673.45 212.879 1756.76 296.029 C 1839.85 379.547 1892.61 488.461 1906.64 605.431 C 1910.81 640.722 1910.61 683.034 1910.68 718.803 L 1910.45 1166.31 L 1910.28 1303.74 C 1910.45 1382.66 1912.98 1436.34 1892.73 1514 C 1868.91 1602.94 1822.3 1684.12 1757.5 1749.52 C 1676.52 1832.5 1569.56 1885.22 1454.42 1898.89 C 1425.46 1902.19 1398.17 1901.94 1369.08 1901.97 L 1346.65 1902.01 C 1345.44 1902.03 1337.18 1902.78 1337.26 1901.2 C 1337.9 1900.22 1338.94 1900.03 1340.05 1899.69 C 1353.79 1892.8 1367.78 1886.06 1380.61 1877.79 C 1426.89 1847.99 1463.33 1803.32 1485.69 1753.2 C 1490.13 1743.24 1494.18 1733.15 1498.47 1723.1 C 1506.26 1719.07 1517.13 1714.81 1525.44 1710.85 C 1540.59 1703.54 1555.25 1695.24 1569.31 1686.02 C 1651.11 1631.87 1698.12 1555.14 1717.49 1460.06 C 1759.4 1419.33 1789.16 1383.6 1814.59 1329.43 C 1852.31 1249.08 1859.15 1165.9 1834.94 1080.27 C 1826.92 1051.92 1813.7 1029.37 1804.05 1003.21 C 1820.02 949.517 1827.68 907.209 1820.47 850.256 C 1809.77 765.823 1765.19 696.618 1698.95 645.082 C 1699.57 608.669 1689.31 565.736 1675.85 531.828 C 1654.58 478.223 1613.13 428.033 1565.51 395.707 C 1548.81 384.369 1530.69 376.211 1512.37 368.211 C 1494.03 278.678 1422.36 182.547 1335.41 150.347 L 1334.9 147.013 z" fill="rgb(253,74,16)" transform="translate(0,0)"></path>
<path d="M 1346.65 1902.01 C 1345.44 1902.03 1337.18 1902.78 1337.26 1901.2 C 1337.9 1900.22 1338.94 1900.03 1340.05 1899.69 C 1342.74 1901.28 1343.54 1901.17 1346.65 1902.01 z" fill="rgb(243,84,36)" transform="translate(0,0)"></path>
<path d="M 1024.02 628.489 C 1028.02 633.556 1038.89 659.502 1042.16 666.929 C 1055.53 697.089 1068.66 727.35 1081.57 757.71 L 1118.57 842.339 C 1126.28 859.645 1135.21 878.299 1142.16 895.757 L 1324.34 918.941 C 1355.62 923.154 1386.42 928.848 1418.01 932.514 C 1384.14 968.107 1347 1004.14 1311.88 1038.73 C 1280.94 1069.2 1249.39 1101.72 1218.04 1131.51 L 1273.42 1409.99 L 1111.22 1317.16 C 1082.07 1300.6 1054.01 1283.63 1024.4 1267.7 L 863.073 1360.16 C 836.585 1375.42 800.436 1397.89 774.389 1410.94 C 777.608 1389.22 785.275 1359.61 789.645 1337.19 C 803.027 1268.53 820.188 1199.83 832.44 1130.98 C 766.258 1064.09 695.757 999.812 631.117 932.471 C 651.877 928.624 675.854 926.139 696.987 922.982 C 767.613 912.429 839.549 904.955 910.13 894.681 C 914.605 879.351 933.846 836.713 940.949 819.977 C 968.065 756.093 996.76 692.348 1024.02 628.489 z" fill="rgb(253,74,16)" transform="translate(0,0)"></path>
<path d="M 975.203 1403.84 L 976.698 1404.6 C 977.433 1413.04 976.959 1428.98 976.967 1437.79 L 977.082 1502.53 L 977.229 1595.33 C 977.227 1607.23 976.881 1619.57 977.156 1631.4 C 980.94 1794.27 799.195 1892.51 680.217 1759.21 C 677.817 1756.48 675.479 1753.69 673.205 1750.85 C 645.919 1715.88 633.779 1671.43 639.498 1627.44 C 643.481 1595.94 658.32 1564.35 683.685 1544.57 C 681.48 1553.32 680.486 1559.97 679.479 1568.89 C 745.869 1531.33 812.483 1494.17 879.316 1457.41 C 910.991 1439.95 943.148 1420.3 975.203 1403.84 z" fill="rgb(253,74,16)" transform="translate(0,0)"></path>
<path d="M 1073.03 1403.16 C 1078.95 1405.63 1100.46 1418.4 1107.07 1422.1 L 1181.59 1463.98 C 1243.1 1498.72 1305.98 1531.85 1367.14 1567.57 L 1366.99 1544.48 C 1428.81 1600.95 1420.19 1698.48 1369.43 1759.41 C 1334.96 1799.61 1294.23 1821.85 1240.49 1821.15 C 1196.52 1820.68 1154.61 1802.42 1124.34 1770.53 C 1102.06 1747.2 1086.18 1718.52 1078.25 1687.26 C 1071.57 1660.19 1072.56 1634.58 1072.65 1607.06 L 1072.86 1541.65 C 1072.61 1495.49 1072.66 1449.32 1073.03 1403.16 z" fill="rgb(253,74,16)" transform="translate(0,0)"></path>
<path d="M 1476.15 1278.4 C 1491.83 1277.03 1506.58 1277.95 1521.71 1282.4 C 1556.87 1292.72 1586.37 1316.81 1603.52 1349.2 C 1635.21 1408.35 1624.19 1476.14 1589.98 1531.56 C 1565.17 1571.75 1533.26 1596.46 1492.43 1618.24 C 1472.15 1627.88 1454.4 1632.69 1432.81 1637.22 C 1433.05 1615.26 1433.6 1593.62 1428.74 1572.03 C 1418.94 1529.2 1388.85 1496.81 1374.2 1455.88 C 1345.67 1376.22 1386.9 1286.97 1476.15 1278.4 z" fill="rgb(253,74,16)" transform="translate(0,0)"></path>
<path d="M 553.557 1278.41 C 588.537 1275.08 623.036 1288.08 648.103 1312.47 C 695.684 1358.88 691.172 1434.2 659.753 1488.27 C 646.078 1511.81 631.211 1537.12 622.455 1562.94 C 614.463 1586.49 615.726 1612.19 616.053 1636.72 C 598.902 1633.25 590.056 1630.7 573.751 1624.51 C 497.866 1595.65 434.225 1521.43 428.64 1438.91 C 423.292 1359.91 470.351 1284.96 553.557 1278.41 z" fill="rgb(253,74,16)" transform="translate(0,0)"></path>
<path d="M 907.932 1899.55 C 956.984 1874.26 993.61 1843.19 1024.9 1797.66 C 1053.64 1841.46 1093.71 1876.65 1140.85 1899.5 C 1141.86 1899.84 1143.82 1900.49 1144.38 1901.47 C 1144.34 1901.62 1144.33 1901.75 1144.14 1901.75 C 1119.63 1901.71 1074.86 1902.5 1052.43 1901.8 C 1005.08 1902.96 956.171 1901.25 907.865 1902.3 C 903.824 1901.59 904.822 1900.84 907.932 1899.55 z" fill="rgb(253,74,16)" transform="translate(0,0)"></path>
<path d="M 1140.85 1899.5 C 1141.86 1899.84 1143.82 1900.49 1144.38 1901.47 C 1144.34 1901.62 1144.33 1901.75 1144.14 1901.75 C 1119.63 1901.71 1074.86 1902.5 1052.43 1901.8 C 1067.61 1898.3 1133.43 1903.43 1140.85 1899.5 z" fill="rgb(243,84,36)" transform="translate(0,0)"></path>
<path d="M 907.865 1902.3 C 903.824 1901.59 904.822 1900.84 907.932 1899.55 L 907.865 1902.3 z" fill="rgb(243,84,36)" transform="translate(0,0)"></path>
<path d="M 915.593 146.757 L 1074.27 146.76 C 1088.13 146.698 1125.12 147.731 1136.71 146.481 L 1137.72 150.278 C 1093 167.727 1049.88 207.756 1024.85 248.373 C 994.122 201.334 961.528 174.505 911.683 149.977 L 915.593 146.757 z" fill="rgb(253,74,16)" transform="translate(0,0)"></path>
<path d="M 911.683 149.977 C 910.716 149.544 907.038 148.303 906.772 147.32 C 907.518 146.228 914.315 146.755 915.593 146.757 L 911.683 149.977 z" fill="rgb(243,84,36)" transform="translate(0,0)"></path>
<path d="M 1335.41 150.347 C 1334.53 150.02 1328.96 148.491 1328.84 147.571 C 1329.78 146.567 1333.64 146.977 1334.9 147.013 L 1335.41 150.347 z" fill="rgb(243,84,36)" transform="translate(0,0)"></path>
<path d="M 1136.71 146.481 C 1144.17 147.001 1144.57 147.185 1137.72 150.278 L 1136.71 146.481 z" fill="rgb(243,84,36)" transform="translate(0,0)"></path>
<metadata><recraft-signature>{"signed_by": "recraft", "signature_b64": "5KFuw67fMsGXTauQgNpG3Z0Gs6LAJDbJn8ZQQHQm/y7Slvwv4xlvrhBo26JHOhgarzqBN+Q6Ug34GmZARWneDg==", "signing_algo": "Ed25519", "generation_timestamp": 1772776826, "identifier": "246160fa-8a6a-4fb5-939e-08317db96979"}</recraft-signature></metadata></svg>