<svg xmlns="http://www.w3.org/2000/svg" height="1024" preserveAspectRatio="none" style="display: block;" version="1.1" viewBox="0 0 2048 2048" width="1024">
<path d="M 0 0 L 2048 0 L 2048 2048 L 0 2048 L 0 0 z" fill="rgb(252,252,253)" transform="translate(0,0)"></path>
<path d="M 1023.23 303.668 C 1027.73 305.336 1391.79 698.486 1423.36 733.054 L 1124.48 732.98 C 1122.65 790.838 1125.05 854.12 1124.3 912.459 C 1124.63 959.243 1122.98 1006.62 1125.84 1053.29 C 1135.33 1210.48 1202.51 1355.17 1321.09 1459.58 C 1418.32 1545.21 1554.72 1605.02 1684.6 1614.31 C 1637 1670.28 1592.32 1709.54 1524.61 1741 C 1516.27 1744.03 1497.31 1754.76 1488.6 1754.43 C 1325.52 1748.1 1148.59 1661.06 1025.61 1562.51 C 1024.69 1562.4 1023.34 1562.9 1022.67 1563.43 C 903.443 1656.91 763.952 1727.09 613.013 1749.41 C 569.586 1755.83 564.905 1760.51 523.656 1740.59 C 456.695 1708.26 414.099 1671.84 365.785 1615.32 C 517.439 1593.93 643.007 1545.22 753.513 1435.51 C 855.858 1333.9 911.985 1205.02 921.799 1061.99 C 924.848 1017.56 924.211 976.374 924.235 931.786 L 924.026 733.025 C 824.93 731.993 725.086 734.22 625.478 732.974 C 641.246 714.793 661.373 694.33 678.042 676.187 L 821.182 521.466 C 863.378 475.21 905.949 429.299 948.892 383.736 C 972.201 358.516 999.157 327.496 1023.23 303.668 z" fill="rgb(10,10,10)" transform="translate(0,0)"></path>
<path d="M 1119.69 272.312 L 1284.92 272.104 C 1319.52 272.07 1359.84 271.036 1393.9 274.146 C 1494.01 282.758 1587.75 326.835 1658.24 398.437 C 1726.85 467.08 1769.4 557.478 1778.58 654.093 C 1781.59 683.946 1781.04 713.078 1781.05 743.014 L 1781.04 855.643 L 1781.03 1150.95 C 1758.36 1150.99 1724.86 1152.06 1703.13 1149.59 C 1625.93 1140.83 1554.35 1106.26 1489.23 1066.09 C 1500.6 1104.21 1537.52 1162.58 1565.88 1189.54 C 1633.8 1254.12 1695.95 1250.21 1780.97 1249.08 C 1780.89 1324.4 1783.86 1394.64 1760.47 1467.39 C 1755.5 1482.84 1749.83 1497 1743.98 1512.1 C 1601.94 1510.59 1469.6 1458.22 1368.34 1357.67 C 1280.92 1271.3 1226.43 1157.1 1214.28 1034.8 C 1210.91 999.742 1211.38 964.037 1211.45 928.82 L 1211.31 817.99 L 1620.27 817.14 L 1376.63 551.629 L 1303.43 472.148 C 1291.17 458.88 1269.84 436.741 1259.19 422.929 L 1119.69 272.312 z" fill="rgb(253,82,36)" transform="translate(0,0)"></path>
<path d="M 1119.69 272.312 L 1284.92 272.104 C 1319.52 272.07 1359.84 271.036 1393.9 274.146 C 1494.01 282.758 1587.75 326.835 1658.24 398.437 C 1726.85 467.08 1769.4 557.478 1778.58 654.093 C 1781.59 683.946 1781.04 713.078 1781.05 743.014 L 1781.04 855.643 L 1781.03 1150.95 C 1758.36 1150.99 1724.86 1152.06 1703.13 1149.59 C 1625.93 1140.83 1554.35 1106.26 1489.23 1066.09 C 1484.98 1059.72 1479.06 1041.43 1476.83 1034.06 C 1462.91 988.182 1457.61 948.537 1458.46 900.824 C 1551.1 900.494 1645.81 901.463 1738.15 900.235 L 1552.7 423.025 C 1454.87 424.051 1357.02 424.019 1259.19 422.929 L 1119.69 272.312 z" fill="rgb(10,10,10)" transform="translate(0,0)"></path>
<path d="M 270.348 1151.02 L 270.253 1144.36 C 269.256 1050.62 270.333 955.45 270.309 861.598 L 270.057 743.319 C 269.962 709.591 269.255 676.335 273.107 642.742 C 283.935 552.122 324.196 467.558 387.714 402.024 C 462.187 326.037 554.67 282.136 660.612 274.026 C 693.56 271.504 730.368 272.266 763.558 272.31 L 929.329 272.094 C 909.49 292.298 890.828 313.603 871.745 334.557 C 844.846 364.123 817.783 393.541 790.558 422.808 L 568.925 665.255 C 522.755 715.229 474 765.932 429.099 816.948 L 836.972 817.485 L 836.977 931.944 C 836.969 965.366 837.459 995.647 834.464 1028.98 C 824.002 1152.41 770.352 1268.19 682.952 1355.97 C 583.234 1456.1 447.671 1512.27 306.36 1512.03 L 305.115 1512.02 C 268.874 1425.89 267.639 1341.16 270.147 1249.31 C 358.834 1249.15 414.511 1256.71 485.046 1186.99 C 513.236 1159.12 528.85 1132.52 546.65 1097.52 C 552.129 1086.75 557.547 1077.45 560.81 1065.4 C 490.658 1107.5 418.729 1141.95 335.79 1149.97 C 316.232 1151.86 290.451 1151.05 270.348 1151.02 z" fill="rgb(253,82,36)" transform="translate(0,0)"></path>
<path d="M 270.348 1151.02 L 270.253 1144.36 C 269.256 1050.62 270.333 955.45 270.309 861.598 L 270.057 743.319 C 269.962 709.591 269.255 676.335 273.107 642.742 C 283.935 552.122 324.196 467.558 387.714 402.024 C 462.187 326.037 554.67 282.136 660.612 274.026 C 693.56 271.504 730.368 272.266 763.558 272.31 L 929.329 272.094 C 909.49 292.298 890.828 313.603 871.745 334.557 C 844.846 364.123 817.783 393.541 790.558 422.808 C 694.938 425.325 591.944 423.814 495.97 423.053 C 461.203 509.6 427.204 596.453 393.979 683.603 C 365.383 755.537 337.396 827.712 310.02 900.119 L 591.427 900.98 C 591.155 961.868 583.687 1008.09 560.81 1065.4 C 490.658 1107.5 418.729 1141.95 335.79 1149.97 C 316.232 1151.86 290.451 1151.05 270.348 1151.02 z" fill="rgb(10,10,10)" transform="translate(0,0)"></path>
<path d="M 1026.12 1688.8 C 1064.82 1714.77 1111.23 1739.5 1153.29 1759.82 C 1163.98 1764.99 1186.5 1776.39 1197.36 1779.95 L 1198.39 1783.73 C 1192.79 1782.7 1175.28 1783.17 1168.88 1783.26 C 1150.17 1783.55 1131.46 1783.73 1112.75 1783.78 L 956.05 1783.16 C 924.354 1783.1 891.259 1783.66 859.68 1783 C 857.408 1783.1 853.018 1783.6 850.945 1783.38 C 845.339 1782.79 851.832 1780.72 853.184 1780.32 C 893.81 1763.4 933.368 1744.01 971.639 1722.28 C 988.141 1712.76 1010.74 1696.93 1026.12 1688.8 z" fill="rgb(253,82,36)" transform="translate(0,0)"></path>
<path d="M 859.68 1783 C 857.408 1783.1 853.018 1783.6 850.945 1783.38 C 845.339 1782.79 851.832 1780.72 853.184 1780.32 C 855.844 1781.68 856.866 1782 859.68 1783 z" fill="rgb(240,83,52)" transform="translate(0,0)"></path>
<path d="M 1197.36 1779.95 C 1203.23 1782.19 1204.21 1782.52 1198.39 1783.73 L 1197.36 1779.95 z" fill="rgb(240,83,52)" transform="translate(0,0)"></path>
<metadata><recraft-signature>{"signed_by": "recraft", "signature_b64": "FtTPj45W0ITkptV+ThO5jNw5KzWYSUj6+86lRHZkfZjVCRHHPpoE82DCcM0hqkdqGN1O5KICXk2O74lGNhezDQ==", "signing_algo": "Ed25519", "generation_timestamp": 1772776847, "identifier": "bf7e4895-f6c8-47fe-816c-a7b542bfd0de"}</recraft-signature></metadata></svg>