<svg xmlns="http://www.w3.org/2000/svg" height="1024" preserveAspectRatio="none" style="display: block;" version="1.1" viewBox="0 0 2048 2048" width="1024">
<path d="M 0 0 L 2048 0 L 2048 2048 L 0 2048 L 0 0 z" fill="rgb(255,255,255)" transform="translate(0,0)"></path>
<path d="M 851.986 605.402 L 1045.56 605.219 C 1072.38 605.174 1198.03 602.165 1213.32 608.146 C 1228.26 613.994 1240.9 626.738 1246.6 641.679 C 1251.89 655.524 1251.55 671.795 1245.37 685.316 C 1237.65 702.216 1223.57 711.421 1206.67 717.505 C 1207.45 778.438 1206.92 840.501 1206.88 901.489 L 1206.84 1177.76 L 1206.76 1364.29 C 1206.76 1398.15 1207.1 1432.58 1206.48 1466.41 C 1205.52 1518.46 1186.52 1562.73 1148.41 1598.5 C 1115 1628.62 1071.71 1645.45 1026.72 1645.81 C 978.634 1646.13 932.381 1627.35 898.124 1593.6 C 872.983 1568.48 856.198 1536.22 850.057 1501.22 C 845.731 1476.81 846.962 1433.68 846.957 1407.3 L 846.994 1258.6 L 846.739 718.369 C 835.318 716.129 825.65 712.76 816.481 705.118 C 804.244 695.048 796.734 680.351 795.741 664.534 C 794.895 649.821 799.871 635.365 809.595 624.291 C 821.663 610.558 834.485 606.408 851.986 605.402 z" fill="rgb(17,6,70)" transform="translate(0,0)"></path>
<path d="M 939.848 926.138 C 975.36 935.698 991.195 946.304 1020.11 968.724 C 1044.99 988.014 1080.19 993.972 1111.22 993.516 L 1111.2 1325.06 L 1111.2 1421.99 C 1111.18 1435.66 1111.8 1464.3 1109.73 1476.68 C 1106.84 1494.49 1098.45 1510.96 1085.75 1523.78 C 1069.44 1539.88 1047.34 1548.74 1024.42 1548.35 C 999.692 1547.91 979.835 1539.91 962.66 1521.77 C 950.845 1509.45 943.273 1493.67 941.045 1476.74 C 938.612 1459.44 939.655 1422.04 939.697 1403.2 L 940.011 1269.88 L 940.042 1055.07 C 939.874 1013.7 938.563 967.159 939.848 926.138 z" fill="rgb(3,142,166)" transform="translate(0,0)"></path>
<path d="M 939.855 706.546 C 996.927 706.098 1054 705.978 1111.07 706.185 C 1111.86 801.96 1111.91 897.74 1111.22 993.516 C 1080.19 993.972 1044.99 988.014 1020.11 968.724 C 991.195 946.304 975.36 935.698 939.848 926.138 C 940.539 853.067 938.986 779.464 939.855 706.546 z" fill="rgb(255,255,255)" transform="translate(0,0)"></path>
<path d="M 1047.76 579.886 C 1060.08 491.601 1106.8 411.765 1177.73 357.78 C 1223.84 322.311 1288.22 292.947 1346.17 287.151 C 1384.57 283.31 1447.7 281.539 1485.16 286.542 C 1571.72 298.08 1650.13 343.584 1703.1 413.016 C 1766.24 496.726 1772.92 601.255 1759.28 701.901 C 1740.35 841.565 1664.96 972.067 1552.33 1057.06 C 1506.36 1091.75 1430.99 1130.27 1373.71 1142.47 C 1370.84 1143.93 1367.65 1144.55 1364.52 1145.21 L 1357.99 1146.68 C 1349.1 1148.65 1337.98 1151.36 1329.16 1152.38 C 1326.87 1153.24 1315.09 1155.09 1311.98 1155.63 L 1312.21 935.655 C 1412.31 922.825 1499.81 836.942 1526.38 741.26 C 1531.78 721.843 1533.67 698.997 1533.24 678.949 C 1531.24 614.412 1504.21 553.186 1457.87 508.217 C 1401.1 453.882 1342.5 432.53 1264.23 434.059 L 1262.09 437.103 C 1322.6 447.004 1375.96 477.647 1411.9 527.72 C 1473.56 613.633 1468.33 741.299 1377.02 804.483 C 1355.88 819.106 1337.46 826.454 1312.62 833.167 C 1311.83 808.071 1311.54 765.656 1312.71 740.696 C 1371.2 694.293 1369.81 617.424 1325.02 561.701 C 1297.34 527.35 1257.2 505.331 1213.36 500.441 C 1142.5 493.178 1086.83 528.652 1051.21 588.128 C 1050.1 590.647 1048.15 593.949 1046.73 596.354 C 1046.89 590.37 1046.77 585.866 1047.76 579.886 z" fill="rgb(17,6,70)" transform="translate(0,0)"></path>
<path d="M 1086.08 518.584 C 1120.52 466.34 1158.5 426.773 1216.32 401.125 C 1410.71 314.896 1611.71 456.447 1649.04 653.256 C 1670.15 764.59 1646.88 871.422 1584.09 965.475 C 1525.51 1051.31 1448.26 1106.86 1352.15 1143.63 C 1352.07 1143.92 1351.07 1145.78 1351.47 1145.82 C 1357.85 1146.44 1367.51 1141.11 1373.71 1142.47 C 1370.84 1143.93 1367.65 1144.55 1364.52 1145.21 L 1357.99 1146.68 C 1349.1 1148.65 1337.98 1151.36 1329.16 1152.38 C 1326.87 1153.24 1315.09 1155.09 1311.98 1155.63 L 1312.21 935.655 C 1412.31 922.825 1499.81 836.942 1526.38 741.26 C 1531.78 721.843 1533.67 698.997 1533.24 678.949 C 1531.24 614.412 1504.21 553.186 1457.87 508.217 C 1401.1 453.882 1342.5 432.53 1264.23 434.059 L 1262.09 437.103 C 1258.97 437.019 1255.84 436.822 1252.72 436.691 C 1203.32 434.313 1146.62 464.068 1110.77 496.733 C 1102.3 504.441 1094.41 512.761 1087.16 521.626 L 1086.08 518.584 z" fill="rgb(3,142,166)" transform="translate(0,0)"></path>
<path d="M 1352.15 1143.63 C 1352.07 1143.92 1351.07 1145.78 1351.47 1145.82 C 1357.85 1146.44 1367.51 1141.11 1373.71 1142.47 C 1370.84 1143.93 1367.65 1144.55 1364.52 1145.21 L 1357.99 1146.68 C 1349.1 1148.65 1337.98 1151.36 1329.16 1152.38 C 1329.03 1152.11 1328.91 1151.83 1328.79 1151.56 C 1329.36 1151.13 1350.46 1144.09 1352.15 1143.63 z" fill="rgb(22,18,85)" transform="translate(0,0)"></path>
<path d="M 1252.72 436.691 C 1252.39 436.338 1252.07 435.986 1251.74 435.633 C 1253.07 435.034 1262.13 434.337 1264.23 434.059 L 1262.09 437.103 C 1258.97 437.019 1255.84 436.822 1252.72 436.691 z" fill="rgb(207,229,237)" transform="translate(0,0)"></path>
<path d="M 1047.76 579.886 L 1048.04 581.873 C 1048.62 586.227 1047.37 585.867 1051.21 588.128 C 1050.1 590.647 1048.15 593.949 1046.73 596.354 C 1046.89 590.37 1046.77 585.866 1047.76 579.886 z" fill="rgb(22,18,85)" transform="translate(0,0)"></path>
<path d="M 1086.08 518.584 L 1087.16 521.626 C 1083.82 527.356 1081.61 525.398 1086.08 518.584 z" fill="rgb(4,78,120)" transform="translate(0,0)"></path>
<path d="M 720.843 1151.33 C 630.564 1136.79 545.955 1097.92 476.114 1038.9 C 368.159 949.074 298.78 811.859 287.577 672.574 C 279.449 571.512 293.158 480.13 359.923 400.027 C 414.545 334.749 492.734 293.677 577.481 285.747 C 598.757 283.886 619.293 285.344 639.851 284.166 C 776.584 276.33 907.693 353.158 969.622 474.788 C 985.608 506.184 1000.34 549.231 1003.25 584.396 L 996.869 583.785 C 987.981 569.026 977.038 555.608 964.369 543.932 C 931.585 514.069 890.701 497.616 846.137 499.716 C 802.77 501.879 761.991 521.002 732.597 552.961 C 680.855 610.08 676.207 687.75 735.895 740.909 C 736.358 770.866 735.993 801.788 736.022 831.823 C 663.758 817.018 611.331 759.232 601.022 686.749 C 592.33 625.639 608.282 570.192 645.094 521.055 C 681.429 472.556 731.532 445.682 790.832 436.786 C 787.654 435.017 784.993 435.151 781.407 434.146 C 709.505 433.126 644.457 455.614 593.537 506.741 C 439.661 661.243 533.41 893.208 735.979 935.339 C 736.642 1008.41 736.649 1081.49 736 1154.56 C 732.468 1153.89 723.786 1152.47 720.843 1151.33 z" fill="rgb(17,6,70)" transform="translate(0,0)"></path>
<path d="M 720.843 1151.33 L 721.129 1150.93 C 721.456 1151.24 676.661 1134.35 670.474 1131.63 C 592.982 1098.54 525.745 1045.33 475.723 977.521 C 409.813 889.546 381.902 778.83 398.231 670.124 C 412.707 575.32 459.728 492.661 537.317 435.347 C 648.441 353.261 802.063 354.152 905.855 447.723 C 929.786 469.297 946.445 490.444 965.347 516.424 L 962.514 517.341 C 962.422 517.213 962.329 517.084 962.236 516.956 C 927.058 477.068 884.375 451.732 832.528 439.974 C 821.22 437.409 813.517 437.724 803.23 436.248 L 801.289 435.959 C 797.775 436.23 794.313 436.751 790.832 436.786 C 787.654 435.017 784.993 435.151 781.407 434.146 C 709.505 433.126 644.457 455.614 593.537 506.741 C 439.661 661.243 533.41 893.208 735.979 935.339 C 736.642 1008.41 736.649 1081.49 736 1154.56 C 732.468 1153.89 723.786 1152.47 720.843 1151.33 z" fill="rgb(3,142,166)" transform="translate(0,0)"></path>
<path d="M 781.407 434.146 C 788.999 434.084 793.768 434.451 801.289 435.959 C 797.775 436.23 794.313 436.751 790.832 436.786 C 787.654 435.017 784.993 435.151 781.407 434.146 z" fill="rgb(207,229,237)" transform="translate(0,0)"></path>
<path d="M 965.347 516.424 C 968.262 520.129 969.938 524.324 972.131 528.482 C 968.651 524.95 965.525 521.28 962.514 517.341 L 965.347 516.424 z" fill="rgb(4,78,120)" transform="translate(0,0)"></path>
<path d="M 1761.2 983.823 C 1767.74 972.338 1764.96 1003.97 1764.78 1006.73 L 1765.01 1297.82 L 1765 1398.5 C 1765 1443.31 1766.45 1478.35 1755.95 1522.37 C 1724.3 1654.97 1601.78 1756.32 1464.01 1757.02 L 1195.05 1756.84 C 1151.62 1758.68 1098.58 1756.88 1054.06 1757.09 L 1054.19 1755.94 C 1056.98 1755.17 1061.14 1754.76 1064.14 1754.36 C 1128.04 1743.72 1178.16 1718.6 1224.46 1673.18 C 1266.68 1631.77 1301.54 1564.94 1309.18 1506.14 C 1313.17 1475.4 1312.04 1434.81 1312.04 1403.04 L 1311.97 1267.42 C 1330.36 1266.16 1352.33 1262.28 1370.39 1258.6 C 1496.02 1232.13 1609.96 1166.34 1695.69 1070.78 C 1722.77 1040.54 1739.3 1017 1761.2 983.823 z" fill="rgb(3,142,166)" transform="translate(0,0)"></path>
<path d="M 1054.19 1755.94 C 1056.98 1755.17 1061.14 1754.76 1064.14 1754.36 C 1069.77 1757.49 1178.89 1755.54 1195.05 1756.84 C 1151.62 1758.68 1098.58 1756.88 1054.06 1757.09 L 1054.19 1755.94 z" fill="rgb(127,173,190)" transform="translate(0,0)"></path>
<path d="M 1761.2 983.823 C 1767.74 972.338 1764.96 1003.97 1764.78 1006.73 C 1761.28 1002.77 1766.72 991.909 1761.2 983.823 z" fill="rgb(25,144,178)" transform="translate(0,0)"></path>
<path d="M 285.655 978.848 L 293.316 990.557 C 377.749 1118.99 495.573 1207.76 643.762 1249.89 C 664.532 1255.59 685.558 1260.32 706.771 1264.05 C 715.819 1265.64 726.634 1266.64 735.217 1268.46 L 736.025 1268.64 C 736.544 1312.56 736.749 1356.49 736.64 1400.41 C 736.544 1490.56 733.578 1551.87 789.58 1631.42 C 834.571 1696.52 903.828 1740.83 981.795 1754.38 C 986.925 1754.97 991.268 1755.38 996.332 1756.52 C 974.158 1758.04 945.46 1756.85 922.493 1757.13 C 908.926 1757.29 879.837 1757.87 866.95 1756.83 L 694.871 1756.94 C 659.17 1756.96 620.854 1757.7 585.321 1756.81 C 504.561 1755.41 427.753 1721.61 372.168 1663 C 330.252 1618.81 306.806 1573.17 293.038 1513.96 C 283.036 1470.94 285.173 1434.72 285.185 1390.92 L 285.193 1278.73 L 285.192 1075.95 C 285.28 1043.99 284.817 1010.69 285.655 978.848 z" fill="rgb(3,142,166)" transform="translate(0,0)"></path>
<path d="M 981.795 1754.38 C 986.925 1754.97 991.268 1755.38 996.332 1756.52 C 974.158 1758.04 945.46 1756.85 922.493 1757.13 C 908.926 1757.29 879.837 1757.87 866.95 1756.83 C 885.035 1755.02 973.281 1758.62 981.795 1754.38 z" fill="rgb(127,173,190)" transform="translate(0,0)"></path>
<path d="M 996.869 583.785 L 1003.25 584.396 C 1003.16 595.364 1002.18 592.653 996.869 583.785 z" fill="rgb(22,18,85)" transform="translate(0,0)"></path>
<path d="M 1054.06 1757.09 C 1047.35 1758.56 1048.72 1756 1052.64 1755.97 L 1054.19 1755.94 L 1054.06 1757.09 z" fill="rgb(207,229,237)" transform="translate(0,0)"></path>
<metadata><recraft-signature>{"signed_by": "recraft", "signature_b64": "t1DEbCazN1j2mJfeZT5UjPKwLbwTpw3ZDEawvtGZBoiWm8DAwZYJuK8VrHAscHB9fsLpSb9fMi7VKxtiZsBdCg==", "signing_algo": "Ed25519", "generation_timestamp": 1772776412, "identifier": "1912dbb6-5b33-46f7-a48b-72162d1c10e7"}</recraft-signature></metadata></svg>