<svg xmlns="http://www.w3.org/2000/svg" height="1024" preserveAspectRatio="none" style="display: block;" version="1.1" viewBox="0 0 2048 2048" width="1024">
<path d="M 0 0 L 2048 0 L 2048 2048 L 0 2048 L 0 0 z" fill="rgb(255,255,255)" transform="translate(0,0)"></path>
<path d="M 552.682 275.432 C 577.29 274.536 603.855 274.99 628.633 274.946 L 758.952 274.758 L 1172.68 274.824 L 1393.95 274.802 C 1435.39 274.83 1493.68 272.756 1533.01 278.888 C 1580.86 286.212 1625.98 305.868 1663.94 335.922 C 1728.77 386.415 1770.51 460.908 1779.73 542.565 C 1782.66 568.161 1781.53 604.116 1781.33 630.334 L 1781.12 745.396 L 1781.29 1157.33 L 1781.75 1392.49 L 1781.81 1457.82 C 1781.81 1477.62 1781.95 1496.53 1779.31 1516.01 C 1762.34 1640.99 1666.78 1745.53 1542.91 1770.9 C 1529.09 1773.74 1516.7 1775.4 1502.52 1776.91 C 1430.13 1779.16 1352.38 1777.42 1279.51 1777.45 L 865.987 1777.57 L 647.754 1777.52 C 604.124 1777.4 561.548 1779.82 518.264 1773.3 C 382.439 1752.82 279.397 1633.4 272.708 1497.13 C 271.431 1471.11 271.904 1444.59 271.848 1418.51 L 271.917 1280.76 L 271.905 912.253 L 271.735 665.594 C 271.783 634.274 271.957 602.91 272.007 571.597 C 272.258 415.183 396.115 284.13 552.682 275.432 z" fill="rgb(2,141,156)" transform="translate(0,0)"></path>
<path d="M 915.39 672.964 L 1139.5 672.233 C 1135.83 717.34 1110.83 742.188 1081.85 771.743 L 1040.86 813.921 C 1062.63 836.874 1094.94 870.787 1117.54 891.556 C 1188.07 819.411 1231.19 780.614 1240.13 672.897 C 1259.56 672.62 1279 672.49 1298.43 672.509 C 1307.5 672.511 1325.43 672.104 1333.58 673.849 C 1339.72 675.143 1345.4 678.042 1350.05 682.249 C 1357.86 689.368 1362.34 699.424 1362.42 709.991 C 1362.96 757.268 1299.58 748.052 1268.95 747.97 L 1269.12 957.998 C 1269.02 1000.74 1266.46 1056.44 1273.82 1097.25 C 1287.47 1172.94 1366.25 1236.25 1417.84 1289.58 L 1670.22 1547.61 C 1660.01 1575.9 1643.89 1597.04 1623.13 1618.38 C 1556.31 1687.02 1473.72 1677.89 1387.5 1677.44 C 1343.61 1677.18 1299.73 1677.36 1255.84 1677.96 L 1236.6 1677.94 C 1249.21 1580.23 1215.1 1512.13 1145.13 1448.48 C 1137.44 1441.49 1129.33 1432.69 1121.92 1425.23 L 1019.42 1322.14 C 991.822 1294.91 953.387 1260.82 931.902 1229.52 C 920.207 1212.49 911.178 1179.19 911.714 1158.19 C 913.111 1103.47 931.005 1084.1 965.494 1048.03 C 980.086 1032.6 994.885 1017.36 1009.89 1002.33 C 990.636 979.93 955.493 946.31 934.003 925.684 C 914.266 948.069 891.342 968.569 871.323 990.43 C 837.975 1027.15 816.532 1073.11 809.816 1122.26 C 801.179 1183.39 816.659 1241.26 848.711 1293.57 C 865.063 1320.25 900.676 1352.99 923.959 1376.54 L 1053.01 1505.49 C 1109.81 1562.67 1144.36 1590.41 1131.5 1677.29 C 1102.78 1678.43 1070.88 1677.79 1042.12 1677.67 L 914.388 1677.67 C 898.646 1586.4 958.404 1558.06 1010.63 1497.84 C 984.711 1473.32 960.898 1447.17 935.431 1422.35 C 923.425 1433.88 910.882 1447.21 899.017 1459.1 C 889.126 1469.01 875.227 1482.45 866.246 1492.91 C 832.374 1532.4 811.537 1585.7 808.111 1637.48 C 807.238 1650.69 808.328 1664.24 809.349 1677.38 C 729.155 1678.36 648.607 1676.88 568.391 1677.22 C 484.245 1677.57 412.836 1622.34 382.375 1545.58 L 714.809 1204.99 C 747.006 1171.74 765.546 1142.25 776.68 1096.57 C 783.218 1069.75 781.435 1040.36 781.363 1012.58 L 781.076 928.693 C 780.933 869.34 782.501 807.219 781.584 748.341 C 759.187 747.49 724.32 752.548 707.364 738.991 C 699.751 732.964 694.88 724.131 693.845 714.478 C 691.369 691.215 706.203 674.326 729.19 672.435 C 757.1 672.405 785.011 672.547 812.919 672.861 C 814.062 711.621 824.854 754.791 844.031 788.618 C 862.86 821.829 884.103 841.593 910.101 867.847 C 925.617 883.728 941.285 899.462 957.1 915.045 L 1064.32 1021.62 C 1077.37 1034.75 1091.97 1048.55 1104.57 1061.87 C 1129.35 1088.31 1142.49 1123.57 1141.06 1159.77 C 1139.61 1208.4 1116.94 1233.45 1084.92 1265.55 C 1070.19 1280.43 1055.14 1294.99 1039.79 1309.23 C 1064.43 1334.84 1091.42 1359.78 1115.6 1385.73 C 1138.42 1363.92 1163.03 1338.79 1184.76 1316 C 1216.49 1282.74 1236.98 1230.2 1242.76 1184.98 C 1249.6 1131.39 1238.74 1077.04 1211.83 1030.2 C 1188.97 990.589 1150.81 957.946 1118.46 925.47 L 992.219 799.459 C 949.973 756.63 919.252 738.363 915.39 672.964 z" fill="rgb(255,255,255)" transform="translate(0,0)"></path>
<path d="M 517.939 379.149 C 517.411 382.982 502.306 411.046 499.3 418.012 C 496.079 425.479 491.648 435.903 488.408 443.879 C 457.19 521.885 444.168 605.981 450.33 689.776 C 460.381 814.07 509.801 931.923 591.409 1026.21 C 616.813 1055.35 641.394 1077.53 670.414 1102.46 C 654.691 1130.08 635.392 1146.96 613.157 1169.17 L 600.72 1158.95 C 513.782 1085.87 447.184 991.575 407.373 885.203 C 384.317 825.675 370.831 762.873 367.417 699.128 C 366.372 676.871 367.275 652.193 367.055 629.807 C 366.561 579.615 365.709 536.465 387.77 489.433 C 405.905 450.772 439.299 416.44 476.943 396.228 C 490.296 389.058 503.806 384.372 517.939 379.149 z" fill="rgb(255,255,255)" transform="translate(0,0)"></path>
<path d="M 1533.08 379.326 C 1565.35 388.17 1607.31 415.816 1629.23 440.404 C 1680.63 498.058 1686.21 552.356 1684.1 625.749 C 1683.18 650.623 1685.52 676.916 1683.76 701.672 C 1671 880.74 1582.13 1036.21 1452.5 1155.53 C 1447.52 1160.16 1443.12 1164.09 1437.89 1168.44 C 1416.02 1150.29 1395.41 1126.52 1381.99 1101.58 C 1404.53 1081.2 1424.73 1063.1 1445.42 1040.81 C 1510.58 970.773 1557.79 885.995 1583.03 793.728 C 1613.48 680.563 1607.48 560.682 1565.9 451.119 C 1555.95 424.593 1547.09 403.776 1533.08 379.326 z" fill="rgb(255,255,255)" transform="translate(0,0)"></path>
<path d="M 1413.67 375.157 C 1446.8 374.573 1481.05 374.995 1514.27 374.983 C 1562.88 455.248 1588.85 561.461 1587.13 655.031 C 1584.33 808.123 1522.02 944.908 1413.65 1051.67 C 1400.95 1063.51 1388.18 1075.28 1375.34 1086.97 C 1361.81 1047.2 1364.58 1022.98 1364.73 981.842 C 1436.08 900.563 1483.5 821.617 1499.52 712.407 C 1516.3 593.078 1485.46 471.937 1413.67 375.157 z" fill="rgb(255,255,255)" transform="translate(0,0)"></path>
<path d="M 538.414 375.452 C 568.927 374.032 605.832 374.981 636.803 375 C 626.113 388.512 613.86 408.415 605.396 423.328 C 562.286 498.048 541.348 583.501 545.033 669.687 C 549.811 785.3 603.871 906.692 689.163 985.344 C 689.692 1009.67 691.118 1043.2 684.931 1065.94 C 682.755 1073.18 679.657 1081.04 677.003 1088.2 C 580.91 1011.99 512.502 906.323 482.293 787.451 C 445.593 648.111 465.782 499.898 538.414 375.452 z" fill="rgb(255,255,255)" transform="translate(0,0)"></path>
<path d="M 1015.74 378.443 C 1061.21 376.007 1117.49 390.296 1156.87 412.712 C 1221.96 449.766 1264.31 503.952 1283.93 576.163 C 1258.83 576.227 1233.48 577.021 1208.4 576.375 C 1199.77 561.276 1195.31 550.148 1184.1 535.964 C 1144.39 485.735 1103.51 462.956 1041.15 455.113 C 1003.42 453.335 971.279 458.204 936.947 475.186 C 897.64 494.629 859.263 533.948 845.546 576.101 C 819.87 576.354 794.192 576.373 768.516 576.158 C 800.561 456.098 893.246 384.606 1015.74 378.443 z" fill="rgb(255,255,255)" transform="translate(0,0)"></path>
<path d="M 654.744 375.016 L 761.516 374.956 C 694.202 449.847 660.487 499.441 648.919 603.617 C 627.43 620.379 613.432 636.807 603.975 662.921 C 592.448 694.143 593.891 728.678 607.98 758.83 C 624.382 793.709 654.304 816.407 689.837 829.402 L 689.874 892.5 C 690.069 916.735 689.948 940.972 689.513 965.203 C 678.502 952.657 667.941 942.071 657.43 928.743 C 611.996 871.273 581.205 803.625 567.707 731.619 C 549.624 636.327 563.555 537.73 607.329 451.178 C 621.676 423.13 637.06 400.908 654.744 375.016 z" fill="rgb(255,255,255)" transform="translate(0,0)"></path>
<path d="M 1286.52 375.074 C 1322.17 374.632 1358.62 375.022 1394.34 375.02 C 1444 433.886 1477.19 518.953 1486.2 595.061 C 1498.07 697.26 1474.32 800.425 1418.97 887.154 C 1406.72 906.734 1393.27 924.283 1378.98 942.361 C 1374.5 948.041 1369.84 953.581 1365.01 958.973 C 1364.66 915.775 1365.06 872.762 1364.34 829.502 C 1391.26 818.47 1407.53 809.103 1427.2 787.241 C 1465.9 744.23 1466.46 679.752 1434.05 633.045 C 1424.65 619.508 1414.35 610.487 1401.94 599.785 C 1391.16 513.618 1350.28 434.031 1286.52 375.074 z" fill="rgb(255,255,255)" transform="translate(0,0)"></path>
<path d="M 1682.35 809.23 L 1683.45 804.964 L 1684.33 804.932 C 1685.83 813.966 1685.74 1040.77 1684.54 1045.93 C 1679.95 1054.47 1671.37 1067.27 1665.95 1075.73 C 1624.3 1140.21 1573.32 1198.15 1514.67 1247.68 C 1497.02 1232.68 1465.41 1197.95 1448.63 1180.18 C 1473.65 1155.02 1499.07 1133.05 1523.17 1106.57 C 1596.45 1026.05 1656.09 915.262 1682.35 809.23 z" fill="rgb(255,255,255)" transform="translate(0,0)"></path>
<path d="M 1682.35 809.23 L 1683.45 804.964 L 1684.33 804.932 C 1685.83 813.966 1685.74 1040.77 1684.54 1045.93 C 1683.39 1036.12 1684.13 998.809 1684.1 987.344 L 1683.87 868.593 C 1683.85 850.377 1684.71 827.665 1683.76 809.972 L 1682.35 809.23 z" fill="rgb(128,206,215)" transform="translate(0,0)"></path>
<path d="M 366.839 861.211 C 365.239 844.518 366.395 822.518 366.509 805.575 C 366.512 805.139 367.703 805.599 368.086 807.978 L 368.63 811.305 C 404.415 956.068 486.394 1085.23 602.155 1179.23 C 583.725 1201.45 555.934 1228.49 535.107 1249.3 C 488.88 1213.44 439.729 1157.24 406.446 1109.13 C 398.175 1097.15 390.148 1085.01 382.371 1072.71 C 378.692 1066.9 371.365 1054.64 367.384 1049.62 C 366.256 1026.19 366.705 1000.48 366.691 976.89 L 366.839 861.211 z" fill="rgb(255,255,255)" transform="translate(0,0)"></path>
<path d="M 366.839 861.211 C 365.239 844.518 366.395 822.518 366.509 805.575 C 366.512 805.139 367.703 805.599 368.086 807.978 L 368.63 811.305 C 368.439 811.341 367.504 811.472 367.485 811.712 C 366.557 823.663 367.783 850.194 366.839 861.211 z" fill="rgb(128,206,215)" transform="translate(0,0)"></path>
<path d="M 1006.41 470.39 C 1026.08 467.283 1063.18 470.967 1082.02 477.922 C 1133.11 496.78 1167.4 528.741 1191.11 576.573 C 1143.8 576.052 1095.85 576.494 1048.5 576.603 L 860.936 576.081 C 883.96 518.867 945.82 476.632 1006.41 470.39 z" fill="rgb(255,255,255)" transform="translate(0,0)"></path>
<path d="M 1098.48 375.042 C 1115.12 374.907 1140.05 374.262 1156.3 375.16 L 1265.85 375.064 C 1282.91 391.481 1300.69 409.359 1315.41 427.912 C 1348.47 469.582 1380.08 538.224 1385.62 591.495 C 1352.16 575.166 1336.62 575.632 1299.59 576.109 C 1278.54 501.331 1236.04 440.409 1167.36 401.877 C 1148.69 391.27 1128.75 383.079 1108.02 377.5 C 1103.13 376.691 1103.17 376.424 1098.48 375.042 z" fill="rgb(255,255,255)" transform="translate(0,0)"></path>
<path d="M 1098.48 375.042 C 1115.12 374.907 1140.05 374.262 1156.3 375.16 C 1146.37 376.177 1113.18 374.619 1108.02 377.5 C 1103.13 376.691 1103.17 376.424 1098.48 375.042 z" fill="rgb(128,206,215)" transform="translate(0,0)"></path>
<path d="M 785.547 375.476 C 801.041 374.635 821.579 375.13 837.29 375.104 L 932.716 374.978 C 933.997 375.842 934.594 376.325 935.783 377.312 C 909.616 384.664 884.935 396.534 862.856 412.386 C 811.7 448.628 763.955 513.44 753.422 575.928 C 716.551 575.608 698.968 576.521 665.51 592.912 C 665.639 591.432 665.795 589.955 665.977 588.48 C 675.363 510.713 723.827 424.037 785.547 375.476 z" fill="rgb(255,255,255)" transform="translate(0,0)"></path>
<path d="M 1683.53 1075.67 C 1685.05 1080.58 1684.57 1120.21 1684.57 1128.79 L 1684.53 1243.9 C 1674.01 1252.49 1658.69 1269.77 1648.29 1280.09 C 1630.8 1297.2 1612.85 1313.83 1594.47 1329.98 C 1583.69 1319.3 1572.96 1308.56 1562.3 1297.76 C 1549.77 1285.1 1537.56 1272.12 1525.67 1258.86 C 1573.69 1215.9 1615.42 1174.24 1652.57 1121.38 C 1663.21 1106.24 1674.55 1092.03 1683.53 1075.67 z" fill="rgb(255,255,255)" transform="translate(0,0)"></path>
<path d="M 367.268 1077.75 C 368.455 1078.91 379.863 1096.41 381.744 1099.18 C 390.637 1112.18 399.71 1125.05 408.959 1137.8 C 442.459 1183.3 481.542 1224.41 525.29 1260.16 L 490.925 1294.61 C 479.288 1306.82 467.508 1318.9 455.586 1330.84 C 425.069 1307.19 391.904 1274.21 366.985 1244.81 C 366.922 1190.44 365.799 1131.78 367.268 1077.75 z" fill="rgb(255,255,255)" transform="translate(0,0)"></path>
<path d="M 1683.44 1264.81 C 1684.5 1269.12 1684.25 1298.99 1684.29 1305.62 C 1684.63 1344.87 1684.52 1384.11 1683.98 1423.35 L 1644.7 1383.09 C 1631.33 1369.5 1617.71 1354.65 1604.41 1340.83 C 1609.95 1336.66 1615.65 1331.42 1620.69 1326.59 C 1641.74 1306.38 1664.4 1286.94 1683.44 1264.81 z" fill="rgb(255,255,255)" transform="translate(0,0)"></path>
<path d="M 366.913 1267.56 C 377.307 1278.1 387.023 1289.48 397.623 1299.87 C 412.523 1314.48 428.551 1328.08 444.341 1341.73 C 431.992 1355.86 418.778 1368.86 405.5 1382.09 L 367.112 1421.68 C 366.976 1371.22 365.708 1317.7 366.913 1267.56 z" fill="rgb(255,255,255)" transform="translate(0,0)"></path>
<path d="M 932.716 374.978 C 934.327 374.976 939.696 374.79 941.093 375.479 L 941.176 375.603 C 940.605 376.767 936.898 377.129 935.783 377.312 C 934.594 376.325 933.997 375.842 932.716 374.978 z" fill="rgb(203,240,233)" transform="translate(0,0)"></path>
<metadata><recraft-signature>{"signed_by": "recraft", "signature_b64": "TSMpl4de9Yj/28Rk3LnynkiSRhu8JiaiKJ7xo4U19AG505WnctWD6RZXxMHdKZiFaOBjbF7czdTsY/j+aqezCg==", "signing_algo": "Ed25519", "generation_timestamp": 1772776384, "identifier": "1756ef43-7aeb-4b99-94b7-478d6a435c65"}</recraft-signature></metadata></svg>