<svg xmlns="http://www.w3.org/2000/svg" height="1024" preserveAspectRatio="none" style="display: block;" version="1.1" viewBox="0 0 2048 2048" width="1024">
<path d="M 0 0 L 2048 0 L 2048 2048 L 0 2048 L 0 0 z" fill="rgb(255,255,255)" transform="translate(0,0)"></path>
<path d="M 831.413 271.476 C 940.898 270.152 1050.7 272.368 1160.21 271.355 C 1195.2 271.031 1231.16 270.831 1266.02 273.639 C 1392.84 283.058 1512.49 336.093 1604.64 423.734 C 1712.29 525.48 1775.2 665.757 1779.59 813.815 C 1780.31 845.161 1779.9 878.074 1779.97 909.501 L 1780.31 1075.77 L 1780.16 1184.24 C 1780.08 1211.84 1780.45 1238.81 1778.04 1266.35 C 1766.76 1391.85 1713.5 1509.88 1626.86 1601.38 C 1521.87 1711.77 1377.03 1775.5 1224.71 1778.33 L 969.409 1778.29 L 867.874 1778.29 C 840.881 1778.28 814.556 1778.51 787.716 1776.32 C 548.051 1756.81 341.723 1582.92 287.141 1347.92 C 279.159 1313.55 273.271 1275.9 273.069 1240.44 C 272.55 1149.07 272.738 1057.65 272.767 966.263 L 272.832 858.943 C 272.859 832.735 272.375 806.843 274.53 780.712 C 285.599 651.828 340.998 530.766 431.293 438.137 C 517.446 350.096 630.454 293.238 752.496 276.529 C 780.942 272.604 802.834 271.982 831.413 271.476 z" fill="rgb(37,31,135)" transform="translate(0,0)"></path>
<path d="M 842.469 420.638 C 891.304 429.964 931.812 450.034 951.805 498.51 C 957.134 511.209 960.416 524.672 961.53 538.398 C 962.834 555.536 962.08 582.981 962.1 600.638 L 962.111 718.413 L 962.019 841.834 C 962.064 869.235 965.345 909.947 956.693 935.428 C 947.317 963.041 915.871 964.521 891.61 963.687 C 874.214 962.562 852.961 964.965 835.978 963.516 C 779.548 958.701 728.829 986.602 717.268 1044.8 C 714.556 1058.46 715.845 1079.91 715.869 1094.85 L 716.024 1159.33 C 716.072 1171.7 717.41 1188.64 712.339 1200.18 C 702.972 1221.5 682.787 1226.37 661.683 1223.65 C 611.808 1217.2 630.496 1162.93 590.432 1145.52 C 572.713 1137.82 556.198 1139.09 538.533 1145.89 C 492.529 1167.78 519.43 1223.89 457.949 1224.14 C 442.626 1224.2 419.553 1224.83 417.115 1203.17 C 414.274 1177.94 417.34 1150.72 416.332 1125.23 C 416.091 1083.46 439.268 1087 470.15 1086.03 C 497.534 1085.17 538.461 1089.16 563.766 1082.31 C 579.194 1078.01 593.32 1069.96 604.888 1058.88 C 654.91 1010.83 634.39 943.568 638.131 880.183 C 642.57 804.976 716.156 836.95 764.923 827.57 C 782.189 824.223 798.111 815.931 810.752 803.703 C 825 789.925 834.852 772.239 839.068 752.872 C 843.618 731.496 842.01 664.988 842.012 639.898 L 842.469 420.638 z" fill="rgb(255,255,255)" transform="translate(0,0)"></path>
<path d="M 1368.51 827.291 C 1382.64 825.686 1396.66 826.877 1408.11 835.904 C 1430.05 853.195 1425.51 879.34 1448.23 896.965 C 1478.82 920.7 1528.17 912.224 1541.79 873.832 C 1550.44 849.476 1555.69 829.954 1585.94 827.119 C 1609.65 825.748 1633.89 825.658 1634.04 856.587 C 1634.01 879.492 1634.56 902.73 1634.46 925.589 C 1634.27 969.825 1598.98 963.797 1567.61 963.862 C 1520.04 963.961 1478.75 957.214 1442.03 994.408 C 1430.07 1006.55 1421.61 1021.71 1417.55 1038.27 C 1413.41 1054.65 1414.18 1079.29 1414.15 1096.9 L 1414.35 1168.82 C 1414.36 1259.93 1303.91 1193.44 1250.97 1236.49 C 1208.26 1271.22 1208.16 1293.2 1208.22 1343.33 L 1208.34 1395.21 C 1208.74 1472.65 1208.7 1550.08 1208.25 1627.52 C 1186.2 1625.41 1161.49 1616.16 1143.15 1603.73 C 1115.33 1584.86 1096.36 1555.51 1090.58 1522.39 C 1088.1 1508.91 1088.9 1469.49 1088.89 1453.68 L 1088.87 1329.83 L 1088.88 1198.44 C 1088.89 1181.06 1087.88 1147.07 1089.51 1131.07 C 1090.32 1122.34 1093.41 1113.97 1098.46 1106.8 C 1115.67 1082.64 1137.32 1086.77 1162.23 1085.55 C 1189.7 1084.2 1228.24 1088.71 1254.46 1083.76 C 1271.7 1080.38 1287.77 1072.61 1301.11 1061.18 C 1338.34 1029.23 1336.98 991.528 1336.97 947.651 L 1336.85 881.687 C 1336.82 853.508 1334.8 832.56 1368.51 827.291 z" fill="rgb(255,255,255)" transform="translate(0,0)"></path>
<path d="M 1206.21 421.379 L 1207.12 421.461 C 1208.63 424.225 1208.08 446.492 1208.11 451.433 C 1208.43 495.611 1208.52 539.791 1208.38 583.97 L 1208.44 794.029 L 1208.48 865.263 C 1208.44 890.575 1211.89 917.455 1196.4 938.912 C 1186.73 952.409 1172.04 961.448 1155.63 963.993 C 1136.7 966.935 1121.47 963.556 1106.09 952.217 C 1082.76 931.007 1088.71 898.361 1088.78 869.176 L 1088.97 762.709 L 1088.89 607.794 C 1088.87 559.961 1082.19 513.735 1113.19 473.572 C 1137.54 442.026 1167.05 427.053 1206.21 421.379 z" fill="rgb(255,255,255)" transform="translate(0,0)"></path>
<path d="M 889.932 1086.21 C 900.889 1085.01 913.193 1085.16 923.935 1087.71 C 970.208 1098.67 962.009 1151.61 962.071 1187.16 L 962.172 1282.47 L 962.011 1426.94 C 961.835 1502.98 972.922 1565.76 896.5 1609.9 C 879.853 1619.17 861.009 1624.28 842.394 1627.65 C 840.851 1523.92 842.4 1418.48 842.447 1314.62 L 842.266 1202.13 C 842.242 1157.26 833.027 1099.01 889.932 1086.21 z" fill="rgb(255,255,255)" transform="translate(0,0)"></path>
<path d="M 713.774 435.152 C 714.761 436.358 714.775 438.79 714.786 440.407 C 715.215 504.429 714.232 569.551 714.438 633.422 C 714.714 718.683 655.955 705.818 594.491 706.075 C 543.746 706.519 492.997 706.666 442.25 706.514 L 440.27 706.172 L 439.388 704.705 C 444.924 686.421 451.963 668.627 460.433 651.504 C 503.038 564.67 574.214 495.133 662.017 454.563 C 678.893 446.782 696.227 441.187 713.774 435.152 z" fill="rgb(255,255,255)" transform="translate(0,0)"></path>
<path d="M 1337.85 435.205 C 1459.8 477.044 1552.5 558.89 1601.34 679.65 C 1603.64 685.343 1610.4 700.511 1609.86 706.132 L 1449.25 706.674 C 1425.8 706.677 1401.8 707.505 1378.52 705.337 C 1372.19 704.153 1366.38 701.313 1361.04 697.898 C 1335.43 681.505 1336.39 655.276 1336.97 628.579 C 1337.29 613.955 1337.2 598.565 1337.3 583.761 L 1337.85 435.205 z" fill="rgb(255,255,255)" transform="translate(0,0)"></path>
<path d="M 439.264 1345.49 C 463.461 1345.05 489.741 1345.68 514.217 1345.65 L 654.544 1344.99 C 726.032 1344.73 714.856 1416.67 714.844 1466.66 L 714.492 1611.75 C 714.012 1612.07 713.56 1612.49 712.976 1612.33 C 674.326 1602.26 625.463 1575.84 594.274 1553.85 C 536.358 1512.46 489.548 1457.42 457.995 1393.6 C 451.506 1380.67 441.694 1359.53 439.264 1345.49 z" fill="rgb(255,255,255)" transform="translate(0,0)"></path>
<path d="M 1541.94 1344.49 C 1565.17 1344.36 1588.39 1344.55 1611.61 1345.05 C 1610.52 1348.23 1609.4 1351.39 1608.23 1354.53 C 1568.63 1460.36 1488.89 1546.3 1386.33 1593.71 C 1369.87 1601.72 1354.59 1606.91 1337.35 1613.03 C 1337.3 1610.41 1337.27 1607.78 1337.24 1605.16 L 1337.36 1465.08 C 1337.37 1439.87 1336.46 1411.5 1339.28 1386.5 C 1341.07 1370.57 1361.54 1348.47 1377.82 1346.27 C 1396.15 1343.8 1417.95 1344.77 1437.03 1344.79 L 1541.94 1344.49 z" fill="rgb(255,255,255)" transform="translate(0,0)"></path>
<path d="M 1591.24 1087.44 C 1604.88 1087.31 1621.04 1089.36 1628.36 1103 C 1639.64 1124.02 1631.81 1158.71 1634.2 1182.17 C 1635.33 1193.24 1633.12 1209.88 1625.84 1217.42 C 1617.64 1225.93 1599.04 1224.06 1587.89 1223.88 C 1542.33 1218.31 1542.44 1181.31 1542.99 1146.7 C 1543.56 1110.68 1551.45 1090.28 1591.24 1087.44 z" fill="rgb(255,255,255)" transform="translate(0,0)"></path>
<path d="M 445.197 827.396 C 502.471 826.998 510.066 870.051 507.644 915.307 C 506.359 939.318 501.23 950.868 478.682 961.415 C 465.469 965.442 442.548 966.66 431.042 957.268 C 408.191 938.615 418.175 896.447 415.999 870.126 C 413.922 844.996 417.612 829.738 445.197 827.396 z" fill="rgb(255,255,255)" transform="translate(0,0)"></path>
<metadata><recraft-signature>{"signed_by": "recraft", "signature_b64": "71DhviAxhhVYlmVYidEcQWFvXL/JRUHtTpbaLeaDh28E8RxDVl8GaP0eIzgt1di+8FNoFhFPHnZ8AeHi9f1WAw==", "signing_algo": "Ed25519", "generation_timestamp": 1772776273, "identifier": "a4a1676d-2a69-44b8-915a-3fe76830163d"}</recraft-signature></metadata></svg>