<svg xmlns="http://www.w3.org/2000/svg" height="1024" preserveAspectRatio="none" style="display: block;" version="1.1" viewBox="0 0 2048 2048" width="1024">
<path d="M 0 0 L 2048 0 L 2048 2048 L 0 2048 L 0 0 z" fill="rgb(255,255,255)" transform="translate(0,0)"></path>
<path d="M 1625.16 729.27 C 1612.06 685.762 1594.62 644.166 1570.34 605.649 C 1508.42 508.417 1410.49 439.693 1297.99 414.534 C 1283.72 411.479 1269.37 408.835 1254.95 406.607 C 1232.09 403.141 1205.51 402.912 1187.16 388.78 C 1174.94 379.247 1166.98 365.272 1165.01 349.897 C 1162.81 333.939 1167.25 317.778 1177.28 305.174 C 1186.61 293.202 1200.45 285.6 1215.56 284.154 C 1230.01 282.72 1287.68 289.662 1305.03 291.753 C 1411.39 304.568 1522.6 323.167 1607.97 393.154 C 1703.58 471.528 1737.25 591.57 1757.31 708.782 C 1764.82 750.767 1770.58 793.045 1774.59 835.507 C 1790.11 997.981 1787.18 1166.86 1760 1328.27 C 1749.24 1392.2 1733.42 1462.06 1707.13 1521.6 C 1693.43 1552.91 1675.55 1582.23 1653.98 1608.75 C 1574.59 1704.44 1470.02 1734.46 1351.51 1754.64 C 1312.55 1761.27 1266.55 1767.55 1227.01 1771 C 1037.34 1787.43 844.452 1784.05 657.307 1746.95 C 578.775 1731.38 504.895 1707.68 442.572 1655.44 C 410.537 1628.77 383.541 1596.57 362.864 1560.37 C 305.156 1459.77 283.78 1310.57 273.649 1195.51 C 256.83 1004.49 267.191 702.947 342.937 527.886 C 356.365 496.852 374.392 466.004 396.176 440.138 C 501.149 315.492 665.025 297.599 817.441 284.406 C 820.1 284.003 827.517 283.763 830.214 283.811 C 845.044 284.009 859.152 290.251 869.273 301.093 C 880.172 312.877 885.812 328.585 884.898 344.611 C 883.893 364.756 871.85 386.96 853.574 394.921 C 835.226 402.913 802.423 404.589 781.222 408.234 C 694.867 422.245 614.522 461.294 550.15 520.538 C 425.278 634.317 397.752 799.622 389.338 960.563 C 386.184 1020.89 388.364 1071.12 392.552 1130.51 C 402.202 1267.37 431.144 1400.17 527.11 1503.74 C 623.559 1607.83 751.794 1647.37 890.104 1653.56 C 887.719 1651.57 885.373 1649.54 883.066 1647.47 C 827.667 1597.64 797.391 1537.6 792.717 1462.11 C 788.866 1399.9 813.224 1326.52 855.777 1280.19 C 856.99 1248.85 856.195 1212.32 856.22 1180.61 L 856.224 1000.43 L 856.17 937.331 C 856.162 909.898 852.716 888.26 873.578 867.086 C 884.656 855.725 899.832 849.287 915.701 849.215 C 931.191 849.153 946.068 855.266 957.039 866.202 C 964.457 873.785 969.733 883.198 972.329 893.484 C 978 915.481 973.657 976.099 974.802 1001.84 C 974.308 1019.18 977.555 1035.82 991.221 1048.46 C 1008.85 1064.77 1037.46 1065.47 1055.81 1050.58 C 1064.56 1043.45 1070.79 1033.68 1073.58 1022.74 C 1074.86 1017.63 1075.26 1012.3 1075.25 1007.05 C 1075.2 979.458 1075.01 951.865 1074.89 924.273 C 1074.85 913.868 1074.57 903.367 1077.11 893.2 C 1079.35 883.953 1083.9 875.423 1090.32 868.408 C 1111.26 845.392 1150.49 842.097 1173.72 864.834 C 1196.91 887.525 1193.16 909.696 1193.26 939.748 L 1193.37 1012.23 L 1193.57 1279.39 C 1195.16 1281.3 1196.73 1283.22 1198.29 1285.16 C 1242.04 1338.96 1262.57 1407.98 1255.33 1476.95 C 1247.43 1547.76 1214.9 1609.23 1159.22 1654 C 1214.99 1651.16 1263.29 1645.09 1316.94 1629.26 C 1435.76 1594.19 1529.62 1519.26 1588.21 1410.15 C 1677.81 1243.3 1677.89 904.729 1625.16 729.27 z" fill="rgb(29,25,128)" transform="translate(0,0)"></path>
<path d="M 1017.42 284.237 C 1064.61 279.76 1084.91 317.975 1081.76 358.335 C 1081.11 366.657 1081.7 378.326 1081.69 387.008 L 1081.72 474.534 C 1147.58 474.021 1213.44 473.952 1279.3 474.327 C 1303.84 474.457 1339.91 472.481 1363.64 475.82 C 1407.87 482.048 1426.45 539.075 1395.25 573.369 C 1386.72 582.725 1375.39 589.067 1362.96 591.443 C 1350.81 593.829 1306.24 592.589 1291.02 592.621 L 1158.23 592.416 C 1133.59 592.356 1106.45 591.737 1082 592.758 C 1082.05 616.724 1084.63 641.374 1069.54 661.294 C 1059.3 674.814 1048.53 680.19 1032.42 682.716 C 1030.12 682.904 1027.81 683.021 1025.5 683.067 C 1010.65 683.348 996.302 677.695 985.634 667.362 C 963.47 646.019 968.102 621.253 967.413 592.983 C 902.866 591.478 837.394 593.595 772.671 592.428 C 744.123 591.268 712.318 595.253 684.142 590.942 C 656.828 586.764 637.834 558.879 637.868 532.592 C 637.884 517.124 644.179 502.325 655.311 491.586 C 674.758 472.871 697.469 474.711 722.566 474.644 C 739.338 474.599 756.164 474.521 772.939 474.452 L 967.854 474.374 C 968.064 445.211 968.019 416.048 967.721 386.886 C 967.583 372.567 966.547 345.277 968.66 332.359 C 969.968 323.9 973.123 315.832 977.902 308.729 C 987.556 294.191 1000.79 287.621 1017.42 284.237 z" fill="rgb(29,25,128)" transform="translate(0,0)"></path>
<path d="M 1338.14 964.187 C 1353.38 963.318 1371.64 963.769 1387.22 963.755 L 1471.14 963.698 L 1535.84 963.692 C 1546.94 963.697 1577.56 962.732 1586.91 966.339 C 1645.1 988.774 1641.41 1065.57 1579.48 1080.89 C 1562.98 1082.03 1544.22 1081.67 1527.55 1081.71 L 1452.5 1081.94 C 1428.66 1081.94 1404.83 1081.8 1381 1081.54 C 1367.85 1081.41 1354.84 1081.46 1341.72 1080.61 C 1316.66 1078.98 1296.57 1061.07 1290.52 1036.97 C 1286.87 1021.82 1289.38 1005.84 1297.49 992.533 C 1307.26 976.408 1320.3 968.6 1338.14 964.187 z" fill="rgb(29,25,128)" transform="translate(0,0)"></path>
<path d="M 475.138 964.332 C 491.036 963.437 510.257 963.87 526.532 963.821 L 619.273 963.742 L 673.683 963.675 C 686.538 963.639 701.19 962.972 713.757 964.958 C 737.915 968.776 757.203 991.322 759.94 1014.94 C 761.937 1031.37 757.142 1047.9 746.666 1060.71 C 735.34 1074.75 722.443 1079.96 705.246 1081.67 C 675.893 1082.94 637.848 1081.37 607.001 1081.66 C 577.558 1081.97 548.112 1081.98 518.669 1081.69 C 496.138 1081.54 464.972 1084.54 446.185 1071.37 C 433.369 1062.25 424.766 1048.35 422.318 1032.81 C 416.544 997.124 440.371 969.178 475.138 964.332 z" fill="rgb(29,25,128)" transform="translate(0,0)"></path>
<path d="M 1477.85 598.319 C 1491.24 597.491 1504.55 601.014 1515.78 608.363 C 1528.29 616.731 1535.66 628.762 1538.68 643.57 C 1546.51 681.925 1516 703.94 1491.09 728.413 L 1436.66 782.296 L 1391.66 827.12 C 1372.07 846.725 1363.82 859.819 1335.23 864.922 C 1286.52 865.864 1257.61 819.512 1281.46 777.687 C 1286.19 769.398 1309.67 747.525 1317.03 740.183 L 1385.48 672.637 L 1427.09 631.527 C 1443.95 614.901 1453.06 602.097 1477.85 598.319 z" fill="rgb(29,25,128)" transform="translate(0,0)"></path>
<path d="M 562.211 598.349 C 573.411 597.837 584.494 600.814 593.931 606.868 C 605.145 614.021 645.751 656.305 657.814 668.063 L 723.335 732.212 C 740.78 749.223 769.326 771.735 774.132 795.92 C 777.218 811.133 773.957 826.946 765.104 839.696 C 754.264 855.56 741.04 861.586 723.005 865.049 C 690.468 865.389 681.88 851.489 660.319 830.439 C 641.256 811.699 622.317 792.834 603.503 773.844 L 547.683 718.284 C 530.565 701.214 511.539 688.148 507.996 662.932 C 505.815 647.831 509.982 632.5 519.508 620.58 C 530.864 606.254 544.415 600.318 562.211 598.349 z" fill="rgb(29,25,128)" transform="translate(0,0)"></path>
<path d="M 1324.54 1181.18 C 1353.88 1178.75 1363.86 1188.76 1383.03 1208.27 C 1396.12 1221.59 1409.74 1235.33 1423.02 1248.46 L 1489.27 1313.93 C 1499.64 1324.14 1534.94 1356.6 1538.97 1368.96 C 1550.58 1404.63 1532.72 1437.92 1494.23 1445.88 C 1460.68 1448.72 1451.89 1436.25 1429.76 1414.75 C 1411.79 1397.29 1394.19 1379.15 1376.38 1361.55 L 1319.6 1305.72 C 1307.67 1293.96 1294.59 1281.7 1284.16 1268.71 C 1280.42 1264.01 1278.75 1257.62 1277.5 1251.82 C 1270.04 1217.17 1290.27 1187.95 1324.54 1181.18 z" fill="rgb(29,25,128)" transform="translate(0,0)"></path>
<path d="M 712.42 1180.33 C 725.283 1179.68 736.182 1182.21 747.195 1189.15 C 760.231 1197.39 769.378 1210.55 772.553 1225.64 C 780.929 1263.83 751.798 1283.7 727.844 1307.67 L 652.367 1381.87 C 634.066 1399.75 615.503 1419.66 595.862 1436.12 C 589.358 1441.57 579.696 1444.22 571.484 1446.06 C 554.507 1446.68 543.605 1444.58 529.19 1434.34 C 505.91 1417.8 499.181 1378.72 518.656 1356.81 C 546.2 1325.83 577.389 1297.23 606.853 1267.85 L 657.941 1216.46 C 676.243 1198.16 685.43 1183.95 712.42 1180.33 z" fill="rgb(29,25,128)" transform="translate(0,0)"></path>
<metadata><recraft-signature>{"signed_by": "recraft", "signature_b64": "UlDwTxkc4UVXFIf83YSS5ItSlTJs1oFmlweDSsqpxAqQge2rfjPIfU9cfkrRRVyzxcY1EWDvFnVhwdsYOxKXCw==", "signing_algo": "Ed25519", "generation_timestamp": 1772776252, "identifier": "5e7e2f8f-9965-4b82-a8f6-7f4ee3c79137"}</recraft-signature></metadata></svg>