<svg xmlns="http://www.w3.org/2000/svg" height="1024" preserveAspectRatio="none" style="display: block;" version="1.1" viewBox="0 0 2048 2048" width="1024">
<path d="M 0 0 L 2048 0 L 2048 2048 L 0 2048 L 0 0 z" fill="rgb(255,255,255)" transform="translate(0,0)"></path>
<path d="M 1192.9 288.911 L 1335.53 288.853 C 1364.64 288.906 1398.36 287.993 1426.96 290.708 C 1512.19 298.572 1592.02 335.858 1652.75 396.166 C 1729.32 472.246 1762.41 567.193 1762.53 673.519 L 1762.12 1169.08 L 1762.06 1315.54 C 1762.1 1372.64 1765.05 1420.46 1751.91 1476.62 C 1736.07 1542.62 1702.53 1603.06 1654.91 1651.42 C 1592.96 1713.15 1518.13 1750.13 1430.88 1758.93 C 1400.29 1762.02 1366.8 1761.02 1335.84 1761.02 L 1191.28 1760.91 C 1205.08 1750.44 1221.33 1735.82 1234.77 1724.44 L 1317.42 1654.32 C 1332.99 1641.41 1365.07 1610.96 1381.28 1601.05 C 1389.43 1600.93 1397.57 1600.68 1405.7 1600.32 C 1459.96 1597.84 1509.92 1575.66 1546.64 1535.26 C 1592.77 1484.51 1603.8 1425.88 1600.17 1359.35 C 1589.77 1348.27 1566.78 1329.84 1554.75 1319.71 L 1472.24 1250.09 C 1384.6 1174.75 1296.51 1099.95 1207.96 1025.69 C 1229.7 1007.84 1252.24 987.908 1273.98 969.611 L 1600.12 691.456 C 1600.17 638.114 1603.68 601.007 1575.95 552.441 C 1567.57 537.662 1557.46 523.94 1545.82 511.568 C 1510.89 474.83 1457.15 451.011 1406.32 449.661 C 1397.86 449.437 1389.38 449.282 1380.91 449.078 C 1374.86 444.823 1363.36 434.568 1357.29 429.455 C 1342.48 417.052 1327.75 404.549 1313.11 391.945 L 1192.9 288.911 z" fill="rgb(30,24,122)" transform="translate(0,0)"></path>
<path d="M 1599.5 897.816 C 1601.61 905.441 1600.16 952.121 1600.16 963.847 L 1600.4 1150.18 C 1573.01 1126.97 1545.4 1104.03 1517.57 1081.35 C 1494.43 1062.67 1472.39 1043.66 1449.52 1024.7 C 1499.15 982.093 1550.48 940.668 1599.5 897.816 z" fill="rgb(255,255,255)" transform="translate(0,0)"></path>
<path d="M 641.732 289.431 C 655.786 287.957 694.29 289.07 709.744 288.988 C 758.597 288.455 807.453 288.46 856.305 289.002 C 845.41 297.734 833.364 308.84 822.462 318.041 L 722.93 402.899 C 710.958 413.153 678.846 442.164 666.716 449.132 L 663.823 449.19 C 600.694 450.638 552.159 465.679 507.485 513.012 C 474.273 548.479 453.825 594.001 449.369 642.386 C 447.801 659.237 448.37 676.059 448.863 692.94 C 479.525 720.004 514.125 747.683 545.414 774.364 C 644.121 858.742 743.353 942.504 843.105 1025.65 L 448.828 1355.28 C 448.175 1399.45 448.84 1434.71 466.518 1476.52 C 488.314 1528.07 527.449 1565.11 578.964 1586.03 C 616.139 1600.28 632.546 1597.92 668.378 1600.94 C 674.665 1605.8 680.664 1611.27 686.82 1616.31 C 744.211 1663.28 798.86 1714.71 856.792 1760.92 C 800.163 1761.57 743.241 1760.35 686.577 1761.02 C 668.124 1761.24 648.963 1761.46 630.605 1760.05 C 551.035 1754.09 475.509 1722.62 415.252 1670.31 C 340.997 1605.43 295.633 1513.65 289.183 1415.25 C 287.69 1394.35 288.07 1372.94 288.107 1351.97 L 288.168 1268.64 L 288.132 1000.98 L 288.073 761.996 C 288.063 709.113 284.907 637.938 295.053 587.527 C 307.622 524.474 336.512 465.821 378.837 417.425 C 447.58 338.783 537.862 296.221 641.732 289.431 z" fill="rgb(30,24,122)" transform="translate(0,0)"></path>
<path d="M 448.071 898.263 C 453.602 900.812 495.501 937.266 502.558 943.214 C 535.093 970.636 568.305 998.181 600.363 1026.18 C 578.356 1045.18 556.033 1063.82 533.402 1082.07 C 523.572 1089.36 508.948 1102.31 499.161 1110.46 C 482.53 1124.23 465.747 1137.82 448.817 1151.22 C 447.329 1120.53 448.005 1085.85 447.98 1054.83 L 448.071 898.263 z" fill="rgb(255,255,255)" transform="translate(0,0)"></path>
<path d="M 913.862 1101.82 L 984.631 1161.74 C 998.308 1173.33 1012.35 1184.57 1025.5 1196.74 C 1050.39 1176.24 1074.85 1153.83 1099.52 1133.05 C 1110.89 1123.46 1124.44 1110.35 1136.28 1102.06 C 1168.93 1131.49 1203.26 1159.59 1236.77 1188.05 L 1473.5 1388.77 C 1442 1417.91 1399.42 1451.49 1365.72 1479.84 L 1139.34 1668.98 L 1024.68 1764.63 C 1003.26 1745.39 980.449 1727.14 958.274 1708.72 L 866.054 1631.5 L 577.234 1388.96 C 594.067 1376.06 613.124 1358.79 629.534 1344.75 L 721.461 1266.17 C 784.628 1212.17 852.172 1157 913.862 1101.82 z" fill="rgb(30,24,122)" transform="translate(0,0)"></path>
<path d="M 912.028 1310.94 C 921.897 1317.21 939.415 1332.56 948.895 1340.41 C 973.813 1361.09 998.587 1381.94 1023.22 1402.96 C 1028.46 1397.98 1034.89 1392.68 1040.58 1388.16 C 1072.16 1363.08 1102.51 1335.66 1134.32 1310.94 C 1146 1319.24 1159.69 1331.55 1171.3 1340.61 C 1190.92 1355.92 1210.84 1371.04 1229 1388.05 C 1199.2 1411.29 1165.13 1440.73 1135.95 1465.31 C 1099.44 1496.33 1062.69 1527.06 1025.7 1557.5 C 997.375 1534.93 969.383 1511.95 941.734 1488.56 C 901.424 1455.43 861.475 1421.86 821.895 1387.85 C 850.743 1362.05 882.387 1336.15 912.028 1310.94 z" fill="rgb(255,255,255)" transform="translate(0,0)"></path>
<path d="M 1025.22 284.062 C 1073.13 326.055 1126.52 369.447 1175.45 410.684 L 1473.49 662.682 C 1464.01 671.572 1450.43 681.919 1440.17 690.469 L 1380.72 740.469 L 1135.69 945.328 C 1119.58 932.832 1103.44 917.68 1087.57 904.673 C 1066.65 887.526 1046.82 871.025 1026.98 852.568 C 1021.49 856.488 1015.12 861.565 1009.97 865.943 C 978.438 892.739 944.706 917.906 913.486 944.952 C 904.627 938.634 886.433 922.222 877.529 914.644 L 807.454 855.239 C 731.418 790.165 654.696 725.898 577.3 662.448 C 607.262 638.442 639.2 609.837 668.689 585.01 L 938.281 357.176 C 965.96 334.117 997.31 305.651 1025.22 284.062 z" fill="rgb(30,24,122)" transform="translate(0,0)"></path>
<path d="M 1025.37 491.661 C 1028.98 493.181 1055.85 516.47 1060.83 520.584 C 1117.36 567.071 1173.37 614.185 1228.86 661.917 C 1198.31 687.867 1166.67 712.676 1135.75 738.233 C 1100.15 710.977 1060.39 676.732 1025.35 647.784 C 1024.04 646.865 1024.89 647.273 1022.63 647.039 C 986.835 677.162 948.34 706.968 913.555 737.695 C 883.282 712.108 851.237 687.685 821.687 661.917 C 839.733 643.81 877.711 613.844 898.36 596.752 C 940.346 561.3 982.685 526.268 1025.37 491.661 z" fill="rgb(255,255,255)" transform="translate(0,0)"></path>
<metadata><recraft-signature>{"signed_by": "recraft", "signature_b64": "qfrWEqwyWB2YiwcGRz3q/nuKigbbEZq9c8zTEjPXUMUJ0OnuomRWgg0/UXNIdiJ3mJGKezcfofZdAdkNsgnMBg==", "signing_algo": "Ed25519", "generation_timestamp": 1772776232, "identifier": "e765e03e-c541-4323-8465-0a164fd7c7cd"}</recraft-signature></metadata></svg>