<svg xmlns="http://www.w3.org/2000/svg" viewBox="0 0 192 192" width="192" height="192">
  <defs>
    <linearGradient id="brainCircuitGrad" x1="0%" y1="0%" x2="100%" y2="100%">
      <stop offset="0%" style="stop-color:#6C63FF"/>
      <stop offset="100%" style="stop-color:#3F3D56"/>
    </linearGradient>
  </defs>
  
  <!-- Background -->
  <circle cx="96" cy="96" r="90" fill="#1A1A2E"/>
  
  <!-- Brain outline shape -->
  <path d="
    M 55 55
    Q 40 55, 35 70
    Q 30 90, 40 105
    Q 35 120, 45 135
    Q 55 150, 75 155
    L 96 155
    L 117 155
    Q 137 150, 147 135
    Q 157 120, 152 105
    Q 162 90, 157 70
    Q 152 55, 137 55
    Q 125 45, 96 45
    Q 67 45, 55 55
    Z
  " fill="url(#brainCircuitGrad)" opacity="0.9"/>
  
  <!-- Circuit board traces inside brain -->
  <g stroke="#00E676" stroke-width="2" fill="none">
    <!-- Horizontal traces -->
    <path d="M 50 75 L 70 75 L 75 80 L 95 80"/>
    <path d="M 97 80 L 117 80 L 122 75 L 142 75"/>
    <path d="M 50 100 L 65 100 L 70 95 L 85 95"/>
    <path d="M 107 95 L 122 95 L 127 100 L 142 100"/>
    <path d="M 55 125 L 75 125 L 80 120 L 96 120"/>
    <path d="M 96 120 L 112 120 L 117 125 L 137 125"/>
    
    <!-- Vertical traces -->
    <path d="M 70 60 L 70 75"/>
    <path d="M 122 60 L 122 75"/>
    <path d="M 85 80 L 85 95"/>
    <path d="M 107 80 L 107 95"/>
    <path d="M 96 95 L 96 120"/>
  </g>
  
  <!-- Circuit nodes/chips -->
  <rect x="65" y="72" width="10" height="6" rx="1" fill="#00E676"/>
  <rect x="117" y="72" width="10" height="6" rx="1" fill="#00E676"/>
  <rect x="80" y="92" width="10" height="6" rx="1" fill="#00E676"/>
  <rect x="102" y="92" width="10" height="6" rx="1" fill="#00E676"/>
  <rect x="91" y="117" width="10" height="6" rx="1" fill="#00E676"/>
  
  <!-- Central processor (prominent) -->
  <rect x="84" y="84" width="24" height="24" rx="3" fill="#3F3D56" stroke="#00E676" stroke-width="2"/>
  <text x="96" y="101" text-anchor="middle" font-family="monospace" font-size="14" font-weight="bold" fill="#00E676">A</text>
  
  <!-- LED indicator dots -->
  <circle cx="55" cy="65" r="3" fill="#00E676"/>
  <circle cx="137" cy="65" r="3" fill="#00E676"/>
  <circle cx="48" cy="110" r="3" fill="#00E676"/>
  <circle cx="144" cy="110" r="3" fill="#00E676"/>
  <circle cx="70" cy="140" r="3" fill="#00E676"/>
  <circle cx="122" cy="140" r="3" fill="#00E676"/>
</svg>
