<svg xmlns="http://www.w3.org/2000/svg" viewBox="0 0 192 192" width="192" height="192">
  <defs>
    <linearGradient id="neuralBg" x1="0%" y1="0%" x2="100%" y2="100%">
      <stop offset="0%" style="stop-color:#1A237E"/>
      <stop offset="100%" style="stop-color:#0D47A1"/>
    </linearGradient>
  </defs>
  
  <!-- Background -->
  <circle cx="96" cy="96" r="90" fill="url(#neuralBg)"/>
  
  <!-- Neural network connections -->
  <g stroke="#64B5F6" stroke-width="2" opacity="0.6">
    <!-- Outer ring connections -->
    <line x1="96" y1="20" x2="96" y2="55"/>
    <line x1="96" y1="137" x2="96" y2="172"/>
    <line x1="20" y1="96" x2="55" y2="96"/>
    <line x1="137" y1="96" x2="172" y2="96"/>
    
    <!-- Diagonal connections -->
    <line x1="40" y1="40" x2="65" y2="65"/>
    <line x1="152" y1="40" x2="127" y2="65"/>
    <line x1="40" y1="152" x2="65" y2="127"/>
    <line x1="152" y1="152" x2="127" y2="127"/>
    
    <!-- Inner connections to center -->
    <line x1="65" y1="65" x2="96" y2="96"/>
    <line x1="127" y1="65" x2="96" y2="96"/>
    <line x1="65" y1="127" x2="96" y2="96"/>
    <line x1="127" y1="127" x2="96" y2="96"/>
  </g>
  
  <!-- Neural nodes (outer) -->
  <circle cx="96" cy="20" r="8" fill="#64B5F6"/>
  <circle cx="96" cy="172" r="8" fill="#64B5F6"/>
  <circle cx="20" cy="96" r="8" fill="#64B5F6"/>
  <circle cx="172" cy="96" r="8" fill="#64B5F6"/>
  <circle cx="40" cy="40" r="8" fill="#64B5F6"/>
  <circle cx="152" cy="40" r="8" fill="#64B5F6"/>
  <circle cx="40" cy="152" r="8" fill="#64B5F6"/>
  <circle cx="152" cy="152" r="8" fill="#64B5F6"/>
  
  <!-- Neural nodes (inner ring) -->
  <circle cx="65" cy="65" r="6" fill="#42A5F5"/>
  <circle cx="127" cy="65" r="6" fill="#42A5F5"/>
  <circle cx="65" cy="127" r="6" fill="#42A5F5"/>
  <circle cx="127" cy="127" r="6" fill="#42A5F5"/>
  
  <!-- Center dino silhouette -->
  <path d="
    M 75 75
    Q 70 65, 85 60
    L 107 60
    Q 122 65, 120 80
    L 118 90
    Q 125 95, 120 105
    L 110 115
    L 110 125
    Q 108 135, 96 135
    Q 84 135, 82 125
    L 82 115
    L 72 105
    Q 67 95, 74 90
    Z
  " fill="#4CAF50"/>
  
  <!-- Dino eye -->
  <circle cx="100" cy="80" r="8" fill="white"/>
  <circle cx="102" cy="80" r="4" fill="#1A237E"/>
  <circle cx="104" cy="78" r="1.5" fill="white"/>
  
  <!-- Dino smile -->
  <path d="M 88 115 Q 96 122, 104 115" stroke="white" stroke-width="2" fill="none"/>
</svg>
