<svg xmlns="http://www.w3.org/2000/svg" viewBox="0 0 256 256" fill="none">
  <rect x="20" y="28" width="216" height="200" rx="48" fill="#171c3f"/>
  <path d="M20 86C20 53.98 45.98 28 78 28H178C210.02 28 236 53.98 236 86V110H20V86Z" fill="#6366f1" opacity="0.18"/>
  <rect x="20" y="28" width="216" height="200" rx="48" stroke="#9aa5ff" stroke-opacity="0.34" stroke-width="4"/>
  <path d="M128 72C145.67 72 160 86.33 160 104C160 110.4 158.12 116.36 154.88 121.36L172 138.48C177.08 143.56 177.08 151.8 172 156.88C166.92 161.96 158.68 161.96 153.6 156.88L136.48 139.76C131.48 143 125.52 144.88 119.12 144.88C101.45 144.88 87.12 130.55 87.12 112.88C87.12 95.21 101.45 80.88 119.12 80.88C125.52 80.88 131.48 82.76 136.48 86L145.04 77.44C140.18 73.95 134.21 72 128 72Z" fill="#eef2ff"/>
</svg>
