<svg xmlns="http://www.w3.org/2000/svg" viewBox="0 0 128 128" width="128" height="128">
  <defs>
    <linearGradient id="azureGrad" x1="0%" y1="0%" x2="0%" y2="100%">
      <stop offset="0%" stop-color="#0078d4"/>
      <stop offset="100%" stop-color="#005a9e"/>
    </linearGradient>
  </defs>
  <!-- Rocket shape outline forming an A -->
  <path d="M64,8 
           C52,8 44,20 44,35 
           L44,85 
           L35,95 L35,105 L50,95 L50,75 
           L58,75 L58,95 L70,95 L70,75 
           L78,75 L78,95 L93,105 L93,95 L84,85 
           L84,35 
           C84,20 76,8 64,8 Z" 
        fill="url(#azureGrad)"/>
  <!-- Viewport window -->
  <circle cx="64" cy="30" r="10" fill="white"/>
  <circle cx="64" cy="30" r="6" fill="#001a33"/>
  <!-- A crossbar integrated -->
  <rect x="50" y="50" width="28" height="6" rx="2" fill="white"/>
  <!-- Center A hole hint -->
  <polygon points="58,60 64,50 70,60 68,60 64,53 60,60" fill="white" opacity="0.5"/>
  <!-- Multi-engine flames -->
  <polygon points="50,95 54,110 58,95" fill="#ff6b35"/>
  <polygon points="70,95 74,110 78,95" fill="#ff6b35"/>
  <polygon points="52,95 54,105 56,95" fill="#ffc857"/>
  <polygon points="72,95 74,105 76,95" fill="#ffc857"/>
</svg>
