<svg xmlns="http://www.w3.org/2000/svg" viewBox="0 0 128 128" width="128" height="128">
  <defs>
    <linearGradient id="azureGrad" x1="0%" y1="0%" x2="0%" y2="100%">
      <stop offset="0%" stop-color="#0078d4"/>
      <stop offset="100%" stop-color="#005a9e"/>
    </linearGradient>
  </defs>
  <!-- A as rocket body - the crossbar is the fins -->
  <path d="M64,8 L40,100 L48,100 L54,75 L74,75 L80,100 L88,100 Z" fill="url(#azureGrad)"/>
  <!-- Window/viewport in the A -->
  <circle cx="64" cy="35" r="10" fill="white"/>
  <circle cx="64" cy="35" r="6" fill="#001a33"/>
  <!-- Crossbar becomes fins extending outward -->
  <polygon points="54,60 30,75 35,60" fill="url(#azureGrad)"/>
  <polygon points="74,60 98,75 93,60" fill="url(#azureGrad)"/>
  <!-- Exhaust flames from bottom of A legs -->
  <polygon points="40,100 44,118 48,100" fill="#ff6b35"/>
  <polygon points="80,100 84,118 88,100" fill="#ff6b35"/>
  <polygon points="42,100 44,112 46,100" fill="#ffc857"/>
  <polygon points="82,100 84,112 86,100" fill="#ffc857"/>
</svg>
