<svg xmlns="http://www.w3.org/2000/svg" viewBox="0 0 128 128" width="128" height="128">
  <defs>
    <!-- Deep space gradient -->
    <linearGradient id="bg" x1="0%" y1="0%" x2="100%" y2="100%">
      <stop offset="0%" stop-color="#080810"/>
      <stop offset="100%" stop-color="#0d1520"/>
    </linearGradient>
    
    <!-- Azure blue -->
    <linearGradient id="azure" x1="0%" y1="0%" x2="0%" y2="100%">
      <stop offset="0%" stop-color="#0078d4"/>
      <stop offset="100%" stop-color="#005a9e"/>
    </linearGradient>
    
    <!-- Flame -->
    <linearGradient id="flame" x1="0%" y1="0%" x2="0%" y2="100%">
      <stop offset="0%" stop-color="#ffc857"/>
      <stop offset="100%" stop-color="#ff6b35"/>
    </linearGradient>
    
    <!-- Glow -->
    <radialGradient id="glow" cx="50%" cy="50%" r="40%">
      <stop offset="0%" stop-color="#0078d4" stop-opacity="0.2"/>
      <stop offset="100%" stop-color="#0078d4" stop-opacity="0"/>
    </radialGradient>
  </defs>
  
  <!-- Background -->
  <rect width="128" height="128" fill="url(#bg)"/>
  
  <!-- Glow -->
  <circle cx="64" cy="60" r="50" fill="url(#glow)"/>
  
  <!-- Orbital ring (ellipse tilted) -->
  <ellipse cx="64" cy="60" rx="52" ry="18" fill="none" stroke="#0078d4" stroke-width="1.5" opacity="0.4" transform="rotate(-15 64 60)"/>
  
  <!-- Orbital nodes (projects in orbit) -->
  <g fill="#0078d4">
    <circle cx="15" cy="50" r="5" opacity="0.3"/>
    <circle cx="15" cy="50" r="3" opacity="0.8"/>
    <circle cx="113" cy="70" r="5" opacity="0.3"/>
    <circle cx="113" cy="70" r="3" opacity="0.8"/>
  </g>
  
  <!-- A Negative Space Rocket (centered, slightly smaller) -->
  <g transform="translate(37, 25) scale(0.9)">
    <!-- Rocket body -->
    <path d="M30,5 C30,5 15,20 15,45 L15,65 L22,68 L22,62 L38,62 L38,68 L45,65 L45,45 C45,20 30,5 30,5 Z" fill="url(#azure)"/>
    <!-- Fins -->
    <polygon points="15,55 5,70 15,67" fill="url(#azure)"/>
    <polygon points="45,55 55,70 45,67" fill="url(#azure)"/>
    <!-- A cutout -->
    <path d="M30,15 L21,50 L24,50 L26,42 L34,42 L36,50 L39,50 Z M28,38 L30,22 L32,38 Z" fill="#080810"/>
    <!-- Flame -->
    <polygon points="22,68 30,85 38,68" fill="url(#flame)"/>
    <polygon points="24,68 30,82 36,68" fill="#ffc857"/>
  </g>
</svg>
