<svg xmlns="http://www.w3.org/2000/svg" height="1024" preserveAspectRatio="none" style="display: block;" version="1.1" viewBox="0 0 2048 2048" width="1024">
<path d="M 1000.48 254.335 C 1425.69 240.599 1781.68 573.83 1796.03 999.014 C 1810.38 1424.2 1477.66 1780.67 1052.5 1795.63 C 626.469 1810.63 269.109 1477.08 254.731 1051.03 C 240.352 624.978 574.412 268.099 1000.48 254.335 z M 1035.25 1462.62 L 1329.41 1462.3 L 1403.11 1462.1 C 1427.56 1462.04 1453.02 1463 1477 1457.84 C 1554.58 1441.16 1613.45 1372.28 1612.83 1291.94 C 1612.48 1265.73 1606.28 1239.93 1594.66 1216.43 C 1584.17 1194.74 1570.43 1175.14 1558.28 1154.4 L 1474.13 1011.42 L 1279.09 675.415 C 1245.14 615.783 1209.9 556.896 1173.39 498.795 C 1160.95 479.007 1139.56 442.523 1124.04 427.219 C 1096.85 400.849 1060.29 386.375 1022.42 386.988 C 1019.81 387.022 1017.69 387.138 1015.09 387.392 C 989.585 389.545 972.271 395.499 950.352 409.009 C 912.992 432.038 896.256 466.841 874.584 503.19 L 827.854 580.589 C 757.62 698.227 688.496 816.525 620.49 935.466 L 515.347 1113.35 C 500.904 1136.86 486.75 1160.54 472.889 1184.4 C 465.18 1197.51 455.989 1211.47 449.922 1225.32 C 419.631 1294.48 439.387 1371.72 496.615 1420.22 C 544.535 1460.83 584.388 1462.08 643.291 1462.14 L 725.551 1462.06 L 1035.25 1462.62 z M 361.991 1195.07 C 363.243 1198.55 364.516 1202.03 365.812 1205.49 C 378.224 1179.32 392.437 1154.37 406.446 1129.04 C 409.106 1124.23 411.667 1119.4 413.888 1114.36 C 389.384 953.515 436.102 788.254 532.072 658.023 C 589.186 581.188 663.387 518.69 748.812 475.467 C 764.129 467.601 789.532 455.374 805.819 449.918 C 817.634 429.847 829.951 409.871 842.283 390.1 C 845.998 384.144 860.578 366.99 862.046 363.04 L 859.902 363.217 C 688.185 406.312 539.894 514.366 446.26 664.621 C 347.765 822.26 317.236 1013.04 361.623 1193.54 L 361.991 1195.07 z M 1246.05 451.176 C 1281.97 463.571 1319.61 483.346 1351.62 503.749 C 1449.87 565.35 1528.89 653.237 1579.74 757.451 C 1633.48 867.34 1653.03 990.826 1635.84 1111.94 C 1653.96 1142.92 1668.93 1168.44 1685.53 1200.47 C 1686.96 1195.2 1688.63 1189.51 1689.92 1184.24 C 1697.67 1148.52 1704.62 1109.33 1707.19 1072.88 C 1716.48 925.429 1678.28 778.884 1598.2 654.735 C 1517.48 529.814 1398.23 434.62 1258.54 383.588 C 1235.16 374.892 1209.52 367.989 1185.42 361.198 C 1211.6 392.726 1227.21 414.13 1246.05 451.176 z M 1129.36 1547.12 C 1114.89 1546.17 1098.45 1545.98 1083.84 1546.29 C 1024.16 1547.55 963.477 1544.11 903.914 1546.64 C 973.461 1567.03 1058.14 1566.93 1128.42 1550.04 C 1132.61 1548.92 1139.6 1546.77 1129.36 1547.12 z M 712.48 600.088 C 625.453 660.334 560.457 754.97 526.307 854.428 C 519.049 875.565 499.418 951.883 502.873 970.318 L 630.756 745.039 C 640.632 727.709 712.2 605.426 712.48 600.088 z M 1337.65 600.701 C 1390.43 694.04 1443.94 786.956 1498.2 879.439 C 1505.3 891.738 1544.44 963.298 1549.68 967.416 C 1541.34 839.974 1469.22 708.715 1372.98 626.771 C 1364.75 619.768 1347.47 605.073 1337.65 600.701 z M 584.066 1545.87 C 610.592 1571.01 650.397 1597.05 682.163 1615.49 C 792.405 1679.47 915.451 1713.32 1043.36 1709.79 C 1181.63 1704.65 1315.29 1658.71 1427.5 1577.76 C 1440.85 1567.78 1451.87 1557.77 1464.65 1547.22 C 1451.03 1546.11 1362.7 1545.58 1354.07 1547.87 C 1344.09 1550.52 1333.81 1558.15 1324.82 1563.26 C 1312.35 1570.34 1299.52 1577.45 1286.47 1583.4 C 1202.39 1621.8 1118.54 1643.32 1025.67 1643.64 C 935.76 1643.71 846.984 1623.6 765.893 1584.77 C 745.283 1575.01 717.9 1557.84 697.308 1548.07 C 693.199 1546.12 660.434 1546.84 652.665 1546.83 C 629.795 1546.9 606.925 1546.58 584.066 1545.87 z" fill="rgb(45,37,137)" transform="translate(0,0)"></path>
<path d="M 1006.74 500.38 C 1011.09 499.878 1018.94 499.612 1023.31 499.558 C 1064.11 498.735 1103.5 514.539 1132.42 543.338 C 1147.64 558.477 1163.91 588.531 1175.05 607.804 L 1208.31 664.789 L 1365.9 932.558 L 1458.55 1090.1 C 1471.86 1112.63 1496.17 1150.54 1506.66 1172.49 C 1516.76 1193.38 1521.97 1216.29 1521.91 1239.49 C 1521.9 1315.4 1470.19 1383.53 1396.29 1402.92 C 1369.95 1409.83 1342.83 1408.36 1315.81 1408.24 L 1252.95 1408.15 L 1044.75 1408.11 L 796.648 1408.3 L 727.501 1408.27 C 674.936 1408.18 641.06 1407.2 596.096 1374.78 C 560.898 1348.94 537.418 1310.17 530.827 1267 C 526.411 1237.79 529.885 1207.93 540.889 1180.51 C 546.488 1166.85 556.744 1150.05 564.406 1137.13 C 575.717 1118.05 587.125 1099.03 598.629 1080.07 L 683.161 937.353 L 834.586 678.975 L 877.697 605.156 C 894.525 576.174 908.041 548.854 935.892 528.737 C 958.399 512.479 979.525 504.499 1006.74 500.38 z M 1032.25 1322.28 L 1257.6 1322.17 L 1318.41 1322.22 C 1354.93 1322.24 1380.9 1325.27 1408.87 1297.85 C 1435.2 1272.06 1439.52 1231.63 1422.78 1199.63 C 1413.44 1181.77 1400.71 1162.81 1390.19 1145.26 L 1327.53 1039.58 L 1146.47 731.443 L 1097.99 647.991 C 1078.29 614.839 1066.05 585.175 1020.93 588.362 C 992.95 591.407 979.836 601.614 966.133 626.02 C 957.915 640.657 949.304 656.079 940.708 670.519 L 843.212 836.925 L 700.617 1077.59 L 656.323 1152.18 C 646.763 1167.95 634.092 1186.98 626.374 1203.29 C 619.125 1218.53 616.363 1235.52 618.41 1252.27 C 622.445 1285.54 650.346 1314.26 683.544 1320.23 C 698.644 1322.94 717.716 1322.08 733.221 1322.1 L 799.304 1322.15 L 1032.25 1322.28 z" fill="rgb(45,37,137)" transform="translate(0,0)"></path>
<path d="M 1024.71 695.577 C 1030.54 700.053 1098.26 816.73 1106.7 831.056 L 1270.93 1107.74 L 1325.32 1196.84 C 1333.58 1210.23 1349.35 1234.29 1355.49 1247.07 L 1024.75 1246.94 L 800.631 1246.96 C 765.951 1246.98 729.002 1247.77 694.569 1247.08 C 701.484 1231.63 718.532 1206.85 727.795 1191.29 L 816.108 1044.53 L 939.052 835.854 C 964.423 792.638 996.392 736.165 1024.71 695.577 z M 1021.5 1161.01 C 1081.25 1161.19 1141.01 1160.86 1200.76 1160.01 L 1083.28 961.722 L 1045.01 895.964 C 1040.87 888.943 1029.05 868.669 1024.54 863.569 C 1006.22 891.527 988.713 923.04 971.913 951.942 L 917.622 1043.7 C 894.445 1083.02 868.7 1121.23 845.705 1159.97 C 863.842 1161.42 890.546 1160.74 909.165 1160.79 L 1021.5 1161.01 z" fill="rgb(45,37,137)" transform="translate(0,0)"></path>
<path d="M 1129.36 1547.12 C 1139.6 1546.77 1132.61 1548.92 1128.42 1550.04 L 1129.36 1547.12 z" fill="rgb(224,223,240)" fill-opacity="0.0784314" transform="translate(0,0)"></path>
<metadata><recraft-signature>{"signed_by": "recraft", "signature_b64": "Tfq8pUGCgEThyS/faOhujpf2tnfrWBvUVtOgl2seMRCQrg4VFILsHSiwf4JFYXI1yOae3uZysqdu4I+QlkpwDQ==", "signing_algo": "Ed25519", "generation_timestamp": 1772774735, "identifier": "e15063f2-c140-43b8-a69c-fb102f17887e"}</recraft-signature></metadata></svg>