<svg xmlns="http://www.w3.org/2000/svg" height="1024" preserveAspectRatio="none" style="display: block;" version="1.1" viewBox="0 0 2048 2048" width="1024">
<path d="M 0 0 L 2048 0 L 2048 2048 L 0 2048 L 0 0 z" fill="rgb(240,27,43)" transform="translate(0,0)"></path>
<path d="M 580.239 378.8 L 580.92 378.936 C 581.469 379.4 582.017 379.865 582.566 380.33 C 598.233 458.431 643.678 680.367 657.848 745.126 C 641.752 751.237 625.746 757.584 609.835 764.165 C 604.451 766.428 585.472 775.195 580.861 776.164 C 556.003 781.389 527.892 784.314 502.6 788.027 L 338.889 812.535 C 315.448 816.532 291.545 819.142 268.128 823.601 C 311.55 644.302 428.801 482.97 580.239 378.8 z" fill="rgb(0,0,0)" transform="translate(0,0)"></path>
<path d="M 1321.74 1402.7 C 1362.48 1409.9 1402.89 1418.81 1443.44 1426.94 L 1668.15 1471.89 C 1610.35 1554.05 1549.44 1613.7 1468.23 1671.66 C 1388.74 1727.04 1324.24 1755.38 1233.34 1783.9 L 1271.53 1568.33 C 1276.5 1541.74 1280.8 1513.06 1286.79 1486.89 C 1288.4 1479.85 1297.45 1459.32 1300.81 1451.28 C 1307.38 1435.55 1314.5 1417.98 1321.74 1402.7 z" fill="rgb(0,0,0)" transform="translate(0,0)"></path>
<path d="M 434.864 1179.13 C 436.095 1180.65 426.617 1215.93 425.624 1220.86 C 413.65 1281.94 417.642 1345.08 437.215 1404.16 C 466.128 1488.43 527.093 1557.9 606.89 1597.51 C 691.199 1640.32 789.114 1647.69 878.881 1617.98 C 858.405 1663.14 832.002 1737 817.263 1783.83 C 801.137 1780.36 783.013 1773.86 767.156 1768.52 C 713.132 1748.78 667.977 1727.98 618.692 1697.86 C 474.573 1610.55 362.289 1479.29 298.364 1323.38 C 287.859 1297.06 278.527 1272.62 271.874 1245.12 C 292.702 1237.5 317.313 1226.49 338.203 1217.98 L 434.864 1179.13 z" fill="rgb(0,0,0)" transform="translate(0,0)"></path>
<path d="M 838.645 265.296 C 840.481 266.974 913.065 631.496 921.3 661.345 C 943.33 666.393 965.287 671.754 987.164 677.427 C 979.454 696.91 972.282 716.602 965.657 736.48 C 918.834 725.443 892.261 719.393 844.244 715.3 C 816.069 713.834 787.82 714.78 759.806 718.128 C 751.724 668.607 739.222 614.395 728.545 565.284 L 698.634 421.354 C 691.765 388.348 683.967 354.525 677.818 321.517 C 687.97 316.563 701.025 312.014 711.685 307.331 C 753.628 288.904 794.043 276.049 838.645 265.296 z" fill="rgb(0,0,0)" transform="translate(0,0)"></path>
<path d="M 1387.53 1064.82 L 1388.97 1065.1 C 1391.23 1067.72 1413.01 1130.51 1415.83 1138.33 C 1454.14 1144.9 1493.74 1154.58 1532.01 1161.77 C 1615.78 1177.5 1700.09 1196.5 1783.89 1211.46 C 1771.19 1261.34 1756.34 1304.7 1734.74 1351.37 C 1732.65 1355.89 1726.21 1371.87 1722.78 1374.15 C 1686.86 1365.69 1643.54 1358.25 1606.94 1350.83 L 1344.94 1297.69 C 1353.41 1238 1341.48 1149.42 1324.63 1092.08 L 1387.53 1064.82 z" fill="rgb(0,0,0)" transform="translate(0,0)"></path>
<path d="M 782.635 820.358 C 785.19 819.904 785.286 819.625 787.642 820.515 C 787.816 825.144 780.302 835.261 777.537 839.388 C 771.585 848.274 763.095 869.568 755.131 876.185 C 741.582 886.825 724.109 893.293 709.565 902.4 C 658.322 934.487 606.144 964.208 560.177 1003.87 C 549.497 1013.09 535.817 1027.17 524.08 1033.96 C 516.705 1038.23 501.302 1042.86 492.582 1046.05 C 478.765 1051.16 464.996 1056.39 451.277 1061.76 L 316.517 1113.64 C 293.961 1122.24 270.731 1130.39 248.408 1139.39 C 246.718 1136.61 245.592 1119.87 245.262 1115.4 C 240.917 1056.55 239.3 994.455 246.18 935.838 C 317.411 927.075 395.861 912.7 467.424 901.487 L 557.085 887.263 C 570.68 885.117 590.435 882.349 604.406 879.397 C 611.076 877.987 620.242 872.659 626.503 869.307 C 676.046 842.782 727.336 828.511 782.635 820.358 z" fill="rgb(0,0,0)" transform="translate(0,0)"></path>
<path d="M 1240.49 1276.77 L 1242.15 1276.92 C 1243.05 1280.96 1241.33 1289.91 1240.66 1294 C 1231.55 1349.78 1211.57 1401.89 1185.89 1451.96 C 1182.48 1458.62 1179.17 1483.16 1177.57 1492.31 C 1174.26 1510.82 1170.86 1529.32 1167.35 1547.79 C 1150.77 1634.07 1134.79 1720.47 1119.4 1806.97 C 1056.95 1814.89 994.697 1813.55 932.238 1807.27 C 929.013 1807.17 928.294 1807.36 925.259 1806.19 C 924.111 1803.5 924.321 1803.45 925.295 1799.88 C 950.881 1705.95 987.551 1612.84 1037.91 1529.35 C 1050.5 1508.47 1069.16 1501.51 1078.97 1484.81 C 1097.35 1453.5 1116.06 1422.73 1134.9 1391.64 C 1147.4 1371.02 1167.01 1333.59 1181.4 1315.99 C 1188.72 1307.05 1229.79 1282.98 1240.49 1276.77 z" fill="rgb(0,0,0)" transform="translate(0,0)"></path>
<path d="M 998.162 243.419 C 1016.02 241.797 1043.1 243.305 1061.2 244.046 C 1136.77 247.142 1208.43 261.806 1280.5 284.564 C 1265.59 297.796 1250.65 310.202 1235.85 323.79 C 1186.55 369.05 1149.42 412.991 1110.18 466.47 C 1083.21 502.913 1058.68 541.102 1036.76 580.787 L 1011.63 574.541 L 960.361 331.233 C 954.554 303.681 949.539 275.662 943.228 248.302 C 961.094 246.045 980.209 244.722 998.162 243.419 z" fill="rgb(0,0,0)" transform="translate(0,0)"></path>
<path d="M 1766.25 772.646 C 1771.27 784.237 1779.53 817.57 1782.32 830.52 C 1796.27 895.184 1805.27 964.126 1805.07 1030.31 C 1805 1054.9 1802.49 1080.3 1800.82 1104.76 C 1724.69 1091.71 1643.3 1074.84 1567.22 1060 C 1545.64 1056 1517.03 1049.19 1496.01 1046.65 C 1492.15 1034.45 1488.43 1024.09 1483.87 1012.12 C 1590.86 948.834 1686.33 867.86 1766.25 772.646 z" fill="rgb(0,0,0)" transform="translate(0,0)"></path>
<path d="M 1460.99 374.491 C 1471.63 379.98 1491.47 396.587 1501.63 404.364 C 1568.18 455.3 1630.55 521.534 1676.64 591.704 C 1644.04 590.9 1611.86 587.789 1579.4 586.755 C 1559.32 603.729 1551.3 613.429 1528.01 630.2 C 1478.71 664.889 1425.4 681.781 1365.97 687.027 C 1368.91 604.823 1404.82 541.193 1457.67 481.394 C 1459.2 445.774 1460.31 410.137 1460.99 374.491 z" fill="rgb(0,0,0)" transform="translate(0,0)"></path>
<path d="M 1032.63 1096.88 C 1038.84 1104.87 1048.09 1125.64 1052.65 1135.14 C 1071.4 1174.17 1085.18 1209.5 1097.81 1250.69 C 1076.51 1290.81 1053.73 1330.13 1029.53 1368.57 C 1023.51 1378.09 1007.69 1403.99 1001.39 1410.97 C 995.938 1417.03 952.418 1465.23 948.323 1466.75 L 947.004 1464.41 C 944.618 1458.65 942.523 1452.52 940.407 1446.65 C 917.276 1382.44 897.996 1317.09 877.091 1252.15 L 978.064 1151.57 C 996.202 1133.38 1013.86 1114.32 1032.63 1096.88 z" fill="rgb(0,0,0)" transform="translate(0,0)"></path>
<path d="M 812.484 960.962 C 821.144 962.534 833.583 966.949 842.285 969.564 C 885.471 982.542 922.566 1002.46 962.926 1021.37 L 806.303 1177.09 C 792.108 1173.68 775.356 1168.19 761.171 1163.91 C 707.677 1148.51 648.179 1128.62 594.953 1111.35 C 615.544 1088.75 638.829 1068.1 664.235 1051.01 C 677.034 1042.39 691.758 1034.76 704.831 1026.08 C 739.445 1003.08 775.989 980.927 812.484 960.962 z" fill="rgb(0,0,0)" transform="translate(0,0)"></path>
<path d="M 901.274 824.853 C 906.836 826.882 914.501 829.032 920.162 830.567 C 989.325 849.314 1054.12 875.609 1116.73 910.634 C 1137.93 922.493 1138.58 933.618 1149.75 953.822 C 1186.23 1019.82 1212.74 1088.96 1233.76 1160.89 C 1224.34 1166.08 1209.4 1172.6 1199.33 1177.37 L 1184.34 1184.19 C 1160.1 1111.69 1126.31 1034.21 1084.58 969.45 C 1079.68 961.847 1031.47 939.696 1020.06 933.815 C 973.763 909.948 923.546 891.586 874.594 873.761 C 884.046 857.769 892.945 841.457 901.274 824.853 z" fill="rgb(0,0,0)" transform="translate(0,0)"></path>
<path d="M 1087.7 708.245 C 1106.56 714.119 1141.01 728.968 1160.19 736.611 C 1197.6 751.663 1235.27 766.05 1273.19 779.766 C 1298.07 841.58 1321.79 904.302 1347.3 965.73 C 1336.82 970.62 1324.98 977.147 1314.6 982.595 C 1306.62 987.094 1298.51 991.372 1290.28 995.422 C 1269.32 949.66 1246.51 908.348 1220.9 865.159 C 1201.18 831.9 1204.03 836.311 1169.59 819.249 C 1134.3 801.761 1100.75 785.463 1064.06 770.625 C 1072.28 749.826 1078.89 729.023 1087.7 708.245 z" fill="rgb(0,0,0)" transform="translate(0,0)"></path>
<path d="M 1356.76 362.811 C 1357.82 367.257 1346.93 458.592 1345.55 460.528 C 1298.05 526.999 1270.24 579.725 1262.04 664.907 C 1232.23 652.316 1202.32 639.974 1172.3 627.882 C 1160.1 622.907 1147.66 618.121 1135.38 613.297 C 1190.87 525.186 1270.16 422.707 1356.76 362.811 z" fill="rgb(0,0,0)" transform="translate(0,0)"></path>
<path d="M 1683.41 698.501 C 1685.17 698.179 1684.18 698.189 1686.37 698.791 C 1685.72 701.602 1667.05 721.89 1663.62 725.764 C 1599.47 799.057 1524.76 862.389 1441.95 913.676 C 1436.27 902.509 1431.22 889.863 1426.39 878.254 L 1387.59 788.335 C 1436.46 786.547 1486.09 769.13 1529.89 748.561 C 1557.02 735.821 1580.85 718.321 1605.2 701.078 C 1631.82 699.741 1656.77 699.137 1683.41 698.501 z" fill="rgb(0,0,0)" transform="translate(0,0)"></path>
<path d="M 541.832 1205.98 C 600.046 1224.84 659.683 1241.52 718.185 1260.48 L 631.632 1348.67 C 610.659 1369.48 583.079 1400.96 561.259 1419.24 C 521.559 1357.03 514.538 1274.45 541.832 1205.98 z" fill="rgb(0,0,0)" transform="translate(0,0)"></path>
<path d="M 791.801 1334.75 C 796.888 1340.8 841.687 1493.78 848.228 1514.07 C 801.243 1535.54 753.277 1532.71 704.218 1521.38 C 680.895 1514.46 658.399 1505.01 637.13 1493.2 C 683.446 1439.73 745.48 1387.5 791.801 1334.75 z" fill="rgb(0,0,0)" transform="translate(0,0)"></path>
<metadata><recraft-signature>{"signed_by": "recraft", "signature_b64": "11Eox0Fz9z+CUZBtD0ZcfHMvKBMKRMek6IN9jzRS3MQYj8xqA6ywyXPYy4C55JGkaWNJ1eH+M5OzK7yQ/ySwCA==", "signing_algo": "Ed25519", "generation_timestamp": 1772774816, "identifier": "6c2ea64b-7ca6-4db0-a9d8-2ce8ca6a1687"}</recraft-signature></metadata></svg>