<svg xmlns="http://www.w3.org/2000/svg" height="1024" preserveAspectRatio="none" style="display: block;" version="1.1" viewBox="0 0 2048 2048" width="1024">
<path d="M 0 0 L 2048 0 L 2048 2048 L 0 2048 L 0 0 z" fill="rgb(255,255,255)" transform="translate(0,0)"></path>
<path d="M 1011.86 745.928 C 1165.78 738.599 1296.5 857.425 1303.85 1011.34 C 1311.19 1165.26 1192.38 1296 1038.46 1303.36 C 884.521 1310.72 753.762 1191.89 746.415 1037.95 C 739.069 884.004 857.917 753.258 1011.86 745.928 z" fill="rgb(247,5,26)" transform="translate(0,0)"></path>
<path d="M 1172.56 960.864 C 1174.38 963.001 1176.88 972.294 1177.72 975.371 C 1185.23 1003.55 1185.52 1033.17 1178.54 1061.49 C 1157.69 1144.78 1080.58 1198.06 995.313 1183 C 989.725 1182.01 984.18 1180.57 978.681 1179.18 C 973.421 1177.19 965.221 1174.87 959.654 1173.09 C 965.263 1165.87 976.362 1155.29 982.953 1148.35 C 1002.45 1127.83 1023.21 1108.37 1043.24 1088.35 C 1072.71 1058.7 1102.37 1029.24 1132.23 999.973 C 1144.32 988.145 1160.2 971.452 1172.56 960.864 z" fill="rgb(255,255,255)" transform="translate(0,0)"></path>
<path d="M 1029.18 861.453 C 1053.51 862.138 1067.5 864.119 1090.35 873.043 C 1067.77 897.693 1040.74 923.765 1016.88 947.34 C 978.334 985.219 940.026 1023.34 901.961 1061.71 C 894.098 1069.69 884.915 1077.66 876.652 1085.92 C 869.365 1070.05 865.176 1052.94 864.312 1035.5 C 862.292 991.071 877.851 947.631 907.62 914.586 C 939.724 879.644 982.471 863.428 1029.18 861.453 z" fill="rgb(255,255,255)" transform="translate(0,0)"></path>
<path d="M 1800.66 1043.76 L 1801.75 1045.49 C 1799.35 1107.5 1792.69 1166.81 1777.12 1227.03 C 1749.2 1335.01 1692.47 1441.04 1620.41 1525.93 C 1506.12 1662.06 1348.59 1754.86 1174.12 1788.83 C 1151.06 1793.19 1127.91 1797.59 1104.47 1799.59 C 1085.58 1801.2 1075.48 1796.68 1061.76 1784.78 C 1054.52 1777.18 1050.2 1771.41 1047.16 1760.88 C 1043.18 1747.31 1044.8 1732.72 1051.65 1720.35 C 1059.75 1706.04 1076.84 1695.44 1093 1694.03 C 1344.1 1672.01 1560.91 1499.09 1655.89 1268.3 C 1667.54 1237.69 1693.86 1214.26 1712.03 1187.06 C 1743.15 1140.5 1773.95 1093.05 1800.66 1043.76 z" fill="rgb(247,5,26)" transform="translate(0,0)"></path>
<path d="M 996.214 1802.27 C 881.405 1797.47 774.489 1772.63 672.157 1718.92 C 641.489 1703.13 611.817 1685.47 583.308 1666.05 C 443.461 1569.08 332.863 1423.31 282.254 1260.26 C 266.778 1207.45 250.957 1147.67 250.263 1092.64 C 252.88 1058.22 290.82 1040.96 320.451 1051.18 C 356.163 1063.49 352.982 1095.52 357.711 1126.69 C 360.191 1142.4 363.248 1158 366.874 1173.48 C 416.233 1386.84 568.597 1564.71 770.982 1650.12 C 794.714 1660.14 801.709 1666.1 821.682 1681.69 C 835.067 1692.26 848.792 1702.4 862.835 1712.09 C 908.618 1743.66 953.189 1769.78 1000.2 1799.08 L 1004.62 1801.54 L 1004.69 1802.54 C 1000.75 1802.77 1000.14 1802.74 996.214 1802.27 z" fill="rgb(247,5,26)" transform="translate(0,0)"></path>
<path d="M 1047.96 249.946 L 1045.85 248.722 L 1046.72 247.977 C 1052.32 247.883 1054.53 248.114 1060.1 248.923 C 1067.12 248.984 1073.77 249.338 1080.76 249.746 C 1274.64 261.063 1450.09 346.106 1586.2 484.392 C 1688.14 588.631 1757.85 720.058 1786.98 862.917 C 1792.67 890.296 1798.91 925.277 1799.38 953.431 C 1800.36 1011.11 1712.06 1019.86 1697.64 965.22 C 1695.31 956.362 1695.09 947.083 1693.79 938.053 C 1668.53 728.323 1542.31 548.984 1362.66 441.301 C 1341.79 428.877 1320.27 417.565 1298.2 407.415 C 1273.39 395.936 1262.03 393.105 1240.76 375.674 C 1181.32 326.979 1113.47 289.542 1047.96 249.946 z" fill="rgb(247,5,26)" transform="translate(0,0)"></path>
<path d="M 949.605 251.438 C 957.165 250.429 966.057 253.312 972.882 256.478 C 999.925 269.021 1010.84 303.645 995.328 329.975 C 989.597 339.732 980.876 347.385 970.456 351.801 C 955.801 358.019 932.544 358.636 916.329 361.102 C 842.243 372.37 775.391 394.213 709.179 430.063 C 600.049 488.847 508.609 575.725 444.319 681.705 C 431.135 703.104 418.669 726.764 407.686 749.466 C 400.969 763.35 395.522 780.433 387.889 793.597 C 384.776 798.965 375.442 809.722 371.213 814.899 C 363.451 824.355 356.005 834.067 348.886 844.016 C 316.761 889.161 295.184 923.535 268.105 971.516 C 260.979 983.071 253.623 996.481 246.908 1008.4 C 250.074 949.916 255.743 897.483 269.082 840.232 C 297.43 723.504 352.891 615.101 430.967 523.815 C 561.4 370.165 747.741 267.77 949.605 251.438 z" fill="rgb(247,5,26)" transform="translate(0,0)"></path>
<path d="M 1044.9 384.108 C 1043.32 383.128 1042.79 382.587 1041.36 381.387 L 1042.3 380.536 L 1047.99 380.897 C 1336.45 404.473 1579.85 597.805 1646.11 883.448 C 1651.5 906.968 1656.86 931.923 1656.83 956.086 C 1656.78 1006.2 1579.47 1014.59 1553.01 983.423 C 1541.64 970.036 1541.04 948.899 1538.55 932.16 C 1519.56 804.561 1447.64 693.963 1347.68 614.303 C 1329.2 599.568 1310.65 586.089 1291.76 571.922 C 1269.23 552.744 1249.45 529.055 1226.22 510.573 C 1169.32 465.308 1106.87 422.231 1044.9 384.108 z" fill="rgb(247,5,26)" transform="translate(0,0)"></path>
<path d="M 939.605 395.372 C 951.337 393.238 965.907 394.681 976.488 400.338 C 987.936 406.479 996.462 416.931 1000.18 429.379 C 1007.34 453.444 999.364 491.346 973.473 501.563 C 958.81 507.052 942.336 506.929 926.963 509.716 C 785.691 535.315 664.092 622.847 583.889 740.527 C 562.267 772.252 534.247 798.762 509.261 828.189 C 470.518 874.618 435.631 924.133 404.95 976.242 L 380.142 1016.6 C 382.812 985.773 383.263 962.979 388.343 931.376 C 405.782 828.54 447.933 731.478 511.174 648.533 C 619.568 506.957 762.031 418.837 939.605 395.372 z" fill="rgb(247,5,26)" transform="translate(0,0)"></path>
<path d="M 438.618 1049.37 C 508.392 1047.43 502.668 1068.84 511.923 1124.92 C 531.012 1240.61 596.674 1347.15 685.904 1422.61 C 698.153 1433.05 710.913 1442.87 724.135 1452.04 C 731.601 1457.17 752.533 1469.95 757.929 1475.73 C 833.638 1556.86 921.618 1610.59 1013.68 1670.16 C 1000.36 1668.15 982.868 1667.24 968.819 1665.73 C 851.244 1651.54 739.525 1606.47 645.025 1535.09 C 620.719 1517 603.034 1500.25 581.258 1479.65 C 481.632 1385.42 416.126 1259.4 395.614 1123.95 C 390.177 1088.05 394.437 1054.24 438.618 1049.37 z" fill="rgb(247,5,26)" transform="translate(0,0)"></path>
<path d="M 1667.48 1041.77 C 1668.52 1062.55 1662.68 1106.14 1658.83 1126.54 C 1639.33 1233.39 1593.38 1333.67 1525.16 1418.2 C 1433.81 1531 1307.63 1614.44 1164.81 1644.19 C 1146.84 1647.93 1129.02 1651.56 1110.74 1653.39 C 1089.45 1655.53 1076.74 1653.79 1059.73 1640.01 C 1041.97 1619.96 1039.45 1588.09 1054.68 1565.39 C 1070.48 1541.83 1101.41 1542.65 1126.8 1538.04 C 1244.79 1516.61 1349.21 1449.51 1427.04 1359.61 C 1449.37 1333.82 1465.86 1306.91 1485.27 1279.3 C 1491.09 1271.03 1508.95 1255.27 1516.82 1246.79 C 1533.15 1228.82 1548.72 1210.18 1563.5 1190.91 C 1586.35 1161.48 1608.25 1131.32 1629.17 1100.49 C 1641.76 1081.59 1654.43 1060 1667.48 1041.77 z" fill="rgb(247,5,26)" transform="translate(0,0)"></path>
<path d="M 1370.8 726.32 C 1405.72 725.533 1416.48 743.31 1434.16 769.966 C 1467.93 820.886 1492.66 881.138 1499.4 942.071 C 1504.21 985.491 1484.76 1000.38 1443.81 1002.77 C 1393.43 1001.15 1386.92 988.411 1377.2 941.743 C 1374.16 927.191 1366.71 902.701 1361 889.044 C 1354.81 874.048 1347.77 859.417 1339.92 845.221 C 1331.4 829.93 1318.72 814.309 1314.36 797.471 C 1306.1 765.566 1341.96 732.203 1370.8 726.32 z" fill="rgb(247,5,26)" transform="translate(0,0)"></path>
<path d="M 1432.74 1048.43 C 1447.25 1046.87 1465.74 1047.3 1478.36 1055.11 C 1505.48 1071.88 1502.36 1095.71 1497.16 1122.48 C 1486.09 1177.15 1465.2 1229.35 1435.49 1276.56 C 1420.64 1300.1 1411.72 1316.67 1383.69 1322.98 C 1367.55 1323.67 1354.8 1320.72 1342.36 1309.87 C 1328.17 1297.49 1315.22 1282.64 1314 1262.97 C 1313.48 1255.44 1314.68 1247.89 1317.52 1240.89 C 1321.57 1230.58 1330.26 1218.74 1335.83 1208.83 C 1346.25 1190.29 1356.93 1170.63 1364.07 1150.62 C 1367.89 1139.93 1371.2 1129.06 1373.98 1118.05 C 1383.68 1079.46 1382.59 1051.78 1432.74 1048.43 z" fill="rgb(247,5,26)" transform="translate(0,0)"></path>
<path d="M 595.949 1048.31 C 609.308 1046.58 626.646 1047.09 639.175 1052.1 C 664.176 1061.92 665.877 1085.72 670.841 1108.22 C 678.352 1142.26 692.706 1173.79 709.664 1204.09 C 716.801 1216.18 724.708 1227.26 730.59 1240.05 C 746.393 1274.42 718.195 1307.58 687.505 1320.38 C 685.803 1320.83 684.089 1321.24 682.364 1321.6 C 649.118 1328.74 632.857 1306.84 616.685 1282.31 C 585.446 1234.65 563.66 1181.42 552.513 1125.53 C 544.573 1085.7 550.279 1056.33 595.949 1048.31 z" fill="rgb(247,5,26)" transform="translate(0,0)"></path>
<path d="M 665.033 728.196 C 696.403 725.859 729.298 752.284 734.424 783.622 C 738.338 807.545 718.42 829.305 707.421 849.195 C 690.698 879.694 675.795 915.168 669.002 949.345 C 663.082 979.132 656.842 999.01 621.175 1001.98 C 605.094 1004 583.967 1003.14 569.792 994.553 C 559.797 988.542 552.7 978.699 550.156 967.317 C 547.28 954.507 550.258 938.159 552.753 925.472 C 563.232 872.18 585.975 820.42 614.349 774.306 C 628.813 750.797 637.03 735.047 665.033 728.196 z" fill="rgb(247,5,26)" transform="translate(0,0)"></path>
<path d="M 782.992 1317.24 C 784.824 1317.06 786.662 1316.95 788.502 1316.89 C 812.954 1316.25 821.071 1327.41 840.475 1338.59 C 870.609 1355.81 903.677 1370.56 937.484 1378.68 C 963.102 1384.33 991.052 1384.51 999.522 1415.29 C 1004.11 1431.94 1003.4 1457.74 997.45 1474.18 C 993.023 1486.41 980.242 1497.31 967.87 1500.59 C 960.789 1502.47 955.864 1502.22 948.612 1501.93 C 882.276 1492.9 797.769 1458.24 744.429 1415.74 C 737.969 1410.6 732.316 1400.73 730.133 1392.72 C 726.57 1379.9 728.425 1366.19 735.264 1354.78 C 745.643 1337.33 762.955 1322.23 782.992 1317.24 z" fill="rgb(247,5,26)" transform="translate(0,0)"></path>
<path d="M 948.232 550.375 C 998.684 542.923 1009.82 594.158 1000.95 632.119 C 994.383 660.201 974.149 664.507 950.106 669.144 C 920.303 674.892 891.66 685.23 864.047 697.741 C 837.876 709.599 817.59 734.484 787.025 732.645 C 760.59 728.331 734.036 703.665 729.915 677.032 C 727.817 663.457 731.431 649.62 739.898 638.804 C 748.057 628.227 762.114 619.495 773.48 612.418 C 826.662 579.558 886.235 558.407 948.232 550.375 z" fill="rgb(247,5,26)" transform="translate(0,0)"></path>
<path d="M 1087.1 548.214 C 1111.71 546.847 1135.93 554.2 1159.35 559.783 C 1195 568.283 1297.13 613.96 1313.42 643.707 C 1320.22 656.142 1321.79 670.769 1317.79 684.363 C 1312.56 701.827 1293.71 719.651 1277.99 728.276 C 1276.74 728.692 1275.49 729.095 1274.23 729.486 C 1244.08 738.837 1232.87 725.358 1209.43 710.609 C 1198 703.415 1178.55 693.25 1165.97 688.034 C 1149.65 681.428 1132.94 675.846 1115.93 671.322 C 1100.52 667.316 1084.61 666.048 1070.62 658.88 C 1061.7 654.693 1051.82 642.773 1050.27 632.625 C 1044.68 595.879 1044.37 558.279 1087.1 548.214 z" fill="rgb(247,5,26)" transform="translate(0,0)"></path>
<path d="M 1246.67 1317.23 C 1260.23 1316.16 1273.11 1316.63 1284.61 1324.82 C 1299.56 1335.8 1315.14 1352.6 1318.52 1371.38 C 1324.32 1403.56 1299.98 1420.79 1276.37 1435.79 C 1227.94 1466.42 1173.96 1487.21 1117.5 1496.98 C 1087.77 1501.51 1060.49 1499.39 1048.83 1465.17 C 1043.11 1448.39 1045.2 1422.05 1052.95 1406.37 C 1061.03 1390.02 1080.07 1384.28 1096.61 1381.39 C 1130.28 1374.45 1160.63 1364.5 1190.83 1347.78 C 1208.01 1338.28 1228.9 1322.37 1246.67 1317.23 z" fill="rgb(247,5,26)" transform="translate(0,0)"></path>
<metadata><recraft-signature>{"signed_by": "recraft", "signature_b64": "kq7jBSOcu3rqpswtB5nM8sdtiu3bkkdXd8xI7I5vlLfm4CrNCDdh7amYHXCAbrTE16Epz5l8Cpnkn3KElXyuAQ==", "signing_algo": "Ed25519", "generation_timestamp": 1772774776, "identifier": "08395fa4-d35e-431f-98b6-649b63d0cf9f"}</recraft-signature></metadata></svg>