<svg xmlns="http://www.w3.org/2000/svg" height="1024" preserveAspectRatio="none" style="display: block;" version="1.1" viewBox="0 0 2048 2048" width="1024">
<path d="M 0 0 L 961.162 0 L 1083.53 0 L 2048 0 L 2048 968.503 L 2048 1078.61 L 2048 2048 L 1079.48 2048 L 968.133 2048 L 0 2048 L 0 1074.93 L 0 969.536 L 0 0 z" fill="rgb(254,183,67)" transform="translate(0,0)"></path>
<path d="M 1083.53 0 L 2048 0 L 2048 968.503 C 2045.58 957.215 2045.01 930.368 2043.55 917.688 C 2040.72 893.188 2037.65 869.499 2033.38 845.138 C 2007.93 694.748 1948.96 552.012 1860.85 427.507 C 1713.95 220.626 1494.9 76.2552 1246.85 22.8344 C 1202.49 12.8885 1156.32 7.3117 1111.09 3.10625 C 1102.42 2.3001 1093.42 1.71088 1084.86 0.234627 L 1083.53 0 z" fill="rgb(246,246,247)" transform="translate(0,0)"></path>
<path d="M 0 0 L 961.162 0 C 944.244 3.01893 921.812 4.27852 904.127 6.40968 C 865.694 10.6621 827.529 17.0545 789.808 25.5573 C 544.444 80.7814 328.545 225.64 184.417 431.747 C 100.211 551.137 43.1684 687.516 17.2955 831.303 C 10.1866 872.701 4.06444 913.113 1.58531 955.066 C 1.31308 959.672 0.847841 965.035 0 969.536 L 0 0 z" fill="rgb(246,246,247)" transform="translate(0,0)"></path>
<path d="M 1079.48 2048 C 1086.95 2046.51 1117.34 2044.87 1126.93 2043.93 C 1155.01 2041.13 1182.98 2037.23 1210.75 2032.22 C 1365.22 2004.59 1511.27 1941.82 1637.61 1848.75 C 1834.43 1702.96 1971.79 1490.81 2024.27 1251.56 C 2032.15 1214.77 2038.13 1177.6 2042.18 1140.19 C 2044.22 1121.39 2045.1 1097.65 2047.83 1079.7 L 2048 1078.61 L 2048 2048 L 1079.48 2048 z" fill="rgb(246,246,247)" transform="translate(0,0)"></path>
<path d="M 0 1074.93 L 0.162561 1075.98 C 3.04949 1095.52 3.95809 1124.95 6.37427 1146.29 C 11.878 1191.69 19.9483 1236.74 30.5467 1281.23 C 41.1882 1324.54 55.0332 1367 71.9674 1408.26 C 140.642 1581.17 255.427 1731.94 403.832 1844.15 C 531.36 1939.55 679.338 2003.96 836.059 2032.29 C 865.058 2037.32 894.235 2041.28 923.529 2044.13 C 932.888 2045.06 961.486 2046.55 968.133 2048 L 0 2048 L 0 1074.93 z" fill="rgb(246,246,247)" transform="translate(0,0)"></path>
<path d="M 1296.45 1563.26 C 1275.31 1521.56 1066.46 1102.41 1066.48 1091.81 C 1086.15 1123.95 1110.55 1172.83 1128.82 1207.35 L 1227.69 1395.09 C 1249.72 1403.43 1270.51 1411.09 1293.23 1416.78 C 1457.69 1457.94 1631.92 1386.23 1737.23 1257.27 C 1757.26 1232.73 1773.12 1207.62 1789.48 1180.48 C 1785.24 1203.79 1776.4 1233.98 1768.92 1256.49 C 1740.32 1344.86 1695.18 1426.99 1635.91 1498.5 C 1628.46 1507.36 1606.83 1533.99 1597.59 1539.35 C 1503.92 1593.65 1390.29 1619.71 1283.24 1599.22 C 1223.4 1587.77 1178.91 1567.38 1128.89 1537.41 C 1133.26 1559.98 1137.19 1580.55 1140.55 1603.28 C 1139.84 1604.36 1139.45 1604.72 1138.52 1605.76 C 1132.98 1579.64 1125.98 1552.93 1120.84 1527.01 C 1104.89 1446.57 1090.6 1366.04 1074.06 1285.69 C 1062.68 1230.38 1054.44 1173.6 1041.54 1118.52 L 1247.3 1479.4 C 1263.35 1507.48 1278.27 1536.16 1294.61 1564.28 L 1296.45 1563.26 z" fill="rgb(0,1,0)" transform="translate(0,0)"></path>
<path d="M 1296.45 1563.26 C 1299.16 1567.37 1301.32 1572.43 1303.28 1576.97 L 1301.96 1577.1 C 1299.61 1572.7 1296.81 1568.73 1294.61 1564.28 L 1296.45 1563.26 z" fill="rgb(160,116,56)" transform="translate(0,0)"></path>
<path d="M 1303.28 1576.97 C 1310.9 1586.61 1310.56 1597.42 1301.96 1577.1 L 1303.28 1576.97 z" fill="rgb(26,19,11)" transform="translate(0,0)"></path>
<path d="M 1182.45 263.362 C 1311.09 293.768 1437.16 350.477 1533.32 443.529 C 1540.27 450.252 1549.25 467.734 1553.91 476.685 C 1575.09 516.917 1590.57 559.904 1599.89 604.406 C 1620.27 697.9 1606.16 795.611 1560.15 879.515 C 1553.74 891.395 1545.57 903.19 1538.21 914.588 C 1565.07 909.184 1591.97 904.896 1618.74 899.5 L 1618.25 901.688 C 1559.43 916.572 1511.94 925.534 1453.51 937.073 L 1311.58 964.871 C 1242.08 978.012 1172.79 993.323 1102.87 1004.88 C 1113.1 998.215 1142.73 983.735 1154.79 977.366 C 1190.44 958.549 1225.96 939.476 1261.34 920.146 C 1313.82 891.079 1366.02 861.496 1417.92 831.404 L 1558.98 751.8 L 1556.87 750.131 C 1399.5 830.535 1240.33 907.338 1079.46 980.478 L 1078.68 978.6 C 1094.2 973.296 1138.92 947.956 1155.81 939.507 C 1236.18 899.317 1315.81 855.263 1396.24 815.276 C 1434.99 720.18 1440.71 632.395 1410.47 533.288 C 1380.44 434.855 1313.2 351.85 1229.66 293.359 C 1214.73 282.908 1198.63 271.847 1182.45 263.362 z" fill="rgb(0,1,0)" transform="translate(0,0)"></path>
<path d="M 1556.87 750.131 C 1563.74 745.95 1579.38 737.744 1586.76 735.19 C 1586.9 735.325 1587.03 735.46 1587.17 735.595 C 1586.6 736.914 1561.89 750.343 1558.98 751.8 L 1556.87 750.131 z" fill="rgb(133,103,74)" transform="translate(0,0)"></path>
<path d="M 909.69 435.213 C 944.669 597.33 976.418 760.126 1004.92 923.506 L 813.258 583.48 C 795.386 551.782 776.278 520.112 758.896 488.239 L 756.64 489.467 C 764.793 504.685 772.727 521.994 780.426 537.609 L 822.43 622.652 L 978.266 943.78 L 977.132 945.834 C 940.591 879.486 906.546 811.919 871.163 744.972 C 855.041 714.469 838.066 684.361 822.395 653.625 C 804.417 646.941 785.005 639.5 766.633 634.282 C 701.307 615.581 632.283 613.905 566.125 629.412 C 456.709 655.245 360.241 719.585 294.348 810.675 C 280.509 829.5 271.93 845.92 259.799 865.496 C 280.85 769.607 319.962 678.602 375.046 597.339 C 385.415 582.145 434.175 519.414 447.736 509.889 C 488.152 481.5 562.675 455.897 610.673 446.882 C 699.934 430.117 791.782 444.568 872.712 484.726 C 889.033 492.824 904.654 500.761 919.697 511.003 C 915.204 486.351 911.25 461.603 907.838 436.777 L 909.69 435.213 z" fill="rgb(0,1,0)" transform="translate(0,0)"></path>
<path d="M 739.63 455.709 C 745.907 464.333 753.969 478.604 758.896 488.239 L 756.64 489.467 C 750.696 478.842 744.192 466.883 739.63 455.709 z" fill="rgb(133,103,74)" transform="translate(0,0)"></path>
<path d="M 436.551 1144.54 C 449.487 1140.94 463.223 1138.78 476.189 1135.28 C 519.8 1123.53 563.849 1115.75 608.16 1107.1 L 818.193 1066.19 C 855.302 1059.03 898.541 1051.51 935.001 1042.4 L 936.443 1044.36 C 787.724 1124.38 640.303 1206.78 494.236 1291.53 L 496.393 1293.42 C 515.201 1283.61 534.475 1275.07 553.503 1265.74 L 638.068 1223.68 C 742.024 1172.14 846.798 1122.27 952.349 1074.09 L 953.981 1075.84 C 924.649 1090.49 896.082 1106.12 866.985 1121.08 C 827.854 1140.73 788.83 1160.61 749.917 1180.69 C 729.342 1191.35 708.71 1201.89 688.022 1212.32 C 678.86 1216.96 660.903 1225.44 652.685 1230.6 C 608.797 1325.84 608.87 1435.39 644.851 1533.11 C 674.517 1612.03 724.97 1681.45 790.87 1734.04 C 813.04 1751.83 841.464 1770.42 865.776 1785.44 C 752.701 1756.4 653.892 1712.81 560.294 1642.27 C 540.569 1627.4 515.884 1609.26 503.18 1588.15 C 446.654 1494.2 421.099 1379.26 449.114 1271.73 C 461.666 1223.56 482.236 1174.46 510.61 1133.1 C 485.684 1139.18 461.767 1141.34 438.407 1146.52 L 436.551 1144.54 z" fill="rgb(0,1,0)" transform="translate(0,0)"></path>
<path d="M 494.236 1291.53 L 496.393 1293.42 C 489.497 1297.37 470.926 1305.17 466.176 1308.5 L 464.776 1307.19 C 474.19 1302.82 485.042 1295.37 494.236 1291.53 z" fill="rgb(133,103,74)" transform="translate(0,0)"></path>
<path d="M 466.176 1308.5 C 461.441 1310.21 460.027 1309.06 464.776 1307.19 L 466.176 1308.5 z" fill="rgb(26,19,11)" transform="translate(0,0)"></path>
<path d="M 389.567 763.441 C 400.2 767.756 439.033 782.481 446.525 788.208 C 445.928 790.557 446.224 789.824 445.027 791.846 C 451.583 795.745 480.752 807.328 489.134 810.91 L 578.224 849.734 L 938.166 1006.99 L 937.984 1009.18 C 932.292 1006.44 917.041 1001.27 910.467 998.759 L 841.439 972.765 C 781.044 949.441 720.47 926.584 659.722 904.196 C 613.595 913.078 570.179 932.605 532.929 961.222 L 533.618 962.241 C 546.169 961.34 587.112 968.452 601.944 970.403 C 645.641 976.283 689.236 982.899 732.71 990.248 C 749.744 993.029 766.879 995.649 783.945 998.281 C 828.215 1005.11 870.829 1017.55 914.299 1027.47 L 656.492 1085.95 C 614.879 1095.32 565.851 1104.94 525.019 1116.45 C 577.536 1052.57 649.334 1005.87 732.55 995.924 C 730.875 995.275 729.196 994.639 727.513 994.014 C 687.624 990.474 647.827 985.968 608.156 980.499 C 582.526 976.955 548.434 971.009 523.621 969.932 C 374.024 1069.75 326.642 1279.9 374.302 1446.09 C 318.955 1366.4 277.499 1263.54 259.405 1168.18 C 254.112 1140.29 250.692 1116.03 254.453 1087.66 C 267.067 991.362 312.702 902.426 383.572 836.022 C 402.53 818.502 421.218 806.193 441.587 790.573 C 426.339 781.961 405.333 773.171 388.883 765.227 L 389.567 763.441 z" fill="rgb(0,1,0)" transform="translate(0,0)"></path>
<path d="M 468.205 956.718 C 475.809 957.156 518.655 959.888 523.671 961.784 L 528.608 964.894 C 525.297 966.646 524.84 967.828 521.03 967.299 C 505.758 965.18 490.25 962.146 474.994 960.115 L 468.933 959.308 L 468.205 956.718 z" fill="rgb(254,183,67)" transform="translate(0,0)"></path>
<path d="M 451.914 954.876 C 454.941 955.067 465.85 955.866 468.205 956.718 L 468.933 959.308 C 462.636 958.594 456.432 957.261 450.114 956.715 L 451.914 954.876 z" fill="rgb(189,136,58)" transform="translate(0,0)"></path>
<path d="M 435.776 953.046 C 440.064 953.402 448.061 953.931 451.914 954.876 L 450.114 956.715 C 445.976 956.021 440.167 955.086 436.035 954.761 L 435.776 953.046 z" fill="rgb(98,70,36)" transform="translate(0,0)"></path>
<path d="M 436.035 954.761 C 434.555 954.612 428.572 954.357 427.776 953.089 C 428.255 951.322 434.461 952.819 435.776 953.046 L 436.035 954.761 z" fill="rgb(26,19,11)" transform="translate(0,0)"></path>
<path d="M 523.671 961.784 C 526.277 961.814 528.883 961.824 531.488 961.813 L 531.946 962.853 L 528.608 964.894 L 523.671 961.784 z" fill="rgb(223,163,75)" transform="translate(0,0)"></path>
<path d="M 732.126 993.897 C 734.754 993.973 739.868 994.033 742.206 995.239 L 742.326 995.438 C 741.985 995.87 738.771 996.055 738.322 996.085 L 732.126 993.897 z" fill="rgb(98,70,36)" transform="translate(0,0)"></path>
<path d="M 727.513 994.014 C 729.078 994.007 730.563 993.951 732.126 993.897 L 738.322 996.085 C 736.398 996.011 734.474 995.958 732.55 995.924 C 730.875 995.275 729.196 994.639 727.513 994.014 z" fill="rgb(160,116,56)" transform="translate(0,0)"></path>
<path d="M 1674.46 600.945 C 1681.86 613.563 1690.21 625.96 1697.69 638.726 C 1710.23 660.573 1722.02 682.839 1733.05 705.486 C 1762.32 766.605 1782.02 831.862 1791.46 898.969 C 1793.06 911.11 1795.52 927.182 1794.92 939.161 C 1788.58 1064.7 1710.97 1191.4 1606.64 1257 C 1583.95 1249.27 1559.71 1237.44 1537.58 1227.93 C 1483.23 1203.95 1428.52 1180.92 1375.4 1154.28 C 1369.42 1151.61 1363.27 1149.1 1357.23 1146.6 C 1306.82 1125.69 1256.39 1104.83 1206.51 1082.68 C 1176.95 1069.56 1146.82 1057.15 1117.59 1043.34 L 1118.7 1041.2 C 1186.17 1065.2 1253.8 1095.27 1321.49 1119.3 C 1343.47 1127.11 1366.14 1136.97 1388.34 1143.81 C 1435.45 1132.01 1478.24 1117.3 1517.57 1087.31 C 1504.4 1086.39 1485 1083.36 1471.44 1081.62 C 1441.43 1077.99 1411.48 1073.89 1381.6 1069.33 C 1316.45 1059.6 1251.68 1051.21 1187.75 1034.97 C 1170.6 1030.62 1152.39 1025.97 1135.03 1022.87 L 1135.17 1021.13 C 1200.83 1008.82 1276.79 989.547 1342.36 974.571 L 1449.65 949.485 C 1472.4 944.171 1502.81 937.666 1525.03 930.996 C 1479.38 991.13 1388.17 1050.46 1311.29 1053 L 1312.99 1055.07 C 1318.06 1054.97 1324.98 1055.91 1330.18 1056.39 C 1396.11 1062.47 1461.85 1071.27 1527.55 1079.44 C 1563.46 1052.16 1601.8 1009.12 1626.02 971.276 C 1644.23 942.272 1658.79 911.132 1669.38 878.562 C 1701.69 781.049 1696.15 699.616 1674.46 600.945 z" fill="rgb(0,1,0)" transform="translate(0,0)"></path>
<path d="M 1312.99 1055.07 C 1311.42 1055.02 1304.92 1054.81 1303.96 1053.5 L 1304.2 1053.29 L 1304.47 1053.71 C 1306.1 1052.48 1308.92 1052.94 1311.29 1053 L 1312.99 1055.07 z" fill="rgb(133,103,74)" transform="translate(0,0)"></path>
<path d="M 1526.4 1080.45 C 1540.38 1083.96 1556.12 1086.37 1570.49 1088.27 C 1575.01 1089.04 1579.53 1089.74 1584.07 1090.35 L 1580.24 1092.62 C 1561.87 1090.05 1537.13 1088.5 1517.87 1086.63 L 1526.4 1080.45 z" fill="rgb(223,163,75)" transform="translate(0,0)"></path>
<path d="M 1584.07 1090.35 C 1596.53 1091.61 1608.82 1093.73 1621.34 1094.97 C 1618.47 1096.83 1584.88 1093.52 1580.24 1092.62 L 1584.07 1090.35 z" fill="rgb(133,103,74)" transform="translate(0,0)"></path>
<path d="M 1009.94 1107.37 L 1011.34 1109.34 L 945.377 1281 C 930.707 1318.96 914.479 1358.03 900.509 1396.07 C 910.96 1445.07 923.433 1477.32 956.459 1516.03 C 958.329 1496.98 961.439 1477.13 964.607 1458.23 C 973.91 1402.71 981.413 1346.43 991.759 1291.13 C 1002.01 1238.45 1013.84 1186.09 1027.24 1134.13 C 1029.47 1149.1 1034.16 1167.48 1037.53 1182.45 L 1054.32 1258.41 L 1113.97 1524.22 C 1065.71 1478.82 1021.99 1433.28 1001.42 1368.13 C 998.703 1359.52 991.418 1338.74 992.392 1330.1 L 989.712 1330.95 C 990.439 1346.4 985.615 1381.64 983.875 1397.73 C 979.118 1441.73 972.685 1485.56 968.494 1529.67 C 1052.83 1623.67 1160.56 1682.16 1287.94 1689.86 C 1335.81 1692.75 1401.85 1686.25 1448.28 1673.9 C 1439.63 1681.25 1412.19 1696.6 1401.66 1702.37 C 1326.71 1743.49 1246.01 1774.74 1161.08 1786.96 C 1144.79 1789.31 1127.52 1791.58 1111.16 1790.3 C 997.351 1782.39 891.565 1728.84 817.83 1641.78 C 812.013 1634.93 796.88 1615.74 792.437 1608.32 L 793.155 1607.02 C 794.023 1600.31 808.358 1570.99 811.787 1562.97 L 890.658 1382.76 C 930.825 1291.49 968.357 1197.92 1009.94 1107.37 z" fill="rgb(0,1,0)" transform="translate(0,0)"></path>
<path d="M 989.712 1330.95 C 989.712 1330.95 989.798 1325.21 991.413 1325.65 C 991.938 1325.8 991.914 1327.1 992.081 1327.45 C 992.032 1327.35 992.462 1330.7 992.392 1330.1 L 989.712 1330.95 z" fill="rgb(98,70,36)" transform="translate(0,0)"></path>
<path d="M 603.022 369.082 C 627.88 355.002 652.442 340.207 678.37 327.629 C 738.319 298.546 803.467 276.58 868.945 264.099 C 881.21 261.762 914.106 256.271 925.544 256.537 C 953.191 257.182 989.632 263.601 1016.35 270.955 C 1117.49 298.791 1197.07 354.962 1256.97 441.253 C 1264.75 423.935 1271.88 406.974 1279.99 389.742 L 1281.24 391.172 C 1273.67 408.07 1267.84 431.014 1260.86 445.431 C 1258.22 444.824 1259.38 445.117 1256.98 442.873 C 1254.15 445.961 1228.88 506.552 1225.89 513.471 L 1099.23 804.062 L 1060.02 893.638 C 1056.03 902.682 1041.4 934.599 1039.12 942.473 L 1036.91 941.961 C 1039.68 936.252 1044.31 922.887 1046.83 916.203 C 1053.84 897.143 1060.99 878.14 1068.3 859.196 L 1149.63 648.625 C 1144.42 602.546 1122.75 563.486 1091.93 529.719 C 1080.6 614.867 1067.06 699.707 1051.32 784.151 C 1046.49 808.779 1041.19 833.316 1035.45 857.748 C 1032.42 870.508 1026.07 893.735 1024.66 905.74 C 1023.92 906.161 1023.5 906.27 1023.06 906.876 C 1020.42 898.49 1015.43 873.828 1013.19 864.292 C 1005.07 830.081 997.208 795.806 989.621 761.472 C 971.848 682.422 952.464 603.815 936.113 524.338 C 988.148 567.492 1046.27 644.041 1057.32 711.641 C 1059.41 711.315 1058.94 709.198 1059.49 707.173 L 1059.98 705.43 C 1065.53 644.511 1073.19 579.086 1080.66 518.139 C 1053.39 483.644 1001.7 443.032 963.973 420.258 C 857.581 356.037 725.299 341.272 605.406 371.506 L 603.022 369.082 z" fill="rgb(0,1,0)" transform="translate(0,0)"></path>
<path d="M 1057.32 711.641 C 1059.41 711.315 1058.94 709.198 1059.49 707.173 L 1059.98 705.43 C 1059.93 707.247 1060.03 715.426 1058.09 716.385 C 1056.87 716.067 1057.29 712.597 1057.32 711.641 z" fill="rgb(160,116,56)" transform="translate(0,0)"></path>
<path d="M 975.697 1100.21 L 978.469 1101.08 C 961.208 1144.1 945.299 1192.46 929.007 1236.37 C 898.36 1318.34 866.87 1400 834.54 1481.32 C 824.498 1506.59 814.211 1531.77 803.68 1556.85 C 798.57 1569.27 792.836 1584.82 787.275 1596.76 C 753.658 1545.53 737.256 1499.09 724.88 1439.9 C 708.049 1460.49 689.211 1485.79 673.205 1507.38 L 671.247 1506.58 C 674.31 1501.46 678.107 1496.46 681.352 1491.42 C 721.607 1428.86 767.404 1371.22 812.265 1312.05 L 896.995 1201.43 C 921.519 1169.14 949.64 1131.16 975.697 1100.21 z" fill="rgb(0,1,0)" transform="translate(0,0)"></path>
<path d="M 1093.83 1069.75 C 1105.66 1072.81 1124.46 1080.16 1136.37 1084.43 L 1217.26 1113.83 C 1297.77 1143.58 1377.88 1174.38 1457.58 1206.22 C 1502.82 1224.42 1550.32 1244.79 1595.45 1262.28 C 1540.29 1294.06 1500.76 1310.53 1438.13 1322.75 C 1448.46 1331.63 1488.97 1361.84 1499.92 1368.61 L 1498.81 1371.53 C 1494.67 1367.92 1488.31 1363.7 1483.65 1360.73 C 1435.68 1330.16 1389.94 1297.87 1344.03 1264.24 C 1296.98 1229.36 1250.45 1193.79 1204.46 1157.53 C 1167.88 1128.47 1131.01 1097.84 1093.83 1069.75 z" fill="rgb(0,1,0)" transform="translate(0,0)"></path>
<path d="M 543.68 671.315 C 669.155 754.729 787.838 845.851 904.946 940.487 C 921.2 953.623 938.263 965.997 954.407 979.155 C 938.069 972.098 918.475 965.645 901.4 959.561 C 870.24 948.639 839.151 937.516 808.136 926.191 C 720.923 893.961 634.288 860.191 548.271 824.895 C 530.532 817.447 512.746 810.109 494.917 802.88 C 482.475 797.893 465.523 791.693 453.878 785.782 C 505.798 753.19 553.461 737.863 612.472 724.157 C 598.696 715.578 583.826 704.096 570.635 694.26 C 562.286 688.034 550.416 679.762 542.601 673.278 L 543.68 671.315 z" fill="rgb(0,1,0)" transform="translate(0,0)"></path>
<path d="M 1261.52 449.179 C 1295.83 512.138 1310.11 536.254 1324.68 608.804 C 1340.8 586.187 1357.24 563.79 1373.97 541.619 L 1375.28 543.313 C 1361.16 564.478 1346.94 585.626 1332.4 606.5 C 1290.9 666.064 1245.84 723.551 1201.55 781.052 L 1068.04 954.413 C 1085.37 905.609 1103.19 856.981 1121.5 808.537 C 1146.52 741.255 1172.07 674.171 1198.14 607.29 C 1218.89 554.801 1242.12 501.918 1261.52 449.179 z" fill="rgb(0,1,0)" transform="translate(0,0)"></path>
<path d="M 945.287 1108.17 C 945.072 1110.98 930.586 1128.87 927.422 1133.34 C 888.359 1189.62 848.431 1245.3 807.651 1300.35 C 789.765 1324.49 772.065 1348.77 754.554 1373.18 C 745.067 1386.29 733.736 1401.05 725.098 1414.5 C 718.046 1231.93 797.969 1184.94 945.287 1108.17 z" fill="rgb(0,1,0)" transform="translate(0,0)"></path>
<path d="M 1102.71 1103.85 C 1117.75 1113.89 1133.78 1125.71 1148.3 1136.55 C 1235.18 1201.37 1326.09 1261.17 1413.92 1324.49 C 1370 1326.78 1315.96 1322.02 1275.22 1306.19 C 1206.52 1279.51 1167.38 1219.84 1133.1 1158.44 C 1124.15 1142.39 1109.79 1120.01 1102.71 1103.85 z" fill="rgb(0,1,0)" transform="translate(0,0)"></path>
<path d="M 645.449 723.458 C 686.336 721.909 729.054 729.251 767.769 742.016 C 838.311 765.276 875.39 824.934 912.055 884.945 C 920.489 898.75 939.373 929.497 946.228 943.699 L 945.165 944.252 L 940.977 941.67 C 922.843 929.806 901.719 914.034 883.746 901.382 L 713.629 779.568 C 706.073 774.214 637.342 726.737 636.231 724.919 C 639.134 723.144 641.665 723.635 645.449 723.458 z" fill="rgb(0,1,0)" transform="translate(0,0)"></path>
<path d="M 1324.55 629.735 C 1324.94 630.116 1325.45 630.498 1325.48 631.082 C 1328.28 675.753 1321.01 726.174 1305.12 767.072 C 1280.03 831.647 1226.09 869.247 1169.07 902.893 C 1147.64 915.539 1128.2 927.673 1105.4 937.296 L 1104.64 936.53 C 1107.81 928.933 1137.62 891.553 1143.94 882.585 L 1241.21 746.946 C 1269.27 708.407 1298.24 669.533 1324.55 629.735 z" fill="rgb(0,1,0)" transform="translate(0,0)"></path>
<path d="M 792.437 1608.32 C 786.816 1613.07 771.217 1656.56 765.247 1664.93 C 764.749 1665.63 763.373 1669.65 762.389 1669.53 C 762.337 1669.41 762.284 1669.3 762.231 1669.18 C 770.937 1647.68 779.046 1625.39 788.601 1604.32 C 788.774 1603.94 790.449 1604.89 790.571 1605.1 C 790.755 1605.41 792.748 1606.74 793.155 1607.02 L 792.437 1608.32 z" fill="rgb(26,19,11)" transform="translate(0,0)"></path>
<path d="M 1658.73 1284.28 C 1652.62 1280.66 1601.15 1261.69 1600.78 1260.4 C 1600.68 1260.08 1600.71 1259.7 1600.89 1259.4 C 1601.25 1258.79 1602.01 1258.45 1602.62 1258.19 C 1607.02 1256.34 1650.93 1279.71 1658.8 1282.44 C 1659.37 1282.64 1659.95 1282.8 1660.52 1282.98 L 1658.73 1284.28 z" fill="rgb(26,19,11)" transform="translate(0,0)"></path>
<path d="M 1513.01 1378.46 C 1517.67 1380.81 1520.64 1384.36 1525.06 1386.85 C 1525.61 1387.16 1529.14 1389.22 1526.82 1389.77 C 1526.11 1389.94 1520.76 1386.62 1520.15 1386.14 C 1517.37 1384.02 1514.44 1382.28 1511.74 1380.08 L 1513.01 1378.46 z" fill="rgb(189,136,58)" transform="translate(0,0)"></path>
<path d="M 1094.86 1031.77 C 1098.41 1033.17 1101.93 1034.65 1105.42 1036.2 C 1108.25 1037.44 1111.5 1038.74 1114.44 1039.65 L 1114.02 1041.94 C 1107.42 1039.53 1101.43 1035.72 1094.83 1033.32 L 1094.86 1031.77 z" fill="rgb(98,70,36)" transform="translate(0,0)"></path>
<path d="M 1142.21 1613.3 C 1143.31 1618.11 1144.7 1628 1145.02 1633.02 L 1144.28 1633.03 C 1142.48 1628.38 1141.15 1619.82 1140.3 1614.78 L 1142.21 1613.3 z" fill="rgb(98,70,36)" transform="translate(0,0)"></path>
<path d="M 906.108 417.972 C 907.448 423.57 908.647 429.552 909.69 435.213 L 907.838 436.777 C 906.641 431.883 905.271 423.311 904.804 418.273 L 906.108 417.972 z" fill="rgb(75,52,23)" transform="translate(0,0)"></path>
<path d="M 428.15 1148.56 C 421.256 1149.8 414.419 1150.84 407.567 1152.41 C 406.859 1150.21 422.423 1147.52 424.731 1147.33 L 428.15 1148.56 z" fill="rgb(189,136,58)" transform="translate(0,0)"></path>
<path d="M 1036.91 941.961 L 1039.12 942.473 C 1038.1 944.915 1034.32 955.289 1032.96 956.922 L 1032.42 956.926 C 1031.75 955.223 1035.97 944.101 1036.91 941.961 z" fill="rgb(160,116,56)" transform="translate(0,0)"></path>
<path d="M 952.349 1074.09 C 955.712 1072.57 965.16 1067.77 968.261 1067.43 C 968.338 1067.51 968.415 1067.59 968.492 1067.66 L 968.473 1067.75 L 968.304 1067.76 C 966.818 1069.4 956.603 1074.62 953.981 1075.84 L 952.349 1074.09 z" fill="rgb(75,52,23)" transform="translate(0,0)"></path>
<path d="M 662.616 1519.3 C 664.475 1516.62 669.633 1508.11 671.247 1506.58 L 673.205 1507.38 C 670.332 1511.73 666.858 1515.64 664.089 1520.06 L 662.616 1519.3 z" fill="rgb(26,19,11)" transform="translate(0,0)"></path>
<path d="M 1016.13 1092.72 L 1017.31 1094.22 C 1014.94 1098.69 1013.37 1104.52 1011.34 1109.34 L 1009.94 1107.37 C 1011.93 1102.46 1014.34 1097.61 1016.13 1092.72 z" fill="rgb(75,52,23)" transform="translate(0,0)"></path>
<path d="M 938.166 1006.99 C 943.219 1008.44 947.494 1011.22 952.695 1013.02 L 950.846 1014.34 C 947.526 1012.52 941.705 1010.57 937.984 1009.18 L 938.166 1006.99 z" fill="rgb(98,70,36)" transform="translate(0,0)"></path>
<path d="M 978.266 943.78 C 980.672 947.896 982.527 952.28 984.536 956.595 L 982.86 957.188 C 981.173 953.148 978.941 949.99 977.132 945.834 L 978.266 943.78 z" fill="rgb(75,52,23)" transform="translate(0,0)"></path>
<path d="M 538.833 670.537 C 538.582 670.344 525.368 660.621 529.064 661.041 C 530.397 661.192 536.955 666.216 538.232 667.379 L 538.833 670.537 z" fill="rgb(131,91,37)" transform="translate(0,0)"></path>
<path d="M 1140.55 1603.28 C 1141.26 1605.71 1141.86 1610.64 1142.21 1613.3 L 1140.3 1614.78 C 1139.62 1611.78 1139.02 1608.79 1138.52 1605.76 C 1139.45 1604.72 1139.84 1604.36 1140.55 1603.28 z" fill="rgb(26,19,11)" transform="translate(0,0)"></path>
<path d="M 1636.82 895.711 L 1637.17 896.914 C 1632.93 898.186 1628.48 899.444 1624.21 900.676 L 1623.43 898.445 C 1627.59 897.35 1632.56 896.464 1636.82 895.711 z" fill="rgb(131,91,37)" transform="translate(0,0)"></path>
<path d="M 377.476 757.662 C 381.238 759.575 386.324 761.597 389.567 763.441 L 388.883 765.227 C 384.039 762.78 381.398 761.513 376.586 758.576 L 377.476 757.662 z" fill="rgb(75,52,23)" transform="translate(0,0)"></path>
<path d="M 1387.44 522.284 C 1384.64 529.022 1383.5 529.992 1380.08 535.989 L 1377.75 536.007 C 1380.15 531.229 1384.17 526.525 1387.44 522.284 z" fill="rgb(160,116,56)" transform="translate(0,0)"></path>
<path d="M 424.731 1147.33 C 428.509 1146.38 432.721 1145.17 436.551 1144.54 L 438.407 1146.52 L 437.513 1146.68 C 433.316 1147.44 432.553 1147.36 428.15 1148.56 L 424.731 1147.33 z" fill="rgb(75,52,23)" transform="translate(0,0)"></path>
<path d="M 1499.92 1368.61 L 1500.43 1369.43 C 1502.63 1370.99 1504.83 1372.42 1507.02 1374 L 1504.85 1375.23 C 1503.27 1374.13 1502.49 1373.63 1500.81 1372.67 L 1498.81 1371.53 L 1499.92 1368.61 z" fill="rgb(26,19,11)" transform="translate(0,0)"></path>
<path d="M 1499.92 1368.61 L 1500.43 1369.43 L 1500.81 1372.67 L 1498.81 1371.53 L 1499.92 1368.61 z" fill="rgb(75,52,23)" transform="translate(0,0)"></path>
<path d="M 1507.02 1374 C 1509.04 1375.44 1511.15 1376.81 1513.01 1378.46 L 1511.74 1380.08 C 1509.31 1378.12 1507.25 1377.07 1504.85 1375.23 L 1507.02 1374 z" fill="rgb(98,70,36)" transform="translate(0,0)"></path>
<path d="M 1284.2 380.407 L 1285.31 382.143 C 1283.76 385.068 1282.64 388.136 1281.24 391.172 L 1279.99 389.742 C 1281.36 386.548 1282.91 383.537 1284.2 380.407 z" fill="rgb(98,70,36)" transform="translate(0,0)"></path>
<path d="M 1660.52 1282.98 C 1663.43 1283.76 1665 1284.73 1667.72 1285.99 L 1665.93 1287.42 C 1665.47 1287.19 1665.01 1286.96 1664.54 1286.73 C 1662.62 1285.88 1660.69 1285.06 1658.73 1284.28 L 1660.52 1282.98 z" fill="rgb(160,116,56)" transform="translate(0,0)"></path>
<path d="M 1284.2 380.407 C 1284.89 378.384 1286.9 373.988 1288.32 372.397 C 1290.09 372.458 1285.65 381.274 1285.31 382.143 L 1284.2 380.407 z" fill="rgb(189,136,58)" transform="translate(0,0)"></path>
<path d="M 1377.75 536.007 L 1380.08 535.989 C 1378.29 538.411 1376.88 540.772 1375.28 543.313 L 1373.97 541.619 C 1375.24 539.54 1376.43 538.02 1377.75 536.007 z" fill="rgb(26,19,11)" transform="translate(0,0)"></path>
<path d="M 1094.83 1033.32 C 1093.87 1032.99 1087.39 1030.88 1087.7 1029.53 C 1089.01 1028.18 1093.61 1031.02 1094.86 1031.77 L 1094.83 1033.32 z" fill="rgb(189,136,58)" transform="translate(0,0)"></path>
<path d="M 1667.72 1285.99 C 1669.75 1286.44 1670.43 1287.1 1672.43 1287.88 L 1672.57 1289.25 L 1673.58 1288.95 L 1673.19 1289.21 L 1673.61 1289.13 L 1673.73 1289.18 C 1673.46 1291.15 1667.06 1287.82 1665.93 1287.42 L 1667.72 1285.99 z" fill="rgb(189,136,58)" transform="translate(0,0)"></path>
<path d="M 904.804 418.273 C 904.288 416.741 902.983 412.141 903.806 410.701 C 905.527 409.749 906.037 417.201 906.108 417.972 L 904.804 418.273 z" fill="rgb(189,136,58)" transform="translate(0,0)"></path>
<path d="M 1636.82 895.711 C 1638.2 894.927 1643.13 893.45 1644.04 894.625 C 1643.45 896.54 1638.82 896.717 1637.17 896.914 L 1636.82 895.711 z" fill="rgb(223,163,75)" transform="translate(0,0)"></path>
<path d="M 1016.13 1092.72 C 1016.68 1090.86 1017.93 1086.72 1019.57 1085.68 C 1019.62 1085.73 1019.68 1085.78 1019.73 1085.84 C 1019.97 1088.43 1018.15 1091.82 1017.31 1094.22 L 1016.13 1092.72 z" fill="rgb(189,136,58)" transform="translate(0,0)"></path>
<path d="M 1079.46 980.478 C 1074.09 984.113 1071.35 981.61 1078.68 978.6 L 1079.46 980.478 z" fill="rgb(160,116,56)" transform="translate(0,0)"></path>
<path d="M 975.697 1100.21 C 976.535 1099.04 978.145 1096.29 979.41 1095.69 C 980.481 1096.14 978.712 1100.27 978.469 1101.08 L 975.697 1100.21 z" fill="rgb(26,19,11)" transform="translate(0,0)"></path>
<path d="M 605.406 371.506 C 604.517 371.673 598.862 373.423 598.584 372.282 C 598.893 371.246 602.155 369.638 603.022 369.082 L 605.406 371.506 z" fill="rgb(26,19,11)" transform="translate(0,0)"></path>
<path d="M 538.232 667.379 C 540.037 668.651 542.084 669.878 543.68 671.315 L 542.601 673.278 C 541.36 672.343 540.104 671.429 538.833 670.537 L 538.232 667.379 z" fill="rgb(26,19,11)" transform="translate(0,0)"></path>
<path d="M 935.001 1042.4 C 936.276 1042.04 940.089 1040.56 941.15 1041.5 C 940.671 1042.51 937.4 1043.85 936.443 1044.36 L 935.001 1042.4 z" fill="rgb(26,19,11)" transform="translate(0,0)"></path>
<path d="M 952.695 1013.02 C 958.343 1014.54 959.404 1017.33 950.846 1014.34 L 952.695 1013.02 z" fill="rgb(189,136,58)" transform="translate(0,0)"></path>
<path d="M 984.536 956.595 C 985.114 957.662 987.433 961.304 986.456 962.569 C 985.434 962.579 983.267 957.981 982.86 957.188 L 984.536 956.595 z" fill="rgb(160,116,56)" transform="translate(0,0)"></path>
<path d="M 1623.43 898.445 L 1624.21 900.676 C 1622 900.967 1620.41 901.243 1618.25 901.688 L 1618.74 899.5 C 1620.3 899.131 1621.86 898.779 1623.43 898.445 z" fill="rgb(75,52,23)" transform="translate(0,0)"></path>
<path d="M 1114.44 1039.65 C 1115.98 1040.25 1117.15 1040.69 1118.7 1041.2 L 1117.59 1043.34 C 1116.35 1042.87 1115.24 1042.46 1114.02 1041.94 L 1114.44 1039.65 z" fill="rgb(26,19,11)" transform="translate(0,0)"></path>
<path d="M 1023.06 906.876 C 1023.5 906.27 1023.92 906.161 1024.66 905.74 C 1024.67 905.962 1025.05 912.527 1023.29 908.99 C 1023.34 909.087 1023.05 906.829 1023.06 906.876 z" fill="rgb(131,91,37)" transform="translate(0,0)"></path>
<path d="M 662.616 1519.3 L 664.089 1520.06 C 663.657 1520.73 662.454 1523.17 661.476 1523.21 C 660.463 1522.51 662.241 1519.95 662.616 1519.3 z" fill="rgb(131,91,37)" transform="translate(0,0)"></path>
<path d="M 1135.03 1022.87 C 1134.33 1022.87 1131.98 1023.11 1131.45 1022.51 L 1131.48 1022.36 C 1132.38 1021.63 1134.07 1021.36 1135.17 1021.13 L 1135.03 1022.87 z" fill="rgb(131,91,37)" transform="translate(0,0)"></path>
<path d="M 1144.28 1633.03 L 1145.02 1633.02 C 1145.24 1633.64 1146.16 1635.18 1145.32 1635.76 C 1144.14 1635.44 1144.34 1634.07 1144.28 1633.03 z" fill="rgb(189,136,58)" transform="translate(0,0)"></path>
<path d="M 376.586 758.576 C 376.036 758.301 375.046 758.073 374.92 757.321 C 375.357 756.143 376.97 757.36 377.476 757.662 L 376.586 758.576 z" fill="rgb(189,136,58)" transform="translate(0,0)"></path>
<metadata><recraft-signature>{"signed_by": "recraft", "signature_b64": "L3lLq5GofDuVoeK38jWFR1wpcwcW9h8Vtza7XJEXwbU9JI4t0IOJ8jiVG6tyJqZODeFPTNBu9Dm+SFSX0O4bAA==", "signing_algo": "Ed25519", "generation_timestamp": 1772775252, "identifier": "c64d7adb-8cc9-44dd-bc65-6ec10fd94cbb"}</recraft-signature></metadata></svg>