<svg xmlns="http://www.w3.org/2000/svg" height="1024" preserveAspectRatio="none" style="display: block;" version="1.1" viewBox="0 0 2048 2048" width="1024">
<path d="M 0 0 L 2048 0 L 2048 2048 L 0 2048 L 0 0 z" fill="rgb(255,255,255)" transform="translate(0,0)"></path>
<path d="M 335.355 1364.22 C 181.126 1050.1 258.427 671.456 523.441 442.927 C 788.455 214.397 1174.34 193.613 1462.37 392.355 C 1750.4 591.097 1867.92 959.242 1748.33 1288.11 C 1628.73 1616.98 1302.18 1823.63 953.767 1790.93 C 701.069 1767.21 476.351 1620.32 353.211 1398.39 C 346.974 1387.15 341.02 1375.75 335.355 1364.22 z" fill="rgb(82,20,236)" transform="translate(0,0)"></path>
<path d="M 572.635 409.537 C 583.081 401.816 609.49 387.221 621.553 380.473 C 740.015 313.886 877.084 288.096 1011.65 307.075 C 1150.2 327.564 1275.12 401.784 1359.38 513.675 C 1397.55 565.364 1437.82 644.76 1448.39 708.433 C 1582.88 720.562 1696.75 842.174 1683.93 979.534 C 1677.27 1048.46 1643.35 1111.86 1589.71 1155.64 C 1558.11 1181.57 1523.68 1197.69 1484.58 1208.79 C 1527.9 1167.94 1557.18 1110.83 1559 1050.78 C 1561.16 993.002 1539.75 936.824 1499.68 895.138 C 1416.15 807.025 1272.24 809.308 1187.48 892.943 C 1144.72 935.13 1121.71 985.896 1118.09 1045.6 C 1050.6 1027.91 988.381 1033.63 927.402 1069.41 C 909.705 1079.65 893.596 1092.41 879.583 1107.3 C 873.229 1114.08 865.59 1123.59 859.314 1129.73 C 838.945 1131.5 817.198 1133.98 797.414 1139.27 C 744.696 1153.36 695.006 1186.77 660.176 1228.61 C 610.992 1287.7 590.242 1367.02 597.853 1442.94 C 606.849 1539.52 658.154 1624.44 732.045 1685.5 C 771.983 1718.16 816.91 1744.18 865.108 1762.58 C 874.239 1766.13 886.116 1770.26 894.836 1773.25 C 904.269 1776.49 948.594 1786.7 953.767 1790.93 C 701.069 1767.21 476.351 1620.32 353.211 1398.39 C 354.324 1391.26 343.583 1368.82 340.182 1360.92 C 301.96 1245.7 306.611 1140.34 361.417 1030.94 C 412.34 930.428 500.994 854.178 607.988 818.864 C 609.921 818.234 611.878 817.679 613.853 817.2 C 605.108 640.702 751.35 480.359 927.233 475.359 C 1017.93 472.78 1084.59 497.374 1153.85 555.177 C 1158.21 553.804 1162.64 552.455 1166.98 551.024 C 1110.16 455.675 1010.38 390.427 904.03 364.042 C 799.844 338.194 698.021 353.881 600.823 396.507 C 591.594 400.554 581.993 406.053 572.635 409.537 z" fill="rgb(25,0,118)" transform="translate(0,0)"></path>
<path d="M 968.951 574.433 C 1031.71 572.667 1079.19 589.794 1130.33 624.056 C 1141.27 621.573 1151.57 618.3 1163 615.934 C 1187.71 610.97 1212.96 609.237 1238.12 610.78 C 1311.13 614.674 1386.63 653.347 1435.33 707.38 C 1285.91 689.639 1128.54 786.235 1094.22 936.683 C 1067.84 924.846 1041.94 918.005 1012.61 917.898 C 960.989 917.71 905.354 940.145 863.87 970.482 C 850.355 980.365 837.988 992.789 826.187 1004.54 C 798.209 994.827 777.825 991.928 748.21 990.999 C 710.19 990.594 672.432 997.315 636.887 1010.81 C 568.33 1037.2 509.731 1083.15 473.378 1147.36 C 463.074 1165.56 454.791 1183.55 446.305 1202.6 C 444.348 1125.78 464.817 1052.81 510.972 990.779 C 561.11 924.108 635.745 880.16 718.367 868.655 C 717.583 861.929 717.043 855.177 716.747 848.413 C 713.164 777.899 737.97 708.887 785.624 656.789 C 833.465 604.709 898.859 577.242 968.951 574.433 z" fill="rgb(82,20,236)" transform="translate(0,0)"></path>
<path d="M 1080.61 1360.95 C 1085.24 1340.84 1091.23 1323.57 1100.5 1305.01 C 1145.81 1214.35 1263.73 1160.09 1358.6 1209.82 C 1394.19 1228.55 1420.92 1260.62 1432.95 1299 C 1445.8 1341.2 1441.46 1386.76 1420.86 1425.77 C 1398.88 1466.21 1363.52 1497.76 1320.85 1515.01 C 1310.09 1519.48 1296.94 1523.27 1285.69 1526.74 L 1283.06 1525.08 C 1317.31 1513.06 1340.97 1492.62 1356.84 1459.64 C 1371.76 1428.35 1373.45 1392.36 1361.53 1359.81 C 1349.83 1328.15 1326.14 1302.36 1295.58 1288.03 C 1265.8 1274.18 1231.68 1272.98 1201 1284.7 C 1168.42 1296.8 1142.1 1321.53 1127.99 1353.29 C 1099.54 1416.79 1130.64 1494.02 1194.45 1521.11 C 1198.96 1523 1203.55 1524.68 1208.21 1526.14 L 1219.37 1529.04 L 1218.83 1530.2 C 1215.65 1529.97 1211.26 1529.21 1208 1528.75 C 1169.93 1523.25 1154.22 1518.04 1119.36 1501.54 C 1090.23 1487.79 1059.24 1477.11 1029.68 1464.93 C 938.772 1427.45 847.929 1455.29 763.081 1496.7 C 791.987 1455.82 819.532 1425.18 862.005 1398.02 C 928.961 1355.2 1004.14 1344.8 1080.61 1360.95 z" fill="rgb(25,0,118)" transform="translate(0,0)"></path>
<path d="M 1267.01 1528.44 C 1271.81 1527.49 1278.68 1525.72 1283.06 1525.08 L 1285.69 1526.74 C 1278.59 1527.91 1274.29 1528.71 1267.01 1528.44 z" fill="rgb(50,14,181)" transform="translate(0,0)"></path>
<path d="M 1219.37 1529.04 C 1232.28 1528.41 1227.37 1532.61 1218.83 1530.2 L 1219.37 1529.04 z" fill="rgb(50,14,181)" transform="translate(0,0)"></path>
<metadata><recraft-signature>{"signed_by": "recraft", "signature_b64": "MiVZIVDG2X0qkSsxgTmb932AyRfV1GXwIt2AY5ZYhhhs3jhk98Lrek2Gpue0d90V5YVu9czaGgheYvFjEBGKDw==", "signing_algo": "Ed25519", "generation_timestamp": 1772775210, "identifier": "c86d7158-4bbf-429b-814c-2623c1e83cfc"}</recraft-signature></metadata></svg>