<svg xmlns="http://www.w3.org/2000/svg" height="1024" preserveAspectRatio="none" style="display: block;" version="1.1" viewBox="0 0 2048 2048" width="1024">
<defs>
	<linearGradient gradientUnits="userSpaceOnUse" id="Gradient1" x1="607.404" x2="1376.52" y1="1252.66" y2="699.805">
		<stop class="stop0" offset="0" stop-color="rgb(255,255,255)" stop-opacity="0"></stop>
		<stop class="stop1" offset="1" stop-color="rgb(255,255,255)" stop-opacity="0.0862745"></stop>
	</linearGradient>
	<linearGradient gradientUnits="userSpaceOnUse" id="Gradient2" x1="1118.8" x2="1174.85" y1="1296.83" y2="731.778">
		<stop class="stop0" offset="0" stop-color="rgb(255,255,255)" stop-opacity="0"></stop>
		<stop class="stop1" offset="1" stop-color="rgb(255,255,254)" stop-opacity="0.262745"></stop>
	</linearGradient>
</defs>
<path d="M 984.472 249.614 C 1413 226.893 1778.78 555.911 1801.41 984.441 C 1824.04 1412.97 1494.95 1778.69 1066.41 1801.23 C 638.005 1823.76 272.424 1494.78 249.8 1066.38 C 227.176 637.98 556.075 272.329 984.472 249.614 z M 1182.99 733.437 C 1176.66 730.345 1176.63 730.651 1169.62 730.996 L 1167.9 731.19 C 1163.33 731.462 1160.72 731.521 1156.22 732.533 C 1150.95 733.181 1147.26 734.184 1142.18 735.399 C 1123.84 740.016 1101.33 746.947 1084.97 756.397 C 1038.59 778.89 997.936 823.78 972.995 868.248 C 934.118 937.561 925.551 1027.04 947.267 1103.33 C 967.564 1174.65 1019.52 1238.33 1084.72 1274.63 C 1113.18 1290.48 1171.47 1308.97 1206.38 1302.55 C 1214.58 1298.71 1224.8 1288.8 1231.37 1283.42 C 1341.54 1193.14 1389.37 1037.64 1338.16 902.827 C 1311.91 833.707 1251.99 764.341 1182.99 733.437 z M 1006.39 668.56 C 927.739 670.077 836.614 715.878 784.157 773.143 C 779.189 778.567 774.2 783.882 769.316 789.4 C 769.129 774.542 768.834 765.735 763.384 751.806 C 748.664 714.187 712.761 694.573 673.272 695.127 C 670.408 695.175 667.547 695.322 664.693 695.567 C 653.573 704.847 644.272 716.88 634.939 727.997 C 594.263 776.451 569.115 833.416 551.119 893.477 C 538.201 936.587 535.709 968.666 567.163 1005.43 C 584.703 1026.3 609.878 1039.28 637.058 1041.45 C 650.241 1042.43 662.774 1040.37 675.853 1038.73 C 678.718 1060.11 678.318 1076.73 683.514 1099.04 C 702.421 1180.21 741.363 1239.44 801.928 1294.87 C 793.219 1294 784.998 1293.5 776.248 1294.47 C 728.742 1299.74 692.266 1350.73 708.477 1397.21 C 764.492 1446.04 828.24 1483.81 901.722 1499 C 918.224 1502.41 933.241 1506.16 950.279 1505.1 C 995.779 1502.26 1037.31 1465.67 1046.76 1421.18 C 1051.9 1394.94 1064.9 1387.82 1083.28 1369.68 C 1090.02 1363.03 1108.82 1360.13 1117.5 1356.11 C 1132.04 1351.29 1175.36 1330.61 1183.11 1318.54 L 1182.04 1318.95 C 1162.2 1326.84 1151.85 1333.96 1128.45 1341.38 C 1051.39 1365.52 968.28 1361.75 893.724 1330.71 C 810.79 1294.99 745.333 1227.93 711.612 1144.16 C 679.92 1065.13 681.929 968.216 716.155 890.567 C 754.569 803.419 822.886 740.94 910.842 706.113 C 995.733 673.106 1090.16 674.574 1173.98 710.204 C 1190.28 717.484 1206.14 725.716 1221.48 734.856 C 1250.12 752.201 1260.16 768.43 1297.33 753.934 C 1317.17 746.093 1333.05 730.65 1341.44 711.04 C 1350.5 690.338 1350.83 670.408 1343.59 649.186 C 1278.92 592.433 1211.93 555.56 1126.24 540.665 C 1116.29 538.935 1109.16 537.742 1099.08 540.028 C 1055.21 547.304 1023.25 571.054 1008.5 613.768 C 1001.78 637.633 1001.66 644.344 1006.39 668.56 z M 1429.35 1517.86 L 1431.58 1519.78 C 1460.09 1505.37 1501.87 1459.78 1522.41 1434.71 C 1597.41 1344.89 1647.11 1236.72 1666.41 1121.31 C 1696.57 1118.19 1719.71 1110.03 1741.87 1088.5 C 1767.75 1063.35 1780.29 1028.32 1779.93 992.582 C 1779.6 958.798 1775.13 925.302 1769.17 892.069 C 1743.02 743.896 1673.05 606.965 1568.3 498.955 C 1452.03 379.036 1299.56 300.681 1134.37 275.964 C 1107.96 272.184 1082.52 269.508 1055.82 268.869 C 987.06 267.224 932.377 318.543 932.715 387.959 C 1061.74 374.297 1168.91 384.131 1288.07 436.835 C 1336.43 457.952 1381.96 485.051 1423.57 517.5 C 1468.34 552.663 1508.3 593.549 1542.42 639.11 C 1594.06 707.276 1630.91 775.886 1649.41 860.08 C 1657.5 896.862 1666.82 938.185 1666.34 976.052 C 1664.37 1129.13 1617.74 1279.57 1526.85 1403.38 C 1497.86 1442.88 1459.97 1478.84 1429.35 1517.86 z M 646.693 1402.93 C 662.089 1393.35 668.065 1387.53 679.583 1373.1 C 658.979 1351.31 635.527 1327.52 618.007 1303.3 C 561.838 1225.63 534.281 1135.16 530.869 1040.13 C 492.451 1040.34 468.294 1036.18 438.126 1008.12 C 418.972 990.31 402.54 956.719 403.435 930.376 C 403.951 915.169 412.224 889.746 416.259 873.164 C 437.017 787.842 473.916 713.341 526.591 643.442 C 538.11 628.156 620.586 533.583 621.292 529.081 L 619.985 528.778 C 591.515 547.155 565.502 574.121 543.531 598.369 C 465.014 685.026 408.709 795.273 394.501 911.973 C 392.109 931.621 386.29 951.507 384.406 972.272 C 376.016 1064.71 392.95 1159.68 425.833 1246.1 C 439.882 1283.18 455.98 1317.91 476.129 1352.07 C 491.684 1377.32 534.745 1410.92 564.451 1416.02 C 595.774 1421.39 619.126 1418.23 646.693 1402.93 z M 1379.83 1353.53 C 1393.24 1352.48 1400.06 1341.94 1408.36 1332.31 C 1451.05 1282.81 1479.85 1221.66 1497.34 1159.02 C 1509.6 1115.1 1513.92 1068.26 1475.81 1035.49 C 1459.34 1021.18 1437.92 1013.92 1416.15 1015.27 C 1415.78 1015.3 1415.4 1015.34 1415.02 1015.37 C 1399.12 1017.08 1392.35 1019.65 1377.43 1025.93 C 1372.94 1102.71 1350.13 1173.92 1303.43 1235.04 C 1299.06 1240.76 1292.37 1248.09 1290 1255.23 C 1280.21 1307.62 1318.53 1350.63 1369.58 1353.25 C 1372.99 1353.45 1376.41 1353.54 1379.83 1353.53 z M 1014.17 1516.16 C 1009.71 1546.41 1017.49 1577.19 1035.79 1601.68 C 1058 1631.33 1084.25 1640.66 1118.89 1647.34 C 1075.57 1650.96 1037.23 1653.94 993.84 1651.92 C 943.471 1649.23 893.629 1640.31 845.454 1625.36 C 806.315 1613.25 773.636 1601.2 737.601 1581.8 C 665.914 1543.2 598.917 1489.53 539.712 1433.84 L 520.945 1416.63 C 526.439 1427.8 542.085 1446.92 550.618 1457.02 C 618.25 1537.08 719.578 1600.34 817.838 1634.94 C 847.307 1645.31 900.934 1658.81 931.843 1662.86 C 1060.1 1679.65 1192.29 1656.19 1307.84 1598.47 C 1351.27 1576.78 1391.49 1553.67 1408.05 1504.96 C 1417.38 1476.87 1415.26 1446.24 1402.16 1419.7 C 1393.17 1401.88 1380.03 1388.96 1362.98 1378.85 C 1245.09 1478.34 1168.51 1509.92 1014.17 1516.16 z M 1564.55 1036.22 C 1595.28 1024.43 1616.75 1006.89 1630.48 976.26 C 1637.1 961.218 1640.47 944.946 1640.36 928.512 C 1640.29 892.161 1620.14 823.839 1606.84 789.263 C 1590.19 745.984 1559.8 694.479 1529.78 659.311 C 1509.83 635.946 1470.37 626.797 1440.58 629.287 C 1408.55 634.464 1390.77 645.322 1369.49 669.564 C 1388.95 689.964 1408.34 711.163 1425.06 733.889 C 1476.1 804.21 1507.52 886.844 1516.09 973.315 C 1518.91 1000.77 1517.71 1015.28 1518.7 1040.79 C 1535.72 1042.67 1548.17 1041.16 1564.55 1036.22 z M 1513.45 1095.16 C 1515.49 1088.82 1518.91 1061.84 1519.51 1054.18 C 1519.14 1053.98 1518.31 1054.25 1517.98 1054.31 C 1516.79 1058.38 1511.75 1092.99 1513.45 1095.16 z M 1087.51 534.487 C 1092.15 535.086 1095.25 535.624 1099.85 536.49 C 1100.51 536.581 1108.36 537.94 1108.49 536.591 C 1108.1 536.212 1108.42 536.456 1107.21 535.854 L 1107.28 535.914 C 1104.6 535.114 1103.38 534.881 1100.68 534.412 C 1096.9 533.672 1092.54 532.938 1088.75 532.444 L 1087.51 534.487 z M 909.297 394.339 C 842.983 404.053 770.507 430.726 713.529 465.565 C 690.929 479.384 675.11 487.73 658.821 509.42 C 640.177 533.803 632.132 564.665 636.5 595.047 C 641.18 626.33 658.951 651.943 685.788 668.459 C 700.133 656.277 713.362 643.592 728.046 631.735 C 820.363 560.654 918.438 527.929 1034.88 526.832 C 1037.15 491.052 1030.33 461.884 1006.38 434.235 C 981.199 405.166 949.657 396.307 912.472 393.941 C 911.789 393.897 910.064 394.213 909.297 394.339 z" fill="rgb(41,44,221)" transform="translate(0,0)"></path>
<path d="M 1156.22 732.533 C 1160.72 731.521 1163.33 731.462 1167.9 731.19 C 1167.06 733.96 1170.27 732.224 1171.89 735.267 C 1174.63 740.4 1169.45 744.823 1169.37 745.283 C 1170.78 747.091 1170.4 745.627 1171.67 748.163 C 1178.54 753.397 1177.5 742.665 1178.78 738.347 C 1181.58 737.033 1182.25 737.891 1182.72 734.627 L 1182.99 733.437 C 1251.99 764.341 1311.91 833.707 1338.16 902.827 C 1389.37 1037.64 1341.54 1193.14 1231.37 1283.42 C 1224.8 1288.8 1214.58 1298.71 1206.38 1302.55 C 1171.47 1308.97 1113.18 1290.48 1084.72 1274.63 C 1019.52 1238.33 967.564 1174.65 947.267 1103.33 C 925.551 1027.04 934.118 937.561 972.995 868.248 C 997.936 823.78 1038.59 778.89 1084.97 756.397 C 1091.3 758.306 1109.33 744.124 1119.74 744.548 C 1116.7 749.445 1115.27 747.536 1110.79 749.603 C 1101.78 753.757 1092.56 759.063 1084.77 765.233 C 1069.98 776.954 1052.57 786.565 1041.14 801.857 C 1039.51 804.038 1039.6 814.536 1039.72 817.302 C 1053.73 794.929 1100.57 760.443 1125.42 752.285 C 1128.3 748.423 1129.71 745.796 1134.08 743.491 L 1134.06 743.484 L 1135.55 741.972 C 1132.44 741.137 1130.98 743.181 1127.45 742.217 C 1129.84 740.244 1138.87 738.064 1142.78 736.712 C 1144.66 737.947 1148.69 740.15 1151.02 740.301 C 1151.6 740.337 1152.17 740.086 1152.54 739.627 C 1153.58 738.306 1153.22 736.492 1151.58 735.718 C 1151.63 735.656 1151.69 735.594 1151.74 735.533 L 1151.6 735.739 C 1153.01 735.201 1156.71 734.79 1157.26 733.534 C 1157.11 732.972 1156.86 732.987 1156.22 732.533 z" fill="url(#Gradient2)" transform="translate(0,0)"></path>
<path d="M 1008.5 613.768 C 1023.25 571.054 1055.21 547.304 1099.08 540.028 C 1109.16 537.742 1116.29 538.935 1126.24 540.665 C 1211.93 555.56 1278.92 592.433 1343.59 649.186 C 1350.83 670.408 1350.5 690.338 1341.44 711.04 C 1333.05 730.65 1317.17 746.093 1297.33 753.934 C 1260.16 768.43 1250.12 752.201 1221.48 734.856 C 1206.14 725.716 1190.28 717.484 1173.98 710.204 C 1090.16 674.574 995.733 673.106 910.842 706.113 C 822.886 740.94 754.569 803.419 716.155 890.567 C 681.929 968.216 679.92 1065.13 711.612 1144.16 C 745.333 1227.93 810.79 1294.99 893.724 1330.71 C 968.28 1361.75 1051.39 1365.52 1128.45 1341.38 C 1151.85 1333.96 1162.2 1326.84 1182.04 1318.95 L 1183.11 1318.54 C 1175.36 1330.61 1132.04 1351.29 1117.5 1356.11 C 1108.82 1360.13 1090.02 1363.03 1083.28 1369.68 C 1064.9 1387.82 1051.9 1394.94 1046.76 1421.18 C 1037.31 1465.67 995.779 1502.26 950.279 1505.1 C 933.241 1506.16 918.224 1502.41 901.722 1499 C 828.24 1483.81 764.492 1446.04 708.477 1397.21 C 692.266 1350.73 728.742 1299.74 776.248 1294.47 C 784.998 1293.5 793.219 1294 801.928 1294.87 C 741.363 1239.44 702.421 1180.21 683.514 1099.04 C 678.318 1076.73 678.718 1060.11 675.853 1038.73 C 662.774 1040.37 650.241 1042.43 637.058 1041.45 C 609.878 1039.28 584.703 1026.3 567.163 1005.43 C 535.709 968.666 538.201 936.587 551.119 893.477 C 569.115 833.416 594.263 776.451 634.939 727.997 C 644.272 716.88 653.573 704.847 664.693 695.567 C 667.547 695.322 670.408 695.175 673.272 695.127 C 712.761 694.573 748.664 714.187 763.384 751.806 C 768.834 765.735 769.129 774.542 769.316 789.4 C 774.2 783.882 779.189 778.567 784.157 773.143 C 836.614 715.878 927.739 670.077 1006.39 668.56 C 1001.66 644.344 1001.78 637.633 1008.5 613.768 z M 1064.88 597.373 C 1067.89 605.266 1069.46 610.06 1071.18 618.288 C 1068.58 625.111 1067.51 631.13 1061.72 636.285 C 1059.16 638.461 1057.58 642.821 1060.87 645.114 C 1064.71 647.786 1070.35 647.451 1075.02 648.079 C 1081.74 648.982 1090.29 645.386 1095.76 642.351 C 1099.9 639.49 1104.39 637.497 1107.5 633.837 C 1110.81 629.945 1113.5 626.472 1117.86 623.779 C 1128.43 617.248 1125.66 608.185 1125.4 597.483 C 1114.66 586.299 1109.77 585.002 1094.47 583.783 C 1088.21 583.283 1084.9 582.053 1078.4 582.822 C 1070.22 587.278 1069.35 589.291 1064.88 597.373 z" fill="url(#Gradient1)" transform="translate(0,0)"></path>
<path d="M 1078.4 582.822 C 1084.9 582.053 1088.21 583.283 1094.47 583.783 C 1109.77 585.002 1114.66 586.299 1125.4 597.483 C 1125.66 608.185 1128.43 617.248 1117.86 623.779 C 1113.5 626.472 1110.81 629.945 1107.5 633.837 C 1104.39 637.497 1099.9 639.49 1095.76 642.351 C 1090.29 645.386 1081.74 648.982 1075.02 648.079 C 1070.35 647.451 1064.71 647.786 1060.87 645.114 C 1057.58 642.821 1059.16 638.461 1061.72 636.285 C 1067.51 631.13 1068.58 625.111 1071.18 618.288 C 1069.46 610.06 1067.89 605.266 1064.88 597.373 C 1069.35 589.291 1070.22 587.278 1078.4 582.822 z" fill="rgb(254,254,254)" fill-opacity="0.32549" transform="translate(0,0)"></path>
<path d="M 1084.97 756.397 C 1101.33 746.947 1123.84 740.016 1142.18 735.399 L 1142.78 736.712 C 1138.87 738.064 1129.84 740.244 1127.45 742.217 C 1130.98 743.181 1132.44 741.137 1135.55 741.972 L 1134.06 743.484 L 1134.08 743.491 C 1129.71 745.796 1128.3 748.423 1125.42 752.285 C 1100.57 760.443 1053.73 794.929 1039.72 817.302 C 1039.6 814.536 1039.51 804.038 1041.14 801.857 C 1052.57 786.565 1069.98 776.954 1084.77 765.233 C 1092.56 759.063 1101.78 753.757 1110.79 749.603 C 1115.27 747.536 1116.7 749.445 1119.74 744.548 C 1109.33 744.124 1091.3 758.306 1084.97 756.397 z" fill="rgb(254,254,254)" fill-opacity="0.14902" transform="translate(0,0)"></path>
<path d="M 1167.9 731.19 L 1169.62 730.996 L 1171.29 731.623 C 1175.99 733.206 1176.86 733.674 1178.78 738.347 C 1177.5 742.665 1178.54 753.397 1171.67 748.163 C 1170.4 745.627 1170.78 747.091 1169.37 745.283 C 1169.45 744.823 1174.63 740.4 1171.89 735.267 C 1170.27 732.224 1167.06 733.96 1167.9 731.19 z" fill="rgb(254,254,254)" fill-opacity="0.286275" transform="translate(0,0)"></path>
<path d="M 1517.98 1054.31 C 1518.31 1054.25 1519.14 1053.98 1519.51 1054.18 C 1518.91 1061.84 1515.49 1088.82 1513.45 1095.16 C 1511.75 1092.99 1516.79 1058.38 1517.98 1054.31 z" fill="rgb(129,123,236)" fill-opacity="0.988235" transform="translate(0,0)"></path>
<path d="M 978.181 1510.84 C 982.309 1511.31 1008.96 1512.9 1010.14 1513.56 L 1010.34 1514.13 C 1008.56 1516.96 985.095 1512.92 979.901 1513.03 L 978.181 1510.84 z" fill="rgb(184,181,239)" transform="translate(0,0)"></path>
<path d="M 1142.18 735.399 C 1147.26 734.184 1150.95 733.181 1156.22 732.533 C 1156.86 732.987 1157.11 732.972 1157.26 733.534 C 1156.71 734.79 1153.01 735.201 1151.6 735.739 L 1151.74 735.533 C 1151.69 735.594 1151.63 735.656 1151.58 735.718 C 1153.22 736.492 1153.58 738.306 1152.54 739.627 C 1152.17 740.086 1151.6 740.337 1151.02 740.301 C 1148.69 740.15 1144.66 737.947 1142.78 736.712 L 1142.18 735.399 z" fill="rgb(254,254,254)" fill-opacity="0.290196" transform="translate(0,0)"></path>
<path d="M 1087.51 534.487 C 1079.42 532.82 1066.49 531.424 1059.55 529.148 C 1059.57 529.058 1059.58 528.969 1059.6 528.88 C 1061.84 528.244 1086.2 531.291 1088.75 532.444 L 1087.51 534.487 z" fill="rgb(129,123,236)" transform="translate(0,0)"></path>
<path d="M 1169.62 730.996 C 1176.63 730.651 1176.66 730.345 1182.99 733.437 L 1182.72 734.627 C 1182.25 737.891 1181.58 737.033 1178.78 738.347 C 1176.86 733.674 1175.99 733.206 1171.29 731.623 L 1169.62 730.996 z" fill="rgb(254,254,254)" fill-opacity="0.180392" transform="translate(0,0)"></path>
<path d="M 1417.57 1528.73 C 1421.12 1525.51 1425.81 1520.26 1429.35 1517.86 L 1431.58 1519.78 C 1428.65 1522.99 1423.81 1525.98 1420.22 1529.19 L 1417.57 1528.73 z" fill="rgb(254,254,254)" transform="translate(0,0)"></path>
<path d="M 1197.35 1308.55 L 1198.42 1310.23 C 1194.53 1312.31 1185.76 1321.02 1183.11 1318.54 C 1183.69 1316.19 1194.52 1310.26 1197.35 1308.55 z" fill="rgb(184,181,239)" transform="translate(0,0)"></path>
<path d="M 957.022 1509.76 C 963.572 1508.6 971.64 1509.65 978.181 1510.84 L 979.901 1513.03 C 972.254 1511.76 964.637 1510.97 957.022 1509.76 z" fill="rgb(98,95,235)" transform="translate(0,0)"></path>
<path d="M 1088.75 532.444 C 1092.54 532.938 1096.9 533.672 1100.68 534.412 L 1099.85 536.49 C 1095.25 535.624 1092.15 535.086 1087.51 534.487 L 1088.75 532.444 z" fill="rgb(184,181,239)" fill-opacity="0.74902" transform="translate(0,0)"></path>
<path d="M 1100.68 534.412 C 1103.38 534.881 1104.6 535.114 1107.28 535.914 L 1107.21 535.854 C 1108.42 536.456 1108.1 536.212 1108.49 536.591 C 1108.36 537.94 1100.51 536.581 1099.85 536.49 L 1100.68 534.412 z" fill="rgb(184,181,239)" fill-opacity="0.619608" transform="translate(0,0)"></path>
<path d="M 1420.22 1529.19 C 1415.5 1533.72 1411.12 1534.73 1417.57 1528.73 L 1420.22 1529.19 z" fill="rgb(129,123,236)" transform="translate(0,0)"></path>
<path d="M 1197.35 1308.55 L 1198.41 1307.94 C 1202.51 1305.5 1200.08 1308.71 1198.42 1310.23 L 1197.35 1308.55 z" fill="rgb(129,123,236)" transform="translate(0,0)"></path>
<metadata><recraft-signature>{"signed_by": "recraft", "signature_b64": "RL80ZisV62SiSYDmR6Oop1/XuvVBHax6rYZ+i1l86Uz5IGQ4OYNszuWEEQ1wwu27rl0s6EDvl7wC5mHMX+AkBw==", "signing_algo": "Ed25519", "generation_timestamp": 1772775169, "identifier": "4d0c75ad-a0a0-41c4-ab7a-c38fbecf79fb"}</recraft-signature></metadata></svg>