<svg xmlns="http://www.w3.org/2000/svg" height="1024" preserveAspectRatio="none" style="display: block;" version="1.1" viewBox="0 0 2048 2048" width="1024">
<path d="M 0 0 L 2048 0 L 2048 2048 L 0 2048 L 0 0 z" fill="rgb(255,255,255)" transform="translate(0,0)"></path>
<path d="M 1001.7 248.601 C 1430.66 235.445 1789 572.647 1801.93 1001.62 C 1814.85 1430.58 1477.46 1788.75 1048.48 1801.44 C 619.832 1814.12 262.003 1477.04 249.088 1048.4 C 236.174 619.759 573.062 261.747 1001.7 248.601 z" fill="rgb(12,162,72)" transform="translate(0,0)"></path>
<path d="M 458.839 1347.61 C 445.078 1322.16 433.51 1300.96 422.391 1274.1 C 366.064 1139.52 357.358 989.747 397.713 849.548 C 447.342 677.138 565.084 532.396 723.781 448.709 C 902.16 352.609 1121.08 350.226 1303.17 437.122 C 1431.08 498.098 1536.02 598.534 1602.56 723.641 C 1679.64 867.234 1700.83 1050.39 1652.84 1206.63 C 1636.75 1258.99 1617.14 1299.31 1591.99 1347.09 C 1591.34 1307.71 1592.01 1268.29 1591.83 1228.9 L 1591.85 771.45 C 1558.41 770.433 1525.01 764.717 1496.88 745.32 L 1496.96 1157.54 C 1496.92 1217.6 1497.88 1280.44 1496.67 1340.2 C 1383.68 1290.85 1284.36 1273.08 1164.91 1318.36 C 1133.54 1330.25 1091.12 1354.18 1067.26 1377.76 L 1064.41 1377 C 1132.13 1252.16 1267.77 1205.86 1399.88 1251.9 C 1420.87 1259.21 1440.66 1269.2 1460.35 1279.44 L 1460.88 865.212 L 1460.96 754.669 C 1460.98 732.171 1462.13 697.421 1457.99 676.413 C 1451.11 642.71 1434.56 611.742 1410.36 587.294 C 1370 546.29 1324.84 532.589 1269.2 545.655 C 1194.33 495.766 1101.28 531.492 1054.57 602.218 C 1040.38 623.485 1030.5 647.329 1025.48 672.399 C 1000.81 584.194 922.376 501.319 821.986 527.495 C 810.11 530.592 789.592 539.519 779.745 546.911 C 699.31 521.795 621.576 578.873 598.364 654.717 C 587.136 691.401 590.832 745.176 590.846 784.316 L 590.929 922.652 L 590.868 1279.46 C 607.87 1270.91 623.596 1261.98 641.353 1254.94 C 703.178 1230 771.805 1227.61 835.216 1248.18 C 900.084 1269.43 953.988 1319.08 984.705 1379.68 C 985.446 1381.14 986.159 1382.62 986.845 1384.12 C 971.5 1367.78 955.863 1356.92 937.249 1345.08 C 832.414 1278.43 697.294 1277.48 585.671 1327.65 C 574.931 1332.48 563.275 1336.72 552.784 1342.08 C 552.946 1143.87 550.532 943.575 552.995 745.565 C 518.852 764.568 499.117 770.667 458.672 771.125 L 459.056 1119.15 L 459.059 1267.3 C 459.05 1293.48 459.526 1321.61 458.839 1347.61 z" fill="rgb(255,255,255)" transform="translate(0,0)"></path>
<path d="M 813.006 671.908 C 809.64 670.199 806.343 668.36 803.121 666.394 C 792.701 659.978 784.452 649.337 782.071 637.338 C 775.168 602.559 807.036 576.793 837.981 571.302 C 868.688 565.853 899.599 574.341 924.91 591.759 C 955.944 613.114 973.334 646.634 979.682 683.095 C 964.087 683.011 952.722 682.973 938.175 688.802 C 969.306 702.119 994.863 731.631 998.199 766.019 C 1000.44 789.203 993.372 812.327 978.542 830.288 C 955.481 858.29 925.451 866.563 891.078 869.995 L 890.045 873.309 C 929.704 883.976 962.351 900.188 983.864 937.132 C 996.899 959.516 1000.82 986.98 993.809 1012.08 C 986.96 1036.28 970.676 1056.71 948.615 1068.78 C 932.469 1077.8 911.796 1081.88 893.475 1083.12 C 888.918 1084.11 884.982 1083.5 881.171 1085.52 C 941.463 1099.28 1001.89 1143.63 994.915 1212.05 C 992.258 1235.79 980.358 1257.51 961.792 1272.53 C 930.689 1239.12 888.79 1210.41 844.391 1198.04 C 836.444 1195.82 828.516 1193.59 820.551 1191.43 C 815.276 1159.5 824.43 1142.54 844.725 1119.31 C 802.589 1117.02 776.915 1090.16 765.91 1051.05 C 764.498 1057.04 763.545 1063.12 763.058 1069.25 C 760.887 1100.46 769.8 1120.55 789.874 1143.39 C 784.273 1161.27 782.969 1167.63 782.829 1186.32 C 754.411 1187.18 728.961 1190.5 700.914 1194.47 C 697.372 1194.97 691.092 1192.44 687.569 1191 C 667.682 1182.97 651.914 1167.2 643.886 1147.32 C 628.347 1108.75 648.457 1067.33 686.21 1052.12 C 670.264 1046.62 657.851 1040.7 647.859 1026.21 C 638.139 1011.87 634.598 994.22 638.034 977.239 C 646.651 932.583 688.75 908.719 732.264 917.49 C 740.613 934.955 745.669 946.266 759.919 960.091 C 807.324 1006.08 865.683 993.751 908.503 948.734 C 875.837 965.243 846.67 969.294 813.726 950.104 C 792.598 937.712 777.213 917.484 770.915 893.813 C 762.401 861.36 770.448 837.359 786.657 809.679 C 753.673 828.692 738.311 850.389 727.327 885.774 C 711.028 888.532 696.275 889.464 681.06 882.328 C 644.253 865.065 625.299 817.615 643.312 780.43 C 657.076 752.014 676.875 739.864 705.087 729.31 C 685.648 724.258 670.479 721.167 650.423 724.253 C 646.907 711.985 644.476 702.352 644.252 689.448 C 643.971 663.203 654.059 637.907 672.323 619.058 C 695.486 595.47 721.257 589.183 752.979 588.69 C 739.977 638.021 752.679 688.084 805.505 704.905 C 807.857 736.47 822.657 759.431 854.14 769.191 C 872.659 774.932 888.758 771.739 905.517 762.517 C 848.647 747.963 822.699 706.342 846.42 650.733 C 836.406 656.286 823.024 665.507 813.006 671.908 z" fill="rgb(255,255,255)" transform="translate(0,0)"></path>
<path d="M 872.064 1083.01 C 879.201 1082.97 886.338 1083.01 893.475 1083.12 C 888.918 1084.11 884.982 1083.5 881.171 1085.52 C 876.592 1084.5 876.594 1084.44 872.064 1083.01 z" fill="rgb(69,152,101)" transform="translate(0,0)"></path>
<path d="M 882.896 869.864 C 885.623 869.937 888.35 869.98 891.078 869.995 L 890.045 873.309 C 887.736 872.691 885.412 872.131 883.075 871.627 L 882.896 869.864 z" fill="rgb(69,152,101)" transform="translate(0,0)"></path>
<path d="M 883.075 871.627 L 879.463 871.233 C 879.691 871.255 873.94 870.987 875.871 869.426 C 877.092 868.439 881.329 869.539 882.896 869.864 L 883.075 871.627 z" fill="rgb(157,195,172)" transform="translate(0,0)"></path>
<path d="M 1071.26 681.869 C 1074.38 665.036 1077.94 651.347 1086.08 636.051 C 1109.53 591.685 1160.49 561.653 1210.99 570.844 C 1229.75 574.258 1250.69 584.683 1260.91 601.167 C 1280.45 632.717 1265.39 658.32 1235.48 672.025 C 1222.71 661.657 1217.72 658.022 1203.01 650.354 C 1206.36 657.632 1209.06 663.38 1210.79 671.189 C 1218.67 706.832 1198.8 740.489 1166.48 755.096 C 1159.53 758.244 1152.23 760.561 1144.74 762.001 C 1157.26 770.718 1174.62 774.266 1189.6 771.604 C 1206.27 768.733 1221.02 759.126 1230.39 745.041 C 1239.31 731.75 1241.78 720.498 1243.94 705.047 C 1298.93 685.069 1308.98 640.746 1296.25 588.146 C 1328.18 589.605 1355.18 594.857 1378.13 619.896 C 1396.3 639.676 1405.74 665.936 1404.33 692.756 C 1403.71 704.217 1401.64 712.098 1399.27 723.152 C 1373.1 722.984 1366.6 723.385 1341.16 729.721 C 1387.83 738.922 1420.14 779.138 1410.4 827.326 C 1406.35 847.691 1394.35 865.603 1377.06 877.101 C 1359.96 888.344 1342.35 889.983 1322.7 885.804 L 1321.78 885.601 C 1311.56 854.152 1296.22 827.827 1265.71 812.156 L 1264.72 811.654 C 1279.87 837.741 1287.35 862.025 1279.46 892.303 C 1273.05 916.839 1257.06 937.776 1235.08 950.417 C 1203.12 968.819 1174.66 965.617 1142.67 950.257 C 1187.07 993.633 1245.84 1005.44 1292.53 958.004 C 1306.08 944.237 1308.88 933.381 1317.12 916.901 C 1339.5 912.865 1360.35 915.305 1379.44 928.617 C 1410.34 950.175 1424.34 995.655 1401.3 1027.86 C 1392.14 1040.63 1378.17 1046.2 1364.31 1051.91 C 1382.98 1058.69 1394.96 1072.6 1403.7 1089.98 C 1422.92 1128.19 1403.07 1171.93 1365.9 1189.73 C 1346.35 1199.09 1337.11 1192.95 1317.29 1190.53 C 1301.45 1188.6 1283.44 1186.09 1267.54 1185.73 C 1267.15 1167.9 1266.8 1160.5 1260.42 1143.53 C 1285.72 1113.18 1293.05 1091.72 1285.15 1052.31 C 1268.67 1092.92 1252.01 1113.85 1206.07 1119.41 C 1226.29 1140.32 1234.96 1161.55 1230.64 1190.62 C 1164.63 1206.9 1135.74 1225.27 1086.32 1270.81 C 1044.21 1232.26 1044.02 1174.62 1082.05 1133.26 C 1103.41 1110.03 1135.75 1093.48 1166.08 1086.07 L 1162.93 1082.99 C 1123.66 1082.87 1084.93 1068.88 1064.98 1033.17 C 1039.75 987.993 1054.54 938.637 1092.22 905.822 C 1115.33 885.7 1138.72 878.815 1167.88 871.757 C 1166.63 869.263 1156.61 870.025 1152.45 869.138 C 1099.04 866.444 1048.16 827.792 1050.79 770.724 C 1052.06 746.295 1063.15 723.416 1081.54 707.287 C 1090.73 699.087 1099.75 694.162 1110.72 688.846 C 1095.18 683.621 1087.66 683.384 1071.26 681.869 z" fill="rgb(255,255,255)" transform="translate(0,0)"></path>
<path d="M 1152.45 869.138 C 1155.07 869.035 1171.95 868.814 1173.37 869.84 C 1173.46 870.296 1173.48 870.282 1173.18 870.67 L 1172.93 870.296 L 1172.11 871.126 C 1170.7 871.349 1169.29 871.559 1167.88 871.757 C 1166.63 869.263 1156.61 870.025 1152.45 869.138 z" fill="rgb(157,195,172)" transform="translate(0,0)"></path>
<path d="M 1170.97 1082.71 L 1171.88 1084.77 C 1169.8 1085.17 1168.14 1085.51 1166.08 1086.07 L 1162.93 1082.99 C 1165.61 1082.93 1168.29 1082.84 1170.97 1082.71 z" fill="rgb(69,152,101)" transform="translate(0,0)"></path>
<path d="M 1170.97 1082.71 C 1172.18 1082.31 1175.36 1081.33 1176.31 1082.66 C 1176.34 1084.22 1172.8 1084.58 1171.88 1084.77 L 1170.97 1082.71 z" fill="rgb(157,195,172)" transform="translate(0,0)"></path>
<path d="M 722.197 1404.57 C 787.033 1398.86 879.896 1421.35 930.199 1463.87 C 947.081 1478.14 947.786 1494.88 970.47 1509.12 C 993.644 1523.67 1021.81 1528.85 1048.38 1522.45 C 1078.94 1515.09 1091.99 1502.65 1107.25 1477.93 C 1128.65 1443.27 1197.81 1420.33 1236.33 1411.93 C 1311.29 1395.57 1385.33 1406.32 1456.83 1432.04 C 1471.99 1437.5 1497.72 1447.73 1511.02 1456.37 C 1497.63 1470.14 1484.23 1483.96 1470.28 1497.17 C 1435.72 1529.87 1398.02 1557.2 1358.12 1582.87 C 1332.55 1599.11 1303.39 1613.38 1275.53 1625.17 C 1159.4 1674.4 1031.26 1688.02 907.37 1664.29 C 787.406 1641.68 676.189 1585.88 586.356 1503.22 C 577.13 1494.74 546.816 1465.69 540.165 1456.05 C 598.816 1426.74 656.783 1409.25 722.197 1404.57 z" fill="rgb(255,255,255)" transform="translate(0,0)"></path>
<path d="M 1064.41 1377 L 1067.26 1377.76 C 1066.49 1378.66 1063.13 1383.87 1061.91 1381.9 C 1062.12 1380.11 1063.3 1378.37 1064.41 1377 z" fill="rgb(221,249,226)" transform="translate(0,0)"></path>
<metadata><recraft-signature>{"signed_by": "recraft", "signature_b64": "eFFiKfn1YRi7apTFYmtrSailOzm7zT4JffA0MON0S+Mg4kX6wJL9BaqeH6xlz4JMJImpzGb2M9tb5O7WQyXRAw==", "signing_algo": "Ed25519", "generation_timestamp": 1772774960, "identifier": "14902503-78be-4bfd-800e-85f505deec98"}</recraft-signature></metadata></svg>