<svg xmlns="http://www.w3.org/2000/svg" height="1024" preserveAspectRatio="none" style="display: block;" version="1.1" viewBox="0 0 2048 2048" width="1024">
<path d="M 992.261 45.3835 C 1532.52 27.5917 1984.96 451.017 2002.97 991.266 C 2020.97 1531.51 1597.73 1984.13 1057.49 2002.35 C 516.94 2020.58 64.0191 1597.04 46.0027 1056.49 C 27.9863 515.938 451.701 63.1853 992.261 45.3835 z M 1038.51 1977.78 C 1565.22 1970.13 1985.92 1536.79 1977.98 1010.09 C 1970.03 483.378 1536.46 62.9212 1009.75 71.1605 C 483.466 79.3933 63.4157 512.551 71.353 1038.84 C 79.2903 1565.13 512.212 1985.42 1038.51 1977.78 z" fill="rgb(8,147,85)" transform="translate(0,0)"></path>
<path d="M 844.619 239.464 C 922.066 240.142 978.317 272.274 1024.63 333.381 C 1131.14 192.907 1331.88 211.927 1400.99 375.997 C 1473.33 374.905 1538 405.801 1584.04 461.21 C 1635.36 522.964 1646.98 595.095 1627.88 671.81 C 1640.52 678.812 1652.12 684.993 1663.53 694.027 C 1755.31 766.734 1775.69 887.576 1702.96 981.009 C 1709.51 988.461 1717.35 995.397 1723.97 1002.9 C 1810.54 1101.16 1798.88 1253.01 1702.78 1340.67 C 1678.39 1362.92 1658.81 1374.08 1628.7 1387.59 C 1628.84 1445.73 1622.69 1492.94 1587.97 1542.13 C 1541.52 1607.93 1488.65 1630.76 1413.69 1645.54 C 1408.1 1677.74 1386.51 1715.63 1363.51 1738.61 C 1318.87 1783.22 1267.1 1803.36 1204.98 1804.43 C 1201.48 1804.37 1197.99 1804.26 1194.49 1804.12 C 1142.51 1801.9 1092.17 1779.77 1055.15 1743.49 C 1044.46 1733.02 1034.95 1721.34 1024.79 1710.28 C 1016.22 1718.67 1008.33 1728.72 999.649 1737.3 C 969.616 1766.98 936.553 1787.39 895.5 1797.73 C 843.565 1810.81 778.084 1804.22 732.078 1775.72 C 680.603 1743.84 651.434 1704.6 637.226 1646.38 C 578.551 1638.38 530.739 1619.13 488.718 1576 C 450.502 1537.03 426.476 1486.35 420.491 1432.09 C 419.047 1417.75 419.443 1401.22 419.584 1386.69 C 323.846 1343.13 265.974 1259.73 267.948 1152.88 C 268.901 1101.28 287.685 1050.86 319.36 1010.21 C 326.83 1000.62 338.795 990.021 347.778 981.42 C 276.647 892.928 292.376 775.317 377.432 701.17 C 391.588 688.83 404.975 680.735 421.256 671.673 C 410.624 625.431 406.244 584.443 421.753 538.49 C 456.264 436.235 544.462 376.788 649.802 374.975 C 680.349 291.988 757.17 241.693 844.619 239.464 z M 1156.83 1405.55 C 1148.83 1417.28 1135.33 1425.74 1124.9 1435.29 C 1105.26 1453.29 1079.57 1471.52 1060.68 1489.53 C 1060.91 1512.85 1060.99 1536.18 1060.89 1559.51 C 1060.89 1577.27 1060.12 1595.61 1062.73 1613.04 C 1073.71 1686.51 1139.58 1734.32 1212.24 1732.39 C 1279.59 1730.61 1346.79 1680.18 1344.64 1608.47 C 1343.18 1573.81 1323 1544.65 1291.44 1532.05 C 1289.61 1531.32 1283.14 1528.71 1281.89 1527.76 C 1281.26 1509.44 1280.67 1484.37 1281.25 1466.11 C 1319.72 1467.89 1354.64 1482.06 1380.84 1510.86 C 1399.28 1531.14 1405.01 1547.15 1413.31 1572.37 C 1450.01 1566.42 1479.11 1554.67 1506.21 1529.93 C 1587.95 1455.29 1569.99 1318.6 1481.18 1257.69 C 1457.16 1241.21 1436.94 1233.17 1409.27 1225.56 C 1409.14 1205.81 1412.01 1176.89 1413.32 1156.5 C 1433.28 1158.18 1461.56 1167.79 1479.43 1176.04 C 1494.3 1158.35 1499.81 1141.37 1497.76 1117.99 C 1495.68 1093.71 1483.89 1071.3 1465.06 1055.84 C 1439.91 1034.81 1416.76 1033.96 1386.25 1032.2 C 1383.39 1013.59 1381.37 994.79 1378.56 976.077 C 1391.95 969.161 1406 961.987 1414.45 948.902 C 1426.25 930.625 1427.04 906.631 1421.98 886.009 C 1411.12 841.813 1367.26 813.474 1322.63 816.421 C 1319.19 816.748 1316.65 816.49 1313.94 818.12 C 1317.55 835.399 1322 856.29 1323.49 874.019 C 1328.37 936.439 1312.1 998.686 1277.31 1050.74 C 1257.47 1080.98 1229.09 1108.09 1208.48 1137.76 C 1178.75 1181.1 1161.36 1231.71 1158.18 1284.17 C 1155.6 1323.61 1160.5 1366.5 1156.83 1405.55 z M 646.002 967.379 C 654.518 969.917 662.979 972.634 671.381 975.526 C 668.019 993.23 665.079 1011.01 662.566 1028.86 C 629.866 1029.51 601.404 1039.19 577.957 1062.76 C 549.146 1091.72 541.941 1143.26 569.471 1175.52 C 589.277 1167.58 613.356 1160.06 634.436 1156.29 C 637.138 1179.1 640.064 1201.52 642.304 1224.39 C 586.145 1239.69 545.136 1266.13 515.882 1317.84 C 492.102 1359.96 485.869 1409.76 498.53 1456.44 C 510.115 1497.91 537.629 1533.11 575.07 1554.36 C 593.662 1564.72 616.3 1571.36 637.368 1574.12 C 650.764 1512.85 702.548 1466.27 766.495 1466.76 C 766.528 1485.58 767.303 1510.25 766.302 1528.61 L 754.232 1533.38 C 733.153 1543.38 716.872 1561.29 708.931 1583.22 C 687.272 1644.86 735.756 1704.95 792.76 1724.15 C 831.659 1737.48 874.299 1734.48 910.945 1715.83 C 944.499 1699.01 969.942 1669.48 981.614 1633.81 C 990.312 1607.17 988.26 1579.39 988.134 1551.51 L 988.002 1488.57 C 971.17 1473.95 954.233 1459.45 937.192 1445.07 C 925.279 1435.06 899.333 1416.07 892.057 1404.43 C 888.531 1338.09 899.427 1274.85 877.366 1210.03 C 866.022 1176.72 848.876 1145.68 826.721 1118.34 C 812.521 1101.04 790.719 1078.92 778.019 1061.31 C 740.62 1009.45 720.613 940.809 724.792 876.999 C 726.173 855.918 730.491 837.276 735.531 817.374 C 728.242 816.42 719.905 815.444 712.55 816.385 C 658.256 822.456 619.882 865.464 625.713 921.258 C 627.493 938.281 634.498 954.618 646.002 967.379 z M 1060.86 603.902 C 1071.96 604.757 1087.37 608.083 1098.32 610.743 C 1158.55 624.876 1212.69 657.842 1252.9 704.852 C 1270.95 725.869 1273.24 733.612 1287.19 754.298 C 1305.71 748.514 1313.4 747.97 1332.85 746.413 C 1343.53 719.516 1346.17 692.743 1334.34 665.689 C 1313.54 618.148 1278.16 617.628 1241.63 595.34 C 1180.27 557.893 1150.12 488.438 1161.59 417.461 C 1175.97 417.28 1191.06 418.841 1205.53 419.602 C 1213.87 420.041 1226.47 419.96 1234.31 421.21 C 1230.13 456.093 1231.31 480.545 1253.62 510.364 C 1273.62 537.082 1297.53 542.403 1325.55 556.224 C 1339.24 562.976 1349.29 571.804 1361.29 580.817 C 1392.67 549.613 1423.03 533.54 1468.29 531.319 C 1468.96 552.5 1470.56 579.829 1470.48 600.245 C 1448.86 603.771 1430.2 610.778 1416.49 629.247 C 1411.2 636.385 1406.83 647.581 1408.84 656.489 C 1416.89 692.052 1417.05 730.647 1403.23 765.081 C 1441.76 783.354 1471.56 816.048 1486.19 856.102 C 1491.03 869.586 1492.67 878.678 1494.81 892.754 C 1498.73 934.116 1490.5 948.696 1477.05 984.426 C 1495.12 994.156 1509.61 1002.09 1524.12 1017.02 C 1577.19 1071.66 1581.04 1150.68 1537.23 1211.21 C 1575.63 1244.55 1594.59 1269.88 1614.41 1316.68 C 1653.1 1299.26 1684.73 1261.15 1700.41 1222.05 C 1730.18 1147.81 1701.7 1043.87 1621.94 1013.64 L 1619.01 1012.54 C 1620 993.435 1620.81 966.565 1623.53 948.274 C 1642.02 943.44 1650.72 933.564 1660.08 917.658 C 1698.59 852.191 1663.43 774.003 1601.33 738.597 C 1580.21 726.556 1557.48 721.817 1536.63 710.66 C 1583.64 615.979 1577.22 513.109 1472.41 460.671 C 1428.28 438.596 1392.37 440.41 1345.05 449.061 C 1343.21 434.425 1341.49 419.188 1336.61 405.227 C 1315.72 345.474 1257.33 307.769 1194.94 311.468 C 1156.51 313.942 1122.75 329.466 1097.07 358.388 C 1082.49 374.653 1071.93 394.11 1066.23 415.196 C 1059.34 441.324 1060.97 478.936 1060.98 506.826 L 1060.86 603.902 z M 999.252 962.961 C 1016.07 963.256 1032.89 963.27 1049.71 963.002 C 1056.93 930.251 1069.76 888.427 1104.17 873.63 C 1112.23 870.164 1121.93 869.431 1130.52 871.419 C 1141.84 874.029 1151.6 881.137 1157.56 891.103 C 1173.09 917.176 1157.38 948.484 1132 960.81 C 1110.97 971.027 1089.04 976.465 1066.07 980.091 C 1063.65 1024.87 1066.38 1081.45 1065.94 1127.47 C 1065.65 1158.74 1063.16 1216.39 1065.75 1245.31 C 1082.79 1245.26 1099.83 1245.51 1116.86 1246.06 C 1118.58 1227.67 1120.31 1209.46 1125.14 1191.18 C 1135.25 1153.24 1154.93 1117.15 1179.98 1086.99 C 1188.4 1076.85 1198.33 1067.74 1206.77 1057.54 C 1343.61 892.166 1217.83 647.994 1003.43 664.398 C 937.772 670.978 879.899 698.743 837.88 750.34 C 797.393 799.79 778.551 863.475 785.615 926.994 C 790.939 977.291 807.453 1017.57 839.92 1057.1 C 853.156 1073.21 869.386 1088.41 882.005 1105.06 C 912.535 1145.66 930.34 1194.4 933.17 1245.13 L 984.023 1245.39 C 985.296 1194.04 984.114 1138.7 984.144 1086.91 L 984.204 1015.66 C 984.22 1004.57 984.746 990.368 984.157 979.629 C 960.227 976.906 910.951 965.78 897.567 944.614 C 858.698 883.146 938.528 838.684 976.757 901.594 C 989.944 923.293 993.778 938.005 999.252 962.961 z M 1046.85 1245.93 C 1047.2 1245.48 1047.54 1245.03 1047.89 1244.57 C 1048.13 1174.44 1048.47 1046.96 1048.08 981.858 C 1033.95 981.896 1015.99 982.357 1002.17 981.405 C 1002.74 1035.8 1002.93 1090.21 1002.73 1144.61 C 1002.58 1174.55 1000.85 1216.66 1002.67 1245.72 C 1017.56 1245.05 1032.21 1246.23 1046.85 1245.93 z M 436.238 1316.18 C 453.732 1276.12 478.648 1238.83 513.028 1211.17 C 488.624 1176.09 477.465 1137.31 485.309 1094.63 C 492.79 1055.33 515.456 1020.57 548.396 997.869 C 556.197 992.547 565.004 987.928 573.367 983.472 C 555.605 946.279 549.285 914.951 558.099 873.569 C 571.502 823.847 599.426 788.253 645.971 765.109 C 632.287 722.701 631.85 694.466 641.821 650.513 C 630.646 616.733 611.199 606.906 578.496 599.914 C 579.185 577.506 579.563 554.037 580.986 531.738 C 627.795 532.987 655.097 550.025 686.954 581.197 C 699.503 571.767 711.351 562.384 725.237 554.944 C 736.36 548.984 748.889 545.356 759.84 539.68 C 790.66 524.004 811.864 494.244 816.616 459.994 C 818.689 445.39 817.227 432.344 815.524 417.805 C 834.239 416.126 868.122 417.034 887.694 417.03 C 895.813 463.094 885.489 510.503 858.954 549.021 C 845.242 568.63 827.512 585.094 806.943 597.318 C 799.084 601.955 788.408 607.213 779.802 610.05 C 715.277 631.318 694.944 686.192 715.638 746.965 C 735.395 747.588 742.968 748.521 762.621 753.025 C 803.073 683.05 865.078 633.775 943.3 612.353 C 958.625 608.155 972.44 606.153 988.048 603.704 L 988.04 497.309 C 988.055 475.29 989.65 436.318 984.564 416.414 C 978.133 392.056 965.249 369.884 947.27 352.237 C 920.611 325.47 884.279 310.595 846.503 310.981 C 842.948 311.046 839.395 311.191 835.847 311.417 C 776.132 317.095 726.903 357.384 712.21 416.337 C 709.466 427.344 708.673 437.299 707.842 448.593 C 655.387 436.725 609.536 440.787 563.144 469.805 C 526.01 493.032 499.301 528.605 489.355 571.509 C 478.983 616.258 493.768 668.071 508.583 710.853 C 491.443 720.34 475.571 724.735 458.549 732.445 C 422.639 749.22 390.484 783.323 379.593 821.816 C 371.305 851.108 372.029 887.462 387.486 914.286 C 397.276 931.274 406.973 943.428 426.88 948.029 C 428.621 969.459 430.138 990.267 432.188 1011.74 C 410.299 1022.5 391.962 1033.49 376.536 1052.92 C 305.74 1142.08 337.966 1264.66 436.238 1316.18 z M 1068.51 961.624 C 1078.22 960.198 1084.28 958.835 1093.84 956.301 C 1117.11 948.625 1151.56 939.149 1144.97 907.491 C 1142.15 893.963 1130.87 887.929 1117.78 888.159 C 1086.49 895.522 1074.09 933.764 1068.51 961.624 z M 1115.03 1347.83 C 1123.64 1344.96 1125.4 1335.99 1118.12 1330.45 C 1109.53 1328.77 1063.94 1329.12 1053.02 1329.3 C 1015.41 1329.94 975.531 1328.31 938.201 1329.44 C 935.465 1330.18 933.04 1330.65 931.407 1333.25 C 930.127 1335.29 929.387 1338.13 929.912 1340.52 C 930.437 1342.91 931.99 1344.7 934.112 1345.84 C 940.095 1349.03 1092.68 1348.03 1115.03 1347.83 z M 1038.8 1426.51 C 1016.68 1426.55 989.705 1425.95 968.02 1426.94 C 978.272 1437.32 997.192 1454.12 1008.9 1463.16 L 1040.94 1462.98 L 1081.73 1426.16 C 1067.42 1426.06 1053.11 1426.18 1038.8 1426.51 z M 966.789 958.302 C 972.556 959.493 976.999 959.988 982.666 960.876 C 977.709 941.512 967.375 918.845 955.151 902.97 C 945.802 890.828 937.983 887.884 923.161 889.181 C 907.099 896.428 899.911 909.751 907.394 926.636 C 916.027 946.117 942.659 952.14 961.512 956.921 L 966.789 958.302 z M 1081.5 1280.53 C 1050.98 1280.86 1020.45 1280.91 989.932 1280.7 C 973.224 1280.59 956.474 1280.17 939.792 1280.7 C 934.069 1280.88 928.909 1282.52 928.691 1289.26 C 928.389 1298.6 940.561 1297.9 946.944 1298 C 954.365 1298.13 961.897 1297.91 969.289 1297.8 L 1067.84 1298.14 C 1082.95 1298.14 1098.08 1298.26 1113.19 1298.11 C 1119.27 1298.05 1122.95 1295.07 1124.01 1288.97 C 1123.39 1286.18 1121.39 1282 1118.93 1281.41 C 1110.15 1279.28 1090.26 1280.3 1081.5 1280.53 z M 933.296 1379.14 C 931.133 1382.33 928.314 1385.91 929.102 1390.05 C 929.465 1391.96 931.365 1394.57 933.079 1395.51 C 937.338 1397.85 1103.71 1398.53 1117.16 1396.35 C 1124.63 1389.32 1123.22 1379.44 1111.06 1379.13 C 1090.34 1378.62 1069.64 1378.82 1048.92 1378.85 L 933.296 1379.14 z" fill="rgb(8,147,85)" transform="translate(0,0)"></path>
<path d="M 1327.99 1172.18 C 1339.62 1174.24 1348.17 1232.72 1348.34 1244.46 C 1348.6 1263.36 1346.54 1278.18 1343.46 1296.61 C 1371.64 1304.26 1392.43 1312.77 1414.31 1333.34 C 1440.08 1357.24 1455.34 1390.36 1456.75 1425.47 C 1437.73 1430.61 1417.01 1435.23 1397.69 1440.04 C 1392.53 1424.4 1388.53 1413.74 1378.84 1400.45 C 1366.89 1383.8 1349.54 1371.82 1329.75 1366.53 C 1318.88 1363.52 1296.82 1360.75 1286.68 1365.66 C 1282.28 1367.8 1270.76 1375.3 1265.4 1378.38 C 1252.08 1361.26 1238.93 1340.69 1226.07 1322.66 C 1254.76 1305.44 1271.85 1288.86 1276.81 1254.24 C 1280.34 1229.64 1275.98 1212.65 1267.35 1190.01 C 1281.35 1184.42 1312.57 1176.3 1327.99 1172.18 z" fill="rgb(8,147,85)" transform="translate(0,0)"></path>
<path d="M 728.553 1169.72 C 739.256 1172.37 773.944 1185.71 784.772 1190.18 C 775.755 1216.98 766.371 1235.57 773.96 1265.43 C 780.925 1292.83 799.261 1309.09 822.896 1322.88 C 809.388 1340.85 796.425 1359.24 784.022 1378 C 762.458 1367.48 762.957 1359.32 733.217 1362.69 C 705.84 1365.8 687.03 1378.41 670.062 1399.61 C 660.739 1412.5 656.975 1424.93 652.238 1439.76 C 632.601 1434.19 611.815 1431.42 591.862 1425.76 C 592.049 1381.95 619.655 1338.73 656.169 1316.19 C 672.153 1306.32 688.008 1301.66 705.785 1296.65 C 697.176 1260.08 697.39 1224.14 714.902 1190.1 C 718.835 1182.46 722.573 1175.95 728.553 1169.72 z" fill="rgb(8,147,85)" transform="translate(0,0)"></path>
<path d="M 1017.09 756.528 C 1040.68 751.81 1063.63 767.062 1068.42 790.632 C 1073.21 814.201 1058.03 837.202 1034.47 842.062 C 1010.82 846.943 987.697 831.681 982.887 808.011 C 978.078 784.34 993.41 761.266 1017.09 756.528 z" fill="rgb(8,147,85)" transform="translate(0,0)"></path>
<metadata><recraft-signature>{"signed_by": "recraft", "signature_b64": "zkBKnnBVeM38ADaK4sXfU78RcQftmOgaJKsWw3T4/ZE18ldxTE014XAX327tK2TCrHUMkJ8I4gTJXBtDG7H6BA==", "signing_algo": "Ed25519", "generation_timestamp": 1772774980, "identifier": "02e273e3-7edb-4e18-871a-5d63af1a2a47"}</recraft-signature></metadata></svg>