<svg xmlns="http://www.w3.org/2000/svg" height="1024" preserveAspectRatio="none" style="display: block;" version="1.1" viewBox="0 0 2048 2048" width="1024">
<path d="M 582.555 206.01 C 605.663 192.623 658.103 170.879 684.426 160.771 C 869.421 88.6358 1072.59 77.3404 1264.44 128.525 C 1327.48 145.353 1406.9 174.354 1464.76 205.666 C 1557.99 247.602 1667.87 337.754 1735.13 413.866 C 1769.5 452.761 1792.07 486.603 1821.07 528.55 C 1831.02 546.032 1841.58 562.684 1851.48 580.299 C 1859.93 595.33 1866.99 611.99 1875.16 626.595 C 1892.35 660.057 1908.04 701.498 1919.9 737.572 L 1948.21 847.827 C 1951.13 860.539 1952.29 873.201 1954.44 885.957 C 1959.98 918.785 1962.39 949.174 1963.55 982.4 C 1965.8 1007.02 1962.93 1039.4 1964.33 1064.73 C 1962.97 1102.06 1959.23 1139.26 1953.14 1176.12 C 1952.55 1179.88 1950.07 1196.45 1949.23 1198.71 C 1942.42 1232.24 1934.81 1264.11 1924.17 1296.64 C 1922.82 1300.76 1921.49 1305.28 1920.36 1309.47 C 1913.83 1328.87 1907.19 1349.64 1899.45 1368.48 C 1892 1386.61 1882.99 1404.87 1875.02 1422.87 C 1871.11 1429.4 1867.53 1436.78 1864.3 1443.69 C 1851.82 1470.42 1836.79 1494.82 1821.17 1519.74 C 1807.21 1540.91 1790.32 1566.01 1774.82 1586.08 C 1704.16 1677.26 1616.92 1754.29 1517.7 1813.13 C 1501.76 1822.4 1481.75 1834.25 1465.28 1841.95 C 1450.49 1849.55 1435.91 1857.35 1420.87 1864.47 C 1226.26 1956.5 982.445 1977.7 774.873 1918.42 C 776.97 1911.28 767.724 1913.03 763.605 1915.07 L 760.926 1914.49 C 761.779 1907.86 754.902 1908.97 750.631 1910.97 C 705.375 1896.69 658.275 1879.49 615.451 1859.26 C 606.402 1854.99 590.943 1847.42 582.955 1841.99 C 564.04 1833.77 527.574 1811.77 509.978 1800.33 C 427.765 1747.97 354.243 1683.08 292.078 1608.01 C 264.957 1575.22 251.392 1552.78 227.652 1519.28 C 225.138 1516.43 217.188 1502.16 214.692 1498.05 C 199.744 1473.43 186.944 1448.41 173.868 1422.78 C 158.786 1390.18 139.583 1343.93 129.26 1309.66 C 118.884 1270.3 108.744 1240.51 100.284 1198.83 C 92.7879 1150.64 89.2289 1114.5 85.0591 1066.71 C 84.1279 1039.39 84.7939 1009.58 84.9941 982.191 C 85.0841 941.95 94.7104 887.857 101.181 848.33 C 107.255 815.643 118.737 769.933 128.88 738.931 C 139.092 709.2 159.057 654.927 173.935 626.95 C 185.681 600.206 212.484 552.686 228.406 528.382 C 297.906 417.968 390.797 324.156 500.52 253.57 C 522.718 239.058 558.375 217.063 582.555 206.01 z" fill="rgb(47,202,136)" transform="translate(0,0)"></path>
<path d="M 1136.4 1023.6 C 1184.71 962.686 1227.92 916.335 1292.77 872.003 C 1479.32 744.469 1698.82 700.633 1919.9 737.572 L 1948.21 847.827 C 1951.13 860.539 1952.29 873.201 1954.44 885.957 C 1959.98 918.785 1962.39 949.174 1963.55 982.4 C 1965.8 1007.02 1962.93 1039.4 1964.33 1064.73 C 1962.97 1102.06 1959.23 1139.26 1953.14 1176.12 C 1952.55 1179.88 1950.07 1196.45 1949.23 1198.71 C 1942.42 1232.24 1934.81 1264.11 1924.17 1296.64 C 1922.82 1300.76 1921.49 1305.28 1920.36 1309.47 C 1693.8 1356 1418.43 1287.82 1242.06 1137.34 C 1201.5 1102.74 1169.02 1065.34 1136.4 1023.6 z" fill="rgb(0,0,0)" transform="translate(0,0)"></path>
<path d="M 1604.27 799.553 C 1622.37 796.036 1651.71 795.278 1670.43 794.206 C 1766.26 788.72 1861.76 804.433 1948.21 847.827 C 1951.13 860.539 1952.29 873.201 1954.44 885.957 C 1959.98 918.785 1962.39 949.174 1963.55 982.4 C 1873.55 884.384 1765.74 819.687 1632.22 802.822 C 1622.9 801.644 1613.57 800.881 1604.27 799.553 z" fill="rgb(47,202,136)" transform="translate(0,0)"></path>
<path d="M 1605.72 1247.24 C 1608 1247.08 1610.29 1246.91 1612.57 1246.72 C 1749.2 1234.71 1875.59 1169.32 1964.33 1064.73 C 1962.97 1102.06 1959.23 1139.26 1953.14 1176.12 C 1952.55 1179.88 1950.07 1196.45 1949.23 1198.71 C 1861.59 1242.03 1787.37 1255.02 1688.99 1254.48 C 1662.28 1254.33 1633.74 1250.42 1609.18 1250.01 L 1605.72 1247.24 z" fill="rgb(47,202,136)" transform="translate(0,0)"></path>
<path d="M 1590.05 1249.54 C 1594.37 1248.54 1601.27 1246.83 1605.72 1247.24 L 1609.18 1250.01 C 1602.94 1250.14 1596.32 1249.77 1590.05 1249.54 z" fill="rgb(40,86,75)" transform="translate(0,0)"></path>
<path d="M 1526.5 847.396 C 1539.08 845.888 1568.91 846.916 1581.92 847.831 C 1677.16 854.533 1774.53 898.859 1846.94 960.173 C 1868.4 978.349 1889.59 1002.82 1907.91 1024.07 C 1904.85 1027.92 1901.75 1031.73 1898.6 1035.51 C 1818.97 1129.37 1705.94 1188.58 1583.44 1200.6 C 1563.68 1203.62 1517.31 1200.8 1497.47 1198.16 C 1400 1185.14 1303.09 1130.18 1235.17 1059.92 C 1224.42 1048.8 1211.52 1036.57 1202.19 1024.31 C 1204.41 1021.57 1206.67 1018.87 1208.95 1016.19 C 1289.2 922.014 1402.15 857.308 1526.5 847.396 z" fill="rgb(47,202,136)" transform="translate(0,0)"></path>
<path d="M 1529.25 883.225 C 1606.91 879.703 1672.75 939.725 1676.42 1017.38 C 1680.08 1095.03 1620.18 1160.99 1542.54 1164.79 C 1464.69 1168.61 1398.52 1108.52 1394.85 1030.66 C 1391.18 952.811 1451.39 886.757 1529.25 883.225 z" fill="rgb(0,0,0)" transform="translate(0,0)"></path>
<path d="M 1528.7 971.566 C 1557.67 967.202 1584.69 987.153 1589.05 1016.12 C 1593.4 1045.1 1573.45 1072.11 1544.47 1076.46 C 1515.51 1080.81 1488.51 1060.86 1484.15 1031.9 C 1479.79 1002.94 1499.74 975.929 1528.7 971.566 z" fill="rgb(47,202,136)" transform="translate(0,0)"></path>
<path d="M 128.88 738.931 C 159.817 731.163 207.881 726.514 239.549 725.06 C 407.057 718.126 572.941 760.28 716.818 846.342 C 797.548 894.576 854.515 950.728 912.385 1023.38 C 894.901 1051.01 866.049 1081.03 842.935 1104.16 C 743.097 1204.08 604.404 1271.06 466.88 1301.91 C 380.033 1321.47 290.68 1327.45 202.001 1319.64 C 175.812 1317.21 154.491 1312.82 129.26 1309.66 C 118.884 1270.3 108.744 1240.51 100.284 1198.83 C 92.7879 1150.64 89.2289 1114.5 85.0591 1066.71 C 84.1279 1039.39 84.7939 1009.58 84.9941 982.191 C 85.0841 941.95 94.7104 887.857 101.181 848.33 C 107.255 815.643 118.737 769.933 128.88 738.931 z" fill="rgb(0,0,0)" transform="translate(0,0)"></path>
<path d="M 101.181 848.33 C 225.714 790.696 303.393 787.807 439.443 797.997 L 445.362 800.071 C 305.957 811 176.477 876.435 84.9941 982.191 C 85.0841 941.95 94.7104 887.857 101.181 848.33 z" fill="rgb(47,202,136)" transform="translate(0,0)"></path>
<path d="M 85.0591 1066.71 C 96.6821 1080.37 109.915 1092.89 122.98 1105.16 C 208.67 1186.86 319.506 1237.13 437.424 1247.78 C 438.167 1247.85 438.911 1247.89 439.656 1247.92 L 436.91 1250.06 C 431.835 1249.82 417.274 1251.3 411.193 1251.76 C 395.179 1253.04 379.133 1253.87 363.073 1254.27 C 270.407 1255.82 182.972 1243.29 100.284 1198.83 C 92.7879 1150.64 89.2289 1114.5 85.0591 1066.71 z" fill="rgb(47,202,136)" transform="translate(0,0)"></path>
<path d="M 439.656 1247.92 C 441.097 1247.92 447.029 1247.67 447.988 1248.62 C 448.328 1250.39 438.167 1250.06 436.91 1250.06 L 439.656 1247.92 z" fill="rgb(40,86,75)" transform="translate(0,0)"></path>
<path d="M 439.443 797.997 C 441.638 798.014 449.768 798.068 451.429 799.475 C 451.092 800.24 446.159 800.061 445.362 800.071 L 439.443 797.997 z" fill="rgb(40,86,75)" transform="translate(0,0)"></path>
<path d="M 473.598 847.406 C 483.798 846.263 506.769 846.53 517.149 847.237 C 654.071 856.572 758.292 924.395 847.09 1024 C 830.706 1045.21 800.079 1074.93 779.371 1092.19 C 707.098 1152.44 612.425 1197.76 517.25 1201.2 C 489.976 1202.55 462.635 1201.12 435.648 1196.96 C 326.454 1179.58 207.344 1113.79 141.921 1023.82 C 145.53 1018.78 151.377 1012.11 155.499 1007.35 C 236.05 913.861 350.517 856.306 473.598 847.406 z" fill="rgb(47,202,136)" transform="translate(0,0)"></path>
<path d="M 496.786 884.148 C 574.033 875.399 643.751 930.918 652.518 1008.16 C 661.285 1085.41 605.782 1155.14 528.539 1163.93 C 451.27 1172.71 381.51 1117.19 372.741 1039.92 C 363.971 962.646 419.512 892.9 496.786 884.148 z" fill="rgb(0,0,0)" transform="translate(0,0)"></path>
<path d="M 503.899 971.707 C 532.85 966.381 560.607 985.627 565.77 1014.61 C 570.933 1043.59 551.53 1071.24 522.521 1076.23 C 493.743 1081.19 466.363 1061.98 461.241 1033.23 C 456.119 1004.48 475.179 976.991 503.899 971.707 z" fill="rgb(47,202,136)" transform="translate(0,0)"></path>
<path d="M 1025.41 1130.14 C 1023.81 1148.86 1033.75 1208.91 1037.36 1228.57 C 1066.54 1387.44 1132.59 1528.07 1236.99 1651.78 C 1284.57 1708.1 1339.2 1758.07 1399.54 1800.44 C 1420.86 1815.13 1445.9 1828.3 1465.28 1841.95 C 1450.49 1849.55 1435.91 1857.35 1420.87 1864.47 C 1226.26 1956.5 982.445 1977.7 774.873 1918.42 C 776.97 1911.28 767.724 1913.03 763.605 1915.07 L 760.926 1914.49 C 761.779 1907.86 754.902 1908.97 750.631 1910.97 C 705.375 1896.69 658.275 1879.49 615.451 1859.26 C 606.402 1854.99 590.943 1847.42 582.955 1841.99 C 586.875 1839.05 591.942 1836.35 596.223 1833.86 C 621.4 1819.21 646.276 1804.41 669.438 1786.63 C 709.567 1755.83 747.769 1721.74 782.312 1684.71 C 898.343 1561.28 976.875 1407.39 1008.74 1241 C 1013.7 1216.17 1023.62 1158.43 1022.8 1133.62 C 1023.69 1132.45 1024.55 1131.34 1025.41 1130.14 z" fill="rgb(0,0,0)" transform="translate(0,0)"></path>
<path d="M 582.555 206.01 C 605.663 192.623 658.103 170.879 684.426 160.771 C 869.421 88.6358 1072.59 77.3404 1264.44 128.525 C 1327.48 145.353 1406.9 174.354 1464.76 205.666 C 1261.14 324.378 1113.26 519.387 1053.88 747.487 C 1043.41 788.383 1035.07 829.796 1028.9 871.559 C 1027.66 880.158 1024.54 903.232 1025.03 911.326 C 1024.24 913.252 1023.47 915.036 1022.78 917.002 C 1023.46 908.816 1020.36 885.457 1019.23 876.352 C 1011.71 812.957 997.762 750.491 977.605 689.918 C 921.855 520.237 803.465 356.638 657.778 253.026 C 630.776 233.822 611.927 220.845 582.555 206.01 z" fill="rgb(0,0,0)" transform="translate(0,0)"></path>
<path d="M 1821.07 528.55 C 1831.02 546.032 1841.58 562.684 1851.48 580.299 C 1859.93 595.33 1866.99 611.99 1875.16 626.595 C 1892.35 660.057 1908.04 701.498 1919.9 737.572 C 1698.82 700.633 1479.32 744.469 1292.77 872.003 C 1227.92 916.335 1184.71 962.686 1136.4 1023.6 C 1169.02 1065.34 1201.5 1102.74 1242.06 1137.34 C 1418.43 1287.82 1693.8 1356 1920.36 1309.47 C 1913.83 1328.87 1907.19 1349.64 1899.45 1368.48 C 1892 1386.61 1882.99 1404.87 1875.02 1422.87 C 1871.11 1429.4 1867.53 1436.78 1864.3 1443.69 C 1851.82 1470.42 1836.79 1494.82 1821.17 1519.74 C 1806.79 1517.76 1792.32 1515.72 1778.05 1513.66 C 1495.27 1472.83 1229.19 1311.74 1065.42 1077.11 C 1053.78 1060.44 1043.36 1040.11 1031.08 1024.35 L 1030.2 1023.22 C 1040.55 1008.68 1050.58 992.265 1060.89 977.299 C 1079.99 949.71 1100.3 922.985 1121.78 897.202 C 1153.94 859.615 1188.86 824.473 1226.24 792.068 C 1360.6 673.709 1522.3 590.649 1696.78 550.375 C 1724.79 543.787 1752.06 538.595 1780.54 534.43 C 1793.88 532.479 1807.67 529.715 1821.07 528.55 z" fill="rgb(0,0,0)" transform="translate(0,0)"></path>
<path d="M 1093.37 1023.55 C 1119.88 986.742 1149.01 951.898 1180.53 919.288 C 1319.3 775.096 1513.88 675.563 1710.55 641.132 C 1764.98 632.146 1820 627.287 1875.16 626.595 C 1892.35 660.057 1908.04 701.498 1919.9 737.572 C 1698.82 700.633 1479.32 744.469 1292.77 872.003 C 1227.92 916.335 1184.71 962.686 1136.4 1023.6 C 1169.02 1065.34 1201.5 1102.74 1242.06 1137.34 C 1418.43 1287.82 1693.8 1356 1920.36 1309.47 C 1913.83 1328.87 1907.19 1349.64 1899.45 1368.48 C 1892 1386.61 1882.99 1404.87 1875.02 1422.87 C 1816.31 1422.41 1757.76 1416.72 1700.06 1405.85 C 1465.59 1359.7 1228.31 1224.66 1093.37 1023.55 z" fill="rgb(47,202,136)" transform="translate(0,0)"></path>
<path d="M 228.406 528.382 C 276.287 534.572 342.056 546.559 388.643 559.181 C 610.513 619.295 814.678 751.43 956.24 933.022 C 980.588 964.254 996.86 992.228 1018.41 1023.47 C 1006.85 1039.53 996.3 1058.03 984.779 1074.68 C 960.649 1108.85 934.786 1141.76 907.293 1173.29 C 773.548 1323.99 582.235 1437.57 388.328 1489.7 C 353.1 1498.83 317.449 1506.25 281.501 1511.92 C 263.612 1514.8 245.657 1517.26 227.652 1519.28 C 225.138 1516.43 217.188 1502.16 214.692 1498.05 C 199.744 1473.43 186.944 1448.41 173.868 1422.78 C 158.786 1390.18 139.583 1343.93 129.26 1309.66 C 154.491 1312.82 175.812 1317.21 202.001 1319.64 C 290.68 1327.45 380.033 1321.47 466.88 1301.91 C 604.404 1271.06 743.097 1204.08 842.935 1104.16 C 866.049 1081.03 894.901 1051.01 912.385 1023.38 C 854.515 950.728 797.548 894.576 716.818 846.342 C 572.941 760.28 407.057 718.126 239.549 725.06 C 207.881 726.514 159.817 731.163 128.88 738.931 C 139.092 709.2 159.057 654.927 173.935 626.95 C 185.681 600.206 212.484 552.686 228.406 528.382 z" fill="rgb(0,0,0)" transform="translate(0,0)"></path>
<path d="M 173.935 626.95 C 431.931 628.485 679.099 730.849 862.635 912.176 C 896.605 946.863 927.869 984.099 956.155 1023.56 C 936.891 1052.67 915.533 1077.34 892.482 1103.34 C 756.198 1257.09 560.48 1362.68 359.875 1403.51 C 298.563 1415.41 236.318 1421.87 173.868 1422.78 C 158.786 1390.18 139.583 1343.93 129.26 1309.66 C 154.491 1312.82 175.812 1317.21 202.001 1319.64 C 290.68 1327.45 380.033 1321.47 466.88 1301.91 C 604.404 1271.06 743.097 1204.08 842.935 1104.16 C 866.049 1081.03 894.901 1051.01 912.385 1023.38 C 854.515 950.728 797.548 894.576 716.818 846.342 C 572.941 760.28 407.057 718.126 239.549 725.06 C 207.881 726.514 159.817 731.163 128.88 738.931 C 139.092 709.2 159.057 654.927 173.935 626.95 z" fill="rgb(47,202,136)" transform="translate(0,0)"></path>
<path d="M 1022.78 917.002 C 1023.47 915.036 1024.24 913.252 1025.03 911.326 C 1025.04 912.998 1025.68 919.233 1023.79 919.956 C 1022.81 919.548 1022.87 917.69 1022.78 917.002 z" fill="rgb(22,101,61)" transform="translate(0,0)"></path>
<path d="M 1022.8 1133.62 C 1022.87 1132.94 1023.2 1127.06 1024.5 1127.23 C 1025.22 1127.85 1025.26 1129.36 1025.41 1130.14 C 1024.55 1131.34 1023.69 1132.45 1022.8 1133.62 z" fill="rgb(22,101,61)" transform="translate(0,0)"></path>
<path d="M 763.605 1915.07 C 767.724 1913.03 776.97 1911.28 774.873 1918.42 C 771.236 1917.18 767.319 1916.14 763.605 1915.07 z" fill="rgb(0,0,0)" fill-opacity="0.956863" transform="translate(0,0)"></path>
<path d="M 750.631 1910.97 C 754.902 1908.97 761.779 1907.86 760.926 1914.49 C 757.685 1913.25 753.963 1912.09 750.631 1910.97 z" fill="rgb(0,0,0)" fill-opacity="0.960784" transform="translate(0,0)"></path>
<metadata><recraft-signature>{"signed_by": "recraft", "signature_b64": "IiAM4ha+t7YVshgBjeoUKzrH7kHWEpNHn6irBjm2PUIAadoiPWcc1ldrAisca2JxChKhpmcV3WfRnrcjOPP5Dw==", "signing_algo": "Ed25519", "generation_timestamp": 1772775135, "identifier": "2fad2a4c-58d6-4f77-a044-b6271e059f1b"}</recraft-signature></metadata></svg>