<svg xmlns="http://www.w3.org/2000/svg" height="1024" preserveAspectRatio="none" style="display: block;" version="1.1" viewBox="0 0 2048 2048" width="1024">
<path d="M 0 0 L 2048 0 L 2048 2048 L 0 2048 L 0 0 z" fill="rgb(255,255,255)" transform="translate(0,0)"></path>
<path d="M 1001.62 256.044 C 1426.45 243.019 1781.38 576.898 1794.32 1001.73 C 1807.26 1426.57 1473.32 1781.43 1048.48 1794.29 C 623.759 1807.15 269.011 1473.31 256.072 1048.6 C 243.133 623.878 576.901 269.065 1001.62 256.044 z" fill="rgb(30,191,113)" transform="translate(0,0)"></path>
<path d="M 1017.44 337.434 C 1018.51 337.391 1019.58 337.356 1020.66 337.327 C 1041.5 336.774 1069.82 338.841 1090.53 340.869 C 1242.14 356.24 1384.43 421.269 1495.27 525.846 C 1599.07 623.902 1670.14 751.573 1698.77 891.471 C 1707.14 929.592 1712.03 968.393 1713.38 1007.4 C 1716.37 1118.47 1688.77 1228.45 1642.4 1328.78 C 1627.51 1356 1615.79 1402.38 1577.39 1402.1 C 1544.97 1401.86 1534.02 1372.67 1522.92 1348.31 C 1448.53 1184.97 1354.75 992.103 1153.49 970.541 C 1118.18 966.758 1074.46 968.987 1038.41 969.074 C 996.713 969.022 932.85 967.015 892.954 971.563 C 857.16 975.771 822.359 986.116 790.078 1002.14 C 671.632 1060.17 608.663 1179.13 552.514 1292.31 C 537.602 1322.37 524.416 1358.52 506.211 1386.6 C 500.456 1395.48 486.671 1401.04 476.134 1402.1 C 438.064 1406.05 425.752 1367.51 412.034 1340.02 C 341.876 1199.43 320.946 1039.63 353.4 886.321 C 406.144 637.174 596.686 432.321 841.569 362.806 C 900.469 346.086 956.859 340.427 1017.44 337.434 z" fill="rgb(0,0,0)" transform="translate(0,0)"></path>
<path d="M 999.557 425.407 C 1096.37 421.322 1192.76 440.456 1280.67 481.212 C 1425.36 549.06 1536.81 672.084 1590.08 822.755 C 1632.96 943.48 1636.75 1063.35 1603.93 1186.87 C 1598.34 1207.9 1587.32 1247.73 1578.07 1267.13 C 1554.83 1213.87 1527.62 1162.44 1496.67 1113.26 C 1425.34 1000.88 1336.5 924.537 1204.11 895.03 C 1284.7 800.765 1296.7 681.004 1221.56 578.188 C 1179.18 520.191 1121.83 491.02 1051.23 481.198 C 1044.66 480.725 1038.08 480.358 1031.5 480.096 C 967.296 478.659 905.083 502.407 858.171 546.258 C 760.282 638.838 754.048 796.239 846.768 894.257 C 826.477 900.194 807.374 904.85 787.362 912.182 C 730.182 933.13 686.412 962.817 642.489 1003.99 C 562.189 1079.27 518.174 1169.45 472.931 1267.8 C 469.393 1260.62 463.94 1245.39 461.096 1237.63 C 440.016 1179.34 427.721 1118.23 424.614 1056.32 C 415.755 902.582 472.412 744.569 574.344 629.133 C 685.612 503.124 832.044 434.973 999.557 425.407 z" fill="rgb(30,191,113)" transform="translate(0,0)"></path>
<path d="M 1026.07 712.682 C 1030.02 714.013 1039.69 723.966 1043.88 726.921 C 1087.54 757.74 1129.85 763.941 1180.75 751.239 C 1175.86 781.654 1162.19 809.978 1141.43 832.736 C 1111.33 865.258 1068.94 880.933 1025.27 882.389 C 945.264 881.132 885.47 829.539 871.079 751.227 C 932.708 769.251 977.794 752.09 1026.07 712.682 z" fill="rgb(30,191,113)" transform="translate(0,0)"></path>
<path d="M 1015.8 569.411 C 1082.79 564.583 1143.3 597.891 1170.09 660.18 C 1140.77 674.704 1108.34 670.808 1085.9 646.171 C 1077.88 637.366 1072.1 626.304 1062.79 618.71 C 1054.21 611.712 1047.56 610.038 1037.23 608.131 C 962.882 601.02 990.01 652.425 930.229 666.552 C 915.035 670.142 897.049 668.515 883.626 659.898 C 907.563 603.746 956.145 574.129 1015.8 569.411 z" fill="rgb(30,191,113)" transform="translate(0,0)"></path>
<path d="M 1013.12 1034.38 C 1050.36 1030.09 1082.3 1042.75 1108.85 1068.55 C 1150.44 1108.97 1146.85 1154.25 1146.8 1207.57 L 1146.75 1294.11 C 1191 1294.96 1240.86 1294.47 1285.12 1293.35 L 1284.92 1292.24 C 1279 1259.22 1267.26 1230.81 1237.35 1212.33 C 1217.81 1200.25 1195.1 1195.04 1191.7 1168.18 C 1187.32 1133.61 1220.94 1109.75 1252.51 1123.07 C 1294.36 1141.41 1331.65 1174.44 1352.19 1215.51 C 1365.48 1242.09 1371.09 1270.73 1373.94 1300 C 1392.25 1304.29 1412.99 1314.35 1428.53 1324.78 C 1463.94 1348.15 1488.36 1384.88 1496.21 1426.57 C 1504.13 1468.25 1495.1 1511.37 1471.13 1546.36 C 1420.66 1619.62 1218.45 1690.56 1130.39 1706.96 C 1112.56 1710.49 1096.97 1709.01 1081.49 1698.65 C 1052.05 1678.95 1057.64 1640.46 1057.39 1608.63 L 1056.98 1527.92 L 1056.95 1242.28 C 1056.97 1223.93 1057.14 1205.57 1057.46 1187.22 C 1057.83 1162.85 1062.7 1139.09 1039.83 1123.54 L 1038.63 1122.73 C 1022.39 1115.07 996.703 1123.75 994.499 1140.96 C 989.872 1177.1 992.216 1217.46 992.372 1254.25 L 992.499 1520.16 L 992.227 1602.54 C 992.389 1641.13 1001.29 1693.41 952.011 1706.6 C 933.169 1711.65 908.793 1704.54 890.078 1700.16 C 806.079 1680.5 724.329 1648.23 649.321 1605.68 C 563.492 1558.18 525.23 1463.46 575.135 1374.59 C 594.619 1339.9 636.737 1310.31 675.556 1300.79 L 676.879 1300.48 C 683.078 1250.01 690.707 1213.75 726.938 1173.62 C 748.524 1151.68 784.566 1121.79 816.167 1118.88 C 838.855 1116.8 860.235 1142.04 858.763 1164.51 C 856.379 1200.88 820.379 1202.1 798.816 1223.33 C 778.562 1243.27 767.907 1265.45 766.877 1294 C 811.672 1294.16 859.921 1295.05 904.383 1293.18 C 904.771 1265.88 904.908 1238.57 904.795 1211.27 C 904.612 1162.97 898.99 1118.66 931.611 1078.82 C 953.389 1052.22 979.12 1038.24 1013.12 1034.38 z" fill="rgb(0,0,0)" transform="translate(0,0)"></path>
<path d="M 715.849 1381.39 C 739.4 1380.55 766.869 1381.39 790.649 1381.43 L 904.854 1381.28 C 903.795 1405.07 904.854 1435.74 904.951 1459.97 C 905.169 1511.93 905.08 1563.88 904.684 1615.84 C 885.482 1611.57 866.327 1605.26 847.745 1598.91 C 794.393 1580.65 714.142 1550.22 669.274 1515.58 C 612.463 1471.72 640.875 1387.96 715.849 1381.39 z" fill="rgb(30,191,113)" transform="translate(0,0)"></path>
<path d="M 1146.21 1381.37 L 1256.98 1381.55 C 1285.12 1381.49 1325.5 1378.48 1352.04 1384.42 C 1392.22 1393.41 1420.17 1435.05 1408.28 1475.82 C 1398.41 1509.65 1369.1 1525.9 1340.09 1541.89 C 1295.64 1565.68 1247.48 1584.42 1199.66 1599.97 C 1182.29 1605.62 1164 1612.33 1146.16 1615.81 C 1145.61 1589.19 1146.18 1560.46 1146.23 1533.66 L 1146.21 1381.37 z" fill="rgb(30,191,113)" transform="translate(0,0)"></path>
<metadata><recraft-signature>{"signed_by": "recraft", "signature_b64": "9ewcfNukkhO/Tm5ansPz+DdTFGAT7Wo+BG3ApHzTerlWLl5sCbAmtJFoWTThjenJaag3S27YSFhv9bvFgr6UBw==", "signing_algo": "Ed25519", "generation_timestamp": 1772775092, "identifier": "2512fd6a-3e4a-4338-ba30-f8a2362fc9de"}</recraft-signature></metadata></svg>