<svg xmlns="http://www.w3.org/2000/svg" height="1024" preserveAspectRatio="none" style="display: block;" version="1.1" viewBox="0 0 2048 2048" width="1024">
<path d="M 0 0 L 2048 0 L 2048 2048 L 0 2048 L 0 0 z" fill="rgb(254,254,253)" transform="translate(0,0)"></path>
<path d="M 721.268 469.072 L 868.071 468.819 C 878.977 468.768 925.995 467.583 933.524 469.073 C 972.147 468.359 1012.08 468.993 1050.79 468.965 C 1066.75 468.953 1104.04 468.133 1118.77 469.939 C 1124.17 468.944 1139.47 469.067 1145.48 469.016 C 1163.17 468.871 1180.87 468.844 1198.56 468.934 C 1246.57 469.07 1296.29 468.221 1344.08 469.186 L 1355.02 469.083 L 1566.95 469.198 C 1573.56 474.641 1581.24 482.8 1587.11 489.222 C 1731.82 644.721 1806.99 852.424 1795.33 1064.52 C 1785.32 1272.34 1693.18 1467.67 1539.17 1607.57 C 1388.07 1746.35 1187.31 1818.18 982.47 1806.76 C 775.887 1797.06 587.016 1701.27 448.714 1549.09 C 311.115 1397.48 239.727 1197.22 250.394 992.762 C 258.02 824.168 319.978 662.563 427.016 532.083 C 446.195 509.005 462.837 489.548 484.89 469.512 C 512.392 468.239 545.047 469.041 572.861 469.08 L 699.128 468.975 L 721.268 469.072 z" fill="rgb(0,0,0)" transform="translate(0,0)"></path>
<path d="M 484.89 469.512 C 512.392 468.239 545.047 469.041 572.861 469.08 L 699.128 468.975 C 675.662 483.965 652.782 498.745 630.89 516.023 C 511.121 609.546 427.664 741.861 394.858 890.235 C 359.492 1053.65 389.892 1224.41 479.479 1365.58 C 543.664 1466.12 633.728 1547.54 740.221 1601.28 C 748.578 1605.52 785.034 1623.73 791.796 1623.61 C 802.976 1630.15 836.812 1639.21 849.994 1642.79 C 960.344 1673.09 1076.67 1674.19 1187.58 1645.99 C 1209.15 1640.34 1234.85 1632.54 1255.15 1623.67 C 1261.25 1623.52 1291.89 1608.68 1298.44 1605.51 C 1549.72 1483.96 1701.41 1212.76 1661 934.651 C 1634.83 754.511 1539.19 601.734 1392.26 494.458 C 1380.54 485.9 1367.59 478.675 1356.08 469.899 L 1355.02 469.083 L 1566.95 469.198 C 1573.56 474.641 1581.24 482.8 1587.11 489.222 C 1731.82 644.721 1806.99 852.424 1795.33 1064.52 C 1785.32 1272.34 1693.18 1467.67 1539.17 1607.57 C 1388.07 1746.35 1187.31 1818.18 982.47 1806.76 C 775.887 1797.06 587.016 1701.27 448.714 1549.09 C 311.115 1397.48 239.727 1197.22 250.394 992.762 C 258.02 824.168 319.978 662.563 427.016 532.083 C 446.195 509.005 462.837 489.548 484.89 469.512 z" fill="rgb(49,182,118)" transform="translate(0,0)"></path>
<path d="M 997.017 1342.29 C 949.834 1370.48 891.34 1390.51 837.758 1402.38 C 825.183 1405.16 804.771 1410.29 792.419 1406.55 C 732.486 1388.32 745.552 1316.47 737.027 1268.32 C 735.727 1259.79 736.559 1248.12 733.149 1240.24 C 719.281 1208.18 678.799 1232.63 662.878 1201.71 C 649.526 1175.77 667.204 1156.59 680.211 1135.24 C 700.006 1102.74 722.099 1069.91 737.405 1034.85 C 747.865 1010.1 739.057 976.24 740.737 949.655 C 746.707 845.285 808.182 752.129 901.795 705.594 C 970.503 672.186 1048.37 670.107 1119.71 696.007 C 1192.78 722.536 1249.66 770.039 1283.68 840.471 C 1315.02 905.33 1320.3 992.024 1295.83 1060.13 C 1280.96 1101.51 1239.8 1150.49 1214.54 1189.31 C 1169.11 1259.1 1138.31 1347.94 1141.7 1432.03 C 1142.52 1452.37 1154.91 1488.79 1163.45 1507.15 C 1184.47 1552.38 1218.62 1590.33 1255.15 1623.67 C 1234.85 1632.54 1209.15 1640.34 1187.58 1645.99 C 1076.67 1674.19 960.344 1673.09 849.994 1642.79 C 836.812 1639.21 802.976 1630.15 791.796 1623.61 C 895.777 1559.5 959.325 1455.98 997.017 1342.29 z" fill="rgb(254,254,253)" transform="translate(0,0)"></path>
<path d="M 1118.77 469.939 C 1124.17 468.944 1139.47 469.067 1145.48 469.016 C 1163.17 468.871 1180.87 468.844 1198.56 468.934 C 1246.57 469.07 1296.29 468.221 1344.08 469.186 L 1332.53 470.094 C 1354.39 484.887 1374.47 498.768 1394.58 516.078 C 1495.47 603.746 1563.8 722.915 1588.5 854.273 C 1616.66 1001.02 1584.96 1152.93 1500.46 1276.16 C 1445.63 1357.08 1371.61 1423.15 1285.02 1468.47 C 1265.34 1478.91 1246.51 1488.84 1225.38 1496.1 C 1223.79 1480.91 1217.24 1433.27 1223.19 1417.24 C 1225.17 1411.88 1253.25 1400.89 1258.92 1397.53 C 1277.58 1388.02 1295.31 1376.28 1312.82 1364.27 C 1453.01 1266.35 1532.4 1102.73 1522.56 932.004 C 1514.25 799.33 1453.67 675.365 1354.11 587.282 C 1300.51 540.168 1237.66 504.779 1169.59 483.388 C 1152.35 477.864 1133.29 474.626 1118.77 469.939 z" fill="rgb(49,182,118)" transform="translate(0,0)"></path>
<path d="M 721.268 469.072 L 868.071 468.819 C 878.977 468.768 925.995 467.583 933.524 469.073 C 926.831 471.284 915.863 473.606 908.596 475.541 C 896.806 478.735 885.11 482.263 873.522 486.121 C 683.59 547.817 545.35 719.058 529.603 918.55 C 522.413 1009.65 538.093 1099.13 581.796 1179.89 C 589.222 1192.83 594.716 1211.91 604.395 1223.14 C 624.719 1246.73 647.324 1264.9 667.9 1288.93 C 669.249 1297.19 669.623 1312.09 670.474 1321.13 C 673.8 1356.48 678.745 1384.65 696.788 1415.31 C 643.908 1382.66 581.8 1319.66 546.168 1269.08 C 464.517 1153.17 436.755 1003.4 460.558 864.708 C 483.089 733.141 549.454 613.06 648.866 523.983 C 672.315 503.081 695.654 487.167 721.268 469.072 z" fill="rgb(49,182,118)" transform="translate(0,0)"></path>
<path d="M 1009.11 537.434 C 1051.79 535.347 1094.53 540.068 1135.73 551.42 C 1246.05 580.94 1339.9 653.531 1396.2 752.896 C 1452.49 851.477 1466.7 968.578 1435.61 1077.76 C 1405.19 1188.77 1329.04 1275.77 1230.08 1332.05 C 1237.71 1298.35 1251.76 1251.57 1267.91 1220.8 C 1272.64 1211.79 1299.39 1186.63 1308.75 1174.19 C 1348.87 1120.83 1372.99 1059.69 1378.88 993.63 C 1386.33 900.219 1356.66 807.636 1296.31 735.95 C 1294.4 733.628 1292.41 731.364 1290.36 729.161 C 1223.12 656.438 1137.23 614.087 1037.7 610.425 C 941.835 607.309 848.745 642.874 779.378 709.115 C 716.319 768.873 677.329 849.656 669.774 936.203 C 668.732 948.89 668.473 961.63 668.998 974.349 C 669.343 981.612 670.83 996.373 670.234 1002.95 C 667.619 1031.79 644.314 1083.01 622.427 1101.55 C 608.741 1071.67 601.185 1014.71 599.529 981.338 C 593.494 870.039 632.409 760.979 707.539 678.642 C 788.085 589.84 889.997 543.086 1009.11 537.434 z" fill="rgb(49,182,118)" transform="translate(0,0)"></path>
<path d="M 567.857 402.565 C 724.218 280.754 922.54 225.996 1119.25 250.324 C 1230.97 264.283 1338.16 302.973 1433.05 363.577 C 1452.66 375.867 1473.16 391.004 1492.15 404.527 C 1454.41 405.111 1416.67 405.354 1378.93 405.256 C 1361.58 405.291 1342.08 406.123 1325 404.306 C 1318.86 403.651 1302.22 394.013 1295.55 390.997 C 1133.47 317.773 954.283 316.256 788.311 376.967 C 776.202 381.517 764.295 386.587 752.622 392.162 C 746.908 394.844 729.411 403.954 724.944 404.284 C 702.903 405.915 675.77 405.315 653.647 405.163 C 642.523 405.087 615.182 405.953 605.673 404.928 C 596.573 405.161 574.354 406.272 566.416 405.306 L 565.709 404.212 L 567.857 402.565 z" fill="rgb(49,182,118)" transform="translate(0,0)"></path>
<metadata><recraft-signature>{"signed_by": "recraft", "signature_b64": "X0KhDB/Vd7ztpsbo49VLJ/8sMf7YQNkJ+SY4K933KTZmcWriE1Kk83Xq6GbsPzrBl0xfttU8EP9RlUjyd4WACA==", "signing_algo": "Ed25519", "generation_timestamp": 1772775115, "identifier": "8bb6f8c2-8fc0-40b4-9cce-cc3eba336349"}</recraft-signature></metadata></svg>