<svg xmlns="http://www.w3.org/2000/svg" height="1024" preserveAspectRatio="none" style="display: block;" version="1.1" viewBox="0 0 2048 2048" width="1024">
<path d="M 1023.96 348.613 C 1031.53 352.591 1089.45 413.427 1101.08 424.964 L 1279.27 601.623 C 1299.86 622.213 1323.52 644.55 1343.33 665.323 C 1271.11 663.324 1210.06 647.346 1140.53 629.567 L 1025.91 600.532 C 1000.07 605.166 969.072 614.582 943.124 620.879 C 896.309 632.24 848.819 646.707 801.478 655.219 C 769.982 660.648 738.167 664.04 706.234 665.373 L 1023.96 348.613 z" fill="rgb(41,62,186)" transform="translate(0,0)"></path>
<path d="M 706.434 1384.86 C 788.324 1386.96 864.696 1410.28 943.55 1429.4 C 962.426 1433.97 1007.97 1447.09 1025.66 1448.31 C 1032.94 1448.82 1086.36 1434.33 1097.58 1431.64 C 1180.26 1411.77 1256.38 1387.54 1342.45 1385.02 C 1331.87 1396.64 1317.09 1410.59 1305.82 1421.81 L 1216.91 1508.69 L 1085.71 1638.82 C 1065.94 1658.52 1044.45 1681.44 1024.56 1700.14 C 1015.27 1692.55 1000.68 1676.42 991.374 1667.11 L 925.715 1601.94 L 808.463 1485.69 C 774.856 1451.67 740.844 1418.06 706.434 1384.86 z" fill="rgb(41,62,186)" transform="translate(0,0)"></path>
<path d="M 1071.42 252.931 C 1091.07 253.146 1128.65 258.439 1148.44 261.519 C 1308.26 286.758 1455.75 362.659 1569.18 478.039 C 1585.2 494.393 1608.61 518.763 1622.15 537.277 C 1614.1 547.505 1577.26 577.439 1566.35 585.925 C 1532.49 610.288 1504.14 627.526 1465.62 644.653 C 1452.04 633.395 1437.78 618.458 1425.17 605.848 L 1361.77 542.382 L 1170.9 352.422 C 1137.81 319.286 1105.12 285.336 1071.42 252.931 z" fill="rgb(41,62,186)" transform="translate(0,0)"></path>
<path d="M 1464.75 1405.9 C 1472.33 1408.13 1485.73 1414.93 1493.19 1418.73 C 1539.55 1442.35 1586.26 1474.09 1621.79 1512.26 C 1609.87 1528.98 1587.17 1552.28 1572.96 1566.96 C 1473.04 1669.81 1346.37 1742.7 1207.24 1777.4 C 1166.45 1787.98 1112.11 1796.07 1070.23 1797.65 C 1077.63 1787.82 1097.3 1769.84 1107.07 1760.32 L 1173.51 1694.83 L 1464.75 1405.9 z" fill="rgb(41,62,186)" transform="translate(0,0)"></path>
<path d="M 583.249 1406.77 C 586.369 1407.22 587.304 1408.15 589.835 1410.59 C 617.268 1437.04 644.234 1464.3 671.217 1491.23 L 804.087 1623 L 910.636 1728.92 C 929.934 1747.99 961.114 1777.35 978.583 1797.37 C 934.851 1794.77 891.419 1788.46 848.755 1778.51 C 703.691 1743.69 572.032 1667.07 470.088 1558.15 C 460.087 1547.27 438.07 1523.95 430.146 1512.51 C 466.485 1471.71 532.87 1428.43 583.249 1406.77 z" fill="rgb(41,62,186)" transform="translate(0,0)"></path>
<path d="M 966.512 253.417 L 976.246 252.701 C 960.376 270.593 936.1 293.517 918.675 310.912 L 799.781 428.972 L 665.808 564.11 C 639.874 590.283 612.104 618.833 585.316 644.058 C 559.126 634.392 516.833 609.201 494.46 592.521 C 481.098 583.346 439.423 548.543 430.202 536.329 C 431.16 535.091 432.116 533.922 433.104 532.723 C 539.945 403.115 688.503 307.014 853.238 271.073 C 890.519 262.94 928.347 257.013 966.512 253.417 z" fill="rgb(41,62,186)" transform="translate(0,0)"></path>
<path d="M 1026.22 826.747 C 1035.22 835.027 1044.89 844.998 1053.41 853.841 C 1108.9 911.407 1169.78 965.714 1223.83 1024.43 C 1159.66 1090.38 1090.42 1156.44 1025.05 1222.08 C 1008.36 1207.68 980.067 1176.85 963.043 1159.89 L 826.466 1024.08 C 834.396 1015.13 846.034 1004.42 854.859 995.778 L 912.93 938.941 C 947.401 904.664 990.683 857.874 1026.22 826.747 z" fill="rgb(41,62,186)" transform="translate(0,0)"></path>
<path d="M 1505.73 828.638 C 1512.18 833.756 1528.16 850.409 1534.42 856.662 L 1593.27 915.624 L 1661.05 982.457 C 1673.61 994.849 1690.9 1011.33 1702.13 1024.53 C 1691.1 1038 1667.14 1059.79 1653.84 1072.94 L 1562.69 1163.5 C 1544.76 1179.92 1523.14 1203.09 1505.7 1220.76 C 1489.77 1156.59 1457.83 1080.35 1422.72 1023.8 C 1465.46 949.259 1483.58 912.827 1505.73 828.638 z" fill="rgb(41,62,186)" transform="translate(0,0)"></path>
<path d="M 545.305 828.835 C 547.56 832.307 554.756 862.185 556.646 868.597 C 561.092 883.794 566.12 898.815 571.716 913.628 C 588.032 955.824 605.281 984.667 627.698 1023.39 C 614.634 1047.75 602.421 1065.97 589.959 1092.28 C 576.377 1121.34 564.772 1151.27 555.225 1181.89 C 551.279 1194.59 548.482 1207.29 544.526 1219.75 C 525.888 1200.23 506.919 1181.03 487.628 1162.16 L 395.427 1069.96 C 382.618 1057.19 360.901 1037 349.491 1024.01 C 372.606 997.665 410.628 962.782 436.364 937.182 L 511.641 862.652 C 522.834 851.539 533.816 839.403 545.305 828.835 z" fill="rgb(41,62,186)" transform="translate(0,0)"></path>
<path d="M 725.732 1067.57 C 733.749 1074.21 745.612 1087.48 753.633 1095.41 L 816.203 1157.34 L 934.595 1275.64 C 953.185 1294.29 971.287 1311.66 989.606 1330.85 C 965.788 1324.68 940.622 1317.68 916.76 1312.18 C 817.615 1286.57 741.05 1270.55 637.636 1282.21 C 645.974 1217.65 686.526 1119.81 725.732 1067.57 z" fill="rgb(41,62,186)" transform="translate(0,0)"></path>
<path d="M 1326.6 1066.97 C 1369.27 1128.17 1400.19 1208.11 1411.62 1281.75 C 1299.63 1271.42 1241.02 1285.6 1134.3 1312.22 C 1109.66 1318.98 1083.84 1324.86 1058.95 1331.17 C 1085.11 1309.47 1122.82 1268.89 1147.69 1244.15 L 1326.6 1066.97 z" fill="rgb(41,62,186)" transform="translate(0,0)"></path>
<path d="M 1063.1 720.646 C 1072.64 721.977 1090.76 726.939 1100.58 729.352 L 1176.28 748.088 C 1258.32 767.574 1327.99 773.443 1411.73 769.504 C 1407.44 817.093 1379.39 885.191 1358.37 927.741 C 1349.07 946.127 1338.7 963.949 1327.31 981.113 C 1319.09 974.278 1309.02 963.894 1301.23 956.289 C 1282.73 938.172 1264.39 919.888 1246.21 901.442 L 1144.97 801.865 C 1117.53 774.537 1091.55 747.058 1063.1 720.646 z" fill="rgb(41,62,186)" transform="translate(0,0)"></path>
<path d="M 982.63 721.226 L 985.176 721.332 C 983.046 726.064 930.56 775.968 924.034 782.495 L 726.009 980.17 C 715.628 965.906 704.134 944.969 695.499 929.63 C 670.183 884.249 647.73 821.194 638.994 769.862 C 654.671 770.056 670.396 771.092 686.187 771.269 C 788.735 772.425 883.433 743.301 982.63 721.226 z" fill="rgb(41,62,186)" transform="translate(0,0)"></path>
<path d="M 1683.55 622.072 C 1688.5 627.883 1703.4 655.997 1707.47 663.412 C 1759.32 760.049 1789.73 866.725 1796.64 976.175 C 1776.53 958.821 1744.45 925.332 1725.37 905.868 L 1595.6 776.213 C 1580.51 761.043 1552.81 735.434 1539.68 720.164 C 1597.27 690.499 1634.87 663.702 1683.55 622.072 z" fill="rgb(41,62,186)" transform="translate(0,0)"></path>
<path d="M 1795.63 1074.89 L 1796.5 1075.86 C 1790.61 1199.84 1747.23 1322.14 1683.39 1427.65 C 1652.7 1400.85 1637.52 1387.87 1603.36 1365.33 C 1583.35 1352.08 1559.61 1340.67 1538.08 1330.01 C 1549.81 1316.51 1570.36 1298.18 1583.78 1284.8 C 1618.73 1249.56 1653.94 1214.58 1689.41 1179.86 L 1757.14 1112.35 C 1768.07 1101.41 1783.96 1084.34 1795.63 1074.89 z" fill="rgb(41,62,186)" transform="translate(0,0)"></path>
<path d="M 367.524 621.536 C 373.439 625.976 380.472 631.982 385.957 636.939 C 424.301 671.587 466.785 695.307 511.244 720.927 C 495.582 738.494 467.901 763.658 450.225 781.24 C 409.568 822.074 368.669 862.666 327.53 903.014 C 304.219 926.448 278.337 953.783 254.865 976.349 C 254.795 962.028 257.914 939.001 259.797 924.487 C 270.54 836.176 297.468 750.602 339.232 672.053 C 348.099 654.976 356.717 637.432 367.524 621.536 z" fill="rgb(41,62,186)" transform="translate(0,0)"></path>
<path d="M 254.898 1073.78 C 265.774 1082.61 278.688 1096.67 288.87 1107.03 C 305.609 1124.13 322.486 1141.09 339.499 1157.91 C 396.124 1214.05 455.713 1271.38 511.053 1328.64 C 488.879 1339.82 467.315 1352.16 446.451 1365.63 C 425.542 1378.18 385.493 1412.31 368.032 1429.35 C 301.708 1321.91 262.854 1199.79 254.898 1073.78 z" fill="rgb(41,62,186)" transform="translate(0,0)"></path>
<metadata><recraft-signature>{"signed_by": "recraft", "signature_b64": "/vY0Y08t6xxDF4dVTg1J8zRO8E5vF6f3we+DrRfYwMdzZXI+IQ21cwr1l22T/S+NFJo3HVBQg8XSSP20DYwQBA==", "signing_algo": "Ed25519", "generation_timestamp": 1772774837, "identifier": "4c655678-413e-4ca4-a525-4e02e825d09e"}</recraft-signature></metadata></svg>